<svg width="43" height="40" viewBox="0 0 43 40" fill="none" xmlns="http://www.w3.org/2000/svg">
<path d="M0.0439235 13.9382C0.0290761 14.0011 0.0142287 14.0602 0 14.1218C0.0160847 14.0608 0.0284575 13.9992 0.0439235 13.9382Z" fill="url(#paint0_linear_628_8309)"/>
<path d="M16.4442 2.56675C15.5999 2.82499 14.4809 3.73787 13.5291 4.9458C12.4423 6.31771 11.5817 8.34104 11.1569 10.5187C11.0173 11.2288 10.9904 12.8073 11.1031 13.3419C11.3509 14.4865 11.501 14.974 11.8026 15.6202C12.249 16.5609 12.812 17.2659 13.6642 17.9321C13.9598 18.1652 14.2023 18.3841 14.2023 18.4144C14.2023 18.479 13.6911 18.6423 12.9379 18.8224C11.7816 19.0981 10.8134 19.49 10.211 19.92C9.49585 20.4332 8.66205 21.2112 8.32316 21.6837C8.18354 21.8742 8.06096 22.0388 8.04326 22.0543C8.0059 22.0866 7.3445 23.2571 7.3445 23.2939C7.3445 23.3049 7.27436 23.4688 7.18849 23.6541C7.00382 24.0547 6.86467 24.474 6.77355 24.9047C6.70342 25.212 6.68703 25.4399 6.71456 26.0435C6.73029 26.4567 6.77356 26.8828 6.80567 26.9809C6.93677 27.3412 7.15506 27.797 7.30582 27.9984C7.36044 28.0686 7.40911 28.1431 7.45134 28.2211C7.45134 28.2631 7.75222 28.5491 8.04129 28.788C8.54734 29.2012 9.05273 29.4659 9.79476 29.7093C10.5158 29.9423 11.0402 30.0114 12.1133 30.0114C13.0598 30.0114 13.442 29.9746 14.281 29.8048C14.5013 29.7622 14.7399 29.7093 14.8185 29.6989C15.0499 29.6512 16.064 29.3652 16.4861 29.2218C16.8644 29.1003 17.2333 28.9521 17.59 28.7783C18.1281 28.5349 20.328 27.0461 20.817 26.6013C20.9035 26.5219 20.9842 26.4632 20.9894 26.4722C20.9946 26.4812 20.9573 26.7208 20.8976 26.9964C20.8118 27.3838 20.8013 27.5316 20.8439 27.6162C20.8767 27.6743 20.9245 27.7221 20.9514 27.7221C21.1185 27.7221 21.5 27.5052 21.974 27.141C22.2696 26.9183 23.9044 25.4405 24.2059 25.128C24.5933 24.7304 25.4697 24.0576 26.0348 23.7342C26.4812 23.4805 27.5995 22.9504 28.0786 22.7755L29.1543 22.3733C30.1009 22.0182 33.339 20.9691 34.146 20.7592C34.3125 20.7166 34.5812 20.6482 34.7359 20.6056C34.8906 20.563 35.3331 20.4681 35.7152 20.3938C36.0974 20.3196 36.5484 20.224 36.7103 20.1872C37.0918 20.102 38.939 20.1078 39.3454 20.1976C39.9747 20.3357 40.2061 20.4255 40.3404 20.5849C40.5076 20.7786 40.5076 20.9187 40.3457 21.2738C39.9589 22.137 38.8131 23.2442 36.7313 24.7859C34.9955 26.0668 33.71 26.8415 33.1076 26.9706C32.3709 27.1346 30.8645 27.1456 29.1543 27.0074C28.0301 26.9177 27.9443 26.9125 27.9443 26.9654C27.9443 27.1875 30.1277 27.6698 31.1228 27.6698C31.5423 27.6698 31.817 27.7705 31.817 27.928C31.817 28.1863 30.9451 28.3574 29.6112 28.3574C28.4228 28.3574 27.8256 28.2567 27.1105 27.939C26.7126 27.7589 26.3521 27.653 26.2583 27.6846C26.0754 27.7531 25.9627 28.1508 25.5163 30.3174C25.2475 31.6467 25.005 32.3937 24.6235 33.1355C24.3062 33.7349 23.8291 34.2379 23.2435 34.5905C22.6579 34.9431 21.9858 35.132 21.2995 35.1369C20.6485 35.1369 20.3818 34.9729 20.2507 34.5009C20.191 34.2789 20.2074 33.712 20.2828 33.3834C20.3634 33.0335 20.4067 32.8482 20.4873 32.4615C20.6433 31.6867 20.6754 31.5131 20.7023 31.1373L20.7344 30.7661L20.5784 31.2697C20.0029 33.1342 19.5617 34.0245 19.2504 33.9606C19.1048 33.9341 19.0537 33.6797 19.0884 33.0567C19.1153 32.5215 19.1422 32.3788 19.2982 31.8301C19.4293 31.3782 20.073 30.3523 20.5784 29.8067C20.641 29.7463 20.6937 29.6766 20.7344 29.6002C20.7831 29.5152 20.8428 29.4368 20.9121 29.3671C21.2726 28.9591 21.7832 28.3496 21.8298 28.2696C21.8619 28.205 21.8566 28.1953 21.8029 28.2276C21.6633 28.307 21.0818 28.6989 21.0163 28.7518C20.9789 28.7835 20.7259 29.001 20.4519 29.2341C20.1485 29.4888 19.8628 29.7632 19.5965 30.0553C19.2254 30.4685 18.7948 31.0618 18.7948 31.1528C18.7861 31.2 18.7591 31.2419 18.7194 31.2697C18.6768 31.3065 18.5634 31.577 18.4618 31.8733C18.2946 32.3898 18.2841 32.4544 18.2894 33.182C18.2946 34.0613 18.3753 34.4532 18.6604 34.9567C18.956 35.481 19.2681 35.7089 20.134 36.0375C20.5109 36.1802 20.6348 36.2015 21.0917 36.2015C22.1457 36.2015 23.281 35.836 24.0984 35.2376C24.3246 35.0678 24.7008 34.612 25.0234 34.1091C25.2384 33.7701 25.7333 32.721 25.8572 32.3343C26.2393 31.1425 26.2983 30.8455 26.4976 28.981C26.5513 28.4568 26.5723 28.3612 26.6477 28.3929C27.8204 28.87 28.799 29.0178 30.2837 28.9384C31.084 28.9063 31.8769 28.7746 32.6436 28.5465C33.6924 28.2502 34.8382 27.6937 35.9519 26.9364C36.8125 26.3553 37.0112 26.2101 37.194 26.0622C37.3664 25.9086 37.5008 25.8079 37.9741 25.4476C38.6086 24.9654 40.1956 23.4398 40.7121 22.8252C40.8622 22.6502 40.9914 22.4966 41.0077 22.4811C41.2044 22.2874 42.0133 21.2092 42.223 20.8671C42.4656 20.4642 42.5193 20.3215 42.5508 19.9716C42.5724 19.6908 42.5613 19.6223 42.4485 19.4635C42.1529 19.0394 41.7334 18.9173 40.2539 18.8489C39.2163 18.8011 37.9361 18.9231 36.6487 19.204C35.4432 19.4622 34.7176 19.6966 32.776 20.4539C31.189 21.0737 30.936 21.1692 30.0058 21.503C29.7096 21.6013 29.4186 21.7144 29.134 21.8419C28.8869 21.9639 28.7145 21.9846 28.6607 21.9C28.6286 21.8471 28.6935 21.778 29.2474 21.2802C29.5483 21.0104 29.7095 20.756 29.7095 20.5546C29.7095 20.4255 29.8446 20.2686 30.506 19.6275C31.4689 18.6901 32.0602 17.927 33.2918 16.0463C33.5365 15.6716 33.7576 15.2824 33.9539 14.881C34.0076 14.7642 34.104 14.5634 34.1637 14.4291C34.4593 13.8093 34.669 12.686 34.5452 12.3896C34.5026 12.2786 34.475 12.2605 34.4593 12.3102C34.3734 12.5594 33.9159 13.6983 33.6792 14.2438C33.147 15.4943 32.6357 16.4479 32.1788 17.0625C31.969 17.3427 31.1726 18.3389 31.1084 18.4028C31.092 18.4183 30.9773 18.5403 30.8553 18.6778C30.7334 18.8153 30.6187 18.9057 30.603 18.8896C30.5872 18.8734 30.5702 18.8896 30.5702 18.927C30.5702 18.9645 30.4391 19.1071 30.291 19.2556C29.7423 19.7721 29.4388 19.8961 29.4388 19.5997C29.4388 19.4706 29.7187 18.6358 29.8426 18.4028C30.504 17.1684 30.816 16.4369 31.2303 15.1444C31.7193 13.6453 31.7947 13.3858 31.8917 12.9087C31.9828 12.4568 31.9828 12.4006 31.8969 11.9287C31.8484 11.6588 31.7626 11.2934 31.7088 11.1184L31.6249 10.7976L31.5548 11.3005C31.5174 11.5762 31.4689 11.9364 31.442 12.0952C31.4151 12.254 31.3666 12.5665 31.3345 12.7841C31.0926 14.3335 30.8101 15.3794 30.388 16.3175C30.3447 16.4124 30.2805 16.5719 30.2372 16.6616C30.1939 16.7513 30.1028 16.9689 30.0274 17.1277C29.9521 17.2865 29.8308 17.5622 29.7587 17.7372C29.6866 17.9121 29.5489 18.2085 29.4631 18.3996C29.1563 19.051 29.1078 19.1672 29.0488 19.3738C28.9786 19.6281 28.8174 19.7502 28.4084 19.856C27.9082 19.9781 27.6873 20.1143 27.1393 20.6346C26.8594 20.9 26.0958 21.6198 25.4448 22.2345C23.966 23.6386 23.089 24.4295 22.7612 24.6451C22.7114 24.6783 22.6645 24.7154 22.6209 24.7562C22.6052 24.7723 22.3896 24.9098 22.1372 25.0583C19.6522 26.5258 17.0485 27.6485 15.145 28.0881C14.0798 28.3322 14.0044 28.3464 13.2086 28.4432C12.342 28.5491 10.9871 28.5226 10.5211 28.3903C9.2461 28.0352 8.56307 27.225 8.35331 25.8369C8.21369 24.8995 9.57451 23.1402 10.8973 22.5579C11.047 22.4977 11.191 22.4249 11.328 22.3403C11.4055 22.2894 11.4863 22.2434 11.5699 22.2028C11.661 22.1602 11.8655 22.0492 12.0287 21.9646L12.7065 21.5882C12.9215 21.4772 13.4059 21.2544 13.7822 21.1008C14.1584 20.9471 14.5032 20.7993 14.5301 20.767C14.5675 20.7302 14.5517 20.725 14.4868 20.7463C14.3793 20.7883 13.6478 20.9794 12.7281 21.2125C11.7495 21.461 10.7007 21.6837 10.4994 21.6837C10.3539 21.6837 10.3113 21.6624 10.3113 21.5882C10.3113 21.35 11.0428 20.603 11.5482 20.3222C11.7723 20.2039 12.0063 20.1047 12.2476 20.0258C12.4679 19.9516 12.8553 19.8134 13.1077 19.7185C14.4527 19.2201 15.7297 18.8231 15.9158 18.8334L16.1203 18.8547L15.453 18.2136C14.5353 17.3395 14.1191 16.8204 13.6458 15.9463C13.3876 15.4698 13.1077 14.6273 13.0218 14.0818C13.0002 13.9333 12.9792 13.7906 12.9733 13.7641C12.7904 12.9481 12.7766 11.2159 12.9412 10.294C13.1726 9.01763 13.4734 8.37138 14.4488 7.06597C14.9916 6.33514 15.4058 6.0543 15.8201 6.12855C16.0568 6.17051 16.4494 6.37711 16.8204 6.65278C16.9817 6.7748 17.1377 6.89101 17.1705 6.91102C17.5467 7.18088 18.3268 7.81164 18.5791 8.04987C18.639 8.10928 18.7049 8.16249 18.7758 8.20869C18.8862 8.28553 18.9905 8.37057 19.0878 8.46306C19.6469 8.97179 20.153 9.39531 20.153 9.3669C20.153 9.3385 19.249 7.97369 19.1848 7.91042C19.1171 7.82537 19.0541 7.73679 18.996 7.64507C18.9049 7.51595 18.7994 7.37005 18.7541 7.32227C18.6943 7.25819 18.6404 7.18906 18.5929 7.11568C18.5524 7.05263 18.5075 6.99245 18.4585 6.93555C18.4316 6.90392 18.3077 6.75543 18.1898 6.61275C18.0718 6.47007 17.7309 6.10983 17.4313 5.81285C17.0007 5.38933 16.8768 5.23568 16.8499 5.08202C16.7155 4.36669 17.5926 4.27695 18.507 4.91223C18.9154 5.19307 19.8947 6.03042 20.2926 6.43263C20.9973 7.15312 22.0139 8.37719 22.3312 8.88593C22.3902 8.98148 22.503 9.1403 22.5783 9.24101C22.8851 9.6387 23.7995 11.2224 24.4137 12.4142C25.3609 14.258 26.1403 16.3343 26.4202 17.7488C26.5061 18.1884 26.6621 19.1898 26.6673 19.3273L26.6732 19.4868L26.727 19.3221C26.7755 19.1685 26.6732 17.5144 26.5815 16.9172C26.3448 15.4324 25.9148 13.9875 25.237 12.4142C24.8123 11.4341 23.618 9.39983 22.4617 7.68381C22.225 7.33389 22.0369 7.04789 22.0369 7.03821C22.0369 7.02852 21.9019 6.83161 21.7406 6.60371C21.5794 6.37582 21.4076 6.14275 21.3643 6.08723C21.2457 5.91744 20.5469 4.9897 20.4126 4.8212C19.9764 4.30333 19.5119 3.80935 19.0209 3.34147C18.1281 2.52285 17.3586 2.28978 16.4442 2.56675Z" fill="url(#paint1_linear_628_8309)"/>
<defs>
<linearGradient id="paint0_linear_628_8309" x1="0.427815" y1="63.5045" x2="0.459001" y2="63.5045" gradientUnits="userSpaceOnUse">
<stop stop-color="#FF8F00"/>
<stop offset="0.99" stop-color="#FFE600"/>
</linearGradient>
<linearGradient id="paint1_linear_628_8309" x1="24.6309" y1="5.14035" x2="24.6309" y2="47.6404" gradientUnits="userSpaceOnUse">
<stop stop-color="#FF8F00"/>
<stop offset="1" stop-color="#FF1100"/>
</linearGradient>
</defs>
</svg>
