<svg width="190" height="159" viewBox="0 0 190 159" fill="none" xmlns="http://www.w3.org/2000/svg">
<path d="M42.7828 90.3452H39L43.9773 67.4773C44.8799 63.3027 45.5701 59.247 46.0479 55.3102C46.5522 51.2148 46.8044 47.3308 46.8044 43.6582C46.8044 42.6278 46.7912 41.9012 46.7646 41.4785L51.1446 39.4968V40.6065C51.1446 42.3504 50.9854 45.1643 50.6668 49.0482C50.3483 53.0643 50.0165 56.05 49.6714 58.0052C51.3437 54.1212 53.3612 50.6071 55.7238 47.463C58.2191 44.1603 60.7011 41.6106 63.1698 39.8139C65.6917 37.938 67.9879 37 70.0584 37C72.129 37 73.8014 37.8191 75.0756 39.4572C76.3232 41.1482 76.947 43.3676 76.947 46.1155C76.947 49.5767 76.1905 53.0775 74.6774 56.618C73.1908 60.0528 71.1335 63.2895 68.5055 66.328C65.9306 69.2608 63.0637 71.5859 59.9047 73.3033C56.7458 75.0207 53.6532 75.8794 50.627 75.8794C49.8572 75.8794 49.0475 75.7869 48.1981 75.602L50.3085 72.7881C51.5826 73.2108 52.9099 73.4222 54.2903 73.4222C56.4671 73.4222 58.6836 72.6824 60.94 71.2028C63.1433 69.7231 65.1209 67.6623 66.873 65.0201C68.4657 62.6157 69.8461 59.5508 71.0141 55.8254C72.1555 52.2321 72.7263 49.0747 72.7263 46.3532C72.7263 44.1074 72.3546 42.3768 71.6114 41.1614C70.8415 39.9196 69.7797 39.2987 68.4259 39.2987C66.5146 39.2987 64.3113 40.382 61.816 42.5485C59.3473 44.6887 56.9051 47.6479 54.4894 51.4262C52.7905 54.0684 51.357 56.9219 50.189 59.9868C49.0475 63.0253 48.0123 66.579 47.0832 70.6479L42.7828 90.3452Z" fill="#FF8F00"/>
<path d="M63.7671 104.415L65.7182 101.799C67.2844 103.437 69.0232 104.256 70.9344 104.256C73.005 104.256 74.6508 103.45 75.8719 101.839C77.1196 100.174 78.1416 97.5319 78.938 93.9121L80.7696 85.7082C77.8761 89.1166 75.2348 90.8208 72.8457 90.8208C71.4654 90.8208 70.3903 90.398 69.6204 89.5526C68.8241 88.7071 68.4259 87.5709 68.4259 86.1442C68.4259 85.193 68.5453 84.1493 68.7842 83.0132L71.4919 68.7852L75.3543 67.1603L71.4919 83.1321C71.1734 84.4268 71.0141 85.3912 71.0141 86.0253C71.0141 86.9236 71.2928 87.6502 71.8503 88.2051C72.3546 88.7863 73.0714 89.077 74.0005 89.077C74.9827 89.077 76.071 88.641 77.2656 87.7691C78.354 86.9764 79.668 85.695 81.2076 83.9248L84.632 68.7852L88.3749 67.1603L82.5614 90.4641C81.9509 93.0534 81.3005 95.2464 80.6103 97.0431C79.9732 98.6284 79.2432 99.9495 78.4203 101.006C75.8454 104.335 72.6732 106 68.9037 106C66.7004 106 64.9882 105.472 63.7671 104.415Z" fill="#FF8F00"/>
<path d="M96.5776 69.023C96.6837 68.4153 96.7368 67.8604 96.7368 67.3584C96.7368 66.4337 96.5908 65.7071 96.2988 65.1786C95.9803 64.6502 95.5821 64.386 95.1043 64.386C94.8654 64.386 94.6397 64.5049 94.4274 64.7427C94.215 65.0333 94.1088 65.3504 94.1088 65.6939C94.1088 66.9092 94.9317 68.019 96.5776 69.023ZM91.8392 79.7237L91.1224 79.0896C93.4319 76.3153 94.9583 73.7524 95.7016 71.4009C93.5514 70.2119 92.4763 68.5078 92.4763 66.2883C92.4763 65.2315 92.7284 64.3728 93.2328 63.7122C93.7372 63.0517 94.3743 62.7214 95.1441 62.7214C95.9405 62.7214 96.5908 63.0781 97.0952 63.7915C97.5996 64.5313 97.8518 65.4825 97.8518 66.645C97.8518 67.4377 97.7058 68.3492 97.4137 69.3797C98.0774 69.5646 98.7278 69.6571 99.3649 69.6571C101.011 69.6571 102.365 69.1815 103.426 68.2303H105.338L105.059 68.7852C103.174 72.22 101.608 75.6416 100.36 79.05C99.1127 82.4584 98.4888 84.9816 98.4888 86.6198C98.4888 87.2275 98.6481 87.7295 98.9667 88.1258C99.2852 88.5485 99.6701 88.7599 100.121 88.7599C101.21 88.7599 102.962 87.6106 105.377 85.3119L106.015 86.0253C105.351 86.7651 104.196 87.7823 102.55 89.077C101.17 90.1867 99.856 90.7415 98.6083 90.7415C97.5996 90.7415 96.7899 90.398 96.1794 89.7111C95.5688 89.0241 95.2635 88.0862 95.2635 86.8972C95.2635 84.9156 96.0334 82.4055 97.573 79.367C98.0508 78.363 98.7676 77.0684 99.7232 75.4831C100.254 74.5847 101.356 72.8541 103.028 70.2912L103.426 69.7364C102.55 70.529 101.714 71.0839 100.918 71.4009C100.121 71.7444 99.1923 71.9161 98.1305 71.9161C97.7058 71.9161 97.2014 71.8501 96.6174 71.718C95.7679 74.3337 94.1752 77.0023 91.8392 79.7237Z" fill="#FF8F00"/>
<path d="M112.863 68.7852L116.766 67.1603L113.262 80.1993C112.678 82.2866 112.386 84.004 112.386 85.3515C112.386 86.197 112.532 86.884 112.824 87.4124C113.116 87.9408 113.5 88.2051 113.978 88.2051C114.801 88.2051 116.115 87.2275 117.92 85.2723L118.557 85.8271L118.159 86.2631C116.646 88.0333 115.531 89.2223 114.814 89.83C114.098 90.4641 113.434 90.7812 112.824 90.7812C112.001 90.7812 111.31 90.3584 110.753 89.5129C110.169 88.6939 109.877 87.6634 109.877 86.4216C109.877 85.6025 110.036 84.3475 110.355 82.6565L112.863 68.7852ZM117.92 51.6244C118.61 51.6244 119.168 51.8357 119.593 52.2585C120.017 52.6812 120.23 53.2361 120.23 53.923C120.23 54.5836 120.004 55.1384 119.553 55.5876C119.102 56.0368 118.557 56.2613 117.92 56.2613C117.31 56.2613 116.766 56.0235 116.288 55.548C115.81 55.0724 115.571 54.5307 115.571 53.923C115.571 53.2889 115.797 52.7473 116.248 52.2981C116.699 51.8489 117.257 51.6244 117.92 51.6244Z" fill="#FF8F00"/>
<g clip-path="url(#clip0_628_8286)">
<path d="M139.86 46.1213C138.555 46.5187 136.825 47.9238 135.353 49.7829C133.672 51.8944 132.341 55.0085 131.685 58.3601C131.469 59.4532 131.427 61.8826 131.601 62.7054C131.985 64.4671 132.217 65.2174 132.683 66.212C133.373 67.6598 134.244 68.7448 135.562 69.7703C136.019 70.129 136.394 70.4658 136.394 70.5125C136.394 70.6119 135.603 70.8633 134.439 71.1405C132.651 71.5648 131.153 72.168 130.222 72.8298C129.116 73.6197 127.827 74.8171 127.303 75.5444C127.087 75.8375 126.897 76.0909 126.87 76.1148C126.812 76.1645 125.789 77.966 125.789 78.0226C125.789 78.0395 125.681 78.2919 125.548 78.5771C125.263 79.1935 125.047 79.839 124.906 80.5018C124.798 80.9747 124.773 81.3255 124.815 82.2546C124.84 82.8905 124.906 83.5463 124.956 83.6974C125.159 84.2518 125.496 84.9533 125.73 85.2634C125.814 85.3714 125.889 85.4861 125.955 85.6062C125.955 85.6708 126.42 86.111 126.867 86.4786C127.649 87.1145 128.431 87.5219 129.578 87.8966C130.693 88.2553 131.504 88.3616 133.163 88.3616C134.627 88.3616 135.218 88.3049 136.515 88.0436C136.856 87.978 137.225 87.8966 137.347 87.8807C137.704 87.8071 139.273 87.3669 139.925 87.1463C140.51 86.9593 141.081 86.7312 141.632 86.4637C142.464 86.0891 145.866 83.7977 146.622 83.1131C146.756 82.9909 146.881 82.9005 146.889 82.9144C146.897 82.9283 146.839 83.2969 146.747 83.7212C146.614 84.3174 146.598 84.545 146.664 84.6751C146.715 84.7646 146.789 84.8381 146.83 84.8381C147.089 84.8381 147.679 84.5042 148.411 83.9438C148.869 83.601 151.397 81.3265 151.863 80.8456C152.462 80.2335 153.817 79.1981 154.691 78.7003C155.381 78.3098 157.11 77.494 157.851 77.2247L159.515 76.6056C160.978 76.0591 165.986 74.4444 167.233 74.1215C167.491 74.0559 167.906 73.9506 168.146 73.885C168.385 73.8194 169.069 73.6734 169.66 73.5591C170.251 73.4448 170.948 73.2978 171.199 73.2411C171.789 73.11 174.645 73.1189 175.273 73.257C176.247 73.4697 176.604 73.6078 176.812 73.8532C177.071 74.1513 177.071 74.3669 176.82 74.9134C176.222 76.242 174.45 77.9461 171.231 80.3189C168.547 82.2903 166.559 83.4827 165.628 83.6815C164.489 83.9339 162.159 83.9507 159.515 83.7381C157.776 83.6 157.643 83.592 157.643 83.6735C157.643 84.0153 161.02 84.7576 162.559 84.7576C163.207 84.7576 163.632 84.9126 163.632 85.1551C163.632 85.5525 162.284 85.8158 160.221 85.8158C158.383 85.8158 157.46 85.6608 156.354 85.172C155.739 84.8947 155.181 84.7318 155.036 84.7804C154.754 84.8858 154.579 85.4979 153.889 88.8326C153.473 90.8785 153.098 92.0282 152.508 93.1699C152.018 94.0925 151.28 94.8666 150.374 95.4093C149.469 95.952 148.43 96.2427 147.368 96.2502C146.362 96.2502 145.949 95.9978 145.747 95.2715C145.654 94.9297 145.68 94.0572 145.796 93.5515C145.921 93.0129 145.988 92.7277 146.112 92.1325C146.354 90.9401 146.403 90.6728 146.445 90.0945L146.495 89.5232L146.253 90.2982C145.363 93.1679 144.681 94.5382 144.2 94.4398C143.975 94.399 143.896 94.0075 143.949 93.0487C143.991 92.2249 144.033 92.0053 144.274 91.1607C144.477 90.4652 145.472 88.8862 146.253 88.0466C146.35 87.9536 146.432 87.8463 146.495 87.7286C146.57 87.5979 146.662 87.4773 146.769 87.3699C147.327 86.7419 148.116 85.8039 148.188 85.6807C148.238 85.5813 148.23 85.5664 148.147 85.6161C147.931 85.7383 147.032 86.3415 146.93 86.423C146.873 86.4717 146.481 86.8065 146.058 87.1652C145.589 87.5573 145.147 87.9795 144.735 88.4292C144.161 89.0651 143.495 89.9783 143.495 90.1184C143.482 90.191 143.44 90.2555 143.379 90.2982C143.313 90.3549 143.138 90.7712 142.98 91.2273C142.722 92.0222 142.706 92.1216 142.714 93.2414C142.722 94.5948 142.847 95.1979 143.288 95.973C143.745 96.7798 144.227 97.1306 145.566 97.6364C146.149 97.856 146.341 97.8888 147.047 97.8888C148.677 97.8888 150.433 97.3263 151.697 96.4052C152.046 96.1439 152.628 95.4424 153.127 94.6683C153.459 94.1467 154.225 92.532 154.416 91.9368C155.007 90.1025 155.098 89.6454 155.406 86.7757C155.49 85.9689 155.522 85.8218 155.639 85.8705C157.452 86.6048 158.965 86.8324 161.261 86.7101C162.499 86.6607 163.725 86.458 164.91 86.107C166.532 85.6509 168.304 84.7944 170.026 83.6288C171.357 82.7345 171.664 82.5109 171.947 82.2834C172.213 82.0469 172.421 81.8919 173.153 81.3374C174.134 80.5952 176.588 78.2472 177.387 77.3012C177.619 77.0319 177.819 76.7954 177.844 76.7716C178.148 76.4735 179.399 74.8141 179.723 74.2874C180.098 73.6674 180.181 73.4478 180.23 72.9092C180.264 72.477 180.246 72.3717 180.072 72.1272C179.615 71.4744 178.966 71.2866 176.678 71.1813C175.074 71.1077 173.094 71.2955 171.103 71.7278C169.239 72.1253 168.117 72.4859 165.115 73.6515C162.661 74.6054 162.27 74.7525 160.831 75.2662C160.373 75.4175 159.923 75.5916 159.483 75.7879C159.101 75.9757 158.835 76.0075 158.751 75.8773C158.702 75.7958 158.802 75.6895 159.659 74.9234C160.124 74.508 160.373 74.1165 160.373 73.8065C160.373 73.6078 160.582 73.3663 161.605 72.3796C163.094 70.9368 164.008 69.7623 165.913 66.8678C166.291 66.2911 166.633 65.6921 166.936 65.0743C167.02 64.8944 167.169 64.5854 167.261 64.3787C167.718 63.4248 168.042 61.6958 167.851 61.2397C167.785 61.0688 167.742 61.041 167.718 61.1175C167.585 61.5011 166.878 63.2539 166.512 64.0935C165.689 66.0182 164.898 67.4859 164.192 68.4318C163.867 68.8631 162.636 70.3963 162.536 70.4947C162.511 70.5185 162.334 70.7063 162.145 70.918C161.956 71.1296 161.779 71.2687 161.755 71.2439C161.73 71.219 161.704 71.2439 161.704 71.3015C161.704 71.3591 161.501 71.5787 161.272 71.8073C160.424 72.6022 159.955 72.793 159.955 72.3369C159.955 72.1382 160.387 70.8534 160.579 70.4947C161.602 68.5948 162.084 67.469 162.725 65.4797C163.481 63.1724 163.598 62.773 163.748 62.0386C163.888 61.3431 163.888 61.2566 163.756 60.5303C163.681 60.1149 163.548 59.5525 163.465 59.2832L163.335 58.7894L163.227 59.5635C163.169 59.9877 163.094 60.5422 163.052 60.7866C163.011 61.0311 162.936 61.512 162.886 61.8469C162.512 64.2316 162.075 65.8414 161.422 67.2852C161.355 67.4312 161.256 67.6767 161.189 67.8148C161.122 67.9529 160.981 68.2878 160.865 68.5322C160.748 68.7766 160.561 69.2009 160.449 69.4702C160.338 69.7395 160.125 70.1956 159.992 70.4897C159.518 71.4923 159.443 71.6711 159.351 71.9891C159.243 72.3806 158.994 72.5684 158.361 72.7314C157.588 72.9192 157.246 73.1288 156.399 73.9297C155.966 74.3381 154.785 75.446 153.779 76.392C151.492 78.5532 150.136 79.7704 149.629 80.1023C149.552 80.1533 149.479 80.2105 149.412 80.2732C149.388 80.2981 149.054 80.5097 148.664 80.7383C144.821 82.9968 140.795 84.7248 137.851 85.4015C136.204 85.7771 136.088 85.7989 134.857 85.948C133.517 86.111 131.422 86.0702 130.701 85.8665C128.73 85.32 127.674 84.073 127.349 81.9366C127.133 80.4938 129.238 77.7861 131.283 76.8898C131.515 76.7972 131.737 76.6852 131.949 76.555C132.069 76.4765 132.194 76.4058 132.323 76.3433C132.464 76.2777 132.78 76.1068 133.033 75.9767L134.081 75.3974C134.413 75.2264 135.162 74.8836 135.744 74.6471C136.326 74.4107 136.859 74.1831 136.901 74.1334C136.958 74.0768 136.934 74.0688 136.834 74.1016C136.668 74.1662 135.536 74.4603 134.114 74.819C132.601 75.2016 130.979 75.5444 130.668 75.5444C130.443 75.5444 130.377 75.5116 130.377 75.3974C130.377 75.0307 131.508 73.881 132.29 73.4488C132.636 73.2667 132.998 73.1141 133.371 72.9927C133.712 72.8784 134.311 72.6658 134.701 72.5197C136.781 71.7526 138.756 71.1415 139.043 71.1574L139.36 71.1902L138.328 70.2035C136.909 68.8581 136.265 68.0592 135.533 66.7138C135.134 65.9805 134.701 64.6838 134.568 63.8441C134.535 63.6156 134.502 63.396 134.493 63.3552C134.211 62.0993 134.189 59.4333 134.444 58.0143C134.801 56.0499 135.267 55.0552 136.775 53.0461C137.614 51.9212 138.255 51.489 138.895 51.6033C139.261 51.6679 139.869 51.9858 140.442 52.4101C140.692 52.5979 140.933 52.7768 140.984 52.8076C141.565 53.2229 142.772 54.1937 143.162 54.5604C143.254 54.6518 143.356 54.7337 143.466 54.8048C143.637 54.9231 143.798 55.054 143.948 55.1963C144.813 55.9793 145.596 56.6312 145.596 56.5875C145.596 56.5437 144.198 54.4431 144.098 54.3458C143.994 54.2149 143.896 54.0785 143.807 53.9374C143.666 53.7386 143.502 53.5141 143.432 53.4405C143.34 53.3419 143.257 53.2355 143.183 53.1226C143.121 53.0255 143.051 52.9329 142.975 52.8453C142.934 52.7967 142.742 52.5681 142.56 52.3485C142.377 52.1289 141.85 51.5745 141.387 51.1174C140.721 50.4655 140.529 50.229 140.488 49.9926C140.28 48.8916 141.636 48.7535 143.05 49.7312C143.682 50.1635 145.196 51.4522 145.811 52.0713C146.901 53.1802 148.473 55.0642 148.964 55.8472C149.055 55.9942 149.229 56.2387 149.346 56.3937C149.82 57.0058 151.234 59.4432 152.184 61.2775C153.649 64.1154 154.854 67.311 155.287 69.4881C155.42 70.1648 155.661 71.7059 155.669 71.9176L155.678 72.163L155.761 71.9096C155.836 71.6731 155.678 69.1274 155.536 68.2083C155.17 65.9228 154.505 63.699 153.457 61.2775C152.8 59.7691 150.954 56.6381 149.166 53.997C148.8 53.4584 148.509 53.0182 148.509 53.0033C148.509 52.9884 148.3 52.6854 148.051 52.3346C147.801 51.9838 147.536 51.6251 147.469 51.5397C147.285 51.2783 146.205 49.8505 145.997 49.5911C145.323 48.7941 144.604 48.0338 143.845 47.3137C142.464 46.0537 141.274 45.695 139.86 46.1213Z" fill="url(#paint0_linear_628_8286)"/>
</g>
<path d="M142.117 0.632944C141.362 0.291975 140.474 0.627616 140.133 1.38262C139.792 2.13762 140.128 3.02609 140.883 3.36706L142.117 0.632944ZM0.522825 102.761C4.4004 124.734 23.077 141.424 46.7683 150.648C70.4957 159.886 99.5944 161.791 124.944 153.933L124.056 151.067C99.4056 158.709 71.0043 156.864 47.8567 147.852C24.673 138.826 7.0996 122.766 3.47718 102.239L0.522825 102.761ZM124.944 153.933C168.322 140.486 188.527 109.337 189.854 77.8606C191.177 46.471 173.702 14.8971 142.117 0.632944L140.883 3.36706C171.298 17.1029 188.13 47.5089 186.856 77.7343C185.586 107.873 166.292 137.974 124.056 151.067L124.944 153.933Z" fill="url(#paint1_linear_628_8286)"/>
<defs>
<linearGradient id="paint0_linear_628_8286" x1="152.52" y1="50.0823" x2="152.52" y2="115.494" gradientUnits="userSpaceOnUse">
<stop stop-color="#FF8F00"/>
<stop offset="1" stop-color="#FF1100"/>
</linearGradient>
<linearGradient id="paint1_linear_628_8286" x1="191.5" y1="-6.99999" x2="13" y2="124" gradientUnits="userSpaceOnUse">
<stop stop-color="#FF8F00"/>
<stop offset="1" stop-color="#FF8F00" stop-opacity="0"/>
</linearGradient>
<clipPath id="clip0_628_8286">
<rect width="67.7702" height="68.5593" fill="white" transform="translate(120.23 37.2204)"/>
</clipPath>
</defs>
</svg>
