<svg width="97" height="45" viewBox="0 0 97 45" fill="none" xmlns="http://www.w3.org/2000/svg">
<path d="M2.44627 34.6598H0L3.21878 19.8019C3.80245 17.0896 4.24879 14.4545 4.55779 11.8966C4.88396 9.23575 5.04704 6.71222 5.04704 4.32604C5.04704 3.65653 5.03846 3.18444 5.02129 2.90978L7.85382 1.62226V2.34327C7.85382 3.47628 7.75082 5.30455 7.54481 7.82807C7.33881 10.4374 7.12423 12.3773 6.90106 13.6476C7.98257 11.1241 9.28725 8.84091 10.8151 6.79806C12.4288 4.65221 14.0339 2.99561 15.6304 1.82827C17.2612 0.609422 18.7462 0 20.0852 0C21.4242 0 22.5057 0.532171 23.3297 1.59651C24.1365 2.69519 24.54 4.1372 24.54 5.92255C24.54 8.1714 24.0507 10.446 23.0722 12.7464C22.1109 14.978 20.7804 17.081 19.0809 19.0552C17.4157 20.9607 15.5617 22.4714 13.5189 23.5872C11.476 24.703 9.47608 25.261 7.51906 25.261C7.02123 25.261 6.49764 25.2009 5.9483 25.0807L7.31306 23.2525C8.13707 23.5271 8.99541 23.6645 9.88808 23.6645C11.2958 23.6645 12.7292 23.1838 14.1884 22.2224C15.6132 21.2611 16.8921 19.9221 18.0252 18.2054C19.0552 16.6432 19.9478 14.6519 20.7032 12.2314C21.4413 9.89667 21.8104 7.84523 21.8104 6.07705C21.8104 4.61787 21.5701 3.49345 21.0894 2.70377C20.5916 1.89693 19.9049 1.49351 19.0294 1.49351C17.7934 1.49351 16.3686 2.19735 14.7549 3.60503C13.1584 4.99554 11.579 6.91823 10.0168 9.37308C8.91816 11.0898 7.99115 12.9438 7.23581 14.9351C6.49764 16.9093 5.82813 19.2183 5.22729 21.8619L2.44627 34.6598Z" fill="#FF8F00"/>
<path d="M16.0166 43.8011L17.2784 42.1016C18.2912 43.166 19.4157 43.6981 20.6517 43.6981C21.9907 43.6981 23.055 43.1745 23.8447 42.1274C24.6515 41.0459 25.3125 39.3292 25.8275 36.9773L27.012 31.647C25.1408 33.8615 23.4327 34.9688 21.8877 34.9688C20.995 34.9688 20.2998 34.6941 19.8019 34.1448C19.2869 33.5955 19.0294 32.8573 19.0294 31.9303C19.0294 31.3123 19.1067 30.6342 19.2612 29.896L21.0122 20.6517L23.51 19.5959L21.0122 29.9733C20.8062 30.8144 20.7032 31.441 20.7032 31.853C20.7032 32.4367 20.8834 32.9088 21.2439 33.2693C21.5701 33.647 22.0336 33.8358 22.6344 33.8358C23.2696 33.8358 23.9735 33.5525 24.746 32.986C25.4498 32.471 26.2996 31.6384 27.2952 30.4883L29.5098 20.6517L31.9303 19.5959L28.1707 34.7371C27.7759 36.4194 27.3553 37.8442 26.909 39.0116C26.497 40.0416 26.0249 40.8999 25.4927 41.5866C23.8275 43.7496 21.7761 44.8311 19.3384 44.8311C17.9136 44.8311 16.8063 44.4878 16.0166 43.8011Z" fill="#FF8F00"/>
<path d="M37.2348 20.8062C37.3035 20.4113 37.3378 20.0508 37.3378 19.7247C37.3378 19.1238 37.2434 18.6517 37.0546 18.3084C36.8486 17.9651 36.5911 17.7934 36.2821 17.7934C36.1276 17.7934 35.9816 17.8707 35.8443 18.0252C35.707 18.214 35.6383 18.42 35.6383 18.6432C35.6383 19.4328 36.1705 20.1538 37.2348 20.8062ZM34.1705 27.7587L33.707 27.3467C35.2006 25.5442 36.1876 23.879 36.6683 22.3512C35.2778 21.5787 34.5825 20.4714 34.5825 19.0294C34.5825 18.3427 34.7456 17.7848 35.0718 17.3557C35.398 16.9265 35.81 16.7119 36.3078 16.7119C36.8228 16.7119 37.2434 16.9436 37.5696 17.4072C37.8957 17.8878 38.0588 18.5058 38.0588 19.2612C38.0588 19.7762 37.9644 20.3684 37.7756 21.0379C38.2047 21.1581 38.6253 21.2182 39.0373 21.2182C40.1017 21.2182 40.9772 20.9092 41.6639 20.2912H42.8999L42.7196 20.6517C41.5008 22.8834 40.4879 25.1065 39.6811 27.321C38.8742 29.5355 38.4708 31.1749 38.4708 32.2393C38.4708 32.6341 38.5738 32.9603 38.7798 33.2178C38.9858 33.4925 39.2348 33.6298 39.5266 33.6298C40.2304 33.6298 41.3634 32.883 42.9256 31.3895L43.3376 31.853C42.9084 32.3337 42.1617 32.9946 41.0974 33.8358C40.2047 34.5568 39.3549 34.9173 38.5481 34.9173C37.8957 34.9173 37.3722 34.6941 36.9773 34.2478C36.5825 33.8015 36.3851 33.192 36.3851 32.4195C36.3851 31.132 36.8829 29.5012 37.8786 27.527C38.1876 26.8746 38.6511 26.0335 39.2691 25.0035C39.6124 24.4198 40.3248 23.2954 41.4064 21.6302L41.6639 21.2697C41.0974 21.7847 40.5566 22.1452 40.0416 22.3512C39.5266 22.5744 38.9257 22.6859 38.2391 22.6859C37.9644 22.6859 37.6382 22.643 37.2606 22.5572C36.7112 24.2567 35.6812 25.9906 34.1705 27.7587Z" fill="#FF8F00"/>
<path d="M47.7667 20.6517L50.2902 19.5959L48.0242 28.0677C47.6465 29.4239 47.4577 30.5398 47.4577 31.4153C47.4577 31.9646 47.5521 32.4109 47.7409 32.7543C47.9297 33.0976 48.1787 33.2693 48.4877 33.2693C49.0198 33.2693 49.8696 32.6341 51.0369 31.3638L51.4489 31.7243L51.1914 32.0075C50.2129 33.1577 49.4919 33.9302 49.0284 34.325C48.5649 34.7371 48.1357 34.9431 47.7409 34.9431C47.2087 34.9431 46.7624 34.6684 46.4019 34.119C46.0242 33.5869 45.8354 32.9174 45.8354 32.1105C45.8354 31.5784 45.9384 30.7629 46.1444 29.6643L47.7667 20.6517ZM51.0369 9.50183C51.4833 9.50183 51.8438 9.63917 52.1184 9.91384C52.3931 10.1885 52.5304 10.549 52.5304 10.9953C52.5304 11.4245 52.3845 11.785 52.0927 12.0769C51.8009 12.3687 51.4489 12.5146 51.0369 12.5146C50.6421 12.5146 50.2902 12.3601 49.9812 12.0511C49.6722 11.7421 49.5177 11.3902 49.5177 10.9953C49.5177 10.5833 49.6636 10.2314 49.9554 9.93959C50.2473 9.64775 50.6078 9.50183 51.0369 9.50183Z" fill="#FF8F00"/>
<g clip-path="url(#clip0_628_8297)">
<g clip-path="url(#clip1_628_8297)">
<path d="M65.2257 5.92634C64.3814 6.18458 63.2624 7.09746 62.3106 8.30539C61.2238 9.6773 60.3631 11.7006 59.9384 13.8782C59.7988 14.5884 59.7719 16.1669 59.8846 16.7015C60.1324 17.8461 60.2825 18.3336 60.5841 18.9798C61.0304 19.9205 61.5935 20.6255 62.4457 21.2917C62.7413 21.5248 62.9838 21.7437 62.9838 21.774C62.9838 21.8386 62.4725 22.0019 61.7194 22.182C60.5631 22.4577 59.5949 22.8496 58.9925 23.2795C58.2773 23.7928 57.4435 24.5708 57.1047 25.0433C56.965 25.2338 56.8425 25.3984 56.8248 25.4139C56.7874 25.4462 56.126 26.6167 56.126 26.6535C56.126 26.6645 56.0559 26.8284 55.97 27.0137C55.7853 27.4142 55.6462 27.8336 55.555 28.2643C55.4849 28.5716 55.4685 28.7995 55.4961 29.4031C55.5118 29.8163 55.555 30.2424 55.5872 30.3405C55.7183 30.7008 55.9366 31.1566 56.0873 31.358C56.1419 31.4282 56.1906 31.5027 56.2328 31.5807C56.2328 31.6227 56.5337 31.9087 56.8228 32.1476C57.3288 32.5608 57.8342 32.8255 58.5763 33.0689C59.2973 33.3019 59.8217 33.371 60.8948 33.371C61.8413 33.371 62.2235 33.3342 63.0625 33.1644C63.2827 33.1218 63.5214 33.0689 63.6 33.0585C63.8314 33.0107 64.8455 32.7247 65.2676 32.5814C65.6459 32.4599 66.0148 32.3117 66.3715 32.1379C66.9096 31.8945 69.1095 30.4057 69.5985 29.9609C69.685 29.8815 69.7657 29.8227 69.7709 29.8318C69.7761 29.8408 69.7388 30.0803 69.6791 30.356C69.5933 30.7434 69.5828 30.8912 69.6254 30.9758C69.6581 31.0339 69.706 31.0817 69.7329 31.0817C69.9 31.0817 70.2815 30.8648 70.7555 30.5006C71.0511 30.2779 72.6859 28.8001 72.9874 28.4876C73.3748 28.0899 74.2512 27.4172 74.8163 27.0938C75.2627 26.8401 76.381 26.31 76.8601 26.1351L77.9358 25.7328C78.8824 25.3778 82.1205 24.3287 82.9275 24.1188C83.094 24.0762 83.3627 24.0078 83.5174 23.9652C83.6721 23.9226 84.1146 23.8277 84.4967 23.7534C84.8789 23.6792 85.3299 23.5836 85.4918 23.5468C85.8733 23.4616 87.7205 23.4674 88.1269 23.5572C88.7562 23.6953 88.9876 23.7851 89.1219 23.9445C89.2891 24.1382 89.2891 24.2783 89.1272 24.6334C88.7404 25.4966 87.5946 26.6038 85.5127 28.1455C83.777 29.4263 82.4915 30.2011 81.8891 30.3302C81.1524 30.4942 79.646 30.5052 77.9358 30.367C76.8116 30.2773 76.7258 30.2721 76.7258 30.325C76.7258 30.5471 78.9092 31.0294 79.9043 31.0294C80.3238 31.0294 80.5985 31.1301 80.5985 31.2876C80.5985 31.5459 79.7266 31.717 78.3927 31.717C77.2043 31.717 76.6071 31.6162 75.892 31.2986C75.4941 31.1185 75.1335 31.0126 75.0398 31.0442C74.8569 31.1127 74.7442 31.5104 74.2978 33.677C74.029 35.0063 73.7865 35.7533 73.405 36.4951C73.0877 37.0945 72.6106 37.5975 72.025 37.9501C71.4393 38.3027 70.7673 38.4916 70.0809 38.4964C69.43 38.4964 69.1632 38.3325 69.0321 37.8605C68.9725 37.6384 68.9889 37.0716 69.0643 36.743C69.1449 36.3931 69.1882 36.2078 69.2688 35.8211C69.4248 35.0463 69.4569 34.8727 69.4838 34.4969L69.5159 34.1257L69.3599 34.6293C68.7844 36.4938 68.3432 37.3841 68.0319 37.3202C67.8863 37.2937 67.8352 37.0393 67.8699 36.4163C67.8968 35.8811 67.9237 35.7384 68.0797 35.1897C68.2108 34.7377 68.8545 33.7119 69.3599 33.1663C69.4225 33.1059 69.4752 33.0362 69.5159 32.9597C69.5646 32.8748 69.6243 32.7964 69.6935 32.7267C70.0541 32.3187 70.5647 31.7092 70.6112 31.6292C70.6434 31.5646 70.6381 31.5549 70.5844 31.5872C70.4448 31.6666 69.8633 32.0585 69.7978 32.1114C69.7604 32.1431 69.5074 32.3606 69.2334 32.5937C68.93 32.8484 68.6443 33.1228 68.378 33.4149C68.0069 33.8281 67.5763 34.4214 67.5763 34.5124C67.5676 34.5596 67.5406 34.6015 67.5009 34.6293C67.4583 34.6661 67.3449 34.9366 67.2433 35.2329C67.0761 35.7494 67.0656 35.814 67.0709 36.5416C67.0761 37.4209 67.1568 37.8128 67.4419 38.3163C67.7375 38.8406 68.0496 39.0685 68.9155 39.3971C69.2924 39.5397 69.4163 39.5611 69.8732 39.5611C70.9272 39.5611 72.0625 39.1956 72.8799 38.5972C73.1061 38.4274 73.4823 37.9716 73.8048 37.4686C74.0199 37.1297 74.5148 36.0806 74.6386 35.6939C75.0208 34.5021 75.0798 34.2051 75.2791 32.3406C75.3328 31.8164 75.3538 31.7208 75.4292 31.7525C76.6019 32.2296 77.5805 32.3774 79.0652 32.298C79.8655 32.2659 80.6584 32.1342 81.425 31.9061C82.4738 31.6098 83.6197 31.0533 84.7334 30.296C85.594 29.7149 85.7926 29.5697 85.9755 29.4218C86.1479 29.2682 86.2823 29.1675 86.7556 28.8072C87.3901 28.3249 88.9771 26.7994 89.4936 26.1848C89.6437 26.0098 89.7728 25.8562 89.7892 25.8407C89.9859 25.647 90.7948 24.5688 91.0045 24.2266C91.2471 23.8238 91.3008 23.6811 91.3323 23.3312C91.3539 23.0504 91.3428 22.9819 91.23 22.8231C90.9344 22.3989 90.5149 22.2769 89.0354 22.2085C87.9978 22.1607 86.7176 22.2827 85.4302 22.5636C84.2247 22.8218 83.499 23.0562 81.5575 23.8135C79.9705 24.4332 79.7175 24.5288 78.7873 24.8626C78.491 24.9609 78.2001 25.074 77.9155 25.2015C77.6684 25.3235 77.496 25.3442 77.4422 25.2596C77.4101 25.2067 77.475 25.1376 78.0289 24.6398C78.3298 24.37 78.491 24.1156 78.491 23.9142C78.491 23.7851 78.6261 23.6282 79.2875 22.9871C80.2504 22.0497 80.8416 21.2866 82.0733 19.4059C82.318 19.0312 82.5391 18.642 82.7354 18.2406C82.7891 18.1237 82.8855 17.923 82.9451 17.7887C83.2408 17.1689 83.4505 16.0455 83.3267 15.7492C83.284 15.6382 83.2565 15.6201 83.2408 15.6698C83.1549 15.919 82.6974 17.0579 82.4607 17.6034C81.9285 18.8539 81.4172 19.8075 80.9603 20.4221C80.7505 20.7023 79.9541 21.6985 79.8899 21.7624C79.8735 21.7779 79.7588 21.8999 79.6368 22.0374C79.5149 22.1749 79.4002 22.2653 79.3845 22.2492C79.3687 22.233 79.3517 22.2492 79.3517 22.2866C79.3517 22.3241 79.2206 22.4667 79.0725 22.6152C78.5238 23.1317 78.2203 23.2557 78.2203 22.9593C78.2203 22.8302 78.5002 21.9954 78.6241 21.7624C79.2855 20.528 79.5975 19.7965 80.0118 18.504C80.5008 17.0049 80.5762 16.7454 80.6732 16.2683C80.7643 15.8164 80.7643 15.7602 80.6784 15.2882C80.6299 15.0184 80.5441 14.653 80.4903 14.478L80.4064 14.1572L80.3363 14.6601C80.2989 14.9358 80.2504 15.296 80.2235 15.4548C80.1966 15.6136 80.1481 15.9261 80.116 16.1437C79.8741 17.6931 79.5916 18.739 79.1695 19.6771C79.1262 19.772 79.062 19.9314 79.0187 20.0212C78.9754 20.1109 78.8843 20.3285 78.8089 20.4873C78.7336 20.6461 78.6123 20.9218 78.5402 21.0968C78.4681 21.2717 78.3304 21.568 78.2446 21.7591C77.9378 22.4106 77.8893 22.5268 77.8303 22.7334C77.7601 22.9877 77.5989 23.1098 77.1899 23.2156C76.6897 23.3376 76.4688 23.4739 75.9208 23.9942C75.6409 24.2596 74.8772 24.9794 74.2263 25.594C72.7475 26.9982 71.8705 27.7891 71.5427 28.0047C71.4929 28.0379 71.446 28.075 71.4024 28.1158C71.3867 28.1319 71.171 28.2694 70.9187 28.4179C68.4337 29.8854 65.83 31.0081 63.9265 31.4477C62.8613 31.6918 62.7859 31.706 61.9901 31.8028C61.1235 31.9087 59.7686 31.8822 59.3025 31.7499C58.0276 31.3948 57.3446 30.5846 57.1348 29.1965C56.9952 28.2591 58.356 26.4998 59.6788 25.9175C59.8284 25.8573 59.9725 25.7845 60.1095 25.6999C60.187 25.649 60.2678 25.603 60.3513 25.5624C60.4425 25.5198 60.647 25.4087 60.8102 25.3242L61.488 24.9478C61.703 24.8367 62.1874 24.614 62.5637 24.4604C62.9399 24.3067 63.2847 24.1589 63.3116 24.1266C63.349 24.0898 63.3332 24.0846 63.2683 24.1059C63.1608 24.1479 62.4293 24.339 61.5096 24.572C60.531 24.8206 59.4822 25.0433 59.2809 25.0433C59.1354 25.0433 59.0928 25.022 59.0928 24.9478C59.0928 24.7096 59.8243 23.9626 60.3297 23.6818C60.5538 23.5635 60.7878 23.4643 61.0291 23.3854C61.2494 23.3112 61.6368 23.173 61.8892 23.0781C63.2342 22.5797 64.5112 22.1827 64.6973 22.193L64.9018 22.2143L64.2345 21.5732C63.3168 20.6991 62.9006 20.18 62.4273 19.3058C62.1691 18.8294 61.8892 17.9869 61.8033 17.4413C61.7817 17.2929 61.7607 17.1502 61.7548 17.1237C61.5719 16.3077 61.5581 14.5755 61.7227 13.6536C61.954 12.3772 62.2549 11.731 63.2303 10.4256C63.7731 9.69473 64.1873 9.41389 64.6016 9.48814C64.8383 9.5301 65.2309 9.73669 65.6019 10.0124C65.7632 10.1344 65.9192 10.2506 65.9519 10.2706C66.3282 10.5405 67.1083 11.1712 67.3606 11.4095C67.4205 11.4689 67.4864 11.5221 67.5573 11.5683C67.6677 11.6451 67.772 11.7302 67.8693 11.8226C68.4284 12.3314 68.9345 12.7549 68.9345 12.7265C68.9345 12.6981 68.0305 11.3333 67.9663 11.27C67.8986 11.185 67.8356 11.0964 67.7775 11.0047C67.6864 10.8755 67.5809 10.7296 67.5356 10.6819C67.4758 10.6178 67.4219 10.5487 67.3744 10.4753C67.3339 10.4122 67.289 10.352 67.24 10.2951C67.2131 10.2635 67.0892 10.115 66.9713 9.97234C66.8533 9.82966 66.5124 9.46941 66.2128 9.17244C65.7822 8.74892 65.6583 8.59527 65.6314 8.44161C65.497 7.72628 66.3741 7.63654 67.2885 8.27182C67.6969 8.55266 68.6762 9.39001 69.0741 9.79222C69.7788 10.5127 70.7954 11.7368 71.1127 12.2455C71.1717 12.3411 71.2844 12.4999 71.3598 12.6006C71.6666 12.9983 72.581 14.582 73.1952 15.7737C74.1424 17.6176 74.9218 19.6939 75.2017 21.1084C75.2876 21.548 75.4436 22.5494 75.4488 22.6869L75.4547 22.8463L75.5085 22.6817C75.557 22.5281 75.4547 20.874 75.363 20.2768C75.1263 18.7919 74.6963 17.3471 74.0185 15.7737C73.5938 14.7937 72.3995 12.7594 71.2431 11.0434C71.0065 10.6935 70.8184 10.4075 70.8184 10.3978C70.8184 10.3881 70.6834 10.1912 70.5221 9.9633C70.3608 9.7354 70.1891 9.50234 70.1458 9.44682C70.0272 9.27702 69.3284 8.34929 69.1941 8.18079C68.7579 7.66292 68.2934 7.16894 67.8024 6.70106C66.9096 5.88243 66.1401 5.64937 65.2257 5.92634Z" fill="url(#paint0_linear_628_8297)"/>
</g>
</g>
<defs>
<linearGradient id="paint0_linear_628_8297" x1="73.4123" y1="8.49994" x2="73.4123" y2="50.9999" gradientUnits="userSpaceOnUse">
<stop stop-color="#FF8F00"/>
<stop offset="1" stop-color="#FF1100"/>
</linearGradient>
<clipPath id="clip0_628_8297">
<rect width="43.8263" height="44.5448" fill="white" transform="translate(52.5305 0.143173)"/>
</clipPath>
<clipPath id="clip1_628_8297">
<rect width="43.8263" height="44.5448" fill="white" transform="translate(48.179 0.415634)"/>
</clipPath>
</defs>
</svg>
