<svg width="96" height="61" viewBox="0 0 96 61" fill="none" xmlns="http://www.w3.org/2000/svg">
<path d="M43.25 15.7866C43.25 18.2676 45.269 20.2866 47.75 20.2866C50.231 20.2866 52.25 18.2676 52.25 15.7866C52.25 13.3056 50.231 11.2866 47.75 11.2866C45.269 11.2866 43.25 13.3056 43.25 15.7866ZM55.75 30.2866H56.75V29.2866C56.75 25.4276 53.609 22.2866 49.75 22.2866H45.75C41.89 22.2866 38.75 25.4276 38.75 29.2866V30.2866H55.75Z" fill="black"/>
<path d="M34.0516 42.9726C34.3476 42.9726 34.6056 42.9366 34.8256 42.8646C35.0456 42.7886 35.2276 42.6826 35.3716 42.5466C35.5196 42.4066 35.6296 42.2386 35.7016 42.0426C35.7736 41.8426 35.8096 41.6206 35.8096 41.3766C35.8096 41.1446 35.7736 40.9346 35.7016 40.7466C35.6296 40.5586 35.5216 40.3986 35.3776 40.2666C35.2336 40.1346 35.0516 40.0346 34.8316 39.9666C34.6116 39.8946 34.3516 39.8586 34.0516 39.8586H32.8456V42.9726H34.0516ZM34.0516 38.6106C34.6316 38.6106 35.1336 38.6786 35.5576 38.8146C35.9816 38.9506 36.3316 39.1406 36.6076 39.3846C36.8836 39.6286 37.0876 39.9206 37.2196 40.2606C37.3556 40.6006 37.4236 40.9726 37.4236 41.3766C37.4236 41.7966 37.3536 42.1826 37.2136 42.5346C37.0736 42.8826 36.8636 43.1826 36.5836 43.4346C36.3036 43.6866 35.9516 43.8826 35.5276 44.0226C35.1076 44.1626 34.6156 44.2326 34.0516 44.2326H32.8456V47.2866H31.2316V38.6106H34.0516ZM39.7316 42.1986C39.9236 41.8306 40.1516 41.5426 40.4156 41.3346C40.6796 41.1226 40.9916 41.0166 41.3516 41.0166C41.6356 41.0166 41.8636 41.0786 42.0356 41.2026L41.9396 42.3126C41.9196 42.3846 41.8896 42.4366 41.8496 42.4686C41.8136 42.4966 41.7636 42.5106 41.6996 42.5106C41.6396 42.5106 41.5496 42.5006 41.4296 42.4806C41.3136 42.4606 41.1996 42.4506 41.0876 42.4506C40.9236 42.4506 40.7776 42.4746 40.6496 42.5226C40.5216 42.5706 40.4056 42.6406 40.3016 42.7326C40.2016 42.8206 40.1116 42.9286 40.0316 43.0566C39.9556 43.1846 39.8836 43.3306 39.8156 43.4946V47.2866H38.3336V41.1306H39.2036C39.3556 41.1306 39.4616 41.1586 39.5216 41.2146C39.5816 41.2666 39.6216 41.3626 39.6416 41.5026L39.7316 42.1986ZM45.3583 41.0346C45.8143 41.0346 46.2283 41.1086 46.6003 41.2566C46.9763 41.4046 47.2963 41.6146 47.5603 41.8866C47.8283 42.1586 48.0343 42.4906 48.1783 42.8826C48.3223 43.2746 48.3943 43.7126 48.3943 44.1966C48.3943 44.6846 48.3223 45.1246 48.1783 45.5166C48.0343 45.9086 47.8283 46.2426 47.5603 46.5186C47.2963 46.7946 46.9763 47.0066 46.6003 47.1546C46.2283 47.3026 45.8143 47.3766 45.3583 47.3766C44.8983 47.3766 44.4803 47.3026 44.1043 47.1546C43.7283 47.0066 43.4063 46.7946 43.1383 46.5186C42.8743 46.2426 42.6683 45.9086 42.5203 45.5166C42.3763 45.1246 42.3043 44.6846 42.3043 44.1966C42.3043 43.7126 42.3763 43.2746 42.5203 42.8826C42.6683 42.4906 42.8743 42.1586 43.1383 41.8866C43.4063 41.6146 43.7283 41.4046 44.1043 41.2566C44.4803 41.1086 44.8983 41.0346 45.3583 41.0346ZM45.3583 46.2366C45.8703 46.2366 46.2483 46.0646 46.4923 45.7206C46.7403 45.3766 46.8643 44.8726 46.8643 44.2086C46.8643 43.5446 46.7403 43.0386 46.4923 42.6906C46.2483 42.3426 45.8703 42.1686 45.3583 42.1686C44.8383 42.1686 44.4523 42.3446 44.2003 42.6966C43.9523 43.0446 43.8283 43.5486 43.8283 44.2086C43.8283 44.8686 43.9523 45.3726 44.2003 45.7206C44.4523 46.0646 44.8383 46.2366 45.3583 46.2366ZM49.8106 47.2866V42.2466L49.2766 42.1626C49.1606 42.1386 49.0666 42.0986 48.9946 42.0426C48.9266 41.9826 48.8926 41.8986 48.8926 41.7906V41.1846H49.8106V40.9866C49.8106 40.6106 49.8726 40.2626 49.9966 39.9426C50.1206 39.6186 50.3086 39.3386 50.5606 39.1026C50.8126 38.8666 51.1306 38.6826 51.5146 38.5506C51.9026 38.4146 52.3586 38.3466 52.8826 38.3466C53.0506 38.3466 53.2206 38.3566 53.3926 38.3766C53.5686 38.3926 53.7206 38.4206 53.8486 38.4606L53.8006 39.2286C53.7926 39.3206 53.7426 39.3766 53.6506 39.3966C53.5586 39.4126 53.4446 39.4206 53.3086 39.4206C52.9206 39.4206 52.5946 39.4546 52.3306 39.5226C52.0706 39.5906 51.8586 39.6926 51.6946 39.8286C51.5346 39.9606 51.4186 40.1286 51.3466 40.3326C51.2786 40.5326 51.2446 40.7666 51.2446 41.0346V41.1846H55.0606V47.2866H53.5786V42.2406H51.2926V47.2866H49.8106ZM58.0797 38.3706V47.2866H56.5977V38.3706H58.0797ZM63.5222 43.5006C63.5222 43.3086 63.4942 43.1286 63.4382 42.9606C63.3862 42.7886 63.3062 42.6386 63.1982 42.5106C63.0902 42.3826 62.9522 42.2826 62.7842 42.2106C62.6202 42.1346 62.4282 42.0966 62.2082 42.0966C61.7802 42.0966 61.4422 42.2186 61.1942 42.4626C60.9502 42.7066 60.7942 43.0526 60.7262 43.5006H63.5222ZM60.6962 44.3946C60.7202 44.7106 60.7762 44.9846 60.8642 45.2166C60.9522 45.4446 61.0682 45.6346 61.2122 45.7866C61.3562 45.9346 61.5262 46.0466 61.7222 46.1226C61.9222 46.1946 62.1422 46.2306 62.3822 46.2306C62.6222 46.2306 62.8282 46.2026 63.0002 46.1466C63.1762 46.0906 63.3282 46.0286 63.4562 45.9606C63.5882 45.8926 63.7022 45.8306 63.7982 45.7746C63.8982 45.7186 63.9942 45.6906 64.0862 45.6906C64.2102 45.6906 64.3022 45.7366 64.3622 45.8286L64.7882 46.3686C64.6242 46.5606 64.4402 46.7226 64.2362 46.8546C64.0322 46.9826 63.8182 47.0866 63.5942 47.1666C63.3742 47.2426 63.1482 47.2966 62.9162 47.3286C62.6882 47.3606 62.4662 47.3766 62.2502 47.3766C61.8222 47.3766 61.4242 47.3066 61.0562 47.1666C60.6882 47.0226 60.3682 46.8126 60.0962 46.5366C59.8242 46.2566 59.6102 45.9126 59.4542 45.5046C59.2982 45.0926 59.2202 44.6166 59.2202 44.0766C59.2202 43.6566 59.2882 43.2626 59.4242 42.8946C59.5602 42.5226 59.7542 42.2006 60.0062 41.9286C60.2622 41.6526 60.5722 41.4346 60.9362 41.2746C61.3042 41.1146 61.7182 41.0346 62.1782 41.0346C62.5662 41.0346 62.9242 41.0966 63.2522 41.2206C63.5802 41.3446 63.8622 41.5266 64.0982 41.7666C64.3342 42.0026 64.5182 42.2946 64.6502 42.6426C64.7862 42.9866 64.8542 43.3806 64.8542 43.8246C64.8542 44.0486 64.8302 44.2006 64.7822 44.2806C64.7342 44.3566 64.6422 44.3946 64.5062 44.3946H60.6962Z" fill="black"/>
</svg>
