<svg width="95" height="60" viewBox="0 0 95 60" fill="none" xmlns="http://www.w3.org/2000/svg">
<path d="M39.4312 19.9998H45.4312C45.6964 19.9998 45.9507 19.8944 46.1383 19.7069C46.3258 19.5193 46.4312 19.265 46.4312 18.9998V12.9998C46.4312 12.7345 46.3258 12.4802 46.1383 12.2926C45.9507 12.1051 45.6964 11.9998 45.4312 11.9998H39.4312C39.1659 11.9998 38.9116 12.1051 38.724 12.2926C38.5365 12.4802 38.4312 12.7345 38.4312 12.9998V18.9998C38.4312 19.265 38.5365 19.5193 38.724 19.7069C38.9116 19.8944 39.1659 19.9998 39.4312 19.9998ZM49.4312 19.9998H55.4312C55.6964 19.9998 55.9507 19.8944 56.1383 19.7069C56.3258 19.5193 56.4312 19.265 56.4312 18.9998V12.9998C56.4312 12.7345 56.3258 12.4802 56.1383 12.2926C55.9507 12.1051 55.6964 11.9998 55.4312 11.9998H49.4312C49.1659 11.9998 48.9116 12.1051 48.724 12.2926C48.5365 12.4802 48.4312 12.7345 48.4312 12.9998V18.9998C48.4312 19.265 48.5365 19.5193 48.724 19.7069C48.9116 19.8944 49.1659 19.9998 49.4312 19.9998ZM39.4312 29.9998H45.4312C45.6964 29.9998 45.9507 29.8944 46.1383 29.7069C46.3258 29.5193 46.4312 29.265 46.4312 28.9998V22.9998C46.4312 22.7345 46.3258 22.4802 46.1383 22.2926C45.9507 22.1051 45.6964 21.9998 45.4312 21.9998H39.4312C39.1659 21.9998 38.9116 22.1051 38.724 22.2926C38.5365 22.4802 38.4312 22.7345 38.4312 22.9998V28.9998C38.4312 29.265 38.5365 29.5193 38.724 29.7069C38.9116 29.8944 39.1659 29.9998 39.4312 29.9998ZM52.4312 29.9998C54.6372 29.9998 56.4312 28.2058 56.4312 25.9998C56.4312 23.7938 54.6372 21.9998 52.4312 21.9998C50.2252 21.9998 48.4312 23.7938 48.4312 25.9998C48.4312 28.2058 50.2252 29.9998 52.4312 29.9998Z" fill="black"/>
<path d="M29.732 39.6078V42.0138H32.768V43.2558H29.732V45.7098H33.584V46.9998H28.112V38.3238H33.584V39.6078H29.732ZM40.2763 46.9998H38.8483C38.7403 46.9998 38.6523 46.9718 38.5843 46.9158C38.5203 46.8598 38.4663 46.7958 38.4223 46.7238L37.1203 44.5818C37.1003 44.6498 37.0763 44.7138 37.0483 44.7738C37.0243 44.8338 36.9963 44.8898 36.9643 44.9418L35.8123 46.7238C35.7683 46.7918 35.7143 46.8558 35.6503 46.9158C35.5863 46.9718 35.5063 46.9998 35.4103 46.9998H34.0843L36.1963 43.8258L34.1683 40.8438H35.5963C35.7043 40.8438 35.7843 40.8598 35.8363 40.8918C35.8883 40.9198 35.9343 40.9678 35.9743 41.0358L37.2643 43.0878C37.3083 42.9518 37.3703 42.8178 37.4503 42.6858L38.4883 41.0658C38.5763 40.9178 38.6903 40.8438 38.8303 40.8438H40.1923L38.1703 43.7598L40.2763 46.9998ZM42.5319 45.4038C42.6999 45.6078 42.8819 45.7518 43.0779 45.8358C43.2779 45.9198 43.4939 45.9618 43.7259 45.9618C43.9499 45.9618 44.1519 45.9198 44.3319 45.8358C44.5119 45.7518 44.6639 45.6238 44.7879 45.4518C44.9159 45.2798 45.0139 45.0638 45.0819 44.8038C45.1499 44.5398 45.1839 44.2298 45.1839 43.8738C45.1839 43.5138 45.1539 43.2098 45.0939 42.9618C45.0379 42.7098 44.9559 42.5058 44.8479 42.3498C44.7399 42.1938 44.6079 42.0798 44.4519 42.0078C44.2999 41.9358 44.1259 41.8998 43.9299 41.8998C43.6219 41.8998 43.3599 41.9658 43.1439 42.0978C42.9279 42.2258 42.7239 42.4078 42.5319 42.6438V45.4038ZM42.4539 41.6838C42.7059 41.3998 42.9919 41.1698 43.3119 40.9938C43.6319 40.8178 44.0079 40.7298 44.4399 40.7298C44.7759 40.7298 45.0819 40.7998 45.3579 40.9398C45.6379 41.0798 45.8779 41.2838 46.0779 41.5518C46.2819 41.8158 46.4379 42.1438 46.5459 42.5358C46.6579 42.9238 46.7139 43.3698 46.7139 43.8738C46.7139 44.3338 46.6519 44.7598 46.5279 45.1518C46.4039 45.5438 46.2259 45.8838 45.9939 46.1718C45.7659 46.4598 45.4879 46.6858 45.1599 46.8498C44.8359 47.0098 44.4719 47.0898 44.0679 47.0898C43.7239 47.0898 43.4299 47.0378 43.1859 46.9338C42.9419 46.8258 42.7239 46.6778 42.5319 46.4898V49.0098H41.0499V40.8438H41.9559C42.1479 40.8438 42.2739 40.9338 42.3339 41.1138L42.4539 41.6838ZM49.3702 38.0838V46.9998H47.8882V38.0838H49.3702ZM53.5707 40.7478C54.0267 40.7478 54.4407 40.8218 54.8127 40.9698C55.1887 41.1178 55.5087 41.3278 55.7727 41.5998C56.0407 41.8718 56.2467 42.2038 56.3907 42.5958C56.5347 42.9878 56.6067 43.4258 56.6067 43.9098C56.6067 44.3978 56.5347 44.8378 56.3907 45.2298C56.2467 45.6218 56.0407 45.9558 55.7727 46.2318C55.5087 46.5078 55.1887 46.7198 54.8127 46.8678C54.4407 47.0158 54.0267 47.0898 53.5707 47.0898C53.1107 47.0898 52.6927 47.0158 52.3167 46.8678C51.9407 46.7198 51.6187 46.5078 51.3507 46.2318C51.0867 45.9558 50.8807 45.6218 50.7327 45.2298C50.5887 44.8378 50.5167 44.3978 50.5167 43.9098C50.5167 43.4258 50.5887 42.9878 50.7327 42.5958C50.8807 42.2038 51.0867 41.8718 51.3507 41.5998C51.6187 41.3278 51.9407 41.1178 52.3167 40.9698C52.6927 40.8218 53.1107 40.7478 53.5707 40.7478ZM53.5707 45.9498C54.0827 45.9498 54.4607 45.7778 54.7047 45.4338C54.9527 45.0898 55.0767 44.5858 55.0767 43.9218C55.0767 43.2578 54.9527 42.7518 54.7047 42.4038C54.4607 42.0558 54.0827 41.8818 53.5707 41.8818C53.0507 41.8818 52.6647 42.0578 52.4127 42.4098C52.1647 42.7578 52.0407 43.2618 52.0407 43.9218C52.0407 44.5818 52.1647 45.0858 52.4127 45.4338C52.6647 45.7778 53.0507 45.9498 53.5707 45.9498ZM59.1354 41.9118C59.3274 41.5438 59.5554 41.2558 59.8194 41.0478C60.0834 40.8358 60.3954 40.7298 60.7554 40.7298C61.0394 40.7298 61.2674 40.7918 61.4394 40.9158L61.3434 42.0258C61.3234 42.0978 61.2934 42.1498 61.2534 42.1818C61.2174 42.2098 61.1674 42.2238 61.1034 42.2238C61.0434 42.2238 60.9534 42.2138 60.8334 42.1938C60.7174 42.1738 60.6034 42.1638 60.4914 42.1638C60.3274 42.1638 60.1814 42.1878 60.0534 42.2358C59.9254 42.2838 59.8094 42.3538 59.7054 42.4458C59.6054 42.5338 59.5154 42.6418 59.4354 42.7698C59.3594 42.8978 59.2874 43.0438 59.2194 43.2078V46.9998H57.7374V40.8438H58.6074C58.7594 40.8438 58.8654 40.8718 58.9254 40.9278C58.9854 40.9798 59.0254 41.0758 59.0454 41.2158L59.1354 41.9118ZM66.0042 43.2138C66.0042 43.0218 65.9762 42.8418 65.9202 42.6738C65.8682 42.5018 65.7882 42.3518 65.6802 42.2238C65.5722 42.0958 65.4342 41.9958 65.2662 41.9238C65.1022 41.8478 64.9102 41.8098 64.6902 41.8098C64.2622 41.8098 63.9242 41.9318 63.6762 42.1758C63.4322 42.4198 63.2762 42.7658 63.2082 43.2138H66.0042ZM63.1782 44.1078C63.2022 44.4238 63.2582 44.6978 63.3462 44.9298C63.4342 45.1578 63.5502 45.3478 63.6942 45.4998C63.8382 45.6478 64.0082 45.7598 64.2042 45.8358C64.4042 45.9078 64.6242 45.9438 64.8642 45.9438C65.1042 45.9438 65.3102 45.9158 65.4822 45.8598C65.6582 45.8038 65.8102 45.7418 65.9382 45.6738C66.0702 45.6058 66.1842 45.5438 66.2802 45.4878C66.3802 45.4318 66.4762 45.4038 66.5682 45.4038C66.6922 45.4038 66.7842 45.4498 66.8442 45.5418L67.2702 46.0818C67.1062 46.2738 66.9222 46.4358 66.7182 46.5678C66.5142 46.6958 66.3002 46.7998 66.0762 46.8798C65.8562 46.9558 65.6302 47.0098 65.3982 47.0418C65.1702 47.0738 64.9482 47.0898 64.7322 47.0898C64.3042 47.0898 63.9062 47.0198 63.5382 46.8798C63.1702 46.7358 62.8502 46.5258 62.5782 46.2498C62.3062 45.9698 62.0922 45.6258 61.9362 45.2178C61.7802 44.8058 61.7022 44.3298 61.7022 43.7898C61.7022 43.3698 61.7702 42.9758 61.9062 42.6078C62.0422 42.2358 62.2362 41.9138 62.4882 41.6418C62.7442 41.3658 63.0542 41.1478 63.4182 40.9878C63.7862 40.8278 64.2002 40.7478 64.6602 40.7478C65.0482 40.7478 65.4062 40.8098 65.7342 40.9338C66.0622 41.0578 66.3442 41.2398 66.5802 41.4798C66.8162 41.7158 67.0002 42.0078 67.1322 42.3558C67.2682 42.6998 67.3362 43.0938 67.3362 43.5378C67.3362 43.7618 67.3122 43.9138 67.2642 43.9938C67.2162 44.0698 67.1242 44.1078 66.9882 44.1078H63.1782Z" fill="black"/>
</svg>
