<svg width="96" height="60" viewBox="0 0 96 60" fill="none" xmlns="http://www.w3.org/2000/svg">
<path d="M48.5452 11.2097C48.3696 11.0732 48.1536 10.999 47.9312 10.999C47.7088 10.999 47.4927 11.0732 47.3172 11.2097L39.0892 17.6097C38.7283 17.8904 38.4364 18.2499 38.2357 18.6606C38.035 19.0714 37.9308 19.5226 37.9312 19.9797V28.9997C37.9312 29.5302 38.1419 30.0389 38.5169 30.4139C38.892 30.789 39.4007 30.9997 39.9312 30.9997H43.9312C44.4616 30.9997 44.9703 30.789 45.3454 30.4139C45.7204 30.0389 45.9312 29.5302 45.9312 28.9997V22.9997H49.9312V28.9997C49.9312 29.5302 50.1419 30.0389 50.5169 30.4139C50.892 30.789 51.4007 30.9997 51.9312 30.9997H55.9312C56.4616 30.9997 56.9703 30.789 57.3454 30.4139C57.7204 30.0389 57.9312 29.5302 57.9312 28.9997V19.9797C57.9312 19.5224 57.8268 19.0711 57.6257 18.6603C57.4247 18.2496 57.1324 17.8902 56.7712 17.6097L48.5452 11.2097Z" fill="black"/>
<path d="M40.0041 38.3238V46.9998H38.3841V43.2078H34.3101V46.9998H32.6901V38.3238H34.3101V42.0558H38.3841V38.3238H40.0041ZM44.2387 40.7478C44.6947 40.7478 45.1087 40.8218 45.4807 40.9698C45.8567 41.1178 46.1767 41.3278 46.4407 41.5998C46.7087 41.8718 46.9147 42.2038 47.0587 42.5958C47.2027 42.9878 47.2747 43.4258 47.2747 43.9098C47.2747 44.3978 47.2027 44.8378 47.0587 45.2298C46.9147 45.6218 46.7087 45.9558 46.4407 46.2318C46.1767 46.5078 45.8567 46.7198 45.4807 46.8678C45.1087 47.0158 44.6947 47.0898 44.2387 47.0898C43.7787 47.0898 43.3607 47.0158 42.9847 46.8678C42.6087 46.7198 42.2867 46.5078 42.0187 46.2318C41.7547 45.9558 41.5487 45.6218 41.4007 45.2298C41.2567 44.8378 41.1847 44.3978 41.1847 43.9098C41.1847 43.4258 41.2567 42.9878 41.4007 42.5958C41.5487 42.2038 41.7547 41.8718 42.0187 41.5998C42.2867 41.3278 42.6087 41.1178 42.9847 40.9698C43.3607 40.8218 43.7787 40.7478 44.2387 40.7478ZM44.2387 45.9498C44.7507 45.9498 45.1287 45.7778 45.3727 45.4338C45.6207 45.0898 45.7447 44.5858 45.7447 43.9218C45.7447 43.2578 45.6207 42.7518 45.3727 42.4038C45.1287 42.0558 44.7507 41.8818 44.2387 41.8818C43.7187 41.8818 43.3327 42.0578 43.0807 42.4098C42.8327 42.7578 42.7087 43.2618 42.7087 43.9218C42.7087 44.5818 42.8327 45.0858 43.0807 45.4338C43.3327 45.7778 43.7187 45.9498 44.2387 45.9498ZM48.4053 46.9998V40.8438H49.3113C49.5033 40.8438 49.6293 40.9338 49.6893 41.1138L49.7853 41.5698C49.8933 41.4498 50.0053 41.3398 50.1213 41.2398C50.2413 41.1398 50.3673 41.0538 50.4993 40.9818C50.6353 40.9098 50.7793 40.8538 50.9313 40.8138C51.0873 40.7698 51.2573 40.7478 51.4413 40.7478C51.8293 40.7478 52.1473 40.8538 52.3953 41.0658C52.6473 41.2738 52.8353 41.5518 52.9593 41.8998C53.0553 41.6958 53.1753 41.5218 53.3193 41.3778C53.4633 41.2298 53.6213 41.1098 53.7933 41.0178C53.9653 40.9258 54.1473 40.8578 54.3393 40.8138C54.5353 40.7698 54.7313 40.7478 54.9273 40.7478C55.2673 40.7478 55.5693 40.7998 55.8333 40.9038C56.0973 41.0078 56.3193 41.1598 56.4993 41.3598C56.6793 41.5598 56.8153 41.8038 56.9073 42.0918C57.0033 42.3798 57.0513 42.7098 57.0513 43.0818V46.9998H55.5693V43.0818C55.5693 42.6898 55.4833 42.3958 55.3113 42.1998C55.1393 41.9998 54.8873 41.8998 54.5553 41.8998C54.4033 41.8998 54.2613 41.9258 54.1293 41.9778C54.0013 42.0298 53.8873 42.1058 53.7873 42.2058C53.6913 42.3018 53.6153 42.4238 53.5593 42.5718C53.5033 42.7198 53.4753 42.8898 53.4753 43.0818V46.9998H51.9873V43.0818C51.9873 42.6698 51.9033 42.3698 51.7353 42.1818C51.5713 41.9938 51.3293 41.8998 51.0093 41.8998C50.7933 41.8998 50.5913 41.9538 50.4033 42.0618C50.2193 42.1658 50.0473 42.3098 49.8873 42.4938V46.9998H48.4053ZM62.426 43.2138C62.426 43.0218 62.398 42.8418 62.342 42.6738C62.29 42.5018 62.21 42.3518 62.102 42.2238C61.994 42.0958 61.856 41.9958 61.688 41.9238C61.524 41.8478 61.332 41.8098 61.112 41.8098C60.684 41.8098 60.346 41.9318 60.098 42.1758C59.854 42.4198 59.698 42.7658 59.63 43.2138H62.426ZM59.6 44.1078C59.624 44.4238 59.68 44.6978 59.768 44.9298C59.856 45.1578 59.972 45.3478 60.116 45.4998C60.26 45.6478 60.43 45.7598 60.626 45.8358C60.826 45.9078 61.046 45.9438 61.286 45.9438C61.526 45.9438 61.732 45.9158 61.904 45.8598C62.08 45.8038 62.232 45.7418 62.36 45.6738C62.492 45.6058 62.606 45.5438 62.702 45.4878C62.802 45.4318 62.898 45.4038 62.99 45.4038C63.114 45.4038 63.206 45.4498 63.266 45.5418L63.692 46.0818C63.528 46.2738 63.344 46.4358 63.14 46.5678C62.936 46.6958 62.722 46.7998 62.498 46.8798C62.278 46.9558 62.052 47.0098 61.82 47.0418C61.592 47.0738 61.37 47.0898 61.154 47.0898C60.726 47.0898 60.328 47.0198 59.96 46.8798C59.592 46.7358 59.272 46.5258 59 46.2498C58.728 45.9698 58.514 45.6258 58.358 45.2178C58.202 44.8058 58.124 44.3298 58.124 43.7898C58.124 43.3698 58.192 42.9758 58.328 42.6078C58.464 42.2358 58.658 41.9138 58.91 41.6418C59.166 41.3658 59.476 41.1478 59.84 40.9878C60.208 40.8278 60.622 40.7478 61.082 40.7478C61.47 40.7478 61.828 40.8098 62.156 40.9338C62.484 41.0578 62.766 41.2398 63.002 41.4798C63.238 41.7158 63.422 42.0078 63.554 42.3558C63.69 42.6998 63.758 43.0938 63.758 43.5378C63.758 43.7618 63.734 43.9138 63.686 43.9938C63.638 44.0698 63.546 44.1078 63.41 44.1078H59.6Z" fill="black"/>
</svg>
