<svg width="96" height="61" viewBox="0 0 96 61" fill="none" xmlns="http://www.w3.org/2000/svg">
<path d="M40 20.2866H46C46.2652 20.2866 46.5196 20.1813 46.7071 19.9937C46.8946 19.8062 47 19.5518 47 19.2866V13.2866C47 13.0214 46.8946 12.7671 46.7071 12.5795C46.5196 12.392 46.2652 12.2866 46 12.2866H40C39.7348 12.2866 39.4804 12.392 39.2929 12.5795C39.1054 12.7671 39 13.0214 39 13.2866V19.2866C39 19.5518 39.1054 19.8062 39.2929 19.9937C39.4804 20.1813 39.7348 20.2866 40 20.2866ZM50 20.2866H56C56.2652 20.2866 56.5196 20.1813 56.7071 19.9937C56.8946 19.8062 57 19.5518 57 19.2866V13.2866C57 13.0214 56.8946 12.7671 56.7071 12.5795C56.5196 12.392 56.2652 12.2866 56 12.2866H50C49.7348 12.2866 49.4804 12.392 49.2929 12.5795C49.1054 12.7671 49 13.0214 49 13.2866V19.2866C49 19.5518 49.1054 19.8062 49.2929 19.9937C49.4804 20.1813 49.7348 20.2866 50 20.2866ZM40 30.2866H46C46.2652 30.2866 46.5196 30.1813 46.7071 29.9937C46.8946 29.8062 47 29.5518 47 29.2866V23.2866C47 23.0214 46.8946 22.7671 46.7071 22.5795C46.5196 22.392 46.2652 22.2866 46 22.2866H40C39.7348 22.2866 39.4804 22.392 39.2929 22.5795C39.1054 22.7671 39 23.0214 39 23.2866V29.2866C39 29.5518 39.1054 29.8062 39.2929 29.9937C39.4804 30.1813 39.7348 30.2866 40 30.2866ZM53 30.2866C55.206 30.2866 57 28.4926 57 26.2866C57 24.0806 55.206 22.2866 53 22.2866C50.794 22.2866 49 24.0806 49 26.2866C49 28.4926 50.794 30.2866 53 30.2866Z" fill="black"/>
<path d="M30.3008 39.8946V42.3006H33.3368V43.5426H30.3008V45.9966H34.1528V47.2866H28.6808V38.6106H34.1528V39.8946H30.3008ZM40.8452 47.2866H39.4172C39.3092 47.2866 39.2212 47.2586 39.1532 47.2026C39.0892 47.1466 39.0352 47.0826 38.9912 47.0106L37.6892 44.8686C37.6692 44.9366 37.6452 45.0006 37.6172 45.0606C37.5932 45.1206 37.5652 45.1766 37.5332 45.2286L36.3812 47.0106C36.3372 47.0786 36.2832 47.1426 36.2192 47.2026C36.1552 47.2586 36.0752 47.2866 35.9792 47.2866H34.6532L36.7652 44.1126L34.7372 41.1306H36.1652C36.2732 41.1306 36.3532 41.1466 36.4052 41.1786C36.4572 41.2066 36.5032 41.2546 36.5432 41.3226L37.8332 43.3746C37.8772 43.2386 37.9392 43.1046 38.0192 42.9726L39.0572 41.3526C39.1452 41.2046 39.2592 41.1306 39.3992 41.1306H40.7612L38.7392 44.0466L40.8452 47.2866ZM43.1007 45.6906C43.2687 45.8946 43.4507 46.0386 43.6467 46.1226C43.8467 46.2066 44.0627 46.2486 44.2947 46.2486C44.5187 46.2486 44.7207 46.2066 44.9007 46.1226C45.0807 46.0386 45.2327 45.9106 45.3567 45.7386C45.4847 45.5666 45.5827 45.3506 45.6507 45.0906C45.7187 44.8266 45.7527 44.5166 45.7527 44.1606C45.7527 43.8006 45.7227 43.4966 45.6627 43.2486C45.6067 42.9966 45.5247 42.7926 45.4167 42.6366C45.3087 42.4806 45.1767 42.3666 45.0207 42.2946C44.8687 42.2226 44.6947 42.1866 44.4987 42.1866C44.1907 42.1866 43.9287 42.2526 43.7127 42.3846C43.4967 42.5126 43.2927 42.6946 43.1007 42.9306V45.6906ZM43.0227 41.9706C43.2747 41.6866 43.5607 41.4566 43.8807 41.2806C44.2007 41.1046 44.5767 41.0166 45.0087 41.0166C45.3447 41.0166 45.6507 41.0866 45.9267 41.2266C46.2067 41.3666 46.4467 41.5706 46.6467 41.8386C46.8507 42.1026 47.0067 42.4306 47.1147 42.8226C47.2267 43.2106 47.2827 43.6566 47.2827 44.1606C47.2827 44.6206 47.2207 45.0466 47.0967 45.4386C46.9727 45.8306 46.7947 46.1706 46.5627 46.4586C46.3347 46.7466 46.0567 46.9726 45.7287 47.1366C45.4047 47.2966 45.0407 47.3766 44.6367 47.3766C44.2927 47.3766 43.9987 47.3246 43.7547 47.2206C43.5107 47.1126 43.2927 46.9646 43.1007 46.7766V49.2966H41.6187V41.1306H42.5247C42.7167 41.1306 42.8427 41.2206 42.9027 41.4006L43.0227 41.9706ZM49.939 38.3706V47.2866H48.457V38.3706H49.939ZM54.1396 41.0346C54.5956 41.0346 55.0096 41.1086 55.3816 41.2566C55.7576 41.4046 56.0776 41.6146 56.3416 41.8866C56.6096 42.1586 56.8156 42.4906 56.9596 42.8826C57.1036 43.2746 57.1756 43.7126 57.1756 44.1966C57.1756 44.6846 57.1036 45.1246 56.9596 45.5166C56.8156 45.9086 56.6096 46.2426 56.3416 46.5186C56.0776 46.7946 55.7576 47.0066 55.3816 47.1546C55.0096 47.3026 54.5956 47.3766 54.1396 47.3766C53.6796 47.3766 53.2616 47.3026 52.8856 47.1546C52.5096 47.0066 52.1876 46.7946 51.9196 46.5186C51.6556 46.2426 51.4496 45.9086 51.3016 45.5166C51.1576 45.1246 51.0856 44.6846 51.0856 44.1966C51.0856 43.7126 51.1576 43.2746 51.3016 42.8826C51.4496 42.4906 51.6556 42.1586 51.9196 41.8866C52.1876 41.6146 52.5096 41.4046 52.8856 41.2566C53.2616 41.1086 53.6796 41.0346 54.1396 41.0346ZM54.1396 46.2366C54.6516 46.2366 55.0296 46.0646 55.2736 45.7206C55.5216 45.3766 55.6456 44.8726 55.6456 44.2086C55.6456 43.5446 55.5216 43.0386 55.2736 42.6906C55.0296 42.3426 54.6516 42.1686 54.1396 42.1686C53.6196 42.1686 53.2336 42.3446 52.9816 42.6966C52.7336 43.0446 52.6096 43.5486 52.6096 44.2086C52.6096 44.8686 52.7336 45.3726 52.9816 45.7206C53.2336 46.0646 53.6196 46.2366 54.1396 46.2366ZM59.7042 42.1986C59.8962 41.8306 60.1242 41.5426 60.3882 41.3346C60.6522 41.1226 60.9642 41.0166 61.3242 41.0166C61.6082 41.0166 61.8362 41.0786 62.0082 41.2026L61.9122 42.3126C61.8922 42.3846 61.8622 42.4366 61.8222 42.4686C61.7862 42.4966 61.7362 42.5106 61.6722 42.5106C61.6122 42.5106 61.5222 42.5006 61.4022 42.4806C61.2862 42.4606 61.1722 42.4506 61.0602 42.4506C60.8962 42.4506 60.7502 42.4746 60.6222 42.5226C60.4942 42.5706 60.3782 42.6406 60.2742 42.7326C60.1742 42.8206 60.0842 42.9286 60.0042 43.0566C59.9282 43.1846 59.8562 43.3306 59.7882 43.4946V47.2866H58.3062V41.1306H59.1762C59.3282 41.1306 59.4342 41.1586 59.4942 41.2146C59.5542 41.2666 59.5942 41.3626 59.6142 41.5026L59.7042 42.1986ZM66.573 43.5006C66.573 43.3086 66.545 43.1286 66.489 42.9606C66.437 42.7886 66.357 42.6386 66.249 42.5106C66.141 42.3826 66.003 42.2826 65.835 42.2106C65.671 42.1346 65.479 42.0966 65.259 42.0966C64.831 42.0966 64.493 42.2186 64.245 42.4626C64.001 42.7066 63.845 43.0526 63.777 43.5006H66.573ZM63.747 44.3946C63.771 44.7106 63.827 44.9846 63.915 45.2166C64.003 45.4446 64.119 45.6346 64.263 45.7866C64.407 45.9346 64.577 46.0466 64.773 46.1226C64.973 46.1946 65.193 46.2306 65.433 46.2306C65.673 46.2306 65.879 46.2026 66.051 46.1466C66.227 46.0906 66.379 46.0286 66.507 45.9606C66.639 45.8926 66.753 45.8306 66.849 45.7746C66.949 45.7186 67.045 45.6906 67.137 45.6906C67.261 45.6906 67.353 45.7366 67.413 45.8286L67.839 46.3686C67.675 46.5606 67.491 46.7226 67.287 46.8546C67.083 46.9826 66.869 47.0866 66.645 47.1666C66.425 47.2426 66.199 47.2966 65.967 47.3286C65.739 47.3606 65.517 47.3766 65.301 47.3766C64.873 47.3766 64.475 47.3066 64.107 47.1666C63.739 47.0226 63.419 46.8126 63.147 46.5366C62.875 46.2566 62.661 45.9126 62.505 45.5046C62.349 45.0926 62.271 44.6166 62.271 44.0766C62.271 43.6566 62.339 43.2626 62.475 42.8946C62.611 42.5226 62.805 42.2006 63.057 41.9286C63.313 41.6526 63.623 41.4346 63.987 41.2746C64.355 41.1146 64.769 41.0346 65.229 41.0346C65.617 41.0346 65.975 41.0966 66.303 41.2206C66.631 41.3446 66.913 41.5266 67.149 41.7666C67.385 42.0026 67.569 42.2946 67.701 42.6426C67.837 42.9866 67.905 43.3806 67.905 43.8246C67.905 44.0486 67.881 44.2006 67.833 44.2806C67.785 44.3566 67.693 44.3946 67.557 44.3946H63.747Z" fill="black"/>
</svg>
