<svg width="95" height="61" viewBox="0 0 95 61" fill="none" xmlns="http://www.w3.org/2000/svg">
<path d="M48.114 11.4966C47.9385 11.36 47.7224 11.2859 47.5 11.2859C47.2776 11.2859 47.0615 11.36 46.886 11.4966L38.658 17.8966C38.2972 18.1773 38.0052 18.5367 37.8045 18.9475C37.6039 19.3582 37.4997 19.8094 37.5 20.2666V29.2866C37.5 29.817 37.7107 30.3257 38.0858 30.7008C38.4609 31.0759 38.9696 31.2866 39.5 31.2866H43.5C44.0304 31.2866 44.5391 31.0759 44.9142 30.7008C45.2893 30.3257 45.5 29.817 45.5 29.2866V23.2866H49.5V29.2866C49.5 29.817 49.7107 30.3257 50.0858 30.7008C50.4609 31.0759 50.9696 31.2866 51.5 31.2866H55.5C56.0304 31.2866 56.5391 31.0759 56.9142 30.7008C57.2893 30.3257 57.5 29.817 57.5 29.2866V20.2666C57.5001 19.8093 57.3956 19.358 57.1946 18.9472C56.9935 18.5364 56.7012 18.1771 56.34 17.8966L48.114 11.4966Z" fill="black"/>
<path d="M39.573 38.6106V47.2866H37.953V43.4946H33.879V47.2866H32.259V38.6106H33.879V42.3426H37.953V38.6106H39.573ZM43.8076 41.0346C44.2636 41.0346 44.6776 41.1086 45.0496 41.2566C45.4256 41.4046 45.7456 41.6146 46.0096 41.8866C46.2776 42.1586 46.4836 42.4906 46.6276 42.8826C46.7716 43.2746 46.8436 43.7126 46.8436 44.1966C46.8436 44.6846 46.7716 45.1246 46.6276 45.5166C46.4836 45.9086 46.2776 46.2426 46.0096 46.5186C45.7456 46.7946 45.4256 47.0066 45.0496 47.1546C44.6776 47.3026 44.2636 47.3766 43.8076 47.3766C43.3476 47.3766 42.9296 47.3026 42.5536 47.1546C42.1776 47.0066 41.8556 46.7946 41.5876 46.5186C41.3236 46.2426 41.1176 45.9086 40.9696 45.5166C40.8256 45.1246 40.7536 44.6846 40.7536 44.1966C40.7536 43.7126 40.8256 43.2746 40.9696 42.8826C41.1176 42.4906 41.3236 42.1586 41.5876 41.8866C41.8556 41.6146 42.1776 41.4046 42.5536 41.2566C42.9296 41.1086 43.3476 41.0346 43.8076 41.0346ZM43.8076 46.2366C44.3196 46.2366 44.6976 46.0646 44.9416 45.7206C45.1896 45.3766 45.3136 44.8726 45.3136 44.2086C45.3136 43.5446 45.1896 43.0386 44.9416 42.6906C44.6976 42.3426 44.3196 42.1686 43.8076 42.1686C43.2876 42.1686 42.9016 42.3446 42.6496 42.6966C42.4016 43.0446 42.2776 43.5486 42.2776 44.2086C42.2776 44.8686 42.4016 45.3726 42.6496 45.7206C42.9016 46.0646 43.2876 46.2366 43.8076 46.2366ZM47.9742 47.2866V41.1306H48.8802C49.0722 41.1306 49.1982 41.2206 49.2582 41.4006L49.3542 41.8566C49.4622 41.7366 49.5742 41.6266 49.6902 41.5266C49.8102 41.4266 49.9362 41.3406 50.0682 41.2686C50.2042 41.1966 50.3482 41.1406 50.5002 41.1006C50.6562 41.0566 50.8262 41.0346 51.0102 41.0346C51.3982 41.0346 51.7162 41.1406 51.9642 41.3526C52.2162 41.5606 52.4042 41.8386 52.5282 42.1866C52.6242 41.9826 52.7442 41.8086 52.8882 41.6646C53.0322 41.5166 53.1902 41.3966 53.3622 41.3046C53.5342 41.2126 53.7162 41.1446 53.9082 41.1006C54.1042 41.0566 54.3002 41.0346 54.4962 41.0346C54.8362 41.0346 55.1382 41.0866 55.4022 41.1906C55.6662 41.2946 55.8882 41.4466 56.0682 41.6466C56.2482 41.8466 56.3842 42.0906 56.4762 42.3786C56.5722 42.6666 56.6202 42.9966 56.6202 43.3686V47.2866H55.1382V43.3686C55.1382 42.9766 55.0522 42.6826 54.8802 42.4866C54.7082 42.2866 54.4562 42.1866 54.1242 42.1866C53.9722 42.1866 53.8302 42.2126 53.6982 42.2646C53.5702 42.3166 53.4562 42.3926 53.3562 42.4926C53.2602 42.5886 53.1842 42.7106 53.1282 42.8586C53.0722 43.0066 53.0442 43.1766 53.0442 43.3686V47.2866H51.5562V43.3686C51.5562 42.9566 51.4722 42.6566 51.3042 42.4686C51.1402 42.2806 50.8982 42.1866 50.5782 42.1866C50.3622 42.1866 50.1602 42.2406 49.9722 42.3486C49.7882 42.4526 49.6162 42.5966 49.4562 42.7806V47.2866H47.9742ZM61.9949 43.5006C61.9949 43.3086 61.9669 43.1286 61.9109 42.9606C61.8589 42.7886 61.7789 42.6386 61.6709 42.5106C61.5629 42.3826 61.4249 42.2826 61.2569 42.2106C61.0929 42.1346 60.9009 42.0966 60.6809 42.0966C60.2529 42.0966 59.9149 42.2186 59.6669 42.4626C59.4229 42.7066 59.2669 43.0526 59.1989 43.5006H61.9949ZM59.1689 44.3946C59.1929 44.7106 59.2489 44.9846 59.3369 45.2166C59.4249 45.4446 59.5409 45.6346 59.6849 45.7866C59.8289 45.9346 59.9989 46.0466 60.1949 46.1226C60.3949 46.1946 60.6149 46.2306 60.8549 46.2306C61.0949 46.2306 61.3009 46.2026 61.4729 46.1466C61.6489 46.0906 61.8009 46.0286 61.9289 45.9606C62.0609 45.8926 62.1749 45.8306 62.2709 45.7746C62.3709 45.7186 62.4669 45.6906 62.5589 45.6906C62.6829 45.6906 62.7749 45.7366 62.8349 45.8286L63.2609 46.3686C63.0969 46.5606 62.9129 46.7226 62.7089 46.8546C62.5049 46.9826 62.2909 47.0866 62.0669 47.1666C61.8469 47.2426 61.6209 47.2966 61.3889 47.3286C61.1609 47.3606 60.9389 47.3766 60.7229 47.3766C60.2949 47.3766 59.8969 47.3066 59.5289 47.1666C59.1609 47.0226 58.8409 46.8126 58.5689 46.5366C58.2969 46.2566 58.0829 45.9126 57.9269 45.5046C57.7709 45.0926 57.6929 44.6166 57.6929 44.0766C57.6929 43.6566 57.7609 43.2626 57.8969 42.8946C58.0329 42.5226 58.2269 42.2006 58.4789 41.9286C58.7349 41.6526 59.0449 41.4346 59.4089 41.2746C59.7769 41.1146 60.1909 41.0346 60.6509 41.0346C61.0389 41.0346 61.3969 41.0966 61.7249 41.2206C62.0529 41.3446 62.3349 41.5266 62.5709 41.7666C62.8069 42.0026 62.9909 42.2946 63.1229 42.6426C63.2589 42.9866 63.3269 43.3806 63.3269 43.8246C63.3269 44.0486 63.3029 44.2006 63.2549 44.2806C63.2069 44.3566 63.1149 44.3946 62.9789 44.3946H59.1689Z" fill="black"/>
</svg>
