<svg width="96" height="60" viewBox="0 0 96 60" fill="none" xmlns="http://www.w3.org/2000/svg">
<path d="M54.6812 10.9998H41.6812C40.4752 10.9998 38.6812 11.7988 38.6812 13.9998V27.9998C38.6812 30.2008 40.4752 30.9998 41.6812 30.9998H56.6812V28.9998H41.6932C41.2312 28.9878 40.6812 28.8058 40.6812 27.9998C40.6812 27.8988 40.6902 27.8088 40.7052 27.7268C40.8172 27.1508 41.2892 27.0098 41.6932 26.9998H56.6812V12.9998C56.6812 12.4693 56.4704 11.9606 56.0954 11.5855C55.7203 11.2105 55.2116 10.9998 54.6812 10.9998ZM54.6812 19.9998L52.6812 18.9998L50.6812 19.9998V12.9998H54.6812V19.9998Z" fill="black"/>
<path d="M29.8578 42.6858C30.1538 42.6858 30.4118 42.6498 30.6318 42.5778C30.8518 42.5018 31.0338 42.3958 31.1778 42.2598C31.3258 42.1198 31.4358 41.9518 31.5078 41.7558C31.5798 41.5558 31.6158 41.3338 31.6158 41.0898C31.6158 40.8578 31.5798 40.6478 31.5078 40.4598C31.4358 40.2718 31.3278 40.1118 31.1838 39.9798C31.0398 39.8478 30.8578 39.7478 30.6378 39.6798C30.4178 39.6078 30.1578 39.5718 29.8578 39.5718H28.6518V42.6858H29.8578ZM29.8578 38.3238C30.4378 38.3238 30.9398 38.3918 31.3638 38.5278C31.7878 38.6638 32.1378 38.8538 32.4138 39.0978C32.6898 39.3418 32.8938 39.6338 33.0258 39.9738C33.1618 40.3138 33.2298 40.6858 33.2298 41.0898C33.2298 41.5098 33.1598 41.8958 33.0198 42.2478C32.8798 42.5958 32.6698 42.8958 32.3898 43.1478C32.1098 43.3998 31.7578 43.5958 31.3338 43.7358C30.9138 43.8758 30.4218 43.9458 29.8578 43.9458H28.6518V46.9998H27.0378V38.3238H29.8578ZM39.8255 40.8438L36.4715 48.6918C36.4275 48.7958 36.3695 48.8738 36.2975 48.9258C36.2295 48.9818 36.1235 49.0098 35.9795 49.0098H34.8755L36.0275 46.5378L33.5375 40.8438H34.8395C34.9555 40.8438 35.0455 40.8718 35.1095 40.9278C35.1775 40.9838 35.2275 41.0478 35.2595 41.1198L36.5675 44.3118C36.6115 44.4198 36.6475 44.5278 36.6755 44.6358C36.7075 44.7438 36.7375 44.8538 36.7655 44.9658C36.8015 44.8538 36.8375 44.7438 36.8735 44.6358C36.9095 44.5238 36.9495 44.4138 36.9935 44.3058L38.2295 41.1198C38.2615 41.0398 38.3135 40.9738 38.3855 40.9218C38.4615 40.8698 38.5455 40.8438 38.6375 40.8438H39.8255ZM41.9596 41.9118C42.1516 41.5438 42.3796 41.2558 42.6436 41.0478C42.9076 40.8358 43.2196 40.7298 43.5796 40.7298C43.8636 40.7298 44.0916 40.7918 44.2636 40.9158L44.1676 42.0258C44.1476 42.0978 44.1176 42.1498 44.0776 42.1818C44.0416 42.2098 43.9916 42.2238 43.9276 42.2238C43.8676 42.2238 43.7776 42.2138 43.6576 42.1938C43.5416 42.1738 43.4276 42.1638 43.3156 42.1638C43.1516 42.1638 43.0056 42.1878 42.8776 42.2358C42.7496 42.2838 42.6336 42.3538 42.5296 42.4458C42.4296 42.5338 42.3396 42.6418 42.2596 42.7698C42.1836 42.8978 42.1116 43.0438 42.0436 43.2078V46.9998H40.5616V40.8438H41.4316C41.5836 40.8438 41.6896 40.8718 41.7496 40.9278C41.8096 40.9798 41.8496 41.0758 41.8696 41.2158L41.9596 41.9118ZM46.5742 40.8438V46.9998H45.0862V40.8438H46.5742ZM46.7782 39.0498C46.7782 39.1778 46.7522 39.2978 46.7002 39.4098C46.6482 39.5218 46.5782 39.6198 46.4902 39.7038C46.4062 39.7878 46.3062 39.8558 46.1902 39.9078C46.0742 39.9558 45.9502 39.9798 45.8182 39.9798C45.6902 39.9798 45.5682 39.9558 45.4522 39.9078C45.3402 39.8558 45.2422 39.7878 45.1582 39.7038C45.0742 39.6198 45.0062 39.5218 44.9542 39.4098C44.9062 39.2978 44.8822 39.1778 44.8822 39.0498C44.8822 38.9178 44.9062 38.7938 44.9542 38.6778C45.0062 38.5618 45.0742 38.4618 45.1582 38.3778C45.2422 38.2938 45.3402 38.2278 45.4522 38.1798C45.5682 38.1278 45.6902 38.1018 45.8182 38.1018C45.9502 38.1018 46.0742 38.1278 46.1902 38.1798C46.3062 38.2278 46.4062 38.2938 46.4902 38.3778C46.5782 38.4618 46.6482 38.5618 46.7002 38.6778C46.7522 38.7938 46.7782 38.9178 46.7782 39.0498ZM56.319 45.6678V46.9998H51.237V38.3238H52.851V45.6678H56.319ZM58.7734 40.8438V46.9998H57.2854V40.8438H58.7734ZM58.9774 39.0498C58.9774 39.1778 58.9514 39.2978 58.8994 39.4098C58.8474 39.5218 58.7774 39.6198 58.6894 39.7038C58.6054 39.7878 58.5054 39.8558 58.3894 39.9078C58.2734 39.9558 58.1494 39.9798 58.0174 39.9798C57.8894 39.9798 57.7674 39.9558 57.6514 39.9078C57.5394 39.8558 57.4414 39.7878 57.3574 39.7038C57.2734 39.6198 57.2054 39.5218 57.1534 39.4098C57.1054 39.2978 57.0814 39.1778 57.0814 39.0498C57.0814 38.9178 57.1054 38.7938 57.1534 38.6778C57.2054 38.5618 57.2734 38.4618 57.3574 38.3778C57.4414 38.2938 57.5394 38.2278 57.6514 38.1798C57.7674 38.1278 57.8894 38.1018 58.0174 38.1018C58.1494 38.1018 58.2734 38.1278 58.3894 38.1798C58.5054 38.2278 58.6054 38.2938 58.6894 38.3778C58.7774 38.4618 58.8474 38.5618 58.8994 38.6778C58.9514 38.7938 58.9774 38.9178 58.9774 39.0498ZM64.0402 42.0438C64.0002 42.1078 63.9582 42.1538 63.9142 42.1818C63.8702 42.2058 63.8142 42.2178 63.7462 42.2178C63.6742 42.2178 63.5962 42.1978 63.5122 42.1578C63.4322 42.1178 63.3382 42.0738 63.2302 42.0258C63.1222 41.9738 62.9982 41.9278 62.8582 41.8878C62.7222 41.8478 62.5602 41.8278 62.3722 41.8278C62.0802 41.8278 61.8502 41.8898 61.6822 42.0138C61.5182 42.1378 61.4362 42.2998 61.4362 42.4998C61.4362 42.6318 61.4782 42.7438 61.5622 42.8358C61.6502 42.9238 61.7642 43.0018 61.9042 43.0698C62.0482 43.1378 62.2102 43.1998 62.3902 43.2558C62.5702 43.3078 62.7522 43.3658 62.9362 43.4298C63.1242 43.4938 63.3082 43.5678 63.4882 43.6518C63.6682 43.7318 63.8282 43.8358 63.9682 43.9638C64.1122 44.0878 64.2262 44.2378 64.3102 44.4138C64.3982 44.5898 64.4422 44.8018 64.4422 45.0498C64.4422 45.3458 64.3882 45.6198 64.2802 45.8718C64.1762 46.1198 64.0202 46.3358 63.8122 46.5198C63.6042 46.6998 63.3462 46.8418 63.0382 46.9458C62.7342 47.0458 62.3822 47.0958 61.9822 47.0958C61.7702 47.0958 61.5622 47.0758 61.3582 47.0358C61.1582 46.9998 60.9642 46.9478 60.7762 46.8798C60.5922 46.8118 60.4202 46.7318 60.2602 46.6398C60.1042 46.5478 59.9662 46.4478 59.8462 46.3398L60.1882 45.7758C60.2322 45.7078 60.2842 45.6558 60.3442 45.6198C60.4042 45.5838 60.4802 45.5658 60.5722 45.5658C60.6642 45.5658 60.7502 45.5918 60.8302 45.6438C60.9142 45.6958 61.0102 45.7518 61.1182 45.8118C61.2262 45.8718 61.3522 45.9278 61.4962 45.9798C61.6442 46.0318 61.8302 46.0578 62.0542 46.0578C62.2302 46.0578 62.3802 46.0378 62.5042 45.9978C62.6322 45.9538 62.7362 45.8978 62.8162 45.8298C62.9002 45.7618 62.9602 45.6838 62.9962 45.5958C63.0362 45.5038 63.0562 45.4098 63.0562 45.3138C63.0562 45.1698 63.0122 45.0518 62.9242 44.9598C62.8402 44.8678 62.7262 44.7878 62.5822 44.7198C62.4422 44.6518 62.2802 44.5918 62.0962 44.5398C61.9162 44.4838 61.7302 44.4238 61.5382 44.3598C61.3502 44.2958 61.1642 44.2218 60.9802 44.1378C60.8002 44.0498 60.6382 43.9398 60.4942 43.8078C60.3542 43.6758 60.2402 43.5138 60.1522 43.3218C60.0682 43.1298 60.0262 42.8978 60.0262 42.6258C60.0262 42.3738 60.0762 42.1338 60.1762 41.9058C60.2762 41.6778 60.4222 41.4798 60.6142 41.3118C60.8102 41.1398 61.0522 41.0038 61.3402 40.9038C61.6322 40.7998 61.9682 40.7478 62.3482 40.7478C62.7722 40.7478 63.1582 40.8178 63.5062 40.9578C63.8542 41.0978 64.1442 41.2818 64.3762 41.5098L64.0402 42.0438ZM67.6097 47.0958C67.0737 47.0958 66.6617 46.9458 66.3737 46.6458C66.0897 46.3418 65.9477 45.9238 65.9477 45.3918V41.9538H65.3177C65.2377 41.9538 65.1697 41.9278 65.1137 41.8758C65.0577 41.8238 65.0297 41.7458 65.0297 41.6418V41.0538L66.0197 40.8918L66.3317 39.2118C66.3517 39.1318 66.3897 39.0698 66.4457 39.0258C66.5017 38.9818 66.5737 38.9598 66.6617 38.9598H67.4297V40.8978H69.0737V41.9538H67.4297V45.2898C67.4297 45.4818 67.4757 45.6318 67.5677 45.7398C67.6637 45.8478 67.7937 45.9018 67.9577 45.9018C68.0497 45.9018 68.1257 45.8918 68.1857 45.8718C68.2497 45.8478 68.3037 45.8238 68.3477 45.7998C68.3957 45.7758 68.4377 45.7538 68.4737 45.7338C68.5097 45.7098 68.5457 45.6978 68.5817 45.6978C68.6257 45.6978 68.6617 45.7098 68.6897 45.7338C68.7177 45.7538 68.7477 45.7858 68.7797 45.8298L69.2237 46.5498C69.0077 46.7298 68.7597 46.8658 68.4797 46.9578C68.1997 47.0498 67.9097 47.0958 67.6097 47.0958Z" fill="black"/>
</svg>
