<svg width="96" height="61" viewBox="0 0 96 61" fill="none" xmlns="http://www.w3.org/2000/svg">
<path d="M54.6768 11.5898H41.6768C40.4708 11.5898 38.6768 12.3888 38.6768 14.5898V28.5898C38.6768 30.7908 40.4708 31.5898 41.6768 31.5898H56.6768V29.5898H41.6888C41.2268 29.5778 40.6768 29.3958 40.6768 28.5898C40.6768 28.4888 40.6858 28.3988 40.7008 28.3168C40.8128 27.7408 41.2848 27.5998 41.6888 27.5898H56.6768V13.5898C56.6768 13.0594 56.466 12.5507 56.091 12.1756C55.7159 11.8006 55.2072 11.5898 54.6768 11.5898ZM54.6768 20.5898L52.6768 19.5898L50.6768 20.5898V13.5898H54.6768V20.5898Z" fill="black"/>
<path d="M29.8534 43.2758C30.1494 43.2758 30.4074 43.2398 30.6274 43.1678C30.8474 43.0918 31.0294 42.9858 31.1734 42.8498C31.3214 42.7098 31.4314 42.5418 31.5034 42.3458C31.5754 42.1458 31.6114 41.9238 31.6114 41.6798C31.6114 41.4478 31.5754 41.2378 31.5034 41.0498C31.4314 40.8618 31.3234 40.7018 31.1794 40.5698C31.0354 40.4378 30.8534 40.3378 30.6334 40.2698C30.4134 40.1978 30.1534 40.1618 29.8534 40.1618H28.6474V43.2758H29.8534ZM29.8534 38.9138C30.4334 38.9138 30.9354 38.9818 31.3594 39.1178C31.7834 39.2538 32.1334 39.4438 32.4094 39.6878C32.6854 39.9318 32.8894 40.2238 33.0214 40.5638C33.1574 40.9038 33.2254 41.2758 33.2254 41.6798C33.2254 42.0998 33.1554 42.4858 33.0154 42.8378C32.8754 43.1858 32.6654 43.4858 32.3854 43.7378C32.1054 43.9898 31.7534 44.1858 31.3294 44.3258C30.9094 44.4658 30.4174 44.5358 29.8534 44.5358H28.6474V47.5898H27.0334V38.9138H29.8534ZM39.8211 41.4338L36.4671 49.2818C36.4231 49.3858 36.3651 49.4638 36.2931 49.5158C36.2251 49.5718 36.1191 49.5998 35.9751 49.5998H34.8711L36.0231 47.1278L33.5331 41.4338H34.8351C34.9511 41.4338 35.0411 41.4618 35.1051 41.5178C35.1731 41.5738 35.2231 41.6378 35.2551 41.7098L36.5631 44.9018C36.6071 45.0098 36.6431 45.1178 36.6711 45.2258C36.7031 45.3338 36.7331 45.4438 36.7611 45.5558C36.7971 45.4438 36.8331 45.3338 36.8691 45.2258C36.9051 45.1138 36.9451 45.0038 36.9891 44.8958L38.2251 41.7098C38.2571 41.6298 38.3091 41.5638 38.3811 41.5118C38.4571 41.4598 38.5411 41.4338 38.6331 41.4338H39.8211ZM41.9552 42.5018C42.1472 42.1338 42.3752 41.8458 42.6392 41.6378C42.9032 41.4258 43.2152 41.3198 43.5752 41.3198C43.8592 41.3198 44.0872 41.3818 44.2592 41.5058L44.1632 42.6158C44.1432 42.6878 44.1132 42.7398 44.0732 42.7718C44.0372 42.7998 43.9872 42.8138 43.9232 42.8138C43.8632 42.8138 43.7732 42.8038 43.6532 42.7838C43.5372 42.7638 43.4232 42.7538 43.3112 42.7538C43.1472 42.7538 43.0012 42.7778 42.8732 42.8258C42.7452 42.8738 42.6292 42.9438 42.5252 43.0358C42.4252 43.1238 42.3352 43.2318 42.2552 43.3598C42.1792 43.4878 42.1072 43.6338 42.0392 43.7978V47.5898H40.5572V41.4338H41.4272C41.5792 41.4338 41.6852 41.4618 41.7452 41.5178C41.8052 41.5698 41.8452 41.6658 41.8652 41.8058L41.9552 42.5018ZM46.5698 41.4338V47.5898H45.0818V41.4338H46.5698ZM46.7738 39.6398C46.7738 39.7678 46.7478 39.8878 46.6958 39.9998C46.6438 40.1118 46.5738 40.2098 46.4858 40.2938C46.4018 40.3778 46.3018 40.4458 46.1858 40.4978C46.0698 40.5458 45.9458 40.5698 45.8138 40.5698C45.6858 40.5698 45.5638 40.5458 45.4478 40.4978C45.3358 40.4458 45.2378 40.3778 45.1538 40.2938C45.0698 40.2098 45.0018 40.1118 44.9498 39.9998C44.9018 39.8878 44.8778 39.7678 44.8778 39.6398C44.8778 39.5078 44.9018 39.3838 44.9498 39.2678C45.0018 39.1518 45.0698 39.0518 45.1538 38.9678C45.2378 38.8838 45.3358 38.8178 45.4478 38.7698C45.5638 38.7178 45.6858 38.6918 45.8138 38.6918C45.9458 38.6918 46.0698 38.7178 46.1858 38.7698C46.3018 38.8178 46.4018 38.8838 46.4858 38.9678C46.5738 39.0518 46.6438 39.1518 46.6958 39.2678C46.7478 39.3838 46.7738 39.5078 46.7738 39.6398ZM56.3146 46.2578V47.5898H51.2326V38.9138H52.8466V46.2578H56.3146ZM58.769 41.4338V47.5898H57.281V41.4338H58.769ZM58.973 39.6398C58.973 39.7678 58.947 39.8878 58.895 39.9998C58.843 40.1118 58.773 40.2098 58.685 40.2938C58.601 40.3778 58.501 40.4458 58.385 40.4978C58.269 40.5458 58.145 40.5698 58.013 40.5698C57.885 40.5698 57.763 40.5458 57.647 40.4978C57.535 40.4458 57.437 40.3778 57.353 40.2938C57.269 40.2098 57.201 40.1118 57.149 39.9998C57.101 39.8878 57.077 39.7678 57.077 39.6398C57.077 39.5078 57.101 39.3838 57.149 39.2678C57.201 39.1518 57.269 39.0518 57.353 38.9678C57.437 38.8838 57.535 38.8178 57.647 38.7698C57.763 38.7178 57.885 38.6918 58.013 38.6918C58.145 38.6918 58.269 38.7178 58.385 38.7698C58.501 38.8178 58.601 38.8838 58.685 38.9678C58.773 39.0518 58.843 39.1518 58.895 39.2678C58.947 39.3838 58.973 39.5078 58.973 39.6398ZM64.0359 42.6338C63.9959 42.6978 63.9539 42.7438 63.9099 42.7718C63.8659 42.7958 63.8099 42.8078 63.7419 42.8078C63.6699 42.8078 63.5919 42.7878 63.5079 42.7478C63.4279 42.7078 63.3339 42.6638 63.2259 42.6158C63.1179 42.5638 62.9939 42.5178 62.8539 42.4778C62.7179 42.4378 62.5559 42.4178 62.3679 42.4178C62.0759 42.4178 61.8459 42.4798 61.6779 42.6038C61.5139 42.7278 61.4319 42.8898 61.4319 43.0898C61.4319 43.2218 61.4739 43.3338 61.5579 43.4258C61.6459 43.5138 61.7599 43.5918 61.8999 43.6598C62.0439 43.7278 62.2059 43.7898 62.3859 43.8458C62.5659 43.8978 62.7479 43.9558 62.9319 44.0198C63.1199 44.0838 63.3039 44.1578 63.4839 44.2418C63.6639 44.3218 63.8239 44.4258 63.9639 44.5538C64.1079 44.6778 64.2219 44.8278 64.3059 45.0038C64.3939 45.1798 64.4379 45.3918 64.4379 45.6398C64.4379 45.9358 64.3839 46.2098 64.2759 46.4618C64.1719 46.7098 64.0159 46.9258 63.8079 47.1098C63.5999 47.2898 63.3419 47.4318 63.0339 47.5358C62.7299 47.6358 62.3779 47.6858 61.9779 47.6858C61.7659 47.6858 61.5579 47.6658 61.3539 47.6258C61.1539 47.5898 60.9599 47.5378 60.7719 47.4698C60.5879 47.4018 60.4159 47.3218 60.2559 47.2298C60.0999 47.1378 59.9619 47.0378 59.8419 46.9298L60.1839 46.3658C60.2279 46.2978 60.2799 46.2458 60.3399 46.2098C60.3999 46.1738 60.4759 46.1558 60.5679 46.1558C60.6599 46.1558 60.7459 46.1818 60.8259 46.2338C60.9099 46.2858 61.0059 46.3418 61.1139 46.4018C61.2219 46.4618 61.3479 46.5178 61.4919 46.5698C61.6399 46.6218 61.8259 46.6478 62.0499 46.6478C62.2259 46.6478 62.3759 46.6278 62.4999 46.5878C62.6279 46.5438 62.7319 46.4878 62.8119 46.4198C62.8959 46.3518 62.9559 46.2738 62.9919 46.1858C63.0319 46.0938 63.0519 45.9998 63.0519 45.9038C63.0519 45.7598 63.0079 45.6418 62.9199 45.5498C62.8359 45.4578 62.7219 45.3778 62.5779 45.3098C62.4379 45.2418 62.2759 45.1818 62.0919 45.1298C61.9119 45.0738 61.7259 45.0138 61.5339 44.9498C61.3459 44.8858 61.1599 44.8118 60.9759 44.7278C60.7959 44.6398 60.6339 44.5298 60.4899 44.3978C60.3499 44.2658 60.2359 44.1038 60.1479 43.9118C60.0639 43.7198 60.0219 43.4878 60.0219 43.2158C60.0219 42.9638 60.0719 42.7238 60.1719 42.4958C60.2719 42.2678 60.4179 42.0698 60.6099 41.9018C60.8059 41.7298 61.0479 41.5938 61.3359 41.4938C61.6279 41.3898 61.9639 41.3378 62.3439 41.3378C62.7679 41.3378 63.1539 41.4078 63.5019 41.5478C63.8499 41.6878 64.1399 41.8718 64.3719 42.0998L64.0359 42.6338ZM67.6053 47.6858C67.0693 47.6858 66.6573 47.5358 66.3693 47.2358C66.0853 46.9318 65.9433 46.5138 65.9433 45.9818V42.5438H65.3133C65.2333 42.5438 65.1653 42.5178 65.1093 42.4658C65.0533 42.4138 65.0253 42.3358 65.0253 42.2318V41.6438L66.0153 41.4818L66.3273 39.8018C66.3473 39.7218 66.3853 39.6598 66.4413 39.6158C66.4973 39.5718 66.5693 39.5498 66.6573 39.5498H67.4253V41.4878H69.0693V42.5438H67.4253V45.8798C67.4253 46.0718 67.4713 46.2218 67.5633 46.3298C67.6593 46.4378 67.7893 46.4918 67.9533 46.4918C68.0453 46.4918 68.1213 46.4818 68.1813 46.4618C68.2453 46.4378 68.2993 46.4138 68.3433 46.3898C68.3913 46.3658 68.4333 46.3438 68.4693 46.3238C68.5053 46.2998 68.5413 46.2878 68.5773 46.2878C68.6213 46.2878 68.6573 46.2998 68.6853 46.3238C68.7133 46.3438 68.7433 46.3758 68.7753 46.4198L69.2193 47.1398C69.0033 47.3198 68.7553 47.4558 68.4753 47.5478C68.1953 47.6398 67.9053 47.6858 67.6053 47.6858Z" fill="black"/>
</svg>
