<svg width="23" height="16" viewBox="0 0 23 16" fill="none" xmlns="http://www.w3.org/2000/svg">
<g clip-path="url(#clip0)">
<path fill-rule="evenodd" clip-rule="evenodd" d="M11.5518 0.589844C6.55176 0.589844 2.28176 3.69984 0.551758 8.08984C2.28176 12.4798 6.55176 15.5898 11.5518 15.5898C16.5518 15.5898 20.8218 12.4798 22.5518 8.08984C20.8218 3.69984 16.5518 0.589844 11.5518 0.589844ZM11.5518 13.0898C8.79176 13.0898 6.55176 10.8498 6.55176 8.08984C6.55176 5.32984 8.79176 3.08984 11.5518 3.08984C14.3118 3.08984 16.5518 5.32984 16.5518 8.08984C16.5518 10.8498 14.3118 13.0898 11.5518 13.0898ZM8.55176 8.08984C8.55176 6.42984 9.89176 5.08984 11.5518 5.08984C13.2118 5.08984 14.5518 6.42984 14.5518 8.08984C14.5518 9.74984 13.2118 11.0898 11.5518 11.0898C9.89176 11.0898 8.55176 9.74984 8.55176 8.08984Z" fill="#D4D4D8"/>
</g>
<defs>
<clipPath id="clip0">
<rect width="22" height="15" fill="white" transform="translate(0.551758 0.589844)"/>
</clipPath>
</defs>
</svg>
