<svg width="21" height="20" viewBox="0 0 21 20" fill="none" xmlns="http://www.w3.org/2000/svg">
<path d="M3.1499 12V15C3.1499 16.6569 6.44061 18 10.4999 18C14.5592 18 17.8499 16.6569 17.8499 15V12C17.8499 13.6569 14.5592 15 10.4999 15C6.44061 15 3.1499 13.6569 3.1499 12Z" fill="#FAFAFA"/>
<path d="M3.1499 7V10C3.1499 11.6569 6.44061 13 10.4999 13C14.5592 13 17.8499 11.6569 17.8499 10V7C17.8499 8.65685 14.5592 10 10.4999 10C6.44061 10 3.1499 8.65685 3.1499 7Z" fill="#FAFAFA"/>
<path d="M17.8499 5C17.8499 6.65685 14.5592 8 10.4999 8C6.44061 8 3.1499 6.65685 3.1499 5C3.1499 3.34315 6.44061 2 10.4999 2C14.5592 2 17.8499 3.34315 17.8499 5Z" fill="#FAFAFA"/>
</svg>
