<svg width="21" height="21" viewBox="0 0 21 21" fill="none" xmlns="http://www.w3.org/2000/svg">
<g clip-path="url(#clip0)">
<rect width="20" height="20" transform="translate(0.5 0.5)" fill="white"/>
<rect width="20" height="20" transform="translate(0.5 0.5)" fill="#F4F4F5"/>
<path d="M17.914 3.086C17.5389 2.71106 17.0303 2.50043 16.5 2.50043C15.9697 2.50043 15.4611 2.71106 15.086 3.086L7.5 10.672V13.5H10.328L17.914 5.914C18.2889 5.53894 18.4996 5.03033 18.4996 4.5C18.4996 3.96967 18.2889 3.46106 17.914 3.086Z" fill="#18181B"/>
<path fill-rule="evenodd" clip-rule="evenodd" d="M2.5 6.5C2.5 5.96957 2.71071 5.46086 3.08579 5.08579C3.46086 4.71071 3.96957 4.5 4.5 4.5H8.5C8.76522 4.5 9.01957 4.60536 9.20711 4.79289C9.39464 4.98043 9.5 5.23478 9.5 5.5C9.5 5.76522 9.39464 6.01957 9.20711 6.20711C9.01957 6.39464 8.76522 6.5 8.5 6.5H4.5V16.5H14.5V12.5C14.5 12.2348 14.6054 11.9804 14.7929 11.7929C14.9804 11.6054 15.2348 11.5 15.5 11.5C15.7652 11.5 16.0196 11.6054 16.2071 11.7929C16.3946 11.9804 16.5 12.2348 16.5 12.5V16.5C16.5 17.0304 16.2893 17.5391 15.9142 17.9142C15.5391 18.2893 15.0304 18.5 14.5 18.5H4.5C3.96957 18.5 3.46086 18.2893 3.08579 17.9142C2.71071 17.5391 2.5 17.0304 2.5 16.5V6.5Z" fill="#18181B"/>
</g>
<defs>
<clipPath id="clip0">
<rect width="20" height="20" fill="white" transform="translate(0.5 0.5)"/>
</clipPath>
</defs>
</svg>
