<svg width="14" height="10" viewBox="0 0 14 10" fill="none" xmlns="http://www.w3.org/2000/svg">
<path fill-rule="evenodd" clip-rule="evenodd" d="M7 0.610001C4.04545 0.610001 1.52227 2.476 0.5 5.11C1.52227 7.744 4.04545 9.61 7 9.61C9.95455 9.61 12.4777 7.744 13.5 5.11C12.4777 2.476 9.95455 0.610001 7 0.610001ZM6.99947 8.10999C5.36856 8.10999 4.04492 6.76599 4.04492 5.10999C4.04492 3.45399 5.36856 2.10999 6.99947 2.10999C8.63038 2.10999 9.95401 3.45399 9.95401 5.10999C9.95401 6.76599 8.63038 8.10999 6.99947 8.10999ZM5.22754 5.11C5.22754 4.114 6.01936 3.31 7.00027 3.31C7.98118 3.31 8.77299 4.114 8.77299 5.11C8.77299 6.106 7.98118 6.91 7.00027 6.91C6.01936 6.91 5.22754 6.106 5.22754 5.11Z" fill="#A1A1AA"/>
</svg>
