<svg width="23" height="16" viewBox="0 0 23 16" fill="none" xmlns="http://www.w3.org/2000/svg">
<g clip-path="url(#clip0)">
<path fill-rule="evenodd" clip-rule="evenodd" d="M11.5518 0.0898438C6.55176 0.0898438 2.28176 3.19984 0.551758 7.58984C2.28176 11.9798 6.55176 15.0898 11.5518 15.0898C16.5518 15.0898 20.8218 11.9798 22.5518 7.58984C20.8218 3.19984 16.5518 0.0898438 11.5518 0.0898438ZM11.5518 12.5898C8.79176 12.5898 6.55176 10.3498 6.55176 7.58984C6.55176 4.82984 8.79176 2.58984 11.5518 2.58984C14.3118 2.58984 16.5518 4.82984 16.5518 7.58984C16.5518 10.3498 14.3118 12.5898 11.5518 12.5898ZM8.55176 7.58984C8.55176 5.92984 9.89176 4.58984 11.5518 4.58984C13.2118 4.58984 14.5518 5.92984 14.5518 7.58984C14.5518 9.24984 13.2118 10.5898 11.5518 10.5898C9.89176 10.5898 8.55176 9.24984 8.55176 7.58984Z" fill="#D4D4D8"/>
</g>
<defs>
<clipPath id="clip0">
<rect width="22" height="15" fill="white" transform="translate(0.551758 0.0898438)"/>
</clipPath>
</defs>
</svg>
