<svg width="24" height="42" viewBox="0 0 24 42" fill="none" xmlns="http://www.w3.org/2000/svg">
<path d="M15 16C15.5304 16 16.0391 16.2107 16.4142 16.5857C16.7893 16.9608 17 17.4695 17 18L15 16ZM21 18C21.0003 18.9371 20.781 19.8613 20.3598 20.6985C19.9386 21.5357 19.3271 22.2625 18.5744 22.8208C17.8216 23.3791 16.9486 23.7533 16.0252 23.9135C15.1018 24.0736 14.1538 24.0152 13.257 23.743L11 26H9V28H7V30H4C3.73478 30 3.48043 29.8946 3.29289 29.7071C3.10536 29.5195 3 29.2652 3 29V26.414C3.00006 26.1488 3.10545 25.8944 3.293 25.707L9.257 19.743C9.00745 18.918 8.93857 18.0489 9.05504 17.1949C9.17152 16.3409 9.47062 15.522 9.93199 14.794C10.3934 14.066 11.0062 13.4459 11.7287 12.976C12.4512 12.506 13.2665 12.1973 14.1191 12.0708C14.9716 11.9442 15.8415 12.0028 16.6693 12.2426C17.4972 12.4824 18.2637 12.8978 18.9166 13.4604C19.5696 14.023 20.0936 14.7197 20.4531 15.5031C20.8127 16.2864 20.9992 17.138 21 18V18Z" stroke="white" stroke-width="2" stroke-linecap="round" stroke-linejoin="round"/>
</svg>
