<svg width="24" height="42" viewBox="0 0 24 42" fill="none" xmlns="http://www.w3.org/2000/svg">
<path d="M16 16C16 17.0609 15.5786 18.0783 14.8284 18.8284C14.0783 19.5786 13.0609 20 12 20C10.9391 20 9.92172 19.5786 9.17157 18.8284C8.42143 18.0783 8 17.0609 8 16C8 14.9391 8.42143 13.9217 9.17157 13.1716C9.92172 12.4214 10.9391 12 12 12C13.0609 12 14.0783 12.4214 14.8284 13.1716C15.5786 13.9217 16 14.9391 16 16V16ZM12 23C10.1435 23 8.36301 23.7375 7.05025 25.0503C5.7375 26.363 5 28.1435 5 30H19C19 28.1435 18.2625 26.363 16.9497 25.0503C15.637 23.7375 13.8565 23 12 23V23Z" stroke="white" stroke-width="2" stroke-linecap="round" stroke-linejoin="round"/>
</svg>
