<svg width="95" height="60" viewBox="0 0 95 60" fill="none" xmlns="http://www.w3.org/2000/svg">
<path d="M43.125 15.5C43.125 17.981 45.144 20 47.625 20C50.106 20 52.125 17.981 52.125 15.5C52.125 13.019 50.106 11 47.625 11C45.144 11 43.125 13.019 43.125 15.5ZM55.625 30H56.625V29C56.625 25.141 53.484 22 49.625 22H45.625C41.765 22 38.625 25.141 38.625 29V30H55.625Z" fill="#FF8F00"/>
<path d="M32.1221 43.946V47H30.5081V38.324H33.3341C33.9141 38.324 34.4161 38.392 34.8401 38.528C35.2641 38.664 35.6141 38.854 35.8901 39.098C36.1661 39.342 36.3701 39.634 36.5021 39.974C36.6341 40.314 36.7001 40.686 36.7001 41.09C36.7001 41.51 36.6301 41.896 36.4901 42.248C36.3501 42.596 36.1401 42.896 35.8601 43.148C35.5801 43.4 35.2301 43.596 34.8101 43.736C34.3901 43.876 33.8981 43.946 33.3341 43.946H32.1221ZM32.1221 42.686H33.3341C33.6301 42.686 33.8881 42.65 34.1081 42.578C34.3281 42.502 34.5101 42.396 34.6541 42.26C34.7981 42.12 34.9061 41.952 34.9781 41.756C35.0501 41.556 35.0861 41.334 35.0861 41.09C35.0861 40.858 35.0501 40.648 34.9781 40.46C34.9061 40.272 34.7981 40.112 34.6541 39.98C34.5101 39.848 34.3281 39.748 34.1081 39.68C33.8881 39.608 33.6301 39.572 33.3341 39.572H32.1221V42.686ZM37.8701 47V40.844H38.7401C38.8921 40.844 38.9981 40.872 39.0581 40.928C39.1181 40.984 39.1581 41.08 39.1781 41.216L39.2681 41.96C39.4881 41.58 39.7461 41.28 40.0421 41.06C40.3381 40.84 40.6701 40.73 41.0381 40.73C41.3421 40.73 41.5941 40.8 41.7941 40.94L41.6021 42.05C41.5901 42.122 41.5641 42.174 41.5241 42.206C41.4841 42.234 41.4301 42.248 41.3621 42.248C41.3021 42.248 41.2201 42.234 41.1161 42.206C41.0121 42.178 40.8741 42.164 40.7021 42.164C40.3941 42.164 40.1301 42.25 39.9101 42.422C39.6901 42.59 39.5041 42.838 39.3521 43.166V47H37.8701ZM45.3966 40.748C45.8566 40.748 46.2726 40.822 46.6446 40.97C47.0206 41.118 47.3406 41.328 47.6046 41.6C47.8686 41.872 48.0726 42.204 48.2166 42.596C48.3606 42.988 48.4326 43.426 48.4326 43.91C48.4326 44.398 48.3606 44.838 48.2166 45.23C48.0726 45.622 47.8686 45.956 47.6046 46.232C47.3406 46.508 47.0206 46.72 46.6446 46.868C46.2726 47.016 45.8566 47.09 45.3966 47.09C44.9366 47.09 44.5186 47.016 44.1426 46.868C43.7666 46.72 43.4446 46.508 43.1766 46.232C42.9126 45.956 42.7066 45.622 42.5586 45.23C42.4146 44.838 42.3426 44.398 42.3426 43.91C42.3426 43.426 42.4146 42.988 42.5586 42.596C42.7066 42.204 42.9126 41.872 43.1766 41.6C43.4446 41.328 43.7666 41.118 44.1426 40.97C44.5186 40.822 44.9366 40.748 45.3966 40.748ZM45.3966 45.95C45.9086 45.95 46.2866 45.778 46.5306 45.434C46.7786 45.09 46.9026 44.586 46.9026 43.922C46.9026 43.258 46.7786 42.752 46.5306 42.404C46.2866 42.056 45.9086 41.882 45.3966 41.882C44.8766 41.882 44.4926 42.058 44.2446 42.41C43.9966 42.758 43.8726 43.262 43.8726 43.922C43.8726 44.582 43.9966 45.086 44.2446 45.434C44.4926 45.778 44.8766 45.95 45.3966 45.95ZM49.8529 47V41.96L49.3189 41.876C49.2029 41.856 49.1089 41.816 49.0369 41.756C48.9689 41.696 48.9349 41.612 48.9349 41.504V40.898H49.8529V40.7C49.8529 40.324 49.9149 39.976 50.0389 39.656C50.1629 39.332 50.3509 39.052 50.6029 38.816C50.8549 38.58 51.1729 38.396 51.5569 38.264C51.9409 38.128 52.3949 38.06 52.9189 38.06C53.0869 38.06 53.2589 38.07 53.4349 38.09C53.6109 38.106 53.7629 38.134 53.8909 38.174L53.8429 38.942C53.8349 39.034 53.7849 39.09 53.6929 39.11C53.6009 39.126 53.4869 39.134 53.3509 39.134C52.9629 39.134 52.6369 39.168 52.3729 39.236C52.1129 39.304 51.9009 39.406 51.7369 39.542C51.5769 39.674 51.4609 39.842 51.3889 40.046C51.3209 40.246 51.2869 40.48 51.2869 40.748V40.898H55.1029V47H53.6209V41.954H51.3349V47H49.8529ZM58.3739 38.084V47H56.8919V38.084H58.3739ZM62.5977 40.748C62.9857 40.748 63.3417 40.81 63.6657 40.934C63.9937 41.058 64.2757 41.24 64.5117 41.48C64.7477 41.716 64.9317 42.008 65.0637 42.356C65.1957 42.7 65.2617 43.094 65.2617 43.538C65.2617 43.65 65.2557 43.744 65.2437 43.82C65.2357 43.892 65.2177 43.95 65.1897 43.994C65.1657 44.034 65.1317 44.064 65.0877 44.084C65.0437 44.1 64.9877 44.108 64.9197 44.108H61.1157C61.1597 44.74 61.3297 45.204 61.6257 45.5C61.9217 45.796 62.3137 45.944 62.8017 45.944C63.0417 45.944 63.2477 45.916 63.4197 45.86C63.5957 45.804 63.7477 45.742 63.8757 45.674C64.0077 45.606 64.1217 45.544 64.2177 45.488C64.3177 45.432 64.4137 45.404 64.5057 45.404C64.5657 45.404 64.6177 45.416 64.6617 45.44C64.7057 45.464 64.7437 45.498 64.7757 45.542L65.2077 46.082C65.0437 46.274 64.8597 46.436 64.6557 46.568C64.4517 46.696 64.2377 46.8 64.0137 46.88C63.7937 46.956 63.5677 47.01 63.3357 47.042C63.1077 47.074 62.8857 47.09 62.6697 47.09C62.2417 47.09 61.8437 47.02 61.4757 46.88C61.1077 46.736 60.7877 46.526 60.5157 46.25C60.2437 45.97 60.0297 45.626 59.8737 45.218C59.7177 44.806 59.6397 44.33 59.6397 43.79C59.6397 43.37 59.7077 42.976 59.8437 42.608C59.9797 42.236 60.1737 41.914 60.4257 41.642C60.6817 41.366 60.9917 41.148 61.3557 40.988C61.7237 40.828 62.1377 40.748 62.5977 40.748ZM62.6277 41.81C62.1957 41.81 61.8577 41.932 61.6137 42.176C61.3697 42.42 61.2137 42.766 61.1457 43.214H63.9297C63.9297 43.022 63.9037 42.842 63.8517 42.674C63.7997 42.502 63.7197 42.352 63.6117 42.224C63.5037 42.096 63.3677 41.996 63.2037 41.924C63.0397 41.848 62.8477 41.81 62.6277 41.81Z" fill="#FF8F00"/>
</svg>
