<svg width="21" height="20" viewBox="0 0 21 20" fill="none" xmlns="http://www.w3.org/2000/svg">
<path d="M10.989 0.209717C10.8135 0.0731628 10.5974 -0.000976563 10.375 -0.000976562C10.1526 -0.000976563 9.93654 0.0731628 9.761 0.209717L1.533 6.60972C1.17216 6.89041 0.880244 7.24987 0.679548 7.66062C0.478851 8.07137 0.374684 8.52256 0.375001 8.97972V17.9997C0.375001 18.5302 0.585714 19.0389 0.960787 19.4139C1.33586 19.789 1.84457 19.9997 2.375 19.9997H6.375C6.90543 19.9997 7.41414 19.789 7.78921 19.4139C8.16429 19.0389 8.375 18.5302 8.375 17.9997V11.9997H12.375V17.9997C12.375 18.5302 12.5857 19.0389 12.9608 19.4139C13.3359 19.789 13.8446 19.9997 14.375 19.9997H18.375C18.9054 19.9997 19.4141 19.789 19.7892 19.4139C20.1643 19.0389 20.375 18.5302 20.375 17.9997V8.97972C20.3751 8.52239 20.2706 8.0711 20.0696 7.66034C19.8685 7.24957 19.5762 6.89021 19.215 6.60972L10.989 0.209717V0.209717Z" fill="black"/>
</svg>
