<svg width="19" height="18" viewBox="0 0 19 18" fill="none" xmlns="http://www.w3.org/2000/svg">
<path d="M1.875 8H7.875C8.14022 8 8.39457 7.89464 8.58211 7.70711C8.76964 7.51957 8.875 7.26522 8.875 7V1C8.875 0.734784 8.76964 0.48043 8.58211 0.292893C8.39457 0.105357 8.14022 0 7.875 0H1.875C1.60978 0 1.35543 0.105357 1.16789 0.292893C0.980357 0.48043 0.875 0.734784 0.875 1V7C0.875 7.26522 0.980357 7.51957 1.16789 7.70711C1.35543 7.89464 1.60978 8 1.875 8ZM11.875 8H17.875C18.1402 8 18.3946 7.89464 18.5821 7.70711C18.7696 7.51957 18.875 7.26522 18.875 7V1C18.875 0.734784 18.7696 0.48043 18.5821 0.292893C18.3946 0.105357 18.1402 0 17.875 0H11.875C11.6098 0 11.3554 0.105357 11.1679 0.292893C10.9804 0.48043 10.875 0.734784 10.875 1V7C10.875 7.26522 10.9804 7.51957 11.1679 7.70711C11.3554 7.89464 11.6098 8 11.875 8ZM1.875 18H7.875C8.14022 18 8.39457 17.8946 8.58211 17.7071C8.76964 17.5196 8.875 17.2652 8.875 17V11C8.875 10.7348 8.76964 10.4804 8.58211 10.2929C8.39457 10.1054 8.14022 10 7.875 10H1.875C1.60978 10 1.35543 10.1054 1.16789 10.2929C0.980357 10.4804 0.875 10.7348 0.875 11V17C0.875 17.2652 0.980357 17.5196 1.16789 17.7071C1.35543 17.8946 1.60978 18 1.875 18ZM14.875 18C17.081 18 18.875 16.206 18.875 14C18.875 11.794 17.081 10 14.875 10C12.669 10 10.875 11.794 10.875 14C10.875 16.206 12.669 18 14.875 18Z" fill="black"/>
</svg>
