<svg width="109" height="100" viewBox="0 0 109 100" fill="none" xmlns="http://www.w3.org/2000/svg">
<g clip-path="url(#clip0)">
<path d="M99.0839 80.1157L90.2998 67.068C90.2998 67.068 103.603 71.7121 102.093 80.1157H99.0839Z" fill="#E5E5E5"/>
<path d="M8.02976 80.2024L7.69629 80.1959C7.82526 76.4882 8.22086 72.7945 8.88003 69.1436C10.322 61.327 12.7198 56.1934 16.0068 53.8855L16.1982 54.1584C8.51986 59.5496 8.03366 79.9964 8.02976 80.2024Z" fill="#E5E5E5"/>
<path d="M12.1987 80.1227L11.8652 80.1162C11.8724 79.7469 12.0808 71.0435 15.5072 68.6379L15.6986 68.9108C12.4105 71.2194 12.2003 80.0339 12.1987 80.1227Z" fill="#E5E5E5"/>
<path d="M18.0961 54.1886C19.0169 54.1886 19.7634 53.4421 19.7634 52.5212C19.7634 51.6004 19.0169 50.8539 18.0961 50.8539C17.1752 50.8539 16.4287 51.6004 16.4287 52.5212C16.4287 53.4421 17.1752 54.1886 18.0961 54.1886Z" fill="#6C63FF"/>
<path d="M17.2699 68.5277C18.1907 68.5277 18.9372 67.7812 18.9372 66.8603C18.9372 65.9395 18.1907 65.193 17.2699 65.193C16.349 65.193 15.6025 65.9395 15.6025 66.8603C15.6025 67.7812 16.349 68.5277 17.2699 68.5277Z" fill="#6C63FF"/>
<path d="M11.4211 55.1882C11.7344 57.1897 10.9177 58.9798 10.9177 58.9798C10.9177 58.9798 9.59296 57.5249 9.2796 55.5234C8.96625 53.522 9.78295 51.7318 9.78295 51.7318C9.78295 51.7318 11.1077 53.1867 11.4211 55.1882Z" fill="#E5E5E5"/>
<path d="M16.8711 60.0493C14.9549 60.7066 13.0498 60.2143 13.0498 60.2143C13.0498 60.2143 14.2516 58.6563 16.1679 57.999C18.0841 57.3417 19.9892 57.834 19.9892 57.834C19.9892 57.834 18.7874 59.392 16.8711 60.0493Z" fill="#E5E5E5"/>
<path d="M16.9333 72.7479C16.066 73.0204 15.1424 73.0602 14.2549 72.8636C14.8184 72.1461 15.5774 71.6069 16.4404 71.3109C17.3034 71.0149 18.2336 70.9747 19.1188 71.1952C18.5389 71.8952 17.7852 72.4307 16.9333 72.7479V72.7479Z" fill="#E5E5E5"/>
<path d="M108.543 80.4493H0.666734C0.622513 80.4493 0.580106 80.4318 0.548838 80.4005C0.517569 80.3692 0.5 80.3268 0.5 80.2826C0.5 80.2384 0.517569 80.1959 0.548838 80.1647C0.580106 80.1334 0.622513 80.1158 0.666734 80.1158H108.543C108.588 80.1158 108.63 80.1334 108.661 80.1647C108.693 80.1959 108.71 80.2384 108.71 80.2826C108.71 80.3268 108.693 80.3692 108.661 80.4005C108.63 80.4318 108.588 80.4493 108.543 80.4493Z" fill="#CBCBCB"/>
<path d="M68.8263 88.136L67.4622 91.6862L53.1191 88.1143L55.1323 82.8744L68.8263 88.136Z" fill="#FFB7B7"/>
<path d="M72.6152 88.5527L68.2169 100L68.0721 99.9447C66.8904 99.4907 65.9375 98.5858 65.4229 97.4292C64.9083 96.2726 64.8742 94.9589 65.3282 93.7771L65.3283 93.7769L68.0146 86.785L72.6152 88.5527Z" fill="#2F2E41"/>
<path d="M47.0313 43.6826L40.7808 44.2678L40.4707 62.8657C40.5536 63.7772 40.99 64.6199 41.6867 65.2135C42.3833 65.8071 43.2847 66.1042 44.1977 66.0413L48.1607 65.7683L47.0313 43.6826Z" fill="#E5E5E5"/>
<path d="M69.0673 42.7674L64.7905 42.7124L64.5371 64.8106C65.4822 64.8421 66.4236 64.6785 67.3027 64.3301C68.1818 63.9817 68.9797 63.4559 69.6465 62.7854C70.3134 62.115 70.8349 61.3144 71.1787 60.4334C71.5224 59.5525 71.681 58.6102 71.6444 57.6653L69.0673 42.7674Z" fill="#E5E5E5"/>
<path d="M44.2505 72.6612C44.1492 73.3022 44.0022 73.9351 43.8106 74.5551C43.5947 75.1619 43.2616 75.7232 43.0642 76.3363C42.4352 78.2906 43.3072 80.4697 44.6999 81.9782C45.9076 83.2811 47.4665 84.2068 49.1885 84.6435C50.4449 84.9595 51.7512 85.005 53.046 85.0489C56.6312 85.1705 60.3087 85.2793 63.7059 84.1271C64.7792 83.7541 65.8159 83.2831 66.8029 82.7201C67.1145 82.5716 67.3891 82.3555 67.6065 82.0874C67.8656 81.7185 67.8988 81.2401 67.8965 80.7893C67.8889 79.2694 67.5807 77.7573 67.6539 76.2392C67.6944 75.3983 67.8518 74.558 67.7743 73.7197C67.6671 72.7677 67.2683 71.872 66.6324 71.1553C65.9966 70.4386 65.1548 69.936 64.2222 69.7161C63.2585 69.5092 62.259 69.6219 61.2778 69.7163C58.731 69.961 56.1733 70.0754 53.6148 70.0589C51.0007 70.0422 48.4027 69.6432 45.8015 69.6015C45.0323 69.5892 45.0479 69.8263 44.803 70.5708C44.5774 71.256 44.3929 71.954 44.2505 72.6612V72.6612Z" fill="#2F2E41"/>
<path d="M34.0291 71.4259C33.3262 71.2493 32.6019 71.1723 31.8775 71.1972C31.1164 71.2393 30.373 71.4429 29.6966 71.7945C29.0203 72.1462 28.4266 72.6378 27.955 73.2366C27.4834 73.8354 27.1446 74.5278 26.9613 75.2677C26.778 76.0076 26.7543 76.7781 26.8918 77.5278C27.0673 78.34 27.3542 79.124 27.7444 79.8576C28.315 81.0156 28.9994 82.171 30.0558 82.9131C30.6737 83.3472 31.3889 83.6178 32.0956 83.8841L37.6593 85.98C38.4778 86.2883 39.2964 86.5967 40.123 86.8826C44.2756 88.318 48.6051 89.1787 52.991 89.4408C54.3269 89.5204 55.6831 89.5425 56.9864 89.2384C57.2957 89.1662 57.6256 89.0586 57.8046 88.7963C57.9107 88.6115 57.9732 88.405 57.9875 88.1924L58.3298 85.7957C58.378 85.4582 58.4244 85.103 58.3007 84.7854C58.1439 84.3826 57.7508 84.1292 57.3759 83.9139C53.7182 81.8131 49.4474 80.6541 46.3686 77.7707C45.6438 77.092 45.0373 76.016 44.1567 75.5549C43.1581 75.0321 41.982 74.7336 40.9498 74.2518C38.6933 73.1985 36.4747 71.9881 34.0291 71.4259Z" fill="#2F2E41"/>
<path opacity="0.1" d="M39.5831 74.6573C41.5497 75.2735 49.8524 79.5427 51.2755 81.0332C51.0847 81.1019 44.6126 77.4749 44.4184 77.4166C42.6531 76.8868 40.878 76.3535 39.2016 75.5781C38.8643 75.4222 37.0106 74.689 37.0946 74.2635C37.1893 73.7834 39.234 74.5479 39.5831 74.6573Z" fill="black"/>
<path d="M51.4516 37.4317L46.1568 41.452C46.1568 41.452 40.5698 41.6268 40.7586 45.1982C40.9474 48.7697 43.1834 65.6794 43.1834 65.6794L43.6686 71.4976L52.8711 74.1197C57.8433 75.5365 63.0966 75.6491 68.1249 74.4467V74.4467L67.0313 68.6097C67.0313 68.6097 71.4596 42.1003 68.7919 40.9332C66.1241 39.7661 64.4568 40.0995 64.4568 40.0995L61.1129 37.1816L51.4516 37.4317Z" fill="#E5E5E5"/>
<path d="M67.1246 30.9383C67.1246 36.1572 62.2988 35.3679 56.346 35.3679C50.3931 35.3679 45.5674 36.1572 45.5674 30.9383C45.5674 25.7193 47.9246 16.4684 56.346 16.4684C65.0575 16.4684 67.1246 25.7193 67.1246 30.9383Z" fill="#2F2E41"/>
<path d="M61.9494 32.7072C64.7818 29.8748 64.7818 25.2824 61.9494 22.45C59.1169 19.6175 54.5246 19.6175 51.6921 22.45C48.8596 25.2824 48.8596 29.8748 51.6921 32.7072C54.5246 35.5397 59.1169 35.5397 61.9494 32.7072Z" fill="#FFB7B7"/>
<path d="M47.9297 27.3943H50.7984L52.0639 23.8507L52.317 27.3943H53.6881L54.4264 25.3272L54.574 27.3943H64.7621C64.7621 25.358 63.9531 23.4051 62.5132 21.9652C61.0734 20.5254 59.1204 19.7164 57.0841 19.7164H55.6076C53.5713 19.7164 51.6184 20.5254 50.1785 21.9652C48.7386 23.4051 47.9297 25.358 47.9297 27.3943V27.3943Z" fill="#2F2E41"/>
<path d="M63.623 38.2656H49.1172V55.7727H63.623V38.2656Z" fill="#6C63FF"/>
<path d="M49.917 87.9691L51.2812 91.5194L65.6243 87.9475L63.611 82.7075L49.917 87.9691Z" fill="#FFB7B7"/>
<path d="M50.7276 86.6182L53.4139 93.61L53.414 93.6103C53.8679 94.792 53.8339 96.1057 53.3193 97.2623C52.8047 98.4189 51.8518 99.3238 50.6701 99.7778L50.5253 99.8335L46.127 88.3858L50.7276 86.6182Z" fill="#2F2E41"/>
<path d="M78.5869 70.0668C79.7392 69.7779 80.9336 69.6963 82.1145 69.8258C83.0575 69.9297 84.0292 70.1921 84.7177 70.8449C85.5558 71.6393 85.825 72.868 85.8475 74.0226C85.8843 76.3222 85.1216 78.5632 83.6897 80.363C83.34 80.8182 82.9241 81.2185 82.456 81.5506C81.9509 81.8665 81.4127 82.1259 80.8509 82.3241L68.3912 87.2385C65.1134 88.5314 61.824 89.828 58.405 90.6804C58.2191 90.7701 58.0052 90.7823 57.8103 90.7144C57.6154 90.6464 57.4555 90.5037 57.3657 90.3178C57.363 90.3122 57.3603 90.3064 57.3577 90.3007C56.266 88.7414 55.3502 87.066 54.6269 85.3053C54.5927 85.2635 54.569 85.214 54.5579 85.1611C54.5468 85.1082 54.5487 85.0533 54.5633 85.0013C54.5779 84.9492 54.6048 84.9014 54.6418 84.862C54.6787 84.8225 54.7247 84.7925 54.7757 84.7746L63.5885 79.711C64.2197 79.3483 64.8581 78.9804 65.3822 78.4751C65.7631 78.106 66.0749 77.6718 66.3031 77.193C66.4858 76.8115 66.5028 75.9111 66.7362 75.6291C66.9646 75.3529 67.7461 75.3309 68.1071 75.2223C68.6161 75.0664 69.1146 74.8779 69.5995 74.6581C71.5709 73.7762 73.3264 72.4948 75.2162 71.4622C76.2761 70.8562 77.4087 70.3873 78.5869 70.0668V70.0668Z" fill="#2F2E41"/>
<path opacity="0.1" d="M73.5908 73.8483C72.0767 74.9855 70.1163 76.0308 68.6157 77.198C68.1035 77.5963 59.566 82.3962 59.4453 83.0336C60.8453 83.2695 69.7633 77.0307 71.0392 76.4082C72.3152 75.7856 73.4462 74.9077 74.567 74.0363C74.8527 73.8142 76.0632 73.1467 75.2432 72.8985C74.7813 72.7588 73.9318 73.621 73.5908 73.8483Z" fill="black"/>
<path d="M100.805 29.9646C103.682 29.9646 106.015 27.632 106.015 24.7545C106.015 21.8771 103.682 19.5444 100.805 19.5444C97.9274 19.5444 95.5947 21.8771 95.5947 24.7545C95.5947 27.632 97.9274 29.9646 100.805 29.9646Z" fill="#F1F1F1"/>
<path d="M91.1626 30.8974C93.1811 30.8974 94.8175 29.2611 94.8175 27.2426C94.8175 25.2241 93.1811 23.5878 91.1626 23.5878C89.1441 23.5878 87.5078 25.2241 87.5078 27.2426C87.5078 29.2611 89.1441 30.8974 91.1626 30.8974Z" fill="#F1F1F1"/>
<path d="M24.2118 28.5139C25.8302 28.5139 27.1423 27.2018 27.1423 25.5833C27.1423 23.9649 25.8302 22.6528 24.2118 22.6528C22.5933 22.6528 21.2812 23.9649 21.2812 25.5833C21.2812 27.2018 22.5933 28.5139 24.2118 28.5139Z" fill="#F1F1F1"/>
<path d="M29.0362 30.484C30.1716 30.484 31.0919 29.5636 31.0919 28.4283C31.0919 27.2929 30.1716 26.3726 29.0362 26.3726C27.9009 26.3726 26.9805 27.2929 26.9805 28.4283C26.9805 29.5636 27.9009 30.484 29.0362 30.484Z" fill="#F1F1F1"/>
<path d="M57.4647 4.48022C58.7019 4.48022 59.7048 3.47729 59.7048 2.24011C59.7048 1.00293 58.7019 0 57.4647 0C56.2275 0 55.2246 1.00293 55.2246 2.24011C55.2246 3.47729 56.2275 4.48022 57.4647 4.48022Z" fill="#F1F1F1"/>
<path opacity="0.17" d="M44.1152 49.4367L44.3155 47.891C44.3155 47.891 51.785 48.4363 50.6178 50.2703C49.4507 52.1044 46.6162 52.2711 46.6162 52.2711L44.1152 49.4367Z" fill="#2F2E41"/>
<path d="M49.7531 42.7165C50.181 42.7636 50.5931 42.9049 50.9599 43.1301C51.3267 43.3554 51.6392 43.659 51.8747 44.0193V44.0193C52.0894 44.348 52.2354 44.7168 52.304 45.1033C52.3725 45.4899 52.3623 45.8864 52.2738 46.2689C52.1853 46.6514 52.0204 47.0121 51.789 47.3293C51.5576 47.6465 51.2644 47.9137 50.9272 48.1147C50.8036 48.1878 50.6745 48.2512 50.5411 48.3045L45.9499 62.3481C45.8169 62.6252 45.6304 62.8733 45.4012 63.078C45.1719 63.2828 44.9045 63.4403 44.6142 63.5414C44.3239 63.6425 44.0165 63.6852 43.7097 63.667C43.4028 63.6489 43.1026 63.5703 42.8262 63.4358C42.5498 63.3012 42.3028 63.1134 42.0992 62.883C41.8957 62.6527 41.7397 62.3844 41.6402 62.0936C41.5407 61.8027 41.4997 61.4951 41.5195 61.1883C41.5393 60.8816 41.6195 60.5818 41.7556 60.3062L46.6382 46.4185C46.5052 45.959 46.4875 45.4738 46.5867 45.0058C46.6859 44.5379 46.8989 44.1016 47.2069 43.7356C47.5149 43.3695 47.9083 43.0851 48.3524 42.9073C48.7965 42.7296 49.2776 42.6641 49.7531 42.7165Z" fill="#FFB7B7"/>
<path d="M44.1842 48.0229C44.1842 48.0229 46.8149 52.5176 50.6183 50.2706L46.9323 64.376H43.8268L40.6143 63.776L41.5138 57.9482L44.1842 48.0229Z" fill="#E5E5E5"/>
<path d="M62.9684 51.0952L60.7891 48.1031C60.7891 48.1031 61.8365 44.9997 65.8979 46.1346C65.8979 46.1346 68.4824 51.9196 62.9684 51.0952Z" fill="#E5E5E5"/>
<path opacity="0.17" d="M62.9684 51.0952L60.7891 48.1031C60.7891 48.1031 61.8365 44.9997 65.8979 46.1346C65.8979 46.1346 68.4824 51.9196 62.9684 51.0952Z" fill="#2F2E41"/>
<path d="M63.5448 40.6413C64.1736 40.9336 64.6765 41.4418 64.9621 42.0736C65.2477 42.7054 65.2971 43.4187 65.1012 44.0838L69.9838 57.9715C70.1199 58.2471 70.2001 58.5469 70.2199 58.8537C70.2398 59.1604 70.1987 59.4681 70.0993 59.7589C69.9998 60.0498 69.8438 60.3181 69.6402 60.5485C69.4367 60.7788 69.1896 60.9667 68.9133 61.1012C68.6369 61.2358 68.3366 61.3144 68.0298 61.3325C67.7229 61.3506 67.4155 61.3079 67.1252 61.2068C66.8349 61.1057 66.5674 60.9482 66.3382 60.7434C66.109 60.5386 65.9225 60.2905 65.7895 60.0134L61.1982 45.9698C61.0649 45.9165 60.9358 45.8531 60.8122 45.78C60.4749 45.579 60.1818 45.3118 59.9504 44.9946C59.719 44.6774 59.5541 44.3167 59.4656 43.9342C59.3771 43.5517 59.3668 43.1552 59.4354 42.7687C59.504 42.3821 59.65 42.0133 59.8646 41.6846V41.6846C60.1002 41.3243 60.4126 41.0207 60.7794 40.7954C61.1463 40.5702 61.5584 40.429 61.9863 40.3818C62.5198 40.3214 63.0597 40.4113 63.5448 40.6413Z" fill="#FFB7B7"/>
<path d="M60.7891 48.1029C60.7891 48.1029 64.3848 50.2847 65.898 46.1344L70.9648 59.4755L69.4592 62.1086L69.2415 62.1267C68.3433 62.2016 67.4404 62.0574 66.6102 61.7063C65.7801 61.3553 65.0476 60.8081 64.4756 60.1115V60.1115C63.3089 58.6909 62.5147 57.0018 62.1647 55.1971L60.7891 48.1029Z" fill="#E5E5E5"/>
</g>
<defs>
<clipPath id="clip0">
<rect width="108.21" height="100" fill="white" transform="translate(0.5)"/>
</clipPath>
</defs>
</svg>
