<svg width="25" height="12" viewBox="0 0 25 12" fill="none" xmlns="http://www.w3.org/2000/svg">
<g clip-path="url(#clip0_1228:38530)">
<path fill-rule="evenodd" clip-rule="evenodd" d="M0.851344 11.6411C0.626379 11.4161 0.5 11.1109 0.5 10.7927C0.5 10.4745 0.626379 10.1693 0.851344 9.9443L4.80294 5.9927L0.851344 2.0411C0.632754 1.81478 0.5118 1.51166 0.514535 1.19702C0.517269 0.882383 0.643472 0.581408 0.865961 0.358919C1.08845 0.136429 1.38943 0.0102258 1.70406 0.00749165C2.0187 0.00475755 2.32182 0.125711 2.54814 0.344301L7.34814 5.1443C7.57311 5.36933 7.69949 5.6745 7.69949 5.9927C7.69949 6.3109 7.57311 6.61607 7.34814 6.8411L2.54814 11.6411C2.32311 11.8661 2.01794 11.9924 1.69974 11.9924C1.38155 11.9924 1.07638 11.8661 0.851344 11.6411Z" fill="#3F3F46"/>
</g>
<defs>
<clipPath id="clip0_1228:38530">
<rect width="24" height="11.985" fill="white" transform="translate(0.5 0.00744629)"/>
</clipPath>
</defs>
</svg>
