<svg width="96" height="42" viewBox="0 0 96 42" fill="none" xmlns="http://www.w3.org/2000/svg">
<path d="M48.489 2.20996C48.3135 2.07341 48.0974 1.99927 47.875 1.99927C47.6526 1.99927 47.4365 2.07341 47.261 2.20996L39.033 8.60996C38.6722 8.89066 38.3802 9.25011 38.1795 9.66086C37.9789 10.0716 37.8747 10.5228 37.875 10.98V20C37.875 20.5304 38.0857 21.0391 38.4608 21.4142C38.8359 21.7892 39.3446 22 39.875 22H43.875C44.4054 22 44.9141 21.7892 45.2892 21.4142C45.6643 21.0391 45.875 20.5304 45.875 20V14H49.875V20C49.875 20.5304 50.0857 21.0391 50.4608 21.4142C50.8359 21.7892 51.3446 22 51.875 22H55.875C56.4054 22 56.9141 21.7892 57.2892 21.4142C57.6643 21.0391 57.875 20.5304 57.875 20V10.98C57.8751 10.5226 57.7706 10.0713 57.5696 9.66058C57.3685 9.24982 57.0762 8.89045 56.715 8.60996L48.489 2.20996V2.20996Z" fill="#3F3F46"/>
<path d="M39.8698 38H38.2438V34.208H34.1758V38H32.5498V29.324H34.1758V33.056H38.2438V29.324H39.8698V38ZM44.1641 31.748C44.6241 31.748 45.0401 31.822 45.4121 31.97C45.7881 32.118 46.1081 32.328 46.3721 32.6C46.6361 32.872 46.8401 33.204 46.9841 33.596C47.1281 33.988 47.2001 34.426 47.2001 34.91C47.2001 35.398 47.1281 35.838 46.9841 36.23C46.8401 36.622 46.6361 36.956 46.3721 37.232C46.1081 37.508 45.7881 37.72 45.4121 37.868C45.0401 38.016 44.6241 38.09 44.1641 38.09C43.7041 38.09 43.2861 38.016 42.9101 37.868C42.5341 37.72 42.2121 37.508 41.9441 37.232C41.6801 36.956 41.4741 36.622 41.3261 36.23C41.1821 35.838 41.1101 35.398 41.1101 34.91C41.1101 34.426 41.1821 33.988 41.3261 33.596C41.4741 33.204 41.6801 32.872 41.9441 32.6C42.2121 32.328 42.5341 32.118 42.9101 31.97C43.2861 31.822 43.7041 31.748 44.1641 31.748ZM44.1641 36.95C44.6761 36.95 45.0541 36.778 45.2981 36.434C45.5461 36.09 45.6701 35.586 45.6701 34.922C45.6701 34.258 45.5461 33.752 45.2981 33.404C45.0541 33.056 44.6761 32.882 44.1641 32.882C43.6441 32.882 43.2601 33.058 43.0121 33.41C42.7641 33.758 42.6401 34.262 42.6401 34.922C42.6401 35.582 42.7641 36.086 43.0121 36.434C43.2601 36.778 43.6441 36.95 44.1641 36.95ZM48.3565 38V31.844H49.2625C49.4545 31.844 49.5805 31.934 49.6405 32.114L49.7365 32.57C49.8445 32.45 49.9565 32.34 50.0725 32.24C50.1925 32.14 50.3185 32.054 50.4505 31.982C50.5865 31.91 50.7305 31.854 50.8825 31.814C51.0385 31.77 51.2085 31.748 51.3925 31.748C51.7805 31.748 52.0985 31.854 52.3465 32.066C52.5985 32.274 52.7865 32.552 52.9105 32.9C53.0065 32.696 53.1265 32.522 53.2705 32.378C53.4145 32.23 53.5725 32.11 53.7445 32.018C53.9165 31.926 54.0985 31.858 54.2905 31.814C54.4865 31.77 54.6825 31.748 54.8785 31.748C55.2185 31.748 55.5205 31.8 55.7845 31.904C56.0485 32.008 56.2705 32.16 56.4505 32.36C56.6305 32.56 56.7665 32.804 56.8585 33.092C56.9545 33.38 57.0025 33.71 57.0025 34.082V38H55.5205V34.082C55.5205 33.69 55.4345 33.396 55.2625 33.2C55.0905 33 54.8385 32.9 54.5065 32.9C54.3545 32.9 54.2125 32.926 54.0805 32.978C53.9525 33.03 53.8385 33.106 53.7385 33.206C53.6425 33.302 53.5665 33.424 53.5105 33.572C53.4545 33.72 53.4265 33.89 53.4265 34.082V38H51.9385V34.082C51.9385 33.67 51.8545 33.37 51.6865 33.182C51.5225 32.994 51.2785 32.9 50.9545 32.9C50.7425 32.9 50.5425 32.954 50.3545 33.062C50.1705 33.166 49.9985 33.31 49.8385 33.494V38H48.3565ZM61.002 31.748C61.39 31.748 61.746 31.81 62.07 31.934C62.398 32.058 62.68 32.24 62.916 32.48C63.152 32.716 63.336 33.008 63.468 33.356C63.6 33.7 63.666 34.094 63.666 34.538C63.666 34.65 63.66 34.744 63.648 34.82C63.64 34.892 63.622 34.95 63.594 34.994C63.57 35.034 63.536 35.064 63.492 35.084C63.448 35.1 63.392 35.108 63.324 35.108H59.52C59.564 35.74 59.734 36.204 60.03 36.5C60.326 36.796 60.718 36.944 61.206 36.944C61.446 36.944 61.652 36.916 61.824 36.86C62 36.804 62.152 36.742 62.28 36.674C62.412 36.606 62.526 36.544 62.622 36.488C62.722 36.432 62.818 36.404 62.91 36.404C62.97 36.404 63.022 36.416 63.066 36.44C63.11 36.464 63.148 36.498 63.18 36.542L63.612 37.082C63.448 37.274 63.264 37.436 63.06 37.568C62.856 37.696 62.642 37.8 62.418 37.88C62.198 37.956 61.972 38.01 61.74 38.042C61.512 38.074 61.29 38.09 61.074 38.09C60.646 38.09 60.248 38.02 59.88 37.88C59.512 37.736 59.192 37.526 58.92 37.25C58.648 36.97 58.434 36.626 58.278 36.218C58.122 35.806 58.044 35.33 58.044 34.79C58.044 34.37 58.112 33.976 58.248 33.608C58.384 33.236 58.578 32.914 58.83 32.642C59.086 32.366 59.396 32.148 59.76 31.988C60.128 31.828 60.542 31.748 61.002 31.748ZM61.032 32.81C60.6 32.81 60.262 32.932 60.018 33.176C59.774 33.42 59.618 33.766 59.55 34.214H62.334C62.334 34.022 62.308 33.842 62.256 33.674C62.204 33.502 62.124 33.352 62.016 33.224C61.908 33.096 61.772 32.996 61.608 32.924C61.444 32.848 61.252 32.81 61.032 32.81Z" fill="#3F3F46"/>
</svg>
