<svg width="64" height="42" viewBox="0 0 64 42" fill="none" xmlns="http://www.w3.org/2000/svg">
<path d="M27.625 6.5C27.625 8.981 29.644 11 32.125 11C34.606 11 36.625 8.981 36.625 6.5C36.625 4.019 34.606 2 32.125 2C29.644 2 27.625 4.019 27.625 6.5ZM40.125 21H41.125V20C41.125 16.141 37.984 13 34.125 13H30.125C26.265 13 23.125 16.141 23.125 20V21H40.125Z" fill="#3F3F46"/>
<path d="M16.6225 34.946V38H15.0085V29.324H17.8345C18.4145 29.324 18.9165 29.392 19.3405 29.528C19.7645 29.664 20.1145 29.854 20.3905 30.098C20.6665 30.342 20.8705 30.634 21.0025 30.974C21.1345 31.314 21.2005 31.686 21.2005 32.09C21.2005 32.51 21.1305 32.896 20.9905 33.248C20.8505 33.596 20.6405 33.896 20.3605 34.148C20.0805 34.4 19.7305 34.596 19.3105 34.736C18.8905 34.876 18.3985 34.946 17.8345 34.946H16.6225ZM16.6225 33.686H17.8345C18.1305 33.686 18.3885 33.65 18.6085 33.578C18.8285 33.502 19.0105 33.396 19.1545 33.26C19.2985 33.12 19.4065 32.952 19.4785 32.756C19.5505 32.556 19.5865 32.334 19.5865 32.09C19.5865 31.858 19.5505 31.648 19.4785 31.46C19.4065 31.272 19.2985 31.112 19.1545 30.98C19.0105 30.848 18.8285 30.748 18.6085 30.68C18.3885 30.608 18.1305 30.572 17.8345 30.572H16.6225V33.686ZM22.3705 38V31.844H23.2405C23.3925 31.844 23.4985 31.872 23.5585 31.928C23.6185 31.984 23.6585 32.08 23.6785 32.216L23.7685 32.96C23.9885 32.58 24.2465 32.28 24.5425 32.06C24.8385 31.84 25.1705 31.73 25.5385 31.73C25.8425 31.73 26.0945 31.8 26.2945 31.94L26.1025 33.05C26.0905 33.122 26.0645 33.174 26.0245 33.206C25.9845 33.234 25.9305 33.248 25.8625 33.248C25.8025 33.248 25.7205 33.234 25.6165 33.206C25.5125 33.178 25.3745 33.164 25.2025 33.164C24.8945 33.164 24.6305 33.25 24.4105 33.422C24.1905 33.59 24.0045 33.838 23.8525 34.166V38H22.3705ZM29.8969 31.748C30.3569 31.748 30.7729 31.822 31.1449 31.97C31.5209 32.118 31.8409 32.328 32.1049 32.6C32.3689 32.872 32.5729 33.204 32.7169 33.596C32.8609 33.988 32.9329 34.426 32.9329 34.91C32.9329 35.398 32.8609 35.838 32.7169 36.23C32.5729 36.622 32.3689 36.956 32.1049 37.232C31.8409 37.508 31.5209 37.72 31.1449 37.868C30.7729 38.016 30.3569 38.09 29.8969 38.09C29.4369 38.09 29.0189 38.016 28.6429 37.868C28.2669 37.72 27.9449 37.508 27.6769 37.232C27.4129 36.956 27.2069 36.622 27.0589 36.23C26.9149 35.838 26.8429 35.398 26.8429 34.91C26.8429 34.426 26.9149 33.988 27.0589 33.596C27.2069 33.204 27.4129 32.872 27.6769 32.6C27.9449 32.328 28.2669 32.118 28.6429 31.97C29.0189 31.822 29.4369 31.748 29.8969 31.748ZM29.8969 36.95C30.4089 36.95 30.7869 36.778 31.0309 36.434C31.2789 36.09 31.4029 35.586 31.4029 34.922C31.4029 34.258 31.2789 33.752 31.0309 33.404C30.7869 33.056 30.4089 32.882 29.8969 32.882C29.3769 32.882 28.9929 33.058 28.7449 33.41C28.4969 33.758 28.3729 34.262 28.3729 34.922C28.3729 35.582 28.4969 36.086 28.7449 36.434C28.9929 36.778 29.3769 36.95 29.8969 36.95ZM34.3532 38V32.96L33.8192 32.876C33.7032 32.856 33.6092 32.816 33.5372 32.756C33.4692 32.696 33.4352 32.612 33.4352 32.504V31.898H34.3532V31.7C34.3532 31.324 34.4152 30.976 34.5392 30.656C34.6632 30.332 34.8512 30.052 35.1032 29.816C35.3552 29.58 35.6732 29.396 36.0572 29.264C36.4412 29.128 36.8952 29.06 37.4192 29.06C37.5872 29.06 37.7592 29.07 37.9352 29.09C38.1112 29.106 38.2632 29.134 38.3912 29.174L38.3432 29.942C38.3352 30.034 38.2852 30.09 38.1932 30.11C38.1012 30.126 37.9872 30.134 37.8512 30.134C37.4632 30.134 37.1372 30.168 36.8732 30.236C36.6132 30.304 36.4012 30.406 36.2372 30.542C36.0772 30.674 35.9612 30.842 35.8892 31.046C35.8212 31.246 35.7872 31.48 35.7872 31.748V31.898H39.6032V38H38.1212V32.954H35.8352V38H34.3532ZM42.8742 29.084V38H41.3922V29.084H42.8742ZM47.098 31.748C47.486 31.748 47.842 31.81 48.166 31.934C48.494 32.058 48.776 32.24 49.012 32.48C49.248 32.716 49.432 33.008 49.564 33.356C49.696 33.7 49.762 34.094 49.762 34.538C49.762 34.65 49.756 34.744 49.744 34.82C49.736 34.892 49.718 34.95 49.69 34.994C49.666 35.034 49.632 35.064 49.588 35.084C49.544 35.1 49.488 35.108 49.42 35.108H45.616C45.66 35.74 45.83 36.204 46.126 36.5C46.422 36.796 46.814 36.944 47.302 36.944C47.542 36.944 47.748 36.916 47.92 36.86C48.096 36.804 48.248 36.742 48.376 36.674C48.508 36.606 48.622 36.544 48.718 36.488C48.818 36.432 48.914 36.404 49.006 36.404C49.066 36.404 49.118 36.416 49.162 36.44C49.206 36.464 49.244 36.498 49.276 36.542L49.708 37.082C49.544 37.274 49.36 37.436 49.156 37.568C48.952 37.696 48.738 37.8 48.514 37.88C48.294 37.956 48.068 38.01 47.836 38.042C47.608 38.074 47.386 38.09 47.17 38.09C46.742 38.09 46.344 38.02 45.976 37.88C45.608 37.736 45.288 37.526 45.016 37.25C44.744 36.97 44.53 36.626 44.374 36.218C44.218 35.806 44.14 35.33 44.14 34.79C44.14 34.37 44.208 33.976 44.344 33.608C44.48 33.236 44.674 32.914 44.926 32.642C45.182 32.366 45.492 32.148 45.856 31.988C46.224 31.828 46.638 31.748 47.098 31.748ZM47.128 32.81C46.696 32.81 46.358 32.932 46.114 33.176C45.87 33.42 45.714 33.766 45.646 34.214H48.43C48.43 34.022 48.404 33.842 48.352 33.674C48.3 33.502 48.22 33.352 48.112 33.224C48.004 33.096 47.868 32.996 47.704 32.924C47.54 32.848 47.348 32.81 47.128 32.81Z" fill="#3F3F46"/>
</svg>
