<svg width="40" height="40" viewBox="0 0 40 40" fill="none" xmlns="http://www.w3.org/2000/svg">
<path d="M27.1872 11.4737H22.9091V11.4316C22.9091 10.6316 22.2674 10 21.4545 10H18.5455C17.7326 10 17.0909 10.6316 17.0909 11.4316V11.4737H12.8128C12.3636 11.4737 12 11.8316 12 12.2737V13.0737C12 13.5158 12.3636 13.8737 12.8128 13.8737H27.1872C27.6364 13.8737 28 13.5158 28 13.0737V12.2737C28 11.8316 27.6364 11.4737 27.1872 11.4737Z" fill="#DC2626"/>
<path d="M26.1176 14.9684H13.8823C13.647 14.9684 13.4759 15.1579 13.4973 15.3895L14.0962 27.5789C14.1604 28.9263 15.2941 30 16.6631 30H23.3155C24.6845 30 25.8181 28.9474 25.8823 27.5789L26.4812 15.3895C26.524 15.1789 26.3315 14.9684 26.1176 14.9684ZM18.6738 26.7368C18.6738 27.1158 18.3743 27.4105 17.9893 27.4105C17.6042 27.4105 17.3048 27.1158 17.3048 26.7368V18.2526C17.3048 17.8737 17.6042 17.5789 17.9893 17.5789C18.3743 17.5789 18.6738 17.8737 18.6738 18.2526V26.7368ZM22.6951 26.7368C22.6951 27.1158 22.3957 27.4105 22.0107 27.4105C21.6256 27.4105 21.3262 27.1158 21.3262 26.7368V18.2526C21.3262 17.8737 21.6256 17.5789 22.0107 17.5789C22.3957 17.5789 22.6951 17.8737 22.6951 18.2526V26.7368Z" fill="#DC2626"/>
</svg>
