<svg width="25" height="25" viewBox="0 0 25 25" fill="none" xmlns="http://www.w3.org/2000/svg">
<path fill-rule="evenodd" clip-rule="evenodd" d="M15.7485 6.85885C15.9735 7.08388 16.0999 7.38905 16.0999 7.70725C16.0999 8.02545 15.9735 8.33062 15.7485 8.55565L11.7969 12.5073L15.7485 16.4589C15.9671 16.6852 16.0881 16.9883 16.0853 17.3029C16.0826 17.6176 15.9564 17.9185 15.7339 18.141C15.5114 18.3635 15.2105 18.4897 14.8958 18.4925C14.5812 18.4952 14.2781 18.3742 14.0517 18.1557L9.25173 13.3557C9.02677 13.1306 8.90039 12.8254 8.90039 12.5073C8.90039 12.1891 9.02677 11.8839 9.25173 11.6589L14.0517 6.85885C14.2768 6.63389 14.5819 6.50751 14.9001 6.50751C15.2183 6.50751 15.5235 6.63389 15.7485 6.85885V6.85885Z" fill="black"/>
</svg>
