<svg width="25" height="25" viewBox="0 0 25 25" fill="none" xmlns="http://www.w3.org/2000/svg">
<g clip-path="url(#clip0)">
<path fill-rule="evenodd" clip-rule="evenodd" d="M9.25173 18.1484C9.02677 17.9233 8.90039 17.6182 8.90039 17.3C8.90039 16.9818 9.02677 16.6766 9.25173 16.4516L13.2033 12.5L9.25173 8.54838C9.03314 8.32206 8.91219 8.01893 8.91493 7.7043C8.91766 7.38966 9.04386 7.08869 9.26635 6.8662C9.48884 6.64371 9.78982 6.5175 10.1045 6.51477C10.4191 6.51204 10.7222 6.63299 10.9485 6.85158L15.7485 11.6516C15.9735 11.8766 16.0999 12.1818 16.0999 12.5C16.0999 12.8182 15.9735 13.1233 15.7485 13.3484L10.9485 18.1484C10.7235 18.3733 10.4183 18.4997 10.1001 18.4997C9.78194 18.4997 9.47677 18.3733 9.25173 18.1484Z" fill="black"/>
</g>
<defs>
<clipPath id="clip0">
<rect width="24" height="24" fill="white" transform="translate(0.5 0.5)"/>
</clipPath>
</defs>
</svg>
