<svg width="17" height="10" viewBox="0 0 17 10" fill="none" xmlns="http://www.w3.org/2000/svg">
<path fill-rule="evenodd" clip-rule="evenodd" d="M7.08008 0.609985C4.12553 0.609985 1.60235 2.47599 0.580078 5.10999C1.60235 7.74399 4.12553 9.60999 7.08008 9.60999C10.0346 9.60999 12.5578 7.74399 13.5801 5.10999C12.5578 2.47599 10.0346 0.609985 7.08008 0.609985ZM7.07955 8.10998C5.44864 8.10998 4.125 6.76598 4.125 5.10998C4.125 3.45398 5.44864 2.10998 7.07955 2.10998C8.71045 2.10998 10.0341 3.45398 10.0341 5.10998C10.0341 6.76598 8.71045 8.10998 7.07955 8.10998ZM5.30762 5.10999C5.30762 4.11399 6.09944 3.30999 7.08034 3.30999C8.06125 3.30999 8.85307 4.11399 8.85307 5.10999C8.85307 6.10599 8.06125 6.90999 7.08034 6.90999C6.09944 6.90999 5.30762 6.10599 5.30762 5.10999Z" fill="#A1A1AA"/>
</svg>
