<svg width="42" height="36" viewBox="0 0 42 36" fill="none" xmlns="http://www.w3.org/2000/svg">
<g clip-path="url(#clip0_1554:497747)">
<path d="M8.30769 5.8125C7.85127 5.8125 7.40511 5.94784 7.02561 6.20142C6.64611 6.45499 6.35033 6.8154 6.17566 7.23708C6.001 7.65875 5.9553 8.12275 6.04434 8.5704C6.13339 9.01805 6.35317 9.42924 6.67591 9.75198C6.99864 10.0747 7.40984 10.2945 7.85748 10.3835C8.30513 10.4726 8.76913 10.4269 9.19081 10.2522C9.61248 10.0776 9.9729 9.78178 10.2265 9.40228C10.48 9.02278 10.6154 8.57661 10.6154 8.12019C10.6154 7.50815 10.3723 6.92118 9.93948 6.48841C9.5067 6.05563 8.91973 5.8125 8.30769 5.8125ZM8.30769 13.5048C7.85127 13.5048 7.40511 13.6402 7.02561 13.8937C6.64611 14.1473 6.35033 14.5077 6.17566 14.9294C6.001 15.3511 5.9553 15.8151 6.04434 16.2627C6.13339 16.7104 6.35317 17.1215 6.67591 17.4443C6.99864 17.767 7.40984 17.9868 7.85748 18.0759C8.30513 18.1649 8.76913 18.1192 9.19081 17.9445C9.61248 17.7699 9.9729 17.4741 10.2265 17.0946C10.48 16.7151 10.6154 16.2689 10.6154 15.8125C10.6154 15.2005 10.3723 14.6135 9.93948 14.1807C9.5067 13.7479 8.91973 13.5048 8.30769 13.5048ZM8.30769 21.1971C7.85127 21.1971 7.40511 21.3325 7.02561 21.586C6.64611 21.8396 6.35033 22.2 6.17566 22.6217C6.001 23.0434 5.9553 23.5074 6.04434 23.955C6.13339 24.4027 6.35317 24.8139 6.67591 25.1366C6.99864 25.4593 7.40984 25.6791 7.85748 25.7682C8.30513 25.8572 8.76913 25.8115 9.19081 25.6368C9.61248 25.4622 9.9729 25.1664 10.2265 24.7869C10.48 24.4074 10.6154 23.9612 10.6154 23.5048C10.6154 22.8928 10.3723 22.3058 9.93948 21.873C9.5067 21.4402 8.91973 21.1971 8.30769 21.1971ZM29.8461 21.9663H14.4615C14.2575 21.9663 14.0619 22.0474 13.9176 22.1916C13.7734 22.3359 13.6923 22.5316 13.6923 22.7356V24.274C13.6923 24.478 13.7734 24.6737 13.9176 24.818C14.0619 24.9622 14.2575 25.0433 14.4615 25.0433H29.8461C30.0502 25.0433 30.2458 24.9622 30.3901 24.818C30.5343 24.6737 30.6154 24.478 30.6154 24.274V22.7356C30.6154 22.5316 30.5343 22.3359 30.3901 22.1916C30.2458 22.0474 30.0502 21.9663 29.8461 21.9663ZM29.8461 6.58173H14.4615C14.2575 6.58173 14.0619 6.66277 13.9176 6.80703C13.7734 6.95129 13.6923 7.14695 13.6923 7.35096V8.88942C13.6923 9.09344 13.7734 9.28909 13.9176 9.43335C14.0619 9.57761 14.2575 9.65865 14.4615 9.65865H29.8461C30.0502 9.65865 30.2458 9.57761 30.3901 9.43335C30.5343 9.28909 30.6154 9.09344 30.6154 8.88942V7.35096C30.6154 7.14695 30.5343 6.95129 30.3901 6.80703C30.2458 6.66277 30.0502 6.58173 29.8461 6.58173ZM29.8461 14.274H14.4615C14.2575 14.274 14.0619 14.3551 13.9176 14.4993C13.7734 14.6436 13.6923 14.8393 13.6923 15.0433V16.5817C13.6923 16.7857 13.7734 16.9814 13.9176 17.1257C14.0619 17.2699 14.2575 17.351 14.4615 17.351H29.8461C30.0502 17.351 30.2458 17.2699 30.3901 17.1257C30.5343 16.9814 30.6154 16.7857 30.6154 16.5817V15.0433C30.6154 14.8393 30.5343 14.6436 30.3901 14.4993C30.2458 14.3551 30.0502 14.274 29.8461 14.274Z" fill="black"/>
</g>
<defs>
<clipPath id="clip0_1554:497747">
<rect width="30" height="30" fill="white" transform="translate(6 3)"/>
</clipPath>
</defs>
</svg>
