<svg width="17" height="10" viewBox="0 0 17 10" fill="none" xmlns="http://www.w3.org/2000/svg">
<path fill-rule="evenodd" clip-rule="evenodd" d="M6.90039 0.219971C3.94585 0.219971 1.42266 2.08597 0.400391 4.71997C1.42266 7.35397 3.94585 9.21997 6.90039 9.21997C9.85494 9.21997 12.3781 7.35397 13.4004 4.71997C12.3781 2.08597 9.85494 0.219971 6.90039 0.219971ZM6.89986 7.71996C5.26895 7.71996 3.94531 6.37596 3.94531 4.71996C3.94531 3.06396 5.26895 1.71996 6.89986 1.71996C8.53077 1.71996 9.8544 3.06396 9.8544 4.71996C9.8544 6.37596 8.53077 7.71996 6.89986 7.71996ZM5.12793 4.71997C5.12793 3.72397 5.91975 2.91997 6.90066 2.91997C7.88157 2.91997 8.67338 3.72397 8.67338 4.71997C8.67338 5.71597 7.88157 6.51997 6.90066 6.51997C5.91975 6.51997 5.12793 5.71597 5.12793 4.71997Z" fill="#A1A1AA"/>
</svg>
