<svg width="17" height="10" viewBox="0 0 17 10" fill="none" xmlns="http://www.w3.org/2000/svg">
<path fill-rule="evenodd" clip-rule="evenodd" d="M6.90039 0.304932C3.94585 0.304932 1.42266 2.17093 0.400391 4.80493C1.42266 7.43893 3.94585 9.30493 6.90039 9.30493C9.85494 9.30493 12.3781 7.43893 13.4004 4.80493C12.3781 2.17093 9.85494 0.304932 6.90039 0.304932ZM6.89986 7.80493C5.26895 7.80493 3.94531 6.46093 3.94531 4.80493C3.94531 3.14893 5.26895 1.80493 6.89986 1.80493C8.53077 1.80493 9.8544 3.14893 9.8544 4.80493C9.8544 6.46093 8.53077 7.80493 6.89986 7.80493ZM5.12793 4.80493C5.12793 3.80893 5.91975 3.00493 6.90066 3.00493C7.88157 3.00493 8.67338 3.80893 8.67338 4.80493C8.67338 5.80093 7.88157 6.60493 6.90066 6.60493C5.91975 6.60493 5.12793 5.80093 5.12793 4.80493Z" fill="#A1A1AA"/>
</svg>
