<svg width="17" height="10" viewBox="0 0 17 10" fill="none" xmlns="http://www.w3.org/2000/svg">
<path fill-rule="evenodd" clip-rule="evenodd" d="M6.58008 0.219971C3.62553 0.219971 1.10235 2.08597 0.0800781 4.71997C1.10235 7.35397 3.62553 9.21997 6.58008 9.21997C9.53462 9.21997 12.0578 7.35397 13.0801 4.71997C12.0578 2.08597 9.53462 0.219971 6.58008 0.219971ZM6.57955 7.71996C4.94864 7.71996 3.625 6.37596 3.625 4.71996C3.625 3.06396 4.94864 1.71996 6.57955 1.71996C8.21045 1.71996 9.53409 3.06396 9.53409 4.71996C9.53409 6.37596 8.21045 7.71996 6.57955 7.71996ZM4.80762 4.71997C4.80762 3.72397 5.59944 2.91997 6.58034 2.91997C7.56125 2.91997 8.35307 3.72397 8.35307 4.71997C8.35307 5.71597 7.56125 6.51997 6.58034 6.51997C5.59944 6.51997 4.80762 5.71597 4.80762 4.71997Z" fill="#A1A1AA"/>
</svg>
