<svg width="17" height="10" viewBox="0 0 17 10" fill="none" xmlns="http://www.w3.org/2000/svg">
<path fill-rule="evenodd" clip-rule="evenodd" d="M6.74023 0.304932C3.78569 0.304932 1.26251 2.17093 0.240234 4.80493C1.26251 7.43893 3.78569 9.30493 6.74023 9.30493C9.69478 9.30493 12.218 7.43893 13.2402 4.80493C12.218 2.17093 9.69478 0.304932 6.74023 0.304932ZM6.7397 7.80493C5.10879 7.80493 3.78516 6.46093 3.78516 4.80493C3.78516 3.14893 5.10879 1.80493 6.7397 1.80493C8.37061 1.80493 9.69425 3.14893 9.69425 4.80493C9.69425 6.46093 8.37061 7.80493 6.7397 7.80493ZM4.96777 4.80493C4.96777 3.80893 5.75959 3.00493 6.7405 3.00493C7.72141 3.00493 8.51323 3.80893 8.51323 4.80493C8.51323 5.80093 7.72141 6.60493 6.7405 6.60493C5.75959 6.60493 4.96777 5.80093 4.96777 4.80493Z" fill="#A1A1AA"/>
</svg>
