<svg width="17" height="10" viewBox="0 0 17 10" fill="none" xmlns="http://www.w3.org/2000/svg">
<path fill-rule="evenodd" clip-rule="evenodd" d="M6.74023 0.219971C3.78569 0.219971 1.26251 2.08597 0.240234 4.71997C1.26251 7.35397 3.78569 9.21997 6.74023 9.21997C9.69478 9.21997 12.218 7.35397 13.2402 4.71997C12.218 2.08597 9.69478 0.219971 6.74023 0.219971ZM6.7397 7.71996C5.10879 7.71996 3.78516 6.37596 3.78516 4.71996C3.78516 3.06396 5.10879 1.71996 6.7397 1.71996C8.37061 1.71996 9.69425 3.06396 9.69425 4.71996C9.69425 6.37596 8.37061 7.71996 6.7397 7.71996ZM4.96777 4.71997C4.96777 3.72397 5.75959 2.91997 6.7405 2.91997C7.72141 2.91997 8.51323 3.72397 8.51323 4.71997C8.51323 5.71597 7.72141 6.51997 6.7405 6.51997C5.75959 6.51997 4.96777 5.71597 4.96777 4.71997Z" fill="#A1A1AA"/>
</svg>
