<svg width="17" height="10" viewBox="0 0 17 10" fill="none" xmlns="http://www.w3.org/2000/svg">
<path fill-rule="evenodd" clip-rule="evenodd" d="M6.58008 0.304932C3.62553 0.304932 1.10235 2.17093 0.0800781 4.80493C1.10235 7.43893 3.62553 9.30493 6.58008 9.30493C9.53462 9.30493 12.0578 7.43893 13.0801 4.80493C12.0578 2.17093 9.53462 0.304932 6.58008 0.304932ZM6.57955 7.80493C4.94864 7.80493 3.625 6.46093 3.625 4.80493C3.625 3.14893 4.94864 1.80493 6.57955 1.80493C8.21045 1.80493 9.53409 3.14893 9.53409 4.80493C9.53409 6.46093 8.21045 7.80493 6.57955 7.80493ZM4.80762 4.80493C4.80762 3.80893 5.59944 3.00493 6.58034 3.00493C7.56125 3.00493 8.35307 3.80893 8.35307 4.80493C8.35307 5.80093 7.56125 6.60493 6.58034 6.60493C5.59944 6.60493 4.80762 5.80093 4.80762 4.80493Z" fill="#A1A1AA"/>
</svg>
