<svg width="24" height="24" viewBox="0 0 24 24" fill="none" xmlns="http://www.w3.org/2000/svg">
<path d="M20.8967 3.1032C20.4466 2.65327 19.8363 2.40051 19.1999 2.40051C18.5635 2.40051 17.9532 2.65327 17.5031 3.1032L8.3999 12.2064V15.6H11.7935L20.8967 6.4968C21.3466 6.04673 21.5994 5.43639 21.5994 4.8C21.5994 4.16361 21.3466 3.55327 20.8967 3.1032Z" fill="#2563EB"/>
<path fill-rule="evenodd" clip-rule="evenodd" d="M2.3999 7.20005C2.3999 6.56353 2.65276 5.95308 3.10285 5.50299C3.55293 5.05291 4.16338 4.80005 4.7999 4.80005H9.5999C9.91816 4.80005 10.2234 4.92648 10.4484 5.15152C10.6735 5.37656 10.7999 5.68179 10.7999 6.00005C10.7999 6.31831 10.6735 6.62353 10.4484 6.84858C10.2234 7.07362 9.91816 7.20005 9.5999 7.20005H4.7999V19.2H16.7999V14.4C16.7999 14.0818 16.9263 13.7766 17.1514 13.5515C17.3764 13.3265 17.6816 13.2 17.9999 13.2C18.3182 13.2 18.6234 13.3265 18.8484 13.5515C19.0735 13.7766 19.1999 14.0818 19.1999 14.4V19.2C19.1999 19.8366 18.947 20.447 18.497 20.8971C18.0469 21.3472 17.4364 21.6 16.7999 21.6H4.7999C4.16338 21.6 3.55293 21.3472 3.10285 20.8971C2.65276 20.447 2.3999 19.8366 2.3999 19.2V7.20005Z" fill="#2563EB"/>
</svg>
