<svg width="17" height="10" viewBox="0 0 17 10" fill="none" xmlns="http://www.w3.org/2000/svg">
<path fill-rule="evenodd" clip-rule="evenodd" d="M7.08008 0.219971C4.12553 0.219971 1.60235 2.08597 0.580078 4.71997C1.60235 7.35397 4.12553 9.21997 7.08008 9.21997C10.0346 9.21997 12.5578 7.35397 13.5801 4.71997C12.5578 2.08597 10.0346 0.219971 7.08008 0.219971ZM7.07955 7.71996C5.44864 7.71996 4.125 6.37596 4.125 4.71996C4.125 3.06396 5.44864 1.71996 7.07955 1.71996C8.71045 1.71996 10.0341 3.06396 10.0341 4.71996C10.0341 6.37596 8.71045 7.71996 7.07955 7.71996ZM5.30762 4.71997C5.30762 3.72397 6.09944 2.91997 7.08034 2.91997C8.06125 2.91997 8.85307 3.72397 8.85307 4.71997C8.85307 5.71597 8.06125 6.51997 7.08034 6.51997C6.09944 6.51997 5.30762 5.71597 5.30762 4.71997Z" fill="#A1A1AA"/>
</svg>
