<svg width="17" height="10" viewBox="0 0 17 10" fill="none" xmlns="http://www.w3.org/2000/svg">
<path fill-rule="evenodd" clip-rule="evenodd" d="M7.40039 0.219971C4.44585 0.219971 1.92266 2.08597 0.900391 4.71997C1.92266 7.35397 4.44585 9.21997 7.40039 9.21997C10.3549 9.21997 12.8781 7.35397 13.9004 4.71997C12.8781 2.08597 10.3549 0.219971 7.40039 0.219971ZM7.39986 7.71996C5.76895 7.71996 4.44531 6.37596 4.44531 4.71996C4.44531 3.06396 5.76895 1.71996 7.39986 1.71996C9.03077 1.71996 10.3544 3.06396 10.3544 4.71996C10.3544 6.37596 9.03077 7.71996 7.39986 7.71996ZM5.62793 4.71997C5.62793 3.72397 6.41975 2.91997 7.40066 2.91997C8.38157 2.91997 9.17338 3.72397 9.17338 4.71997C9.17338 5.71597 8.38157 6.51997 7.40066 6.51997C6.41975 6.51997 5.62793 5.71597 5.62793 4.71997Z" fill="#A1A1AA"/>
</svg>
