<svg width="17" height="10" viewBox="0 0 17 10" fill="none" xmlns="http://www.w3.org/2000/svg">
<path fill-rule="evenodd" clip-rule="evenodd" d="M7.24023 0.219971C4.28569 0.219971 1.76251 2.08597 0.740234 4.71997C1.76251 7.35397 4.28569 9.21997 7.24023 9.21997C10.1948 9.21997 12.718 7.35397 13.7402 4.71997C12.718 2.08597 10.1948 0.219971 7.24023 0.219971ZM7.2397 7.71996C5.60879 7.71996 4.28516 6.37596 4.28516 4.71996C4.28516 3.06396 5.60879 1.71996 7.2397 1.71996C8.87061 1.71996 10.1942 3.06396 10.1942 4.71996C10.1942 6.37596 8.87061 7.71996 7.2397 7.71996ZM5.46777 4.71997C5.46777 3.72397 6.25959 2.91997 7.2405 2.91997C8.22141 2.91997 9.01323 3.72397 9.01323 4.71997C9.01323 5.71597 8.22141 6.51997 7.2405 6.51997C6.25959 6.51997 5.46777 5.71597 5.46777 4.71997Z" fill="#A1A1AA"/>
</svg>
