<svg width="297" height="48" viewBox="0 0 297 48" fill="none" xmlns="http://www.w3.org/2000/svg">
<path d="M4.848 24.48C5.29067 24.48 5.68 24.4213 6.016 24.304C6.35733 24.1867 6.64267 24.024 6.872 23.816C7.10667 23.6027 7.28267 23.3493 7.4 23.056C7.51733 22.7627 7.576 22.44 7.576 22.088C7.576 21.3573 7.34933 20.7867 6.896 20.376C6.448 19.9653 5.76533 19.76 4.848 19.76H3.008V24.48H4.848ZM4.848 18.536C5.57333 18.536 6.20267 18.6213 6.736 18.792C7.27467 18.9573 7.72 19.1947 8.072 19.504C8.424 19.8133 8.68533 20.1867 8.856 20.624C9.032 21.0613 9.12 21.5493 9.12 22.088C9.12 22.6213 9.02667 23.1093 8.84 23.552C8.65333 23.9947 8.37867 24.376 8.016 24.696C7.65867 25.016 7.21333 25.2667 6.68 25.448C6.152 25.624 5.54133 25.712 4.848 25.712H3.008V30H1.464V18.536H4.848ZM14.8794 26.352C14.2234 26.3733 13.6634 26.4267 13.1994 26.512C12.7407 26.592 12.3647 26.6987 12.0714 26.832C11.7834 26.9653 11.5727 27.1227 11.4394 27.304C11.3114 27.4853 11.2474 27.688 11.2474 27.912C11.2474 28.1253 11.282 28.3093 11.3514 28.464C11.4207 28.6187 11.514 28.7467 11.6314 28.848C11.754 28.944 11.8954 29.016 12.0554 29.064C12.2207 29.1067 12.3967 29.128 12.5834 29.128C12.834 29.128 13.0634 29.104 13.2714 29.056C13.4794 29.0027 13.674 28.928 13.8554 28.832C14.042 28.736 14.218 28.6213 14.3834 28.488C14.554 28.3547 14.7194 28.2027 14.8794 28.032V26.352ZM10.2794 23.04C10.7274 22.608 11.21 22.2853 11.7274 22.072C12.2447 21.8587 12.818 21.752 13.4474 21.752C13.9007 21.752 14.3034 21.8267 14.6554 21.976C15.0074 22.1253 15.3034 22.3333 15.5434 22.6C15.7834 22.8667 15.9647 23.1893 16.0874 23.568C16.21 23.9467 16.2714 24.3627 16.2714 24.816V30H15.6394C15.5007 30 15.394 29.9787 15.3194 29.936C15.2447 29.888 15.186 29.7973 15.1434 29.664L14.9834 28.896C14.77 29.0933 14.562 29.2693 14.3594 29.424C14.1567 29.5733 13.9434 29.7013 13.7194 29.808C13.4954 29.9093 13.2554 29.9867 12.9994 30.04C12.7487 30.0987 12.4687 30.128 12.1594 30.128C11.8447 30.128 11.5487 30.0853 11.2714 30C10.994 29.9093 10.7514 29.776 10.5434 29.6C10.3407 29.424 10.178 29.2027 10.0554 28.936C9.93804 28.664 9.87938 28.344 9.87938 27.976C9.87938 27.656 9.96738 27.3493 10.1434 27.056C10.3194 26.7573 10.6047 26.4933 10.9994 26.264C11.394 26.0347 11.9087 25.848 12.5434 25.704C13.178 25.5547 13.9567 25.4693 14.8794 25.448V24.816C14.8794 24.1867 14.7434 23.712 14.4714 23.392C14.1994 23.0667 13.802 22.904 13.2794 22.904C12.9274 22.904 12.6314 22.9493 12.3914 23.04C12.1567 23.1253 11.9514 23.224 11.7754 23.336C11.6047 23.4427 11.4554 23.5413 11.3274 23.632C11.2047 23.7173 11.082 23.76 10.9594 23.76C10.8634 23.76 10.7807 23.736 10.7114 23.688C10.642 23.6347 10.5834 23.5707 10.5354 23.496L10.2794 23.04ZM23.1605 23.232C23.0965 23.3493 22.9978 23.408 22.8645 23.408C22.7845 23.408 22.6938 23.3787 22.5925 23.32C22.4912 23.2613 22.3658 23.1973 22.2165 23.128C22.0725 23.0533 21.8992 22.9867 21.6965 22.928C21.4938 22.864 21.2538 22.832 20.9765 22.832C20.7365 22.832 20.5205 22.864 20.3285 22.928C20.1365 22.9867 19.9712 23.0693 19.8325 23.176C19.6992 23.2827 19.5952 23.408 19.5205 23.552C19.4512 23.6907 19.4165 23.8427 19.4165 24.008C19.4165 24.216 19.4752 24.3893 19.5925 24.528C19.7152 24.6667 19.8752 24.7867 20.0725 24.888C20.2698 24.9893 20.4938 25.08 20.7445 25.16C20.9952 25.2347 21.2512 25.3173 21.5125 25.408C21.7792 25.4933 22.0378 25.5893 22.2885 25.696C22.5392 25.8027 22.7632 25.936 22.9605 26.096C23.1578 26.256 23.3152 26.4533 23.4325 26.688C23.5552 26.9173 23.6165 27.1947 23.6165 27.52C23.6165 27.8933 23.5498 28.24 23.4165 28.56C23.2832 28.8747 23.0858 29.1493 22.8245 29.384C22.5632 29.6133 22.2432 29.7947 21.8645 29.928C21.4858 30.0613 21.0485 30.128 20.5525 30.128C19.9872 30.128 19.4752 30.0373 19.0165 29.856C18.5578 29.6693 18.1685 29.432 17.8485 29.144L18.1845 28.6C18.2272 28.5307 18.2778 28.4773 18.3365 28.44C18.3952 28.4027 18.4698 28.384 18.5605 28.384C18.6565 28.384 18.7578 28.4213 18.8645 28.496C18.9712 28.5707 19.0992 28.6533 19.2485 28.744C19.4032 28.8347 19.5898 28.9173 19.8085 28.992C20.0272 29.0667 20.2992 29.104 20.6245 29.104C20.9018 29.104 21.1445 29.0693 21.3525 29C21.5605 28.9253 21.7338 28.8267 21.8725 28.704C22.0112 28.5813 22.1125 28.44 22.1765 28.28C22.2458 28.12 22.2805 27.9493 22.2805 27.768C22.2805 27.544 22.2192 27.36 22.0965 27.216C21.9792 27.0667 21.8218 26.9413 21.6245 26.84C21.4272 26.7333 21.2005 26.6427 20.9445 26.568C20.6938 26.488 20.4352 26.4053 20.1685 26.32C19.9072 26.2347 19.6485 26.1387 19.3925 26.032C19.1418 25.92 18.9178 25.7813 18.7205 25.616C18.5232 25.4507 18.3632 25.248 18.2405 25.008C18.1232 24.7627 18.0645 24.4667 18.0645 24.12C18.0645 23.8107 18.1285 23.5147 18.2565 23.232C18.3845 22.944 18.5712 22.6933 18.8165 22.48C19.0618 22.2613 19.3632 22.088 19.7205 21.96C20.0778 21.832 20.4858 21.768 20.9445 21.768C21.4778 21.768 21.9552 21.8533 22.3765 22.024C22.8032 22.1893 23.1712 22.4187 23.4805 22.712L23.1605 23.232ZM30.0824 23.232C30.0184 23.3493 29.9197 23.408 29.7864 23.408C29.7064 23.408 29.6157 23.3787 29.5144 23.32C29.413 23.2613 29.2877 23.1973 29.1384 23.128C28.9944 23.0533 28.821 22.9867 28.6184 22.928C28.4157 22.864 28.1757 22.832 27.8984 22.832C27.6584 22.832 27.4424 22.864 27.2504 22.928C27.0584 22.9867 26.893 23.0693 26.7544 23.176C26.621 23.2827 26.517 23.408 26.4424 23.552C26.373 23.6907 26.3384 23.8427 26.3384 24.008C26.3384 24.216 26.397 24.3893 26.5144 24.528C26.637 24.6667 26.797 24.7867 26.9944 24.888C27.1917 24.9893 27.4157 25.08 27.6664 25.16C27.917 25.2347 28.173 25.3173 28.4344 25.408C28.701 25.4933 28.9597 25.5893 29.2104 25.696C29.461 25.8027 29.685 25.936 29.8824 26.096C30.0797 26.256 30.237 26.4533 30.3544 26.688C30.477 26.9173 30.5384 27.1947 30.5384 27.52C30.5384 27.8933 30.4717 28.24 30.3384 28.56C30.205 28.8747 30.0077 29.1493 29.7464 29.384C29.485 29.6133 29.165 29.7947 28.7864 29.928C28.4077 30.0613 27.9704 30.128 27.4744 30.128C26.909 30.128 26.397 30.0373 25.9384 29.856C25.4797 29.6693 25.0904 29.432 24.7704 29.144L25.1064 28.6C25.149 28.5307 25.1997 28.4773 25.2584 28.44C25.317 28.4027 25.3917 28.384 25.4824 28.384C25.5784 28.384 25.6797 28.4213 25.7864 28.496C25.893 28.5707 26.021 28.6533 26.1704 28.744C26.325 28.8347 26.5117 28.9173 26.7304 28.992C26.949 29.0667 27.221 29.104 27.5464 29.104C27.8237 29.104 28.0664 29.0693 28.2744 29C28.4824 28.9253 28.6557 28.8267 28.7944 28.704C28.933 28.5813 29.0344 28.44 29.0984 28.28C29.1677 28.12 29.2024 27.9493 29.2024 27.768C29.2024 27.544 29.141 27.36 29.0184 27.216C28.901 27.0667 28.7437 26.9413 28.5464 26.84C28.349 26.7333 28.1224 26.6427 27.8664 26.568C27.6157 26.488 27.357 26.4053 27.0904 26.32C26.829 26.2347 26.5704 26.1387 26.3144 26.032C26.0637 25.92 25.8397 25.7813 25.6424 25.616C25.445 25.4507 25.285 25.248 25.1624 25.008C25.045 24.7627 24.9864 24.4667 24.9864 24.12C24.9864 23.8107 25.0504 23.5147 25.1784 23.232C25.3064 22.944 25.493 22.6933 25.7384 22.48C25.9837 22.2613 26.285 22.088 26.6424 21.96C26.9997 21.832 27.4077 21.768 27.8664 21.768C28.3997 21.768 28.877 21.8533 29.2984 22.024C29.725 22.1893 30.093 22.4187 30.4024 22.712L30.0824 23.232ZM43.4603 21.896L40.8363 30H39.7083C39.5696 30 39.4736 29.9093 39.4202 29.728L37.6283 24.232C37.5856 24.1093 37.5509 23.9867 37.5243 23.864C37.4976 23.736 37.4709 23.6107 37.4443 23.488C37.4176 23.6107 37.3909 23.736 37.3643 23.864C37.3376 23.9867 37.3029 24.112 37.2603 24.24L35.4363 29.728C35.3883 29.9093 35.2816 30 35.1163 30H34.0443L31.4202 21.896H32.5403C32.6523 21.896 32.7456 21.9253 32.8203 21.984C32.9003 22.0427 32.9536 22.112 32.9803 22.192L34.5323 27.408C34.6229 27.792 34.6949 28.1547 34.7483 28.496C34.7963 28.32 34.8443 28.1413 34.8923 27.96C34.9456 27.7787 35.0016 27.5947 35.0603 27.408L36.7723 22.16C36.7989 22.08 36.8443 22.0133 36.9083 21.96C36.9776 21.9067 37.0603 21.88 37.1563 21.88H37.7803C37.8869 21.88 37.9749 21.9067 38.0443 21.96C38.1136 22.0133 38.1616 22.08 38.1883 22.16L39.8603 27.408C39.9189 27.5947 39.9723 27.7787 40.0203 27.96C40.0683 28.1413 40.1136 28.32 40.1562 28.496C40.1829 28.32 40.2149 28.144 40.2523 27.968C40.2949 27.7867 40.3403 27.6 40.3883 27.408L41.9723 22.192C41.9989 22.1067 42.0496 22.0373 42.1243 21.984C42.1989 21.9253 42.2869 21.896 42.3883 21.896H43.4603ZM48.1534 21.768C48.7454 21.768 49.2787 21.8667 49.7534 22.064C50.228 22.2613 50.6334 22.5413 50.9694 22.904C51.3054 23.2667 51.5614 23.7067 51.7374 24.224C51.9187 24.736 52.0094 25.3093 52.0094 25.944C52.0094 26.584 51.9187 27.16 51.7374 27.672C51.5614 28.184 51.3054 28.6213 50.9694 28.984C50.6334 29.3467 50.228 29.6267 49.7534 29.824C49.2787 30.016 48.7454 30.112 48.1534 30.112C47.556 30.112 47.0174 30.016 46.5374 29.824C46.0627 29.6267 45.6574 29.3467 45.3214 28.984C44.9854 28.6213 44.7267 28.184 44.5454 27.672C44.3694 27.16 44.2814 26.584 44.2814 25.944C44.2814 25.3093 44.3694 24.736 44.5454 24.224C44.7267 23.7067 44.9854 23.2667 45.3214 22.904C45.6574 22.5413 46.0627 22.2613 46.5374 22.064C47.0174 21.8667 47.556 21.768 48.1534 21.768ZM48.1534 29C48.9534 29 49.5507 28.7333 49.9454 28.2C50.34 27.6613 50.5374 26.912 50.5374 25.952C50.5374 24.9867 50.34 24.2347 49.9454 23.696C49.5507 23.1573 48.9534 22.888 48.1534 22.888C47.748 22.888 47.3934 22.9573 47.0894 23.096C46.7907 23.2347 46.54 23.4347 46.3374 23.696C46.14 23.9573 45.9907 24.28 45.8894 24.664C45.7934 25.0427 45.7454 25.472 45.7454 25.952C45.7454 26.912 45.9427 27.6613 46.3374 28.2C46.7374 28.7333 47.3427 29 48.1534 29ZM55.1675 23.52C55.4235 22.9653 55.7382 22.5333 56.1115 22.224C56.4848 21.9093 56.9408 21.752 57.4795 21.752C57.6502 21.752 57.8128 21.7707 57.9675 21.808C58.1275 21.8453 58.2688 21.904 58.3915 21.984L58.2875 23.048C58.2555 23.1813 58.1755 23.248 58.0475 23.248C57.9728 23.248 57.8635 23.232 57.7195 23.2C57.5755 23.168 57.4128 23.152 57.2315 23.152C56.9755 23.152 56.7462 23.1893 56.5435 23.264C56.3462 23.3387 56.1675 23.4507 56.0075 23.6C55.8528 23.744 55.7115 23.9253 55.5835 24.144C55.4608 24.3573 55.3488 24.6027 55.2475 24.88V30H53.8155V21.896H54.6315C54.7862 21.896 54.8928 21.9253 54.9515 21.984C55.0102 22.0427 55.0502 22.144 55.0715 22.288L55.1675 23.52ZM64.6111 23.824C64.3445 23.4667 64.0565 23.2187 63.7471 23.08C63.4378 22.936 63.0911 22.864 62.7071 22.864C61.9551 22.864 61.3765 23.1333 60.9711 23.672C60.5658 24.2107 60.3631 24.9787 60.3631 25.976C60.3631 26.504 60.4085 26.9573 60.4991 27.336C60.5898 27.7093 60.7231 28.0187 60.8991 28.264C61.0751 28.504 61.2911 28.68 61.5471 28.792C61.8031 28.904 62.0938 28.96 62.4191 28.96C62.8885 28.96 63.2965 28.8533 63.6431 28.64C63.9951 28.4267 64.3178 28.1253 64.6111 27.736V23.824ZM66.0351 18.216V30H65.1871C64.9845 30 64.8565 29.9013 64.8031 29.704L64.6751 28.72C64.3285 29.136 63.9338 29.472 63.4911 29.728C63.0485 29.984 62.5365 30.112 61.9551 30.112C61.4911 30.112 61.0698 30.024 60.6911 29.848C60.3125 29.6667 59.9898 29.4027 59.7231 29.056C59.4565 28.7093 59.2511 28.2773 59.1071 27.76C58.9631 27.2427 58.8911 26.648 58.8911 25.976C58.8911 25.3787 58.9711 24.824 59.1311 24.312C59.2911 23.7947 59.5205 23.3467 59.8191 22.968C60.1178 22.5893 60.4831 22.2933 60.9151 22.08C61.3525 21.8613 61.8431 21.752 62.3871 21.752C62.8831 21.752 63.3071 21.8373 63.6591 22.008C64.0165 22.1733 64.3338 22.4053 64.6111 22.704V18.216H66.0351Z" fill="white"/>
<path fill-rule="evenodd" clip-rule="evenodd" d="M285 16C280 16 275.73 19.11 274 23.5C275.73 27.89 280 31 285 31C290 31 294.27 27.89 296 23.5C294.27 19.11 290 16 285 16ZM285 28.5C282.24 28.5 280 26.26 280 23.5C280 20.74 282.24 18.5 285 18.5C287.76 18.5 290 20.74 290 23.5C290 26.26 287.76 28.5 285 28.5ZM282 23.5C282 21.84 283.34 20.5 285 20.5C286.66 20.5 288 21.84 288 23.5C288 25.16 286.66 26.5 285 26.5C283.34 26.5 282 25.16 282 23.5Z" fill="#D4D4D8"/>
</svg>
