<svg width="24" height="24" viewBox="0 0 24 24" fill="none" xmlns="http://www.w3.org/2000/svg">
<path d="M20.8967 3.1032C20.4466 2.65327 19.8363 2.40051 19.1999 2.40051C18.5635 2.40051 17.9532 2.65327 17.5031 3.1032L8.3999 12.2064V15.6H11.7935L20.8967 6.4968C21.3466 6.04673 21.5994 5.43639 21.5994 4.8C21.5994 4.16361 21.3466 3.55327 20.8967 3.1032Z" fill="#2563EB"/>
<path fill-rule="evenodd" clip-rule="evenodd" d="M2.3999 7.19999C2.3999 6.56347 2.65276 5.95302 3.10285 5.50293C3.55293 5.05284 4.16338 4.79999 4.7999 4.79999H9.5999C9.91816 4.79999 10.2234 4.92642 10.4484 5.15146C10.6735 5.3765 10.7999 5.68173 10.7999 5.99999C10.7999 6.31825 10.6735 6.62347 10.4484 6.84852C10.2234 7.07356 9.91816 7.19999 9.5999 7.19999H4.7999V19.2H16.7999V14.4C16.7999 14.0817 16.9263 13.7765 17.1514 13.5515C17.3764 13.3264 17.6816 13.2 17.9999 13.2C18.3182 13.2 18.6234 13.3264 18.8484 13.5515C19.0735 13.7765 19.1999 14.0817 19.1999 14.4V19.2C19.1999 19.8365 18.947 20.447 18.497 20.897C18.0469 21.3471 17.4364 21.6 16.7999 21.6H4.7999C4.16338 21.6 3.55293 21.3471 3.10285 20.897C2.65276 20.447 2.3999 19.8365 2.3999 19.2V7.19999Z" fill="#2563EB"/>
</svg>
