<svg width="20" height="24" viewBox="0 0 20 24" fill="none" xmlns="http://www.w3.org/2000/svg">
<path d="M17.1872 3.52105H12.9091V3.47894C12.9091 2.67894 12.2674 2.04736 11.4545 2.04736H8.54545C7.73262 2.04736 7.09091 2.67894 7.09091 3.47894V3.52105H2.81283C2.36364 3.52105 2 3.87894 2 4.32105V5.12105C2 5.56315 2.36364 5.92105 2.81283 5.92105H17.1872C17.6364 5.92105 18 5.56315 18 5.12105V4.32105C18 3.87894 17.6364 3.52105 17.1872 3.52105Z" fill="#DC2626"/>
<path d="M16.126 6.92102H3.89074C3.65544 6.92102 3.48432 7.11049 3.50571 7.34207L4.10464 19.5315C4.16881 20.8789 5.3025 21.9526 6.67149 21.9526H13.3239C14.6929 21.9526 15.8266 20.9 15.8907 19.5315L16.4897 7.34207C16.5324 7.13155 16.3399 6.92102 16.126 6.92102ZM8.68218 18.6894C8.68218 19.0684 8.38272 19.3631 7.99769 19.3631C7.61266 19.3631 7.3132 19.0684 7.3132 18.6894V10.2052C7.3132 9.82628 7.61266 9.53155 7.99769 9.53155C8.38272 9.53155 8.68218 9.82628 8.68218 10.2052V18.6894ZM12.7036 18.6894C12.7036 19.0684 12.4041 19.3631 12.0191 19.3631C11.6341 19.3631 11.3346 19.0684 11.3346 18.6894V10.2052C11.3346 9.82628 11.6341 9.53155 12.0191 9.53155C12.4041 9.53155 12.7036 9.82628 12.7036 10.2052V18.6894Z" fill="#DC2626"/>
</svg>
