<svg width="20" height="24" viewBox="0 0 20 24" fill="none" xmlns="http://www.w3.org/2000/svg">
<path d="M17.1872 3.52105H12.9091V3.47894C12.9091 2.67894 12.2674 2.04736 11.4545 2.04736H8.54545C7.73262 2.04736 7.09091 2.67894 7.09091 3.47894V3.52105H2.81283C2.36364 3.52105 2 3.87894 2 4.32105V5.12105C2 5.56315 2.36364 5.92105 2.81283 5.92105H17.1872C17.6364 5.92105 18 5.56315 18 5.12105V4.32105C18 3.87894 17.6364 3.52105 17.1872 3.52105Z" fill="#DC2626"/>
<path d="M16.126 6.92114H3.89074C3.65544 6.92114 3.48432 7.11062 3.50571 7.3422L4.10464 19.5317C4.16881 20.879 5.3025 21.9527 6.67149 21.9527H13.3239C14.6929 21.9527 15.8266 20.9001 15.8907 19.5317L16.4897 7.3422C16.5324 7.13167 16.3399 6.92114 16.126 6.92114ZM8.68218 18.6896C8.68218 19.0685 8.38272 19.3632 7.99769 19.3632C7.61266 19.3632 7.3132 19.0685 7.3132 18.6896V10.2054C7.3132 9.82641 7.61266 9.53167 7.99769 9.53167C8.38272 9.53167 8.68218 9.82641 8.68218 10.2054V18.6896ZM12.7036 18.6896C12.7036 19.0685 12.4041 19.3632 12.0191 19.3632C11.6341 19.3632 11.3346 19.0685 11.3346 18.6896V10.2054C11.3346 9.82641 11.6341 9.53167 12.0191 9.53167C12.4041 9.53167 12.7036 9.82641 12.7036 10.2054V18.6896Z" fill="#DC2626"/>
</svg>
