<svg width="55" height="55" viewBox="0 0 55 55" fill="none" xmlns="http://www.w3.org/2000/svg">
<path d="M50 27.5C50 30.4547 49.418 33.3806 48.2873 36.1104C47.1566 38.8402 45.4992 41.3206 43.4099 43.4099C41.3206 45.4992 38.8402 47.1566 36.1104 48.2873C33.3806 49.418 30.4547 50 27.5 50C24.5453 50 21.6194 49.418 18.8896 48.2873C16.1598 47.1566 13.6794 45.4992 11.5901 43.4099C9.50078 41.3206 7.84344 38.8402 6.71271 36.1104C5.58198 33.3806 5 30.4547 5 27.5C5 21.5326 7.37053 15.8097 11.5901 11.5901C15.8097 7.37053 21.5326 5 27.5 5C33.4674 5 39.1903 7.37053 43.4099 11.5901C47.6295 15.8097 50 21.5326 50 27.5Z" fill="#FF8F00"/>
<path d="M27.5 20V27.5M27.5 27.5V35M27.5 27.5H35M27.5 27.5H20M50 27.5C50 30.4547 49.418 33.3806 48.2873 36.1104C47.1566 38.8402 45.4992 41.3206 43.4099 43.4099C41.3206 45.4992 38.8402 47.1566 36.1104 48.2873C33.3806 49.418 30.4547 50 27.5 50C24.5453 50 21.6194 49.418 18.8896 48.2873C16.1598 47.1566 13.6794 45.4992 11.5901 43.4099C9.50078 41.3206 7.84344 38.8402 6.71271 36.1104C5.58198 33.3806 5 30.4547 5 27.5C5 21.5326 7.37053 15.8097 11.5901 11.5901C15.8097 7.37053 21.5326 5 27.5 5C33.4674 5 39.1903 7.37053 43.4099 11.5901C47.6295 15.8097 50 21.5326 50 27.5Z" stroke="white" stroke-width="2" stroke-linecap="round" stroke-linejoin="round"/>
<rect x="1" y="1" width="53" height="53" rx="26.5" stroke="#FF8F00" stroke-width="2" stroke-dasharray="5 5"/>
</svg>
