<svg width="24" height="20" viewBox="0 0 24 20" fill="none" xmlns="http://www.w3.org/2000/svg">
<path d="M12 12L11.5144 12.8742L12 13.144L12.4856 12.8742L12 12ZM21 7L21.4856 7.87416L23.0591 7L21.4856 6.12584L21 7ZM12 2L12.4856 1.12584L12 0.856041L11.5144 1.12584L12 2ZM3 7L2.51436 6.12584L0.940874 7L2.51436 7.87416L3 7ZM18.16 8.578L19.0904 8.21157L18.6722 7.14953L17.6744 7.70383L18.16 8.578ZM18.825 15.057L18.9216 16.0523L19.681 15.9786L19.8105 15.2268L18.825 15.057ZM12 18.055L11.3324 18.7995L12 19.3982L12.6676 18.7995L12 18.055ZM5.176 15.057L4.19054 15.2269L4.32012 15.9786L5.0793 16.0523L5.176 15.057ZM7 18C7 18.5523 7.44772 19 8 19C8.55228 19 9 18.5523 9 18H7ZM8 10.5L7.51439 9.62582C7.19691 9.80219 7 10.1368 7 10.5H8ZM12.4856 9.15218C12.9684 8.88399 13.1424 8.27519 12.8742 7.79239C12.606 7.3096 11.9972 7.13563 11.5144 7.40382L12.4856 9.15218ZM12.4856 12.8742L21.4856 7.87416L20.5144 6.12584L11.5144 11.1258L12.4856 12.8742ZM21.4856 6.12584L12.4856 1.12584L11.5144 2.87416L20.5144 7.87416L21.4856 6.12584ZM11.5144 1.12584L2.51436 6.12584L3.48564 7.87416L12.4856 2.87416L11.5144 1.12584ZM2.51436 7.87416L11.5144 12.8742L12.4856 11.1258L3.48564 6.12584L2.51436 7.87416ZM12.4856 12.8742L18.6456 9.45217L17.6744 7.70383L11.5144 11.1258L12.4856 12.8742ZM17.2296 8.94443C17.973 10.8322 18.184 12.8878 17.8395 14.8872L19.8105 15.2268C20.2171 12.8665 19.968 10.44 19.0904 8.21157L17.2296 8.94443ZM18.7284 14.0617C15.9797 14.3285 13.3883 15.4668 11.3324 17.3105L12.6676 18.7995C14.4061 17.2405 16.5974 16.2779 18.9216 16.0523L18.7284 14.0617ZM12.6676 17.3105C10.612 15.467 8.02097 14.3287 5.2727 14.0617L5.0793 16.0523C7.4032 16.2781 9.59412 17.2406 11.3324 18.7995L12.6676 17.3105ZM6.16146 14.8871C5.81678 12.8878 6.02776 10.8322 6.7714 8.94454L4.9106 8.21146C4.0327 10.4399 3.78362 12.8666 4.19054 15.2269L6.16146 14.8871ZM5.35532 9.45214L11.5143 12.8741L12.4857 11.1259L6.32668 7.70386L5.35532 9.45214ZM2.51444 7.8742L5.35544 9.4522L6.32656 7.7038L3.48556 6.1258L2.51444 7.8742ZM5.35528 9.45211L8.16431 11.013L9.13575 9.26479L6.32672 7.70389L5.35528 9.45211ZM8.16439 11.0131L11.5144 12.8742L12.4856 11.1258L9.13568 9.26475L8.16439 11.0131ZM12.6676 17.3105C11.3974 16.1714 9.92279 15.3015 8.33298 14.7401L7.66702 16.626C9.01138 17.1007 10.2583 17.8363 11.3324 18.7995L12.6676 17.3105ZM8.33298 14.7401C7.34991 14.3929 6.32276 14.1637 5.2727 14.0617L5.0793 16.0523C5.96725 16.1386 6.83575 16.3324 7.66702 16.626L8.33298 14.7401ZM6.77098 8.94561C6.77098 8.94561 6.77098 8.94561 6.77098 8.94561C6.77098 8.94561 6.77098 8.94561 6.77098 8.94561C6.77098 8.94561 6.77098 8.94561 6.77098 8.94561C6.77098 8.94561 6.77098 8.94561 6.77098 8.94561C6.77098 8.94561 6.77098 8.94561 6.77098 8.94561C6.77098 8.94561 6.77098 8.94561 6.77098 8.94561C6.77098 8.94561 6.77098 8.94561 6.77098 8.94561C6.77098 8.94561 6.77098 8.94561 6.77098 8.94561C6.77098 8.94561 6.77098 8.94561 6.77098 8.94561C6.77098 8.94561 6.77098 8.94561 6.77098 8.9456C6.77098 8.9456 6.77098 8.9456 6.77098 8.9456C6.77098 8.9456 6.77098 8.9456 6.77098 8.9456C6.77098 8.9456 6.77098 8.9456 6.77098 8.9456C6.77098 8.9456 6.77098 8.9456 6.77098 8.9456C6.77098 8.9456 6.77098 8.9456 6.77098 8.9456C6.77098 8.9456 6.77098 8.9456 6.77098 8.9456C6.77098 8.9456 6.77098 8.9456 6.77098 8.9456C6.77098 8.9456 6.77098 8.9456 6.77098 8.9456C6.77098 8.9456 6.77098 8.9456 6.77098 8.9456C6.77098 8.9456 6.77098 8.9456 6.77098 8.9456C6.77098 8.9456 6.77098 8.9456 6.77098 8.9456C6.77098 8.9456 6.77098 8.9456 6.77098 8.9456C6.77098 8.9456 6.77098 8.9456 6.77098 8.9456C6.77098 8.9456 6.77098 8.9456 6.77098 8.9456C6.77098 8.9456 6.77098 8.9456 6.77098 8.9456C6.77098 8.9456 6.77098 8.9456 6.77098 8.9456C6.77098 8.9456 6.77098 8.9456 6.77098 8.9456C6.77099 8.9456 6.77099 8.9456 6.77099 8.9456C6.77099 8.9456 6.77099 8.9456 6.77099 8.9456C6.77099 8.9456 6.77099 8.9456 6.77099 8.9456C6.77099 8.9456 6.77099 8.9456 6.77099 8.9456C6.77099 8.9456 6.77099 8.9456 6.77099 8.9456C6.77099 8.9456 6.77099 8.9456 6.77099 8.9456C6.77099 8.9456 6.77099 8.9456 6.77099 8.9456C6.77099 8.9456 6.77099 8.9456 6.77099 8.94559C6.77099 8.94559 6.77099 8.94559 6.77099 8.94559C6.77099 8.94559 6.77099 8.94559 6.77099 8.94559C6.77099 8.94559 6.77099 8.94559 6.77099 8.94559C6.77099 8.94559 6.77099 8.94559 6.77099 8.94559C6.77099 8.94559 6.77099 8.94559 6.77099 8.94559C6.77099 8.94559 6.77099 8.94559 6.77099 8.94559C6.77099 8.94559 6.77099 8.94559 6.77099 8.94559C6.77099 8.94559 6.77099 8.94559 6.77099 8.94559C6.77099 8.94559 6.77099 8.94559 6.77099 8.94559C6.77099 8.94559 6.77099 8.94559 6.77099 8.94559C6.77099 8.94559 6.77099 8.94559 6.77099 8.94559C6.77099 8.94559 6.77099 8.94559 6.77099 8.94559C6.77099 8.94559 6.77099 8.94559 6.77099 8.94559C6.77099 8.94559 6.77099 8.94559 6.77099 8.94559C6.77099 8.94559 6.77099 8.94559 6.77099 8.94559C6.77099 8.94559 6.77099 8.94559 6.77099 8.94559C6.77099 8.94559 6.77099 8.94559 6.77099 8.94559C6.77099 8.94559 6.77099 8.94559 6.77099 8.94559C6.77099 8.94559 6.77099 8.94559 6.77099 8.94559C6.77099 8.94559 6.77099 8.94559 6.77099 8.94559C6.77099 8.94559 6.77099 8.94559 6.77099 8.94559C6.77099 8.94559 6.77099 8.94559 6.77099 8.94559C6.77099 8.94559 6.77099 8.94559 6.77099 8.94559C6.77099 8.94559 6.77099 8.94559 6.77099 8.94559C6.77099 8.94559 6.77099 8.94559 6.77099 8.94559C6.77099 8.94559 6.77099 8.94559 6.77099 8.94559C6.77099 8.94559 6.77099 8.94559 6.77099 8.94559C6.77099 8.94559 6.77099 8.94559 6.77099 8.94559C6.77099 8.94559 6.77099 8.94559 6.77099 8.94559C6.77099 8.94559 6.77099 8.94559 6.77099 8.94559C6.77099 8.94559 6.77099 8.94559 6.77099 8.94559C6.77099 8.94559 6.77099 8.94559 6.77099 8.94559C6.77099 8.94559 6.77099 8.94559 6.77099 8.94559C6.77099 8.94559 6.77099 8.94559 6.77099 8.94559C6.77099 8.94559 6.77099 8.94559 6.77099 8.94559C6.77099 8.94559 6.77099 8.94559 6.77099 8.94559C6.77099 8.94559 6.77099 8.94559 6.77099 8.94559C6.77099 8.94559 6.77099 8.94559 6.77099 8.94559C6.77099 8.94559 6.77099 8.94559 6.77099 8.94559C6.77099 8.94559 6.77099 8.94559 6.77099 8.94559C6.77099 8.94559 6.77099 8.94559 6.77099 8.94559C6.77099 8.94559 6.77099 8.94559 6.77099 8.94559C6.77099 8.94559 6.77099 8.94559 6.77099 8.94559C6.77099 8.94559 6.77099 8.94559 6.77099 8.94559C6.77099 8.94559 6.77099 8.94559 6.77099 8.94559C6.77099 8.94559 6.77099 8.94559 6.77099 8.94559C6.77099 8.94559 6.77099 8.94559 6.77099 8.94559C6.77099 8.94558 6.77099 8.94558 6.77099 8.94558C6.77099 8.94558 6.77099 8.94558 6.77099 8.94558C6.77099 8.94558 6.77099 8.94558 6.77099 8.94558C6.77099 8.94558 6.77099 8.94558 6.77099 8.94558C6.77099 8.94558 6.77099 8.94558 6.77099 8.94558C6.77099 8.94558 6.77099 8.94558 6.77099 8.94558C6.77099 8.94558 6.77099 8.94558 6.77099 8.94558C6.77099 8.94558 6.77099 8.94558 6.77099 8.94558C6.77099 8.94558 6.77099 8.94558 6.77099 8.94558C6.77099 8.94558 6.77099 8.94558 6.77099 8.94558C6.77099 8.94558 6.77099 8.94558 6.77099 8.94558C6.77099 8.94558 6.77099 8.94558 6.77099 8.94558C6.77099 8.94558 6.77099 8.94558 6.77099 8.94558C6.77099 8.94558 6.77099 8.94558 6.77099 8.94558C6.77099 8.94558 6.77099 8.94558 6.77099 8.94558C6.77099 8.94558 6.77099 8.94558 6.77099 8.94558C6.77099 8.94558 6.77099 8.94558 6.77099 8.94558C6.77099 8.94558 6.77099 8.94558 6.77099 8.94558C6.77099 8.94558 6.77099 8.94558 6.77099 8.94558C6.77099 8.94558 6.77099 8.94558 6.77099 8.94558C6.77099 8.94558 6.77099 8.94558 6.77099 8.94558C6.77099 8.94558 6.77099 8.94558 6.77099 8.94558C6.77099 8.94558 6.77099 8.94558 6.77099 8.94558C6.77099 8.94558 6.77099 8.94558 6.77099 8.94558C6.77099 8.94558 6.77099 8.94558 6.77099 8.94558C6.77099 8.94558 6.77099 8.94558 6.77099 8.94558C4.94658 8.13076 4.91103 8.21036 4.91103 8.21036C4.91103 8.21036 4.91103 8.21036 4.91103 8.21036C4.91103 8.21036 4.91103 8.21036 4.91103 8.21036C4.91103 8.21036 4.91103 8.21036 4.91103 8.21036C4.91103 8.21036 4.91103 8.21036 4.91103 8.21036C4.91103 8.21036 4.91103 8.21036 4.91103 8.21036C4.91103 8.21036 4.91103 8.21036 4.91103 8.21036C4.91103 8.21036 4.91103 8.21036 4.91103 8.21036C4.91103 8.21036 4.91103 8.21036 4.91103 8.21036C4.91103 8.21036 4.91103 8.21036 4.91103 8.21036C4.91103 8.21036 4.91103 8.21036 4.91103 8.21036C4.91103 8.21036 4.91103 8.21036 4.91103 8.21036C4.91103 8.21036 4.91103 8.21036 4.91103 8.21036C4.91103 8.21036 4.91103 8.21036 4.91103 8.21036C4.91103 8.21036 4.91103 8.21036 4.91103 8.21036C4.91103 8.21036 4.91103 8.21036 4.91103 8.21036C4.91103 8.21036 4.91103 8.21036 4.91103 8.21036C4.91103 8.21036 4.91103 8.21036 4.91103 8.21036C4.91103 8.21036 4.91103 8.21036 4.91103 8.21036C4.91103 8.21036 4.91103 8.21036 4.91103 8.21036C4.91103 8.21036 4.91103 8.21036 4.91103 8.21036C4.91103 8.21036 4.91103 8.21036 4.91103 8.21036C4.91103 8.21036 4.91103 8.21036 4.91103 8.21036C4.91103 8.21036 4.91103 8.21036 4.91103 8.21036C4.91103 8.21036 4.91103 8.21036 4.91103 8.21036C4.91103 8.21036 4.91103 8.21036 4.91103 8.21036C4.91103 8.21037 4.91103 8.21037 4.91103 8.21037C4.91103 8.21037 4.91103 8.21037 4.91103 8.21037C4.91103 8.21037 4.91103 8.21037 4.91103 8.21037C4.91103 8.21037 4.91103 8.21037 4.91103 8.21037C4.91103 8.21037 4.91103 8.21037 4.91103 8.21037C4.91103 8.21037 4.91103 8.21037 4.91103 8.21037C4.91103 8.21037 4.91103 8.21037 4.91103 8.21037C4.91103 8.21037 4.91103 8.21037 4.91103 8.21037C4.91103 8.21037 4.91103 8.21037 4.91103 8.21037C4.91103 8.21037 4.91103 8.21037 4.91103 8.21037C4.91103 8.21037 4.91103 8.21037 4.91103 8.21037C4.91103 8.21037 4.91103 8.21037 4.91103 8.21037C4.91103 8.21037 4.91103 8.21037 4.91103 8.21037C4.91103 8.21037 4.91103 8.21037 4.91103 8.21037C4.91103 8.21037 4.91103 8.21037 4.91103 8.21037C4.91103 8.21037 4.91103 8.21037 4.91103 8.21037C4.91103 8.21037 4.91103 8.21037 4.91103 8.21037C4.91103 8.21037 4.91103 8.21037 4.91103 8.21037C4.91103 8.21037 4.91103 8.21037 4.91103 8.21037C4.91103 8.21037 4.91103 8.21037 4.91103 8.21037C4.91103 8.21037 4.91103 8.21037 4.91103 8.21037C4.91103 8.21037 4.91103 8.21037 4.91103 8.21037C4.91103 8.21037 4.91103 8.21037 4.91103 8.21037C4.91103 8.21037 4.91103 8.21037 4.91103 8.21037C4.91103 8.21037 4.91103 8.21037 4.91103 8.21037C4.91103 8.21037 4.91103 8.21037 4.91103 8.21037C4.91103 8.21037 4.91103 8.21037 4.91103 8.21037C4.91103 8.21037 4.91103 8.21037 4.91103 8.21037C4.91103 8.21037 4.91103 8.21037 4.91103 8.21037C4.91103 8.21037 4.91103 8.21037 4.91103 8.21037C4.91103 8.21037 4.91103 8.21037 4.91103 8.21037C4.91103 8.21037 4.91103 8.21037 4.91103 8.21037C4.91103 8.21037 4.91103 8.21037 4.91103 8.21037C4.91103 8.21037 4.91103 8.21037 4.91103 8.21037C4.91103 8.21037 4.91103 8.21037 4.91103 8.21037C4.91103 8.21037 4.91103 8.21037 4.91103 8.21037C4.91103 8.21037 4.91103 8.21037 4.91103 8.21037C4.91103 8.21037 4.91103 8.21037 4.91103 8.21037C4.91103 8.21037 4.91103 8.21037 4.91103 8.21037C4.91103 8.21037 4.91103 8.21037 4.91103 8.21037C4.91103 8.21037 4.91103 8.21037 4.91103 8.21037C4.91103 8.21037 4.91103 8.21037 4.91103 8.21037C4.91103 8.21037 4.91103 8.21037 4.91103 8.21037C4.91103 8.21037 4.91103 8.21037 4.91103 8.21037C4.91103 8.21037 4.91103 8.21037 4.91103 8.21037C4.91103 8.21037 4.91103 8.21037 4.91103 8.21037C4.91103 8.21037 4.91103 8.21037 4.91103 8.21037C4.91103 8.21037 4.91103 8.21037 4.91103 8.21037C4.91103 8.21037 4.91103 8.21037 4.91103 8.21037C4.91103 8.21037 4.91103 8.21037 4.91103 8.21037C4.91103 8.21037 4.91103 8.21037 4.91103 8.21037C4.91103 8.21037 4.91103 8.21037 4.91103 8.21037C4.91103 8.21037 4.91103 8.21037 4.91103 8.21037C4.91103 8.21037 4.91103 8.21037 4.91103 8.21037C4.91103 8.21037 4.91103 8.21037 4.91103 8.21037C4.91103 8.21037 4.91103 8.21037 4.91103 8.21037C4.91103 8.21037 4.91103 8.21037 4.91103 8.21037C4.91103 8.21037 4.91103 8.21037 4.91103 8.21037C4.91103 8.21037 4.91103 8.21037 4.91103 8.21037C4.91103 8.21037 4.91103 8.21037 4.91103 8.21037C4.91103 8.21037 4.91103 8.21037 4.91103 8.21037C4.91103 8.21037 4.91103 8.21037 4.91103 8.21038C4.91103 8.21038 4.91103 8.21038 4.91103 8.21038C4.91103 8.21038 4.91103 8.21038 4.91103 8.21038C4.91103 8.21038 4.91103 8.21038 4.91103 8.21038C4.91103 8.21038 4.91103 8.21038 4.91103 8.21038C4.91103 8.21038 4.91103 8.21038 4.91103 8.21038C4.91103 8.21038 4.91103 8.21038 4.91103 8.21038C4.91103 8.21038 4.91103 8.21038 4.91103 8.21038C4.91103 8.21038 4.91103 8.21038 4.91103 8.21038C4.91103 8.21038 4.91103 8.21038 4.91103 8.21038C4.91103 8.21038 4.91103 8.21038 4.91103 8.21038C4.91103 8.21038 4.91103 8.21038 4.91102 8.21038C4.91102 8.21038 4.91102 8.21038 4.91102 8.21038C4.91102 8.21038 4.91102 8.21038 4.91102 8.21038C4.91102 8.21038 4.91102 8.21038 4.91102 8.21038C4.91102 8.21038 4.91102 8.21038 4.91102 8.21038C4.91102 8.21038 4.91102 8.21038 4.91102 8.21038C4.91102 8.21038 4.91102 8.21038 4.91102 8.21038C4.91102 8.21038 4.91102 8.21038 4.91102 8.21038C4.91102 8.21038 4.91102 8.21038 4.91102 8.21038C4.91102 8.21038 4.91102 8.21038 4.91102 8.21038C4.91102 8.21038 4.91102 8.21038 4.91102 8.21038C4.91102 8.21038 4.91102 8.21038 4.91102 8.21038C4.91102 8.21038 4.91102 8.21038 4.91102 8.21038C4.91102 8.21038 4.91102 8.21038 4.91102 8.21038C4.91102 8.21038 4.91102 8.21038 4.91102 8.21038C4.91102 8.21038 4.91102 8.21038 4.91102 8.21038C4.91102 8.21038 4.91102 8.21038 4.91102 8.21038C4.91102 8.21038 4.91102 8.21038 4.91102 8.21038C4.91102 8.21038 4.91102 8.21038 4.91102 8.21038C4.91102 8.21038 4.91102 8.21038 4.91102 8.21038C4.91102 8.21038 4.91102 8.21038 4.91102 8.21038C4.91102 8.21038 4.91102 8.21038 4.91102 8.21038C4.91102 8.21038 4.91102 8.21038 4.91102 8.21038C4.91102 8.21038 4.91102 8.21038 4.91102 8.21038C4.91102 8.21038 4.91102 8.21038 4.91102 8.21038C4.91102 8.21038 4.91102 8.21038 4.91102 8.21038C4.91102 8.21038 4.91102 8.21038 4.91102 8.21038C4.91102 8.21038 4.91102 8.21038 4.91102 8.21038C4.91102 8.21038 4.91102 8.21038 4.91102 8.21038C4.91102 8.21038 4.91102 8.21038 4.91102 8.21038C4.91102 8.21038 4.91102 8.21039 4.91102 8.21039C4.91102 8.21039 4.91102 8.21039 4.91102 8.21039C4.91102 8.21039 4.91102 8.21039 4.91102 8.21039C4.91102 8.21039 4.91102 8.21039 4.91102 8.21039C4.91102 8.21039 4.91102 8.21039 4.91102 8.21039C4.91102 8.21039 4.91102 8.21039 4.91102 8.21039C4.91102 8.21039 4.91102 8.21039 4.91102 8.21039C4.91102 8.21039 4.91102 8.21039 4.91102 8.21039C4.91102 8.21039 4.91102 8.21039 4.91102 8.21039C4.91102 8.21039 4.91102 8.21039 4.91102 8.21039C4.91102 8.21039 4.91102 8.21039 4.91102 8.21039C4.91102 8.21039 4.91102 8.21039 4.91102 8.21039C4.91102 8.21039 4.91102 8.21039 4.91102 8.21039C4.91102 8.21039 4.91102 8.21039 4.91102 8.21039C4.91102 8.21039 4.91102 8.21039 4.91102 8.21039C4.91102 8.21039 4.91102 8.21039 4.91102 8.21039C4.91102 8.21039 4.91102 8.21039 4.91102 8.21039C4.91102 8.21039 4.91102 8.21039 4.91102 8.21039C4.91102 8.21039 4.91102 8.21039 4.91102 8.21039C4.91102 8.21039 4.91102 8.21039 4.91102 8.21039C4.91102 8.21039 4.91102 8.21039 4.91102 8.21039C4.91102 8.21039 4.91102 8.21039 4.91102 8.21039C4.91102 8.21039 4.91102 8.21039 4.91102 8.21039C4.91102 8.21039 4.91102 8.21039 4.91102 8.21039C4.91102 8.21039 4.91102 8.21039 4.91102 8.21039C4.91102 8.21039 4.91102 8.21039 4.91102 8.21039C4.91102 8.21039 4.91102 8.21039 4.91102 8.21039C4.91102 8.21039 4.91102 8.21039 4.91102 8.21039C4.91102 8.21039 4.91102 8.21039 4.91102 8.21039C4.91102 8.21039 4.91102 8.21039 4.91102 8.21039C4.91102 8.21039 4.91102 8.21039 4.91102 8.21039C4.91102 8.21039 4.91102 8.21039 4.91102 8.21039C4.91102 8.21039 4.91102 8.21039 4.91102 8.21039C4.91102 8.21039 4.91102 8.21039 4.91102 8.21039C4.91102 8.21039 4.91102 8.21039 4.91102 8.21039C4.91102 8.21039 4.91102 8.21039 4.91102 8.21039C4.91102 8.21039 4.91102 8.21039 4.91102 8.21039C4.91102 8.21039 4.91102 8.21039 4.91102 8.21039C4.91102 8.2104 4.91102 8.2104 4.91102 8.2104C4.91102 8.2104 4.91102 8.2104 4.91102 8.2104C4.91102 8.2104 4.91102 8.2104 4.91102 8.2104C4.91102 8.2104 4.91102 8.2104 4.91102 8.2104C4.91102 8.2104 4.91102 8.2104 4.91102 8.2104C4.91102 8.2104 4.91102 8.2104 4.91102 8.2104C4.91102 8.2104 4.91102 8.2104 4.91102 8.2104C4.91102 8.2104 4.91102 8.2104 4.91102 8.2104C4.91102 8.2104 4.91102 8.2104 4.91102 8.2104C4.91102 8.2104 4.91102 8.2104 4.91102 8.2104C4.91102 8.2104 4.91102 8.2104 4.91102 8.2104C4.91102 8.2104 4.91102 8.2104 4.91102 8.2104C4.91102 8.2104 4.91102 8.2104 4.91102 8.2104C4.91102 8.2104 4.91102 8.2104 4.91102 8.2104C4.91102 8.2104 4.91102 8.2104 4.91102 8.2104C4.91102 8.2104 4.91102 8.2104 4.91102 8.2104C4.91102 8.2104 4.91102 8.2104 4.91102 8.2104C4.91102 8.2104 4.91102 8.2104 4.91102 8.2104C4.91102 8.2104 4.91102 8.2104 4.91102 8.2104C4.91102 8.2104 4.91102 8.2104 4.91102 8.2104C4.91102 8.2104 4.91102 8.2104 4.91102 8.2104C4.91102 8.2104 4.91102 8.2104 4.91102 8.2104C4.91102 8.2104 4.91102 8.2104 4.91102 8.2104C4.91102 8.2104 4.91102 8.2104 4.91102 8.2104C4.91102 8.2104 4.91102 8.2104 4.91102 8.2104C4.91102 8.2104 4.91102 8.2104 4.91102 8.2104C4.91102 8.2104 4.91102 8.2104 4.91102 8.2104C4.91102 8.2104 4.91102 8.2104 4.91102 8.2104C4.91102 8.2104 4.91102 8.2104 4.91102 8.2104C4.91102 8.2104 4.91102 8.2104 4.91102 8.2104C4.91102 8.2104 4.91102 8.2104 4.91102 8.2104C4.91101 8.2104 4.91101 8.2104 4.91101 8.2104C4.91101 8.2104 4.91101 8.2104 4.91101 8.2104C4.91101 8.2104 4.91101 8.2104 4.91101 8.2104C4.91101 8.2104 4.91101 8.2104 4.91101 8.2104C4.91101 8.2104 4.91101 8.2104 4.91101 8.2104C4.91101 8.2104 4.91101 8.2104 4.91101 8.2104C4.91101 8.2104 4.91101 8.2104 4.91101 8.2104C4.91101 8.2104 4.91101 8.2104 4.91101 8.2104C4.91101 8.2104 4.91101 8.2104 4.91101 8.2104C4.91101 8.2104 4.91101 8.2104 4.91101 8.21041C4.91101 8.21041 4.91101 8.21041 4.91101 8.21041C4.91101 8.21041 4.91101 8.21041 4.91101 8.21041C4.91101 8.21041 4.91101 8.21041 4.91101 8.21041C4.91101 8.21041 4.91101 8.21041 4.91101 8.21041C4.91101 8.21041 4.91101 8.21041 4.91101 8.21041C4.91101 8.21041 4.91101 8.21041 4.91101 8.21041C4.91101 8.21041 4.91101 8.21041 4.91101 8.21041C4.91101 8.21041 4.91101 8.21041 4.91101 8.21041C4.91101 8.21041 4.91101 8.21041 4.91101 8.21041C4.91101 8.21041 4.91101 8.21041 4.91101 8.21041C4.91101 8.21041 4.91101 8.21041 4.91101 8.21041C4.91101 8.21041 4.91101 8.21041 4.91101 8.21041C4.91101 8.21041 4.91101 8.21041 4.91101 8.21041C4.91101 8.21041 4.91101 8.21041 4.91101 8.21041C4.91101 8.21041 4.91101 8.21041 4.91101 8.21041C4.91101 8.21041 4.91101 8.21041 4.91101 8.21041C4.91101 8.21041 4.91101 8.21041 4.91101 8.21041C4.91101 8.21041 4.91101 8.21041 4.91101 8.21041C4.91101 8.21041 4.91101 8.21041 4.91101 8.21041C4.91101 8.21041 4.91101 8.21041 4.91101 8.21041C4.91101 8.21041 4.91101 8.21041 4.91101 8.21041C4.91101 8.21041 4.91101 8.21041 4.91101 8.21041C4.91101 8.21041 4.91101 8.21041 4.91101 8.21041C4.91101 8.21041 4.91101 8.21041 4.91101 8.21041C4.91101 8.21041 4.91101 8.21041 4.91101 8.21041C4.91101 8.21041 4.91101 8.21041 4.91101 8.21041C4.91101 8.21041 4.91101 8.21041 4.91101 8.21041C4.91101 8.21041 4.91101 8.21041 4.91101 8.21041C4.91101 8.21041 4.91101 8.21041 4.91101 8.21041C4.91101 8.21041 4.91101 8.21041 4.91101 8.21041C4.91101 8.21041 4.91101 8.21041 4.91101 8.21041C4.91101 8.21041 4.91101 8.21041 4.91101 8.21041C4.91101 8.21041 4.91101 8.21041 4.91101 8.21041C4.91101 8.21041 4.91101 8.21041 4.91101 8.21041C4.91101 8.21041 4.91101 8.21041 4.91101 8.21041C4.91101 8.21041 4.91101 8.21041 4.91101 8.21041C4.91101 8.21041 4.91101 8.21041 4.91101 8.21041C4.91101 8.21041 4.91101 8.21041 4.91101 8.21041C4.91101 8.21041 4.91101 8.21041 4.91101 8.21041C4.91101 8.21041 4.91101 8.21041 4.91101 8.21041C4.91101 8.21041 4.91101 8.21041 4.91101 8.21041C4.91101 8.21041 4.91101 8.21041 4.91101 8.21041C4.91101 8.21041 4.91101 8.21041 4.91101 8.21041C4.91101 8.21041 4.91101 8.21041 4.91101 8.21041C4.91101 8.21041 4.91101 8.21041 4.91101 8.21041C4.91101 8.21041 4.91101 8.21041 4.91101 8.21041C4.91101 8.21041 4.91101 8.21041 4.91101 8.21041C4.91101 8.21041 4.91101 8.21041 4.91101 8.21041C4.91101 8.21041 4.91101 8.21041 4.91101 8.21041C4.91101 8.21041 4.91101 8.21041 4.91101 8.21041C4.91101 8.21041 4.91101 8.21041 4.91101 8.21041C4.91101 8.21041 4.91101 8.21041 4.91101 8.21041C4.91101 8.21041 4.91101 8.21041 4.91101 8.21041C4.91101 8.21041 4.91101 8.21041 4.91101 8.21041C4.91101 8.21041 4.91101 8.21041 4.91101 8.21041C4.91101 8.21041 4.91101 8.21041 4.91101 8.21041C4.91101 8.21041 4.91101 8.21041 4.91101 8.21041C4.91101 8.21041 4.91101 8.21041 4.91101 8.21041C4.91101 8.21041 4.91101 8.21041 4.91101 8.21041C4.91101 8.21041 4.91101 8.21042 4.91101 8.21042C4.91101 8.21042 4.91101 8.21042 4.91101 8.21042C4.91101 8.21042 4.91101 8.21042 4.91101 8.21042C4.91101 8.21042 4.91101 8.21042 4.91101 8.21042C4.91101 8.21042 4.91101 8.21042 4.91101 8.21042C4.91101 8.21042 4.91101 8.21042 4.91101 8.21042C4.91101 8.21042 4.91101 8.21042 4.91101 8.21042C4.91101 8.21042 4.91101 8.21042 4.91101 8.21042C4.91101 8.21042 4.91101 8.21042 4.91101 8.21042C4.91101 8.21042 4.91101 8.21042 4.91101 8.21042C4.91101 8.21042 4.91101 8.21042 4.91101 8.21042C4.91101 8.21042 4.91101 8.21042 4.91101 8.21042C4.91101 8.21042 4.91101 8.21042 4.91101 8.21042C4.91101 8.21042 4.91101 8.21042 4.91101 8.21042C4.91101 8.21042 4.91101 8.21042 4.91101 8.21042C4.91101 8.21042 4.91101 8.21042 4.91101 8.21042C4.91101 8.21042 4.91101 8.21042 4.91101 8.21042C4.91101 8.21042 4.91101 8.21042 4.91101 8.21042C4.91101 8.21042 4.91101 8.21042 4.91101 8.21042C4.91101 8.21042 4.91101 8.21042 4.91101 8.21042C4.91101 8.21042 4.91101 8.21042 4.91101 8.21042C4.91101 8.21042 4.91101 8.21042 4.91101 8.21042C4.91101 8.21042 4.91101 8.21042 4.91101 8.21042C4.91101 8.21042 4.91101 8.21042 4.91101 8.21042C4.91101 8.21042 4.91101 8.21042 4.91101 8.21042C4.91101 8.21042 4.91101 8.21042 4.91101 8.21042C4.91101 8.21042 4.91101 8.21042 4.91101 8.21042C4.91101 8.21042 4.91101 8.21042 4.91101 8.21042C4.91101 8.21042 4.91101 8.21042 4.91101 8.21042C4.91101 8.21042 4.94656 8.13081 6.77097 8.94564C6.77097 8.94564 6.77097 8.94564 6.77097 8.94564C6.77097 8.94564 6.77097 8.94564 6.77097 8.94564C6.77097 8.94564 6.77097 8.94564 6.77097 8.94564C6.77097 8.94564 6.77097 8.94564 6.77097 8.94564C6.77097 8.94564 6.77097 8.94564 6.77097 8.94564C6.77097 8.94564 6.77097 8.94564 6.77097 8.94564C6.77097 8.94564 6.77097 8.94564 6.77097 8.94564C6.77097 8.94564 6.77097 8.94564 6.77097 8.94564C6.77097 8.94564 6.77097 8.94564 6.77097 8.94564C6.77097 8.94564 6.77097 8.94564 6.77097 8.94564C6.77097 8.94564 6.77097 8.94564 6.77097 8.94564C6.77097 8.94564 6.77097 8.94564 6.77097 8.94564C6.77097 8.94564 6.77097 8.94564 6.77097 8.94564C6.77097 8.94564 6.77097 8.94564 6.77097 8.94564C6.77097 8.94564 6.77097 8.94564 6.77097 8.94564C6.77097 8.94564 6.77097 8.94564 6.77097 8.94564C6.77097 8.94564 6.77097 8.94564 6.77097 8.94564C6.77097 8.94564 6.77097 8.94564 6.77097 8.94564C6.77097 8.94564 6.77097 8.94564 6.77097 8.94564C6.77097 8.94564 6.77097 8.94564 6.77097 8.94564C6.77097 8.94564 6.77097 8.94564 6.77097 8.94564C6.77097 8.94564 6.77097 8.94564 6.77097 8.94564C6.77097 8.94564 6.77097 8.94564 6.77097 8.94564C6.77097 8.94564 6.77097 8.94564 6.77097 8.94564C6.77097 8.94564 6.77097 8.94564 6.77097 8.94564C6.77097 8.94564 6.77097 8.94564 6.77097 8.94563C6.77097 8.94563 6.77097 8.94563 6.77097 8.94563C6.77097 8.94563 6.77097 8.94563 6.77097 8.94563C6.77097 8.94563 6.77097 8.94563 6.77097 8.94563C6.77097 8.94563 6.77097 8.94563 6.77097 8.94563C6.77097 8.94563 6.77097 8.94563 6.77097 8.94563C6.77097 8.94563 6.77097 8.94563 6.77097 8.94563C6.77097 8.94563 6.77097 8.94563 6.77097 8.94563C6.77097 8.94563 6.77097 8.94563 6.77097 8.94563C6.77097 8.94563 6.77097 8.94563 6.77097 8.94563C6.77097 8.94563 6.77097 8.94563 6.77097 8.94563C6.77097 8.94563 6.77097 8.94563 6.77097 8.94563C6.77097 8.94563 6.77097 8.94563 6.77097 8.94563C6.77097 8.94563 6.77097 8.94563 6.77097 8.94563C6.77097 8.94563 6.77097 8.94563 6.77097 8.94563C6.77097 8.94563 6.77097 8.94563 6.77097 8.94563C6.77097 8.94563 6.77097 8.94563 6.77097 8.94563C6.77097 8.94563 6.77097 8.94563 6.77097 8.94563C6.77097 8.94563 6.77097 8.94563 6.77097 8.94563C6.77097 8.94563 6.77097 8.94563 6.77097 8.94563C6.77097 8.94563 6.77097 8.94563 6.77097 8.94563C6.77097 8.94563 6.77097 8.94563 6.77097 8.94563C6.77097 8.94563 6.77097 8.94563 6.77097 8.94563C6.77097 8.94563 6.77097 8.94563 6.77097 8.94563C6.77097 8.94563 6.77097 8.94563 6.77097 8.94563C6.77097 8.94563 6.77097 8.94563 6.77097 8.94563C6.77097 8.94563 6.77097 8.94563 6.77097 8.94563C6.77097 8.94563 6.77097 8.94563 6.77097 8.94563C6.77097 8.94563 6.77097 8.94563 6.77097 8.94563C6.77097 8.94563 6.77097 8.94563 6.77097 8.94563C6.77097 8.94563 6.77097 8.94563 6.77097 8.94563C6.77097 8.94563 6.77097 8.94563 6.77097 8.94563C6.77097 8.94563 6.77097 8.94563 6.77097 8.94563C6.77097 8.94563 6.77097 8.94563 6.77097 8.94563C6.77097 8.94563 6.77097 8.94563 6.77097 8.94563C6.77097 8.94563 6.77097 8.94563 6.77097 8.94563C6.77097 8.94563 6.77097 8.94563 6.77097 8.94563C6.77097 8.94563 6.77097 8.94563 6.77097 8.94563C6.77097 8.94563 6.77097 8.94563 6.77097 8.94563C6.77097 8.94563 6.77097 8.94563 6.77097 8.94563C6.77097 8.94563 6.77097 8.94563 6.77097 8.94563C6.77097 8.94563 6.77097 8.94563 6.77097 8.94563C6.77097 8.94563 6.77097 8.94563 6.77097 8.94563C6.77097 8.94563 6.77097 8.94563 6.77097 8.94563C6.77097 8.94563 6.77097 8.94563 6.77097 8.94563C6.77097 8.94563 6.77097 8.94563 6.77097 8.94563C6.77097 8.94563 6.77097 8.94563 6.77097 8.94563C6.77097 8.94563 6.77097 8.94563 6.77097 8.94563C6.77097 8.94562 6.77097 8.94562 6.77097 8.94562C6.77097 8.94562 6.77097 8.94562 6.77097 8.94562C6.77097 8.94562 6.77097 8.94562 6.77097 8.94562C6.77097 8.94562 6.77097 8.94562 6.77097 8.94562C6.77097 8.94562 6.77097 8.94562 6.77097 8.94562C6.77097 8.94562 6.77097 8.94562 6.77098 8.94562C6.77098 8.94562 6.77098 8.94562 6.77098 8.94562C6.77098 8.94562 6.77098 8.94562 6.77098 8.94562C6.77098 8.94562 6.77098 8.94562 6.77098 8.94562C6.77098 8.94562 6.77098 8.94562 6.77098 8.94562C6.77098 8.94562 6.77098 8.94562 6.77098 8.94562C6.77098 8.94562 6.77098 8.94562 6.77098 8.94562C6.77098 8.94562 6.77098 8.94562 6.77098 8.94562C6.77098 8.94562 6.77098 8.94562 6.77098 8.94562C6.77098 8.94562 6.77098 8.94562 6.77098 8.94562C6.77098 8.94562 6.77098 8.94562 6.77098 8.94562C6.77098 8.94562 6.77098 8.94562 6.77098 8.94562C6.77098 8.94562 6.77098 8.94562 6.77098 8.94562C6.77098 8.94562 6.77098 8.94562 6.77098 8.94562C6.77098 8.94562 6.77098 8.94562 6.77098 8.94562C6.77098 8.94562 6.77098 8.94562 6.77098 8.94562C6.77098 8.94562 6.77098 8.94562 6.77098 8.94562C6.77098 8.94562 6.77098 8.94562 6.77098 8.94562C6.77098 8.94562 6.77098 8.94562 6.77098 8.94562C6.77098 8.94562 6.77098 8.94562 6.77098 8.94562C6.77098 8.94561 6.77098 8.94561 6.77098 8.94561C6.77098 8.94561 6.77098 8.94561 6.77098 8.94561C6.77098 8.94561 6.77098 8.94561 6.77098 8.94561C6.77098 8.94561 6.77098 8.94561 6.77098 8.94561C6.77098 8.94561 6.77098 8.94561 6.77098 8.94561C6.77098 8.94561 6.77098 8.94561 6.77098 8.94561C6.77098 8.94561 6.77098 8.94561 6.77098 8.94561C6.77098 8.94561 6.77098 8.94561 6.77098 8.94561C6.77098 8.94561 6.77098 8.94561 6.77098 8.94561C6.77098 8.94561 6.77098 8.94561 6.77098 8.94561L4.91102 8.21039C4.91102 8.21039 4.91102 8.21039 4.91102 8.21039C4.91102 8.21039 4.91102 8.21039 4.91102 8.21039C4.91102 8.21039 4.91102 8.21039 4.91102 8.21039C4.91102 8.21039 4.91102 8.21039 4.91102 8.21039C4.91102 8.21039 4.91102 8.21039 4.91102 8.21039C4.91102 8.21039 4.91102 8.21039 4.91102 8.21039C4.91102 8.21039 4.91102 8.21039 4.91102 8.21039C4.91102 8.21039 4.91102 8.21039 4.91102 8.21039C4.91102 8.21039 4.91102 8.21039 4.91102 8.21039C4.91102 8.21039 4.91102 8.2104 4.91102 8.2104C4.91102 8.2104 4.91102 8.2104 4.91102 8.2104C4.91102 8.2104 4.91102 8.2104 4.91102 8.2104C4.91102 8.2104 4.91102 8.2104 4.91102 8.2104C4.91102 8.2104 4.91102 8.2104 4.91102 8.2104C4.91102 8.2104 4.91102 8.2104 4.91102 8.2104C4.91102 8.2104 4.91102 8.2104 4.91102 8.2104C4.91102 8.2104 4.91102 8.2104 4.91102 8.2104C4.91102 8.2104 4.91102 8.2104 4.91102 8.2104C4.91102 8.2104 4.91102 8.2104 4.91102 8.2104C4.91102 8.2104 4.91102 8.2104 4.91102 8.2104C4.91102 8.2104 4.91102 8.2104 4.91102 8.2104C4.91102 8.2104 4.91102 8.2104 4.91102 8.2104C4.91102 8.2104 4.91102 8.2104 4.91102 8.2104C4.91102 8.2104 4.91102 8.2104 4.91102 8.2104C4.91102 8.2104 4.91102 8.2104 4.91102 8.2104C4.91102 8.2104 4.91102 8.2104 4.91102 8.2104C4.91102 8.2104 4.91102 8.2104 4.91102 8.2104C4.91102 8.2104 4.91102 8.2104 4.91102 8.2104C4.91101 8.2104 4.91101 8.2104 4.91101 8.2104C4.91101 8.2104 4.91101 8.2104 4.91101 8.2104C4.91101 8.2104 4.91101 8.2104 4.91101 8.2104C4.91101 8.2104 4.91101 8.2104 4.91101 8.2104C4.91101 8.2104 4.91101 8.2104 4.91101 8.2104C4.91101 8.2104 4.91101 8.2104 4.91101 8.2104C4.91101 8.2104 4.91101 8.21041 4.91101 8.21041C4.91101 8.21041 4.91101 8.21041 4.91101 8.21041C4.91101 8.21041 4.91101 8.21041 4.91101 8.21041C4.91101 8.21041 4.91101 8.21041 4.91101 8.21041C4.91101 8.21041 4.91101 8.21041 4.91101 8.21041C4.91101 8.21041 4.91101 8.21041 4.91101 8.21041C4.91101 8.21041 4.91101 8.21041 4.91101 8.21041C4.91101 8.21041 4.91101 8.21041 4.91101 8.21041C4.91101 8.21041 4.91101 8.21041 4.91101 8.21041C4.91101 8.21041 4.91101 8.21041 4.91101 8.21041C4.91101 8.21041 4.91101 8.21041 4.91101 8.21041C4.91101 8.21041 4.91101 8.21041 4.91101 8.21041C4.91101 8.21041 4.91101 8.21041 4.91101 8.21041C4.91101 8.21041 4.91101 8.21041 4.91101 8.21041C4.91101 8.21041 4.91101 8.21041 4.91101 8.21041C4.91101 8.21041 4.91101 8.21041 4.91101 8.21041C4.91101 8.21041 4.91101 8.21041 4.91101 8.21041C4.91101 8.21041 4.91101 8.21041 4.91101 8.21041C4.91101 8.21041 4.91101 8.21041 4.91101 8.21041C4.91101 8.21041 4.91101 8.21041 4.91101 8.21041C4.91101 8.21041 4.91101 8.21041 4.91101 8.21041C4.91101 8.21041 4.91101 8.21041 4.91101 8.21041C4.91101 8.21041 4.91101 8.21041 4.91101 8.21041C4.91101 8.21041 4.91101 8.21041 4.91101 8.21041C4.91101 8.21041 4.91101 8.21041 4.91101 8.21041C4.91101 8.21041 4.91101 8.21041 4.91101 8.21041C4.91101 8.21041 4.91101 8.21041 4.91101 8.21041C4.91101 8.21041 4.91101 8.21041 4.91101 8.21041C4.91101 8.21041 4.91101 8.21041 4.91101 8.21041C4.91101 8.21041 4.91101 8.21041 4.91101 8.21041C4.91101 8.21041 4.91101 8.21041 4.91101 8.21041C4.91101 8.21041 4.91101 8.21041 4.91101 8.21041C4.91101 8.21041 4.91101 8.21041 4.91101 8.21041C4.91101 8.21041 4.91101 8.21041 4.91101 8.21041C4.91101 8.21041 4.91101 8.21041 4.91101 8.21041C4.91101 8.21041 4.91101 8.21041 4.91101 8.21041C4.91101 8.21041 4.91101 8.21041 4.91101 8.21041C4.91101 8.21041 4.91101 8.21041 4.91101 8.21041C4.91101 8.21041 4.91101 8.21041 4.91101 8.21041C4.91101 8.21041 4.91101 8.21041 4.91101 8.21041C4.91101 8.21041 4.91101 8.21041 4.91101 8.21041C4.91101 8.21041 4.91101 8.21041 4.91101 8.21041C4.91101 8.21041 4.91101 8.21041 4.91101 8.21041C4.91101 8.21041 4.91101 8.21041 4.91101 8.21041C4.91101 8.21041 4.91101 8.21041 4.91101 8.21041C4.91101 8.21041 4.91101 8.21041 4.91101 8.21041C4.91101 8.21041 4.91101 8.21041 4.91101 8.21042C4.91101 8.21042 4.91101 8.21042 4.91101 8.21042C4.91101 8.21042 4.91101 8.21042 4.91101 8.21042C4.91101 8.21042 4.91101 8.21042 4.91101 8.21042C4.91101 8.21042 4.91101 8.21042 4.91101 8.21042C4.91101 8.21042 4.91101 8.21042 4.91101 8.21042C4.91101 8.21042 4.91101 8.21042 4.91101 8.21042C4.91101 8.21042 4.91101 8.21042 4.91101 8.21042C4.91101 8.21042 4.91101 8.21042 4.91101 8.21042C4.91101 8.21042 4.91101 8.21042 4.91101 8.21042C4.91101 8.21042 4.91101 8.21042 4.91101 8.21042C4.91101 8.21042 4.91101 8.21042 4.91101 8.21042C4.91101 8.21042 4.91101 8.21042 4.91101 8.21042C4.91101 8.21042 4.91101 8.21042 4.91101 8.21042C4.91101 8.21042 4.91101 8.21042 4.91101 8.21042C4.91101 8.21042 4.91101 8.21042 4.91101 8.21042C4.91101 8.21042 4.91101 8.21042 4.91101 8.21042C4.91101 8.21042 4.91101 8.21042 4.91101 8.21042C4.91101 8.21042 4.91101 8.21042 4.91101 8.21042C4.91101 8.21042 4.91101 8.21042 4.91101 8.21042C4.91101 8.21042 4.91101 8.21042 4.91101 8.21042C4.91101 8.21042 4.91101 8.21042 4.91101 8.21042C4.91101 8.21042 4.91101 8.21042 4.91101 8.21042C4.91101 8.21042 4.91101 8.21042 4.91101 8.21042C4.91101 8.21042 4.91101 8.21042 4.91101 8.21042C4.91101 8.21042 4.91101 8.21042 4.91101 8.21042C4.91101 8.21042 4.91101 8.21042 4.91101 8.21042C4.91101 8.21042 4.91101 8.21042 4.91101 8.21042C6.73542 9.02524 6.77097 8.94564 6.77097 8.94564C6.77097 8.94564 6.77097 8.94564 6.77097 8.94564C6.77097 8.94564 6.77097 8.94564 6.77097 8.94564C6.77097 8.94564 6.77097 8.94564 6.77097 8.94564C6.77097 8.94564 6.77097 8.94564 6.77097 8.94564C6.77097 8.94564 6.77097 8.94564 6.77097 8.94564C6.77097 8.94564 6.77097 8.94564 6.77097 8.94564C6.77097 8.94564 6.77097 8.94564 6.77097 8.94564C6.77097 8.94564 6.77097 8.94564 6.77097 8.94564C6.77097 8.94564 6.77097 8.94564 6.77097 8.94564C6.77097 8.94564 6.77097 8.94564 6.77097 8.94564C6.77097 8.94564 6.77097 8.94564 6.77097 8.94564C6.77097 8.94564 6.77097 8.94564 6.77097 8.94564C6.77097 8.94564 6.77097 8.94564 6.77097 8.94564C6.77097 8.94564 6.77097 8.94564 6.77097 8.94564C6.77097 8.94564 6.77097 8.94564 6.77097 8.94564C6.77097 8.94564 6.77097 8.94564 6.77097 8.94564C6.77097 8.94564 6.77097 8.94564 6.77097 8.94564C6.77097 8.94564 6.77097 8.94564 6.77097 8.94564C6.77097 8.94564 6.77097 8.94564 6.77097 8.94564C6.77097 8.94564 6.77097 8.94564 6.77097 8.94564C6.77097 8.94564 6.77097 8.94564 6.77097 8.94564C6.77097 8.94564 6.77097 8.94564 6.77097 8.94564C6.77097 8.94564 6.77097 8.94564 6.77097 8.94564C6.77097 8.94564 6.77097 8.94564 6.77097 8.94564C6.77097 8.94564 6.77097 8.94564 6.77097 8.94564C6.77097 8.94564 6.77097 8.94564 6.77097 8.94564C6.77097 8.94564 6.77097 8.94564 6.77097 8.94563C6.77097 8.94563 6.77097 8.94563 6.77097 8.94563C6.77097 8.94563 6.77097 8.94563 6.77097 8.94563C6.77097 8.94563 6.77097 8.94563 6.77097 8.94563C6.77097 8.94563 6.77097 8.94563 6.77097 8.94563C6.77097 8.94563 6.77097 8.94563 6.77097 8.94563C6.77097 8.94563 6.77097 8.94563 6.77097 8.94563C6.77097 8.94563 6.77097 8.94563 6.77097 8.94563C6.77097 8.94563 6.77097 8.94563 6.77097 8.94563C6.77097 8.94563 6.77097 8.94563 6.77097 8.94563C6.77097 8.94563 6.77097 8.94563 6.77097 8.94563C6.77097 8.94563 6.77097 8.94563 6.77097 8.94563C6.77097 8.94563 6.77097 8.94563 6.77097 8.94563C6.77097 8.94563 6.77097 8.94563 6.77097 8.94563C6.77097 8.94563 6.77097 8.94563 6.77097 8.94563C6.77097 8.94563 6.77097 8.94563 6.77097 8.94563C6.77097 8.94563 6.77097 8.94563 6.77097 8.94563C6.77097 8.94563 6.77097 8.94563 6.77097 8.94563C6.77097 8.94563 6.77097 8.94563 6.77097 8.94563C6.77097 8.94563 6.77097 8.94563 6.77097 8.94563C6.77097 8.94563 6.77097 8.94563 6.77097 8.94563C6.77097 8.94563 6.77097 8.94563 6.77097 8.94563C6.77097 8.94563 6.77097 8.94563 6.77097 8.94563C6.77097 8.94563 6.77097 8.94563 6.77097 8.94563C6.77097 8.94563 6.77097 8.94563 6.77097 8.94563C6.77097 8.94563 6.77097 8.94563 6.77097 8.94563C6.77097 8.94563 6.77097 8.94563 6.77097 8.94563C6.77097 8.94563 6.77097 8.94563 6.77097 8.94563C6.77097 8.94563 6.77097 8.94563 6.77097 8.94563C6.77097 8.94563 6.77097 8.94563 6.77097 8.94563C6.77097 8.94563 6.77097 8.94563 6.77097 8.94563C6.77097 8.94563 6.77097 8.94563 6.77097 8.94563C6.77097 8.94563 6.77097 8.94563 6.77097 8.94563C6.77097 8.94563 6.77097 8.94563 6.77097 8.94563C6.77097 8.94563 6.77097 8.94563 6.77097 8.94563C6.77097 8.94563 6.77097 8.94563 6.77097 8.94563C6.77097 8.94563 6.77097 8.94563 6.77097 8.94563C6.77097 8.94563 6.77097 8.94563 6.77097 8.94563C6.77097 8.94563 6.77097 8.94563 6.77097 8.94563C6.77097 8.94563 6.77097 8.94563 6.77097 8.94563C6.77097 8.94563 6.77097 8.94563 6.77097 8.94563C6.77097 8.94563 6.77097 8.94563 6.77097 8.94563C6.77097 8.94563 6.77097 8.94563 6.77097 8.94563C6.77097 8.94563 6.77097 8.94563 6.77097 8.94563C6.77097 8.94563 6.77097 8.94563 6.77097 8.94563C6.77097 8.94563 6.77097 8.94563 6.77097 8.94563C6.77097 8.94563 6.77097 8.94563 6.77097 8.94563C6.77097 8.94563 6.77097 8.94563 6.77097 8.94563C6.77097 8.94563 6.77097 8.94563 6.77097 8.94563C6.77097 8.94563 6.77097 8.94563 6.77097 8.94563C6.77097 8.94563 6.77097 8.94563 6.77097 8.94563C6.77097 8.94563 6.77097 8.94563 6.77097 8.94563C6.77097 8.94563 6.77097 8.94563 6.77097 8.94563C6.77097 8.94563 6.77097 8.94563 6.77097 8.94563C6.77097 8.94563 6.77097 8.94563 6.77097 8.94563C6.77097 8.94563 6.77097 8.94563 6.77097 8.94563C6.77097 8.94563 6.77097 8.94563 6.77097 8.94563C6.77097 8.94563 6.77097 8.94563 6.77097 8.94563C6.77097 8.94563 6.77097 8.94563 6.77097 8.94563C6.77097 8.94563 6.77097 8.94563 6.77097 8.94563C6.77097 8.94563 6.77097 8.94563 6.77097 8.94563C6.77097 8.94563 6.77097 8.94562 6.77097 8.94562C6.77097 8.94562 6.77097 8.94562 6.77097 8.94562C6.77097 8.94562 6.77097 8.94562 6.77097 8.94562C6.77097 8.94562 6.77097 8.94562 6.77097 8.94562C6.77097 8.94562 6.77097 8.94562 6.77097 8.94562C6.77097 8.94562 6.77097 8.94562 6.77097 8.94562C6.77097 8.94562 6.77097 8.94562 6.77097 8.94562C6.77097 8.94562 6.77097 8.94562 6.77097 8.94562C6.77097 8.94562 6.77097 8.94562 6.77097 8.94562C6.77098 8.94562 6.77098 8.94562 6.77098 8.94562C6.77098 8.94562 6.77098 8.94562 6.77098 8.94562C6.77098 8.94562 6.77098 8.94562 6.77098 8.94562C6.77098 8.94562 6.77098 8.94562 6.77098 8.94562C6.77098 8.94562 6.77098 8.94562 6.77098 8.94562C6.77098 8.94562 6.77098 8.94562 6.77098 8.94562C6.77098 8.94562 6.77098 8.94562 6.77098 8.94562C6.77098 8.94562 6.77098 8.94562 6.77098 8.94562C6.77098 8.94562 6.77098 8.94562 6.77098 8.94562C6.77098 8.94562 6.77098 8.94562 6.77098 8.94562C6.77098 8.94562 6.77098 8.94562 6.77098 8.94562C6.77098 8.94562 6.77098 8.94562 6.77098 8.94562C6.77098 8.94562 6.77098 8.94562 6.77098 8.94562C6.77098 8.94562 6.77098 8.94562 6.77098 8.94562C6.77098 8.94562 6.77098 8.94562 6.77098 8.94562C6.77098 8.94562 6.77098 8.94562 6.77098 8.94562C6.77098 8.94562 6.77098 8.94562 6.77098 8.94562C6.77098 8.94562 6.77098 8.94562 6.77098 8.94562C6.77098 8.94562 6.77098 8.94562 6.77098 8.94562C6.77098 8.94562 6.77098 8.94562 6.77098 8.94562C6.77098 8.94562 6.77098 8.94562 6.77098 8.94562C6.77098 8.94562 6.77098 8.94562 6.77098 8.94562C6.77098 8.94562 6.77098 8.94562 6.77098 8.94562C6.77098 8.94562 6.77098 8.94562 6.77098 8.94562C6.77098 8.94562 6.77098 8.94562 6.77098 8.94562C6.77098 8.94562 6.77098 8.94562 6.77098 8.94562C6.77098 8.94562 6.77098 8.94562 6.77098 8.94562C6.77098 8.94562 6.77098 8.94562 6.77098 8.94562C6.77098 8.94562 6.77098 8.94562 6.77098 8.94562C6.77098 8.94562 6.77098 8.94562 6.77098 8.94562C6.77098 8.94562 6.77098 8.94562 6.77098 8.94562C6.77098 8.94562 6.77098 8.94562 6.77098 8.94562C6.77098 8.94561 6.77098 8.94561 6.77098 8.94561C6.77098 8.94561 6.77098 8.94561 6.77098 8.94561C6.77098 8.94561 6.77098 8.94561 6.77098 8.94561C6.77098 8.94561 6.77098 8.94561 6.77098 8.94561C6.77098 8.94561 6.77098 8.94561 6.77098 8.94561C6.77098 8.94561 6.77098 8.94561 6.77098 8.94561C6.77098 8.94561 6.77098 8.94561 6.77098 8.94561C6.77098 8.94561 6.77098 8.94561 6.77098 8.94561C6.77098 8.94561 6.77098 8.94561 6.77098 8.94561C6.77098 8.94561 6.77098 8.94561 6.77098 8.94561C6.77098 8.94561 6.77098 8.94561 6.77098 8.94561C6.77098 8.94561 6.77098 8.94561 6.77098 8.94561C6.77098 8.94561 6.77098 8.94561 6.77098 8.94561C6.77098 8.94561 6.77098 8.94561 6.77098 8.94561C6.77098 8.94561 6.77098 8.94561 6.77098 8.94561C6.77098 8.94561 6.77098 8.94561 6.77098 8.94561C6.77098 8.94561 6.77098 8.94561 6.77098 8.94561C6.77098 8.94561 6.77098 8.94561 6.77098 8.94561C6.77098 8.94561 6.77098 8.94561 6.77098 8.94561C6.77098 8.94561 6.77098 8.94561 6.77098 8.94561C6.77098 8.94561 6.77098 8.94561 6.77098 8.94561C6.77098 8.94561 6.77098 8.94561 6.77098 8.94561C6.77098 8.94561 6.77098 8.94561 6.77098 8.94561C6.77098 8.94561 6.77098 8.94561 6.77098 8.94561C6.77098 8.94561 6.77098 8.94561 6.77098 8.94561C6.77098 8.94561 6.77098 8.94561 6.77098 8.94561C6.77098 8.94561 6.77098 8.94561 6.77098 8.94561C6.77098 8.94561 6.77098 8.94561 6.77098 8.94561C6.77098 8.94561 6.77098 8.94561 6.77098 8.94561C6.77098 8.94561 6.77098 8.94561 6.77098 8.94561C6.77098 8.94561 6.77098 8.94561 6.77098 8.94561C6.77098 8.94561 6.77098 8.94561 6.77098 8.94561C6.77098 8.94561 6.77098 8.94561 6.77098 8.94561C6.77098 8.94561 6.77098 8.94561 6.77098 8.94561C6.77098 8.94561 6.77098 8.94561 6.77098 8.94561C6.77098 8.94561 6.77098 8.94561 6.77098 8.94561C6.77098 8.94561 6.77098 8.94561 6.77098 8.94561C6.77098 8.94561 6.77098 8.94561 6.77098 8.9456C6.77098 8.9456 6.77098 8.9456 6.77098 8.9456C6.77098 8.9456 6.77098 8.9456 6.77098 8.9456C6.77098 8.9456 6.77098 8.9456 6.77098 8.9456C6.77098 8.9456 6.77098 8.9456 6.77098 8.9456C6.77098 8.9456 6.77098 8.9456 6.77098 8.9456C6.77098 8.9456 6.77098 8.9456 6.77098 8.9456C6.77098 8.9456 6.77098 8.9456 6.77098 8.9456C6.77098 8.9456 6.77098 8.9456 6.77098 8.9456C6.77098 8.9456 6.77098 8.9456 6.77098 8.9456C6.77098 8.9456 6.77098 8.9456 6.77098 8.9456C6.77098 8.9456 6.77098 8.9456 6.77098 8.9456C6.77098 8.9456 6.77098 8.9456 6.77098 8.9456C6.77098 8.9456 6.77098 8.9456 6.77098 8.9456C6.77098 8.9456 6.77098 8.9456 6.77098 8.9456C6.77098 8.9456 6.77098 8.9456 6.77098 8.9456C6.77098 8.9456 6.77098 8.9456 6.77098 8.9456C6.77098 8.9456 6.77098 8.9456 6.77098 8.9456C6.77098 8.9456 6.77098 8.9456 6.77098 8.9456C6.77098 8.9456 6.77098 8.9456 6.77098 8.9456C6.77098 8.9456 6.77098 8.9456 6.77098 8.9456C6.77098 8.9456 6.77098 8.9456 6.77098 8.9456C6.77098 8.9456 6.77098 8.9456 6.77098 8.9456C6.77098 8.9456 6.77098 8.9456 6.77098 8.9456C6.77098 8.9456 6.77098 8.9456 6.77098 8.9456C6.77098 8.9456 6.77098 8.9456 6.77098 8.9456C6.77098 8.9456 6.77098 8.9456 6.77098 8.9456C6.77098 8.9456 6.77098 8.9456 6.77098 8.9456C6.77098 8.9456 6.77098 8.9456 6.77098 8.9456C6.77098 8.9456 6.77099 8.9456 6.77099 8.9456C6.77099 8.9456 6.77099 8.9456 6.77099 8.9456C6.77099 8.9456 6.77099 8.9456 6.77099 8.9456C6.77099 8.9456 6.77099 8.9456 6.77099 8.9456C6.77099 8.9456 6.77099 8.9456 6.77099 8.9456C6.77099 8.9456 6.77099 8.9456 6.77099 8.9456C6.77099 8.9456 6.77099 8.9456 6.77099 8.9456C6.77099 8.9456 6.77099 8.9456 6.77099 8.9456C6.77099 8.9456 6.77099 8.9456 6.77099 8.9456C6.77099 8.9456 6.77099 8.9456 6.77099 8.9456C6.77099 8.9456 6.77099 8.9456 6.77099 8.9456C6.77099 8.9456 6.77099 8.9456 6.77099 8.9456C6.77099 8.9456 6.77099 8.94559 6.77099 8.94559C6.77099 8.94559 6.77099 8.94559 6.77099 8.94559C6.77099 8.94559 6.77099 8.94559 6.77099 8.94559C6.77099 8.94559 6.77099 8.94559 6.77099 8.94559C6.77099 8.94559 6.77099 8.94559 6.77099 8.94559C6.77099 8.94559 6.77099 8.94559 6.77099 8.94559C6.77099 8.94559 6.77099 8.94559 6.77099 8.94559C6.77099 8.94559 6.77099 8.94559 6.77099 8.94559C6.77099 8.94559 6.77099 8.94559 6.77099 8.94559C6.77099 8.94559 6.77099 8.94559 6.77099 8.94559C6.77099 8.94559 6.77099 8.94559 6.77099 8.94559C6.77099 8.94559 6.77099 8.94559 6.77099 8.94559C6.77099 8.94559 6.77099 8.94559 6.77099 8.94559C6.77099 8.94559 6.77099 8.94559 6.77099 8.94559C6.77099 8.94559 6.77099 8.94559 6.77099 8.94559C6.77099 8.94559 6.77099 8.94559 6.77099 8.94559C6.77099 8.94559 6.77099 8.94559 6.77099 8.94559C6.77099 8.94559 6.77099 8.94559 6.77099 8.94559C6.77099 8.94559 6.77099 8.94559 6.77099 8.94559C6.77099 8.94559 6.77099 8.94559 6.77099 8.94559C6.77099 8.94559 6.77099 8.94559 6.77099 8.94559C6.77099 8.94559 6.77099 8.94559 6.77099 8.94559C6.77099 8.94559 6.77099 8.94559 6.77099 8.94559C6.77099 8.94559 6.77099 8.94559 6.77099 8.94559C6.77099 8.94559 6.77099 8.94559 6.77099 8.94559C6.77099 8.94559 6.77099 8.94559 6.77099 8.94559C6.77099 8.94559 6.77099 8.94559 6.77099 8.94559C6.77099 8.94559 6.77099 8.94559 6.77099 8.94559C6.77099 8.94559 6.77099 8.94559 6.77099 8.94559C6.77099 8.94559 6.77099 8.94559 6.77099 8.94559C6.77099 8.94559 6.77099 8.94559 6.77099 8.94559C6.77099 8.94559 6.77099 8.94559 6.77099 8.94559C6.77099 8.94559 6.77099 8.94559 6.77099 8.94559C6.77099 8.94559 6.77099 8.94559 6.77099 8.94559C6.77099 8.94559 6.77099 8.94559 6.77099 8.94559C6.77099 8.94559 6.77099 8.94559 6.77099 8.94559C6.77099 8.94559 6.77099 8.94559 6.77099 8.94559C6.77099 8.94559 6.77099 8.94559 6.77099 8.94559C6.77099 8.94559 6.77099 8.94559 6.77099 8.94559C6.77099 8.94559 6.77099 8.94559 6.77099 8.94559C6.77099 8.94559 6.77099 8.94559 6.77099 8.94559C6.77099 8.94559 6.77099 8.94559 6.77099 8.94559C6.77099 8.94559 6.77099 8.94559 6.77099 8.94559C6.77099 8.94559 6.77099 8.94559 6.77099 8.94559C6.77099 8.94559 6.77099 8.94559 6.77099 8.94559C6.77099 8.94559 6.77099 8.94559 6.77099 8.94559C6.77099 8.94559 6.77099 8.94559 6.77099 8.94559C6.77099 8.94559 6.77099 8.94559 6.77099 8.94559C6.77099 8.94559 6.77099 8.94559 6.77099 8.94559C6.77099 8.94559 6.77099 8.94559 6.77099 8.94559C6.77099 8.94559 6.77099 8.94559 6.77099 8.94559C6.77099 8.94559 6.77099 8.94559 6.77099 8.94559C6.77099 8.94559 6.77099 8.94559 6.77099 8.94559C6.77099 8.94559 6.77099 8.94559 6.77099 8.94559C6.77099 8.94559 6.77099 8.94559 6.77099 8.94559C6.77099 8.94559 6.77099 8.94559 6.77099 8.94559C6.77099 8.94559 6.77099 8.94559 6.77099 8.94559C6.77099 8.94559 6.77099 8.94559 6.77099 8.94559C6.77099 8.94559 6.77099 8.94559 6.77099 8.94559C6.77099 8.94559 6.77099 8.94559 6.77099 8.94559C6.77099 8.94559 6.77099 8.94559 6.77099 8.94559C6.77099 8.94558 6.77099 8.94558 6.77099 8.94558C6.77099 8.94558 6.77099 8.94558 6.77099 8.94558C6.77099 8.94558 6.77099 8.94558 6.77099 8.94558C6.77099 8.94558 6.77099 8.94558 6.77099 8.94558C6.77099 8.94558 6.77099 8.94558 6.77099 8.94558C6.77099 8.94558 6.77099 8.94558 6.77099 8.94558C6.77099 8.94558 6.77099 8.94558 6.77099 8.94558C6.77099 8.94558 6.77099 8.94558 6.77099 8.94558C6.77099 8.94558 6.77099 8.94558 6.77099 8.94558C6.77099 8.94558 6.77099 8.94558 6.77099 8.94558C6.77099 8.94558 6.77099 8.94558 6.77099 8.94558C6.77099 8.94558 6.77099 8.94558 6.77099 8.94558C6.77099 8.94558 6.77099 8.94558 6.77099 8.94558C6.77099 8.94558 6.77099 8.94558 6.77099 8.94558C6.77099 8.94558 6.77099 8.94558 6.77099 8.94558C6.77099 8.94558 6.77099 8.94558 6.77099 8.94558C6.77099 8.94558 6.77099 8.94558 6.77099 8.94558C6.77099 8.94558 6.77099 8.94558 6.77099 8.94558C6.77099 8.94558 6.77099 8.94558 6.77099 8.94558C6.77099 8.94558 6.77099 8.94558 6.77099 8.94558C6.77099 8.94558 6.77099 8.94558 6.77099 8.94558C6.77099 8.94558 6.77099 8.94558 6.77099 8.94558C6.77099 8.94558 6.77099 8.94558 6.77099 8.94558C6.77099 8.94558 6.77099 8.94558 6.77099 8.94558C6.77099 8.94558 6.77099 8.94558 6.77099 8.94558C6.77099 8.94558 6.77099 8.94558 6.77099 8.94558C6.77099 8.94558 6.77099 8.94558 6.77099 8.94558C6.77099 8.94558 6.73544 9.02519 4.91103 8.21036C4.91103 8.21036 4.91103 8.21036 4.91103 8.21036C4.91103 8.21036 4.91103 8.21036 4.91103 8.21036C4.91103 8.21036 4.91103 8.21036 4.91103 8.21036C4.91103 8.21036 4.91103 8.21036 4.91103 8.21036C4.91103 8.21036 4.91103 8.21036 4.91103 8.21036C4.91103 8.21036 4.91103 8.21036 4.91103 8.21036C4.91103 8.21036 4.91103 8.21036 4.91103 8.21036C4.91103 8.21036 4.91103 8.21036 4.91103 8.21036C4.91103 8.21036 4.91103 8.21036 4.91103 8.21036C4.91103 8.21036 4.91103 8.21036 4.91103 8.21036C4.91103 8.21036 4.91103 8.21036 4.91103 8.21036C4.91103 8.21036 4.91103 8.21036 4.91103 8.21036C4.91103 8.21036 4.91103 8.21036 4.91103 8.21036C4.91103 8.21036 4.91103 8.21036 4.91103 8.21036C4.91103 8.21036 4.91103 8.21036 4.91103 8.21036C4.91103 8.21036 4.91103 8.21036 4.91103 8.21036C4.91103 8.21036 4.91103 8.21036 4.91103 8.21036C4.91103 8.21036 4.91103 8.21036 4.91103 8.21036C4.91103 8.21036 4.91103 8.21036 4.91103 8.21036C4.91103 8.21036 4.91103 8.21036 4.91103 8.21036C4.91103 8.21036 4.91103 8.21036 4.91103 8.21036C4.91103 8.21036 4.91103 8.21036 4.91103 8.21036C4.91103 8.21036 4.91103 8.21036 4.91103 8.21036C4.91103 8.21036 4.91103 8.21036 4.91103 8.21036C4.91103 8.21036 4.91103 8.21037 4.91103 8.21037C4.91103 8.21037 4.91103 8.21037 4.91103 8.21037C4.91103 8.21037 4.91103 8.21037 4.91103 8.21037C4.91103 8.21037 4.91103 8.21037 4.91103 8.21037C4.91103 8.21037 4.91103 8.21037 4.91103 8.21037C4.91103 8.21037 4.91103 8.21037 4.91103 8.21037C4.91103 8.21037 4.91103 8.21037 4.91103 8.21037C4.91103 8.21037 4.91103 8.21037 4.91103 8.21037C4.91103 8.21037 4.91103 8.21037 4.91103 8.21037C4.91103 8.21037 4.91103 8.21037 4.91103 8.21037C4.91103 8.21037 4.91103 8.21037 4.91103 8.21037C4.91103 8.21037 4.91103 8.21037 4.91103 8.21037C4.91103 8.21037 4.91103 8.21037 4.91103 8.21037C4.91103 8.21037 4.91103 8.21037 4.91103 8.21037C4.91103 8.21037 4.91103 8.21037 4.91103 8.21037C4.91103 8.21037 4.91103 8.21037 4.91103 8.21037C4.91103 8.21037 4.91103 8.21037 4.91103 8.21037C4.91103 8.21037 4.91103 8.21037 4.91103 8.21037C4.91103 8.21037 4.91103 8.21037 4.91103 8.21037C4.91103 8.21037 4.91103 8.21037 4.91103 8.21037C4.91103 8.21037 4.91103 8.21037 4.91103 8.21037C4.91103 8.21037 4.91103 8.21037 4.91103 8.21037C4.91103 8.21037 4.91103 8.21037 4.91103 8.21037C4.91103 8.21037 4.91103 8.21037 4.91103 8.21037C4.91103 8.21037 4.91103 8.21037 4.91103 8.21037C4.91103 8.21037 4.91103 8.21037 4.91103 8.21037C4.91103 8.21037 4.91103 8.21037 4.91103 8.21037C4.91103 8.21037 4.91103 8.21037 4.91103 8.21037C4.91103 8.21037 4.91103 8.21037 4.91103 8.21037C4.91103 8.21037 4.91103 8.21037 4.91103 8.21037C4.91103 8.21037 4.91103 8.21037 4.91103 8.21037C4.91103 8.21037 4.91103 8.21037 4.91103 8.21037C4.91103 8.21037 4.91103 8.21037 4.91103 8.21037C4.91103 8.21037 4.91103 8.21037 4.91103 8.21037C4.91103 8.21037 4.91103 8.21037 4.91103 8.21037C4.91103 8.21037 4.91103 8.21037 4.91103 8.21037C4.91103 8.21037 4.91103 8.21037 4.91103 8.21037C4.91103 8.21037 4.91103 8.21037 4.91103 8.21037C4.91103 8.21037 4.91103 8.21037 4.91103 8.21037C4.91103 8.21037 4.91103 8.21037 4.91103 8.21037C4.91103 8.21037 4.91103 8.21037 4.91103 8.21037C4.91103 8.21037 4.91103 8.21037 4.91103 8.21037C4.91103 8.21037 4.91103 8.21037 4.91103 8.21037C4.91103 8.21037 4.91103 8.21037 4.91103 8.21037C4.91103 8.21037 4.91103 8.21037 4.91103 8.21037C4.91103 8.21037 4.91103 8.21037 4.91103 8.21037C4.91103 8.21037 4.91103 8.21037 4.91103 8.21037C4.91103 8.21037 4.91103 8.21037 4.91103 8.21037C4.91103 8.21037 4.91103 8.21038 4.91103 8.21038C4.91103 8.21038 4.91103 8.21038 4.91103 8.21038C4.91103 8.21038 4.91103 8.21038 4.91103 8.21038C4.91103 8.21038 4.91103 8.21038 4.91103 8.21038C4.91103 8.21038 4.91103 8.21038 4.91103 8.21038C4.91103 8.21038 4.91103 8.21038 4.91103 8.21038C4.91103 8.21038 4.91103 8.21038 4.91103 8.21038C4.91103 8.21038 4.91103 8.21038 4.91102 8.21038C4.91102 8.21038 4.91102 8.21038 4.91102 8.21038C4.91102 8.21038 4.91102 8.21038 4.91102 8.21038C4.91102 8.21038 4.91102 8.21038 4.91102 8.21038C4.91102 8.21038 4.91102 8.21038 4.91102 8.21038C4.91102 8.21038 4.91102 8.21038 4.91102 8.21038C4.91102 8.21038 4.91102 8.21038 4.91102 8.21038C4.91102 8.21038 4.91102 8.21038 4.91102 8.21038C4.91102 8.21038 4.91102 8.21038 4.91102 8.21038C4.91102 8.21038 4.91102 8.21038 4.91102 8.21038C4.91102 8.21038 4.91102 8.21038 4.91102 8.21038C4.91102 8.21038 4.91102 8.21038 4.91102 8.21038C4.91102 8.21038 4.91102 8.21038 4.91102 8.21038C4.91102 8.21038 4.91102 8.21038 4.91102 8.21038C4.91102 8.21038 4.91102 8.21038 4.91102 8.21038C4.91102 8.21038 4.91102 8.21038 4.91102 8.21038C4.91102 8.21038 4.91102 8.21038 4.91102 8.21038C4.91102 8.21038 4.91102 8.21038 4.91102 8.21038C4.91102 8.21038 4.91102 8.21038 4.91102 8.21039C4.91102 8.21039 4.91102 8.21039 4.91102 8.21039C4.91102 8.21039 4.91102 8.21039 4.91102 8.21039C4.91102 8.21039 4.91102 8.21039 4.91102 8.21039C4.91102 8.21039 4.91102 8.21039 4.91102 8.21039C4.91102 8.21039 4.91102 8.21039 4.91102 8.21039C4.91102 8.21039 4.91102 8.21039 4.91102 8.21039C4.91102 8.21039 4.91102 8.21039 4.91102 8.21039C4.91102 8.21039 4.91102 8.21039 4.91102 8.21039C4.91102 8.21039 4.91102 8.21039 4.91102 8.21039C4.91102 8.21039 4.91102 8.21039 4.91102 8.21039L6.77098 8.94561ZM9 18V15.683H7V18H9ZM9 15.683V10.5H7V15.683H9ZM8.48561 11.3742L9.13564 11.0131L8.16443 9.26473L7.51439 9.62582L8.48561 11.3742ZM9.13564 11.0131L12.4856 9.15218L11.5144 7.40382L8.16443 9.26473L9.13564 11.0131Z" fill="#3F3F46"/>
</svg>
