<svg width="24" height="24" viewBox="0 0 24 24" fill="none" xmlns="http://www.w3.org/2000/svg">
<path d="M20.8967 3.10308C20.4466 2.65315 19.8363 2.40039 19.1999 2.40039C18.5635 2.40039 17.9532 2.65315 17.5031 3.10308L8.3999 12.2063V15.5999H11.7935L20.8967 6.49668C21.3466 6.04661 21.5994 5.43627 21.5994 4.79988C21.5994 4.16348 21.3466 3.55314 20.8967 3.10308Z" fill="#2563EB"/>
<path fill-rule="evenodd" clip-rule="evenodd" d="M2.3999 7.1998C2.3999 6.56328 2.65276 5.95284 3.10285 5.50275C3.55293 5.05266 4.16338 4.7998 4.7999 4.7998H9.5999C9.91816 4.7998 10.2234 4.92623 10.4484 5.15128C10.6735 5.37632 10.7999 5.68154 10.7999 5.9998C10.7999 6.31806 10.6735 6.62329 10.4484 6.84833C10.2234 7.07338 9.91816 7.1998 9.5999 7.1998H4.7999V19.1998H16.7999V14.3998C16.7999 14.0815 16.9263 13.7763 17.1514 13.5513C17.3764 13.3262 17.6816 13.1998 17.9999 13.1998C18.3182 13.1998 18.6234 13.3262 18.8484 13.5513C19.0735 13.7763 19.1999 14.0815 19.1999 14.3998V19.1998C19.1999 19.8363 18.947 20.4468 18.497 20.8969C18.0469 21.3469 17.4364 21.5998 16.7999 21.5998H4.7999C4.16338 21.5998 3.55293 21.3469 3.10285 20.8969C2.65276 20.4468 2.3999 19.8363 2.3999 19.1998V7.1998Z" fill="#2563EB"/>
</svg>
