<svg width="20" height="40" viewBox="0 0 20 40" fill="none" xmlns="http://www.w3.org/2000/svg">
<path d="M17.1872 11.521H12.9091V11.4789C12.9091 10.6789 12.2674 10.0474 11.4545 10.0474H8.54545C7.73262 10.0474 7.09091 10.6789 7.09091 11.4789V11.521H2.81283C2.36364 11.521 2 11.8789 2 12.321V13.121C2 13.5632 2.36364 13.921 2.81283 13.921H17.1872C17.6364 13.921 18 13.5632 18 13.121V12.321C18 11.8789 17.6364 11.521 17.1872 11.521Z" fill="#DC2626"/>
<path d="M16.126 14.9209H3.89074C3.65544 14.9209 3.48432 15.1104 3.50571 15.342L4.10464 27.5314C4.16881 28.8788 5.3025 29.9525 6.67149 29.9525H13.3239C14.6929 29.9525 15.8266 28.8998 15.8907 27.5314L16.4897 15.342C16.5324 15.1314 16.3399 14.9209 16.126 14.9209ZM8.68218 26.6893C8.68218 27.0683 8.38272 27.363 7.99769 27.363C7.61266 27.363 7.3132 27.0683 7.3132 26.6893V18.2051C7.3132 17.8262 7.61266 17.5314 7.99769 17.5314C8.38272 17.5314 8.68218 17.8262 8.68218 18.2051V26.6893ZM12.7036 26.6893C12.7036 27.0683 12.4041 27.363 12.0191 27.363C11.6341 27.363 11.3346 27.0683 11.3346 26.6893V18.2051C11.3346 17.8262 11.6341 17.5314 12.0191 17.5314C12.4041 17.5314 12.7036 17.8262 12.7036 18.2051V26.6893Z" fill="#DC2626"/>
</svg>
