<svg width="16" height="20" viewBox="0 0 16 20" fill="none" xmlns="http://www.w3.org/2000/svg">
<path d="M15.1872 1.47368H10.9091V1.43158C10.9091 0.631579 10.2674 0 9.45455 0H6.54545C5.73262 0 5.09091 0.631579 5.09091 1.43158V1.47368H0.812834C0.363636 1.47368 0 1.83158 0 2.27368V3.07368C0 3.51579 0.363636 3.87368 0.812834 3.87368H15.1872C15.6364 3.87368 16 3.51579 16 3.07368V2.27368C16 1.83158 15.6364 1.47368 15.1872 1.47368Z" fill="#DC2626"/>
<path d="M14.126 4.87378H1.89074C1.65544 4.87378 1.48432 5.06325 1.50571 5.29483L2.10464 17.4843C2.16881 18.8317 3.3025 19.9054 4.67149 19.9054H11.3239C12.6929 19.9054 13.8266 18.8527 13.8907 17.4843L14.4897 5.29483C14.5324 5.08431 14.3399 4.87378 14.126 4.87378ZM6.68218 16.6422C6.68218 17.0211 6.38272 17.3159 5.99769 17.3159C5.61266 17.3159 5.3132 17.0211 5.3132 16.6422V8.15799C5.3132 7.77904 5.61266 7.48431 5.99769 7.48431C6.38272 7.48431 6.68218 7.77904 6.68218 8.15799V16.6422ZM10.7036 16.6422C10.7036 17.0211 10.4041 17.3159 10.0191 17.3159C9.63405 17.3159 9.33459 17.0211 9.33459 16.6422V8.15799C9.33459 7.77904 9.63405 7.48431 10.0191 7.48431C10.4041 7.48431 10.7036 7.77904 10.7036 8.15799V16.6422Z" fill="#DC2626"/>
</svg>
