<svg width="41" height="40" viewBox="0 0 41 40" fill="none" xmlns="http://www.w3.org/2000/svg">
<path d="M20.5 21.875C21.5355 21.875 22.375 21.0355 22.375 20C22.375 18.9645 21.5355 18.125 20.5 18.125C19.4645 18.125 18.625 18.9645 18.625 20C18.625 21.0355 19.4645 21.875 20.5 21.875Z" fill="#76CC7A"/>
<path d="M24.25 21.875C25.2855 21.875 26.125 21.0355 26.125 20C26.125 18.9645 25.2855 18.125 24.25 18.125C23.2145 18.125 22.375 18.9645 22.375 20C22.375 21.0355 23.2145 21.875 24.25 21.875Z" fill="#76CC7A"/>
<path d="M18.625 18.75C19.6605 18.75 20.5 17.9105 20.5 16.875C20.5 15.8395 19.6605 15 18.625 15C17.5895 15 16.75 15.8395 16.75 16.875C16.75 17.9105 17.5895 18.75 18.625 18.75Z" fill="#76CC7A"/>
<path d="M22.375 18.75C23.4105 18.75 24.25 17.9105 24.25 16.875C24.25 15.8395 23.4105 15 22.375 15C21.3395 15 20.5 15.8395 20.5 16.875C20.5 17.9105 21.3395 18.75 22.375 18.75Z" fill="#76CC7A"/>
<path d="M18.625 25C19.6605 25 20.5 24.1605 20.5 23.125C20.5 22.0895 19.6605 21.25 18.625 21.25C17.5895 21.25 16.75 22.0895 16.75 23.125C16.75 24.1605 17.5895 25 18.625 25Z" fill="#76CC7A"/>
<path d="M22.375 25C23.4105 25 24.25 24.1605 24.25 23.125C24.25 22.0895 23.4105 21.25 22.375 21.25C21.3395 21.25 20.5 22.0895 20.5 23.125C20.5 24.1605 21.3395 25 22.375 25Z" fill="#76CC7A"/>
<path d="M16.75 21.875C17.7855 21.875 18.625 21.0355 18.625 20C18.625 18.9645 17.7855 18.125 16.75 18.125C15.7145 18.125 14.875 18.9645 14.875 20C14.875 21.0355 15.7145 21.875 16.75 21.875Z" fill="#76CC7A"/>
<path d="M24.875 6.25C25.9105 6.25 26.75 5.41053 26.75 4.375C26.75 3.33947 25.9105 2.5 24.875 2.5C23.8395 2.5 23 3.33947 23 4.375C23 5.41053 23.8395 6.25 24.875 6.25Z" fill="#E89D43"/>
<path d="M4.875 17.5C5.91053 17.5 6.75 16.6605 6.75 15.625C6.75 14.5895 5.91053 13.75 4.875 13.75C3.83947 13.75 3 14.5895 3 15.625C3 16.6605 3.83947 17.5 4.875 17.5Z" fill="#E89D43"/>
<path d="M16.4869 22.4731C16.2625 22.8481 16.125 23.2819 16.125 23.75C16.125 25.1287 17.2462 26.25 18.625 26.25C19.3756 26.25 20.0412 25.9113 20.5 25.3862C20.9588 25.9113 21.6244 26.25 22.375 26.25C23.7537 26.25 24.875 25.1287 24.875 23.75C24.875 23.2819 24.7375 22.8481 24.5131 22.4731C25.7669 22.34 26.75 21.2888 26.75 20C26.75 18.7112 25.7669 17.66 24.5131 17.5269C24.7375 17.1519 24.875 16.7181 24.875 16.25C24.875 14.8712 23.7537 13.75 22.375 13.75C21.6244 13.75 20.9588 14.0888 20.5 14.6137C20.0412 14.0888 19.3756 13.75 18.625 13.75C17.2462 13.75 16.125 14.8712 16.125 16.25C16.125 16.7181 16.2625 17.1519 16.4869 17.5269C15.2331 17.66 14.25 18.7112 14.25 20C14.25 21.2888 15.2331 22.34 16.4869 22.4731ZM20.5 18.75C21.1894 18.75 21.75 19.3106 21.75 20C21.75 20.6894 21.1894 21.25 20.5 21.25C19.8106 21.25 19.25 20.6894 19.25 20C19.25 19.3106 19.8106 18.75 20.5 18.75ZM18.625 25C17.9356 25 17.375 24.4394 17.375 23.75C17.375 23.0606 17.9356 22.5 18.625 22.5C19.3144 22.5 19.875 23.0606 19.875 23.75C19.875 24.4394 19.3144 25 18.625 25ZM22.375 25C21.6856 25 21.125 24.4394 21.125 23.75C21.125 23.0606 21.6856 22.5 22.375 22.5C23.0644 22.5 23.625 23.0606 23.625 23.75C23.625 24.4394 23.0644 25 22.375 25ZM25.5 20C25.5 20.6894 24.9394 21.25 24.25 21.25C23.5606 21.25 23 20.6894 23 20C23 19.3106 23.5606 18.75 24.25 18.75C24.9394 18.75 25.5 19.3106 25.5 20ZM22.375 15C23.0644 15 23.625 15.5606 23.625 16.25C23.625 16.9394 23.0644 17.5 22.375 17.5C21.6856 17.5 21.125 16.9394 21.125 16.25C21.125 15.5606 21.6856 15 22.375 15ZM18.625 15C19.3144 15 19.875 15.5606 19.875 16.25C19.875 16.9394 19.3144 17.5 18.625 17.5C17.9356 17.5 17.375 16.9394 17.375 16.25C17.375 15.5606 17.9356 15 18.625 15ZM16.75 18.75C17.4394 18.75 18 19.3106 18 20C18 20.6894 17.4394 21.25 16.75 21.25C16.0606 21.25 15.5 20.6894 15.5 20C15.5 19.3106 16.0606 18.75 16.75 18.75Z" fill="#0D1030"/>
<path d="M2.37494 15.6252C2.37494 17.0039 3.49619 18.1252 4.87494 18.1252C5.13869 18.1252 5.38806 18.0727 5.62681 17.997C6.03556 18.6652 6.47244 19.3345 6.93744 20.0008C1.75494 27.4758 0.323062 34.1945 3.31431 37.1858C4.35431 38.2264 5.84556 38.7327 7.66244 38.7327C11.0699 38.7327 15.6249 36.9464 20.4999 33.5658C25.3756 36.947 29.9306 38.7327 33.3374 38.7327C35.1543 38.7327 36.6456 38.2264 37.6856 37.1858C40.6768 34.1945 39.2449 27.4745 34.0624 20.0002C39.2456 12.5252 40.6768 5.8058 37.6856 2.81455C35.5787 0.70767 31.7362 0.72642 26.8374 2.84455C26.3793 2.25892 25.6743 1.87517 24.8749 1.87517C23.4962 1.87517 22.3749 2.99642 22.3749 4.37517C22.3749 4.63892 22.4274 4.8883 22.5031 5.12705C21.8331 5.53705 21.1637 5.97392 20.4993 6.43767C13.0243 1.25517 6.30431 -0.17608 3.31431 2.81455C1.20744 4.92205 1.22681 8.76392 3.34431 13.6633C2.75869 14.1208 2.37494 14.8258 2.37494 15.6252ZM3.62494 15.6252C3.62494 14.9358 4.18556 14.3752 4.87494 14.3752C5.56431 14.3752 6.12494 14.9358 6.12494 15.6252C6.12494 16.3145 5.56431 16.8752 4.87494 16.8752C4.18556 16.8752 3.62494 16.3145 3.62494 15.6252ZM4.19806 36.302C1.73869 33.8427 3.16431 27.7839 7.71494 21.0789C9.29744 23.2364 11.1062 25.352 13.1268 27.3727C15.1468 29.3933 17.2631 31.202 19.4212 32.7845C12.7168 37.3352 6.65806 38.7614 4.19806 36.302ZM20.4999 7.97142C22.7249 9.5733 24.9074 11.4295 26.9887 13.5114C29.0712 15.5933 30.9268 17.7758 32.5281 20.0008C30.9268 22.2252 29.0712 24.4077 26.9887 26.4902C24.9074 28.572 22.7249 30.4277 20.4993 32.0302C18.2743 30.4283 16.0918 28.572 14.0099 26.4902C11.9281 24.4083 10.0731 22.2264 8.47056 20.0008C10.0718 17.7764 11.9274 15.5939 14.0099 13.5114C16.0912 11.4295 18.2731 9.57455 20.4999 7.97142ZM36.8018 36.302C34.3431 38.762 28.2843 37.3358 21.5781 32.7852C23.7368 31.202 25.8531 29.3933 27.8724 27.3733C29.8937 25.352 31.7024 23.2364 33.2843 21.0789C37.8356 27.7833 39.2612 33.8427 36.8018 36.302ZM36.8018 3.6983C39.2612 6.15767 37.8356 12.2164 33.2849 18.9214C31.7024 16.7639 29.8937 14.6483 27.8731 12.6277C25.8531 10.607 23.7368 8.79767 21.5781 7.21517C22.1062 6.8558 22.6349 6.51267 23.1637 6.18892C23.6118 6.61142 24.2118 6.87517 24.8749 6.87517C26.2537 6.87517 27.3749 5.75392 27.3749 4.37517C27.3749 4.2433 27.3556 4.11642 27.3362 3.99017C31.6718 2.11767 35.1056 2.00267 36.8018 3.6983ZM24.8749 3.12517C25.5643 3.12517 26.1249 3.6858 26.1249 4.37517C26.1249 5.06455 25.5643 5.62517 24.8749 5.62517C24.1856 5.62517 23.6249 5.06455 23.6249 4.37517C23.6249 3.6858 24.1856 3.12517 24.8749 3.12517ZM4.19806 3.6983C6.65806 1.23892 12.7168 2.66517 19.4218 7.21517C17.2631 8.7983 15.1468 10.607 13.1274 12.627C11.1062 14.6483 9.29681 16.7645 7.71494 18.922C7.35431 18.3927 7.01119 17.8645 6.68869 17.3364C7.11056 16.8889 7.37494 16.2883 7.37494 15.6252C7.37494 14.2464 6.25369 13.1252 4.87494 13.1252C4.74306 13.1252 4.61619 13.1445 4.48931 13.1639C2.61744 8.8283 2.50306 5.3933 4.19806 3.6983Z" fill="#0D1030"/>
</svg>
