<svg width="24" height="25" viewBox="0 0 24 25" fill="none" xmlns="http://www.w3.org/2000/svg">
<g clip-path="url(#clip0_2159:99166)">
<path fill-rule="evenodd" clip-rule="evenodd" d="M12 1.16211C5.925 1.16211 1 6.08711 1 12.1621C1 18.2371 5.925 23.1621 12 23.1621C18.075 23.1621 23 18.2371 23 12.1621C23 6.08711 18.075 1.16211 12 1.16211ZM13 16.1621C13 16.4273 12.8946 16.6817 12.7071 16.8692C12.5196 17.0568 12.2652 17.1621 12 17.1621C11.7348 17.1621 11.4804 17.0568 11.2929 16.8692C11.1054 16.6817 11 16.4273 11 16.1621V13.1621H8C7.73478 13.1621 7.48043 13.0568 7.29289 12.8692C7.10536 12.6817 7 12.4273 7 12.1621C7 11.8969 7.10536 11.6425 7.29289 11.455C7.48043 11.2675 7.73478 11.1621 8 11.1621H11V8.16211C11 7.89689 11.1054 7.64254 11.2929 7.455C11.4804 7.26747 11.7348 7.16211 12 7.16211C12.2652 7.16211 12.5196 7.26747 12.7071 7.455C12.8946 7.64254 13 7.89689 13 8.16211V11.1621H16C16.2652 11.1621 16.5196 11.2675 16.7071 11.455C16.8946 11.6425 17 11.8969 17 12.1621C17 12.4273 16.8946 12.6817 16.7071 12.8692C16.5196 13.0568 16.2652 13.1621 16 13.1621H13V16.1621Z" fill="white"/>
</g>
<defs>
<clipPath id="clip0_2159:99166">
<rect width="24" height="24" fill="white" transform="translate(0 0.162109)"/>
</clipPath>
</defs>
</svg>
