<svg width="41" height="40" viewBox="0 0 41 40" fill="none" xmlns="http://www.w3.org/2000/svg">
<path d="M2.375 18.125L5.5 15.625H35.5L38.625 18.125L24.25 38.125H16.75L2.375 18.125Z" fill="#454A6D"/>
<path d="M29.25 30L22.375 35H18.625L11.75 30V18.75H29.25V30Z" fill="#EAE8E5"/>
<path d="M33 18.75H8V18.125C8 16.7444 9.11937 15.625 10.5 15.625H30.5C31.8806 15.625 33 16.7444 33 18.125V18.75Z" fill="#E08831"/>
<path d="M11.75 2.5H29.25V15.625H11.75V2.5Z" fill="#E89D43"/>
<path d="M14.25 18.75H19.25V22.5H14.25V18.75Z" fill="#454A6D"/>
<path d="M21.75 18.75H26.75V22.5H21.75V18.75Z" fill="#454A6D"/>
<path d="M24.25 38.125V28.125L38.625 18.125V22.5L34.25 33.75L38.625 36.25V38.125H24.25Z" fill="#4AC3ED"/>
<path d="M16.75 38.125V28.125L2.375 18.125V22.5L6.75 33.75L2.375 36.25V38.125H16.75Z" fill="#4AC3ED"/>
<path d="M23 6.875C23 5.49625 21.8787 4.375 20.5 4.375H19.875C18.4962 4.375 17.375 5.49625 17.375 6.875H18.625C18.625 6.18562 19.1856 5.625 19.875 5.625H20.5C21.1087 5.625 21.6169 6.06187 21.7275 6.63875L20.0581 8.30813C19.9406 8.425 19.875 8.58375 19.875 8.75V10H21.125V9.00875L22.8169 7.31687C22.9344 7.2 23 7.04125 23 6.875Z" fill="#0D1030"/>
<path d="M19.875 11.25H21.125V12.5H19.875V11.25Z" fill="#0D1030"/>
<path d="M39.0125 17.6406L39.0156 17.6369L35.8906 15.1369C35.7794 15.0481 35.6425 15 35.5 15H29.875V2.5C29.875 2.15438 29.5956 1.875 29.25 1.875H11.75C11.4044 1.875 11.125 2.15438 11.125 2.5V15H5.5C5.3575 15 5.22062 15.0481 5.10938 15.1369L1.98438 17.6369L1.9875 17.6406C1.84125 17.7581 1.75 17.9331 1.75 18.125V22.5C1.75 22.5775 1.76438 22.6544 1.7925 22.7262L5.9725 33.475L2.065 35.7075C1.87 35.8187 1.75 36.0262 1.75 36.25V38.125C1.75 38.4706 2.02938 38.75 2.375 38.75H16.75C17.0956 38.75 17.375 38.4706 17.375 38.125V34.8644L18.2575 35.5056C18.3644 35.5837 18.4931 35.625 18.625 35.625H22.375C22.5069 35.625 22.6356 35.5837 22.7425 35.5056L23.625 34.8644V38.125C23.625 38.4706 23.9044 38.75 24.25 38.75H38.625C38.9706 38.75 39.25 38.4706 39.25 38.125V36.25C39.25 36.0262 39.13 35.8187 38.935 35.7075L35.0275 33.475L39.2075 22.7269C39.2356 22.6544 39.25 22.5775 39.25 22.5V18.125C39.25 17.9331 39.1587 17.7581 39.0125 17.6406ZM37.5806 18.09L29.875 23.45V19.375H33C33.3456 19.375 33.625 19.0956 33.625 18.75V18.125C33.625 17.4187 33.3806 16.7738 32.9837 16.25H35.2806L37.5806 18.09ZM12.375 13.75H18.625V12.5H12.375V3.125H28.625V12.5H22.375V13.75H28.625V15H12.375V13.75ZM30.5 16.25C31.5338 16.25 32.375 17.0913 32.375 18.125H8.625C8.625 17.0913 9.46625 16.25 10.5 16.25H30.5ZM22.375 19.375H26.125V21.875H22.375V19.375ZM14.875 19.375H18.625V21.875H14.875V19.375ZM5.71937 16.25H8.01625C7.61938 16.7738 7.375 17.4187 7.375 18.125V18.75C7.375 19.0956 7.65438 19.375 8 19.375H11.125V23.45L3.41937 18.09L5.71937 16.25ZM16.125 37.5H3V36.6125L7.06 34.2925C7.32875 34.1387 7.44438 33.8113 7.3325 33.5238L3 22.3825V19.3212L16.125 28.4513V37.5ZM22.1719 34.375H18.8281L17.375 33.3194V28.125C17.375 27.9206 17.275 27.7288 17.1069 27.6119L12.375 24.32V19.375H13.625V22.5C13.625 22.8456 13.9044 23.125 14.25 23.125H19.25C19.5956 23.125 19.875 22.8456 19.875 22.5V19.375H21.125V22.5C21.125 22.8456 21.4044 23.125 21.75 23.125H26.75C27.0956 23.125 27.375 22.8456 27.375 22.5V19.375H28.625V24.32L23.8931 27.6119C23.725 27.7288 23.625 27.9206 23.625 28.125V33.3194L22.1719 34.375ZM38 22.3825L33.6675 33.5231C33.555 33.8113 33.6713 34.1381 33.94 34.2919L38 36.6125V37.5H24.875V28.4513L38 19.3212V22.3825Z" fill="#0D1030"/>
</svg>
