<svg width="20" height="41" viewBox="0 0 20 41" fill="none" xmlns="http://www.w3.org/2000/svg">
<path d="M17.1872 11.6832H12.9091V11.6411C12.9091 10.8411 12.2674 10.2095 11.4545 10.2095H8.54545C7.73262 10.2095 7.09091 10.8411 7.09091 11.6411V11.6832H2.81283C2.36364 11.6832 2 12.0411 2 12.4832V13.2832C2 13.7253 2.36364 14.0832 2.81283 14.0832H17.1872C17.6364 14.0832 18 13.7253 18 13.2832V12.4832C18 12.0411 17.6364 11.6832 17.1872 11.6832Z" fill="#DC2626"/>
<path d="M16.126 15.083H3.89074C3.65544 15.083 3.48432 15.2725 3.50571 15.5041L4.10464 27.6935C4.16881 29.0409 5.3025 30.1146 6.67149 30.1146H13.3239C14.6929 30.1146 15.8266 29.062 15.8907 27.6935L16.4897 15.5041C16.5324 15.2935 16.3399 15.083 16.126 15.083ZM8.68218 26.8514C8.68218 27.2304 8.38272 27.5251 7.99769 27.5251C7.61266 27.5251 7.3132 27.2304 7.3132 26.8514V18.3672C7.3132 17.9883 7.61266 17.6935 7.99769 17.6935C8.38272 17.6935 8.68218 17.9883 8.68218 18.3672V26.8514ZM12.7036 26.8514C12.7036 27.2304 12.4041 27.5251 12.0191 27.5251C11.6341 27.5251 11.3346 27.2304 11.3346 26.8514V18.3672C11.3346 17.9883 11.6341 17.6935 12.0191 17.6935C12.4041 17.6935 12.7036 17.9883 12.7036 18.3672V26.8514Z" fill="#DC2626"/>
</svg>
