<svg width="41" height="41" viewBox="0 0 41 41" fill="none" xmlns="http://www.w3.org/2000/svg">
<path d="M2.375 18.2871L5.5 15.7871H35.5L38.625 18.2871L24.25 38.2871H16.75L2.375 18.2871Z" fill="#454A6D"/>
<path d="M29.25 30.1621L22.375 35.1621H18.625L11.75 30.1621V18.9121H29.25V30.1621Z" fill="#EAE8E5"/>
<path d="M33 18.9121H8V18.2871C8 16.9065 9.11937 15.7871 10.5 15.7871H30.5C31.8806 15.7871 33 16.9065 33 18.2871V18.9121Z" fill="#E08831"/>
<path d="M11.75 2.66211H29.25V15.7871H11.75V2.66211Z" fill="#E89D43"/>
<path d="M14.25 18.9121H19.25V22.6621H14.25V18.9121Z" fill="#454A6D"/>
<path d="M21.75 18.9121H26.75V22.6621H21.75V18.9121Z" fill="#454A6D"/>
<path d="M24.25 38.2871V28.2871L38.625 18.2871V22.6621L34.25 33.9121L38.625 36.4121V38.2871H24.25Z" fill="#4AC3ED"/>
<path d="M16.75 38.2871V28.2871L2.375 18.2871V22.6621L6.75 33.9121L2.375 36.4121V38.2871H16.75Z" fill="#4AC3ED"/>
<path d="M23 7.03711C23 5.65836 21.8788 4.53711 20.5 4.53711H19.875C18.4962 4.53711 17.375 5.65836 17.375 7.03711H18.625C18.625 6.34773 19.1856 5.78711 19.875 5.78711H20.5C21.1087 5.78711 21.6169 6.22398 21.7275 6.80086L20.0581 8.47023C19.9406 8.58711 19.875 8.74586 19.875 8.91211V10.1621H21.125V9.17086L22.8169 7.47898C22.9344 7.36211 23 7.20336 23 7.03711Z" fill="#0D1030"/>
<path d="M19.875 11.4121H21.125V12.6621H19.875V11.4121Z" fill="#0D1030"/>
<path d="M39.0125 17.8027L39.0156 17.799L35.8906 15.299C35.7794 15.2102 35.6425 15.1621 35.5 15.1621H29.875V2.66211C29.875 2.31648 29.5956 2.03711 29.25 2.03711H11.75C11.4044 2.03711 11.125 2.31648 11.125 2.66211V15.1621H5.5C5.3575 15.1621 5.22063 15.2102 5.10938 15.299L1.98438 17.799L1.9875 17.8027C1.84125 17.9202 1.75 18.0952 1.75 18.2871V22.6621C1.75 22.7396 1.76438 22.8165 1.7925 22.8884L5.9725 33.6371L2.065 35.8696C1.87 35.9809 1.75 36.1884 1.75 36.4121V38.2871C1.75 38.6327 2.02938 38.9121 2.375 38.9121H16.75C17.0956 38.9121 17.375 38.6327 17.375 38.2871V35.0265L18.2575 35.6677C18.3644 35.7459 18.4931 35.7871 18.625 35.7871H22.375C22.5069 35.7871 22.6356 35.7459 22.7425 35.6677L23.625 35.0265V38.2871C23.625 38.6327 23.9044 38.9121 24.25 38.9121H38.625C38.9706 38.9121 39.25 38.6327 39.25 38.2871V36.4121C39.25 36.1884 39.13 35.9809 38.935 35.8696L35.0275 33.6371L39.2075 22.889C39.2356 22.8165 39.25 22.7396 39.25 22.6621V18.2871C39.25 18.0952 39.1587 17.9202 39.0125 17.8027ZM37.5806 18.2521L29.875 23.6121V19.5371H33C33.3456 19.5371 33.625 19.2577 33.625 18.9121V18.2871C33.625 17.5809 33.3806 16.9359 32.9837 16.4121H35.2806L37.5806 18.2521ZM12.375 13.9121H18.625V12.6621H12.375V3.28711H28.625V12.6621H22.375V13.9121H28.625V15.1621H12.375V13.9121ZM30.5 16.4121C31.5338 16.4121 32.375 17.2534 32.375 18.2871H8.625C8.625 17.2534 9.46625 16.4121 10.5 16.4121H30.5ZM22.375 19.5371H26.125V22.0371H22.375V19.5371ZM14.875 19.5371H18.625V22.0371H14.875V19.5371ZM5.71937 16.4121H8.01625C7.61938 16.9359 7.375 17.5809 7.375 18.2871V18.9121C7.375 19.2577 7.65438 19.5371 8 19.5371H11.125V23.6121L3.41938 18.2521L5.71937 16.4121ZM16.125 37.6621H3V36.7746L7.06 34.4546C7.32875 34.3009 7.44438 33.9734 7.3325 33.6859L3 22.5446V19.4834L16.125 28.6134V37.6621ZM22.1719 34.5371H18.8281L17.375 33.4815V28.2871C17.375 28.0827 17.275 27.8909 17.1069 27.774L12.375 24.4821V19.5371H13.625V22.6621C13.625 23.0077 13.9044 23.2871 14.25 23.2871H19.25C19.5956 23.2871 19.875 23.0077 19.875 22.6621V19.5371H21.125V22.6621C21.125 23.0077 21.4044 23.2871 21.75 23.2871H26.75C27.0956 23.2871 27.375 23.0077 27.375 22.6621V19.5371H28.625V24.4821L23.8931 27.774C23.725 27.8909 23.625 28.0827 23.625 28.2871V33.4815L22.1719 34.5371ZM38 22.5446L33.6675 33.6852C33.555 33.9734 33.6713 34.3002 33.94 34.454L38 36.7746V37.6621H24.875V28.6134L38 19.4834V22.5446Z" fill="#0D1030"/>
</svg>
