<svg width="24" height="25" viewBox="0 0 24 25" fill="none" xmlns="http://www.w3.org/2000/svg">
<path d="M20.8967 3.26519C20.4466 2.81526 19.8363 2.5625 19.1999 2.5625C18.5635 2.5625 17.9532 2.81526 17.5031 3.26519L8.3999 12.3684V15.762H11.7935L20.8967 6.65879C21.3466 6.20872 21.5994 5.59838 21.5994 4.96199C21.5994 4.32559 21.3466 3.71525 20.8967 3.26519Z" fill="#2563EB"/>
<path fill-rule="evenodd" clip-rule="evenodd" d="M2.3999 7.36191C2.3999 6.72539 2.65276 6.11494 3.10285 5.66486C3.55293 5.21477 4.16338 4.96191 4.7999 4.96191H9.5999C9.91816 4.96191 10.2234 5.08834 10.4484 5.31339C10.6735 5.53843 10.7999 5.84365 10.7999 6.16191C10.7999 6.48017 10.6735 6.7854 10.4484 7.01044C10.2234 7.23549 9.91816 7.36191 9.5999 7.36191H4.7999V19.3619H16.7999V14.5619C16.7999 14.2437 16.9263 13.9384 17.1514 13.7134C17.3764 13.4883 17.6816 13.3619 17.9999 13.3619C18.3182 13.3619 18.6234 13.4883 18.8484 13.7134C19.0735 13.9384 19.1999 14.2437 19.1999 14.5619V19.3619C19.1999 19.9984 18.947 20.6089 18.497 21.059C18.0469 21.5091 17.4364 21.7619 16.7999 21.7619H4.7999C4.16338 21.7619 3.55293 21.5091 3.10285 21.059C2.65276 20.6089 2.3999 19.9984 2.3999 19.3619V7.36191Z" fill="#2563EB"/>
</svg>
