<svg width="20" height="20" viewBox="0 0 20 20" fill="none" xmlns="http://www.w3.org/2000/svg">
<path d="M17.1872 1.52154H12.9091V1.47943C12.9091 0.679431 12.2674 0.0478516 11.4545 0.0478516H8.54545C7.73262 0.0478516 7.09091 0.679431 7.09091 1.47943V1.52154H2.81283C2.36364 1.52154 2 1.87943 2 2.32154V3.12154C2 3.56364 2.36364 3.92154 2.81283 3.92154H17.1872C17.6364 3.92154 18 3.56364 18 3.12154V2.32154C18 1.87943 17.6364 1.52154 17.1872 1.52154Z" fill="#DC2626"/>
<path d="M16.126 4.92188H3.89074C3.65544 4.92188 3.48432 5.11135 3.50571 5.34293L4.10464 17.5324C4.16881 18.8798 5.3025 19.9535 6.67149 19.9535H13.3239C14.6929 19.9535 15.8266 18.9008 15.8907 17.5324L16.4897 5.34293C16.5324 5.1324 16.3399 4.92188 16.126 4.92188ZM8.68218 16.6903C8.68218 17.0692 8.38272 17.364 7.99769 17.364C7.61266 17.364 7.3132 17.0692 7.3132 16.6903V8.20609C7.3132 7.82714 7.61266 7.5324 7.99769 7.5324C8.38272 7.5324 8.68218 7.82714 8.68218 8.20609V16.6903ZM12.7036 16.6903C12.7036 17.0692 12.4041 17.364 12.0191 17.364C11.6341 17.364 11.3346 17.0692 11.3346 16.6903V8.20609C11.3346 7.82714 11.6341 7.5324 12.0191 7.5324C12.4041 7.5324 12.7036 7.82714 12.7036 8.20609V16.6903Z" fill="#DC2626"/>
</svg>
