<svg width="16" height="17" viewBox="0 0 16 17" fill="none" xmlns="http://www.w3.org/2000/svg">
<path d="M8.49091 0.330659C8.35048 0.221419 8.17764 0.162109 7.99972 0.162109C7.82181 0.162109 7.64897 0.221419 7.50854 0.330659L0.926368 5.45048C0.637706 5.67503 0.404181 5.96258 0.24363 6.29117C0.0830781 6.61976 -0.000253152 6.9807 5.77686e-07 7.34642V14.5622C5.77686e-07 14.9865 0.168566 15.3934 0.468613 15.6935C0.768661 15.9935 1.17561 16.1621 1.59994 16.1621H4.79983C5.22417 16.1621 5.63112 15.9935 5.93117 15.6935C6.23121 15.3934 6.39978 14.9865 6.39978 14.5622V9.76233H9.59967V14.5622C9.59967 14.9865 9.76823 15.3934 10.0683 15.6935C10.3683 15.9935 10.7753 16.1621 11.1996 16.1621H14.3995C14.8238 16.1621 15.2308 15.9935 15.5308 15.6935C15.8309 15.3934 15.9994 14.9865 15.9994 14.5622V7.34642C15.9995 6.98057 15.9159 6.61955 15.7551 6.29095C15.5943 5.96235 15.3604 5.67487 15.0715 5.45048L8.49091 0.330659V0.330659Z" fill="#FAFAFA"/>
</svg>
