<svg width="16" height="19" viewBox="0 0 16 19" fill="none" xmlns="http://www.w3.org/2000/svg">
<g clip-path="url(#clip0_2325:18671)">
<path d="M7.875 9.16211C10.3605 9.16211 12.375 7.14766 12.375 4.66211C12.375 2.17656 10.3605 0.162109 7.875 0.162109C5.38945 0.162109 3.375 2.17656 3.375 4.66211C3.375 7.14766 5.38945 9.16211 7.875 9.16211ZM11.025 10.2871H10.4379C9.65742 10.6457 8.78906 10.8496 7.875 10.8496C6.96094 10.8496 6.09609 10.6457 5.31211 10.2871H4.725C2.11641 10.2871 0 12.4035 0 15.0121V16.4746C0 17.4062 0.755859 18.1621 1.6875 18.1621H14.0625C14.9941 18.1621 15.75 17.4062 15.75 16.4746V15.0121C15.75 12.4035 13.6336 10.2871 11.025 10.2871Z" fill="#FAFAFA"/>
</g>
<defs>
<clipPath id="clip0_2325:18671">
<rect width="15.75" height="18" fill="white" transform="translate(0 0.162109)"/>
</clipPath>
</defs>
</svg>
