<svg width="15" height="17" viewBox="0 0 15 17" fill="none" xmlns="http://www.w3.org/2000/svg">
<path d="M0 10.1621V13.1621C0 14.819 3.29071 16.1621 7.35 16.1621C11.4093 16.1621 14.7 14.819 14.7 13.1621V10.1621C14.7 11.819 11.4093 13.1621 7.35 13.1621C3.29071 13.1621 0 11.819 0 10.1621Z" fill="#FAFAFA"/>
<path d="M0 5.16211V8.16211C0 9.81896 3.29071 11.1621 7.35 11.1621C11.4093 11.1621 14.7 9.81896 14.7 8.16211V5.16211C14.7 6.81896 11.4093 8.16211 7.35 8.16211C3.29071 8.16211 0 6.81896 0 5.16211Z" fill="#FAFAFA"/>
<path d="M14.7 3.16211C14.7 4.81896 11.4093 6.16211 7.35 6.16211C3.29071 6.16211 0 4.81896 0 3.16211C0 1.50526 3.29071 0.162109 7.35 0.162109C11.4093 0.162109 14.7 1.50526 14.7 3.16211Z" fill="#FAFAFA"/>
</svg>
