<svg width="16" height="16" viewBox="0 0 16 16" fill="none" xmlns="http://www.w3.org/2000/svg">
<path d="M8.49091 0.168549C8.35048 0.0593094 8.17764 0 7.99972 0C7.82181 0 7.64897 0.0593094 7.50854 0.168549L0.926368 5.28837C0.637706 5.51292 0.404181 5.80047 0.24363 6.12906C0.0830781 6.45765 -0.000253152 6.81859 5.77686e-07 7.18431V14.4001C5.77686e-07 14.8244 0.168566 15.2313 0.468613 15.5314C0.768661 15.8314 1.17561 16 1.59994 16H4.79983C5.22417 16 5.63112 15.8314 5.93117 15.5314C6.23121 15.2313 6.39978 14.8244 6.39978 14.4001V9.60022H9.59967V14.4001C9.59967 14.8244 9.76823 15.2313 10.0683 15.5314C10.3683 15.8314 10.7753 16 11.1996 16H14.3995C14.8238 16 15.2308 15.8314 15.5308 15.5314C15.8309 15.2313 15.9994 14.8244 15.9994 14.4001V7.18431C15.9995 6.81846 15.9159 6.45744 15.7551 6.12884C15.5943 5.80024 15.3604 5.51276 15.0715 5.28837L8.49091 0.168549V0.168549Z" fill="#FAFAFA"/>
</svg>
