<svg width="47" height="47" viewBox="0 0 47 47" fill="none" xmlns="http://www.w3.org/2000/svg">
<path d="M41.75 23.6152C41.75 25.979 41.2844 28.3197 40.3798 30.5035C39.4753 32.6874 38.1494 34.6717 36.4779 36.3432C34.8065 38.0146 32.8222 39.3405 30.6383 40.2451C28.4544 41.1497 26.1138 41.6152 23.75 41.6152C21.3862 41.6152 19.0456 41.1497 16.8617 40.2451C14.6778 39.3405 12.6935 38.0146 11.0221 36.3432C9.35062 34.6717 8.02475 32.6874 7.12017 30.5035C6.21558 28.3197 5.75 25.979 5.75 23.6152C5.75 18.8413 7.64642 14.263 11.0221 10.8873C14.3977 7.51166 18.9761 5.61523 23.75 5.61523C28.5239 5.61523 33.1023 7.51166 36.4779 10.8873C39.8536 14.263 41.75 18.8413 41.75 23.6152Z" fill="#FF8F00"/>
<path d="M23.75 17.6152V23.6152M23.75 23.6152V29.6152M23.75 23.6152H29.75M23.75 23.6152H17.75M41.75 23.6152C41.75 25.979 41.2844 28.3197 40.3798 30.5035C39.4752 32.6874 38.1494 34.6717 36.4779 36.3432C34.8065 38.0146 32.8222 39.3405 30.6383 40.2451C28.4544 41.1497 26.1138 41.6152 23.75 41.6152C21.3862 41.6152 19.0456 41.1497 16.8617 40.2451C14.6778 39.3405 12.6935 38.0146 11.0221 36.3432C9.35062 34.6717 8.02475 32.6874 7.12017 30.5035C6.21558 28.3197 5.75 25.979 5.75 23.6152C5.75 18.8413 7.64642 14.263 11.0221 10.8873C14.3977 7.51166 18.9761 5.61523 23.75 5.61523C28.5239 5.61523 33.1023 7.51166 36.4779 10.8873C39.8536 14.263 41.75 18.8413 41.75 23.6152Z" stroke="white" stroke-width="2" stroke-linecap="round" stroke-linejoin="round"/>
<rect x="1.25" y="1.11523" width="45" height="45" rx="22.5" stroke="#FF8F00" stroke-dasharray="5 5"/>
</svg>
