<svg width="114" height="222" viewBox="0 0 114 222" fill="none" xmlns="http://www.w3.org/2000/svg">
<g filter="url(#filter0_b)">
<path d="M47.3618 26.7598C47.2818 26.8998 47.1951 27.0032 47.1018 27.0698C47.0151 27.1298 46.9051 27.1598 46.7718 27.1598C46.6318 27.1598 46.4784 27.1098 46.3118 27.0098C46.1518 26.9032 45.9584 26.7865 45.7318 26.6598C45.5051 26.5332 45.2384 26.4198 44.9318 26.3198C44.6318 26.2132 44.2751 26.1598 43.8618 26.1598C43.4884 26.1598 43.1618 26.2065 42.8818 26.2998C42.6018 26.3865 42.3651 26.5098 42.1718 26.6698C41.9851 26.8298 41.8451 27.0232 41.7518 27.2498C41.6584 27.4698 41.6118 27.7132 41.6118 27.9798C41.6118 28.3198 41.7051 28.6032 41.8918 28.8298C42.0851 29.0565 42.3384 29.2498 42.6518 29.4098C42.9651 29.5698 43.3218 29.7132 43.7218 29.8398C44.1218 29.9665 44.5318 30.1032 44.9518 30.2498C45.3718 30.3898 45.7818 30.5565 46.1818 30.7498C46.5818 30.9365 46.9384 31.1765 47.2518 31.4698C47.5651 31.7565 47.8151 32.1098 48.0018 32.5298C48.1951 32.9498 48.2918 33.4598 48.2918 34.0598C48.2918 34.7132 48.1784 35.3265 47.9518 35.8998C47.7318 36.4665 47.4051 36.9632 46.9718 37.3898C46.5451 37.8098 46.0218 38.1432 45.4018 38.3898C44.7818 38.6298 44.0718 38.7498 43.2718 38.7498C42.8118 38.7498 42.3584 38.7032 41.9118 38.6098C41.4651 38.5232 41.0351 38.3965 40.6218 38.2298C40.2151 38.0632 39.8318 37.8632 39.4718 37.6298C39.1118 37.3965 38.7918 37.1365 38.5118 36.8498L39.3018 35.5598C39.3684 35.4665 39.4551 35.3898 39.5618 35.3298C39.6684 35.2632 39.7818 35.2298 39.9018 35.2298C40.0684 35.2298 40.2484 35.2998 40.4418 35.4398C40.6351 35.5732 40.8651 35.7232 41.1318 35.8898C41.3984 36.0565 41.7084 36.2098 42.0618 36.3498C42.4218 36.4832 42.8518 36.5498 43.3518 36.5498C44.1184 36.5498 44.7118 36.3698 45.1318 36.0098C45.5518 35.6432 45.7618 35.1198 45.7618 34.4398C45.7618 34.0598 45.6651 33.7498 45.4718 33.5098C45.2851 33.2698 45.0351 33.0698 44.7218 32.9098C44.4084 32.7432 44.0518 32.6032 43.6518 32.4898C43.2518 32.3765 42.8451 32.2532 42.4318 32.1198C42.0184 31.9865 41.6118 31.8265 41.2118 31.6398C40.8118 31.4532 40.4551 31.2098 40.1418 30.9098C39.8284 30.6098 39.5751 30.2365 39.3818 29.7898C39.1951 29.3365 39.1018 28.7798 39.1018 28.1198C39.1018 27.5932 39.2051 27.0798 39.4118 26.5798C39.6251 26.0798 39.9318 25.6365 40.3318 25.2498C40.7318 24.8632 41.2251 24.5532 41.8118 24.3198C42.3984 24.0865 43.0718 23.9698 43.8318 23.9698C44.6851 23.9698 45.4718 24.1032 46.1918 24.3698C46.9118 24.6365 47.5251 25.0098 48.0318 25.4898L47.3618 26.7598ZM52.5816 23.7298V32.2398H53.0416C53.2083 32.2398 53.3383 32.2198 53.4316 32.1798C53.5316 32.1332 53.6316 32.0432 53.7316 31.9098L56.2816 28.7598C56.3883 28.6198 56.5049 28.5132 56.6316 28.4398C56.7649 28.3665 56.9349 28.3298 57.1416 28.3298H59.4016L56.2116 32.1398C55.9849 32.4398 55.7383 32.6698 55.4716 32.8298C55.6116 32.9298 55.7349 33.0465 55.8416 33.1798C55.9549 33.3132 56.0616 33.4565 56.1616 33.6098L59.5816 38.5898H57.3516C57.1583 38.5898 56.9916 38.5598 56.8516 38.4998C56.7116 38.4332 56.5949 38.3165 56.5016 38.1498L53.8816 34.2598C53.7883 34.1065 53.6916 34.0065 53.5916 33.9598C53.4916 33.9132 53.3416 33.8898 53.1416 33.8898H52.5816V38.5898H50.1116V23.7298H52.5816ZM63.3552 28.3298V38.5898H60.8752V28.3298H63.3552ZM63.6952 25.3398C63.6952 25.5532 63.6519 25.7532 63.5652 25.9398C63.4785 26.1265 63.3619 26.2898 63.2152 26.4298C63.0752 26.5698 62.9085 26.6832 62.7152 26.7698C62.5219 26.8498 62.3152 26.8898 62.0952 26.8898C61.8819 26.8898 61.6785 26.8498 61.4852 26.7698C61.2985 26.6832 61.1352 26.5698 60.9952 26.4298C60.8552 26.2898 60.7419 26.1265 60.6552 25.9398C60.5752 25.7532 60.5352 25.5532 60.5352 25.3398C60.5352 25.1198 60.5752 24.9132 60.6552 24.7198C60.7419 24.5265 60.8552 24.3598 60.9952 24.2198C61.1352 24.0798 61.2985 23.9698 61.4852 23.8898C61.6785 23.8032 61.8819 23.7598 62.0952 23.7598C62.3152 23.7598 62.5219 23.8032 62.7152 23.8898C62.9085 23.9698 63.0752 24.0798 63.2152 24.2198C63.3619 24.3598 63.4785 24.5265 63.5652 24.7198C63.6519 24.9132 63.6952 25.1198 63.6952 25.3398ZM68.3433 35.9298C68.6233 36.2698 68.9267 36.5098 69.2533 36.6498C69.5867 36.7898 69.9467 36.8598 70.3333 36.8598C70.7067 36.8598 71.0433 36.7898 71.3433 36.6498C71.6433 36.5098 71.8967 36.2965 72.1033 36.0098C72.3167 35.7232 72.48 35.3632 72.5933 34.9298C72.7067 34.4898 72.7633 33.9732 72.7633 33.3798C72.7633 32.7798 72.7133 32.2732 72.6133 31.8598C72.52 31.4398 72.3833 31.0998 72.2033 30.8398C72.0233 30.5798 71.8033 30.3898 71.5433 30.2698C71.29 30.1498 71 30.0898 70.6733 30.0898C70.16 30.0898 69.7233 30.1998 69.3633 30.4198C69.0033 30.6332 68.6633 30.9365 68.3433 31.3298V35.9298ZM68.2133 29.7298C68.6333 29.2565 69.11 28.8732 69.6433 28.5798C70.1767 28.2865 70.8033 28.1398 71.5233 28.1398C72.0833 28.1398 72.5933 28.2565 73.0533 28.4898C73.52 28.7232 73.92 29.0632 74.2533 29.5098C74.5933 29.9498 74.8533 30.4965 75.0333 31.1498C75.22 31.7965 75.3133 32.5398 75.3133 33.3798C75.3133 34.1465 75.21 34.8565 75.0033 35.5098C74.7967 36.1632 74.5 36.7298 74.1133 37.2098C73.7333 37.6898 73.27 38.0665 72.7233 38.3398C72.1833 38.6065 71.5767 38.7398 70.9033 38.7398C70.33 38.7398 69.84 38.6532 69.4333 38.4798C69.0267 38.2998 68.6633 38.0532 68.3433 37.7398V41.9398H65.8733V28.3298H67.3833C67.7033 28.3298 67.9133 28.4798 68.0133 28.7798L68.2133 29.7298Z" fill="white"/>
<path d="M5.55176 1.58984H108.552V-0.410156H5.55176V1.58984ZM112.552 5.58984V55.5898H114.552V5.58984H112.552ZM108.552 59.5898H5.55176V61.5898H108.552V59.5898ZM1.55176 55.5898V5.58984H-0.448242V55.5898H1.55176ZM5.55176 59.5898C3.34262 59.5898 1.55176 57.799 1.55176 55.5898H-0.448242C-0.448242 58.9036 2.23805 61.5898 5.55176 61.5898V59.5898ZM112.552 55.5898C112.552 57.799 110.761 59.5898 108.552 59.5898V61.5898C111.865 61.5898 114.552 58.9036 114.552 55.5898H112.552ZM108.552 1.58984C110.761 1.58984 112.552 3.38071 112.552 5.58984H114.552C114.552 2.27613 111.865 -0.410156 108.552 -0.410156V1.58984ZM5.55176 -0.410156C2.23805 -0.410156 -0.448242 2.27613 -0.448242 5.58984H1.55176C1.55176 3.3807 3.34262 1.58984 5.55176 1.58984V-0.410156Z" fill="white"/>
</g>
<defs>
<filter id="filter0_b" x="-19.4482" y="-19.4102" width="153" height="100" filterUnits="userSpaceOnUse" color-interpolation-filters="sRGB">
<feFlood flood-opacity="0" result="BackgroundImageFix"/>
<feGaussianBlur in="BackgroundImage" stdDeviation="10"/>
<feComposite in2="SourceAlpha" operator="in" result="effect1_backgroundBlur"/>
<feBlend mode="normal" in="SourceGraphic" in2="effect1_backgroundBlur" result="shape"/>
</filter>
</defs>
</svg>
