<svg width="15" height="16" viewBox="0 0 15 16" fill="none" xmlns="http://www.w3.org/2000/svg">
<path d="M0 10V13C0 14.6569 3.29071 16 7.35 16C11.4093 16 14.7 14.6569 14.7 13V10C14.7 11.6569 11.4093 13 7.35 13C3.29071 13 0 11.6569 0 10Z" fill="#FAFAFA"/>
<path d="M0 5V8C0 9.65685 3.29071 11 7.35 11C11.4093 11 14.7 9.65685 14.7 8V5C14.7 6.65685 11.4093 8 7.35 8C3.29071 8 0 6.65685 0 5Z" fill="#FAFAFA"/>
<path d="M14.7 3C14.7 4.65685 11.4093 6 7.35 6C3.29071 6 0 4.65685 0 3C0 1.34315 3.29071 0 7.35 0C11.4093 0 14.7 1.34315 14.7 3Z" fill="#FAFAFA"/>
</svg>
