<svg width="20" height="30" viewBox="0 0 20 30" fill="none" xmlns="http://www.w3.org/2000/svg">
<path d="M17.1872 6.52154H12.9091V6.47943C12.9091 5.67943 12.2674 5.04785 11.4545 5.04785H8.54545C7.73262 5.04785 7.09091 5.67943 7.09091 6.47943V6.52154H2.81283C2.36364 6.52154 2 6.87943 2 7.32154V8.12154C2 8.56364 2.36364 8.92154 2.81283 8.92154H17.1872C17.6364 8.92154 18 8.56364 18 8.12154V7.32154C18 6.87943 17.6364 6.52154 17.1872 6.52154Z" fill="#DC2626"/>
<path d="M16.126 9.92188H3.89074C3.65544 9.92188 3.48432 10.1113 3.50571 10.3429L4.10464 22.5324C4.16881 23.8798 5.3025 24.9535 6.67149 24.9535H13.3239C14.6929 24.9535 15.8266 23.9008 15.8907 22.5324L16.4897 10.3429C16.5324 10.1324 16.3399 9.92188 16.126 9.92188ZM8.68218 21.6903C8.68218 22.0692 8.38272 22.364 7.99769 22.364C7.61266 22.364 7.3132 22.0692 7.3132 21.6903V13.2061C7.3132 12.8271 7.61266 12.5324 7.99769 12.5324C8.38272 12.5324 8.68218 12.8271 8.68218 13.2061V21.6903ZM12.7036 21.6903C12.7036 22.0692 12.4041 22.364 12.0191 22.364C11.6341 22.364 11.3346 22.0692 11.3346 21.6903V13.2061C11.3346 12.8271 11.6341 12.5324 12.0191 12.5324C12.4041 12.5324 12.7036 12.8271 12.7036 13.2061V21.6903Z" fill="#DC2626"/>
</svg>
