<svg width="24" height="24" viewBox="0 0 24 24" fill="none" xmlns="http://www.w3.org/2000/svg">
<path d="M20.8972 3.10308C20.4471 2.65315 19.8368 2.40039 19.2004 2.40039C18.564 2.40039 17.9537 2.65315 17.5036 3.10308L8.40039 12.2063V15.5999H11.794L20.8972 6.49668C21.3471 6.04661 21.5999 5.43627 21.5999 4.79988C21.5999 4.16348 21.3471 3.55314 20.8972 3.10308Z" fill="#2563EB"/>
<path fill-rule="evenodd" clip-rule="evenodd" d="M2.40039 7.1998C2.40039 6.56328 2.65325 5.95284 3.10333 5.50275C3.55342 5.05266 4.16387 4.7998 4.80039 4.7998H9.60039C9.91865 4.7998 10.2239 4.92623 10.4489 5.15128C10.674 5.37632 10.8004 5.68154 10.8004 5.9998C10.8004 6.31806 10.674 6.62329 10.4489 6.84833C10.2239 7.07338 9.91865 7.1998 9.60039 7.1998H4.80039V19.1998H16.8004V14.3998C16.8004 14.0815 16.9268 13.7763 17.1519 13.5513C17.3769 13.3262 17.6821 13.1998 18.0004 13.1998C18.3187 13.1998 18.6239 13.3262 18.8489 13.5513C19.074 13.7763 19.2004 14.0815 19.2004 14.3998V19.1998C19.2004 19.8363 18.9475 20.4468 18.4974 20.8969C18.0474 21.3469 17.4369 21.5998 16.8004 21.5998H4.80039C4.16387 21.5998 3.55342 21.3469 3.10333 20.8969C2.65325 20.4468 2.40039 19.8363 2.40039 19.1998V7.1998Z" fill="#2563EB"/>
</svg>
<svg width="24" height="24" viewBox="0 0 24 24" fill="none" xmlns="http://www.w3.org/2000/svg">
<path d="M20.8972 3.10308C20.4471 2.65315 19.8368 2.40039 19.2004 2.40039C18.564 2.40039 17.9537 2.65315 17.5036 3.10308L8.40039 12.2063V15.5999H11.794L20.8972 6.49668C21.3471 6.04661 21.5999 5.43627 21.5999 4.79988C21.5999 4.16348 21.3471 3.55314 20.8972 3.10308Z" fill="#2563EB"/>
<path fill-rule="evenodd" clip-rule="evenodd" d="M2.40039 7.1998C2.40039 6.56328 2.65325 5.95284 3.10333 5.50275C3.55342 5.05266 4.16387 4.7998 4.80039 4.7998H9.60039C9.91865 4.7998 10.2239 4.92623 10.4489 5.15128C10.674 5.37632 10.8004 5.68154 10.8004 5.9998C10.8004 6.31806 10.674 6.62329 10.4489 6.84833C10.2239 7.07338 9.91865 7.1998 9.60039 7.1998H4.80039V19.1998H16.8004V14.3998C16.8004 14.0815 16.9268 13.7763 17.1519 13.5513C17.3769 13.3262 17.6821 13.1998 18.0004 13.1998C18.3187 13.1998 18.6239 13.3262 18.8489 13.5513C19.074 13.7763 19.2004 14.0815 19.2004 14.3998V19.1998C19.2004 19.8363 18.9475 20.4468 18.4974 20.8969C18.0474 21.3469 17.4369 21.5998 16.8004 21.5998H4.80039C4.16387 21.5998 3.55342 21.3469 3.10333 20.8969C2.65325 20.4468 2.40039 19.8363 2.40039 19.1998V7.1998Z" fill="#2563EB"/>
</svg>
