<svg width="20" height="52" viewBox="0 0 20 52" fill="none" xmlns="http://www.w3.org/2000/svg">
<path d="M17.1872 17.5215H12.9091V17.4794C12.9091 16.6794 12.2674 16.0479 11.4545 16.0479H8.54545C7.73262 16.0479 7.09091 16.6794 7.09091 17.4794V17.5215H2.81283C2.36364 17.5215 2 17.8794 2 18.3215V19.1215C2 19.5636 2.36364 19.9215 2.81283 19.9215H17.1872C17.6364 19.9215 18 19.5636 18 19.1215V18.3215C18 17.8794 17.6364 17.5215 17.1872 17.5215Z" fill="#DC2626"/>
<path d="M16.126 20.9219H3.89074C3.65544 20.9219 3.48432 21.1113 3.50571 21.3429L4.10464 33.5324C4.16881 34.8798 5.3025 35.9535 6.67149 35.9535H13.3239C14.6929 35.9535 15.8266 34.9008 15.8907 33.5324L16.4897 21.3429C16.5324 21.1324 16.3399 20.9219 16.126 20.9219ZM8.68218 32.6903C8.68218 33.0692 8.38272 33.364 7.99769 33.364C7.61266 33.364 7.3132 33.0692 7.3132 32.6903V24.2061C7.3132 23.8271 7.61266 23.5324 7.99769 23.5324C8.38272 23.5324 8.68218 23.8271 8.68218 24.2061V32.6903ZM12.7036 32.6903C12.7036 33.0692 12.4041 33.364 12.0191 33.364C11.6341 33.364 11.3346 33.0692 11.3346 32.6903V24.2061C11.3346 23.8271 11.6341 23.5324 12.0191 23.5324C12.4041 23.5324 12.7036 23.8271 12.7036 24.2061V32.6903Z" fill="#DC2626"/>
</svg>
