<svg width="16" height="18" viewBox="0 0 16 18" fill="none" xmlns="http://www.w3.org/2000/svg">
<g clip-path="url(#clip0_3115:100743)">
<path d="M7.875 9C10.3605 9 12.375 6.98555 12.375 4.5C12.375 2.01445 10.3605 0 7.875 0C5.38945 0 3.375 2.01445 3.375 4.5C3.375 6.98555 5.38945 9 7.875 9ZM11.025 10.125H10.4379C9.65742 10.4836 8.78906 10.6875 7.875 10.6875C6.96094 10.6875 6.09609 10.4836 5.31211 10.125H4.725C2.11641 10.125 0 12.2414 0 14.85V16.3125C0 17.2441 0.755859 18 1.6875 18H14.0625C14.9941 18 15.75 17.2441 15.75 16.3125V14.85C15.75 12.2414 13.6336 10.125 11.025 10.125Z" fill="#FAFAFA"/>
</g>
<defs>
<clipPath id="clip0_3115:100743">
<rect width="15.75" height="18" fill="white"/>
</clipPath>
</defs>
</svg>
