<svg width="24" height="24" viewBox="0 0 24 24" fill="none" xmlns="http://www.w3.org/2000/svg">
<path d="M21.75 22.5H2.25C1.00734 22.5 0 21.4927 0 20.25V3.75C0 2.50734 1.00734 1.5 2.25 1.5H21.75C22.9927 1.5 24 2.50734 24 3.75V20.25C24 21.4927 22.9927 22.5 21.75 22.5ZM6 5.625C4.96448 5.625 4.125 6.46448 4.125 7.5C4.125 8.53552 4.96448 9.375 6 9.375C7.03552 9.375 7.875 8.53552 7.875 7.5C7.875 6.46448 7.03552 5.625 6 5.625ZM6 10.125C4.96448 10.125 4.125 10.9645 4.125 12C4.125 13.0355 4.96448 13.875 6 13.875C7.03552 13.875 7.875 13.0355 7.875 12C7.875 10.9645 7.03552 10.125 6 10.125ZM6 14.625C4.96448 14.625 4.125 15.4645 4.125 16.5C4.125 17.5355 4.96448 18.375 6 18.375C7.03552 18.375 7.875 17.5355 7.875 16.5C7.875 15.4645 7.03552 14.625 6 14.625ZM19.5 8.25V6.75C19.5 6.43936 19.2481 6.1875 18.9375 6.1875H9.5625C9.25186 6.1875 9 6.43936 9 6.75V8.25C9 8.56064 9.25186 8.8125 9.5625 8.8125H18.9375C19.2481 8.8125 19.5 8.56064 19.5 8.25ZM19.5 12.75V11.25C19.5 10.9394 19.2481 10.6875 18.9375 10.6875H9.5625C9.25186 10.6875 9 10.9394 9 11.25V12.75C9 13.0606 9.25186 13.3125 9.5625 13.3125H18.9375C19.2481 13.3125 19.5 13.0606 19.5 12.75ZM19.5 17.25V15.75C19.5 15.4394 19.2481 15.1875 18.9375 15.1875H9.5625C9.25186 15.1875 9 15.4394 9 15.75V17.25C9 17.5606 9.25186 17.8125 9.5625 17.8125H18.9375C19.2481 17.8125 19.5 17.5606 19.5 17.25Z" fill="#FF8F00"/>
</svg>
