<svg width="20" height="30" viewBox="0 0 20 30" fill="none" xmlns="http://www.w3.org/2000/svg">
<path d="M17.1872 6.52056H12.9091V6.47845C12.9091 5.67845 12.2674 5.04688 11.4545 5.04688H8.54545C7.73262 5.04688 7.09091 5.67845 7.09091 6.47845V6.52056H2.81283C2.36364 6.52056 2 6.87845 2 7.32056V8.12056C2 8.56266 2.36364 8.92056 2.81283 8.92056H17.1872C17.6364 8.92056 18 8.56266 18 8.12056V7.32056C18 6.87845 17.6364 6.52056 17.1872 6.52056Z" fill="#DC2626"/>
<path d="M16.126 9.91992H3.89074C3.65544 9.91992 3.48432 10.1094 3.50571 10.341L4.10464 22.5304C4.16881 23.8778 5.3025 24.9515 6.67149 24.9515H13.3239C14.6929 24.9515 15.8266 23.8989 15.8907 22.5304L16.4897 10.341C16.5324 10.1304 16.3399 9.91992 16.126 9.91992ZM8.68218 21.6883C8.68218 22.0673 8.38272 22.362 7.99769 22.362C7.61266 22.362 7.3132 22.0673 7.3132 21.6883V13.2041C7.3132 12.8252 7.61266 12.5304 7.99769 12.5304C8.38272 12.5304 8.68218 12.8252 8.68218 13.2041V21.6883ZM12.7036 21.6883C12.7036 22.0673 12.4041 22.362 12.0191 22.362C11.6341 22.362 11.3346 22.0673 11.3346 21.6883V13.2041C11.3346 12.8252 11.6341 12.5304 12.0191 12.5304C12.4041 12.5304 12.7036 12.8252 12.7036 13.2041V21.6883Z" fill="#DC2626"/>
</svg>
