<svg width="48" height="40" viewBox="0 0 48 40" fill="none" xmlns="http://www.w3.org/2000/svg">
<path d="M19.2004 20.0004C19.2004 20.6369 18.9475 21.2474 18.4974 21.6974C18.0474 22.1475 17.4369 22.4004 16.8004 22.4004C16.1639 22.4004 15.5534 22.1475 15.1033 21.6974C14.6532 21.2474 14.4004 20.6369 14.4004 20.0004C14.4004 19.3639 14.6532 18.7534 15.1033 18.3033C15.5534 17.8532 16.1639 17.6004 16.8004 17.6004C17.4369 17.6004 18.0474 17.8532 18.4974 18.3033C18.9475 18.7534 19.2004 19.3639 19.2004 20.0004ZM26.4004 20.0004C26.4004 20.6369 26.1475 21.2474 25.6974 21.6974C25.2474 22.1475 24.6369 22.4004 24.0004 22.4004C23.3639 22.4004 22.7534 22.1475 22.3033 21.6974C21.8532 21.2474 21.6004 20.6369 21.6004 20.0004C21.6004 19.3639 21.8532 18.7534 22.3033 18.3033C22.7534 17.8532 23.3639 17.6004 24.0004 17.6004C24.6369 17.6004 25.2474 17.8532 25.6974 18.3033C26.1475 18.7534 26.4004 19.3639 26.4004 20.0004ZM33.6004 20.0004C33.6004 20.6369 33.3475 21.2474 32.8974 21.6974C32.4474 22.1475 31.8369 22.4004 31.2004 22.4004C30.5639 22.4004 29.9534 22.1475 29.5033 21.6974C29.0532 21.2474 28.8004 20.6369 28.8004 20.0004C28.8004 19.3639 29.0532 18.7534 29.5033 18.3033C29.9534 17.8532 30.5639 17.6004 31.2004 17.6004C31.8369 17.6004 32.4474 17.8532 32.8974 18.3033C33.3475 18.7534 33.6004 19.3639 33.6004 20.0004Z" fill="black"/>
</svg>
