<svg width="20" height="20" viewBox="0 0 20 20" fill="none" xmlns="http://www.w3.org/2000/svg">
<path d="M10 0C15.524 0 20 4.477 20 10C20 15.523 15.524 20 10 20C4.478 20 0 15.523 0 10C0 4.477 4.478 0 10 0V0ZM14.25 9.25H5.75C5.55109 9.25 5.36032 9.32902 5.21967 9.46967C5.07902 9.61032 5 9.80109 5 10C5 10.1989 5.07902 10.3897 5.21967 10.5303C5.36032 10.671 5.55109 10.75 5.75 10.75H14.25C14.4489 10.75 14.6397 10.671 14.7803 10.5303C14.921 10.3897 15 10.1989 15 10C15 9.80109 14.921 9.61032 14.7803 9.46967C14.6397 9.32902 14.4489 9.25 14.25 9.25V9.25Z" fill="#DC2626"/>
</svg>
