<svg width="20" height="20" viewBox="0 0 20 20" fill="none" xmlns="http://www.w3.org/2000/svg">
<path d="M10 0C15.524 0 20 4.477 20 10C20 15.523 15.524 20 10 20C4.478 20 0 15.523 0 10C0 4.477 4.478 0 10 0V0ZM10 1.5C7.74566 1.5 5.58365 2.39553 3.98959 3.98959C2.39553 5.58365 1.5 7.74566 1.5 10C1.5 12.2543 2.39553 14.4163 3.98959 16.0104C5.58365 17.6045 7.74566 18.5 10 18.5C12.2543 18.5 14.4163 17.6045 16.0104 16.0104C17.6045 14.4163 18.5 12.2543 18.5 10C18.5 7.74566 17.6045 5.58365 16.0104 3.98959C14.4163 2.39553 12.2543 1.5 10 1.5V1.5ZM5.75 9.25H14.25C14.4388 9.25177 14.6201 9.32471 14.7575 9.45425C14.8949 9.5838 14.9783 9.76041 14.9912 9.94881C15.0041 10.1372 14.9454 10.3235 14.8269 10.4706C14.7084 10.6176 14.5388 10.7145 14.352 10.742L14.25 10.749H5.75C5.55998 10.7489 5.37706 10.6768 5.23821 10.547C5.09936 10.4173 5.01493 10.2397 5.00197 10.0501C4.98902 9.86054 5.04852 9.67311 5.16843 9.5257C5.28835 9.37829 5.45975 9.2819 5.648 9.256L5.75 9.249H14.25H5.75V9.25Z" fill="#DC2626"/>
</svg>
