<svg width="25" height="24" viewBox="0 0 25 24" fill="none" xmlns="http://www.w3.org/2000/svg">
<path fill-rule="evenodd" clip-rule="evenodd" d="M15.7485 6.35879C15.9735 6.58382 16.0999 6.88899 16.0999 7.20719C16.0999 7.52539 15.9735 7.83056 15.7485 8.05559L11.7969 12.0072L15.7485 15.9588C15.9671 16.1851 16.0881 16.4882 16.0853 16.8029C16.0826 17.1175 15.9564 17.4185 15.7339 17.641C15.5114 17.8635 15.2105 17.9897 14.8958 17.9924C14.5812 17.9951 14.2781 17.8742 14.0517 17.6556L9.25173 12.8556C9.02677 12.6306 8.90039 12.3254 8.90039 12.0072C8.90039 11.689 9.02677 11.3838 9.25173 11.1588L14.0517 6.35879C14.2768 6.13382 14.5819 6.00745 14.9001 6.00745C15.2183 6.00745 15.5235 6.13382 15.7485 6.35879V6.35879Z" fill="black"/>
</svg>
