<svg width="24" height="25" viewBox="0 0 24 25" fill="none" xmlns="http://www.w3.org/2000/svg">
<path d="M21 21.1621L15 15.1621L21 21.1621ZM17 10.1621C17 11.0814 16.8189 11.9916 16.4672 12.8409C16.1154 13.6902 15.5998 14.4618 14.9497 15.1119C14.2997 15.7619 13.5281 16.2775 12.6788 16.6293C11.8295 16.981 10.9193 17.1621 10 17.1621C9.08075 17.1621 8.1705 16.981 7.32122 16.6293C6.47194 16.2775 5.70026 15.7619 5.05025 15.1119C4.40024 14.4618 3.88463 13.6902 3.53284 12.8409C3.18106 11.9916 3 11.0814 3 10.1621C3 8.30559 3.7375 6.52512 5.05025 5.21236C6.36301 3.89961 8.14348 3.16211 10 3.16211C11.8565 3.16211 13.637 3.89961 14.9497 5.21236C16.2625 6.52512 17 8.30559 17 10.1621Z" stroke="#71717A" stroke-width="2" stroke-linecap="round" stroke-linejoin="round"/>
</svg>
