<svg width="208" height="149" viewBox="0 0 208 149" fill="none" xmlns="http://www.w3.org/2000/svg">
<path d="M190.436 78.8471C190.436 122.117 151.932 129.99 104.436 129.99C56.9391 129.99 18.4355 122.117 18.4355 78.8471C18.4355 35.5772 56.9391 0.5 104.436 0.5C151.932 0.5 190.436 35.5772 190.436 78.8471Z" fill="#FFF7ED"/>
<path d="M125.249 48.8788C125.154 52.7374 122.835 56.2307 119.068 58.7483C115.303 61.2652 110.124 62.7788 104.425 62.6616C98.7258 62.5443 93.6271 60.8194 89.9901 58.1502C86.3523 55.4803 84.2083 51.8952 84.3038 48.0366C84.3992 44.1779 86.7182 40.6846 90.4844 38.167C94.2496 35.6501 99.4284 34.1365 105.128 34.2538C110.827 34.371 115.926 36.0959 119.563 38.7651C123.2 41.435 125.344 45.0201 125.249 48.8788Z" fill="#FFEDD5" stroke="#FF8F00"/>
<path d="M146.662 98.1936C146.351 110.773 141.459 118.444 133.806 122.943C126.108 127.469 115.542 128.831 103.809 128.59C92.0367 128.348 81.5391 127.453 74.0695 123.067C66.671 118.722 62.1462 110.884 62.503 96.4625C62.8597 82.0412 67.7674 74.3966 75.3731 70.3608C83.0521 66.2861 93.5832 65.8242 105.356 66.0664C117.129 66.3085 127.626 67.203 135.096 71.5892C142.494 75.9337 147.019 83.7722 146.662 98.1936Z" fill="#FED7AA" stroke="#FF8F00"/>
<path d="M101.186 48.375C101.186 49.9784 99.7527 51.3167 97.9355 51.3167C96.1184 51.3167 94.6855 49.9784 94.6855 48.375C94.6855 46.7716 96.1184 45.4333 97.9355 45.4333C99.7527 45.4333 101.186 46.7716 101.186 48.375Z" fill="#FF8F00" stroke="#FF8F00" stroke-width="0.5"/>
<path d="M115.186 48.375C115.186 49.9784 113.753 51.3167 111.936 51.3167C110.118 51.3167 108.686 49.9784 108.686 48.375C108.686 46.7716 110.118 45.4333 111.936 45.4333C113.753 45.4333 115.186 46.7716 115.186 48.375Z" fill="#FF8F00" stroke="#FF8F00" stroke-width="0.5"/>
<path d="M152.59 27.3826C152.479 29.6601 167.786 33.9315 176.023 29.2447C184.259 24.558 183.842 17.1113 180.207 15.2658C175.323 12.7859 170.628 16.7033 171.405 21.2988C172.107 25.4534 179.525 30.8502 190.641 27.0985C201.502 23.4333 206.947 10.8723 206.947 10.8723" stroke="#FF8F00" stroke-width="0.5" stroke-linecap="round"/>
<path d="M46.9282 49.3893C42.002 49.3893 30.397 52.1579 26.7078 60.3467C23.0187 68.5356 28.1229 74.3609 32.2554 73.9254C37.8086 73.3401 39.1146 67.6603 35.5427 64.342C32.3135 61.342 21.9918 60.4332 16.2097 69.869C11.9751 76.7796 12.502 89.0903 13.3521 91.723" stroke="#FF8F00" stroke-width="0.5" stroke-linecap="round"/>
<path d="M107.859 54.8942C107.859 56.5791 106.799 57.8358 105.609 57.8358C104.42 57.8358 103.359 56.5791 103.359 54.8942C103.359 54.067 103.621 53.4495 104.021 53.0399C104.421 52.6298 104.979 52.4084 105.609 52.4084C106.24 52.4084 106.798 52.6298 107.198 53.0399C107.598 53.4495 107.859 54.067 107.859 54.8942Z" fill="white" stroke="#FF8F00" stroke-width="0.5"/>
</svg>
