<svg width="24" height="12" viewBox="0 0 24 12" fill="none" xmlns="http://www.w3.org/2000/svg">
<g clip-path="url(#clip0)">
<rect width="24" height="11.985" fill="white"/>
<g clip-path="url(#clip1)">
<path fill-rule="evenodd" clip-rule="evenodd" d="M0.351344 11.6337C0.126379 11.4086 0 11.1035 0 10.7853C0 10.4671 0.126379 10.1619 0.351344 9.93686L4.30294 5.98526L0.351344 2.03365C0.132754 1.80733 0.0118005 1.50421 0.0145346 1.18957C0.0172687 0.874937 0.143472 0.573962 0.365961 0.351472C0.588451 0.128983 0.889426 0.00277947 1.20406 4.5363e-05C1.5187 -0.00268874 1.82182 0.118265 2.04814 0.336855L6.84814 5.13686C7.07311 5.36189 7.19949 5.66706 7.19949 5.98526C7.19949 6.30345 7.07311 6.60862 6.84814 6.83365L2.04814 11.6337C1.82311 11.8586 1.51794 11.985 1.19974 11.985C0.881546 11.985 0.576377 11.8586 0.351344 11.6337Z" fill="#3F3F46"/>
</g>
</g>
<defs>
<clipPath id="clip0">
<rect width="24" height="11.985" fill="white"/>
</clipPath>
<clipPath id="clip1">
<rect width="24" height="11.985" fill="white"/>
</clipPath>
</defs>
</svg>
