<svg width="211" height="61" viewBox="0 0 211 61" fill="none" xmlns="http://www.w3.org/2000/svg">
<g filter="url(#filter0_b)">
<path d="M0.551758 5.58984C0.551758 2.82842 2.79033 0.589844 5.55176 0.589844H205.552C208.313 0.589844 210.552 2.82842 210.552 5.58984V55.5898C210.552 58.3513 208.313 60.5898 205.552 60.5898H5.55176C2.79034 60.5898 0.551758 58.3513 0.551758 55.5898V5.58984Z" fill="#FF8F00"/>
<path d="M91.5302 36.3698V38.5898H83.0602V24.1298H85.7502V36.3698H91.5302ZM97.0735 28.1698C97.8335 28.1698 98.5235 28.2932 99.1435 28.5398C99.7701 28.7865 100.303 29.1365 100.743 29.5898C101.19 30.0432 101.533 30.5965 101.773 31.2498C102.013 31.9032 102.133 32.6332 102.133 33.4398C102.133 34.2532 102.013 34.9865 101.773 35.6398C101.533 36.2932 101.19 36.8498 100.743 37.3098C100.303 37.7698 99.7701 38.1232 99.1435 38.3698C98.5235 38.6165 97.8335 38.7398 97.0735 38.7398C96.3068 38.7398 95.6101 38.6165 94.9835 38.3698C94.3568 38.1232 93.8201 37.7698 93.3735 37.3098C92.9335 36.8498 92.5901 36.2932 92.3435 35.6398C92.1035 34.9865 91.9835 34.2532 91.9835 33.4398C91.9835 32.6332 92.1035 31.9032 92.3435 31.2498C92.5901 30.5965 92.9335 30.0432 93.3735 29.5898C93.8201 29.1365 94.3568 28.7865 94.9835 28.5398C95.6101 28.2932 96.3068 28.1698 97.0735 28.1698ZM97.0735 36.8398C97.9268 36.8398 98.5568 36.5532 98.9635 35.9798C99.3768 35.4065 99.5835 34.5665 99.5835 33.4598C99.5835 32.3532 99.3768 31.5098 98.9635 30.9298C98.5568 30.3498 97.9268 30.0598 97.0735 30.0598C96.2068 30.0598 95.5635 30.3532 95.1435 30.9398C94.7301 31.5198 94.5235 32.3598 94.5235 33.4598C94.5235 34.5598 94.7301 35.3998 95.1435 35.9798C95.5635 36.5532 96.2068 36.8398 97.0735 36.8398ZM107.69 33.2098C107.996 33.2098 108.263 33.1698 108.49 33.0898C108.716 33.0032 108.903 32.8865 109.05 32.7398C109.203 32.5932 109.316 32.4165 109.39 32.2098C109.47 32.0032 109.51 31.7765 109.51 31.5298C109.51 31.0232 109.356 30.6232 109.05 30.3298C108.75 30.0298 108.296 29.8798 107.69 29.8798C107.083 29.8798 106.626 30.0298 106.32 30.3298C106.02 30.6232 105.87 31.0232 105.87 31.5298C105.87 31.7698 105.906 31.9932 105.98 32.1998C106.06 32.4065 106.173 32.5865 106.32 32.7398C106.473 32.8865 106.663 33.0032 106.89 33.0898C107.123 33.1698 107.39 33.2098 107.69 33.2098ZM110.48 39.0498C110.48 38.8498 110.42 38.6865 110.3 38.5598C110.18 38.4332 110.016 38.3365 109.81 38.2698C109.603 38.1965 109.36 38.1432 109.08 38.1098C108.806 38.0765 108.513 38.0532 108.2 38.0398C107.893 38.0198 107.573 38.0032 107.24 37.9898C106.913 37.9765 106.593 37.9498 106.28 37.9098C106.006 38.0632 105.783 38.2432 105.61 38.4498C105.443 38.6565 105.36 38.8965 105.36 39.1698C105.36 39.3498 105.403 39.5165 105.49 39.6698C105.583 39.8298 105.726 39.9665 105.92 40.0798C106.12 40.1932 106.376 40.2798 106.69 40.3398C107.003 40.4065 107.386 40.4398 107.84 40.4398C108.3 40.4398 108.696 40.4032 109.03 40.3298C109.363 40.2632 109.636 40.1665 109.85 40.0398C110.07 39.9198 110.23 39.7732 110.33 39.5998C110.43 39.4332 110.48 39.2498 110.48 39.0498ZM112.94 28.6798V29.5998C112.94 29.8932 112.763 30.0732 112.41 30.1398L111.49 30.3098C111.63 30.6632 111.7 31.0498 111.7 31.4698C111.7 31.9765 111.596 32.4365 111.39 32.8498C111.19 33.2565 110.91 33.6032 110.55 33.8898C110.19 34.1765 109.763 34.3998 109.27 34.5598C108.783 34.7132 108.256 34.7898 107.69 34.7898C107.49 34.7898 107.296 34.7798 107.11 34.7598C106.923 34.7398 106.74 34.7132 106.56 34.6798C106.24 34.8732 106.08 35.0898 106.08 35.3298C106.08 35.5365 106.173 35.6898 106.36 35.7898C106.553 35.8832 106.806 35.9498 107.12 35.9898C107.433 36.0298 107.79 36.0565 108.19 36.0698C108.59 36.0765 109 36.0965 109.42 36.1298C109.84 36.1632 110.25 36.2232 110.65 36.3098C111.05 36.3898 111.406 36.5198 111.72 36.6998C112.033 36.8798 112.283 37.1265 112.47 37.4398C112.663 37.7465 112.76 38.1432 112.76 38.6298C112.76 39.0832 112.646 39.5232 112.42 39.9498C112.2 40.3765 111.876 40.7565 111.45 41.0898C111.03 41.4232 110.51 41.6898 109.89 41.8898C109.276 42.0965 108.576 42.1998 107.79 42.1998C107.016 42.1998 106.343 42.1232 105.77 41.9698C105.196 41.8232 104.72 41.6232 104.34 41.3698C103.96 41.1232 103.676 40.8365 103.49 40.5098C103.303 40.1832 103.21 39.8432 103.21 39.4898C103.21 39.0098 103.353 38.6098 103.64 38.2898C103.933 37.9632 104.333 37.7032 104.84 37.5098C104.566 37.3698 104.35 37.1832 104.19 36.9498C104.03 36.7165 103.95 36.4098 103.95 36.0298C103.95 35.8765 103.976 35.7198 104.03 35.5598C104.09 35.3932 104.173 35.2298 104.28 35.0698C104.393 34.9098 104.533 34.7598 104.7 34.6198C104.866 34.4732 105.063 34.3432 105.29 34.2298C104.77 33.9498 104.36 33.5765 104.06 33.1098C103.766 32.6432 103.62 32.0965 103.62 31.4698C103.62 30.9632 103.72 30.5065 103.92 30.0998C104.126 29.6865 104.41 29.3365 104.77 29.0498C105.136 28.7565 105.566 28.5332 106.06 28.3798C106.56 28.2265 107.103 28.1498 107.69 28.1498C108.13 28.1498 108.543 28.1965 108.93 28.2898C109.316 28.3765 109.67 28.5065 109.99 28.6798H112.94ZM117.066 28.3298V38.5898H114.586V28.3298H117.066ZM117.406 25.3398C117.406 25.5532 117.363 25.7532 117.276 25.9398C117.189 26.1265 117.073 26.2898 116.926 26.4298C116.786 26.5698 116.619 26.6832 116.426 26.7698C116.233 26.8498 116.026 26.8898 115.806 26.8898C115.593 26.8898 115.389 26.8498 115.196 26.7698C115.009 26.6832 114.846 26.5698 114.706 26.4298C114.566 26.2898 114.453 26.1265 114.366 25.9398C114.286 25.7532 114.246 25.5532 114.246 25.3398C114.246 25.1198 114.286 24.9132 114.366 24.7198C114.453 24.5265 114.566 24.3598 114.706 24.2198C114.846 24.0798 115.009 23.9698 115.196 23.8898C115.389 23.8032 115.593 23.7598 115.806 23.7598C116.026 23.7598 116.233 23.8032 116.426 23.8898C116.619 23.9698 116.786 24.0798 116.926 24.2198C117.073 24.3598 117.189 24.5265 117.276 24.7198C117.363 24.9132 117.406 25.1198 117.406 25.3398ZM121.894 29.5898C122.101 29.3832 122.318 29.1932 122.544 29.0198C122.778 28.8398 123.021 28.6898 123.274 28.5698C123.534 28.4432 123.811 28.3465 124.104 28.2798C124.398 28.2065 124.718 28.1698 125.064 28.1698C125.624 28.1698 126.121 28.2665 126.554 28.4598C126.988 28.6465 127.348 28.9132 127.634 29.2598C127.928 29.5998 128.148 30.0098 128.294 30.4898C128.448 30.9632 128.524 31.4865 128.524 32.0598V38.5898H126.054V32.0598C126.054 31.4332 125.911 30.9498 125.624 30.6098C125.338 30.2632 124.901 30.0898 124.314 30.0898C123.888 30.0898 123.488 30.1865 123.114 30.3798C122.741 30.5732 122.388 30.8365 122.054 31.1698V38.5898H119.584V28.3298H121.094C121.414 28.3298 121.624 28.4798 121.724 28.7798L121.894 29.5898Z" fill="white"/>
</g>
<defs>
<filter id="filter0_b" x="-3.44824" y="-3.41016" width="218" height="68" filterUnits="userSpaceOnUse" color-interpolation-filters="sRGB">
<feFlood flood-opacity="0" result="BackgroundImageFix"/>
<feGaussianBlur in="BackgroundImage" stdDeviation="2"/>
<feComposite in2="SourceAlpha" operator="in" result="effect1_backgroundBlur"/>
<feBlend mode="normal" in="SourceGraphic" in2="effect1_backgroundBlur" result="shape"/>
</filter>
</defs>
</svg>
