<svg width="17" height="10" viewBox="0 0 17 10" fill="none" xmlns="http://www.w3.org/2000/svg">
<path fill-rule="evenodd" clip-rule="evenodd" d="M6.66016 0.305054C3.70561 0.305054 1.18243 2.17105 0.160156 4.80505C1.18243 7.43905 3.70561 9.30505 6.66016 9.30505C9.6147 9.30505 12.1379 7.43905 13.1602 4.80505C12.1379 2.17105 9.6147 0.305054 6.66016 0.305054ZM6.65962 7.80505C5.02871 7.80505 3.70508 6.46105 3.70508 4.80505C3.70508 3.14905 5.02871 1.80505 6.65962 1.80505C8.29053 1.80505 9.61417 3.14905 9.61417 4.80505C9.61417 6.46105 8.29053 7.80505 6.65962 7.80505ZM4.8877 4.80506C4.8877 3.80906 5.67951 3.00506 6.66042 3.00506C7.64133 3.00506 8.43315 3.80906 8.43315 4.80506C8.43315 5.80106 7.64133 6.60506 6.66042 6.60506C5.67951 6.60506 4.8877 5.80106 4.8877 4.80506Z" fill="#FF8F00"/>
</svg>
