<svg width="127" height="149" viewBox="0 0 127 149" fill="none" xmlns="http://www.w3.org/2000/svg">
<ellipse cx="64.5215" cy="60" rx="61.5" ry="59.5" fill="#FFF7ED"/>
<path d="M56.2033 47.7989C57.2602 51.9301 56.0471 56.2604 53.1655 59.9335C50.2835 63.6071 45.747 66.5984 40.2309 68.0096C34.7147 69.4207 29.299 68.9754 25.0069 67.1371C20.7155 65.299 17.572 62.0832 16.5151 57.9519C15.4582 53.8206 16.6713 49.4903 19.5529 45.8173C22.4349 42.1437 26.9715 39.1524 32.4876 37.7412C38.0037 36.3301 43.4194 36.7754 47.7115 38.6137C52.0029 40.4518 55.1464 43.6676 56.2033 47.7989Z" fill="#FFEDD5" stroke="#FF8F00"/>
<path d="M42.0645 43.0054L51.0374 45.908" stroke="#FF8F00" stroke-linecap="round"/>
<path d="M21.1914 51.157L29.2087 46.191" stroke="#FF8F00" stroke-linecap="round"/>
<path d="M31.775 55.6008C32.097 56.8596 32.0212 58.0715 31.6629 59.0068C31.304 59.9436 30.6832 60.5622 29.9278 60.7554C29.1723 60.9487 28.3307 60.7042 27.5661 60.0549C26.8026 59.4065 26.1542 58.3799 25.8321 57.1211C25.5101 55.8623 25.5859 54.6505 25.9443 53.7151C26.3031 52.7784 26.9239 52.1598 27.6794 51.9665C28.4348 51.7733 29.2764 52.0178 30.041 52.6671C30.8045 53.3155 31.453 54.342 31.775 55.6008Z" fill="#FF8F00" stroke="#FF8F00"/>
<path d="M46.8199 51.7524C47.142 53.0112 47.0661 54.2231 46.7078 55.1584C46.3489 56.0952 45.7281 56.7138 44.9727 56.907C44.2172 57.1003 43.3756 56.8558 42.611 56.2065C41.8476 55.5581 41.1991 54.5316 40.877 53.2727C40.555 52.0139 40.6309 50.8021 40.9892 49.8667C41.3481 48.93 41.9688 48.3114 42.7243 48.1181C43.4797 47.9249 44.3213 48.1694 45.0859 48.8187C45.8494 49.4671 46.4979 50.4936 46.8199 51.7524Z" fill="#FF8F00" stroke="#FF8F00"/>
<path d="M91.6606 93.7646C95.087 107.159 92.6356 116.595 86.5941 123.413C80.5209 130.266 70.7534 134.551 59.387 137.459C47.9794 140.377 37.612 142.261 29.126 139.645C20.712 137.05 14.0223 129.98 10.0957 114.631C6.16906 99.2816 8.64157 89.8673 14.7761 83.551C20.963 77.1807 30.9617 73.855 42.3693 70.9367C53.7769 68.0184 64.1442 66.134 72.6302 68.7507C81.0443 71.3451 87.734 78.4155 91.6606 93.7646Z" fill="#FED7AA" stroke="#FF8F00"/>
<path d="M91.903 93.8702C98.7072 120.468 82.6001 131.62 60.6483 137.236C38.6965 142.851 20.1849 144.604 12.4086 114.207C4.63226 83.809 21.7114 76.4568 43.6632 70.8411C65.615 65.2254 84.1266 63.4727 91.903 93.8702Z" fill="white"/>
<path d="M15.4579 49.1941L4.12695 46.4663" stroke="#FF8F00" stroke-linecap="round"/>
<path d="M17.3456 43.7386L1.39844 32.4077" stroke="#FF8F00" stroke-linecap="round"/>
<path d="M67.9868 19.4675C68.3278 19.1485 68.7018 18.846 69.1088 18.56C69.5268 18.274 69.9778 18.021 70.4618 17.801C70.9568 17.581 71.4848 17.4105 72.0458 17.2895C72.6178 17.1575 73.2338 17.0915 73.8938 17.0915C74.7628 17.0915 75.5658 17.218 76.3028 17.471C77.0508 17.724 77.6943 18.0815 78.2333 18.5435C78.7723 19.0055 79.1958 19.5665 79.5038 20.2265C79.8118 20.8865 79.9658 21.629 79.9658 22.454C79.9658 23.29 79.8393 24.0105 79.5863 24.6155C79.3443 25.2205 79.0308 25.754 78.6458 26.216C78.2718 26.667 77.8593 27.063 77.4083 27.404C76.9573 27.734 76.5338 28.0475 76.1378 28.3445C75.7528 28.6415 75.4173 28.9385 75.1313 29.2355C74.8563 29.5325 74.6968 29.8625 74.6528 30.2255L74.3558 32.75H72.3428L72.1448 30.011V29.8295C72.1448 29.3675 72.2658 28.9605 72.5078 28.6085C72.7608 28.2455 73.0743 27.91 73.4483 27.602C73.8333 27.283 74.2403 26.9695 74.6693 26.6615C75.1093 26.3425 75.5163 25.996 75.8903 25.622C76.2753 25.237 76.5888 24.8025 76.8308 24.3185C77.0838 23.8345 77.2103 23.2625 77.2103 22.6025C77.2103 22.1295 77.1168 21.7005 76.9298 21.3155C76.7428 20.9305 76.4898 20.606 76.1708 20.342C75.8518 20.067 75.4723 19.858 75.0323 19.715C74.6033 19.572 74.1413 19.5005 73.6463 19.5005C72.9753 19.5005 72.3978 19.583 71.9138 19.748C71.4408 19.913 71.0393 20.0945 70.7093 20.2925C70.3793 20.4905 70.1098 20.672 69.9008 20.837C69.7028 21.002 69.5378 21.0845 69.4058 21.0845C69.1308 21.0845 68.9163 20.958 68.7623 20.705L67.9868 19.4675ZM71.2208 39.185C71.2208 38.899 71.2703 38.6295 71.3693 38.3765C71.4793 38.1235 71.6223 37.9035 71.7983 37.7165C71.9853 37.5295 72.2053 37.381 72.4583 37.271C72.7113 37.161 72.9808 37.106 73.2668 37.106C73.5528 37.106 73.8223 37.161 74.0753 37.271C74.3283 37.381 74.5483 37.5295 74.7353 37.7165C74.9223 37.9035 75.0653 38.1235 75.1643 38.3765C75.2743 38.6295 75.3293 38.899 75.3293 39.185C75.3293 39.482 75.2743 39.757 75.1643 40.01C75.0653 40.252 74.9223 40.4665 74.7353 40.6535C74.5483 40.8405 74.3283 40.9835 74.0753 41.0825C73.8223 41.1925 73.5528 41.2475 73.2668 41.2475C72.9808 41.2475 72.7113 41.1925 72.4583 41.0825C72.2053 40.9835 71.9853 40.8405 71.7983 40.6535C71.6223 40.4665 71.4793 40.252 71.3693 40.01C71.2703 39.757 71.2208 39.482 71.2208 39.185Z" fill="#FF8F00"/>
</svg>
