<svg width="17" height="10" viewBox="0 0 17 10" fill="none" xmlns="http://www.w3.org/2000/svg">
<path fill-rule="evenodd" clip-rule="evenodd" d="M6.66016 0.525024C3.70561 0.525024 1.18243 2.39102 0.160156 5.02502C1.18243 7.65902 3.70561 9.52502 6.66016 9.52502C9.6147 9.52502 12.1379 7.65902 13.1602 5.02502C12.1379 2.39102 9.6147 0.525024 6.66016 0.525024ZM6.65962 8.02502C5.02871 8.02502 3.70508 6.68102 3.70508 5.02502C3.70508 3.36902 5.02871 2.02502 6.65962 2.02502C8.29053 2.02502 9.61417 3.36902 9.61417 5.02502C9.61417 6.68102 8.29053 8.02502 6.65962 8.02502ZM4.8877 5.02503C4.8877 4.02903 5.67951 3.22503 6.66042 3.22503C7.64133 3.22503 8.43315 4.02903 8.43315 5.02503C8.43315 6.02103 7.64133 6.82503 6.66042 6.82503C5.67951 6.82503 4.8877 6.02103 4.8877 5.02503Z" fill="#FF8F00"/>
</svg>
