<svg width="17" height="10" viewBox="0 0 17 10" fill="none" xmlns="http://www.w3.org/2000/svg">
<path fill-rule="evenodd" clip-rule="evenodd" d="M6.66016 0.13501C3.70561 0.13501 1.18243 2.00101 0.160156 4.63501C1.18243 7.26901 3.70561 9.13501 6.66016 9.13501C9.6147 9.13501 12.1379 7.26901 13.1602 4.63501C12.1379 2.00101 9.6147 0.13501 6.66016 0.13501ZM6.65962 7.635C5.02871 7.635 3.70508 6.291 3.70508 4.635C3.70508 2.979 5.02871 1.635 6.65962 1.635C8.29053 1.635 9.61417 2.979 9.61417 4.635C9.61417 6.291 8.29053 7.635 6.65962 7.635ZM4.8877 4.63501C4.8877 3.63901 5.67951 2.83501 6.66042 2.83501C7.64133 2.83501 8.43315 3.63901 8.43315 4.63501C8.43315 5.63101 7.64133 6.43501 6.66042 6.43501C5.67951 6.43501 4.8877 5.63101 4.8877 4.63501Z" fill="#FF8F00"/>
</svg>
