<svg width="17" height="10" viewBox="0 0 17 10" fill="none" xmlns="http://www.w3.org/2000/svg">
<path fill-rule="evenodd" clip-rule="evenodd" d="M6.66016 0.915039C3.70561 0.915039 1.18243 2.78104 0.160156 5.41504C1.18243 8.04904 3.70561 9.91504 6.66016 9.91504C9.6147 9.91504 12.1379 8.04904 13.1602 5.41504C12.1379 2.78104 9.6147 0.915039 6.66016 0.915039ZM6.65962 8.41503C5.02871 8.41503 3.70508 7.07103 3.70508 5.41503C3.70508 3.75903 5.02871 2.41503 6.65962 2.41503C8.29053 2.41503 9.61417 3.75903 9.61417 5.41503C9.61417 7.07103 8.29053 8.41503 6.65962 8.41503ZM4.8877 5.41504C4.8877 4.41904 5.67951 3.61504 6.66042 3.61504C7.64133 3.61504 8.43315 4.41904 8.43315 5.41504C8.43315 6.41104 7.64133 7.21504 6.66042 7.21504C5.67951 7.21504 4.8877 6.41104 4.8877 5.41504Z" fill="#FF8F00"/>
</svg>
