<svg width="17" height="17" viewBox="0 0 17 17" fill="none" xmlns="http://www.w3.org/2000/svg">
<g clip-path="url(#clip0_3840_264942)">
<path d="M8.375 10.61C9.47957 10.61 10.375 9.71455 10.375 8.60999C10.375 7.50542 9.47957 6.60999 8.375 6.60999C7.27043 6.60999 6.375 7.50542 6.375 8.60999C6.375 9.71455 7.27043 10.61 8.375 10.61Z" fill="#FF8F00"/>
<path d="M15.8448 8.43999C15.2567 6.91881 14.2358 5.60329 12.9082 4.65603C11.5806 3.70876 10.0045 3.17127 8.37479 3.10999C6.74505 3.17127 5.16898 3.70876 3.84139 4.65603C2.5138 5.60329 1.49287 6.91881 0.904787 8.43999C0.865071 8.54984 0.865071 8.67013 0.904787 8.77999C1.49287 10.3012 2.5138 11.6167 3.84139 12.5639C5.16898 13.5112 6.74505 14.0487 8.37479 14.11C10.0045 14.0487 11.5806 13.5112 12.9082 12.5639C14.2358 11.6167 15.2567 10.3012 15.8448 8.77999C15.8845 8.67013 15.8845 8.54984 15.8448 8.43999V8.43999ZM8.37479 11.86C7.732 11.86 7.10364 11.6694 6.56918 11.3123C6.03473 10.9551 5.61816 10.4476 5.37218 9.85371C5.12619 9.25985 5.06183 8.60638 5.18724 7.97594C5.31264 7.3455 5.62217 6.76641 6.07669 6.31189C6.53121 5.85737 7.11031 5.54784 7.74074 5.42243C8.37118 5.29703 9.02465 5.36139 9.61851 5.60738C10.2124 5.85336 10.72 6.26992 11.0771 6.80438C11.4342 7.33884 11.6248 7.9672 11.6248 8.60999C11.6235 9.47153 11.2806 10.2974 10.6714 10.9066C10.0622 11.5158 9.23634 11.8587 8.37479 11.86V11.86Z" fill="#FF8F00"/>
</g>
<defs>
<clipPath id="clip0_3840_264942">
<rect width="16" height="16" fill="white" transform="translate(0.375 0.609985)"/>
</clipPath>
</defs>
</svg>
