<svg width="60" height="60" viewBox="0 0 60 60" fill="none" xmlns="http://www.w3.org/2000/svg">
<rect width="60" height="60" rx="30" fill="white"/>
<g clip-path="url(#clip0_3857_18440)">
<path d="M49.9996 22.0723C49.812 22.7845 49.7163 23.5158 49.4942 24.2203C48.6002 26.9039 47.2048 29.3934 45.382 31.5564C42.7575 34.7132 39.7059 37.489 36.3153 39.8037C35.6759 40.2555 35.0212 40.6805 34.4009 41.1323C34.3652 41.1688 34.3226 41.1978 34.2756 41.2176C34.2286 41.2373 34.1781 41.2475 34.1271 41.2475C34.0761 41.2475 34.0256 41.2373 33.9786 41.2176C33.9316 41.1978 33.889 41.1688 33.8534 41.1323C33.5551 40.9003 33.2403 40.6905 32.9115 40.5044C32.6243 40.3436 32.5898 40.2134 32.7774 39.9148C33.7301 38.4531 34.4231 36.8378 34.8259 35.1402C35.1013 33.9816 35.1308 32.7781 34.9124 31.6074C34.6939 30.4367 34.2325 29.3248 33.5578 28.3435C32.8832 27.3621 32.0102 26.5332 30.9954 25.91C29.9806 25.2869 28.8463 24.8834 27.6659 24.7257C25.5818 24.4235 23.4611 24.9304 21.7389 26.1424C21.4555 26.3377 21.2718 26.3951 20.9731 26.1424C20.475 25.7672 19.924 25.4679 19.3382 25.2541C19.2003 25.2005 19.074 25.1584 19.0166 25.0014C18.0747 22.4552 17.8679 19.9167 19.0702 17.3896C19.8298 15.7955 21.0622 14.4742 22.5996 13.6055C24.1369 12.7368 25.9046 12.3629 27.6621 12.5346C28.9112 12.6385 30.1217 13.0183 31.2063 13.6466C32.2908 14.275 33.2224 15.1362 33.9338 16.1682C33.9835 16.2448 34.0371 16.3176 34.1137 16.4209C34.2898 16.1874 34.443 15.9691 34.6153 15.7662C36.9317 13.0209 39.8646 11.9144 43.3642 12.7414C46.8638 13.5684 48.9582 15.8696 49.8197 19.3309C49.8508 19.6245 49.9111 19.9144 49.9996 20.1962V22.0723Z" fill="#FF8F00"/>
<path d="M21.3524 29.8066C22.27 28.4257 23.6955 27.4625 25.3191 27.1264C26.1619 26.96 27.0302 26.9711 27.8686 27.1589C28.7069 27.3467 29.4969 27.7072 30.1882 28.2173C30.8795 28.7274 31.4569 29.3759 31.8837 30.1216C32.3104 30.8672 32.577 31.6936 32.6666 32.5481C32.8236 34.3936 32.2225 36.0323 31.3993 37.6137C30.1963 39.8297 28.614 41.8176 26.7243 43.4871C25.1379 44.9307 23.436 46.242 21.6357 47.4078C21.4634 47.5189 21.3332 47.5916 21.1188 47.45C18.3697 45.6159 15.7891 43.5828 13.6449 41.0481C12.0751 39.195 10.7924 37.1733 10.1989 34.7841C9.32596 31.2539 11.4012 27.8463 14.9505 27.1264C17.4776 26.621 19.5452 27.5093 21.1418 29.5195C21.2069 29.6075 21.2643 29.7032 21.3524 29.8066Z" fill="#FF8F00"/>
</g>
<defs>
<clipPath id="clip0_3857_18440">
<rect width="40" height="35.0531" fill="white" transform="translate(10 12.4734)"/>
</clipPath>
</defs>
</svg>
