<svg width="60" height="60" viewBox="0 0 60 60" fill="none" xmlns="http://www.w3.org/2000/svg">
<rect width="60" height="60" rx="30" fill="white"/>
<g clip-path="url(#clip0_3857_18455)">
<path d="M20.3219 50.0181C19.4617 49.5271 19.3332 49.1645 19.5969 48.189C20.724 44.2177 21.8643 40.2431 22.9717 36.2651C22.9789 36.2022 22.9988 36.1414 23.0302 36.0863C23.0616 36.0313 23.1038 35.9832 23.1544 35.945C23.2049 35.9068 23.2627 35.8793 23.3242 35.864C23.3857 35.8488 23.4496 35.8463 23.5122 35.8565C25.1666 35.8741 26.821 35.8741 28.4755 35.8565C28.7721 35.8565 28.8677 35.9356 28.8413 36.2256C28.8182 36.4987 28.8182 36.7732 28.8413 37.0462C28.8572 37.3454 28.9872 37.627 29.2046 37.8331C29.4219 38.0392 29.7101 38.1541 30.0096 38.1541C30.3092 38.1541 30.5973 38.0392 30.8147 37.8331C31.0321 37.627 31.1621 37.3454 31.178 37.0462C31.178 36.7364 31.178 36.42 31.178 36.1102C31.178 35.9257 31.2307 35.8598 31.4186 35.8631C33.1785 35.8631 34.9384 35.8631 36.6917 35.8631C36.9619 35.8631 36.9718 36.0344 37.0213 36.1926L40.1588 47.2497C40.2478 47.5793 40.3334 47.8759 40.4224 48.189C40.6993 49.1777 40.5543 49.5271 39.6941 50.0181H31.1911C31.1911 49.6391 31.1911 49.2634 31.1911 48.8877C31.1911 48.5774 31.0679 48.2798 30.8485 48.0604C30.6291 47.841 30.3315 47.7177 30.0212 47.7177C29.7109 47.7177 29.4133 47.841 29.1939 48.0604C28.9745 48.2798 28.8512 48.5774 28.8512 48.8877C28.8512 49.2634 28.8512 49.6391 28.8512 50.0181H20.3219ZM31.1911 42.939C31.1911 42.5501 31.1911 42.1579 31.1911 41.769C31.1911 41.4587 31.0679 41.1611 30.8485 40.9417C30.6291 40.7223 30.3315 40.599 30.0212 40.599C29.7109 40.599 29.4133 40.7223 29.1939 40.9417C28.9745 41.1611 28.8512 41.4587 28.8512 41.769C28.8512 42.5501 28.8512 43.3278 28.8512 44.1089C28.8512 44.4192 28.9745 44.7168 29.1939 44.9362C29.4133 45.1556 29.7109 45.2789 30.0212 45.2789C30.3315 45.2789 30.6291 45.1556 30.8485 44.9362C31.0679 44.7168 31.1911 44.4192 31.1911 44.1089C31.2043 43.72 31.1911 43.3278 31.1911 42.939Z" fill="#FF8F00"/>
<path d="M10 28.8268H49.5188C50.0692 28.8268 50.0692 28.8268 49.9011 29.3607C49.5241 30.5595 48.7762 31.6076 47.7651 32.354C46.754 33.1003 45.532 33.5062 44.2754 33.5133C34.7639 33.5133 25.2525 33.5133 15.7411 33.5133C14.4643 33.5154 13.2218 33.1007 12.2022 32.3321C11.1826 31.5636 10.4418 30.4832 10.0923 29.2552C10.0725 29.186 10.0923 29.0937 10 29.0608V28.8268Z" fill="#FF8F00"/>
<path d="M49.2636 26.4605H10.7665C10.7434 26.3188 10.8686 26.2891 10.9411 26.2331C13.7601 24.0359 16.579 21.8278 19.3979 19.6087C19.5347 19.4953 19.7081 19.4356 19.8857 19.4406H40.1378C40.2934 19.427 40.4487 19.469 40.5761 19.5593C43.4434 21.8091 46.314 24.0579 49.1878 26.3056C49.2307 26.3336 49.2759 26.3579 49.3229 26.3781L49.2636 26.4605ZM21.8071 22.9769C21.8104 23.2083 21.8822 23.4335 22.0134 23.624C22.1447 23.8146 22.3295 23.9619 22.5445 24.0475C22.7595 24.133 22.9951 24.1528 23.2214 24.1045C23.4476 24.0561 23.6545 23.9418 23.8158 23.7759C23.9771 23.61 24.0856 23.4 24.1275 23.1724C24.1695 22.9449 24.143 22.71 24.0515 22.4975C23.9599 22.285 23.8074 22.1044 23.6133 21.9785C23.4191 21.8527 23.1919 21.7872 22.9606 21.7905C22.6528 21.8023 22.3613 21.9321 22.1465 22.153C21.9318 22.3738 21.8102 22.6689 21.8071 22.9769V22.9769ZM28.8467 22.9505C28.8448 23.1819 28.9115 23.4087 29.0384 23.6022C29.1653 23.7957 29.3468 23.9471 29.5598 24.0375C29.7728 24.1278 30.0079 24.153 30.2352 24.1098C30.4625 24.0666 30.6719 23.9569 30.8369 23.7947C31.0019 23.6324 31.1151 23.4249 31.1622 23.1983C31.2092 22.9718 31.1881 22.7364 31.1013 22.5218C31.0146 22.3073 30.8662 22.1233 30.6749 21.9931C30.4836 21.863 30.258 21.7924 30.0266 21.7905C29.7186 21.7954 29.4243 21.9186 29.2046 22.1345C28.985 22.3505 28.8568 22.6427 28.8467 22.9505V22.9505ZM35.8831 22.9736C35.8857 23.205 35.9568 23.4304 36.0876 23.6213C36.2183 23.8123 36.4027 23.9601 36.6175 24.0463C36.8322 24.1324 37.0677 24.1529 37.2941 24.1052C37.5206 24.0575 37.7278 23.9437 37.8895 23.7783C38.0513 23.6128 38.1604 23.4031 38.2029 23.1757C38.2455 22.9482 38.2197 22.7133 38.1288 22.5005C38.0378 22.2877 37.8858 22.1067 37.692 21.9803C37.4982 21.8539 37.2712 21.7879 37.0398 21.7905C36.7323 21.8022 36.4409 21.9315 36.2257 22.1516C36.0105 22.3716 35.8879 22.6658 35.8831 22.9736V22.9736Z" fill="#FF8F00"/>
<path d="M30.0209 17.0941C27.47 17.0941 24.9159 17.0941 22.3617 17.0941C22.0321 17.0941 21.9629 17.0545 22.0321 16.6986C22.3379 15.0991 23.1069 13.6248 24.2436 12.4587C25.3803 11.2927 26.8346 10.4864 28.4258 10.1401C30.1572 9.79885 31.9526 10.0327 33.5388 10.8062C35.1249 11.5796 36.4149 12.8502 37.2121 14.4245C37.5801 15.1547 37.8494 15.9304 38.013 16.7315C38.0789 17.0611 38.013 17.0974 37.7197 17.0974C35.2842 17.0974 32.8486 17.0974 30.4131 17.0974L30.0209 17.0941Z" fill="#FF8F00"/>
</g>
<defs>
<clipPath id="clip0_3857_18455">
<rect width="40" height="40.0363" fill="white" transform="translate(10 9.98193)"/>
</clipPath>
</defs>
</svg>
