<svg width="60" height="60" viewBox="0 0 60 60" fill="none" xmlns="http://www.w3.org/2000/svg">
<rect width="60" height="60" rx="30" fill="white"/>
<path d="M26.0314 38.8503C22.5016 38.8452 19.0027 38.1922 15.7087 36.9239C13.9877 36.2207 12.3695 35.3474 11.1462 33.9089C9.63709 32.1269 9.62746 30.1876 11.1076 28.3864C11.9209 27.4621 12.9013 26.6996 13.9973 26.1388C14.2093 26.02 14.2992 26.0746 14.3987 26.2673C14.6106 26.6847 14.8482 27.086 15.0633 27.5002C15.172 27.742 15.3484 27.9471 15.5712 28.0907C15.794 28.2343 16.0537 28.3103 16.3187 28.3093C16.5892 28.3122 16.8546 28.2363 17.0827 28.0909C17.3107 27.9456 17.4915 27.737 17.6031 27.4906C18.0333 26.6782 18.4989 25.8788 18.9323 25.0728C19.0413 24.8875 19.1933 24.7311 19.3754 24.6169C20.4863 23.8142 21.7963 23.7532 23.0807 23.6023C24.7515 23.4242 26.4327 23.363 28.112 23.4193C31.56 23.49 34.9686 24.1682 38.181 25.4228C38.2759 25.4524 38.3613 25.5066 38.4284 25.5799C38.4956 25.6532 38.542 25.7431 38.5631 25.8402C39.3722 28.8969 40.191 31.9493 41.0193 34.9974C41.0964 35.2832 40.9423 35.3602 40.7753 35.4726C39.1273 36.5292 37.3169 37.308 35.4165 37.7779C32.6424 38.5293 29.8073 38.8439 26.0314 38.8503ZM26.8116 33.8479C27.6432 33.8479 28.478 33.8897 29.3064 33.8479C31.2469 33.7721 33.1697 33.4484 35.028 32.8847C35.7518 32.699 36.4238 32.3509 36.993 31.8669C37.5035 31.382 37.5003 30.8812 36.993 30.3899C36.737 30.1504 36.443 29.9551 36.1229 29.812C35.5838 29.554 35.0216 29.3476 34.4436 29.1955C32.4476 28.6911 30.4013 28.4121 28.3431 28.3639C25.5318 28.2186 22.7135 28.4409 19.9598 29.0253C18.8938 29.2629 17.831 29.5487 16.9352 30.2197C16.1486 30.8073 16.155 31.4366 16.9352 32.0338C17.5568 32.4719 18.2549 32.7899 18.9933 32.9714C21.5363 33.7227 24.1691 33.88 26.8116 33.8479V33.8479Z" fill="#FF8F00"/>
<path d="M37.3787 42.3468C37.3787 43.3711 37.3594 44.3953 37.3787 45.4163C37.3872 45.5895 37.358 45.7624 37.2932 45.9232C37.2283 46.0839 37.1293 46.2287 37.0031 46.3475C36.0379 47.2884 34.8657 47.99 33.5804 48.3959C31.9824 48.938 30.3152 49.2493 28.6293 49.3207C25.8456 49.4716 23.0843 49.3496 20.4033 48.4826C19.0523 48.0906 17.8134 47.3842 16.7879 46.4213C16.6378 46.2865 16.5194 46.1202 16.4411 45.9342C16.3628 45.7483 16.3267 45.5473 16.3352 45.3457C16.3641 43.2555 16.3545 41.1717 16.3352 39.075C16.3352 38.7539 16.3834 38.6608 16.7301 38.7539C20.6472 39.9497 24.7471 40.4326 28.8348 40.1795C31.5982 40.0425 34.3336 39.5604 36.9774 38.7443C37.353 38.6287 37.3787 38.7443 37.3755 39.0654C37.3691 40.1635 37.3787 41.2519 37.3787 42.3468Z" fill="#FF8F00"/>
<path d="M47.5719 48.8326C46.5284 48.8326 46.05 48.4537 45.7867 47.4648C43.4449 38.7101 41.0979 29.9617 38.7454 21.2198C38.6491 20.8538 38.7262 20.7543 39.0665 20.6676C40.1539 20.4021 41.237 20.1121 42.3158 19.7974C42.6369 19.7011 42.7332 19.7718 42.8167 20.0864C45.0257 28.3617 47.2412 36.6337 49.463 44.9026C49.6139 45.4645 49.7424 46.036 49.919 46.5883C50.0146 46.8672 50.0168 47.1698 49.9253 47.4501C49.8338 47.7305 49.6535 47.9735 49.4117 48.1423C48.8921 48.5703 48.2448 48.8132 47.5719 48.8326V48.8326Z" fill="#FF8F00"/>
<path d="M38.9032 10.6243C39.7701 10.6821 40.4315 10.9453 40.6788 11.9567C41.1572 13.9667 41.7319 15.9542 42.2842 17.9481C42.3677 18.2499 42.3195 18.3719 41.992 18.4522C40.8778 18.7315 39.7701 19.043 38.6624 19.348C38.412 19.4186 38.2739 19.3929 38.1968 19.1007C37.6189 17.0009 37.0763 14.9042 36.4983 12.814C36.422 12.5616 36.4224 12.2922 36.4996 12.0401C36.5768 11.788 36.7272 11.5645 36.9318 11.3981C37.4733 10.9095 38.1739 10.6344 38.9032 10.6243V10.6243Z" fill="#FF8F00"/>
<path d="M16.3337 26.9287C15.8103 25.9654 15.3191 25.1017 14.8503 24.2155C14.6968 23.9023 14.4455 23.6476 14.1343 23.4899C13.2481 23.0275 12.3748 22.5267 11.418 22.0065C12.1019 21.6309 12.7023 21.2488 13.3444 20.963C13.775 20.788 14.1669 20.5298 14.4975 20.203C14.828 19.8763 15.0909 19.4875 15.2709 19.059C15.5535 18.4169 15.9452 17.8036 16.2887 17.1775C16.4846 17.2128 16.5006 17.383 16.5649 17.4986C17.0208 18.3141 17.4703 19.1329 17.907 19.9548C18.0138 20.1613 18.1821 20.3296 18.3886 20.4364C19.3229 20.9373 20.2508 21.451 21.2783 22.0065C20.7466 22.3253 20.199 22.6168 19.6376 22.8798C19.0888 23.0926 18.5902 23.4171 18.1735 23.8328C17.7567 24.2484 17.4309 24.7461 17.2167 25.2944C16.9514 25.8544 16.6567 26.3999 16.3337 26.9287V26.9287Z" fill="#FF8F00"/>
<path d="M21.2441 14.291C21.8157 13.97 22.2941 13.6682 22.8078 13.437C23.3014 13.2192 23.6939 12.8221 23.9059 12.326C24.1339 11.8187 24.4549 11.3403 24.7535 10.7784C25.142 11.4848 25.4952 12.1141 25.8356 12.7531C25.935 12.9436 26.0924 13.0976 26.2851 13.193C26.9272 13.5333 27.5694 13.8865 28.2726 14.2782C27.5726 14.6635 26.9433 15.0167 26.3043 15.3538C26.0974 15.4586 25.9289 15.626 25.8227 15.8322C25.5016 16.4744 25.142 17.0844 24.7567 17.794C24.4132 17.1872 24.0889 16.6446 23.8128 16.0827C23.6438 15.7119 23.3493 15.4128 22.9812 15.2382C22.4129 14.9653 21.8863 14.641 21.2441 14.291Z" fill="#FF8F00"/>
<path d="M29.6914 19.1971C30.3408 18.9788 30.9307 18.613 31.4148 18.1283C31.8989 17.6436 32.2641 17.0533 32.4816 16.4037C32.9985 17.7651 33.8654 18.6994 35.2653 19.0911L35.2397 19.2195C34.6649 19.5406 33.9939 19.759 33.5444 20.2053C33.0948 20.6516 32.854 21.3355 32.4398 22.0547C32.2484 21.3909 31.8981 20.7838 31.4192 20.2858C30.9403 19.7879 30.3472 19.4142 29.6914 19.1971Z" fill="#FF8F00"/>
</svg>
