<svg width="60" height="60" viewBox="0 0 60 60" fill="none" xmlns="http://www.w3.org/2000/svg">
<rect width="60" height="60" rx="30" fill="white"/>
<g clip-path="url(#clip0_3857_18529)">
<path d="M29.9436 34.5058C35.6462 34.5058 41.3504 34.5058 47.0561 34.5058C47.4855 34.5058 47.5893 34.6143 47.5893 35.039C47.5704 40.0244 47.5704 45.0099 47.5893 49.9953C47.5893 50.3869 47.476 50.4671 47.1175 50.4671C43.6795 50.4671 40.2432 50.4671 36.8084 50.4671C36.4546 50.4671 36.3366 50.3681 36.3649 49.9953C36.3649 48.4478 36.3649 46.9003 36.3649 45.348C36.3688 43.8799 35.8636 42.456 34.9353 41.3186C34.007 40.1813 32.7132 39.401 31.2741 39.1107C29.6636 38.7982 27.9946 39.1126 26.6082 39.9895C25.2217 40.8664 24.2225 42.2398 23.8148 43.8288C23.6799 44.3911 23.6149 44.9679 23.6214 45.5462C23.6214 47.0512 23.6214 48.5563 23.6214 50.0661C23.6214 50.3539 23.5459 50.4483 23.2439 50.4483C19.6959 50.4483 16.1479 50.4483 12.5999 50.4483C12.2885 50.4483 12.2319 50.3492 12.2366 50.0661C12.2366 45.0083 12.2366 39.9521 12.2366 34.8974C12.2366 34.4964 12.4017 34.4869 12.7084 34.4869L29.9436 34.5058ZM17.8558 44.3855H19.9082C20.4272 44.3855 20.6065 44.2109 20.6112 43.7108C20.6112 42.8521 20.6112 41.9934 20.6112 41.1347C20.5727 40.4677 20.2915 39.8379 19.8207 39.3639C19.3498 38.8899 18.7219 38.6046 18.0551 38.5616C17.3884 38.5187 16.729 38.7211 16.2013 39.1308C15.6735 39.5405 15.3139 40.1291 15.1901 40.7856C15.0951 41.7956 15.0777 42.8114 15.1382 43.8241C15.1382 44.2015 15.393 44.3902 15.7846 44.3855C16.4734 44.3808 17.167 44.3855 17.8558 44.3855ZM42.0314 44.3855C42.7202 44.3855 43.409 44.3855 44.0932 44.3855C44.565 44.3855 44.7726 44.1921 44.7773 43.7344C44.7773 42.8757 44.7773 42.017 44.7773 41.163C44.771 40.4348 44.4757 39.7388 43.9563 39.2283C43.437 38.7177 42.736 38.4344 42.0078 38.4407C41.2795 38.447 40.5835 38.7423 40.073 39.2616C39.5625 39.781 39.2792 40.482 39.2854 41.2102C39.2854 42.0406 39.2854 42.871 39.2854 43.6967C39.2854 44.1968 39.4741 44.3855 39.9743 44.3855C40.6678 44.3902 41.3425 44.3855 42.0314 44.3855Z" fill="#FF8F00"/>
<path d="M35.8986 21.4319C35.8986 23.2909 35.8986 25.1451 35.8986 27.004C35.8986 27.3107 35.8278 27.4145 35.507 27.4145C34.2378 27.4145 34.2142 27.4475 34.2142 28.7214C34.2142 30.1368 34.2142 31.5522 34.2142 32.9441C34.2142 33.2224 34.134 33.2979 33.8604 33.2979C31.2717 33.2979 28.6815 33.2979 26.0897 33.2979C25.8066 33.2979 25.7405 33.2083 25.7452 32.9394C25.7452 31.3918 25.7452 29.8443 25.7452 28.2968C25.7452 27.6126 25.5471 27.4239 24.863 27.4145C24.0703 27.4145 24.0703 27.4145 24.0703 26.6124C24.0703 23.0392 24.0703 19.4645 24.0703 15.8882C24.0703 15.5249 24.1316 15.3833 24.5421 15.3881C28.1751 15.4069 31.8064 15.4069 35.4362 15.3881C35.8136 15.3881 35.908 15.4871 35.908 15.8599C35.8844 17.7141 35.8986 19.573 35.8986 21.4319ZM29.9962 23.9986C30.6568 23.9986 31.3173 23.9986 31.9826 23.9986C32.4827 23.9986 32.6997 23.7721 32.7044 23.2767C32.7044 22.6256 32.7044 21.9792 32.7044 21.3329C32.6913 20.6532 32.4258 20.0028 31.9594 19.5083C31.4931 19.0137 30.8594 18.7104 30.1818 18.6574C29.5041 18.6044 28.831 18.8055 28.2934 19.2216C27.7559 19.6377 27.3925 20.2389 27.2739 20.9082C27.1916 21.692 27.1822 22.4817 27.2456 23.2673C27.2456 23.7863 27.4862 23.9891 28.0146 23.9939C28.6705 24.0033 29.3451 23.9986 29.9962 23.9986Z" fill="#FF8F00"/>
<path d="M29.9914 14.1897C27.755 14.1897 25.5139 14.1897 23.2775 14.1897C22.9378 14.1897 22.8529 14.0859 22.8576 13.7603C22.8576 12.4817 22.8576 11.1984 22.8576 9.91982C22.8576 9.59427 22.9567 9.50463 23.2634 9.52822C23.5871 9.54708 23.9116 9.54708 24.2353 9.52822C24.4523 9.52822 24.5514 9.59427 24.5278 9.81602C24.5278 9.9151 24.5278 10.0142 24.5278 10.1133C24.5278 10.736 24.7118 10.9106 25.3393 10.9153H28.0853C28.6986 10.9153 28.8873 10.7172 28.892 10.1133C28.8968 9.50934 28.8968 9.53293 29.4771 9.53293C29.8262 9.53293 30.1801 9.53293 30.5292 9.53293C30.7415 9.53293 30.8548 9.58483 30.8265 9.81602C30.8218 9.88671 30.8218 9.95764 30.8265 10.0283C30.8265 10.7691 30.9774 10.9484 31.704 10.9484H34.4028C35.002 10.9484 35.1813 10.7596 35.1954 10.1652C35.2096 9.57068 35.2143 9.53293 35.8088 9.53293C36.1343 9.53293 36.4599 9.53293 36.7807 9.53293C37.1015 9.53293 37.111 9.62258 37.1063 9.87264C37.1063 11.1795 37.1063 12.4912 37.1063 13.7981C37.1063 14.1236 37.0072 14.1944 36.6958 14.1897C34.4641 14.185 32.2277 14.1897 29.9914 14.1897Z" fill="#FF8F00"/>
<path d="M42.7061 33.2886C40.4414 33.2886 38.172 33.2886 35.9074 33.2886C35.5205 33.2886 35.4355 33.1706 35.4355 32.8167C35.4591 31.5665 35.4355 30.3114 35.4355 29.0423C35.4355 28.7262 35.4922 28.5705 35.8413 28.6176C35.8978 28.6224 35.9546 28.6224 36.0112 28.6176C36.3367 28.6176 36.7189 28.5138 36.9548 28.6554C37.1907 28.7969 37.0255 29.2452 37.0774 29.5518C37.0796 29.6367 37.0992 29.7201 37.1353 29.7969C37.1713 29.8738 37.2229 29.9423 37.2867 29.9981C37.3506 30.054 37.4253 30.096 37.5062 30.1215C37.5872 30.147 37.6725 30.1555 37.7568 30.1463C38.7697 30.1463 39.7841 30.1463 40.8 30.1463C40.8881 30.1543 40.9769 30.1428 41.0601 30.1126C41.1433 30.0825 41.2188 30.0344 41.2814 29.9719C41.344 29.9093 41.392 29.8338 41.4222 29.7506C41.4523 29.6674 41.4638 29.5786 41.4558 29.4905C41.4983 28.6176 41.4983 28.6176 42.3711 28.6176C42.4419 28.6176 42.5127 28.6176 42.5835 28.6176C42.8948 28.6176 43.2676 28.5186 43.494 28.6601C43.7205 28.8017 43.5648 29.2263 43.6026 29.5235C43.5996 29.6123 43.6161 29.7007 43.651 29.7824C43.6858 29.8641 43.7381 29.9372 43.8042 29.9965C43.8703 30.0559 43.9486 30.1 44.0336 30.1259C44.1186 30.1518 44.2082 30.1588 44.2961 30.1463C45.2964 30.1463 46.2919 30.1463 47.2921 30.1463C47.3837 30.157 47.4765 30.1468 47.5636 30.1163C47.6507 30.0859 47.7297 30.0361 47.7947 29.9707C47.8596 29.9052 47.9089 29.8259 47.9387 29.7386C47.9685 29.6513 47.9781 29.5584 47.9668 29.4669C47.9998 28.6176 47.9998 28.6082 48.868 28.6224C49.2124 28.6224 49.6747 28.4619 49.8776 28.6979C50.0805 28.9338 49.9342 29.3442 49.939 29.6792C49.939 30.7361 49.939 31.7929 49.939 32.8498C49.939 33.1895 49.8304 33.265 49.5049 33.265C47.2732 33.2838 44.985 33.2886 42.7061 33.2886Z" fill="#FF8F00"/>
<path d="M17.2707 33.2885C14.9919 33.2885 12.713 33.2885 10.4295 33.2885C10.1087 33.2885 9.99542 33.213 10.0001 32.8733C10.0001 31.5853 10.0001 30.2925 10.0001 28.9998C10.0001 28.7214 10.0756 28.627 10.354 28.6459C10.7079 28.6459 11.057 28.6459 11.4109 28.6459C11.5949 28.6459 11.6656 28.7072 11.6562 28.8865C11.6444 29.0845 11.6444 29.283 11.6562 29.481C11.6562 29.9528 11.8921 30.1746 12.3592 30.1793C13.3468 30.1793 14.3329 30.1793 15.3174 30.1793C15.8128 30.1793 16.0299 29.9528 16.044 29.4574C16.044 28.6506 16.044 28.6506 16.898 28.6506H17.1481C17.4594 28.6506 17.8322 28.5515 18.0586 28.6884C18.2851 28.8252 18.1247 29.2545 18.1672 29.5518C18.1666 29.6405 18.1848 29.7283 18.2207 29.8095C18.2566 29.8906 18.3092 29.9632 18.3752 30.0225C18.4412 30.0818 18.519 30.1265 18.6035 30.1535C18.688 30.1805 18.7773 30.1893 18.8654 30.1793C19.8594 30.1793 20.858 30.1793 21.8614 30.1793C22.3332 30.1793 22.5361 29.9481 22.5503 29.4716C22.5739 28.6506 22.5739 28.6412 23.3948 28.6506C23.7534 28.6506 24.2205 28.4949 24.4469 28.7308C24.6734 28.9667 24.5083 29.4008 24.5083 29.7499C24.5083 30.7879 24.5083 31.8306 24.5083 32.8733C24.5083 33.1941 24.4375 33.3027 24.0931 33.2979C21.8284 33.2838 19.5496 33.2885 17.2707 33.2885Z" fill="#FF8F00"/>
</g>
<defs>
<clipPath id="clip0_3857_18529">
<rect width="40" height="40.9342" fill="white" transform="translate(10 9.53296)"/>
</clipPath>
</defs>
</svg>
