<svg width="60" height="60" viewBox="0 0 60 60" fill="none" xmlns="http://www.w3.org/2000/svg">
<rect width="60" height="60" rx="30" fill="white"/>
<g clip-path="url(#clip0_3857_18448)">
<path d="M49.9995 26.477V28.3521C49.9211 28.8933 49.848 29.4345 49.7587 29.9594C49.5661 31.1314 49.27 32.2841 48.8739 33.4039C48.7335 33.3448 48.6098 33.2518 48.5141 33.1333C47.8926 32.5813 47.2285 32.0791 46.528 31.6316C45.4944 30.9768 44.4175 30.6629 43.1944 31.0471C42.3254 31.3532 41.3713 31.3085 40.5346 30.9226C40.007 30.671 39.8473 30.7278 39.4793 31.1932C38.6947 32.1998 38.3023 33.3822 37.9966 34.5971C37.5447 36.4046 37.3553 38.231 37.7963 40.0737C38.2807 42.0949 39.5741 43.2801 41.5845 43.5913C43.0077 43.8158 44.4364 44.0107 45.8001 44.5112C47.1639 45.0118 48.3896 45.6585 49.2527 46.8707C49.5933 47.4202 49.8445 48.0202 49.9968 48.6484V49.0381C49.7831 48.8892 49.5747 48.735 49.3583 48.5916C47.6753 47.4876 45.8407 46.8463 43.8141 46.9275C42.4206 46.9843 41.0677 47.3388 39.685 47.4984C36.7735 47.8367 33.8702 47.8854 30.9966 47.2279C27.0461 46.3349 23.9507 44.1919 21.8158 40.7096C20.03 37.7981 19.1749 34.5755 18.6798 31.2392C18.5228 30.1975 18.4417 29.1476 18.3578 28.0978C18.3443 27.9408 18.3578 27.7677 18.1034 27.811C17.2354 27.9245 16.3527 27.8194 15.5356 27.5052C15.0782 27.3499 14.5901 27.307 14.1126 27.38C13.6351 27.453 13.1821 27.6398 12.7919 27.9246C12.1356 28.3718 11.515 28.8694 10.9358 29.4128C10.8356 29.5021 10.7626 29.6401 10.5786 29.659L10.4325 28.8662C10.1186 27.2962 9.97798 25.6966 10.0131 24.0959C9.99922 23.2335 10.1991 22.381 10.5948 21.6147C11.2307 20.5323 12.0533 20.0886 13.2384 20.83C13.9771 21.29 14.7077 21.7662 15.4518 22.2181C16.0741 22.5942 16.6883 22.9973 17.4081 23.1651C18.1711 23.3437 18.853 23.065 18.9098 22.1315C18.9266 21.9499 18.9528 21.7692 18.9882 21.5903C19.3086 19.446 20.1576 17.4151 21.4587 15.6808C23.8695 12.5394 27.149 11.0728 31.048 10.9456C33.2973 10.8673 35.5256 11.4004 37.496 12.488C39.2768 13.4148 40.7219 14.8769 41.6278 16.6684C42.7101 18.8331 42.8048 21.1033 42.2934 23.433C42.1337 24.1554 41.874 24.8508 41.6792 25.5624C41.5466 26.036 41.736 26.2632 42.2203 26.2524C42.5942 26.2267 42.9607 26.1351 43.3027 25.9818C44.6161 25.4129 45.8621 24.6996 47.0177 23.8551C47.2647 23.6637 47.547 23.5231 47.8484 23.4411C48.5709 23.2814 49.1526 23.6738 49.5206 24.5234C49.802 25.1484 49.8507 25.8276 49.9995 26.477ZM22.9658 24.1473C22.9498 24.9817 23.0096 25.8158 23.1444 26.6393C23.4339 26.5149 23.6071 26.2605 23.8776 26.1821C24.0075 27.0398 23.9345 27.8867 24.0454 28.7959L25.7582 27.332C25.7961 27.4971 25.8312 27.6189 25.8529 27.7406C26.0098 28.5145 26.1613 29.291 26.3156 30.0676C26.3318 30.1407 26.3156 30.2408 26.3859 30.276C26.4563 30.3111 26.5402 30.2056 26.5997 30.1488C26.7675 29.9864 26.9325 29.8214 27.0949 29.6509C27.3654 29.3533 27.6495 29.0502 27.9851 28.6876L28.629 31.2717L30.2931 29.1639C30.6313 29.7591 30.9506 30.2949 31.2429 30.8442C31.37 31.085 31.4512 31.0661 31.6163 30.8739C32.0032 30.4167 32.428 29.9864 32.8095 29.521C32.9692 29.337 33.0801 29.2505 33.2154 29.54C33.3047 29.724 33.4481 29.8863 33.5428 30.0811C33.67 30.3247 33.7701 30.3761 33.973 30.1298C34.3064 29.7468 34.6138 29.3418 34.893 28.9176C35.1939 28.5104 35.4185 28.052 35.5559 27.5647C35.5057 27.5574 35.4546 27.5574 35.4044 27.5647C33.778 28.1649 32.0458 28.4255 30.3148 28.3305C27.4953 28.2141 25.1737 27.1291 23.4393 24.8481C23.2905 24.6668 23.1633 24.4476 22.9658 24.1473ZM28.9186 22.0746C27.4123 20.4999 25.898 18.9188 24.3755 17.3314L24.3485 17.3043C24.2538 17.2069 24.1888 17.2015 24.1212 17.3422C23.7344 18.0553 23.59 18.8749 23.7099 19.6773C24.1536 22.2045 27.0624 23.1218 28.924 22.0746H28.9186ZM35.9537 23.9931C37.9695 24.0228 39.4956 22.4508 39.3603 20.2049C39.3441 19.9154 39.2223 19.9695 39.0356 20.0453C37.1055 20.848 35.1744 21.6471 33.2425 22.4426C33.0206 22.5346 32.9719 22.5996 33.1694 22.7809C33.5338 23.1583 33.9694 23.4598 34.451 23.6679C34.9326 23.8759 35.4507 23.9865 35.9753 23.9931H35.9537Z" fill="#FF8F00"/>
</g>
<defs>
<clipPath id="clip0_3857_18448">
<rect width="40" height="38.1086" fill="white" transform="translate(10 10.9457)"/>
</clipPath>
</defs>
</svg>
