<svg width="16" height="10" viewBox="0 0 16 10" fill="none" xmlns="http://www.w3.org/2000/svg">
<path fill-rule="evenodd" clip-rule="evenodd" d="M6.5 0.5C3.54545 0.5 1.02227 2.366 0 5C1.02227 7.634 3.54545 9.5 6.5 9.5C9.45455 9.5 11.9777 7.634 13 5C11.9777 2.366 9.45455 0.5 6.5 0.5ZM6.49947 7.99999C4.86856 7.99999 3.54492 6.65599 3.54492 4.99999C3.54492 3.34399 4.86856 1.99999 6.49947 1.99999C8.13038 1.99999 9.45401 3.34399 9.45401 4.99999C9.45401 6.65599 8.13038 7.99999 6.49947 7.99999ZM4.72754 5C4.72754 4.004 5.51936 3.2 6.50027 3.2C7.48118 3.2 8.27299 4.004 8.27299 5C8.27299 5.996 7.48118 6.8 6.50027 6.8C5.51936 6.8 4.72754 5.996 4.72754 5Z" fill="#FF8F00"/>
</svg>
