<svg width="17" height="10" viewBox="0 0 17 10" fill="none" xmlns="http://www.w3.org/2000/svg">
<path fill-rule="evenodd" clip-rule="evenodd" d="M6.66016 0.305176C3.70561 0.305176 1.18243 2.17118 0.160156 4.80518C1.18243 7.43918 3.70561 9.30518 6.66016 9.30518C9.6147 9.30518 12.1379 7.43918 13.1602 4.80518C12.1379 2.17118 9.6147 0.305176 6.66016 0.305176ZM6.65962 7.80517C5.02871 7.80517 3.70508 6.46117 3.70508 4.80517C3.70508 3.14917 5.02871 1.80517 6.65962 1.80517C8.29053 1.80517 9.61417 3.14917 9.61417 4.80517C9.61417 6.46117 8.29053 7.80517 6.65962 7.80517ZM4.8877 4.80518C4.8877 3.80918 5.67951 3.00518 6.66042 3.00518C7.64133 3.00518 8.43315 3.80918 8.43315 4.80518C8.43315 5.80118 7.64133 6.60518 6.66042 6.60518C5.67951 6.60518 4.8877 5.80118 4.8877 4.80518Z" fill="#FF8F00"/>
</svg>
