<svg width="178" height="139" viewBox="0 0 178 139" fill="none" xmlns="http://www.w3.org/2000/svg">
<path d="M6.01118 4.95067C5.89544 5.76575 4.71188 9.45413 3.19932 9.23935C1.68675 9.02457 1.45395 5.72983 1.60658 4.65497C1.75921 3.58011 2.95293 0.107736 4.46549 0.322517C5.5894 0.247052 6.12692 4.13559 6.01118 4.95067Z" fill="#FF8F01"/>
<path d="M1 87.1689C13.5 87.1689 31.6367 79.1689 42.8252 63.0682C50.5549 51.9448 45.894 42.5963 39.8203 39.8367C35.341 37.8016 29.6547 37.7189 25.0514 43.8156C21.2525 48.8469 22.8164 59.4228 31 61.6689C39.1836 63.9151 64.6147 61.7127 77 43.8156C88.1885 27.6478 83.8711 9.5459 83.8711 9.5459" stroke="#FDBA74" stroke-linecap="round"/>
<path d="M7.37685 93.3435C6.73695 93.8615 3.35818 95.7559 2.397 94.5684C1.43582 93.381 3.50945 90.81 4.3533 90.127C5.19715 89.444 8.43623 87.7146 9.39741 88.9021C10.2717 89.6124 8.01675 92.8256 7.37685 93.3435Z" fill="#FF8F01"/>
<path d="M11.7731 96.2637H164.289L178 129.264H1L11.7731 96.2637Z" fill="url(#paint0_linear_4392_2995205)"/>
<rect x="1" y="129.264" width="177" height="9" rx="4.5" fill="#FDBA74"/>
<defs>
<linearGradient id="paint0_linear_4392_2995205" x1="89.5" y1="96.2637" x2="89.5" y2="129.264" gradientUnits="userSpaceOnUse">
<stop stop-color="#FDBA74" stop-opacity="0"/>
<stop offset="1" stop-color="#FDBA74"/>
</linearGradient>
</defs>
</svg>
