<svg width="36" height="29" viewBox="0 0 36 29" fill="none" xmlns="http://www.w3.org/2000/svg">
<path d="M28.6202 17.5003C28.7421 16.8393 28.7421 16.1642 28.6202 15.5032L29.8297 14.8047C29.9703 14.725 30.0313 14.5609 29.9844 14.4062C29.6703 13.3936 29.1312 12.4748 28.428 11.7153C28.3202 11.5981 28.1467 11.57 28.0061 11.6497L26.7966 12.3482C26.2856 11.9122 25.6996 11.5747 25.0667 11.3496V9.95261C25.0667 9.79322 24.9542 9.65258 24.7995 9.61977C23.7541 9.38537 22.6899 9.39474 21.696 9.61977C21.5413 9.65258 21.4288 9.79322 21.4288 9.95261V11.3496C20.7959 11.5747 20.2099 11.9122 19.699 12.3482L18.4894 11.6497C18.3535 11.57 18.1754 11.5981 18.0675 11.7153C17.3643 12.4748 16.8252 13.3936 16.5111 14.4062C16.4642 14.5609 16.5299 14.725 16.6658 14.8047L17.8753 15.5032C17.7534 16.1642 17.7534 16.8393 17.8753 17.5003L16.6658 18.1988C16.5252 18.2785 16.4642 18.4426 16.5111 18.5973C16.8252 19.6099 17.3643 20.524 18.0675 21.2882C18.1754 21.4054 18.3488 21.4335 18.4894 21.3538L19.699 20.6553C20.2099 21.0913 20.7959 21.4288 21.4288 21.6538V23.0509C21.4288 23.2103 21.5413 23.3509 21.696 23.3837C22.7415 23.6181 23.8056 23.6087 24.7995 23.3837C24.9542 23.3509 25.0667 23.2103 25.0667 23.0509V21.6538C25.6996 21.4288 26.2856 21.0913 26.7966 20.6553L28.0061 21.3538C28.142 21.4335 28.3202 21.4054 28.428 21.2882C29.1312 20.5287 29.6703 19.6099 29.9844 18.5973C30.0313 18.4426 29.9657 18.2785 29.8297 18.1988L28.6202 17.5003ZM23.2525 18.7754C21.9961 18.7754 20.9788 17.7534 20.9788 16.5017C20.9788 15.25 22.0008 14.2281 23.2525 14.2281C24.5041 14.2281 25.5261 15.25 25.5261 16.5017C25.5261 17.7534 24.5088 18.7754 23.2525 18.7754ZM10.5011 12.0013C13.8155 12.0013 16.5017 9.31505 16.5017 6.00063C16.5017 2.68622 13.8155 0 10.5011 0C7.1867 0 4.50047 2.68622 4.50047 6.00063C4.50047 9.31505 7.1867 12.0013 10.5011 12.0013ZM19.9334 22.6196C19.8255 22.5633 19.7177 22.4977 19.6146 22.4367L19.2442 22.6524C18.9629 22.8118 18.6442 22.9009 18.3254 22.9009C17.8144 22.9009 17.3221 22.6852 16.9705 22.3102C16.1126 21.3819 15.4563 20.2521 15.086 19.0473C14.8281 18.2175 15.175 17.3409 15.9251 16.9049L16.2955 16.6893C16.2908 16.5674 16.2908 16.4455 16.2955 16.3236L15.9251 16.108C15.175 15.6767 14.8281 14.7953 15.086 13.9655C15.1282 13.8296 15.1891 13.6936 15.236 13.5577C15.0578 13.5436 14.8844 13.5014 14.7016 13.5014H13.9187C12.8779 13.9796 11.72 14.2515 10.5011 14.2515C9.28223 14.2515 8.12898 13.9796 7.08356 13.5014H6.30066C2.82217 13.5014 0 16.3236 0 19.8021V21.7523C0 22.9946 1.00792 24.0025 2.25024 24.0025H18.752C19.2255 24.0025 19.6661 23.8525 20.0271 23.6041C19.9709 23.4259 19.9334 23.2431 19.9334 23.0509V22.6196Z" fill="black"/>
</svg>
