<svg width="21" height="25" viewBox="0 0 21 25" fill="none" xmlns="http://www.w3.org/2000/svg">
<g clip-path="url(#clip0_4462_224416)">
<path fill-rule="evenodd" clip-rule="evenodd" d="M3 11.3008V8.30078C3 6.31166 3.79018 4.404 5.1967 2.99748C6.60322 1.59096 8.51088 0.800781 10.5 0.800781C12.4891 0.800781 14.3968 1.59096 15.8033 2.99748C17.2098 4.404 18 6.31166 18 8.30078V11.3008C18.7957 11.3008 19.5587 11.6169 20.1213 12.1795C20.6839 12.7421 21 13.5051 21 14.3008V21.8008C21 22.5964 20.6839 23.3595 20.1213 23.9221C19.5587 24.4847 18.7957 24.8008 18 24.8008H3C2.20435 24.8008 1.44129 24.4847 0.87868 23.9221C0.31607 23.3595 0 22.5964 0 21.8008V14.3008C0 13.5051 0.31607 12.7421 0.87868 12.1795C1.44129 11.6169 2.20435 11.3008 3 11.3008ZM15 8.30078V11.3008H6V8.30078C6 7.10731 6.47411 5.96271 7.31802 5.1188C8.16193 4.27489 9.30653 3.80078 10.5 3.80078C11.6935 3.80078 12.8381 4.27489 13.682 5.1188C14.5259 5.96271 15 7.10731 15 8.30078Z" fill="black"/>
</g>
<defs>
<clipPath id="clip0_4462_224416">
<rect width="21" height="24" fill="white" transform="translate(0 0.800781)"/>
</clipPath>
</defs>
</svg>
