<svg width="25" height="24" viewBox="0 0 25 24" fill="none" xmlns="http://www.w3.org/2000/svg">
<path d="M21.697 3.10308C21.2469 2.65315 20.6366 2.40039 20.0002 2.40039C19.3638 2.40039 18.7535 2.65315 18.3034 3.10308L9.2002 12.2063V15.5999H12.5938L21.697 6.49668C22.1469 6.04661 22.3997 5.43627 22.3997 4.79988C22.3997 4.16348 22.1469 3.55314 21.697 3.10308Z" fill="#2563EB"/>
<path fill-rule="evenodd" clip-rule="evenodd" d="M3.2002 7.1998C3.2002 6.56328 3.45305 5.95284 3.90314 5.50275C4.35323 5.05266 4.96368 4.7998 5.6002 4.7998H10.4002C10.7185 4.7998 11.0237 4.92623 11.2487 5.15128C11.4738 5.37632 11.6002 5.68154 11.6002 5.9998C11.6002 6.31806 11.4738 6.62329 11.2487 6.84833C11.0237 7.07338 10.7185 7.1998 10.4002 7.1998H5.6002V19.1998H17.6002V14.3998C17.6002 14.0815 17.7266 13.7763 17.9517 13.5513C18.1767 13.3262 18.4819 13.1998 18.8002 13.1998C19.1185 13.1998 19.4237 13.3262 19.6487 13.5513C19.8738 13.7763 20.0002 14.0815 20.0002 14.3998V19.1998C20.0002 19.8363 19.7473 20.4468 19.2973 20.8969C18.8472 21.3469 18.2367 21.5998 17.6002 21.5998H5.6002C4.96368 21.5998 4.35323 21.3469 3.90314 20.8969C3.45305 20.4468 3.2002 19.8363 3.2002 19.1998V7.1998Z" fill="#2563EB"/>
</svg>
