<svg width="21" height="46" viewBox="0 0 21 46" fill="none" xmlns="http://www.w3.org/2000/svg">
<path d="M17.987 17.5215H13.7089V17.4794C13.7089 16.6794 13.0672 16.0479 12.2543 16.0479H9.34526C8.53243 16.0479 7.89071 16.6794 7.89071 17.4794V17.5215H3.61264C3.16344 17.5215 2.7998 17.8794 2.7998 18.3215V19.1215C2.7998 19.5636 3.16344 19.9215 3.61264 19.9215H17.987C18.4362 19.9215 18.7998 19.5636 18.7998 19.1215V18.3215C18.7998 17.8794 18.4362 17.5215 17.987 17.5215Z" fill="#DC2626"/>
<path d="M16.9258 20.9219H4.69054C4.45525 20.9219 4.28413 21.1113 4.30552 21.3429L4.90445 33.5324C4.96862 34.8798 6.10231 35.9535 7.47129 35.9535H14.1237C15.4927 35.9535 16.6264 34.9008 16.6905 33.5324L17.2895 21.3429C17.3323 21.1324 17.1397 20.9219 16.9258 20.9219ZM9.48199 32.6903C9.48199 33.0692 9.18252 33.364 8.79749 33.364C8.41247 33.364 8.113 33.0692 8.113 32.6903V24.2061C8.113 23.8271 8.41247 23.5324 8.79749 23.5324C9.18252 23.5324 9.48199 23.8271 9.48199 24.2061V32.6903ZM13.5034 32.6903C13.5034 33.0692 13.2039 33.364 12.8189 33.364C12.4339 33.364 12.1344 33.0692 12.1344 32.6903V24.2061C12.1344 23.8271 12.4339 23.5324 12.8189 23.5324C13.2039 23.5324 13.5034 23.8271 13.5034 24.2061V32.6903Z" fill="#DC2626"/>
</svg>
