<svg width="21" height="20" viewBox="0 0 21 20" fill="none" xmlns="http://www.w3.org/2000/svg">
<g clip-path="url(#clip0_4490_1316082)">
<path d="M10.7998 0C16.3238 0 20.7998 4.477 20.7998 10C20.7998 15.523 16.3238 20 10.7998 20C5.2778 20 0.799805 15.523 0.799805 10C0.799805 4.477 5.2778 0 10.7998 0V0ZM15.0498 9.25H6.5498C6.35089 9.25 6.16013 9.32902 6.01947 9.46967C5.87882 9.61032 5.7998 9.80109 5.7998 10C5.7998 10.1989 5.87882 10.3897 6.01947 10.5303C6.16013 10.671 6.35089 10.75 6.5498 10.75H15.0498C15.2487 10.75 15.4395 10.671 15.5801 10.5303C15.7208 10.3897 15.7998 10.1989 15.7998 10C15.7998 9.80109 15.7208 9.61032 15.5801 9.46967C15.4395 9.32902 15.2487 9.25 15.0498 9.25V9.25Z" fill="#DC2626"/>
</g>
<defs>
<clipPath id="clip0_4490_1316082">
<rect width="20" height="20" fill="white" transform="translate(0.799805)"/>
</clipPath>
</defs>
</svg>
