<svg width="152" height="178" viewBox="0 0 152 178" fill="none" xmlns="http://www.w3.org/2000/svg">
<g clip-path="url(#clip0_4528_14752)">
<path d="M66.3509 168.879L65.8708 170.974L65.9863 171.1C65.9607 171.164 65.935 171.228 65.9042 171.292C65.6491 171.867 65.3576 172.424 65.0313 172.962C64.5999 173.677 64.1173 174.366 63.6166 175.042C63.3419 175.416 63.0595 175.787 62.7771 176.156C62.7694 176.168 62.7608 176.18 62.7514 176.192C62.7545 176.179 62.7588 176.166 62.7642 176.153L62.6718 176.133L62.1404 173.833L61.9786 174.197V174.199L61.7167 174.801C61.7373 174.911 61.7578 175.019 61.7835 175.126C61.7809 175.124 61.7809 175.119 61.7784 175.116C61.7758 175.113 61.7758 175.113 61.7758 175.111C61.7424 175.039 61.7065 174.97 61.6731 174.898L61.2726 175.815L60.4613 175.631C60.0351 175.411 59.6089 175.188 59.1853 174.957C53.3983 171.825 48.0401 167.827 44.4329 162.384C42.999 160.216 41.9152 157.836 41.2211 155.333C39.8527 150.359 40.0889 145.006 42.5793 140.562C42.5792 140.562 42.5793 140.561 42.5794 140.561C42.5796 140.561 42.5797 140.56 42.58 140.56C42.5802 140.56 42.5805 140.56 42.5808 140.56C42.5811 140.56 42.5815 140.559 42.5818 140.559C42.6434 140.447 42.7076 140.334 42.7744 140.221C42.8232 140.349 42.8694 140.478 42.9207 140.606V140.608C43.5901 142.347 44.398 144.03 45.3367 145.641C45.4085 145.767 45.4804 145.892 45.5575 146.015C47.8505 149.855 50.8382 153.237 54.3688 155.988C54.3784 155.998 54.3887 156.006 54.3996 156.014C54.4118 156.024 54.4247 156.034 54.4381 156.042C55.2238 156.657 56.0359 157.235 56.8746 157.776V157.779C57.5293 158.204 58.2019 158.606 58.8849 158.988C60.3406 159.797 61.9247 160.576 63.2854 161.546C64.6076 162.486 65.7219 163.606 66.315 165.104C66.3612 165.224 66.4048 165.345 66.4433 165.465L65.3856 168.721L66.3509 168.879Z" fill="#F0F0F0"/>
<path d="M61.9792 174.196V174.199L61.7173 174.801C61.3219 172.608 61.7918 170.291 61.4657 168.07C61.4298 167.822 61.3835 167.573 61.3245 167.327C60.9907 165.924 60.2282 164.61 58.8726 163.982C58.4769 163.802 58.0617 163.669 57.6351 163.585C56.793 163.406 55.915 163.367 55.0652 163.268C54.8521 163.242 54.6415 163.214 54.4361 163.175C53.3373 163.006 52.2881 162.601 51.3604 161.989C50.2245 161.184 49.2347 160.192 48.4335 159.054C47.9041 158.34 47.4114 157.6 46.9573 156.836C46.8957 156.739 46.8392 156.639 46.7801 156.539C45.7176 154.703 44.8461 152.764 44.1793 150.751C43.8359 149.722 43.5479 148.675 43.3167 147.616C42.8021 145.3 42.5549 142.934 42.5798 140.562C42.5798 140.562 42.5799 140.561 42.58 140.561C42.5801 140.561 42.5803 140.56 42.5806 140.56C42.5808 140.56 42.5811 140.56 42.5814 140.56C42.5817 140.559 42.5821 140.559 42.5824 140.559C42.5798 140.452 42.5824 140.344 42.585 140.237C42.5901 140.016 42.9316 140.065 42.9264 140.285C42.9239 140.393 42.9213 140.498 42.9213 140.606V140.608C42.9004 142.88 43.1303 145.148 43.6068 147.37C43.6325 147.483 43.6582 147.595 43.6813 147.708C44.3754 150.787 45.5419 153.741 47.1396 156.465C47.1575 156.496 47.1755 156.526 47.196 156.557C47.5683 157.19 47.9688 157.804 48.3899 158.406C49.1635 159.565 50.1148 160.595 51.2089 161.459C52.1296 162.146 53.1988 162.609 54.3309 162.809C54.4438 162.83 54.5568 162.85 54.6723 162.868C54.7622 162.883 54.8546 162.896 54.947 162.906C55.8123 163.014 56.7006 163.055 57.5607 163.219C57.9517 163.293 58.3357 163.4 58.7083 163.539C59.3183 163.783 59.8697 164.153 60.3264 164.624C60.783 165.096 61.1345 165.658 61.3579 166.274C61.5868 166.873 61.7436 167.496 61.8251 168.131C61.8534 168.339 61.8739 168.546 61.8919 168.756V168.759C61.9176 169.097 61.9304 169.438 61.9355 169.778C61.9407 170.203 61.933 170.629 61.9227 171.051C61.8657 172.1 61.8846 173.151 61.9792 174.196Z" fill="white"/>
<path d="M47.1033 156.765C46.1249 157.26 45.0018 157.393 43.9345 157.139C42.8672 156.885 41.9252 156.261 41.2767 155.378C41.1461 155.198 41.419 154.988 41.5497 155.167C42.1521 155.99 43.0297 156.572 44.024 156.806C45.0184 157.041 46.0641 156.913 46.9723 156.446C47.1698 156.345 47.2996 156.664 47.1032 156.765H47.1033Z" fill="white"/>
<path d="M54.2967 162.912C55.0116 160.791 54.8989 158.479 53.981 156.437C53.8899 156.235 54.2093 156.104 54.3003 156.306C55.2514 158.433 55.3638 160.839 54.615 163.044C54.5435 163.255 54.2255 163.121 54.2967 162.912H54.2967Z" fill="white"/>
<path d="M43.5072 147.402C43.9258 147.289 44.3097 147.074 44.6244 146.776C44.939 146.478 45.1747 146.107 45.3101 145.696C45.3789 145.485 45.6968 145.619 45.6285 145.829C45.4767 146.282 45.216 146.692 44.869 147.021C44.5221 147.351 44.0995 147.591 43.6381 147.72C43.5957 147.736 43.5488 147.735 43.507 147.718C43.4652 147.7 43.4316 147.668 43.413 147.626C43.3959 147.584 43.3962 147.537 43.4138 147.495C43.4315 147.453 43.465 147.419 43.5072 147.402H43.5072Z" fill="white"/>
<path d="M62.7374 176.212C62.7426 176.205 62.7477 176.199 62.7528 176.192C62.7426 176.223 62.7323 176.253 62.7246 176.287L62.7374 176.212Z" fill="#F0F0F0"/>
<path d="M70.3705 160.445L70.0111 161.7L67.8031 161.288L67.0714 163.539L66.9456 163.926L66.4449 165.465L65.3872 168.72L66.3525 168.879L65.8724 170.974L65.9879 171.1L66.0239 171.138L66.2627 171.4L67.7158 172.982L63.7414 176.376L63.1047 176.23L62.7787 176.156C62.771 176.168 62.7624 176.18 62.753 176.192C62.7561 176.179 62.7604 176.166 62.7658 176.153L62.6734 176.133L62.142 173.833L61.9802 174.196V174.199L61.7183 174.801C61.7389 174.911 61.7594 175.019 61.7851 175.126C61.7825 175.124 61.7825 175.119 61.78 175.116C61.7774 175.113 61.7774 175.113 61.7774 175.111C61.744 175.039 61.7081 174.97 61.6747 174.898C61.1663 173.84 60.6811 172.767 60.2318 171.681C59.1245 169.066 58.2558 166.356 57.6361 163.585C57.6105 163.465 57.5822 163.344 57.5617 163.221V163.219C57.1851 161.427 56.9558 159.608 56.8762 157.779V157.776C56.8351 156.775 56.8454 155.772 56.907 154.772C57.0694 152.187 57.6386 149.643 58.5938 147.234C58.5989 147.221 58.604 147.211 58.6092 147.198C60.4398 142.603 63.6619 138.618 68.0419 136.495C68.2242 136.402 68.4116 136.315 68.599 136.233H68.6041L68.6067 136.231C68.7248 136.18 68.8403 136.131 68.9584 136.08C68.9199 136.213 68.8788 136.346 68.8429 136.482C68.3248 138.272 67.9539 140.1 67.7338 141.95V141.953C67.7133 142.094 67.6953 142.24 67.6799 142.383V142.386C67.1955 146.847 67.5455 151.36 68.712 155.694C68.7145 155.707 68.7197 155.717 68.7222 155.73C69.1579 157.339 69.7087 158.915 70.3705 160.445Z" fill="#F0F0F0"/>
<path d="M66.2616 171.4C66.0588 171.671 65.8508 171.935 65.6403 172.199C65.4375 172.452 65.2346 172.706 65.0318 172.962C64.5016 173.614 64.0284 174.31 63.6172 175.042C63.411 175.422 63.2392 175.82 63.1037 176.23L62.7776 176.156C62.7699 176.168 62.7614 176.18 62.752 176.192C62.7551 176.179 62.7594 176.166 62.7648 176.153C63.363 174.289 64.7237 172.844 65.9047 171.292C65.9458 171.241 65.9843 171.19 66.0228 171.138L66.2616 171.4Z" fill="white"/>
<path d="M69.0421 136.223C68.9754 136.308 68.9061 136.395 68.8419 136.482C68.3412 137.13 67.868 137.798 67.4221 138.487C66.628 139.703 65.9227 140.974 65.3117 142.291C65.2629 142.393 65.2141 142.498 65.1679 142.603C63.8604 145.48 63.0081 148.543 62.6416 151.68C62.6364 151.711 62.6339 151.739 62.6313 151.77C62.5466 152.503 62.4918 153.238 62.467 153.975C62.3851 155.364 62.5229 156.758 62.8752 158.104C62.9265 158.281 62.983 158.455 63.0446 158.624C63.1991 159.038 63.3925 159.437 63.6223 159.815C63.7874 160.091 63.971 160.355 64.1717 160.606C64.2924 160.76 64.4182 160.911 64.5517 161.057C64.6287 161.142 64.7083 161.226 64.7879 161.311C64.8547 161.375 64.9189 161.441 64.9856 161.505C65.6788 162.176 66.4439 162.799 67.0704 163.539L66.9446 163.926C66.3412 163.163 65.5633 162.53 64.8624 161.864C64.4224 161.451 64.0218 160.999 63.666 160.512C63.6197 160.445 63.571 160.378 63.5273 160.309C63.2895 159.963 63.0841 159.595 62.9137 159.211C62.8264 159.018 62.7468 158.821 62.675 158.616C62.2555 157.292 62.0645 155.906 62.1101 154.518C62.1184 153.629 62.1715 152.741 62.2693 151.857C62.2796 151.742 62.2924 151.629 62.3078 151.514C62.5682 149.41 63.043 147.339 63.725 145.331C64.5882 142.784 65.7755 140.359 67.2578 138.113C67.6814 137.471 68.1307 136.843 68.6057 136.231C68.6673 136.146 68.7315 136.064 68.7982 135.98C68.9343 135.806 69.1782 136.049 69.0421 136.223Z" fill="white"/>
<path d="M62.4307 151.89C61.3504 151.698 60.3736 151.129 59.6748 150.285C58.9759 149.441 58.6005 148.377 58.6157 147.282C58.6167 147.238 58.6351 147.195 58.6669 147.164C58.6987 147.133 58.7415 147.115 58.7862 147.114C58.831 147.114 58.8742 147.13 58.9067 147.161C58.9393 147.192 58.9587 147.234 58.9608 147.278C58.9448 148.297 59.2946 149.289 59.947 150.073C60.5993 150.858 61.5113 151.384 62.5184 151.557C62.7372 151.594 62.6482 151.927 62.4307 151.89Z" fill="white"/>
<path d="M64.4646 161.118C66.3154 159.854 67.6207 157.941 68.1201 155.759C68.1694 155.543 68.5031 155.631 68.4538 155.847C67.9299 158.116 66.5675 160.105 64.6386 161.416C64.4546 161.541 64.2816 161.243 64.4646 161.118H64.4646Z" fill="white"/>
<path d="M65.2093 142.254C65.6118 142.415 66.0481 142.474 66.4791 142.425C66.91 142.376 67.3221 142.222 67.6783 141.975C67.8605 141.848 68.0334 142.146 67.8523 142.272C67.4575 142.543 67.0022 142.713 66.5262 142.768C66.0502 142.823 65.568 142.761 65.1217 142.587C65.0782 142.574 65.0413 142.545 65.0185 142.506C64.9956 142.467 64.9885 142.42 64.9986 142.376C65.0105 142.332 65.0392 142.295 65.0787 142.272C65.1181 142.249 65.1651 142.242 65.2093 142.254Z" fill="white"/>
<path d="M101.809 28.6675C99.8654 18.2893 102.926 6.48228 111.431 0.200317C110.949 11.6716 114.55 22.9432 121.597 32.0209C124.327 35.512 127.728 39.1113 127.622 43.538C127.557 46.2924 126.064 48.8584 124.096 50.7915C122.128 52.7246 119.704 54.1184 117.309 55.4904L116.936 56.069C109.915 48.1688 103.753 39.0458 101.809 28.6675Z" fill="#F0F0F0"/>
<path d="M111.587 0.358997C108.013 8.33766 107.051 17.2368 108.836 25.7923C109.229 27.6229 109.788 29.4458 110.736 31.0721C111.672 32.6503 113.015 33.9497 114.625 34.8351C116.109 35.6907 117.727 36.3945 118.977 37.5952C120.294 38.8608 120.881 40.5881 120.832 42.3928C120.772 44.6009 119.921 46.6559 119.018 48.6367C118.016 50.8359 116.94 53.1043 117.005 55.5769C117.012 55.8765 116.546 55.8711 116.538 55.572C116.425 51.2702 119.543 47.8154 120.237 43.6877C120.561 41.7616 120.306 39.7264 118.948 38.2334C117.761 36.9279 116.094 36.2007 114.583 35.3473C112.997 34.4512 111.647 33.3441 110.643 31.8093C109.617 30.2393 108.985 28.4344 108.547 26.6219C107.582 22.5043 107.273 18.2612 107.63 14.0478C108.011 9.2368 109.214 4.52626 111.187 0.119945C111.309 -0.152727 111.708 0.0881048 111.587 0.358997H111.587Z" fill="white"/>
<path d="M108.099 23.0713C106.619 23.1751 105.151 22.751 103.956 21.8745C102.761 20.9981 101.917 19.7264 101.575 18.2866C101.507 17.995 101.958 17.8756 102.026 18.1676C102.342 19.5089 103.128 20.6934 104.243 21.5073C105.357 22.3212 106.727 22.7108 108.104 22.606C108.403 22.5835 108.396 23.0489 108.099 23.0713Z" fill="white"/>
<path d="M113.816 34.5001C115.824 32.2343 116.903 29.2965 116.837 26.2725C116.83 25.9729 117.296 25.9781 117.303 26.2774C117.366 29.4243 116.238 32.4793 114.142 34.8326C113.942 35.0567 113.617 34.723 113.816 34.5001V34.5001Z" fill="white"/>
<path d="M108.558 9.52575C109.139 9.60455 109.73 9.5382 110.279 9.33265C110.828 9.1271 111.317 8.78878 111.702 8.34808C111.899 8.1215 112.224 8.45544 112.028 8.68054C111.6 9.16546 111.06 9.53843 110.454 9.76687C109.848 9.99532 109.196 10.0723 108.553 9.99103C108.492 9.98843 108.434 9.96269 108.391 9.91902C108.348 9.87536 108.324 9.81705 108.322 9.75594C108.323 9.69434 108.349 9.6356 108.393 9.5925C108.437 9.54939 108.496 9.5254 108.558 9.52573V9.52575Z" fill="white"/>
<path d="M146.216 8.7847C146.097 8.92967 145.978 9.07464 145.86 9.22342C144.271 11.1807 142.845 13.2635 141.594 15.4513C141.495 15.6189 141.396 15.7903 141.302 15.9604C138.345 21.2633 136.401 27.0677 135.568 33.0787C135.239 35.4709 135.093 37.8846 135.131 40.2989C135.183 43.6332 135.506 47.2442 134.482 50.3109C134.379 50.632 134.255 50.9464 134.113 51.2524L117.673 56.4778C117.63 56.471 117.587 56.4679 117.544 56.4612L116.897 56.6997C116.886 56.5754 116.878 56.4461 116.867 56.3218C116.861 56.2496 116.858 56.1763 116.851 56.1042C116.848 56.0558 116.845 56.0072 116.84 55.9637C116.838 55.9476 116.838 55.9314 116.838 55.919C116.832 55.8754 116.831 55.8344 116.827 55.7946C116.778 55.0723 116.733 54.3489 116.695 53.6231C116.694 53.6193 116.694 53.6193 116.697 53.6144C116.414 48.0862 116.592 42.4858 117.617 37.0905C117.648 36.9282 117.677 36.7622 117.715 36.5975C118.191 34.168 118.864 31.7814 119.729 29.4615C120.207 28.1927 120.749 26.9488 121.353 25.7346C122.919 22.6004 124.97 19.7315 127.43 17.2331C132.334 12.2531 138.781 8.8934 145.688 8.78761C145.865 8.78504 146.038 8.78354 146.216 8.7847Z" fill="#F0F0F0"/>
<path d="M146.246 9.00456C138.578 13.2287 132.438 19.7559 128.7 27.6591C127.909 29.3571 127.256 31.1483 127.031 33.0162C126.826 34.8387 127.114 36.6826 127.865 38.3564C128.534 39.9312 129.401 41.4647 129.674 43.1742C129.962 44.9761 129.388 46.7077 128.26 48.1192C126.88 49.8464 124.959 50.9757 123.043 52.0149C120.916 53.1688 118.687 54.3337 117.247 56.3469C117.073 56.5909 116.703 56.3065 116.878 56.0629C119.384 52.5602 123.958 51.6742 127.004 48.7957C128.425 47.4525 129.449 45.6739 129.266 43.6666C129.106 41.9112 128.214 40.3291 127.523 38.7405C126.797 37.0724 126.387 35.3775 126.512 33.5492C126.64 31.679 127.225 29.8586 127.969 28.1479C129.684 24.2811 131.998 20.7074 134.825 17.5577C138.033 13.9451 141.836 10.9064 146.071 8.57327C146.333 8.42897 146.507 8.86119 146.246 9.00455V9.00456Z" fill="white"/>
<path d="M129.752 25.0437C128.508 24.238 127.592 23.0174 127.167 21.5998C126.742 20.1823 126.835 18.6601 127.431 17.3052C127.553 17.0314 127.985 17.2069 127.863 17.4811C127.306 18.7418 127.219 20.1597 127.617 21.4789C128.016 22.7981 128.874 23.9317 130.037 24.6751C130.29 24.8369 130.003 25.2046 129.752 25.0437H129.752Z" fill="white"/>
<path d="M127.421 37.6027C130.392 36.9999 133.027 35.3021 134.799 32.8478C134.974 32.6045 135.343 32.8889 135.168 33.1319C133.319 35.6824 130.574 37.4437 127.481 38.0642C127.186 38.1231 127.128 37.6613 127.421 37.6027H127.421Z" fill="white"/>
<path d="M138.294 14.504C138.711 14.9158 139.223 15.218 139.785 15.3835C140.347 15.549 140.942 15.5726 141.516 15.4522C141.81 15.3896 141.868 15.8515 141.576 15.9137C140.941 16.0438 140.285 16.0169 139.663 15.8354C139.041 15.654 138.474 15.3234 138.01 14.8726C137.962 14.8338 137.932 14.7784 137.924 14.7178C137.916 14.6572 137.932 14.5959 137.967 14.5463C138.005 14.4977 138.061 14.466 138.122 14.4581C138.183 14.4501 138.245 14.4667 138.294 14.504V14.504Z" fill="white"/>
<path d="M40.571 16.2696C39.6626 15.6299 38.6687 14.9628 37.5571 14.9895C34.8666 15.054 33.416 18.9887 30.7283 18.8503C29.0143 18.7621 27.8765 17.025 26.2805 16.3952C24.2028 15.5752 21.5587 17.1789 21.332 19.3964L21.5989 19.1528C29.6755 21.117 38.0569 21.5033 46.2806 20.2903C44.3774 18.95 42.4742 17.6098 40.571 16.2696Z" fill="#F0F0F0"/>
<path d="M45.6053 21.0023C50.7613 21.0023 54.9411 16.8326 54.9411 11.6889C54.9411 6.54524 50.7613 2.37549 45.6053 2.37549C40.4493 2.37549 36.2695 6.54524 36.2695 11.6889C36.2695 16.8326 40.4493 21.0023 45.6053 21.0023Z" fill="#FF6582"/>
<path d="M67.4578 9.90977C66.3001 9.09452 65.0335 8.24441 63.6168 8.27839C60.1881 8.36064 58.3394 13.375 54.9142 13.1987C52.7298 13.0862 51.2798 10.8725 49.2459 10.0698C46.598 9.02488 43.2283 11.0686 42.9395 13.8946L43.2795 13.5841C53.5725 16.0874 64.2538 16.5796 74.7343 15.0338C72.3088 13.3258 69.8833 11.6178 67.4578 9.90977Z" fill="#F0F0F0"/>
<path d="M151.433 103.403L141.526 50.4825C141.356 49.6101 140.895 48.8211 140.217 48.2447C139.539 47.6684 138.685 47.339 137.794 47.3105C137.714 47.3087 137.634 47.3087 137.554 47.3105L130.805 47.552L130.078 47.5786L126.71 47.6994L125.984 47.7243L123.817 47.8024L80.1286 49.3671C80.0627 49.3707 79.995 49.3707 79.9292 49.3689L70.1393 49.1647L66.5164 49.0901L66.4007 49.0883L63.7266 49.0315L40.4261 48.5484L34.2484 48.4187L31.2023 48.3566L30.4724 48.3406L26.999 48.2695L26.2709 48.2536L22.7174 48.1807L21.9893 48.1648L18.0851 48.0831L17.4726 48.0706L13.9904 47.9978L13.4403 47.9871H13.3602C12.4357 47.9909 11.5423 48.3206 10.838 48.918C10.1336 49.5153 9.66365 50.3419 9.51115 51.2515L0.550881 106.167C0.459888 106.723 0.49121 107.292 0.642677 107.835C0.794144 108.378 1.06213 108.882 1.42808 109.311C1.79403 109.741 2.24919 110.086 2.76202 110.322C3.27486 110.559 3.83311 110.681 4.39811 110.681H55.8559C56.6133 110.683 57.3504 110.926 57.9603 111.374L58.9359 112.095C59.6083 112.589 60.4207 112.856 61.2556 112.859H91.5812C92.0937 112.86 92.6012 112.76 93.0746 112.564C93.5479 112.368 93.9777 112.081 94.3389 111.718C94.9567 111.102 95.781 110.736 96.6533 110.69L147.805 108.001C148.36 107.972 148.902 107.825 149.395 107.57C149.888 107.316 150.321 106.958 150.664 106.523C151.008 106.088 151.254 105.584 151.387 105.046C151.52 104.508 151.535 103.948 151.433 103.403V103.403Z" fill="#CCCCCC"/>
<path d="M143.326 101.964L137.803 47.3815C137.802 47.3584 137.798 47.3335 137.795 47.3105C137.691 46.4383 137.26 45.6379 136.588 45.0709L124.708 35.1979C124.191 34.7653 123.549 34.5094 122.876 34.4679C117.44 34.1198 89.8083 32.8304 79.609 41.6627C79.2995 41.9313 78.9348 42.1291 78.5405 42.242C78.1462 42.3549 77.7318 42.3803 77.3266 42.3162C76.9205 42.2505 76.5334 42.0981 76.1918 41.8695C75.8501 41.6408 75.5619 41.3413 75.3469 40.9913C74.4797 39.6428 73.3434 38.4869 72.0089 37.5955C71.4096 37.1805 70.7854 36.8027 70.1396 36.4642C69.5681 36.1641 68.9468 35.8728 68.2702 35.5922C67.6881 35.3506 67.0668 35.118 66.4009 34.896C62.9489 33.7451 58.3344 32.8855 52.1674 32.5978C49.6091 32.477 46.8283 32.461 43.9033 32.5481C41.2328 32.6262 38.395 32.7878 35.47 33.0293L35.4272 33.0311L15.6356 45.0851C15.1919 45.3611 14.817 45.7341 14.5391 46.1759C14.2612 46.6178 14.0876 47.1169 14.0316 47.6355L13.9906 47.9978L7.70617 104.016C7.65189 104.492 7.69575 104.974 7.83505 105.432C7.97435 105.891 8.20615 106.316 8.5162 106.682C8.81802 107.038 9.19385 107.325 9.61773 107.523C10.0416 107.72 10.5034 107.823 10.9712 107.825H59.7373C60.3856 107.829 61.0138 108.051 61.5193 108.456L63.6486 110.157C64.2034 110.602 64.8902 110.85 65.6016 110.864L87.0435 111.214H87.0951C87.6366 111.213 88.1689 111.075 88.6422 110.813L92.7779 108.522C93.1551 108.312 93.5752 108.191 94.0063 108.166L140.223 105.731C140.673 105.707 141.114 105.589 141.515 105.384C141.917 105.179 142.27 104.892 142.553 104.541C142.847 104.185 143.067 103.773 143.2 103.331C143.332 102.888 143.375 102.424 143.326 101.964Z" fill="#E6E6E6"/>
<path d="M127.195 92.121L126.548 83.6253L123.819 47.8034L123.413 42.5042C123.311 41.1123 122.692 39.8084 121.678 38.8467C120.665 37.885 119.328 37.3344 117.929 37.3023C107.929 37.0461 89.8214 37.4969 80.9355 43.4365C79.9472 44.1067 78.7484 44.3957 77.5624 44.2496C76.3764 44.1036 75.284 43.5324 74.4888 42.6425C73.2592 41.2959 71.783 40.1962 70.1396 39.4025C68.9369 38.8008 67.6866 38.2988 66.4014 37.9016C62.6402 36.7029 57.8939 35.9747 52.1625 35.7168L38.5604 35.6375H38.5373C37.595 35.6383 36.6884 35.997 36.0017 36.6407C35.315 37.2844 34.8997 38.1647 34.8402 39.1028L34.2497 48.4182L31.6695 89.2703C31.6212 90.0313 31.7285 90.7942 31.9847 91.5126C32.241 92.2311 32.641 92.8901 33.1603 93.4496C33.6796 94.0091 34.3075 94.4575 35.0059 94.7676C35.7042 95.0777 36.4584 95.243 37.2228 95.2534C60.0548 95.5915 70.0292 100.399 74.3784 104.369C75.3032 105.215 76.4845 105.73 77.7355 105.831C78.9864 105.932 80.2354 105.614 81.2847 104.927C89.1795 99.7689 102.304 98.3346 112.751 98.1118C115.95 98.0452 118.897 98.0887 121.367 98.1758C122.161 98.2043 122.952 98.0653 123.688 97.7678C124.424 97.4703 125.089 97.0211 125.639 96.4495C126.19 95.8779 126.613 95.1969 126.881 94.451C127.149 93.7051 127.256 92.9111 127.195 92.121Z" fill="white"/>
<path d="M13.8463 103.97C13.8378 103.97 13.8289 103.97 13.8203 103.969C13.7727 103.966 13.7262 103.953 13.6835 103.932C13.6408 103.91 13.6027 103.881 13.5714 103.845C13.5401 103.809 13.5162 103.767 13.5011 103.722C13.486 103.677 13.48 103.629 13.4833 103.582L17.4118 48.2449C17.4146 48.1973 17.4269 48.1506 17.448 48.1077C17.4692 48.0648 17.4987 48.0266 17.5349 47.9953C17.571 47.964 17.6131 47.9402 17.6586 47.9253C17.7041 47.9105 17.7522 47.9048 17.7999 47.9087C17.8475 47.9121 17.894 47.9248 17.9367 47.946C17.9794 47.9673 18.0175 47.9968 18.0488 48.0327C18.0801 48.0687 18.104 48.1104 18.1191 48.1556C18.1342 48.2008 18.1403 48.2485 18.1369 48.296L14.2085 103.633C14.2021 103.724 14.1612 103.81 14.0939 103.872C14.0267 103.935 13.9382 103.97 13.8463 103.97Z" fill="white"/>
<path d="M18.5748 101.793C18.5663 101.793 18.5574 101.793 18.5489 101.792C18.5012 101.789 18.4547 101.776 18.412 101.755C18.3693 101.734 18.3312 101.704 18.2999 101.668C18.2686 101.632 18.2448 101.591 18.2296 101.545C18.2145 101.5 18.2085 101.453 18.2118 101.405L22.1403 46.0683C22.1431 46.0206 22.1554 45.974 22.1765 45.9311C22.1977 45.8882 22.2272 45.85 22.2634 45.8187C22.2995 45.7873 22.3416 45.7635 22.3871 45.7487C22.4327 45.7338 22.4807 45.7282 22.5284 45.7321C22.576 45.7355 22.6225 45.7481 22.6652 45.7694C22.708 45.7907 22.746 45.8201 22.7773 45.8561C22.8086 45.892 22.8325 45.9338 22.8476 45.979C22.8628 46.0241 22.8688 46.0718 22.8654 46.1193L18.937 101.456C18.9306 101.548 18.8897 101.633 18.8225 101.696C18.7552 101.758 18.6667 101.793 18.5748 101.793Z" fill="white"/>
<path d="M22.9381 100.705C22.9295 100.705 22.9207 100.705 22.9121 100.704C22.8645 100.701 22.818 100.688 22.7753 100.667C22.7326 100.645 22.6945 100.616 22.6632 100.58C22.6319 100.544 22.608 100.502 22.5929 100.457C22.5778 100.412 22.5718 100.364 22.5751 100.317L26.5035 44.98C26.5063 44.9323 26.5187 44.8856 26.5398 44.8428C26.561 44.7999 26.5905 44.7617 26.6266 44.7303C26.6628 44.699 26.7049 44.6752 26.7504 44.6604C26.7959 44.6455 26.844 44.6399 26.8917 44.6438C26.9393 44.6471 26.9858 44.6598 27.0285 44.6811C27.0712 44.7023 27.1093 44.7318 27.1406 44.7678C27.1719 44.8037 27.1958 44.8455 27.2109 44.8906C27.226 44.9358 27.2321 44.9835 27.2287 45.031L23.3003 100.368C23.2939 100.459 23.253 100.545 23.1857 100.608C23.1185 100.67 23.03 100.705 22.9381 100.705Z" fill="white"/>
<path d="M27.3014 98.5284C27.2928 98.5284 27.284 98.528 27.2754 98.5273C27.2278 98.524 27.1813 98.5113 27.1386 98.49C27.0959 98.4688 27.0578 98.4393 27.0265 98.4033C26.9952 98.3674 26.9713 98.3256 26.9562 98.2805C26.9411 98.2353 26.935 98.1876 26.9384 98.1401L30.8668 42.8034C30.8696 42.7557 30.882 42.709 30.9031 42.6661C30.9243 42.6233 30.9538 42.585 30.9899 42.5537C31.0261 42.5224 31.0682 42.4986 31.1137 42.4837C31.1592 42.4689 31.2073 42.4632 31.255 42.4672C31.3026 42.4705 31.3491 42.4832 31.3918 42.5044C31.4345 42.5257 31.4726 42.5552 31.5039 42.5911C31.5352 42.6271 31.5591 42.6688 31.5742 42.714C31.5893 42.7592 31.5954 42.8069 31.592 42.8544L27.6636 98.1911C27.6572 98.2826 27.6163 98.3683 27.549 98.4309C27.4818 98.4935 27.3933 98.5283 27.3014 98.5284Z" fill="white"/>
<path d="M138.942 104.333C138.951 104.333 138.959 104.333 138.968 104.332C139.016 104.328 139.062 104.316 139.105 104.295C139.147 104.273 139.186 104.244 139.217 104.208C139.248 104.172 139.272 104.13 139.287 104.085C139.302 104.04 139.308 103.992 139.305 103.945L135.376 48.6079C135.374 48.5602 135.361 48.5135 135.34 48.4706C135.319 48.4278 135.29 48.3895 135.253 48.3582C135.217 48.3269 135.175 48.3031 135.13 48.2882C135.084 48.2734 135.036 48.2677 134.988 48.2717C134.941 48.275 134.894 48.2877 134.851 48.3089C134.809 48.3302 134.771 48.3597 134.739 48.3956C134.708 48.4316 134.684 48.4733 134.669 48.5185C134.654 48.5637 134.648 48.6114 134.651 48.6589L138.58 103.996C138.586 104.087 138.627 104.173 138.694 104.235C138.762 104.298 138.85 104.333 138.942 104.333Z" fill="white"/>
<path d="M134.215 101.068C134.224 101.068 134.233 101.067 134.241 101.067C134.289 101.063 134.335 101.051 134.378 101.029C134.421 101.008 134.459 100.979 134.49 100.943C134.521 100.907 134.545 100.865 134.561 100.82C134.576 100.775 134.582 100.727 134.578 100.679L130.65 45.3427C130.647 45.295 130.635 45.2484 130.614 45.2055C130.592 45.1626 130.563 45.1244 130.527 45.0931C130.491 45.0617 130.449 45.038 130.403 45.0231C130.358 45.0082 130.309 45.0026 130.262 45.0065C130.214 45.0099 130.168 45.0225 130.125 45.0438C130.082 45.0651 130.044 45.0945 130.013 45.1305C129.982 45.1664 129.958 45.2082 129.943 45.2534C129.927 45.2985 129.921 45.3462 129.925 45.3937L133.853 100.73C133.86 100.822 133.9 100.908 133.968 100.97C134.035 101.033 134.123 101.068 134.215 101.068Z" fill="white"/>
<path d="M129.85 97.4401C129.859 97.4401 129.868 97.4397 129.876 97.439C129.924 97.4357 129.97 97.423 130.013 97.4017C130.056 97.3805 130.094 97.351 130.125 97.315C130.156 97.2791 130.18 97.2373 130.195 97.1922C130.21 97.147 130.217 97.0993 130.213 97.0518L126.285 41.7151C126.282 41.6674 126.27 41.6207 126.248 41.5778C126.227 41.5349 126.198 41.4967 126.162 41.4654C126.125 41.4341 126.083 41.4103 126.038 41.3954C125.992 41.3805 125.944 41.3749 125.897 41.3788C125.849 41.3822 125.802 41.3949 125.76 41.4161C125.717 41.4374 125.679 41.4668 125.648 41.5028C125.616 41.5388 125.592 41.5805 125.577 41.6257C125.562 41.6709 125.556 41.7186 125.559 41.7661L129.488 97.1028C129.494 97.1943 129.535 97.28 129.602 97.3426C129.67 97.4052 129.758 97.44 129.85 97.4401Z" fill="white"/>
<path d="M40.6067 48.138C48.8037 45.529 57.9486 46.2197 65.7141 49.8952C67.9298 50.9385 70.0224 52.2242 71.9533 53.7288C72.4995 54.1565 73.2768 53.3915 72.7247 52.9592C65.5922 47.4403 56.6304 44.8186 47.6398 45.6208C45.1525 45.8428 42.697 46.335 40.3167 47.0885C39.6504 47.3006 39.9352 48.3517 40.6067 48.138H40.6067Z" fill="#3F3D56"/>
<path d="M85.7123 54.1509C93.3333 50.1548 102.459 49.2834 110.746 51.5517C113.108 52.1969 115.391 53.1024 117.552 54.2516C118.171 54.5812 118.723 53.6421 118.103 53.3119C110.206 49.108 100.726 48.1403 92.1016 50.4837C89.6958 51.1386 87.3688 52.0531 85.1617 53.2112C84.5399 53.5372 85.0907 54.4768 85.7123 54.1509Z" fill="#3F3D56"/>
<path d="M85.7123 61.4066C93.3333 57.4105 102.459 56.539 110.746 58.8074C113.108 59.4526 115.391 60.3581 117.552 61.5073C118.171 61.8369 118.723 60.8978 118.103 60.5675C110.206 56.3637 100.726 55.3959 92.1016 57.7393C89.6958 58.3942 87.3688 59.3088 85.1617 60.4668C84.5399 60.7928 85.0907 61.7325 85.7123 61.4066V61.4066Z" fill="#3F3D56"/>
<path d="M118.369 68.273C118.375 68.1796 118.352 68.0866 118.305 68.0061C118.257 67.9257 118.186 67.8615 118.101 67.8219C111.774 64.5171 104.601 63.1767 97.5042 63.9732C97.4597 63.9767 97.4188 63.9839 97.3707 63.9874H97.3689C97.3252 63.9913 97.2818 63.9978 97.2389 64.007C93.018 64.4915 88.9233 65.7506 85.1614 67.7206C85.0794 67.7694 85.0115 67.8385 84.9643 67.9214C84.9172 68.0042 84.8925 68.0978 84.8926 68.1931V81.7282C84.8939 81.8115 84.9143 81.8934 84.952 81.9677C84.9898 82.042 85.044 82.1068 85.1105 82.1571C85.1771 82.2074 85.2542 82.2419 85.3362 82.2581C85.4181 82.2743 85.5026 82.2716 85.5833 82.2504C85.7507 82.2024 85.918 82.1563 86.0889 82.1119C89.8921 81.0849 93.7963 80.4756 97.7321 80.295C97.8158 80.2914 97.8995 80.2879 97.9867 80.2843C101.192 80.147 104.404 80.2622 107.591 80.6289C107.658 80.6326 107.725 80.6397 107.791 80.6502C107.955 80.6679 108.122 80.6875 108.286 80.7088C108.352 80.7159 108.414 80.723 108.474 80.7336C109.112 80.8136 109.744 80.9041 110.378 81.0018C111.293 81.1475 112.208 81.3097 113.123 81.4885C113.18 81.4991 113.239 81.5133 113.297 81.524C114.766 81.8153 116.228 82.1527 117.682 82.5257C117.763 82.5465 117.848 82.5488 117.93 82.5322C118.012 82.5157 118.089 82.4808 118.155 82.4302C118.222 82.3795 118.276 82.3145 118.314 82.24C118.351 82.1655 118.372 82.0834 118.373 82V68.2943C118.373 68.287 118.372 68.2797 118.369 68.273Z" fill="#3F3D56"/>
<path d="M98.3604 64.7112C97.9607 64.5159 97.5026 64.4758 97.0749 64.5986C96.886 64.6692 96.713 64.7766 96.5661 64.9145C96.4191 65.0524 96.301 65.2181 96.2187 65.4018C96.0705 65.7542 95.9755 66.1266 95.9369 66.5068C95.9143 66.6564 95.9129 66.8451 96.0636 66.9149C96.1183 66.9347 96.1773 66.9392 96.2344 66.9279C96.2915 66.9166 96.3444 66.89 96.3874 66.8509C96.4652 66.7744 96.5294 66.6851 96.577 66.587C96.8386 66.1809 97.1987 65.8472 97.6238 65.6166C98.0489 65.386 98.5254 65.2661 99.0093 65.2678L99.4121 65.4279C99.0952 65.1432 98.7415 64.9022 98.3604 64.7112Z" fill="#FF6582"/>
<path d="M102.72 67.8309C102.408 67.3718 102.037 66.8817 101.457 66.7318C100.785 66.5583 100.095 66.9031 99.5101 67.2434C97.7696 68.2545 96.0842 69.3572 94.4609 70.5468L94.4627 70.5646L98.2305 70.3339C99.1379 70.2783 100.076 70.2151 100.878 69.8339C101.166 69.6538 101.488 69.5343 101.824 69.4826C102.032 69.4939 102.237 69.5462 102.425 69.6366C102.613 69.727 102.781 69.8536 102.92 70.0091C104.656 71.6511 105.158 74.162 107.107 75.6045C105.867 72.8945 104.4 70.294 102.72 67.8309Z" fill="white"/>
<path d="M97.9881 80.2841C97.9009 80.2877 97.8171 80.2913 97.7335 80.295C97.1262 80.0773 96.5044 79.885 95.8753 79.7181C95.468 79.6093 95.0534 79.5113 94.6388 79.4279C94.1697 79.3264 93.697 79.2465 93.2243 79.1776C92.3242 79.047 91.4171 78.9707 90.5078 78.9491C90.5009 78.9498 90.4939 78.9491 90.4873 78.947C90.4808 78.9449 90.4747 78.9414 90.4695 78.9367C90.4644 78.9321 90.4602 78.9265 90.4574 78.9202C90.4546 78.9138 90.4531 78.907 90.4531 78.9001C90.4531 78.8932 90.4546 78.8863 90.4574 78.88C90.4602 78.8737 90.4644 78.8681 90.4695 78.8634C90.4747 78.8588 90.4808 78.8553 90.4873 78.8532C90.4939 78.8511 90.5009 78.8504 90.5078 78.8511C90.6241 78.8511 90.7405 78.8547 90.8533 78.862C91.7645 78.8956 92.6728 78.984 93.5734 79.1268C94.0425 79.203 94.5116 79.2937 94.9771 79.3953C95.3989 79.4896 95.8207 79.5948 96.2353 79.7109C96.828 79.8778 97.4123 80.0688 97.9881 80.2841Z" fill="white"/>
<path d="M108.476 80.734C108.414 80.7231 108.352 80.7158 108.287 80.7086C108.036 80.5018 107.781 80.3059 107.516 80.1136C107.185 79.8742 106.843 79.6493 106.494 79.4389C105.721 78.9707 104.914 78.5608 104.079 78.2127C102.76 77.6647 101.395 77.2349 99.9992 76.9284C98.4073 76.5805 96.7959 76.3286 95.1737 76.1739C93.5517 76.007 91.9226 75.9054 90.2934 75.8038C90.2243 75.8002 90.2207 75.6987 90.2934 75.7022C90.4971 75.7168 90.7007 75.7276 90.9079 75.7421C92.5553 75.8437 94.2026 75.9598 95.8391 76.1449C97.4617 76.3184 99.0712 76.5971 100.657 76.9792C102.012 77.3122 103.333 77.765 104.607 78.3324C105.339 78.6607 106.049 79.0376 106.73 79.4606C107.163 79.7327 107.581 80.023 107.981 80.3313C108.149 80.4619 108.316 80.5925 108.476 80.734Z" fill="white"/>
<path d="M107.792 80.6506C107.726 80.6399 107.659 80.6326 107.592 80.6288C107.516 80.5671 107.436 80.5091 107.356 80.451C106.796 80.0513 106.212 79.6866 105.607 79.3591C105.057 79.0611 104.493 78.7911 103.916 78.5501C102.597 78.0004 101.232 77.5706 99.8357 77.2658C98.2438 76.9179 96.6324 76.6659 95.0101 76.5113C93.3882 76.3444 91.7591 76.2428 90.1299 76.1412C90.0609 76.134 90.0609 76.036 90.1299 76.0396C90.3372 76.0542 90.5408 76.065 90.7445 76.0796C92.3918 76.1811 94.0392 76.2972 95.6756 76.4822C97.2982 76.6557 98.9077 76.9344 100.494 77.3166C101.848 77.6489 103.17 78.1018 104.443 78.6698C104.923 78.8875 105.392 79.1233 105.851 79.3808C106.53 79.753 107.179 80.1775 107.792 80.6506Z" fill="white"/>
<path d="M113.298 81.5248C113.24 81.5139 113.182 81.4994 113.123 81.4886C113.058 81.4196 112.996 81.3471 112.934 81.2745C112.622 80.9153 112.313 80.5526 112.007 80.1861C110.803 78.7568 109.661 77.2839 108.585 75.782C107.661 74.4978 106.785 73.1881 105.956 71.8531C105.559 71.2219 105.178 70.5834 104.803 69.9376C104.512 69.437 104.229 68.9352 103.952 68.4321C103.872 68.287 103.796 68.1419 103.719 67.9967C103.541 67.6557 103.363 67.3111 103.174 66.9737C102.968 66.5604 102.667 66.2021 102.294 65.9289C102.108 65.8045 101.892 65.7307 101.668 65.7149C101.353 65.716 101.043 65.7958 100.767 65.947C98.7321 66.8922 96.8128 68.0668 95.0463 69.4479C93.3211 70.7865 91.761 72.3246 90.3989 74.0298C90.3553 74.0806 90.2606 74.0334 90.3007 73.979C90.4643 73.7758 90.6316 73.5727 90.7988 73.3731C92.108 71.8283 93.5823 70.4306 95.1954 69.2048C95.199 69.2012 95.2063 69.1975 95.21 69.194C95.3518 69.0815 95.4936 68.9727 95.6391 68.8674C96.5397 68.2058 97.477 67.5954 98.4465 67.039C98.941 66.7524 99.4465 66.4803 99.9629 66.2228C100.09 66.1575 100.221 66.0922 100.352 66.0305C100.483 65.9652 100.614 65.9036 100.745 65.8418C101.004 65.71 101.287 65.6322 101.577 65.6133C102.588 65.5988 103.108 66.6146 103.468 67.3002C103.581 67.5143 103.698 67.7283 103.81 67.9423C104.247 68.7513 104.701 69.5567 105.174 70.3512C105.461 70.8446 105.759 71.3344 106.061 71.8205C106.494 72.5134 106.938 73.199 107.4 73.8811C107.4 73.8816 107.4 73.882 107.4 73.8825C107.4 73.8829 107.4 73.8833 107.401 73.8837C107.401 73.884 107.401 73.8843 107.402 73.8845C107.402 73.8846 107.403 73.8847 107.403 73.8847C107.938 74.6901 108.494 75.4809 109.069 76.2682C110.054 77.6141 111.087 78.9297 112.167 80.2152C112.538 80.6578 112.915 81.0943 113.298 81.5248Z" fill="white"/>
<path d="M118.373 79.9249V80.0918C118.013 79.671 117.646 79.2538 117.282 78.8365C117.13 78.6624 116.977 78.4883 116.824 78.3142C116.177 77.5813 115.526 76.8509 114.871 76.123C114.213 75.3974 113.555 74.6718 112.889 73.9499C112.73 73.7758 112.57 73.6017 112.406 73.4275C112.275 73.2812 112.133 73.1453 111.98 73.0212C111.827 72.8937 111.65 72.7964 111.46 72.7346C111.242 72.6741 111.011 72.6716 110.791 72.7274C110.54 72.7854 110.3 72.8761 110.057 72.9523C109.806 73.0357 109.558 73.1155 109.308 73.1953C108.806 73.3586 108.308 73.5219 107.806 73.6851C107.799 73.6876 107.793 73.6888 107.786 73.6887C107.779 73.6886 107.773 73.6872 107.767 73.6845C107.761 73.6817 107.755 73.6778 107.751 73.673C107.746 73.6681 107.742 73.6623 107.74 73.656C107.737 73.6492 107.736 73.6418 107.736 73.6343C107.737 73.6269 107.739 73.6196 107.742 73.6131C107.746 73.6065 107.751 73.6008 107.756 73.5963C107.762 73.5918 107.769 73.5887 107.777 73.5872C107.9 73.5473 108.028 73.5073 108.155 73.4674C108.66 73.3005 109.162 73.1373 109.668 72.9741C109.918 72.8906 110.169 72.8108 110.42 72.731C110.653 72.6428 110.899 72.5938 111.148 72.5859C111.554 72.615 111.935 72.7934 112.217 73.0865C112.373 73.2316 112.515 73.384 112.657 73.54C112.824 73.7214 112.991 73.9028 113.159 74.0842C113.831 74.817 114.499 75.5522 115.162 76.2898C115.828 77.0299 116.487 77.7712 117.141 78.5137C117.188 78.5681 117.235 78.6225 117.282 78.677C117.65 79.0905 118.01 79.5077 118.373 79.9249Z" fill="white"/>
<path d="M100.323 65.5027L100.222 65.5466C99.9917 65.1585 99.6688 64.8331 99.282 64.5995C98.8951 64.3659 98.4564 64.2312 98.0049 64.2075C96.5161 64.102 95.2082 65.0918 95.0894 66.4137C95.0411 66.9581 95.199 67.5007 95.5321 67.9346L95.4387 67.9897C95.0919 67.5378 94.9274 66.9727 94.9776 66.4058C95.1013 65.0292 96.4634 63.9984 98.0138 64.1082C98.484 64.133 98.9409 64.2732 99.3437 64.5165C99.7465 64.7598 100.083 65.0986 100.323 65.5027Z" fill="#FF6582"/>
<path d="M92.9669 68.1772C92.5762 68.0077 92.1506 67.9334 91.7254 67.9604C91.3002 67.9874 90.8875 68.1149 90.5215 68.3325C91.8578 68.5371 93.1824 68.8116 94.4897 69.155C93.9484 68.8733 93.525 68.4319 92.9669 68.1772Z" fill="white"/>
<path d="M90.5144 68.3315L90.3672 68.4377C90.417 68.4006 90.4687 68.3657 90.5219 68.3327L90.5144 68.3315Z" fill="white"/>
<path d="M111.924 73.6896C111.786 73.5131 111.603 73.3773 111.394 73.2971L111.188 73.3043C112.811 75.8239 114.937 77.9825 117.434 79.6453C115.597 77.6601 113.76 75.6749 111.924 73.6896Z" fill="white"/>
<path d="M94.9456 68.9473C94.8869 68.8892 94.8286 68.8312 94.7696 68.7731C94.3169 68.2817 93.7718 67.8838 93.1653 67.602C92.8565 67.4723 92.5253 67.4041 92.1902 67.4013C91.8441 67.4094 91.5018 67.4757 91.1778 67.5974C91.0253 67.6515 90.8763 67.7128 90.7294 67.7782C90.5617 67.8532 90.3969 67.9331 90.2329 68.0137C89.9251 68.165 89.6212 68.3229 89.3213 68.4875C88.7246 68.8149 88.1467 69.1674 87.5874 69.5448C87.2975 69.7405 87.0135 69.9427 86.7356 70.1512C86.477 70.345 86.2237 70.5439 85.9757 70.7481C85.9226 70.7915 85.8434 70.7212 85.8965 70.6777C85.9618 70.6236 86.028 70.5699 86.0941 70.5168C86.2809 70.3669 86.4707 70.2198 86.6635 70.0756C87.015 69.8122 87.3757 69.5589 87.7454 69.3159C88.3204 68.9377 88.9152 68.5851 89.5298 68.2583C89.8369 68.095 90.1482 67.9387 90.4638 67.7891C90.5591 67.744 90.6555 67.6999 90.753 67.6581C90.9757 67.5585 91.2055 67.4754 91.4404 67.4096C91.7775 67.3133 92.13 67.2825 92.4787 67.3191C92.8126 67.3616 93.1366 67.4611 93.4366 67.6133C94.0312 67.9457 94.5676 68.3724 95.0248 68.8766C95.0726 68.9244 94.9938 68.9951 94.9456 68.9473Z" fill="white"/>
<path d="M40.6067 55.3936C48.8037 52.7847 57.9486 53.4754 65.7141 57.1509C67.9298 58.1941 70.0224 59.4799 71.9533 60.9845C72.4995 61.4121 73.2768 60.6472 72.7247 60.2149C65.5922 54.696 56.6304 52.0742 47.6398 52.8764C45.1525 53.0985 42.697 53.5906 40.3167 54.3442C39.6504 54.5562 39.9352 55.6074 40.6067 55.3936H40.6067Z" fill="#3F3D56"/>
<path d="M40.6067 62.6492C48.8037 60.0402 57.9486 60.7309 65.7141 64.4064C67.9298 65.4497 70.0224 66.7355 71.9533 68.24C72.4995 68.6677 73.2768 67.9027 72.7247 67.4704C65.5922 61.9515 56.6304 59.3298 47.6398 60.132C45.1525 60.354 42.697 60.8462 40.3167 61.5997C39.6504 61.8118 39.9352 62.8629 40.6067 62.6492H40.6067Z" fill="#3F3D56"/>
<path d="M40.6067 69.9048C48.8037 67.2958 57.9486 67.9865 65.7141 71.662C67.9298 72.7053 70.0224 73.9911 71.9533 75.4956C72.4995 75.9233 73.2768 75.1583 72.7247 74.7261C65.5922 69.2072 56.6304 66.5854 47.6398 67.3876C45.1525 67.6096 42.697 68.1018 40.3167 68.8553C39.6504 69.0674 39.9352 70.1185 40.6067 69.9048H40.6067Z" fill="#3F3D56"/>
<path d="M40.6067 77.1603C48.8037 74.5514 57.9486 75.2421 65.7141 78.9176C67.9298 79.9609 70.0224 81.2466 71.9533 82.7512C72.4995 83.1789 73.2768 82.4139 72.7247 81.9816C65.5922 76.4627 56.6304 73.841 47.6398 74.6432C45.1525 74.8652 42.697 75.3574 40.3167 76.1109C39.6504 76.323 39.9352 77.3741 40.6067 77.1603H40.6067Z" fill="#3F3D56"/>
<path d="M40.6067 84.416C48.8037 81.807 57.9486 82.4977 65.7141 86.1732C67.9298 87.2165 70.0224 88.5023 71.9533 90.0068C72.4995 90.4345 73.2768 89.6695 72.7247 89.2373C65.5922 83.7184 56.6304 81.0966 47.6398 81.8988C45.1525 82.1208 42.697 82.613 40.3167 83.3665C39.6504 83.5786 39.9352 84.6298 40.6067 84.416L40.6067 84.416Z" fill="#3F3D56"/>
<path d="M70.139 36.4641V56.7997C70.139 57.146 69.5337 57.4355 68.7166 57.5137C68.5741 57.5279 68.4246 57.535 68.2697 57.535C67.82 57.5435 67.3724 57.4707 66.9487 57.3201C66.8702 57.2896 66.794 57.2534 66.7208 57.2117C66.5179 57.0927 66.4004 56.9524 66.4004 56.7997V34.8958C67.0662 35.1178 67.6875 35.3505 68.2697 35.592C68.9462 35.8727 69.5675 36.1639 70.139 36.4641Z" fill="#FF8F00"/>
<path d="M77.9755 43.437H77.4414V109.218H77.9755V43.437Z" fill="#E6E6E6"/>
<path d="M125.641 96.4469C125.091 97.0186 124.425 97.4681 123.689 97.766C122.952 98.0639 122.161 98.2035 121.367 98.1757C118.897 98.0886 115.949 98.0451 112.75 98.1117L112.732 98.0963L126.596 80.1675L127.195 92.1209C127.255 92.9103 127.147 93.7035 126.88 94.4488C126.612 95.1941 126.19 95.8749 125.641 96.4469Z" fill="#F2F2F2"/>
<path d="M91.128 159.108L90.3886 165.096L89.8238 169.648L89.5978 171.484H86.3834V169.853L86.3809 164.454V159.108H91.128Z" fill="#FFB6B6"/>
<path d="M68.7148 158.481L67.8033 161.288L67.0716 163.539L66.9458 163.926L66.4452 165.465L65.3874 168.721L64.8611 170.342L61.9368 169.778L61.7031 169.735L61.8931 168.756L62.0086 168.16L63.2872 161.546L63.4952 160.481L63.5286 160.309L63.6236 159.815L64.0549 157.584L67.1717 158.184L67.5312 158.253L68.7148 158.481Z" fill="#FFB6B6"/>
<path d="M95.9563 123.448C94.118 133.526 93.6585 137.878 93.6585 137.878C93.6585 137.878 95.0372 139.481 94.1181 140.398C93.1989 141.315 94.1181 143.146 94.1181 143.146L92.0513 165.365L90.3876 165.096L86.3799 164.454L84.9344 164.22L85.8536 143.377C85.8536 143.377 84.9344 141.543 85.394 141.085C85.8535 140.626 84.9344 137.878 84.9344 137.878L83.7868 116.117L76.6673 139.94C76.6673 139.94 77.358 140.857 76.6673 141.543C75.9793 142.229 74.6031 145.667 74.6031 145.667L70.3695 160.445L70.01 161.7L67.8021 161.288L65.399 160.837L64.9574 160.755L64.1717 160.607L63.666 160.512L63.4939 160.481L62.6621 160.325L62.9137 159.211L63.0447 158.624L66.6262 142.755L66.7084 142.388L66.7956 142.002C66.7956 142.002 66.3361 140.857 67.0241 140.168C67.2254 139.958 67.3725 139.702 67.4525 139.423C67.5326 139.143 67.5433 138.849 67.4837 138.564C67.4612 138.54 67.4406 138.515 67.4221 138.487C67.3408 138.376 67.2848 138.249 67.2578 138.114C67.1962 137.827 67.2501 137.425 67.7148 136.961C67.8456 136.822 67.9555 136.665 68.0408 136.495C68.7392 135.176 69.0909 132.381 69.0909 132.381C69.0909 132.381 69.7122 110.25 71.7456 106.869C71.826 106.721 71.9393 106.594 72.0768 106.497C74.3721 105.124 96.4133 106.497 96.4133 106.497C96.4133 106.497 96.4441 106.656 96.4929 106.958C96.7574 108.656 97.5147 114.898 95.9563 123.448Z" fill="#2F2E41"/>
<path d="M95.2344 82.7879L95.878 78.9201L107.73 80.9099L124.545 82.1102C124.91 81.7075 125.396 81.4331 125.93 81.3279C126.463 81.2227 127.017 81.2923 127.508 81.5263C127.999 81.7603 128.401 82.1463 128.654 82.6267C128.908 83.1072 128.999 83.6564 128.914 84.1926C128.829 84.7288 128.573 85.2233 128.184 85.6025C127.794 85.9817 127.292 86.2254 126.753 86.2972C126.214 86.369 125.666 86.2651 125.19 86.0009C124.715 85.7368 124.338 85.3266 124.115 84.8313L113.802 85.5236L95.2344 82.7879Z" fill="#FFB6B6"/>
<path d="M86.375 80.1107L87.2118 76.658C87.2118 76.658 91.7562 75.8235 95.3489 76.6219L108.865 79.2096L107.771 87.3604L86.375 80.1107Z" fill="#FF8F00"/>
<path d="M55.0035 108.542L62.5653 92.1544L68.0838 80.5598L72.8698 83.3698L57.9709 110.346C58.1018 110.827 58.0867 111.335 57.9277 111.808C57.7686 112.28 57.4728 112.695 57.0774 113C56.6821 113.304 56.2051 113.485 55.7068 113.519C55.2084 113.554 54.7111 113.44 54.2777 113.192C53.8443 112.944 53.4943 112.574 53.2719 112.127C53.0495 111.681 52.9648 111.179 53.0284 110.685C53.092 110.191 53.3011 109.726 53.6292 109.351C53.9574 108.975 54.3898 108.705 54.8719 108.574C54.9155 108.562 54.9594 108.552 55.0036 108.542L55.0035 108.542Z" fill="#FFB6B6"/>
<path d="M76.8106 75.5918L73.1402 73.9118C73.1402 73.9118 72.4894 73.6865 71.0859 75.6252C69.6824 77.5638 57.6094 95.8567 57.6094 95.8567L65.2759 99.3139L76.8106 75.5918Z" fill="#FF8F00"/>
<path d="M95.2809 175.049L90.5029 171.756V169.607L89.8226 169.648L86.3822 169.853L85.4759 169.906L84.8495 177.39L84.8418 177.495H87.0986L87.1191 177.39L87.5016 175.37L88.4798 177.39L88.5312 177.495H94.5184C94.6982 177.495 94.8761 177.459 95.0421 177.39C95.2643 177.297 95.4572 177.145 95.6006 176.952C95.7439 176.758 95.8324 176.53 95.8568 176.291C95.8812 176.051 95.8406 175.81 95.7393 175.591C95.638 175.373 95.4797 175.186 95.2809 175.049H95.2809Z" fill="#2F2E41"/>
<path d="M69.7963 175.247L67.7142 172.983L66.261 171.4L66.0222 171.138L65.9863 171.1L65.8708 170.975L66.3509 168.879L65.3855 168.721L62.0068 168.16L61.8245 168.132L61.4651 168.07L61.3829 168.057L60.2302 171.681L59.1852 174.957L59.0723 175.316L60.4612 175.631L61.2725 175.815L61.6731 174.898L61.7167 174.801L61.9786 174.199V174.197L62.1403 173.833L62.6718 176.133L62.7642 176.153L62.777 176.156L63.1031 176.23L63.7398 176.376L68.1917 177.39L68.5075 177.462C68.8553 177.539 69.2197 177.476 69.5212 177.287C69.8227 177.098 70.0369 176.797 70.1172 176.45C70.1656 176.239 70.1616 176.019 70.1057 175.809C70.0498 175.599 69.9436 175.406 69.7963 175.247Z" fill="#2F2E41"/>
<path d="M90.4027 65.0251C89.8834 65.9757 89.1626 66.8018 88.2904 67.4459C87.4182 68.09 86.4156 68.5365 85.3526 68.7542C85.2345 68.7799 85.1164 68.8004 84.9957 68.8183C83.3277 69.0784 81.6207 68.7678 80.1522 67.937C78.6837 67.1062 77.5402 65.8041 76.9078 64.2426C76.2754 62.6811 76.1912 60.952 76.6691 59.3368C77.1469 57.7215 78.1586 56.315 79.5395 55.3463C80.9204 54.3775 82.5893 53.9034 84.2747 54.0011C85.96 54.0988 87.5626 54.7626 88.8218 55.8844C90.0809 57.0063 90.9224 58.5202 91.2095 60.1798C91.4965 61.8395 91.2122 63.5471 90.4027 65.0251Z" fill="#FFB6B6"/>
<path d="M87.4293 54.9004C84.9827 53.2218 82.8281 52.9661 81.0582 53.4422C80.8288 53.0881 80.507 52.8031 80.1275 52.6177C78.7472 49.1479 74.5464 47.0641 70.9414 48.0771C67.313 49.0966 64.8096 53.1062 65.4923 56.8045C65.9154 59.0969 67.3615 61.0819 67.9432 63.3395C69.0692 67.7097 66.3224 72.7158 62.0254 74.1245C66.0939 74.9395 70.5723 72.4603 72.0319 68.585C72.7408 66.7027 72.7836 64.6476 72.8737 62.6389C72.8974 61.2523 73.0677 59.8722 73.3817 58.5213C73.5376 57.9153 73.7577 57.3275 74.0386 56.7681C74.6502 55.5384 75.6661 54.5551 76.9168 53.9824C76.8048 54.3279 76.7768 54.6951 76.835 55.0535C76.8933 55.412 77.0362 55.7515 77.252 56.044C76.2978 57.2364 75.7785 58.5259 75.7785 59.2981C73.7964 62.9121 76.6308 66.0163 80.2535 67.9936C81.6984 68.7864 83.3669 69.0766 84.9954 68.8184L85.147 68.1729L85.3524 68.7543L86.0378 70.7035C86.8286 71.0851 87.6125 71.5034 88.3896 71.9585C88.0944 70.5754 87.8556 69.1949 87.6912 67.8451C87.4637 66.008 88.2569 63.2729 88.829 61.6097C89.1838 60.5846 89.3658 59.508 89.3678 58.4235V58.3761L89.9249 60.1613L91.9532 59.2982C91.5758 57.139 91.9532 54.6879 87.4293 54.9004Z" fill="#2F2E41"/>
<path d="M71.8465 104.436C72.1131 103.384 72.1131 102.282 71.8465 101.229C71.3873 99.626 72.3057 98.9388 72.3057 98.9388L72.5353 74.201C73.5054 73.2332 76.1043 73.2175 77.5583 73.2928V72.2034C77.5583 71.8022 77.7181 71.4175 78.0024 71.1338C78.2867 70.8502 78.6724 70.6908 79.0745 70.6908H85.7983C86.2004 70.6908 86.5861 70.8502 86.8704 71.1338C87.1548 71.4175 87.3145 71.8022 87.3145 72.2034V73.5092L89.2866 73.5401C92.7208 73.7953 95.7254 77.1787 95.7254 77.1787L92.7405 88.6314C92.7405 88.6314 93.6589 98.0226 94.807 99.1679C95.955 100.313 95.4958 101 95.4958 101C95.4958 101 94.8069 103.52 96.1846 104.436C97.5622 105.352 96.6438 106.956 96.6438 106.956C96.6438 106.956 71.8465 107.414 71.1577 106.727C70.4689 106.04 71.8465 104.436 71.8465 104.436Z" fill="#FF8F00"/>
<path d="M117.536 177.695C117.536 177.735 117.528 177.775 117.513 177.812C117.498 177.849 117.475 177.883 117.447 177.911C117.418 177.939 117.385 177.962 117.347 177.977C117.31 177.992 117.271 178 117.23 178H45.2684C45.1874 178 45.1097 177.968 45.0524 177.911C44.9951 177.854 44.9629 177.776 44.9629 177.695C44.9629 177.614 44.9951 177.537 45.0524 177.48C45.1097 177.423 45.1874 177.391 45.2684 177.391H117.23C117.271 177.39 117.31 177.398 117.347 177.413C117.385 177.429 117.418 177.451 117.447 177.48C117.475 177.508 117.498 177.541 117.513 177.579C117.528 177.616 117.536 177.655 117.536 177.695Z" fill="#CCCCCC"/>
</g>
<defs>
<clipPath id="clip0_4528_14752">
<rect width="151" height="178" fill="white" transform="translate(0.5)"/>
</clipPath>
</defs>
</svg>
