<svg width="138" height="92" viewBox="0 0 138 92" fill="none" xmlns="http://www.w3.org/2000/svg">
<g clip-path="url(#clip0_4911_15192)">
<path d="M109.935 40.7138L110.345 37.4463C110.49 36.285 111.094 35.2289 112.022 34.5102C112.95 33.7915 114.127 33.4692 115.294 33.614C116.461 33.7589 117.522 34.3592 118.244 35.2827C118.966 36.2063 119.29 37.3775 119.145 38.5388L118.735 41.8063C118.715 41.9622 118.634 42.104 118.51 42.2005C118.385 42.297 118.227 42.3404 118.07 42.3211L110.452 41.3753C110.296 41.3557 110.153 41.275 110.056 41.151C109.959 41.027 109.916 40.8698 109.935 40.7138Z" fill="#2F2E41"/>
<path d="M113.584 41.6888C115.379 41.6888 116.835 40.2404 116.835 38.4538C116.835 36.6671 115.379 35.2188 113.584 35.2188C111.788 35.2188 110.333 36.6671 110.333 38.4538C110.333 40.2404 111.788 41.6888 113.584 41.6888Z" fill="#FFB8B8"/>
<path d="M109.271 37.5794C109.388 36.6612 109.865 35.8264 110.599 35.2581C111.333 34.6898 112.263 34.4344 113.186 34.5479L113.843 34.6294C114.765 34.745 115.604 35.2201 116.175 35.9504C116.747 36.6808 117.003 37.6067 116.889 38.5251L116.881 38.5905L115.493 38.4182L115.185 37.0404L114.925 38.3476L114.208 38.2586L114.052 37.5634L113.921 38.223L109.263 37.6447L109.271 37.5794Z" fill="#2F2E41"/>
<path d="M97.6846 49.9935C97.7839 50.1877 97.9249 50.3577 98.0974 50.4918C98.27 50.6259 98.47 50.7207 98.6833 50.7695C98.8967 50.8183 99.1182 50.82 99.3323 50.7744C99.5463 50.7288 99.7478 50.6371 99.9224 50.5056L102.875 52.2269L104.364 50.6964L100.16 48.324C99.9184 48.0467 99.5833 47.8672 99.2178 47.8194C98.8524 47.7716 98.482 47.8589 98.1769 48.0647C97.8718 48.2705 97.6532 48.5805 97.5625 48.936C97.4717 49.2915 97.5152 49.6678 97.6846 49.9935Z" fill="#FFB8B8"/>
<path d="M107.362 53.086C105.184 53.086 101.351 52.1158 101.139 52.0615L101.072 52.0445L101.675 49.0053L107.529 50.1559L110.709 45.6994L114.36 45.3301L114.258 45.4635C114.211 45.5257 109.504 51.6912 108.772 52.7254C108.587 52.9864 108.059 53.086 107.362 53.086Z" fill="#3F3D56"/>
<path d="M107.945 64.4932L107.858 64.4518C107.84 64.4429 105.989 63.5473 105.031 61.7987C104.077 60.0585 108.542 52.6762 108.855 52.164L108.859 49.8195L110.465 45.5038L112.514 44.3516L110.755 48.4355L107.945 64.4932Z" fill="#3F3D56"/>
<path d="M105.893 89.6909L103.935 89.6908L103.004 82.1758L105.893 82.1759L105.893 89.6909Z" fill="#FFB8B8"/>
<path d="M106.393 91.5796L100.08 91.5793V91.4999C100.08 90.8514 100.339 90.2294 100.8 89.7709C101.261 89.3123 101.886 89.0547 102.537 89.0547H102.537L106.393 89.0548L106.393 91.5796Z" fill="#2F2E41"/>
<path d="M126.923 87.9832L125.062 88.5898L121.826 81.7371L124.572 80.8418L126.923 87.9832Z" fill="#FFB8B8"/>
<path d="M127.988 89.6238L121.989 91.5798L121.964 91.5043C121.762 90.8881 121.813 90.2168 122.107 89.6383C122.402 89.0597 122.915 88.6213 123.534 88.4193L123.534 88.4193L127.199 87.2246L127.988 89.6238Z" fill="#2F2E41"/>
<path d="M123.132 86.7544L117.551 77.482L112.84 67.5755L108.6 76.3263L106.915 87.6599L101.009 87.7416L101.032 87.6497L110.071 51.9082L117.15 52.9607L116.828 57.6108L117.02 57.8824C118.619 60.1432 120.273 62.4806 119.324 65.0003L122.013 72.9442L127.964 86.1716L123.132 86.7544Z" fill="#2F2E41"/>
<path d="M110.394 59.6537C109.369 59.6537 108.198 58.4881 108.805 56.4981L108.766 56.4698L110.224 50.0579C108.952 48.2466 110.63 46.7518 110.787 46.6182L111.588 45.1835L115.122 42.9531L116.91 57.7378L116.884 57.763C115.592 58.9926 111.255 59.6537 110.394 59.6537Z" fill="#FF8F00"/>
<path d="M117.632 62.9914C117.491 62.9936 117.351 62.9788 117.214 62.9474C117.077 62.9132 116.854 62.739 116.51 61.6249C115.143 57.196 113.53 43.87 114.702 42.566L114.729 42.5361L116.654 42.8554C116.814 42.7378 117.654 42.1545 118.429 42.2559C118.588 42.2759 118.742 42.3282 118.88 42.4096C119.019 42.4911 119.139 42.5998 119.234 42.7293L119.247 42.7466L119.86 51.4294L122.107 61.6474L122.053 61.6717C121.922 61.7309 119.117 62.9914 117.632 62.9914Z" fill="#3F3D56"/>
<path d="M116.338 59.597C116.556 59.5898 116.771 59.5349 116.966 59.4362C117.161 59.3375 117.332 59.1974 117.467 59.0258C117.602 58.8542 117.697 58.6552 117.747 58.443C117.796 58.2307 117.798 58.0103 117.752 57.7972L120.57 55.8656L119.809 53.875L115.867 56.6584C115.513 56.7584 115.207 56.9844 115.009 57.2935C114.81 57.6026 114.733 57.9734 114.791 58.3356C114.849 58.6979 115.038 59.0263 115.323 59.2588C115.608 59.4913 115.969 59.6116 116.338 59.597Z" fill="#FFB8B8"/>
<path d="M119.641 57.4128L117.13 55.5809L120.659 50.7926L117.951 46.0372L119.163 42.5898L119.241 42.7383C119.277 42.8075 122.894 49.6629 123.524 50.7616C124.181 51.9044 119.869 57.1375 119.685 57.3596L119.641 57.4128Z" fill="#3F3D56"/>
<path d="M63.1741 78.9654L61.0376 78.0702L59.572 67.4121H40.0547L38.466 78.0267L36.5546 78.9777C36.4632 79.0232 36.3898 79.0981 36.3465 79.1903C36.3032 79.2824 36.2924 79.3865 36.3159 79.4855C36.3394 79.5845 36.3958 79.6728 36.4759 79.7359C36.5561 79.799 36.6554 79.8334 36.7576 79.8334H62.998C63.1028 79.8334 63.2044 79.7973 63.2855 79.7313C63.3666 79.6653 63.4223 79.5733 63.443 79.4711C63.4637 79.3689 63.4483 79.2627 63.3993 79.1705C63.3503 79.0783 63.2707 79.0059 63.1741 78.9654Z" fill="#E6E6E6"/>
<path d="M97.8573 68.8303H1.9826C1.47957 68.8292 0.997535 68.6295 0.642239 68.2752C0.286943 67.9208 0.0874057 67.4407 0.0874023 66.9401V53.4863H99.7525V66.9401C99.7525 67.4407 99.5529 67.9208 99.1976 68.2752C98.8424 68.6295 98.3603 68.8292 97.8573 68.8303Z" fill="#CCCCCC"/>
<path d="M99.8528 59.8444H0V2.2786C0.000701411 1.67448 0.242177 1.0953 0.671453 0.668128C1.10073 0.240957 1.68275 0.000677523 2.28982 0H97.563C98.17 0.000675968 98.7521 0.240956 99.1814 0.668126C99.6106 1.0953 99.8521 1.67447 99.8528 2.2786V59.8444Z" fill="#3F3D56"/>
<path d="M93.8892 55.666H5.96402C5.496 55.6655 5.0473 55.4803 4.71635 55.1509C4.38541 54.8216 4.19926 54.3751 4.19873 53.9094V5.93449C4.19925 5.46874 4.3854 5.02221 4.71634 4.69287C5.04728 4.36353 5.49599 4.17827 5.96402 4.17773H93.8892C94.3572 4.17827 94.8059 4.36353 95.1369 4.69287C95.4678 5.02221 95.654 5.46874 95.6545 5.93449V53.9094C95.654 54.3751 95.4678 54.8216 95.1369 55.1509C94.8059 55.4803 94.3572 55.6655 93.8892 55.666Z" fill="white"/>
<path d="M74.5854 79.9449H25.179C25.1284 79.946 25.0789 79.9303 25.0381 79.9005C24.9974 79.8706 24.9677 79.8281 24.9537 79.7797C24.945 79.7468 24.9439 79.7123 24.9507 79.6789C24.9575 79.6455 24.9719 79.614 24.9928 79.587C25.0137 79.56 25.0405 79.5381 25.0712 79.5231C25.1019 79.508 25.1357 79.5002 25.17 79.5001H74.5671C74.6205 79.4983 74.6729 79.5145 74.7159 79.546C74.7589 79.5776 74.7898 79.6227 74.8037 79.6741C74.811 79.7066 74.8108 79.7403 74.8032 79.7728C74.7956 79.8052 74.7808 79.8356 74.7598 79.8616C74.7389 79.8875 74.7123 79.9085 74.6821 79.9229C74.652 79.9374 74.6189 79.9449 74.5854 79.9449Z" fill="#CCCCCC"/>
<path d="M92.9508 11.9336H71.7217V28.0731H92.9508V11.9336Z" fill="#F2F2F2"/>
<path d="M91.8958 12.7363H72.7764V27.272H91.8958V12.7363Z" fill="white"/>
<path d="M82.6716 23.5176C82.6741 23.5176 82.6766 23.5175 82.6792 23.5174C83.9734 23.45 85.1932 22.8946 86.0906 21.9642C86.988 21.0337 87.4956 19.798 87.5102 18.5084C87.5247 17.2188 87.0451 15.9721 86.1689 15.0219C85.2926 14.0716 84.0856 13.4892 82.7932 13.3929C82.7772 13.3917 82.7612 13.3937 82.746 13.399C82.7309 13.4042 82.717 13.4125 82.7052 13.4233C82.6935 13.4339 82.6841 13.4469 82.6776 13.4613C82.6711 13.4757 82.6677 13.4913 82.6676 13.5071L82.5562 23.4004C82.5559 23.4312 82.5679 23.4608 82.5895 23.4827C82.6112 23.5047 82.6407 23.5172 82.6716 23.5176Z" fill="#3F3D56"/>
<path d="M78.6734 15.0293C78.7131 15.0298 78.751 15.0459 78.7787 15.0741L82.2012 18.5571C82.215 18.5711 82.2259 18.5876 82.2332 18.6057C82.2405 18.6239 82.2441 18.6433 82.2438 18.6628L82.1905 23.3968C82.1904 23.4171 82.186 23.4371 82.1777 23.4557C82.1694 23.4742 82.1573 23.4909 82.1422 23.5046C82.127 23.5184 82.1092 23.529 82.0898 23.5357C82.0704 23.5424 82.0498 23.5451 82.0293 23.5436C81.0777 23.4727 80.1648 23.1392 79.3932 22.5804C78.6216 22.0217 78.0219 21.2599 77.6614 20.3806C77.3009 19.5014 77.194 18.5395 77.3526 17.6031C77.5113 16.6667 77.9292 15.7929 78.5594 15.0798C78.573 15.0645 78.5897 15.0521 78.6083 15.0434C78.627 15.0347 78.6472 15.0299 78.6678 15.0293C78.6697 15.0293 78.6715 15.0293 78.6734 15.0293Z" fill="#E6E6E6"/>
<path d="M82.1539 13.3535C82.1922 13.354 82.2288 13.3689 82.2564 13.3952C82.2712 13.4092 82.2829 13.4261 82.2908 13.4449C82.2987 13.4636 82.3026 13.4838 82.3023 13.5041L82.2542 17.7754C82.2539 17.8048 82.2448 17.8335 82.2281 17.8577C82.2114 17.882 82.1878 17.9008 82.1604 17.9118C82.133 17.9227 82.1029 17.9253 82.074 17.9193C82.0451 17.9132 82.0186 17.8988 81.9979 17.8777L79.0114 14.8383C78.9972 14.8239 78.9861 14.8067 78.9788 14.7878C78.9715 14.769 78.9681 14.7489 78.9689 14.7287C78.9696 14.7085 78.9745 14.6887 78.9832 14.6704C78.9919 14.6521 79.0042 14.6358 79.0194 14.6225C79.888 13.8616 80.9891 13.4146 82.1447 13.3537C82.1477 13.3536 82.1509 13.3535 82.1539 13.3535Z" fill="#FF8F00"/>
<path d="M80.6153 25.5698C80.6133 25.75 80.5576 25.9255 80.4553 26.0742C80.353 26.2229 80.2087 26.3381 80.0406 26.4052C79.8726 26.4723 79.6883 26.4883 79.5111 26.4511C79.3339 26.414 79.1717 26.3254 79.0451 26.1965C78.9185 26.0677 78.8332 25.9044 78.7998 25.7273C78.7665 25.5502 78.7867 25.3672 78.8579 25.2015C78.929 25.0358 79.048 24.8948 79.1997 24.7964C79.3513 24.6979 79.5289 24.6465 79.71 24.6485C79.9527 24.6515 80.1844 24.7501 80.3541 24.9229C80.5238 25.0956 80.6177 25.3282 80.6153 25.5698Z" fill="#FF8F00"/>
<path d="M83.231 25.5991C83.229 25.7793 83.1733 25.9548 83.071 26.1035C82.9687 26.2522 82.8244 26.3674 82.6564 26.4345C82.4883 26.5016 82.304 26.5175 82.1268 26.4804C81.9496 26.4433 81.7875 26.3547 81.6609 26.2258C81.5342 26.097 81.4489 25.9337 81.4155 25.7566C81.3822 25.5795 81.4024 25.3965 81.4736 25.2308C81.5448 25.0651 81.6637 24.9241 81.8154 24.8257C81.9671 24.7272 82.1447 24.6758 82.3258 24.6778C82.5685 24.6808 82.8001 24.7794 82.9698 24.9522C83.1395 25.1249 83.2335 25.3575 83.231 25.5991Z" fill="#3F3D56"/>
<path d="M85.8467 25.6284C85.8447 25.8086 85.789 25.9841 85.6867 26.1328C85.5844 26.2815 85.4401 26.3967 85.2721 26.4638C85.104 26.5309 84.9197 26.5468 84.7425 26.5097C84.5653 26.4726 84.4032 26.384 84.2766 26.2551C84.15 26.1263 84.0646 25.963 84.0313 25.7859C83.9979 25.6087 84.0181 25.4258 84.0893 25.2601C84.1605 25.0944 84.2794 24.9534 84.4311 24.855C84.5828 24.7565 84.7604 24.7051 84.9415 24.7071C85.1842 24.7101 85.4158 24.8087 85.5855 24.9815C85.7552 25.1542 85.8492 25.3868 85.8467 25.6284Z" fill="#E6E6E6"/>
<path d="M92.7272 30.6133H71.498V46.7528H92.7272V30.6133Z" fill="#F2F2F2"/>
<path d="M91.6721 31.416H72.5527V45.9516H91.6721V31.416Z" fill="white"/>
<path d="M75.7963 36.1933C76.2347 36.1933 76.5901 35.8396 76.5901 35.4033C76.5901 34.967 76.2347 34.6133 75.7963 34.6133C75.3579 34.6133 75.0024 34.967 75.0024 35.4033C75.0024 35.8396 75.3579 36.1933 75.7963 36.1933Z" fill="#3F3D56"/>
<path d="M88.5517 34.7875C88.6225 34.7873 88.6926 34.8011 88.758 34.828C88.8234 34.8549 88.8828 34.8943 88.9329 34.9441C88.983 34.9938 89.0228 35.0529 89.0499 35.118C89.077 35.183 89.0909 35.2528 89.0909 35.3232C89.0909 35.3936 89.077 35.4634 89.0499 35.5284C89.0228 35.5935 88.983 35.6526 88.9329 35.7024C88.8828 35.7521 88.8234 35.7916 88.758 35.8184C88.6926 35.8453 88.6225 35.8591 88.5517 35.859H80.2025C80.0597 35.859 79.9228 35.8025 79.8218 35.7021C79.7208 35.6016 79.6641 35.4653 79.6641 35.3232C79.6641 35.1811 79.7208 35.0449 79.8218 34.9444C79.9228 34.8439 80.0597 34.7875 80.2025 34.7875H88.5517ZM88.5517 34.6563H80.2025C80.1144 34.6561 80.0271 34.6733 79.9457 34.7067C79.8643 34.7402 79.7903 34.7893 79.7279 34.8513C79.6656 34.9132 79.6161 34.9868 79.5824 35.0678C79.5486 35.1487 79.5312 35.2355 79.5312 35.3232C79.5312 35.4109 79.5486 35.4977 79.5824 35.5787C79.6161 35.6597 79.6656 35.7332 79.7279 35.7952C79.7903 35.8571 79.8643 35.9062 79.9457 35.9397C80.0271 35.9732 80.1144 35.9903 80.2025 35.9902H88.5517C88.6398 35.9903 88.727 35.9732 88.8085 35.9397C88.8899 35.9062 88.9639 35.8571 89.0262 35.7952C89.0886 35.7332 89.138 35.6597 89.1718 35.5787C89.2055 35.4977 89.2229 35.4109 89.2229 35.3232C89.2229 35.2355 89.2055 35.1487 89.1718 35.0678C89.138 34.9868 89.0886 34.9132 89.0262 34.8513C88.9639 34.7893 88.8899 34.7402 88.8085 34.7067C88.727 34.6733 88.6398 34.6561 88.5517 34.6563Z" fill="#3F3D56"/>
<path d="M85.2572 35.9902H78.972C78.7942 35.9902 78.6238 35.9199 78.4981 35.7948C78.3724 35.6698 78.3018 35.5001 78.3018 35.3232C78.3018 35.1463 78.3724 34.9767 78.4981 34.8516C78.6238 34.7265 78.7942 34.6562 78.972 34.6562H85.2572C85.4349 34.6563 85.6054 34.7265 85.7311 34.8516C85.8568 34.9767 85.9274 35.1463 85.9274 35.3232C85.9274 35.5001 85.8568 35.6698 85.7311 35.7948C85.6054 35.9199 85.4349 35.9902 85.2572 35.9902Z" fill="#FF8F00"/>
<path d="M75.7963 39.4745C76.2347 39.4745 76.5901 39.1208 76.5901 38.6845C76.5901 38.2482 76.2347 37.8945 75.7963 37.8945C75.3579 37.8945 75.0024 38.2482 75.0024 38.6845C75.0024 39.1208 75.3579 39.4745 75.7963 39.4745Z" fill="#3F3D56"/>
<path d="M88.5517 38.0687C88.6225 38.0686 88.6926 38.0824 88.758 38.1092C88.8234 38.1361 88.8828 38.1756 88.9329 38.2253C88.983 38.2751 89.0228 38.3342 89.0499 38.3992C89.077 38.4643 89.0909 38.534 89.0909 38.6045C89.0909 38.6749 89.077 38.7446 89.0499 38.8097C89.0228 38.8748 88.983 38.9339 88.9329 38.9836C88.8828 39.0334 88.8234 39.0728 88.758 39.0997C88.6926 39.1266 88.6225 39.1403 88.5517 39.1402H80.2025C80.0597 39.1402 79.9227 39.0838 79.8218 38.9833C79.7208 38.8828 79.6641 38.7466 79.6641 38.6045C79.6641 38.4624 79.7208 38.3261 79.8218 38.2256C79.9227 38.1252 80.0597 38.0687 80.2025 38.0687H88.5517ZM88.5517 37.9375H80.2025C80.0247 37.9375 79.8542 38.0078 79.7285 38.1329C79.6028 38.2579 79.5322 38.4276 79.5322 38.6045C79.5322 38.7814 79.6028 38.951 79.7285 39.0761C79.8542 39.2012 80.0247 39.2714 80.2025 39.2714H88.5517C88.7294 39.2714 88.8999 39.2012 89.0256 39.0761C89.1513 38.951 89.2219 38.7814 89.2219 38.6045C89.2219 38.4276 89.1513 38.2579 89.0256 38.1329C88.8999 38.0078 88.7294 37.9375 88.5517 37.9375Z" fill="#3F3D56"/>
<path d="M87.6306 39.2714H78.972C78.7942 39.2714 78.6238 39.2012 78.4981 39.0761C78.3724 38.951 78.3018 38.7814 78.3018 38.6045C78.3018 38.4276 78.3724 38.2579 78.4981 38.1328C78.6238 38.0078 78.7942 37.9375 78.972 37.9375H87.6306C87.8084 37.9375 87.9789 38.0078 88.1045 38.1328C88.2302 38.2579 88.3009 38.4276 88.3009 38.6045C88.3009 38.7814 88.2302 38.951 88.1045 39.0761C87.9789 39.2012 87.8084 39.2714 87.6306 39.2714Z" fill="#FF8F00"/>
<path d="M75.7963 42.7538C76.2347 42.7538 76.5901 42.4001 76.5901 41.9638C76.5901 41.5275 76.2347 41.1738 75.7963 41.1738C75.3579 41.1738 75.0024 41.5275 75.0024 41.9638C75.0024 42.4001 75.3579 42.7538 75.7963 42.7538Z" fill="#3F3D56"/>
<path d="M88.5517 41.35C88.6225 41.3499 88.6926 41.3636 88.758 41.3905C88.8234 41.4174 88.8828 41.4568 88.9329 41.5066C88.983 41.5563 89.0228 41.6154 89.0499 41.6805C89.077 41.7456 89.0909 41.8153 89.0909 41.8857C89.0909 41.9562 89.077 42.0259 89.0499 42.0909C89.0228 42.156 88.983 42.2151 88.9329 42.2649C88.8828 42.3146 88.8234 42.3541 88.758 42.3809C88.6926 42.4078 88.6225 42.4216 88.5517 42.4215H80.2025C80.0597 42.4215 79.9227 42.365 79.8218 42.2646C79.7208 42.1641 79.6641 42.0278 79.6641 41.8857C79.6641 41.7436 79.7208 41.6074 79.8218 41.5069C79.9227 41.4064 80.0597 41.35 80.2025 41.35H88.5517ZM88.5517 41.2188H80.2025C80.0247 41.2188 79.8542 41.289 79.7285 41.4141C79.6028 41.5392 79.5322 41.7088 79.5322 41.8857C79.5322 42.0626 79.6028 42.2323 79.7285 42.3573C79.8542 42.4824 80.0247 42.5527 80.2025 42.5527H88.5517C88.7294 42.5527 88.8999 42.4824 89.0256 42.3573C89.1513 42.2323 89.2219 42.0626 89.2219 41.8857C89.2219 41.7088 89.1513 41.5392 89.0256 41.4141C88.8999 41.289 88.7294 41.2188 88.5517 41.2188Z" fill="#3F3D56"/>
<path d="M82.4882 42.5527H78.972C78.8839 42.5528 78.7966 42.5357 78.7152 42.5022C78.6338 42.4687 78.5598 42.4196 78.4974 42.3577C78.4351 42.2957 78.3856 42.2222 78.3519 42.1412C78.3181 42.0602 78.3008 41.9734 78.3008 41.8857C78.3008 41.7981 78.3181 41.7112 78.3519 41.6303C78.3856 41.5493 78.4351 41.4757 78.4974 41.4138C78.5598 41.3518 78.6338 41.3027 78.7152 41.2692C78.7966 41.2358 78.8839 41.2186 78.972 41.2188H82.4882C82.6658 41.219 82.836 41.2894 82.9615 41.4144C83.087 41.5395 83.1574 41.709 83.1574 41.8857C83.1574 42.0624 83.087 42.2319 82.9615 42.357C82.836 42.482 82.6658 42.5524 82.4882 42.5527Z" fill="#FF8F00"/>
<path d="M66.8051 14.7891H7.49463V45.0377H66.8051V14.7891Z" fill="#F2F2F2"/>
<path d="M64.8281 16.293H9.47168V43.5355H64.8281V16.293Z" fill="white"/>
<path d="M57.9625 39.3796H17.6087C17.5752 39.3796 17.5431 39.3664 17.5194 39.3428C17.4957 39.3192 17.4824 39.2872 17.4824 39.2539V20.0065C17.4824 19.9732 17.4957 19.9412 17.5194 19.9177C17.5431 19.8941 17.5752 19.8809 17.6087 19.8809C17.6422 19.8809 17.6743 19.8941 17.698 19.9177C17.7217 19.9412 17.735 19.9732 17.735 20.0065V39.1282H57.9625C57.996 39.1282 58.0281 39.1415 58.0518 39.1651C58.0754 39.1886 58.0887 39.2206 58.0887 39.2539C58.0887 39.2872 58.0754 39.3192 58.0518 39.3428C58.0281 39.3664 57.996 39.3796 57.9625 39.3796Z" fill="#3F3D56"/>
<path d="M26.2308 37.9958H22.5604C22.461 37.9957 22.3658 37.9564 22.2955 37.8865C22.2252 37.8165 22.1857 37.7217 22.1855 37.6228V32.5879C22.1857 32.489 22.2252 32.3942 22.2955 32.3242C22.3658 32.2543 22.461 32.215 22.5604 32.2148H26.2308C26.3302 32.215 26.4254 32.2543 26.4957 32.3242C26.566 32.3942 26.6055 32.489 26.6057 32.5879V37.6228C26.6055 37.7217 26.566 37.8165 26.4957 37.8865C26.4254 37.9564 26.3302 37.9957 26.2308 37.9958Z" fill="#FF8F00"/>
<path d="M32.9241 37.9961H29.2538C29.1544 37.996 29.0591 37.9566 28.9888 37.8867C28.9186 37.8168 28.879 37.7219 28.8789 37.623V27.8125C28.879 27.7136 28.9186 27.6188 28.9888 27.5488C29.0591 27.4789 29.1544 27.4396 29.2538 27.4395H32.9241C33.0235 27.4396 33.1188 27.4789 33.1891 27.5488C33.2594 27.6188 33.2989 27.7136 33.299 27.8125V37.623C33.2989 37.7219 33.2594 37.8168 33.1891 37.8867C33.1188 37.9566 33.0235 37.996 32.9241 37.9961Z" fill="#FF8F00"/>
<path d="M39.6175 37.9958H35.9472C35.8478 37.9957 35.7525 37.9564 35.6822 37.8865C35.6119 37.8165 35.5724 37.7217 35.5723 37.6228V32.5879C35.5724 32.489 35.6119 32.3942 35.6822 32.3242C35.7525 32.2543 35.8478 32.215 35.9472 32.2148H39.6175C39.7169 32.215 39.8121 32.2543 39.8824 32.3242C39.9527 32.3942 39.9922 32.489 39.9924 32.5879V37.6228C39.9922 37.7217 39.9527 37.8165 39.8824 37.8865C39.8121 37.9564 39.7169 37.9957 39.6175 37.9958Z" fill="#FF8F00"/>
<path d="M46.3108 37.9965H42.6405C42.5434 37.9986 42.4494 37.9623 42.3791 37.8955C42.3089 37.8288 42.268 37.737 42.2656 37.6404V25.9109C42.268 25.8143 42.3089 25.7225 42.3791 25.6558C42.4494 25.589 42.5434 25.5527 42.6405 25.5548H46.3108C46.408 25.5527 46.502 25.589 46.5722 25.6558C46.6425 25.7225 46.6833 25.8143 46.6857 25.9109V37.6404C46.6833 37.737 46.6425 37.8288 46.5722 37.8955C46.502 37.9623 46.408 37.9986 46.3108 37.9965Z" fill="#FF8F00"/>
<path d="M53.0042 37.997H49.3339C49.2345 37.9969 49.1392 37.9576 49.0689 37.8877C48.9986 37.8177 48.9591 37.7229 48.959 37.624V22.5351C48.9591 22.4362 48.9986 22.3414 49.0689 22.2715C49.1392 22.2016 49.2345 22.1622 49.3339 22.1621H53.0042C53.1036 22.1622 53.1989 22.2016 53.2692 22.2715C53.3394 22.3414 53.379 22.4362 53.3791 22.5351V37.624C53.379 37.7229 53.3394 37.8177 53.2692 37.8877C53.1989 37.9576 53.1036 37.9969 53.0042 37.997Z" fill="#FF8F00"/>
<path d="M24.3954 30.7073C24.8139 30.7073 25.1532 30.3697 25.1532 29.9533C25.1532 29.5368 24.8139 29.1992 24.3954 29.1992C23.9769 29.1992 23.6377 29.5368 23.6377 29.9533C23.6377 30.3697 23.9769 30.7073 24.3954 30.7073Z" fill="#3F3D56"/>
<path d="M31.0888 25.8069C31.5073 25.8069 31.8465 25.4693 31.8465 25.0529C31.8465 24.6364 31.5073 24.2988 31.0888 24.2988C30.6703 24.2988 30.3311 24.6364 30.3311 25.0529C30.3311 25.4693 30.6703 25.8069 31.0888 25.8069Z" fill="#3F3D56"/>
<path d="M37.7821 30.7073C38.2006 30.7073 38.5399 30.3697 38.5399 29.9533C38.5399 29.5368 38.2006 29.1992 37.7821 29.1992C37.3637 29.1992 37.0244 29.5368 37.0244 29.9533C37.0244 30.3697 37.3637 30.7073 37.7821 30.7073Z" fill="#3F3D56"/>
<path d="M44.4755 23.4182C44.894 23.4182 45.2332 23.0806 45.2332 22.6642C45.2332 22.2478 44.894 21.9102 44.4755 21.9102C44.057 21.9102 43.7178 22.2478 43.7178 22.6642C43.7178 23.0806 44.057 23.4182 44.4755 23.4182Z" fill="#3F3D56"/>
<path d="M51.1684 20.6526C51.5869 20.6526 51.9261 20.315 51.9261 19.8986C51.9261 19.4821 51.5869 19.1445 51.1684 19.1445C50.7499 19.1445 50.4106 19.4821 50.4106 19.8986C50.4106 20.315 50.7499 20.6526 51.1684 20.6526Z" fill="#3F3D56"/>
<path d="M37.7981 30.1215L31.0889 25.1207L24.4712 30.0532L24.3198 29.8521L31.0889 24.8066L37.7661 29.7836L44.4017 22.5577L44.4282 22.5469L51.1215 19.8633L51.216 20.0964L44.5492 22.7694L37.7981 30.1215Z" fill="#3F3D56"/>
<path d="M137.854 92.0004H82.0707C82.0319 92.0004 81.9947 91.985 81.9672 91.9577C81.9397 91.9304 81.9243 91.8933 81.9243 91.8547C81.9243 91.816 81.9397 91.779 81.9672 91.7517C81.9947 91.7243 82.0319 91.709 82.0707 91.709H137.854C137.892 91.709 137.93 91.7243 137.957 91.7517C137.985 91.779 138 91.816 138 91.8547C138 91.8933 137.985 91.9304 137.957 91.9577C137.93 91.985 137.892 92.0004 137.854 92.0004Z" fill="#CCCCCC"/>
</g>
<defs>
<clipPath id="clip0_4911_15192">
<rect width="138" height="92" fill="white"/>
</clipPath>
</defs>
</svg>
