<svg width="72" height="69" viewBox="0 0 72 69" fill="none" xmlns="http://www.w3.org/2000/svg">
<rect y="0.957031" width="72" height="68" rx="10" fill="#E0F2FE"/>
<path d="M52.8001 23.3888H17.8001V21.9888L48.6001 19.5248V21.9888H52.8001V17.7888C52.8001 14.7088 50.3053 12.5472 47.2589 12.9812L19.1441 16.9964C16.0949 17.4332 13.6001 20.3088 13.6001 23.3888V51.3888C13.6001 52.874 14.1901 54.2984 15.2403 55.3486C16.2905 56.3988 17.7149 56.9888 19.2001 56.9888H52.8001C54.2853 56.9888 55.7097 56.3988 56.7599 55.3486C57.8101 54.2984 58.4001 52.874 58.4001 51.3888V28.9888C58.4001 27.5036 57.8101 26.0792 56.7599 25.029C55.7097 23.9788 54.2853 23.3888 52.8001 23.3888V23.3888ZM48.6001 43.0056C48.0484 43.0054 47.5021 42.8966 46.9924 42.6853C46.4827 42.474 46.0197 42.1643 45.6297 41.7741C45.2397 41.3838 44.9303 40.9205 44.7194 40.4107C44.5084 39.9009 44.3999 39.3546 44.4001 38.8028C44.4003 38.2511 44.5091 37.7048 44.7204 37.1951C44.9318 36.6855 45.2414 36.2224 45.6316 35.8324C46.0219 35.4424 46.4852 35.1331 46.995 34.9221C47.5048 34.7111 48.0512 34.6026 48.6029 34.6028C49.7172 34.6032 50.7857 35.0462 51.5733 35.8344C52.361 36.6226 52.8033 37.6913 52.8029 38.8056C52.8025 39.9199 52.3595 40.9884 51.5713 41.7761C50.7832 42.5637 49.7144 43.006 48.6001 43.0056Z" fill="#2563EB"/>
</svg>
