<svg width="17" height="16" viewBox="0 0 17 16" fill="none" xmlns="http://www.w3.org/2000/svg">
<g clip-path="url(#clip0_4911_14245)">
<path d="M8.2793 10C9.38387 10 10.2793 9.10457 10.2793 8C10.2793 6.89543 9.38387 6 8.2793 6C7.17473 6 6.2793 6.89543 6.2793 8C6.2793 9.10457 7.17473 10 8.2793 10Z" fill="#FF8F00"/>
<path d="M15.7491 7.83C15.161 6.30882 14.1401 4.99331 12.8125 4.04604C11.4849 3.09878 9.90883 2.56129 8.27909 2.5C6.64934 2.56129 5.07328 3.09878 3.74569 4.04604C2.41809 4.99331 1.39716 6.30882 0.809084 7.83C0.769368 7.93985 0.769368 8.06015 0.809084 8.17C1.39716 9.69118 2.41809 11.0067 3.74569 11.954C5.07328 12.9012 6.64934 13.4387 8.27909 13.5C9.90883 13.4387 11.4849 12.9012 12.8125 11.954C14.1401 11.0067 15.161 9.69118 15.7491 8.17C15.7888 8.06015 15.7888 7.93985 15.7491 7.83ZM8.27909 11.25C7.6363 11.25 7.00794 11.0594 6.47348 10.7023C5.93902 10.3452 5.52246 9.83758 5.27648 9.24372C5.03049 8.64986 4.96613 7.99639 5.09153 7.36596C5.21693 6.73552 5.52647 6.15642 5.98099 5.7019C6.43551 5.24738 7.0146 4.93785 7.64504 4.81245C8.27548 4.68705 8.92895 4.75141 9.52281 4.99739C10.1167 5.24338 10.6242 5.65994 10.9814 6.1944C11.3385 6.72886 11.5291 7.35721 11.5291 8C11.5278 8.86155 11.1849 9.68743 10.5757 10.2966C9.96652 10.9058 9.14063 11.2487 8.27909 11.25Z" fill="#FF8F00"/>
</g>
<defs>
<clipPath id="clip0_4911_14245">
<rect width="16" height="16" fill="white" transform="translate(0.279297)"/>
</clipPath>
</defs>
</svg>
