<svg width="68" height="68" viewBox="0 0 68 68" fill="none" xmlns="http://www.w3.org/2000/svg">
<rect width="68" height="68" rx="10" fill="#FAE8FF"/>
<path d="M31.7224 8.38913C28.549 9.50913 26.1224 12.2345 25.3757 15.5198C24.2184 20.6345 27.3917 25.8611 32.5064 27.2798C38.5917 28.9598 44.8264 24.1438 44.8264 17.7598C44.8264 11.0025 37.9944 6.14913 31.7224 8.38913Z" fill="#C026D3"/>
<path d="M22.7252 30.6393C21.9786 31.05 20.9332 31.946 20.4479 32.5806C19.4026 33.962 12.2346 45.4606 11.4132 47.1033C10.2932 49.2686 11.0399 52.1806 13.0186 53.1886C13.8399 53.5993 21.6799 55.2793 22.9119 55.2793C23.0612 55.2793 23.1359 53.8233 23.0986 52.0313L22.9866 48.7833L21.4186 48.3726C18.3199 47.626 18.2452 46.1326 21.3439 46.5433L23.1732 46.8046V43.4073C23.1732 38.5913 22.4639 38.8526 35.1199 38.8526C40.7572 38.8526 45.5732 39.002 45.7972 39.1513C46.6932 39.7486 47.0666 41.1673 47.0666 43.8926V46.73L48.8586 46.618C50.3892 46.506 50.6132 46.5806 50.6132 47.2526C50.6132 47.85 50.2399 48.074 48.8586 48.3353L47.0666 48.6713V52.0313C47.0666 55.2793 47.0666 55.354 47.9252 55.1673C48.3732 55.0553 50.5012 54.682 52.6292 54.3086C56.9599 53.562 58.3039 52.8153 59.0132 50.5753C59.6479 48.746 59.3492 48.1113 53.9732 39.4873C50.6132 34.074 48.8586 31.6473 47.9252 31.0126L46.5812 30.0793L35.3439 30.0046C24.7786 29.93 24.0319 29.9673 22.7252 30.6393Z" fill="#C026D3"/>
<path d="M24.9276 40.9805C24.7782 41.0925 24.6662 44.7139 24.6662 49.0072V56.7725H23.3596C22.0156 56.7725 20.5596 57.8179 20.5596 58.7512C20.5596 59.0499 20.8582 59.5352 21.2316 59.8712C21.8662 60.4312 23.3596 60.5059 35.1569 60.5059C49.1569 60.5059 49.3062 60.5059 49.3062 58.7885C49.3062 57.5192 48.2982 56.7725 46.6556 56.7725H45.1996V48.7459V40.7192H35.1942C29.6689 40.7192 25.0396 40.8312 24.9276 40.9805Z" fill="#C026D3"/>
</svg>
