<svg width="68" height="68" viewBox="0 0 68 68" fill="none" xmlns="http://www.w3.org/2000/svg">
<rect width="68" height="68" rx="10" fill="#DBEAFE"/>
<path d="M26.1854 8.78756C16.4366 10.5244 10.6048 11.631 10.3312 11.785C9.76227 12.0932 9.00731 12.8916 8.65718 13.5639C8.04446 14.7545 7.82563 15.8331 7.78186 18.0322C7.70527 21.1697 8.15387 23.4528 9.19331 25.1897L9.58721 25.834L8.41647 26.2963C7.78186 26.5484 7.16914 26.8425 7.07067 26.9686C6.58924 27.5009 7.10349 28.3693 8.1867 28.8735C9.54344 29.5039 10.2218 31.787 10.0686 35.2747L10.0249 36.3252L8.90883 36.7875C6.38135 37.852 5.3638 38.7765 6.40324 39.0986C6.56736 39.1546 6.8956 39.2667 7.12537 39.3367L7.54115 39.4768L7.22385 39.9951C6.50171 41.1576 6.1297 42.5583 6.03123 44.4493C5.92181 46.6344 6.29382 49.3377 6.92843 50.9485C7.24573 51.7609 8.00069 52.8535 8.44929 53.1476C8.6353 53.2737 13.4386 55.3187 19.1172 57.6859L29.446 62L44.7531 57.2516C53.1671 54.6323 60.104 52.4613 60.1587 52.4192C60.3556 52.2652 60.2681 51.957 59.9399 51.6068C59.6007 51.2286 58.4409 50.6123 57.1388 50.1081L56.362 49.8139L56.2854 49.1696C56.0885 47.2787 56.3182 45.0236 56.8325 43.805C57.1717 42.9926 57.5874 42.5583 58.3315 42.1942C59.0208 41.858 59.3928 41.4098 59.3928 40.8915C59.3928 40.4013 59.2724 40.2612 58.6816 40.0371C58.4409 39.939 58.1783 39.841 58.1126 39.813C58.036 39.771 58.1892 39.4628 58.4956 39.0706C59.6226 37.5859 60.1478 35.6249 60.2353 32.5013C60.3228 29.798 60.0821 28.4393 59.2834 26.9126L59.0645 26.4643L60.4979 26.0161C61.9531 25.5539 62.1719 25.3718 61.8984 24.9376C61.6796 24.6014 60.3994 23.8731 59.0974 23.3548L57.9923 22.9066L57.9485 21.8981C57.8938 20.2593 58.036 18.4524 58.2986 17.5559C58.605 16.5334 59.2615 15.651 59.9399 15.3708C60.9027 14.9646 61.417 14.0402 60.9574 13.5219C60.7824 13.3258 41.9083 5.95816 41.6895 6.00018C41.6457 6.01418 34.676 7.2608 26.1854 8.78756ZM21.3493 18.5504C26.8419 20.8335 31.3498 22.7245 31.3717 22.7525C31.4373 22.8085 31.2185 31.1707 31.1528 31.2547C31.12 31.3108 26.5465 29.714 20.9992 27.725C13.2964 24.9516 10.8564 24.0271 10.6595 23.789C10.5172 23.6209 10.2765 23.1727 10.1124 22.8085C9.31367 20.9176 9.28084 16.6034 10.0686 15.2027C10.2984 14.7685 10.8127 14.4044 11.1737 14.3903C11.2831 14.3903 15.8676 16.2673 21.3493 18.5504ZM57.3796 16.7575C56.9966 17.71 56.8544 18.9986 56.8981 21.3238L56.931 23.5509L44.6437 27.4588C37.8819 29.6019 32.3345 31.3388 32.3236 31.3248C32.2908 31.2687 32.4877 22.8926 32.5205 22.8365C32.5534 22.7945 57.478 16.2533 57.5109 16.2953C57.5327 16.3093 57.4671 16.5194 57.3796 16.7575ZM57.3577 28.0331C58.1345 28.4393 58.5175 29.812 58.5175 32.1232C58.5175 34.4623 58.0908 36.3533 57.3577 37.2357C57.1717 37.4598 54.6223 38.4263 47.018 41.1576C41.4597 43.1466 36.8971 44.7434 36.8643 44.7014C36.7986 44.6174 36.5798 36.2552 36.6455 36.1852C36.7768 36.0591 56.5371 27.865 56.745 27.851C56.8763 27.837 57.1607 27.9211 57.3577 28.0331ZM23.1765 33.0196C29.9383 34.7985 35.4857 36.2692 35.4966 36.2832C35.5294 36.3393 35.7264 44.7154 35.6936 44.7714C35.6826 44.7995 30.1353 43.0486 23.3844 40.9055L11.1081 36.9836L11.0971 34.3363C11.0862 31.6189 11.0643 31.4368 10.5391 29.882C10.4625 29.6719 10.4844 29.6439 10.6595 29.714C10.7689 29.756 16.4037 31.2407 23.1765 33.0196ZM19.6534 45.4298C25.1132 47.7129 29.6101 49.6178 29.6539 49.6599C29.7086 49.7439 29.5445 58.1061 29.4788 58.2041C29.4569 58.2181 24.8943 56.6073 19.347 54.6043L9.23708 50.9765L8.83224 50.4303C8.29611 49.6879 7.97881 48.5253 7.83657 46.7324C7.61774 44.1131 8.00069 42.1241 8.84319 41.5498C9.05107 41.3958 9.33555 41.2837 9.47779 41.2837C9.62003 41.2837 14.1936 43.1466 19.6534 45.4298ZM55.4867 44.3092C55.2022 45.3597 55.1803 45.5418 55.1803 47.923V50.4303L42.9368 54.3382C36.1969 56.4813 30.6714 58.2041 30.6386 58.1621C30.573 58.0781 30.7808 49.856 30.8574 49.7579C30.8903 49.7159 32.0829 49.3657 33.5053 49.0015C35.5623 48.4553 36.164 48.3292 36.4485 48.4413C36.7658 48.5533 37.0503 48.4693 38.1773 47.993C39.1292 47.6008 41.974 46.7884 47.6307 45.2897C52.0839 44.1131 55.7383 43.1606 55.7602 43.1746C55.7712 43.1887 55.6508 43.7069 55.4867 44.3092Z" fill="#2563EB"/>
</svg>
