<svg width="68" height="67" viewBox="0 0 68 67" fill="none" xmlns="http://www.w3.org/2000/svg">
<rect width="68.0004" height="66.6938" rx="10" fill="#DCFCE7"/>
<path d="M31.0532 6.14124L30.3164 6.2465V8.61493V10.957H34.0006H37.6848V8.61493V6.29914L36.7111 6.11493C35.6322 5.95703 32.2375 5.95703 31.0532 6.14124Z" fill="#16A34A"/>
<path d="M28.079 6.61431C18.3421 8.74588 10.3158 15.9827 7.34211 25.2985C6.23684 28.6933 6 30.3511 6 34.1143C6 37.8775 6.23684 39.5354 7.34211 42.9301C9.55263 49.8775 14.7632 55.8775 21.4211 59.2722C23.6842 60.4301 24.1053 60.4301 22 59.2722C15.5526 55.8248 10.9474 50.1406 8.94737 43.1669C8.42105 41.3775 8.34211 40.4827 8.34211 36.6143C8.34211 32.7459 8.42105 31.8248 8.94737 29.9301C11.4474 20.7722 18.7368 13.6669 28.0263 11.3248L29.7895 10.9038V8.56167C29.7895 7.2722 29.7632 6.21957 29.7368 6.24588C29.6842 6.2722 28.9474 6.43009 28.079 6.61431Z" fill="#16A34A"/>
<path d="M38.2109 8.58799V10.9038L39.9741 11.3248C47.6846 13.2722 54.2899 18.6933 57.5794 25.7985C59.2373 29.4301 59.6583 31.588 59.6583 36.6143C59.6583 40.4827 59.5794 41.3775 59.053 43.1669C57.053 50.1406 52.4478 55.8248 46.0004 59.2722C43.8951 60.4301 44.3162 60.4301 46.5794 59.2722C53.2373 55.8775 58.4478 49.8775 60.6583 42.9301C61.7636 39.5354 62.0004 37.8775 62.0004 34.1143C62.0004 30.3511 61.7636 28.6933 60.6583 25.2985C57.6583 15.9564 49.553 8.66694 39.8951 6.64062L38.2109 6.2722V8.58799Z" fill="#16A34A"/>
<path d="M30.5781 11.5354C30.5781 11.5881 30.236 13.4565 29.8149 15.6933L29.0518 19.7723L31.1307 24.667C32.2623 27.3512 33.2097 29.7986 33.2097 30.1144C33.2097 30.4038 33.3412 30.7459 33.4728 30.8249C33.657 30.9302 33.736 29.4302 33.736 26.5354C33.736 22.7986 33.6833 22.0354 33.3412 21.9038C32.736 21.6933 32.8412 20.2459 33.4728 19.9038C34.2623 19.4828 35.0518 20.0091 35.0518 20.9828C35.0518 21.4302 34.8939 21.8249 34.657 21.9038C34.3149 22.0354 34.2623 22.7986 34.2623 26.5354C34.2623 29.4302 34.3412 30.9302 34.5254 30.8249C34.6833 30.7459 34.7886 30.4038 34.7886 30.1144C34.7886 29.7986 35.736 27.3512 36.8675 24.667L38.9465 19.7723L38.1833 15.6933C37.7623 13.4565 37.4202 11.5881 37.4202 11.5354C37.4202 11.5091 35.8939 11.4828 33.9991 11.4828C32.1307 11.4828 30.5781 11.5091 30.5781 11.5354Z" fill="#16A34A"/>
<path d="M18.4217 28.5892C18.4743 29.0365 18.6322 29.4576 18.7638 29.5102C19.0796 29.7207 27.7901 32.2471 27.8691 32.1681C27.948 32.0892 18.6848 27.7997 18.448 27.7997C18.3691 27.7997 18.3427 28.1681 18.4217 28.5892Z" fill="#16A34A"/>
<path d="M44.6055 29.9839C42.1055 31.1418 40.0792 32.1418 40.1319 32.1681C40.2108 32.2471 48.9213 29.7207 49.2371 29.5102C49.5792 29.2997 49.7371 27.7997 49.4213 27.826C49.2634 27.826 47.0792 28.7997 44.6055 29.9839Z" fill="#16A34A"/>
<path d="M15.2627 30.0347C15.3153 30.4031 15.3943 30.6925 15.4469 30.6925C15.4732 30.6925 17.789 31.1136 20.5785 31.6136C23.3943 32.1136 25.71 32.482 25.7627 32.4557C25.8416 32.3768 15.7364 29.3768 15.3679 29.3768C15.2364 29.3768 15.1837 29.6662 15.2627 30.0347Z" fill="#16A34A"/>
<path d="M47.105 30.9031C44.3945 31.7189 42.2102 32.4031 42.2366 32.4557C42.2892 32.482 44.605 32.1136 47.4208 31.6136C50.2102 31.1136 52.526 30.6925 52.5524 30.6925C52.605 30.6925 52.6839 30.4031 52.7366 30.0347C52.8418 29.5347 52.7629 29.3768 52.4471 29.4031C52.2102 29.4294 49.8155 30.0873 47.105 30.9031Z" fill="#16A34A"/>
<path d="M12.0269 31.3244C12.1059 31.6139 13.1585 36.7192 14.369 42.6402C15.6059 48.5349 16.6322 53.4034 16.6848 53.4297C16.7374 53.456 20.0795 54.2718 24.1322 55.2718C28.1848 56.2718 31.6322 57.2455 31.7901 57.4297C32.2111 57.9297 35.7901 57.9297 36.2111 57.4297C36.369 57.2455 39.8164 56.2718 43.869 55.2718C47.9216 54.2718 51.2637 53.456 51.3164 53.4297C51.4216 53.3771 56.1059 30.8507 56.0269 30.7981C56.0006 30.7981 51.0532 31.6665 45.0532 32.7455L34.1322 34.6928L24.7901 33.0613C19.6585 32.1402 14.6585 31.2718 13.6848 31.0876C11.9216 30.7718 11.8953 30.7718 12.0269 31.3244Z" fill="#16A34A"/>
<path d="M24.0002 60.4302C24.2107 60.5618 24.5265 60.6934 24.6581 60.6934C24.816 60.6934 24.737 60.5618 24.5265 60.4302C24.316 60.2986 24.0265 60.167 23.8686 60.167C23.737 60.167 23.7897 60.2986 24.0002 60.4302Z" fill="#16A34A"/>
<path d="M43.4738 60.4302C43.2633 60.5618 43.2107 60.6934 43.3422 60.6934C43.5001 60.6934 43.7896 60.5618 44.0001 60.4302C44.2107 60.2986 44.2896 60.167 44.1317 60.167C44.0001 60.167 43.6843 60.2986 43.4738 60.4302Z" fill="#16A34A"/>
</svg>
