<svg width="75" height="68" viewBox="0 0 75 68" fill="none" xmlns="http://www.w3.org/2000/svg">
<rect width="74.3386" height="67.9997" rx="10" fill="#FEF3C7"/>
<path d="M6.0058 20.6371C6.0058 17.3933 6.0058 14.1552 6.0058 10.9114C5.98379 10.7361 6.02484 10.5587 6.12164 10.4109C6.21843 10.2631 6.36465 10.1546 6.53413 10.1047C11.1954 8.01848 16.1611 6.69315 21.242 6.17922C28.9888 5.47634 36.783 6.8489 43.8236 10.1559C43.9542 10.198 44.0666 10.2834 44.142 10.3981C44.2174 10.5128 44.2514 10.6498 44.2383 10.7864C44.2383 17.2627 44.3633 23.7503 44.1815 30.2265C44.0395 35.4813 42.0398 40.1965 39.0119 44.4629C36.153 48.4309 32.5103 51.7701 28.309 54.2738C27.6541 54.7067 26.9187 55.0033 26.1466 55.1458C25.3746 55.2882 24.5818 55.2738 23.8154 55.1032C22.9645 54.8636 22.1613 54.4793 21.4408 53.967C15.2884 49.9904 10.4199 44.923 7.74984 37.9753C6.56744 34.999 5.9751 31.8212 6.0058 28.6188C6.05125 25.9601 6.0058 23.2958 6.0058 20.6371ZM25.2584 47.701C28.5363 47.5589 31.0302 46.1444 32.5754 43.2358C33.5014 41.4974 34.3365 39.7079 35.2113 37.9469C35.4386 37.4924 35.6488 37.0379 35.2398 36.5778C34.8307 36.1176 34.416 36.2483 33.9388 36.3789C30.2335 37.4074 26.3752 37.7709 22.5429 37.4526C20.4501 37.2654 18.3792 36.885 16.3564 36.3164C16.1597 36.2279 15.9398 36.2049 15.7291 36.251C15.5183 36.297 15.328 36.4096 15.1862 36.5721C15.0569 36.7228 14.9785 36.9105 14.9622 37.1084C14.9459 37.3063 14.9924 37.5043 15.0953 37.6742C16.0667 39.617 16.9359 41.6054 18.0096 43.4801C19.5945 46.2523 22.0998 47.5874 25.2584 47.701ZM21.8499 23.1822C21.8499 22.4777 21.8499 21.7676 21.8499 21.0575C21.8499 20.1543 21.5147 19.8134 20.6001 19.8134C19.8047 19.8134 19.0094 19.8475 18.2198 19.9213C15.968 20.0589 13.7708 20.6706 11.7719 21.7165C10.4156 22.434 9.30399 23.5396 8.57926 24.8921C8.45649 25.0714 8.39512 25.2857 8.40434 25.5028C8.41356 25.7199 8.49286 25.9282 8.63038 26.0965C8.77559 26.2582 8.97004 26.3675 9.18364 26.4075C9.39725 26.4476 9.61809 26.4161 9.81201 26.318C13.2326 25.0113 17.0148 25.0113 20.4353 26.318C21.2704 26.6248 21.8271 26.2158 21.8442 25.3125C21.8612 24.6024 21.8499 23.8923 21.8499 23.1822ZM28.4056 23.1026V25.1591C28.4056 26.2215 28.9737 26.6078 29.9451 26.2499C33.2906 25.0144 36.9673 25.0144 40.3128 26.2499C40.79 26.4203 41.2445 26.5055 41.608 26.0794C41.9716 25.6534 41.7955 25.1932 41.5626 24.7331C40.6734 23.2252 39.3202 22.0455 37.7053 21.37C35.0758 20.2495 32.2262 19.7406 29.3714 19.8816C28.7238 19.8816 28.4227 20.2451 28.4113 20.9155C28.3999 21.5858 28.4056 22.3755 28.4056 23.1026ZM21.0943 14.8028C21.0943 14.5131 20.7591 14.2632 20.2876 14.1098C18.7344 13.5938 17.0782 13.467 15.4645 13.7405C13.1144 14.1207 10.9727 15.3152 9.41435 17.115C9.30217 17.2101 9.21476 17.3311 9.15962 17.4674C9.10448 17.6038 9.08327 17.7515 9.09779 17.8979C9.11232 18.0443 9.16215 18.185 9.24302 18.3078C9.32388 18.4307 9.43336 18.5321 9.56205 18.6034C10.1301 18.9613 10.5562 18.6034 10.9482 18.2057C11.8081 17.2253 12.8934 16.4685 14.1106 16.0005C15.3278 15.5324 16.6405 15.367 17.9357 15.5186C18.5912 15.612 19.2387 15.7544 19.8729 15.9447C20.583 16.1208 21.1057 15.7288 21.0943 14.8028ZM33.3366 13.8428C32.2629 13.8335 31.1952 14.0044 30.1781 14.3484C29.5191 14.5642 29.2123 14.996 29.36 15.4845C29.5077 15.9731 29.9906 16.2685 30.6893 16.0526C32.2373 15.5401 33.9024 15.4974 35.4746 15.9302C37.0467 16.3629 38.4555 17.2516 39.5232 18.4841C40.0628 19.0522 40.5912 19.126 41.0286 18.6999C41.466 18.2739 41.3922 17.7796 40.8979 17.2286C39.9456 16.1654 38.7802 15.3145 37.4775 14.7312C36.1748 14.1479 34.764 13.8452 33.3366 13.8428Z" fill="#FF8F00"/>
<path d="M37.5557 61.9997C36.2782 61.9408 35.0662 61.4176 34.1471 60.5284C32.7519 58.98 31.5571 57.2623 30.5909 55.4156C30.4659 55.194 30.5 55.0747 30.6988 54.944C32.0023 54.0754 33.2507 53.1267 34.4369 52.1036C34.7948 51.7911 34.8572 52.1377 35.005 52.3138C35.7494 53.3455 36.7324 54.1819 37.8699 54.7516C39.0075 55.3214 40.2659 55.6076 41.538 55.586C43.4504 55.6099 45.3012 54.9097 46.719 53.6261C48.1392 52.3535 49.5594 51.0526 50.9569 49.7687C51.1363 49.6464 51.2732 49.4714 51.3485 49.2677C51.4238 49.0641 51.4339 48.8421 51.3773 48.6325C51.3145 48.4265 51.185 48.2471 51.0092 48.1227C50.8333 47.9983 50.6211 47.9358 50.4059 47.9452C47.2769 47.6228 44.2134 46.8359 41.3164 45.6103C40.8676 45.4172 40.7483 45.2979 41.0608 44.8263C43.6124 41.0986 45.2794 36.8376 45.935 32.3681C46.0579 31.4968 46.1187 30.6178 46.1168 29.7379C46.1168 25.3351 46.1168 20.9324 46.1168 16.5297C46.1168 16.0355 46.1963 15.8537 46.7531 15.9617C54.9009 17.7298 62.3257 21.9153 68.0565 27.9711C68.1937 28.0823 68.2881 28.2377 68.3233 28.4108C68.3585 28.5839 68.3325 28.7638 68.2496 28.9198C66.0738 34.4132 63.9605 39.9294 61.7393 45.3944C59.7907 50.0982 56.5072 53.6715 52.4113 56.5461C48.3846 59.2678 43.8202 61.0928 39.027 61.8975C38.5669 61.96 38.0897 61.9543 37.5557 61.9997ZM61.1542 40.5713C61.0121 39.1012 60.4165 37.7115 59.4499 36.5947C57.5013 34.203 54.8597 32.7658 52.0193 31.675C51.8961 31.6162 51.7615 31.5853 51.625 31.5846C51.4885 31.5839 51.3535 31.6134 51.2297 31.6709C51.106 31.7284 50.9965 31.8126 50.909 31.9175C50.8216 32.0223 50.7584 32.1451 50.724 32.2772C50.1787 33.6065 49.6503 34.9586 49.1788 36.2879C48.9118 37.0208 49.2981 37.5377 50.0821 37.6002C50.7467 37.6514 51.4114 37.6798 52.0647 37.7763C54.8637 38.174 57.4773 39.4076 59.5635 41.3155C59.6995 41.4761 59.8862 41.5855 60.0927 41.6257C60.2992 41.666 60.5133 41.6347 60.6997 41.5371C60.8695 41.4467 61.0054 41.3037 61.0873 41.1297C61.1692 40.9557 61.1927 40.7598 61.1542 40.5713ZM54.5586 27.0053C53.8088 27.0053 53.4224 27.2723 53.3486 27.8518C53.2747 28.4312 53.6383 28.7778 54.3939 28.8687C54.7745 28.9198 55.1608 28.9425 55.5301 29.0221C56.8629 29.2751 58.1069 29.8707 59.1398 30.7502C60.1727 31.6297 60.9589 32.7629 61.4212 34.0383C61.6939 34.7314 62.1313 34.9756 62.688 34.7711C63.2447 34.5666 63.4663 34.0724 63.205 33.3509C62.5358 31.5677 61.3617 30.0181 59.8263 28.8912C58.2908 27.7643 56.4604 27.109 54.5586 27.0053Z" fill="#FF8F00"/>
</svg>
