<svg width="70" height="74" viewBox="0 0 70 74" fill="none" xmlns="http://www.w3.org/2000/svg">
<rect width="70" height="73.913" rx="10" fill="#DCFCE7"/>
<path d="M12 12V61.913H58" stroke="#16A34A" stroke-width="2" stroke-linecap="round"/>
<path d="M19.1464 52.8712C18.8587 53.3427 19.0077 53.958 19.4791 54.2457C19.9506 54.5334 20.5659 54.3844 20.8536 53.913L19.1464 52.8712ZM28.6667 39.1892L29.3129 38.4261L28.4215 37.6712L27.813 38.6683L28.6667 39.1892ZM36.3333 45.682L35.6871 46.4451L36.5747 47.1967L37.1847 46.2065L36.3333 45.682ZM52.3333 19.7109L42.1726 25.1966L52.0037 31.2532L52.3333 19.7109ZM20.8536 53.913L29.5203 39.7101L27.813 38.6683L19.1464 52.8712L20.8536 53.913ZM28.0204 39.9523L35.6871 46.4451L36.9796 44.9188L29.3129 38.4261L28.0204 39.9523ZM37.1847 46.2065L48.464 27.898L46.7612 26.849L35.4819 45.1574L37.1847 46.2065Z" fill="#16A34A"/>
</svg>
