<svg width="70" height="74" viewBox="0 0 70 74" fill="none" xmlns="http://www.w3.org/2000/svg">
<rect width="70" height="73.913" rx="10" fill="#FEE2E2"/>
<path d="M12 12V61.913H58" stroke="#FF1000" stroke-width="2" stroke-linecap="round"/>
<path d="M20.5356 19.1283C20.2623 18.6484 19.6518 18.4808 19.1718 18.754C18.6918 19.0272 18.5242 19.6378 18.7974 20.1178L20.5356 19.1283ZM32 41.2897L31.1309 41.7844L32.2315 43.7178L32.9469 41.6113L32 41.2897ZM35 32.4564L35.7328 31.776L34.5922 30.5476L34.0531 32.1348L35 32.4564ZM54.5 53.4564L51.9263 42.1999L43.4647 50.0571L54.5 53.4564ZM18.7974 20.1178L31.1309 41.7844L32.8691 40.795L20.5356 19.1283L18.7974 20.1178ZM32.9469 41.6113L35.9469 32.778L34.0531 32.1348L31.0531 40.9681L32.9469 41.6113ZM34.2672 33.1369L47.6431 47.5417L49.1087 46.1808L35.7328 31.776L34.2672 33.1369Z" fill="#FF1000"/>
</svg>
