<svg width="190" height="160" viewBox="0 0 190 160" fill="none" xmlns="http://www.w3.org/2000/svg">
<path d="M42.6227 90.7612H38.8399L43.8172 67.8933C44.7198 63.7187 45.41 59.663 45.8878 55.7262C46.3921 51.6308 46.6443 47.7469 46.6443 44.0743C46.6443 43.0438 46.6311 42.3172 46.6045 41.8945L50.9845 39.9129V41.0226C50.9845 42.7664 50.8253 45.5803 50.5067 49.4643C50.1882 53.4803 49.8564 56.466 49.5113 58.4212C51.1836 54.5372 53.2011 51.0231 55.5637 47.879C58.059 44.5763 60.541 42.0266 63.0097 40.2299C65.5316 38.354 67.8278 37.416 69.8983 37.416C71.9689 37.416 73.6413 38.2351 74.9155 39.8732C76.1631 41.5642 76.7869 43.7836 76.7869 46.5315C76.7869 49.9927 76.0304 53.4936 74.5173 57.0341C73.0307 60.4689 70.9734 63.7055 68.3454 66.744C65.7705 69.6768 62.9036 72.0019 59.7446 73.7193C56.5857 75.4367 53.4931 76.2954 50.4669 76.2954C49.6971 76.2954 48.8874 76.2029 48.038 76.018L50.1484 73.2041C51.4226 73.6268 52.7498 73.8382 54.1302 73.8382C56.307 73.8382 58.5235 73.0984 60.7799 71.6188C62.9832 70.1392 64.9608 68.0783 66.7129 65.4361C68.3056 63.0318 69.686 59.9668 70.854 56.2414C71.9954 52.6481 72.5662 49.4907 72.5662 46.7693C72.5662 44.5234 72.1945 42.7928 71.4513 41.5774C70.6814 40.3356 69.6196 39.7147 68.2658 39.7147C66.3545 39.7147 64.1512 40.798 61.6559 42.9646C59.1872 45.1047 56.745 48.0639 54.3293 51.8422C52.6304 54.4844 51.1969 57.3379 50.0289 60.4028C48.8874 63.4413 47.8522 66.995 46.9231 71.0639L42.6227 90.7612Z" fill="#FF8F00"/>
<path d="M63.607 104.831L65.5581 102.215C67.1243 103.853 68.8631 104.672 70.7743 104.672C72.8449 104.672 74.4907 103.866 75.7118 102.255C76.9595 100.59 77.9815 97.9479 78.7779 94.3281L80.6095 86.1242C77.716 89.5326 75.0747 91.2368 72.6856 91.2368C71.3053 91.2368 70.2302 90.8141 69.4603 89.9686C68.664 89.1231 68.2658 87.987 68.2658 86.5602C68.2658 85.609 68.3852 84.5654 68.6241 83.4292L71.3318 69.2012L75.1942 67.5763L71.3318 83.5481C71.0133 84.8428 70.854 85.8072 70.854 86.4413C70.854 87.3396 71.1327 88.0662 71.6902 88.6211C72.1945 89.2023 72.9113 89.493 73.8404 89.493C74.8226 89.493 75.9109 89.057 77.1055 88.1851C78.1939 87.3925 79.5079 86.111 81.0475 84.3408L84.4719 69.2012L88.2149 67.5763L82.4014 90.8801C81.7908 93.4694 81.1404 95.6624 80.4502 97.4591C79.8131 99.0444 79.0831 100.365 78.2602 101.422C75.6853 104.751 72.5131 106.416 68.7436 106.416C66.5403 106.416 64.8281 105.888 63.607 104.831Z" fill="#FF8F00"/>
<path d="M96.4175 69.439C96.5236 68.8313 96.5767 68.2764 96.5767 67.7744C96.5767 66.8497 96.4307 66.1231 96.1387 65.5946C95.8202 65.0662 95.422 64.802 94.9442 64.802C94.7053 64.802 94.4796 64.9209 94.2673 65.1587C94.0549 65.4493 93.9487 65.7664 93.9487 66.1099C93.9487 67.3253 94.7716 68.435 96.4175 69.439ZM91.6791 80.1397L90.9623 79.5056C93.2718 76.7314 94.7982 74.1685 95.5415 71.8169C93.3913 70.628 92.3162 68.9238 92.3162 66.7044C92.3162 65.6475 92.5683 64.7888 93.0727 64.1282C93.5771 63.4677 94.2142 63.1374 94.984 63.1374C95.7804 63.1374 96.4307 63.4941 96.9351 64.2075C97.4395 64.9473 97.6917 65.8985 97.6917 67.061C97.6917 67.8537 97.5457 68.7652 97.2537 69.7957C97.9173 69.9806 98.5677 70.0731 99.2048 70.0731C100.851 70.0731 102.204 69.5975 103.266 68.6463H105.178L104.899 69.2012C103.014 72.636 101.448 76.0576 100.2 79.466C98.9526 82.8744 98.3288 85.3976 98.3288 87.0358C98.3288 87.6435 98.488 88.1455 98.8066 88.5418C99.1251 88.9646 99.51 89.1759 99.9613 89.1759C101.05 89.1759 102.802 88.0266 105.217 85.7279L105.854 86.4413C105.191 87.1811 104.036 88.1983 102.39 89.493C101.01 90.6027 99.6959 91.1575 98.4482 91.1575C97.4395 91.1575 96.6298 90.8141 96.0193 90.1271C95.4087 89.4401 95.1035 88.5022 95.1035 87.3132C95.1035 85.3316 95.8733 82.8215 97.4129 79.783C97.8908 78.779 98.6075 77.4844 99.5631 75.8991C100.094 75.0007 101.196 73.2701 102.868 70.7072L103.266 70.1524C102.39 70.945 101.554 71.4999 100.758 71.8169C99.9613 72.1604 99.0322 72.3322 97.9704 72.3322C97.5457 72.3322 97.0413 72.2661 96.4573 72.134C95.6078 74.7497 94.0151 77.4183 91.6791 80.1397Z" fill="#FF8F00"/>
<path d="M112.703 69.2012L116.605 67.5763L113.101 80.6153C112.517 82.7026 112.225 84.42 112.225 85.7675C112.225 86.613 112.371 87.3 112.663 87.8284C112.955 88.3569 113.34 88.6211 113.818 88.6211C114.641 88.6211 115.955 87.6435 117.76 85.6883L118.397 86.2431L117.999 86.6791C116.486 88.4493 115.371 89.6383 114.654 90.246C113.938 90.8801 113.274 91.1972 112.663 91.1972C111.841 91.1972 111.15 90.7744 110.593 89.9289C110.009 89.1099 109.717 88.0794 109.717 86.8376C109.717 86.0185 109.876 84.7635 110.195 83.0725L112.703 69.2012ZM117.76 52.0404C118.45 52.0404 119.008 52.2517 119.433 52.6745C119.857 53.0972 120.07 53.6521 120.07 54.339C120.07 54.9996 119.844 55.5544 119.393 56.0036C118.941 56.4528 118.397 56.6774 117.76 56.6774C117.15 56.6774 116.605 56.4396 116.128 55.964C115.65 55.4884 115.411 54.9467 115.411 54.339C115.411 53.7049 115.637 53.1633 116.088 52.7141C116.539 52.265 117.097 52.0404 117.76 52.0404Z" fill="#FF8F00"/>
<g clip-path="url(#clip0_5375_13852)">
<path d="M139.7 46.5376C138.395 46.935 136.665 48.3401 135.193 50.1992C133.512 52.3107 132.181 55.4248 131.525 58.7764C131.309 59.8694 131.267 62.2989 131.441 63.1217C131.825 64.8834 132.057 65.6336 132.523 66.6283C133.213 68.076 134.084 69.1611 135.402 70.1866C135.859 70.5453 136.234 70.8821 136.234 70.9288C136.234 71.0282 135.443 71.2796 134.279 71.5568C132.491 71.9811 130.993 72.5843 130.062 73.246C128.956 74.036 127.667 75.2334 127.143 75.9607C126.927 76.2538 126.737 76.5072 126.71 76.5311C126.652 76.5808 125.629 78.3822 125.629 78.4389C125.629 78.4558 125.521 78.7082 125.388 78.9933C125.103 79.6098 124.887 80.2553 124.746 80.9181C124.638 81.391 124.613 81.7418 124.655 82.6709C124.68 83.3068 124.746 83.9626 124.796 84.1137C124.999 84.6681 125.336 85.3696 125.57 85.6797C125.654 85.7877 125.729 85.9023 125.795 86.0225C125.795 86.0871 126.26 86.5272 126.707 86.8949C127.489 87.5308 128.271 87.9382 129.418 88.3128C130.533 88.6716 131.344 88.7779 133.003 88.7779C134.467 88.7779 135.058 88.7212 136.356 88.4599C136.696 88.3943 137.065 88.3128 137.187 88.2969C137.545 88.2234 139.113 87.7832 139.765 87.5626C140.35 87.3756 140.921 87.1475 141.472 86.88C142.304 86.5054 145.706 84.214 146.462 83.5294C146.596 83.4072 146.721 83.3167 146.729 83.3307C146.737 83.3446 146.679 83.7132 146.587 84.1375C146.454 84.7337 146.438 84.9612 146.504 85.0914C146.555 85.1808 146.629 85.2544 146.67 85.2544C146.929 85.2544 147.519 84.9205 148.251 84.3601C148.709 84.0173 151.237 81.7428 151.703 81.2619C152.302 80.6498 153.657 79.6144 154.531 79.1166C155.221 78.7261 156.95 77.9103 157.691 77.641L159.355 77.0219C160.818 76.4754 165.826 74.8607 167.073 74.5378C167.331 74.4722 167.746 74.3669 167.986 74.3013C168.225 74.2357 168.909 74.0897 169.5 73.9754C170.091 73.8611 170.788 73.7141 171.039 73.6574C171.629 73.5263 174.485 73.5352 175.114 73.6733C176.087 73.886 176.444 74.0241 176.652 74.2695C176.911 74.5676 176.911 74.7832 176.66 75.3297C176.062 76.6583 174.29 78.3624 171.071 80.7352C168.387 82.7066 166.399 83.899 165.468 84.0978C164.329 84.3501 161.999 84.367 159.355 84.1544C157.616 84.0163 157.484 84.0083 157.484 84.0898C157.484 84.4316 160.86 85.1739 162.399 85.1739C163.047 85.1739 163.472 85.3289 163.472 85.5713C163.472 85.9688 162.124 86.2321 160.061 86.2321C158.223 86.2321 157.3 86.0771 156.194 85.5882C155.579 85.311 155.021 85.1481 154.876 85.1967C154.594 85.3021 154.419 85.9142 153.729 89.2489C153.313 91.2948 152.938 92.4445 152.348 93.5862C151.858 94.5087 151.12 95.2829 150.215 95.8256C149.309 96.3683 148.27 96.659 147.208 96.6665C146.202 96.6665 145.789 96.4141 145.587 95.6878C145.494 95.3459 145.52 94.4735 145.636 93.9677C145.761 93.4292 145.828 93.144 145.953 92.5488C146.194 91.3564 146.243 91.0891 146.285 90.5108L146.335 89.9395L146.093 90.7145C145.203 93.5842 144.521 94.9544 144.04 94.8561C143.815 94.8153 143.736 94.4238 143.789 93.465C143.831 92.6412 143.873 92.4216 144.114 91.577C144.317 90.8814 145.312 89.3025 146.093 88.4629C146.19 88.3699 146.272 88.2626 146.335 88.1449C146.41 88.0142 146.502 87.8936 146.609 87.7862C147.167 87.1582 147.956 86.2202 148.028 86.097C148.078 85.9976 148.07 85.9827 147.987 86.0324C147.771 86.1546 146.872 86.7578 146.771 86.8393C146.713 86.8879 146.321 87.2228 145.898 87.5815C145.429 87.9736 144.987 88.3958 144.575 88.8454C144.001 89.4814 143.335 90.3946 143.335 90.5347C143.322 90.6072 143.28 90.6718 143.219 90.7145C143.153 90.7712 142.978 91.1875 142.82 91.6436C142.562 92.4385 142.546 92.5379 142.554 93.6577C142.562 95.0111 142.687 95.6142 143.128 96.3893C143.585 97.1961 144.067 97.5469 145.406 98.0527C145.989 98.2723 146.181 98.305 146.887 98.305C148.517 98.305 150.273 97.7426 151.537 96.8215C151.886 96.5602 152.468 95.8587 152.967 95.0846C153.299 94.5629 154.065 92.9483 154.256 92.3531C154.847 90.5188 154.938 90.0617 155.246 87.192C155.33 86.3852 155.362 86.2381 155.479 86.2868C157.292 87.0211 158.805 87.2486 161.101 87.1264C162.339 87.0769 163.565 86.8743 164.75 86.5233C166.372 86.0672 168.144 85.2107 169.866 84.0451C171.197 83.1508 171.504 82.9272 171.787 82.6997C172.053 82.4632 172.261 82.3082 172.993 81.7537C173.974 81.0115 176.428 78.6635 177.227 77.7175C177.459 77.4482 177.659 77.2117 177.684 77.1879C177.988 76.8898 179.239 75.2304 179.563 74.7037C179.938 74.0837 180.021 73.8641 180.07 73.3255C180.104 72.8933 180.086 72.788 179.912 72.5435C179.455 71.8907 178.806 71.7029 176.518 71.5976C174.914 71.524 172.934 71.7118 170.943 72.1441C169.079 72.5415 167.957 72.9022 164.955 74.0678C162.501 75.0217 162.11 75.1688 160.671 75.6825C160.213 75.8338 159.763 76.0079 159.323 76.2042C158.941 76.392 158.675 76.4238 158.591 76.2936C158.542 76.2121 158.642 76.1058 159.499 75.3397C159.964 74.9243 160.213 74.5328 160.213 74.2228C160.213 74.0241 160.422 73.7826 161.445 72.7959C162.934 71.3531 163.848 70.1786 165.753 67.2841C166.131 66.7074 166.473 66.1084 166.776 65.4906C166.86 65.3107 167.009 65.0017 167.101 64.795C167.558 63.8411 167.882 62.1121 167.691 61.656C167.625 61.4851 167.582 61.4573 167.558 61.5338C167.425 61.9174 166.718 63.6702 166.352 64.5098C165.529 66.4345 164.738 67.9022 164.032 68.8481C163.707 69.2794 162.476 70.8126 162.376 70.911C162.351 70.9348 162.174 71.1226 161.985 71.3342C161.796 71.5459 161.619 71.685 161.595 71.6602C161.57 71.6353 161.544 71.6602 161.544 71.7178C161.544 71.7754 161.341 71.995 161.112 72.2236C160.264 73.0185 159.795 73.2093 159.795 72.7532C159.795 72.5545 160.227 71.2697 160.419 70.911C161.442 69.0111 161.924 67.8853 162.565 65.896C163.321 63.5887 163.438 63.1893 163.588 62.4549C163.728 61.7594 163.728 61.6729 163.596 60.9466C163.521 60.5312 163.388 59.9688 163.305 59.6995L163.175 59.2057L163.067 59.9797C163.009 60.404 162.934 60.9585 162.892 61.2029C162.851 61.4474 162.776 61.9283 162.726 62.2632C162.352 64.6479 161.915 66.2577 161.262 67.7014C161.195 67.8475 161.096 68.0929 161.029 68.2311C160.962 68.3692 160.821 68.704 160.705 68.9485C160.588 69.1929 160.401 69.6172 160.289 69.8865C160.178 70.1558 159.965 70.6119 159.832 70.906C159.358 71.9086 159.283 72.0874 159.191 72.4054C159.083 72.7969 158.834 72.9847 158.201 73.1477C157.428 73.3355 157.086 73.5451 156.239 74.346C155.806 74.7544 154.625 75.8623 153.619 76.8083C151.332 78.9695 149.976 80.1867 149.469 80.5186C149.392 80.5696 149.319 80.6268 149.252 80.6895C149.228 80.7144 148.894 80.926 148.504 81.1545C144.661 83.4131 140.635 85.1411 137.691 85.8178C136.044 86.1934 135.928 86.2152 134.697 86.3643C133.357 86.5272 131.262 86.4865 130.541 86.2828C128.57 85.7363 127.514 84.4893 127.189 82.3529C126.973 80.9101 129.078 78.2024 131.123 77.3061C131.355 77.2135 131.577 77.1015 131.789 76.9713C131.909 76.8928 132.034 76.8221 132.163 76.7596C132.304 76.694 132.62 76.5231 132.873 76.3929L133.921 75.8136C134.253 75.6427 135.002 75.2999 135.584 75.0634C136.166 74.8269 136.699 74.5994 136.741 74.5497C136.798 74.4931 136.774 74.4851 136.674 74.5179C136.508 74.5825 135.376 74.8766 133.954 75.2353C132.441 75.6179 130.819 75.9607 130.508 75.9607C130.283 75.9607 130.217 75.9279 130.217 75.8136C130.217 75.447 131.348 74.2973 132.13 73.8651C132.476 73.683 132.838 73.5304 133.211 73.409C133.552 73.2947 134.151 73.0821 134.541 72.936C136.621 72.1689 138.596 71.5578 138.884 71.5737L139.2 71.6065L138.168 70.6198C136.749 69.2744 136.105 68.4755 135.373 67.1301C134.974 66.3968 134.541 65.1 134.408 64.2604C134.375 64.0319 134.342 63.8123 134.333 63.7715C134.051 62.5156 134.029 59.8496 134.284 58.4306C134.641 56.4662 135.107 55.4715 136.615 53.4624C137.454 52.3375 138.095 51.9053 138.736 52.0196C139.101 52.0842 139.709 52.4021 140.282 52.8264C140.532 53.0142 140.773 53.1931 140.824 53.2239C141.405 53.6392 142.612 54.61 143.002 54.9767C143.094 55.0681 143.196 55.15 143.306 55.2211C143.477 55.3394 143.638 55.4703 143.788 55.6126C144.653 56.3956 145.436 57.0475 145.436 57.0037C145.436 56.96 144.038 54.8594 143.938 54.7621C143.834 54.6312 143.736 54.4948 143.647 54.3537C143.506 54.1549 143.342 53.9304 143.273 53.8568C143.18 53.7582 143.097 53.6518 143.023 53.5389C142.961 53.4418 142.891 53.3492 142.815 53.2616C142.774 53.2129 142.582 52.9844 142.4 52.7648C142.217 52.5452 141.69 51.9907 141.227 51.5337C140.561 50.8818 140.369 50.6453 140.328 50.4088C140.12 49.3079 141.476 49.1698 142.89 50.1475C143.522 50.5798 145.036 51.8685 145.651 52.4876C146.741 53.5965 148.313 55.4805 148.804 56.2635C148.895 56.4105 149.069 56.655 149.186 56.81C149.66 57.4221 151.074 59.8595 152.024 61.6938C153.489 64.5317 154.694 67.7273 155.127 69.9044C155.26 70.5811 155.501 72.1222 155.509 72.3339L155.518 72.5793L155.601 72.3259C155.676 72.0894 155.518 69.5437 155.376 68.6245C155.01 66.3391 154.345 64.1153 153.297 61.6938C152.64 60.1854 150.794 57.0544 149.006 54.4133C148.64 53.8747 148.349 53.4345 148.349 53.4196C148.349 53.4047 148.14 53.1017 147.891 52.7509C147.641 52.4001 147.376 52.0414 147.309 51.956C147.125 51.6946 146.045 50.2668 145.837 50.0074C145.163 49.2104 144.444 48.4501 143.685 47.73C142.304 46.47 141.114 46.1113 139.7 46.5376Z" fill="url(#paint0_linear_5375_13852)"/>
</g>
<path d="M141.957 1.04896C141.202 0.70799 140.314 1.04363 139.973 1.79864C139.632 2.55364 139.967 3.4421 140.723 3.78307L141.957 1.04896ZM0.362729 103.177C4.2403 125.15 22.9169 141.84 46.6082 151.064C70.3356 160.302 99.4343 162.207 124.784 154.349L123.896 151.483C99.2455 159.125 70.8442 157.28 47.6966 148.268C24.5129 139.242 6.9395 123.182 3.31708 102.655L0.362729 103.177ZM124.784 154.349C168.162 140.902 188.367 109.753 189.694 78.2766C191.016 46.887 173.542 15.3131 141.957 1.04896L140.723 3.78307C171.138 17.5189 187.97 47.9249 186.696 78.1503C185.426 108.289 166.132 138.39 123.896 151.483L124.784 154.349Z" fill="url(#paint1_linear_5375_13852)"/>
<defs>
<linearGradient id="paint0_linear_5375_13852" x1="152.36" y1="50.4986" x2="152.36" y2="115.911" gradientUnits="userSpaceOnUse">
<stop stop-color="#FF8F00"/>
<stop offset="1" stop-color="#FF1100"/>
</linearGradient>
<linearGradient id="paint1_linear_5375_13852" x1="191.34" y1="-6.58398" x2="12.8399" y2="124.416" gradientUnits="userSpaceOnUse">
<stop stop-color="#FF8F00"/>
<stop offset="1" stop-color="#FF8F00" stop-opacity="0"/>
</linearGradient>
<clipPath id="clip0_5375_13852">
<rect width="67.7702" height="68.5593" fill="white" transform="translate(120.07 37.6367)"/>
</clipPath>
</defs>
</svg>
