<svg width="44" height="45" viewBox="0 0 44 45" fill="none" xmlns="http://www.w3.org/2000/svg">
<g clip-path="url(#clip0_5375_13864)">
<g clip-path="url(#clip1_5375_13864)">
<path d="M0.733377 16.8821C0.718529 16.945 0.703682 17.0041 0.689453 17.0658C0.705538 17.0048 0.717911 16.9431 0.733377 16.8821Z" fill="url(#paint0_linear_5375_13864)"/>
<path d="M17.1329 5.51075C16.2886 5.76899 15.1697 6.68187 14.2179 7.8898C13.131 9.26171 12.2704 11.285 11.8456 13.4627C11.706 14.1728 11.6791 15.7513 11.7919 16.2859C12.0396 17.4305 12.1897 17.918 12.4913 18.5642C12.9377 19.5049 13.5007 20.2099 14.3529 20.8761C14.6485 21.1092 14.8911 21.3281 14.8911 21.3584C14.8911 21.423 14.3798 21.5863 13.6266 21.7664C12.4703 22.0421 11.5021 22.434 10.8997 22.864C10.1846 23.3772 9.35077 24.1552 9.01188 24.6277C8.87226 24.8182 8.74968 24.9828 8.73198 24.9983C8.69462 25.0306 8.03322 26.2011 8.03322 26.2379C8.03322 26.2489 7.96308 26.4128 7.87721 26.5981C7.69254 26.9987 7.55339 27.418 7.46228 27.8487C7.39214 28.156 7.37575 28.3839 7.40328 28.9875C7.41901 29.4007 7.46228 29.8268 7.4944 29.9249C7.6255 30.2852 7.84378 30.741 7.99454 30.9424C8.04916 31.0126 8.09783 31.0871 8.14006 31.1651C8.14006 31.2071 8.44094 31.4931 8.73001 31.732C9.23606 32.1452 9.74145 32.4099 10.4835 32.6533C11.2045 32.8863 11.7289 32.9554 12.802 32.9554C13.7485 32.9554 14.1307 32.9186 14.9697 32.7488C15.19 32.7062 15.4286 32.6533 15.5072 32.6429C15.7386 32.5952 16.7527 32.3092 17.1748 32.1658C17.5531 32.0443 17.9221 31.8961 18.2787 31.7223C18.8169 31.4789 21.0167 29.9901 21.5057 29.5453C21.5923 29.4659 21.6729 29.4072 21.6781 29.4162C21.6834 29.4252 21.646 29.6648 21.5864 29.9404C21.5005 30.3278 21.49 30.4756 21.5326 30.5602C21.5654 30.6183 21.6132 30.6661 21.6401 30.6661C21.8073 30.6661 22.1888 30.4492 22.6627 30.085C22.9583 29.8623 24.5931 28.3845 24.8947 28.0721C25.2821 27.6744 26.1585 27.0016 26.7235 26.6782C27.1699 26.4245 28.2882 25.8944 28.7674 25.7195L29.843 25.3173C30.7896 24.9622 34.0278 23.9131 34.8347 23.7032C35.0012 23.6606 35.2699 23.5922 35.4246 23.5496C35.5793 23.507 36.0218 23.4121 36.4039 23.3378C36.7861 23.2636 37.2371 23.168 37.399 23.1312C37.7805 23.046 39.6277 23.0518 40.0341 23.1416C40.6634 23.2797 40.8948 23.3695 41.0292 23.5289C41.1963 23.7226 41.1963 23.8627 41.0344 24.2178C40.6477 25.081 39.5018 26.1882 37.42 27.7299C35.6842 29.0108 34.3988 29.7855 33.7964 29.9146C33.0596 30.0786 31.5532 30.0896 29.843 29.9514C28.7189 29.8617 28.633 29.8565 28.633 29.9094C28.633 30.1315 30.8165 30.6138 31.8115 30.6138C32.231 30.6138 32.5057 30.7145 32.5057 30.872C32.5057 31.1303 31.6339 31.3014 30.2999 31.3014C29.1115 31.3014 28.5143 31.2007 27.7992 30.883C27.4013 30.7029 27.0408 30.597 26.947 30.6286C26.7642 30.6971 26.6514 31.0948 26.205 33.2614C25.9363 34.5907 25.6937 35.3377 25.3122 36.0795C24.9949 36.6789 24.5178 37.1819 23.9322 37.5345C23.3466 37.8871 22.6745 38.076 21.9882 38.0809C21.3373 38.0809 21.0705 37.9169 20.9394 37.4449C20.8797 37.2229 20.8961 36.656 20.9715 36.3274C21.0521 35.9775 21.0954 35.7922 21.176 35.4055C21.332 34.6307 21.3641 34.4571 21.391 34.0813L21.4231 33.7101L21.2671 34.2137C20.6916 36.0782 20.2504 36.9685 19.9391 36.9046C19.7936 36.8781 19.7424 36.6237 19.7772 36.0007C19.804 35.4655 19.8309 35.3228 19.9869 34.7741C20.118 34.3222 20.7617 33.2963 21.2671 32.7507C21.3297 32.6903 21.3824 32.6206 21.4231 32.5442C21.4718 32.4592 21.5315 32.3808 21.6008 32.3111C21.9613 31.9031 22.4719 31.2936 22.5185 31.2136C22.5506 31.149 22.5454 31.1393 22.4916 31.1716C22.352 31.251 21.7705 31.6429 21.705 31.6958C21.6676 31.7275 21.4146 31.945 21.1406 32.1781C20.8373 32.4328 20.5515 32.7072 20.2852 32.9993C19.9142 33.4125 19.4835 34.0058 19.4835 34.0968C19.4748 34.144 19.4478 34.1859 19.4081 34.2137C19.3655 34.2505 19.2521 34.521 19.1505 34.8173C18.9834 35.3338 18.9729 35.3984 18.9781 36.126C18.9834 37.0053 19.064 37.3972 19.3491 37.9007C19.6448 38.425 19.9568 38.6529 20.8227 38.9815C21.1996 39.1242 21.3235 39.1455 21.7804 39.1455C22.8344 39.1455 23.9698 38.78 24.7872 38.1816C25.0133 38.0118 25.3896 37.556 25.7121 37.0531C25.9271 36.7141 26.422 35.665 26.5459 35.2783C26.928 34.0865 26.987 33.7895 27.1863 31.925C27.24 31.4008 27.261 31.3052 27.3364 31.3369C28.5091 31.814 29.4878 31.9618 30.9725 31.8824C31.7727 31.8503 32.5656 31.7186 33.3323 31.4905C34.3811 31.1942 35.5269 30.6377 36.6406 29.8804C37.5013 29.2993 37.6999 29.1541 37.8828 29.0062C38.0552 28.8526 38.1895 28.7519 38.6628 28.3916C39.2973 27.9094 40.8843 26.3838 41.4008 25.7692C41.5509 25.5942 41.6801 25.4406 41.6965 25.4251C41.8931 25.2314 42.702 24.1532 42.9118 23.8111C43.1543 23.4082 43.208 23.2655 43.2395 22.9156C43.2611 22.6348 43.25 22.5663 43.1373 22.4075C42.8416 21.9834 42.4221 21.8613 40.9426 21.7929C39.905 21.7451 38.6248 21.8671 37.3374 22.148C36.1319 22.4062 35.4063 22.6406 33.4647 23.3979C31.8777 24.0177 31.6247 24.1132 30.6945 24.447C30.3983 24.5453 30.1073 24.6584 29.8227 24.7859C29.5756 24.9079 29.4032 24.9286 29.3494 24.844C29.3173 24.7911 29.3822 24.722 29.9361 24.2242C30.237 23.9544 30.3982 23.7 30.3982 23.4986C30.3982 23.3695 30.5333 23.2126 31.1947 22.5715C32.1576 21.6341 32.7489 20.871 33.9806 18.9903C34.2253 18.6156 34.4464 18.2264 34.6426 17.825C34.6964 17.7082 34.7927 17.5074 34.8524 17.3731C35.148 16.7533 35.3578 15.63 35.2339 15.3336C35.1913 15.2226 35.1637 15.2045 35.148 15.2542C35.0621 15.5034 34.6046 16.6423 34.368 17.1878C33.8357 18.4383 33.3244 19.3919 32.8675 20.0065C32.6578 20.2867 31.8613 21.2829 31.7971 21.3468C31.7807 21.3623 31.666 21.4843 31.5441 21.6218C31.4221 21.7593 31.3074 21.8497 31.2917 21.8336C31.276 21.8174 31.2589 21.8336 31.2589 21.871C31.2589 21.9085 31.1278 22.0511 30.9797 22.1996C30.431 22.7161 30.1275 22.8401 30.1275 22.5437C30.1275 22.4146 30.4074 21.5798 30.5313 21.3468C31.1927 20.1124 31.5047 19.3809 31.919 18.0884C32.408 16.5893 32.4834 16.3298 32.5804 15.8527C32.6715 15.4008 32.6715 15.3446 32.5857 14.8727C32.5371 14.6028 32.4513 14.2374 32.3975 14.0624L32.3136 13.7416L32.2435 14.2445C32.2061 14.5202 32.1576 14.8804 32.1307 15.0392C32.1039 15.198 32.0554 15.5105 32.0232 15.7281C31.7814 17.2775 31.4988 18.3234 31.0767 19.2615C31.0334 19.3564 30.9692 19.5159 30.9259 19.6056C30.8827 19.6953 30.7915 19.9129 30.7162 20.0717C30.6408 20.2305 30.5195 20.5062 30.4474 20.6812C30.3753 20.8561 30.2377 21.1525 30.1518 21.3436C29.845 21.995 29.7965 22.1112 29.7375 22.3178C29.6674 22.5721 29.5061 22.6942 29.0971 22.8C28.5969 22.9221 28.376 23.0583 27.828 23.5786C27.5481 23.844 26.7845 24.5638 26.1336 25.1785C24.6548 26.5826 23.7777 27.3735 23.4499 27.5891C23.4001 27.6223 23.3532 27.6594 23.3097 27.7002C23.2939 27.7163 23.0783 27.8538 22.8259 28.0023C20.3409 29.4698 17.7373 30.5925 15.8337 31.0321C14.7685 31.2762 14.6931 31.2904 13.8973 31.3872C13.0308 31.4931 11.6758 31.4666 11.2098 31.3343C9.93482 30.9792 9.25179 30.169 9.04203 28.7809C8.90241 27.8435 10.2632 26.0842 11.586 25.5019C11.7357 25.4417 11.8798 25.3689 12.0167 25.2843C12.0942 25.2334 12.175 25.1874 12.2586 25.1468C12.3497 25.1042 12.5542 24.9932 12.7174 24.9086L13.3952 24.5322C13.6102 24.4212 14.0946 24.1984 14.4709 24.0448C14.8471 23.8911 15.1919 23.7433 15.2188 23.711C15.2562 23.6742 15.2404 23.669 15.1756 23.6903C15.0681 23.7323 14.3365 23.9234 13.4168 24.1565C12.4382 24.405 11.3894 24.6277 11.1881 24.6277C11.0426 24.6277 11 24.6064 11 24.5322C11 24.294 11.7316 23.547 12.2369 23.2662C12.4611 23.1479 12.6951 23.0487 12.9364 22.9698C13.1566 22.8956 13.544 22.7574 13.7964 22.6625C15.1415 22.1641 16.4184 21.7671 16.6045 21.7774L16.8091 21.7987L16.1418 21.1576C15.2241 20.2835 14.8078 19.7644 14.3345 18.8903C14.0763 18.4138 13.7964 17.5713 13.7105 17.0258C13.6889 16.8773 13.6679 16.7346 13.662 16.7081C13.4791 15.8921 13.4654 14.1599 13.6299 13.238C13.8613 11.9616 14.1621 11.3154 15.1375 10.01C15.6803 9.27914 16.0946 8.9983 16.5088 9.07255C16.7455 9.11451 17.1381 9.32111 17.5091 9.59678C17.6704 9.7188 17.8264 9.83501 17.8592 9.85502C18.2354 10.1249 19.0155 10.7556 19.2678 10.9939C19.3277 11.0533 19.3936 11.1065 19.4645 11.1527C19.5749 11.2295 19.6792 11.3146 19.7765 11.4071C20.3357 11.9158 20.8417 12.3393 20.8417 12.3109C20.8417 12.2825 19.9378 10.9177 19.8735 10.8544C19.8058 10.7694 19.7428 10.6808 19.6847 10.5891C19.5936 10.46 19.4881 10.314 19.4429 10.2663C19.3831 10.2022 19.3291 10.1331 19.2816 10.0597C19.2411 9.99663 19.1962 9.93645 19.1472 9.87955C19.1204 9.84792 18.9965 9.69943 18.8785 9.55675C18.7605 9.41407 18.4196 9.05383 18.1201 8.75685C17.6894 8.33333 17.5655 8.17968 17.5386 8.02602C17.4043 7.31069 18.2813 7.22095 19.1957 7.85623C19.6041 8.13707 20.5834 8.97442 20.9813 9.37663C21.686 10.0971 22.7027 11.3212 23.0199 11.8299C23.0789 11.9255 23.1917 12.0843 23.2671 12.185C23.5738 12.5827 24.4883 14.1664 25.1025 15.3582C26.0497 17.202 26.829 19.2783 27.1089 20.6928C27.1948 21.1324 27.3508 22.1338 27.3561 22.2713L27.362 22.4308L27.4157 22.2661C27.4642 22.1125 27.362 20.4584 27.2702 19.8612C27.0336 18.3764 26.6036 16.9315 25.9258 15.3582C25.501 14.3781 24.3067 12.3438 23.1504 10.6278C22.9137 10.2779 22.7256 9.99189 22.7256 9.98221C22.7256 9.97252 22.5906 9.77561 22.4293 9.54771C22.2681 9.31982 22.0963 9.08675 22.0531 9.03123C21.9344 8.86144 21.2357 7.9337 21.1013 7.7652C20.6652 7.24733 20.2006 6.75335 19.7097 6.28547C18.8169 5.46685 18.0473 5.23378 17.1329 5.51075Z" fill="url(#paint1_linear_5375_13864)"/>
</g>
</g>
<defs>
<linearGradient id="paint0_linear_5375_13864" x1="1.11727" y1="66.4484" x2="1.14845" y2="66.4484" gradientUnits="userSpaceOnUse">
<stop stop-color="#FF8F00"/>
<stop offset="0.99" stop-color="#FFE600"/>
</linearGradient>
<linearGradient id="paint1_linear_5375_13864" x1="25.3196" y1="8.08435" x2="25.3196" y2="50.5844" gradientUnits="userSpaceOnUse">
<stop stop-color="#FF8F00"/>
<stop offset="1" stop-color="#FF1100"/>
</linearGradient>
<clipPath id="clip0_5375_13864">
<rect width="43.8263" height="44.5448" fill="white" transform="translate(0.0859375)"/>
</clipPath>
<clipPath id="clip1_5375_13864">
<rect width="43.8263" height="44.5448" fill="white" transform="translate(0.0859375)"/>
</clipPath>
</defs>
</svg>
