<svg width="134" height="56" viewBox="0 0 134 56" fill="none" xmlns="http://www.w3.org/2000/svg">
<path d="M3.62268 43.2947H0.5L4.60879 24.7352C5.35385 21.3471 5.9236 18.0555 6.31805 14.8604C6.7344 11.5367 6.94258 8.38445 6.94258 5.40379C6.94258 4.56749 6.93162 3.97779 6.90971 3.63469L10.5254 2.02642V2.92705C10.5254 4.34233 10.394 6.62608 10.131 9.77829C9.86804 13.0377 9.59412 15.4608 9.30924 17.0477C10.6898 13.8955 12.3552 11.0435 14.3055 8.49167C16.3654 5.81122 18.4143 3.74191 20.4523 2.28375C22.5341 0.761248 24.4296 0 26.1388 0C27.8481 0 29.2287 0.664752 30.2805 1.99426C31.3104 3.36665 31.8254 5.16791 31.8254 7.39805C31.8254 10.2072 31.2009 13.0484 29.9518 15.9219C28.7246 18.7096 27.0263 21.3364 24.8569 23.8024C22.7313 26.1827 20.3646 28.0697 17.7569 29.4635C15.1492 30.8574 12.5963 31.5543 10.0981 31.5543C9.46264 31.5543 8.79428 31.4792 8.09304 31.3291L9.83517 29.0454C10.887 29.3885 11.9827 29.56 13.1222 29.56C14.9191 29.56 16.7489 28.9596 18.6115 27.7588C20.4304 26.5579 22.0629 24.8853 23.5092 22.741C24.824 20.7896 25.9635 18.3021 26.9277 15.2786C27.87 12.3622 28.3412 9.79973 28.3412 7.59104C28.3412 5.76833 28.0344 4.36378 27.4208 3.37737C26.7853 2.36952 25.9088 1.86559 24.7912 1.86559C23.2134 1.86559 21.3946 2.74478 19.3347 4.50316C17.2967 6.24009 15.2807 8.64178 13.2866 11.7082C11.8841 13.8526 10.7008 16.1685 9.73656 18.6559C8.79428 21.122 7.93965 24.0061 7.17267 27.3084L3.62268 43.2947Z" fill="#FF8F00"/>
<path d="M20.9453 54.7134L22.556 52.5905C23.8489 53.92 25.2842 54.5847 26.862 54.5847C28.5712 54.5847 29.9299 53.9307 30.9379 52.6226C31.9678 51.2717 32.8115 49.1273 33.4689 46.1895L34.981 39.5313C32.5924 42.2975 30.412 43.6806 28.4398 43.6806C27.3003 43.6806 26.4128 43.3375 25.7773 42.6514C25.1199 41.9652 24.7912 41.0431 24.7912 39.8851C24.7912 39.1132 24.8898 38.2661 25.087 37.3441L27.3222 25.7967L30.5106 24.4779L27.3222 37.4406C27.0592 38.4913 26.9277 39.274 26.9277 39.7886C26.9277 40.5177 27.1578 41.1074 27.618 41.5577C28.0344 42.0295 28.626 42.2654 29.393 42.2654C30.2038 42.2654 31.1023 41.9115 32.0884 41.2039C32.9868 40.5606 34.0715 39.5206 35.3425 38.0839L38.1694 25.7967L41.2592 24.4779L36.4601 43.3912C35.9561 45.4926 35.4192 47.2724 34.8495 48.7306C34.3236 50.0172 33.7209 51.0894 33.0416 51.9472C30.916 54.6491 28.2973 56 25.1856 56C23.3668 56 21.9534 55.5711 20.9453 54.7134Z" fill="#FF8F00"/>
<path d="M48.0305 25.9897C48.1181 25.4965 48.162 25.0461 48.162 24.6387C48.162 23.8882 48.0414 23.2985 47.8004 22.8696C47.5374 22.4407 47.2087 22.2263 46.8143 22.2263C46.617 22.2263 46.4308 22.3228 46.2555 22.5158C46.0802 22.7517 45.9925 23.009 45.9925 23.2878C45.9925 24.2742 46.6718 25.1748 48.0305 25.9897ZM44.1189 34.6743L43.5272 34.1597C45.4337 31.9081 46.6937 29.8281 47.3073 27.9196C45.5323 26.9546 44.6448 25.5715 44.6448 23.7702C44.6448 22.9125 44.853 22.2156 45.2694 21.6795C45.6857 21.1434 46.2116 20.8754 46.8471 20.8754C47.5045 20.8754 48.0414 21.1648 48.4578 21.7438C48.8741 22.3442 49.0823 23.1162 49.0823 24.0597C49.0823 24.703 48.9618 25.4429 48.7207 26.2792C49.2686 26.4293 49.8055 26.5043 50.3314 26.5043C51.69 26.5043 52.8076 26.1183 53.6842 25.3464H55.2619L55.0318 25.7967C53.476 28.5843 52.1831 31.3613 51.1531 34.1275C50.1232 36.8937 49.6082 38.9416 49.6082 40.2711C49.6082 40.7643 49.7397 41.1717 50.0027 41.4934C50.2657 41.8365 50.5834 42.008 50.9559 42.008C51.8544 42.008 53.3007 41.0752 55.2948 39.2097L55.8207 39.7886C55.2729 40.389 54.3197 41.2146 52.961 42.2654C51.8215 43.166 50.7368 43.6163 49.7069 43.6163C48.8741 43.6163 48.2058 43.3375 47.7018 42.78C47.1978 42.2225 46.9458 41.4612 46.9458 40.4963C46.9458 38.888 47.5812 36.8509 48.8522 34.3848C49.2467 33.57 49.8383 32.5192 50.6272 31.2326C51.0655 30.5035 51.9749 29.099 53.3555 27.019L53.6842 26.5686C52.961 27.2119 52.2707 27.6623 51.6133 27.9196C50.9559 28.1984 50.189 28.3377 49.3124 28.3377C48.9618 28.3377 48.5454 28.2841 48.0633 28.1769C47.3621 30.2998 46.0473 32.4656 44.1189 34.6743Z" fill="#FF8F00"/>
<path d="M61.4744 25.7967L64.6957 24.4779L61.8031 35.0603C61.321 36.7544 61.08 38.1482 61.08 39.2418C61.08 39.928 61.2005 40.4855 61.4416 40.9144C61.6826 41.3433 62.0004 41.5577 62.3948 41.5577C63.0741 41.5577 64.1588 40.7643 65.649 39.1775L66.1749 39.6278L65.8462 39.9816C64.5971 41.4183 63.6767 42.3833 63.0851 42.8765C62.4934 43.3912 61.9456 43.6485 61.4416 43.6485C60.7622 43.6485 60.1925 43.3054 59.7323 42.6192C59.2502 41.9544 59.0092 41.1181 59.0092 40.1103C59.0092 39.4455 59.1406 38.427 59.4036 37.0546L61.4744 25.7967ZM65.649 11.869C66.2187 11.869 66.6789 12.0406 67.0295 12.3837C67.3801 12.7268 67.5554 13.1771 67.5554 13.7346C67.5554 14.2707 67.3692 14.721 66.9966 15.0856C66.6241 15.4501 66.1749 15.6324 65.649 15.6324C65.1449 15.6324 64.6957 15.4394 64.3013 15.0534C63.9068 14.6674 63.7096 14.2278 63.7096 13.7346C63.7096 13.22 63.8959 12.7804 64.2684 12.4159C64.6409 12.0513 65.1011 11.869 65.649 11.869Z" fill="#FF8F00"/>
<g clip-path="url(#clip0_5375_13825)">
<g clip-path="url(#clip1_5375_13825)">
<path d="M93.7608 7.22391C92.683 7.54649 91.2547 8.6868 90.0397 10.1957C88.6524 11.9094 87.5537 14.4368 87.0115 17.1569C86.8333 18.044 86.799 20.0157 86.9429 20.6835C87.2592 22.1133 87.4508 22.7222 87.8357 23.5294C88.4055 24.7044 89.1243 25.5851 90.2121 26.4173C90.5895 26.7084 90.8991 26.9818 90.8991 27.0197C90.8991 27.1004 90.2464 27.3044 89.285 27.5294C87.8089 27.8737 86.5731 28.3633 85.8041 28.9004C84.8912 29.5415 83.8268 30.5132 83.3942 31.1036C83.216 31.3415 83.0595 31.5471 83.037 31.5665C82.9893 31.6068 82.145 33.0689 82.145 33.1148C82.145 33.1285 82.0554 33.3334 81.9458 33.5648C81.7101 34.0651 81.5325 34.589 81.4162 35.1269C81.3266 35.5108 81.3057 35.7955 81.3409 36.5495C81.3609 37.0656 81.4162 37.5979 81.4572 37.7204C81.6245 38.1704 81.9032 38.7398 82.0956 38.9914C82.1653 39.0791 82.2275 39.1721 82.2814 39.2696C82.2814 39.322 82.6654 39.6793 83.0344 39.9777C83.6804 40.4938 84.3256 40.8245 85.2728 41.1285C86.1932 41.4196 86.8626 41.5059 88.2323 41.5059C89.4406 41.5059 89.9284 41.4599 90.9995 41.2478C91.2806 41.1946 91.5852 41.1285 91.6856 41.1156C91.981 41.0559 93.2754 40.6986 93.8143 40.5196C94.2972 40.3678 94.7681 40.1827 95.2234 39.9656C95.9104 39.6616 98.7185 37.8019 99.3427 37.2463C99.4532 37.1471 99.5561 37.0737 99.5628 37.085C99.5695 37.0963 99.5218 37.3954 99.4456 37.7398C99.336 38.2237 99.3226 38.4083 99.377 38.514C99.4189 38.5866 99.4799 38.6462 99.5143 38.6462C99.7276 38.6462 100.215 38.3753 100.82 37.9204C101.197 37.6422 103.284 35.7963 103.669 35.4059C104.163 34.9092 105.282 34.0689 106.003 33.6648C106.573 33.3479 108.001 32.6858 108.612 32.4673L109.985 31.9648C111.194 31.5213 115.327 30.2108 116.357 29.9487C116.57 29.8955 116.913 29.81 117.11 29.7568C117.308 29.7036 117.873 29.585 118.36 29.4923C118.848 29.3995 119.424 29.2802 119.631 29.2342C120.118 29.1278 122.476 29.135 122.994 29.2471C123.798 29.4197 124.093 29.5318 124.265 29.731C124.478 29.9729 124.478 30.1479 124.271 30.5915C123.778 31.6697 122.315 33.0527 119.657 34.9785C117.442 36.5785 115.801 37.5463 115.032 37.7075C114.091 37.9124 112.168 37.9261 109.985 37.7535C108.55 37.6414 108.441 37.635 108.441 37.7011C108.441 37.9785 111.228 38.5809 112.498 38.5809C113.034 38.5809 113.384 38.7067 113.384 38.9035C113.384 39.2261 112.271 39.4398 110.569 39.4398C109.052 39.4398 108.289 39.314 107.376 38.9172C106.868 38.6922 106.408 38.56 106.289 38.5995C106.055 38.685 105.911 39.1817 105.341 41.8882C104.998 43.5486 104.689 44.4817 104.202 45.4083C103.797 46.157 103.188 46.7854 102.44 47.2258C101.693 47.6662 100.835 47.9022 99.9586 47.9083C99.1277 47.9083 98.7871 47.7034 98.6198 47.1139C98.5436 46.8365 98.5645 46.1284 98.6608 45.718C98.7637 45.2809 98.8189 45.0494 98.9218 44.5664C99.121 43.5986 99.162 43.3817 99.1963 42.9123L99.2373 42.4486L99.0381 43.0777C98.3035 45.4067 97.7403 46.5188 97.3429 46.4389C97.1571 46.4059 97.0919 46.0881 97.1362 45.3099C97.1705 44.6414 97.2048 44.4631 97.404 43.7777C97.5713 43.2131 98.393 41.9317 99.0381 41.2503C99.1181 41.1748 99.1853 41.0877 99.2373 40.9922C99.2994 40.8861 99.3757 40.7882 99.464 40.7011C99.9243 40.1914 100.576 39.4301 100.635 39.3301C100.677 39.2495 100.67 39.2374 100.601 39.2777C100.423 39.3769 99.6808 39.8664 99.5971 39.9325C99.5494 39.972 99.2264 40.2438 98.8766 40.5349C98.4894 40.8531 98.1246 41.1958 97.7847 41.5607C97.3111 42.0769 96.7613 42.818 96.7613 42.9317C96.7503 42.9906 96.7158 43.043 96.6651 43.0777C96.6107 43.1236 96.466 43.4615 96.3363 43.8317C96.1229 44.4768 96.1095 44.5575 96.1162 45.4664C96.1229 46.5647 96.2258 47.0542 96.5898 47.6833C96.9672 48.3381 97.3655 48.6228 98.4708 49.0333C98.952 49.2115 99.1101 49.2381 99.6933 49.2381C101.039 49.2381 102.488 48.7817 103.531 48.0341C103.82 47.822 104.3 47.2526 104.712 46.6244C104.987 46.201 105.618 44.8906 105.776 44.4075C106.264 42.9188 106.34 42.5478 106.594 40.2188C106.663 39.564 106.689 39.4446 106.786 39.4841C108.283 40.0801 109.532 40.2648 111.427 40.1656C112.449 40.1254 113.461 39.961 114.439 39.6761C115.778 39.3059 117.241 38.6108 118.662 37.6648C119.761 36.939 120.015 36.7575 120.248 36.5729C120.468 36.3809 120.64 36.2551 121.244 35.8051C122.054 35.2027 124.08 33.2971 124.739 32.5294C124.931 32.3108 125.095 32.1189 125.116 32.0995C125.367 31.8576 126.4 30.5108 126.668 30.0834C126.977 29.5802 127.046 29.402 127.086 28.9649C127.114 28.6141 127.099 28.5286 126.955 28.3302C126.578 27.8004 126.043 27.6479 124.154 27.5625C122.829 27.5028 121.195 27.6552 119.552 28.006C118.013 28.3286 117.087 28.6213 114.608 29.5673C112.583 30.3415 112.26 30.4608 111.072 30.8778C110.694 31.0006 110.323 31.1419 109.959 31.3011C109.644 31.4536 109.424 31.4794 109.355 31.3737C109.314 31.3076 109.397 31.2213 110.104 30.5995C110.488 30.2624 110.694 29.9447 110.694 29.6931C110.694 29.5318 110.866 29.3358 111.711 28.535C112.94 27.3641 113.695 26.4109 115.267 24.0617C115.579 23.5936 115.862 23.1075 116.112 22.606C116.181 22.4601 116.304 22.2093 116.38 22.0415C116.757 21.2673 117.025 19.8641 116.867 19.494C116.812 19.3553 116.777 19.3327 116.757 19.3948C116.648 19.7061 116.064 21.1286 115.761 21.8101C115.082 23.3722 114.429 24.5633 113.846 25.331C113.578 25.681 112.562 26.9254 112.48 27.0052C112.459 27.0246 112.312 27.177 112.157 27.3488C112.001 27.5205 111.855 27.6334 111.835 27.6133C111.814 27.5931 111.793 27.6133 111.793 27.66C111.793 27.7068 111.625 27.885 111.436 28.0705C110.736 28.7157 110.349 28.8705 110.349 28.5004C110.349 28.3391 110.706 27.2963 110.864 27.0052C111.708 25.4633 112.107 24.5496 112.635 22.9351C113.26 21.0625 113.356 20.7383 113.48 20.1424C113.596 19.5778 113.596 19.5077 113.486 18.9182C113.424 18.5811 113.315 18.1246 113.246 17.9061L113.139 17.5053L113.05 18.1335C113.002 18.4779 112.94 18.9278 112.906 19.1262C112.871 19.3246 112.809 19.7149 112.768 19.9867C112.46 21.9222 112.099 23.2286 111.56 24.4004C111.505 24.5189 111.423 24.7181 111.368 24.8302C111.312 24.9423 111.196 25.2141 111.1 25.4125C111.004 25.6109 110.849 25.9552 110.757 26.1738C110.665 26.3923 110.489 26.7625 110.379 27.0012C109.988 27.8149 109.926 27.96 109.851 28.2181C109.761 28.5358 109.555 28.6883 109.033 28.8205C108.395 28.9729 108.113 29.1431 107.413 29.7931C107.056 30.1245 106.081 31.0237 105.25 31.7915C103.362 33.5455 102.243 34.5334 101.825 34.8027C101.761 34.8441 101.701 34.8905 101.645 34.9414C101.625 34.9616 101.35 35.1334 101.028 35.3189C97.8558 37.1519 94.5322 38.5543 92.1023 39.1035C90.7426 39.4083 90.6464 39.4261 89.6306 39.547C88.5244 39.6793 86.7948 39.6462 86.1999 39.4809C84.5724 39.0374 83.7005 38.0253 83.4327 36.2914C83.2545 35.1205 84.9916 32.9229 86.6802 32.1955C86.8712 32.1203 87.0551 32.0294 87.2299 31.9237C87.3289 31.8601 87.432 31.8027 87.5387 31.7519C87.655 31.6987 87.916 31.56 88.1244 31.4544L88.9896 30.9842C89.2641 30.8455 89.8824 30.5673 90.3627 30.3753C90.843 30.1834 91.2831 29.9987 91.3174 29.9584C91.3651 29.9124 91.3451 29.906 91.2622 29.9326C91.125 29.985 90.1912 30.2237 89.0172 30.5149C87.7679 30.8253 86.4291 31.1036 86.1723 31.1036C85.9865 31.1036 85.9321 31.077 85.9321 30.9842C85.9321 30.6866 86.8659 29.7536 87.5111 29.4028C87.7971 29.255 88.0958 29.1312 88.4039 29.0326C88.685 28.9399 89.1795 28.7673 89.5017 28.6487C91.2187 28.0262 92.8487 27.5302 93.0863 27.5431L93.3474 27.5697L92.4956 26.7689C91.3241 25.677 90.7928 25.0286 90.1887 23.9367C89.859 23.3415 89.5017 22.2891 89.3921 21.6077C89.3645 21.4222 89.3377 21.244 89.3302 21.2109C89.0967 20.1916 89.0791 18.0279 89.2892 16.8763C89.5845 15.2819 89.9686 14.4747 91.2137 12.844C91.9065 11.9311 92.4353 11.5803 92.9642 11.6731C93.2662 11.7255 93.7674 11.9835 94.241 12.3279C94.4469 12.4803 94.646 12.6255 94.6879 12.6505C95.1682 12.9876 96.1639 13.7755 96.4861 14.073C96.5625 14.1473 96.6466 14.2137 96.7371 14.2714C96.878 14.3674 97.0112 14.4736 97.1354 14.5892C97.8491 15.2247 98.4951 15.7537 98.4951 15.7182C98.4951 15.6827 97.3412 13.9779 97.2592 13.8989C97.1728 13.7926 97.0923 13.682 97.0182 13.5674C96.9019 13.4061 96.7672 13.2239 96.7095 13.1642C96.6331 13.0841 96.5643 12.9978 96.5036 12.9061C96.4519 12.8274 96.3946 12.7522 96.3321 12.6811C96.2978 12.6416 96.1396 12.4561 95.989 12.2779C95.8384 12.0997 95.4033 11.6497 95.0209 11.2787C94.4712 10.7497 94.313 10.5578 94.2787 10.3658C94.1072 9.47228 95.2267 9.36018 96.394 10.1537C96.9153 10.5045 98.1654 11.5505 98.6733 12.0529C99.5728 12.9529 100.871 14.4819 101.276 15.1174C101.351 15.2368 101.495 15.4351 101.591 15.5609C101.983 16.0577 103.15 18.0359 103.934 19.5246C105.143 21.8278 106.138 24.4214 106.495 26.1883C106.605 26.7375 106.804 27.9883 106.811 28.16L106.818 28.3592L106.887 28.1536C106.949 27.9617 106.818 25.8955 106.701 25.1496C106.399 23.2948 105.85 21.4899 104.985 19.5246C104.443 18.3004 102.918 15.7593 101.442 13.6158C101.14 13.1787 100.9 12.8214 100.9 12.8093C100.9 12.7973 100.728 12.5513 100.522 12.2666C100.316 11.9819 100.097 11.6908 100.041 11.6215C99.89 11.4094 98.998 10.2505 98.8264 10.04C98.2697 9.39313 97.6767 8.77608 97.05 8.19164C95.9104 7.16907 94.928 6.87794 93.7608 7.22391Z" fill="url(#paint0_linear_5375_13825)"/>
</g>
</g>
<defs>
<linearGradient id="paint0_linear_5375_13825" x1="104.211" y1="10.4387" x2="104.211" y2="63.5268" gradientUnits="userSpaceOnUse">
<stop stop-color="#FF8F00"/>
<stop offset="1" stop-color="#FF1100"/>
</linearGradient>
<clipPath id="clip0_5375_13825">
<rect width="55.9446" height="55.6423" fill="white" transform="translate(77.5554)"/>
</clipPath>
<clipPath id="clip1_5375_13825">
<rect width="55.9446" height="55.6423" fill="white" transform="translate(72.0006 0.340332)"/>
</clipPath>
</defs>
</svg>
