<svg width="103" height="46" viewBox="0 0 103 46" fill="none" xmlns="http://www.w3.org/2000/svg">
<path d="M3.26756 35.2443H0.821289L4.04007 20.3864C4.62374 17.674 5.07008 15.0389 5.37908 12.4811C5.70525 9.82022 5.86833 7.2967 5.86833 4.91051C5.86833 4.241 5.85975 3.76892 5.84258 3.49425L8.67511 2.20674V2.92774C8.67511 4.06075 8.57211 5.88902 8.3661 8.41254C8.1601 11.0219 7.94552 12.9617 7.72235 14.2321C8.80386 11.7086 10.1085 9.42538 11.6364 7.38253C13.2501 5.23668 14.8552 3.58008 16.4517 2.41274C18.0825 1.19389 19.5674 0.584473 20.9065 0.584473C22.2455 0.584473 23.327 1.11664 24.151 2.18099C24.9578 3.27966 25.3612 4.72168 25.3612 6.50702C25.3612 8.75588 24.872 11.0305 23.8935 13.3308C22.9321 15.5625 21.6017 17.6655 19.9022 19.6396C18.237 21.5452 16.383 23.0558 14.3402 24.1717C12.2973 25.2875 10.2974 25.8454 8.34035 25.8454C7.84252 25.8454 7.31893 25.7854 6.76959 25.6652L8.13435 23.8369C8.95836 24.1116 9.8167 24.2489 10.7094 24.2489C12.1171 24.2489 13.5505 23.7683 15.0097 22.8069C16.4345 21.8456 17.7134 20.5066 18.8464 18.7899C19.8765 17.2277 20.7691 15.2364 21.5245 12.8158C22.2626 10.4811 22.6317 8.42971 22.6317 6.66153C22.6317 5.20235 22.3914 4.07792 21.9107 3.28825C21.4129 2.48141 20.7262 2.07799 19.8507 2.07799C18.6147 2.07799 17.1898 2.78183 15.5762 4.1895C13.9797 5.58002 12.4003 7.5027 10.8381 9.95755C9.73945 11.6742 8.81244 13.5283 8.0571 15.5196C7.31893 17.4938 6.64942 19.8027 6.04858 22.4464L3.26756 35.2443Z" fill="#FF8F00"/>
<path d="M16.8379 44.3856L18.0997 42.6861C19.1125 43.7504 20.237 44.2826 21.473 44.2826C22.812 44.2826 23.8763 43.759 24.666 42.7118C25.4728 41.6303 26.1338 39.9136 26.6488 37.5618L27.8333 32.2315C25.9621 34.446 24.254 35.5533 22.709 35.5533C21.8163 35.5533 21.121 35.2786 20.6232 34.7293C20.1082 34.1799 19.8507 33.4418 19.8507 32.5147C19.8507 31.8967 19.928 31.2187 20.0825 30.4805L21.8335 21.2362L24.3312 20.1804L21.8335 30.5577C21.6275 31.3989 21.5245 32.0255 21.5245 32.4375C21.5245 33.0212 21.7047 33.4933 22.0652 33.8538C22.3914 34.2314 22.8549 34.4203 23.4557 34.4203C24.0909 34.4203 24.7947 34.137 25.5673 33.5705C26.2711 33.0555 27.1208 32.2229 28.1165 31.0727L30.331 21.2362L32.7516 20.1804L28.992 35.3215C28.5972 37.0039 28.1766 38.4287 27.7303 39.5961C27.3183 40.6261 26.8462 41.4844 26.314 42.1711C24.6488 44.3341 22.5974 45.4156 20.1597 45.4156C18.7349 45.4156 17.6276 45.0723 16.8379 44.3856Z" fill="#FF8F00"/>
<path d="M38.0561 21.3907C38.1248 20.9958 38.1591 20.6353 38.1591 20.3091C38.1591 19.7083 38.0647 19.2362 37.8759 18.8929C37.6699 18.5495 37.4123 18.3779 37.1033 18.3779C36.9488 18.3779 36.8029 18.4551 36.6656 18.6096C36.5283 18.7985 36.4596 19.0045 36.4596 19.2276C36.4596 20.0173 36.9918 20.7383 38.0561 21.3907ZM34.9918 28.3432L34.5283 27.9312C36.0218 26.1287 37.0089 24.4635 37.4896 22.9357C36.0991 22.1632 35.4038 21.0559 35.4038 19.6139C35.4038 18.9272 35.5669 18.3693 35.8931 17.9401C36.2193 17.511 36.6313 17.2964 37.1291 17.2964C37.6441 17.2964 38.0647 17.5281 38.3909 17.9916C38.717 18.4723 38.8801 19.0903 38.8801 19.8456C38.8801 20.3606 38.7857 20.9529 38.5969 21.6224C39.026 21.7426 39.4466 21.8027 39.8586 21.8027C40.923 21.8027 41.7985 21.4937 42.4851 20.8756H43.7212L43.5409 21.2362C42.3221 23.4678 41.3092 25.6909 40.5024 27.9055C39.6955 30.12 39.2921 31.7594 39.2921 32.8238C39.2921 33.2186 39.3951 33.5448 39.6011 33.8023C39.8071 34.0769 40.056 34.2143 40.3479 34.2143C41.0517 34.2143 42.1847 33.4675 43.7469 31.974L44.1589 32.4375C43.7297 32.9182 42.983 33.5791 41.9186 34.4203C41.026 35.1413 40.1762 35.5018 39.3694 35.5018C38.717 35.5018 38.1934 35.2786 37.7986 34.8323C37.4038 34.3859 37.2063 33.7765 37.2063 33.004C37.2063 31.7165 37.7042 30.0856 38.6999 28.1115C39.0089 27.4591 39.4724 26.6179 40.0904 25.5879C40.4337 25.0043 41.1461 23.8798 42.2276 22.2147L42.4851 21.8542C41.9186 22.3692 41.3779 22.7297 40.8629 22.9357C40.3479 23.1588 39.747 23.2704 39.0604 23.2704C38.7857 23.2704 38.4595 23.2275 38.0819 23.1417C37.5325 24.8412 36.5025 26.575 34.9918 28.3432Z" fill="#FF8F00"/>
<path d="M48.5879 21.2362L51.1115 20.1804L48.8454 28.6522C48.4678 30.0084 48.2789 31.1242 48.2789 31.9997C48.2789 32.5491 48.3734 32.9954 48.5622 33.3388C48.751 33.6821 49 33.8538 49.309 33.8538C49.8411 33.8538 50.6909 33.2186 51.8582 31.9482L52.2702 32.3087L52.0127 32.592C51.0342 33.7422 50.3132 34.5147 49.8497 34.9095C49.3862 35.3215 48.957 35.5275 48.5622 35.5275C48.03 35.5275 47.5837 35.2529 47.2232 34.7035C46.8455 34.1713 46.6567 33.5018 46.6567 32.695C46.6567 32.1628 46.7597 31.3474 46.9657 30.2487L48.5879 21.2362ZM51.8582 10.0863C52.3046 10.0863 52.6651 10.2236 52.9397 10.4983C53.2144 10.773 53.3517 11.1335 53.3517 11.5798C53.3517 12.009 53.2058 12.3695 52.914 12.6613C52.6221 12.9532 52.2702 13.0991 51.8582 13.0991C51.4634 13.0991 51.1115 12.9446 50.8025 12.6356C50.4935 12.3266 50.339 11.9747 50.339 11.5798C50.339 11.1678 50.4849 10.8159 50.7767 10.5241C51.0686 10.2322 51.4291 10.0863 51.8582 10.0863Z" fill="#FF8F00"/>
<g clip-path="url(#clip0_5384_13821)">
<g clip-path="url(#clip1_5384_13821)">
<path d="M71.0469 6.51087C70.2027 6.76911 69.0837 7.682 68.1319 8.88992C67.0451 10.2618 66.1844 12.2852 65.7597 14.4628C65.6201 15.1729 65.5932 16.7515 65.7059 17.286C65.9537 18.4307 66.1038 18.9181 66.4053 19.5644C66.8517 20.505 67.4148 21.21 68.267 21.8763C68.5626 22.1093 68.8051 22.3282 68.8051 22.3585C68.8051 22.4231 68.2938 22.5864 67.5407 22.7666C66.3844 23.0422 65.4162 23.4341 64.8138 23.8641C64.0986 24.3773 63.2648 25.1553 62.9259 25.6279C62.7863 25.8183 62.6637 25.983 62.646 25.9984C62.6087 26.0307 61.9473 27.2012 61.9473 27.238C61.9473 27.249 61.8771 27.413 61.7913 27.5983C61.6066 27.9988 61.4674 28.4182 61.3763 28.8488C61.3062 29.1561 61.2898 29.384 61.3173 29.9876C61.3331 30.4008 61.3763 30.8269 61.4085 30.9251C61.5396 31.2853 61.7578 31.7411 61.9086 31.9425C61.9632 32.0127 62.0119 32.0872 62.0541 32.1653C62.0541 32.2072 62.355 32.4932 62.6441 32.7321C63.1501 33.1453 63.6555 33.41 64.3975 33.6534C65.1186 33.8864 65.643 33.9555 66.716 33.9555C67.6626 33.9555 68.0447 33.9187 68.8838 33.7489C69.104 33.7063 69.3426 33.6534 69.4213 33.6431C69.6527 33.5953 70.6668 33.3093 71.0889 33.166C71.4672 33.0445 71.8361 32.8962 72.1928 32.7224C72.7309 32.479 74.9308 30.9903 75.4198 30.5454C75.5063 30.466 75.5869 30.4073 75.5922 30.4163C75.5974 30.4254 75.5601 30.6649 75.5004 30.9406C75.4145 31.3279 75.4041 31.4758 75.4467 31.5603C75.4794 31.6184 75.5273 31.6662 75.5542 31.6662C75.7213 31.6662 76.1028 31.4493 76.5767 31.0852C76.8724 30.8624 78.5072 29.3846 78.8087 29.0722C79.1961 28.6745 80.0725 28.0018 80.6376 27.6783C81.084 27.4246 82.2023 26.8945 82.6814 26.7196L83.7571 26.3174C84.7036 25.9623 87.9418 24.9132 88.7487 24.7034C88.9152 24.6608 89.184 24.5923 89.3387 24.5497C89.4934 24.5071 89.9359 24.4122 90.318 24.338C90.7002 24.2637 91.1512 24.1682 91.3131 24.1314C91.6946 24.0461 93.5418 24.052 93.9482 24.1417C94.5775 24.2798 94.8088 24.3696 94.9432 24.5291C95.1104 24.7227 95.1104 24.8628 94.9485 25.2179C94.5617 26.0811 93.4159 27.1883 91.334 28.73C89.5983 30.0109 88.3128 30.7856 87.7104 30.9147C86.9736 31.0787 85.4673 31.0897 83.7571 30.9515C82.6329 30.8618 82.547 30.8566 82.547 30.9096C82.547 31.1317 84.7305 31.6139 85.7256 31.6139C86.1451 31.6139 86.4197 31.7146 86.4197 31.8722C86.4197 32.1304 85.5479 32.3015 84.214 32.3015C83.0256 32.3015 82.4284 32.2008 81.7133 31.8831C81.3154 31.703 80.9548 31.5971 80.8611 31.6288C80.6782 31.6972 80.5655 32.0949 80.1191 34.2615C79.8503 35.5908 79.6078 36.3378 79.2263 37.0796C78.9089 37.679 78.4319 38.182 77.8463 38.5346C77.2606 38.8872 76.5886 39.0761 75.9022 39.081C75.2513 39.081 74.9845 38.917 74.8534 38.4451C74.7938 38.223 74.8102 37.6561 74.8856 37.3275C74.9662 36.9776 75.0094 36.7923 75.0901 36.4056C75.2461 35.6309 75.2782 35.4572 75.3051 35.0815L75.3372 34.7102L75.1812 35.2138C74.6057 37.0783 74.1645 37.9686 73.8531 37.9047C73.7076 37.8782 73.6565 37.6239 73.6912 37.0008C73.7181 36.4656 73.745 36.323 73.901 35.7742C74.0321 35.3223 74.6758 34.2964 75.1812 33.7509C75.2438 33.6904 75.2964 33.6207 75.3372 33.5443C75.3859 33.4593 75.4456 33.381 75.5148 33.3112C75.8754 32.9032 76.386 32.2937 76.4325 32.2137C76.4647 32.1491 76.4594 32.1394 76.4057 32.1717C76.266 32.2511 75.6846 32.643 75.6191 32.696C75.5817 32.7276 75.3287 32.9452 75.0547 33.1782C74.7513 33.4329 74.4656 33.7073 74.1992 33.9994C73.8282 34.4126 73.3976 35.0059 73.3976 35.097C73.3889 35.1441 73.3619 35.1861 73.3222 35.2138C73.2796 35.2506 73.1662 35.5211 73.0646 35.8175C72.8974 36.3339 72.8869 36.3985 72.8922 37.1261C72.8974 38.0054 72.978 38.3973 73.2632 38.9009C73.5588 39.4251 73.8708 39.653 74.7368 39.9816C75.1137 40.1243 75.2376 40.1456 75.6944 40.1456C76.7485 40.1456 77.8838 39.7802 78.7012 39.1817C78.9274 39.0119 79.3036 38.5561 79.6261 38.0532C79.8411 37.7142 80.336 36.6651 80.4599 36.2784C80.8421 35.0866 80.9011 34.7896 81.1004 32.9251C81.1541 32.4009 81.1751 32.3054 81.2505 32.337C82.4232 32.8141 83.4018 32.9619 84.8865 32.8825C85.6868 32.8504 86.4796 32.7187 87.2463 32.4907C88.2951 32.1943 89.441 31.6378 90.5546 30.8805C91.4153 30.2995 91.6139 30.1542 91.7968 30.0064C91.9692 29.8527 92.1036 29.752 92.5769 29.3917C93.2114 28.9095 94.7984 27.3839 95.3149 26.7693C95.465 26.5943 95.5941 26.4407 95.6105 26.4252C95.8072 26.2315 96.6161 25.1534 96.8258 24.8112C97.0684 24.4083 97.1221 24.2656 97.1536 23.9157C97.1752 23.6349 97.1641 23.5665 97.0513 23.4076C96.7557 22.9835 96.3362 22.8615 94.8567 22.793C93.819 22.7452 92.5388 22.8673 91.2514 23.1481C90.046 23.4063 89.3203 23.6407 87.3787 24.398C85.7918 25.0178 85.5388 25.1133 84.6086 25.4471C84.3123 25.5454 84.0214 25.6586 83.7368 25.786C83.4897 25.9081 83.3173 25.9287 83.2635 25.8441C83.2314 25.7912 83.2963 25.7221 83.8502 25.2244C84.1511 24.9545 84.3123 24.7001 84.3123 24.4987C84.3123 24.3696 84.4473 24.2127 85.1087 23.5716C86.0717 22.6342 86.6629 21.8711 87.8946 19.9905C88.1393 19.6157 88.3604 19.2266 88.5567 18.8251C88.6104 18.7083 88.7068 18.5075 88.7664 18.3732C89.0621 17.7534 89.2718 16.6301 89.1479 16.3337C89.1053 16.2227 89.0778 16.2046 89.0621 16.2543C88.9762 16.5035 88.5187 17.6424 88.282 18.1879C87.7498 19.4385 87.2385 20.392 86.7816 21.0066C86.5718 21.2868 85.7754 22.283 85.7112 22.3469C85.6948 22.3624 85.5801 22.4844 85.4581 22.6219C85.3362 22.7594 85.2215 22.8498 85.2058 22.8337C85.19 22.8176 85.173 22.8337 85.173 22.8711C85.173 22.9086 85.0419 23.0513 84.8937 23.1998C84.3451 23.7162 84.0416 23.8402 84.0416 23.5439C84.0416 23.4147 84.3215 22.58 84.4454 22.3469C85.1068 21.1125 85.4188 20.381 85.8331 19.0885C86.3221 17.5894 86.3975 17.3299 86.4945 16.8528C86.5856 16.4009 86.5856 16.3447 86.4997 15.8728C86.4512 15.6029 86.3653 15.2375 86.3116 15.0626L86.2277 14.7417L86.1575 15.2446C86.1202 15.5203 86.0717 15.8805 86.0448 16.0393C86.0179 16.1982 85.9694 16.5106 85.9373 16.7282C85.6954 18.2777 85.4129 19.3235 84.9908 20.2616C84.9475 20.3565 84.8833 20.516 84.84 20.6057C84.7967 20.6955 84.7056 20.913 84.6302 21.0718C84.5548 21.2307 84.4336 21.5063 84.3615 21.6813C84.2894 21.8562 84.1517 22.1526 84.0658 22.3437C83.7591 22.9951 83.7106 23.1113 83.6516 23.3179C83.5814 23.5723 83.4202 23.6943 83.0111 23.8002C82.511 23.9222 82.2901 24.0584 81.7421 24.5788C81.4622 24.8441 80.6985 25.564 80.0476 26.1786C78.5688 27.5828 77.6918 28.3736 77.364 28.5893C77.3142 28.6224 77.2673 28.6595 77.2237 28.7003C77.208 28.7164 76.9923 28.854 76.74 29.0024C74.255 30.4699 71.6513 31.5926 69.7477 32.0323C68.6826 32.2763 68.6072 32.2905 67.8114 32.3874C66.9448 32.4932 65.5899 32.4668 65.1238 32.3344C63.8489 31.9793 63.1659 31.1691 62.9561 29.781C62.8165 28.8436 64.1773 27.0844 65.5001 26.502C65.6497 26.4418 65.7938 26.369 65.9308 26.2845C66.0083 26.2335 66.0891 26.1875 66.1726 26.1469C66.2638 26.1043 66.4683 25.9933 66.6315 25.9087L67.3093 25.5323C67.5243 25.4213 68.0087 25.1985 68.385 25.0449C68.7612 24.8912 69.106 24.7434 69.1329 24.7111C69.1702 24.6743 69.1545 24.6691 69.0896 24.6905C68.9821 24.7324 68.2506 24.9235 67.3309 25.1566C66.3522 25.4051 65.3034 25.6279 65.1022 25.6279C64.9567 25.6279 64.9141 25.6066 64.9141 25.5323C64.9141 25.2941 65.6456 24.5471 66.151 24.2663C66.3751 24.148 66.6091 24.0489 66.8504 23.97C67.0707 23.8957 67.4581 23.7576 67.7104 23.6627C69.0555 23.1642 70.3324 22.7672 70.5186 22.7775L70.7231 22.7988L70.0558 22.1577C69.1381 21.2836 68.7219 20.7645 68.2486 19.8904C67.9903 19.4139 67.7104 18.5714 67.6246 18.0259C67.6029 17.8774 67.582 17.7347 67.5761 17.7082C67.3932 16.8922 67.3794 15.16 67.5439 14.2381C67.7753 12.9618 68.0762 12.3155 69.0516 11.0101C69.5944 10.2793 70.0086 9.99843 70.4229 10.0727C70.6595 10.1146 71.0522 10.3212 71.4232 10.5969C71.5845 10.7189 71.7405 10.8351 71.7732 10.8551C72.1495 11.125 72.9295 11.7558 73.1819 11.994C73.2418 12.0534 73.3077 12.1066 73.3786 12.1528C73.489 12.2297 73.5933 12.3147 73.6906 12.4072C74.2497 12.9159 74.7558 13.3394 74.7558 13.311C74.7558 13.2826 73.8518 11.9178 73.7876 11.8545C73.7199 11.7695 73.6569 11.6809 73.5988 11.5892C73.5077 11.4601 73.4022 11.3142 73.3569 11.2664C73.2971 11.2023 73.2432 11.1332 73.1957 11.0598C73.1552 10.9968 73.1103 10.9366 73.0613 10.8797C73.0344 10.848 72.9105 10.6996 72.7925 10.5569C72.6746 10.4142 72.3337 10.0539 72.0341 9.75697C71.6035 9.33345 71.4796 9.1798 71.4527 9.02615C71.3183 8.31082 72.1954 8.22108 73.1098 8.85635C73.5182 9.13719 74.4975 9.97454 74.8954 10.3768C75.6 11.0972 76.6167 12.3213 76.934 12.83C76.993 12.9256 77.1057 13.0844 77.1811 13.1851C77.4879 13.5828 78.4023 15.1665 79.0165 16.3583C79.9637 18.2021 80.7431 20.2784 81.023 21.6929C81.1089 22.1326 81.2649 23.1339 81.2701 23.2714L81.276 23.4309L81.3298 23.2662C81.3783 23.1126 81.276 21.4586 81.1843 20.8614C80.9476 19.3765 80.5176 17.9316 79.8398 16.3583C79.4151 15.3783 78.2207 13.3439 77.0644 11.6279C76.8278 11.278 76.6397 10.992 76.6397 10.9823C76.6397 10.9726 76.5046 10.7757 76.3434 10.5478C76.1821 10.3199 76.0104 10.0869 75.9671 10.0314C75.8485 9.86156 75.1497 8.93382 75.0153 8.76532C74.5792 8.24745 74.1146 7.75347 73.6237 7.2856C72.7309 6.46697 71.9614 6.23391 71.0469 6.51087Z" fill="url(#paint0_linear_5384_13821)"/>
</g>
</g>
<defs>
<linearGradient id="paint0_linear_5384_13821" x1="79.2336" y1="9.08447" x2="79.2336" y2="51.5845" gradientUnits="userSpaceOnUse">
<stop stop-color="#FF8F00"/>
<stop offset="1" stop-color="#FF1100"/>
</linearGradient>
<clipPath id="clip0_5384_13821">
<rect width="43.8263" height="44.5448" fill="white" transform="translate(58.3516 0.727661)"/>
</clipPath>
<clipPath id="clip1_5384_13821">
<rect width="43.8263" height="44.5448" fill="white" transform="translate(54 1.00012)"/>
</clipPath>
</defs>
</svg>
