<svg width="134" height="56" viewBox="0 0 134 56" fill="none" xmlns="http://www.w3.org/2000/svg">
<path d="M3.62268 43.2947H0.5L4.60879 24.7352C5.35385 21.3471 5.9236 18.0555 6.31805 14.8604C6.7344 11.5367 6.94258 8.38445 6.94258 5.40379C6.94258 4.56749 6.93162 3.97779 6.90971 3.63469L10.5254 2.02642V2.92705C10.5254 4.34233 10.394 6.62608 10.131 9.77829C9.86804 13.0377 9.59412 15.4608 9.30924 17.0477C10.6898 13.8955 12.3552 11.0435 14.3055 8.49167C16.3654 5.81122 18.4143 3.74191 20.4523 2.28375C22.5341 0.761248 24.4296 0 26.1388 0C27.8481 0 29.2287 0.664752 30.2805 1.99426C31.3104 3.36665 31.8254 5.16791 31.8254 7.39805C31.8254 10.2072 31.2009 13.0484 29.9518 15.9219C28.7246 18.7096 27.0263 21.3364 24.8569 23.8024C22.7313 26.1827 20.3646 28.0697 17.7569 29.4635C15.1492 30.8574 12.5963 31.5543 10.0981 31.5543C9.46264 31.5543 8.79428 31.4792 8.09304 31.3291L9.83517 29.0454C10.887 29.3885 11.9827 29.56 13.1222 29.56C14.9191 29.56 16.7489 28.9596 18.6115 27.7588C20.4304 26.5579 22.0629 24.8853 23.5092 22.741C24.824 20.7896 25.9635 18.3021 26.9277 15.2786C27.87 12.3622 28.3412 9.79973 28.3412 7.59104C28.3412 5.76833 28.0344 4.36378 27.4208 3.37737C26.7853 2.36952 25.9088 1.86559 24.7912 1.86559C23.2134 1.86559 21.3946 2.74478 19.3347 4.50316C17.2967 6.24009 15.2807 8.64178 13.2866 11.7082C11.8841 13.8526 10.7008 16.1685 9.73656 18.6559C8.79428 21.122 7.93965 24.0061 7.17267 27.3084L3.62268 43.2947Z" fill="#FF8F00"/>
<path d="M20.9453 54.7134L22.556 52.5905C23.8489 53.92 25.2842 54.5847 26.862 54.5847C28.5712 54.5847 29.9299 53.9307 30.9379 52.6226C31.9678 51.2717 32.8115 49.1273 33.4689 46.1895L34.981 39.5313C32.5924 42.2975 30.412 43.6806 28.4398 43.6806C27.3003 43.6806 26.4128 43.3375 25.7773 42.6514C25.1199 41.9652 24.7912 41.0431 24.7912 39.8851C24.7912 39.1132 24.8898 38.2661 25.087 37.3441L27.3222 25.7967L30.5106 24.4779L27.3222 37.4406C27.0592 38.4913 26.9277 39.274 26.9277 39.7886C26.9277 40.5177 27.1578 41.1074 27.618 41.5577C28.0344 42.0295 28.626 42.2654 29.393 42.2654C30.2038 42.2654 31.1023 41.9115 32.0884 41.2039C32.9868 40.5606 34.0715 39.5206 35.3425 38.0839L38.1694 25.7967L41.2592 24.4779L36.4601 43.3912C35.9561 45.4926 35.4192 47.2725 34.8495 48.7306C34.3236 50.0172 33.7209 51.0894 33.0416 51.9472C30.916 54.6491 28.2973 56 25.1856 56C23.3668 56 21.9534 55.5711 20.9453 54.7134Z" fill="#FF8F00"/>
<path d="M48.0305 25.9897C48.1181 25.4965 48.162 25.0461 48.162 24.6387C48.162 23.8882 48.0414 23.2985 47.8004 22.8696C47.5374 22.4407 47.2087 22.2263 46.8143 22.2263C46.617 22.2263 46.4308 22.3228 46.2555 22.5158C46.0802 22.7517 45.9925 23.009 45.9925 23.2878C45.9925 24.2742 46.6718 25.1748 48.0305 25.9897ZM44.1189 34.6743L43.5272 34.1597C45.4337 31.9081 46.6937 29.8281 47.3073 27.9196C45.5323 26.9546 44.6448 25.5715 44.6448 23.7702C44.6448 22.9125 44.853 22.2156 45.2694 21.6795C45.6857 21.1434 46.2116 20.8754 46.8471 20.8754C47.5045 20.8754 48.0414 21.1648 48.4578 21.7438C48.8741 22.3442 49.0823 23.1162 49.0823 24.0597C49.0823 24.703 48.9618 25.4428 48.7207 26.2792C49.2686 26.4293 49.8055 26.5043 50.3314 26.5043C51.69 26.5043 52.8076 26.1183 53.6842 25.3464H55.2619L55.0318 25.7967C53.476 28.5843 52.1831 31.3613 51.1531 34.1275C50.1232 36.8937 49.6082 38.9416 49.6082 40.2711C49.6082 40.7643 49.7397 41.1717 50.0027 41.4934C50.2657 41.8365 50.5834 42.008 50.9559 42.008C51.8544 42.008 53.3007 41.0752 55.2948 39.2097L55.8207 39.7886C55.2729 40.389 54.3197 41.2146 52.961 42.2654C51.8215 43.166 50.7368 43.6163 49.7069 43.6163C48.8741 43.6163 48.2058 43.3375 47.7018 42.78C47.1978 42.2225 46.9457 41.4612 46.9457 40.4963C46.9457 38.888 47.5812 36.8509 48.8522 34.3848C49.2467 33.57 49.8383 32.5192 50.6272 31.2326C51.0655 30.5035 51.9749 29.099 53.3555 27.019L53.6842 26.5686C52.961 27.2119 52.2707 27.6623 51.6133 27.9196C50.9559 28.1984 50.189 28.3377 49.3124 28.3377C48.9618 28.3377 48.5454 28.2841 48.0633 28.1769C47.3621 30.2998 46.0473 32.4656 44.1189 34.6743Z" fill="#FF8F00"/>
<path d="M61.4744 25.7967L64.6957 24.4779L61.8031 35.0603C61.321 36.7544 61.08 38.1482 61.08 39.2418C61.08 39.928 61.2005 40.4855 61.4416 40.9144C61.6826 41.3433 62.0004 41.5577 62.3948 41.5577C63.0741 41.5577 64.1588 40.7643 65.649 39.1775L66.1749 39.6278L65.8462 39.9816C64.5971 41.4183 63.6767 42.3833 63.0851 42.8765C62.4934 43.3912 61.9456 43.6485 61.4416 43.6485C60.7622 43.6485 60.1925 43.3054 59.7323 42.6192C59.2502 41.9544 59.0092 41.1181 59.0092 40.1103C59.0092 39.4455 59.1406 38.427 59.4036 37.0546L61.4744 25.7967ZM65.649 11.869C66.2187 11.869 66.6789 12.0406 67.0295 12.3837C67.3801 12.7268 67.5554 13.1771 67.5554 13.7346C67.5554 14.2707 67.3692 14.721 66.9966 15.0856C66.6241 15.4501 66.1749 15.6324 65.649 15.6324C65.1449 15.6324 64.6957 15.4394 64.3013 15.0534C63.9068 14.6674 63.7096 14.2278 63.7096 13.7346C63.7096 13.22 63.8959 12.7804 64.2684 12.4159C64.6409 12.0513 65.1011 11.869 65.649 11.869Z" fill="#FF8F00"/>
<g clip-path="url(#clip0_5394_22243)">
<g clip-path="url(#clip1_5394_22243)">
<path d="M93.7608 7.22305C92.683 7.54563 91.2547 8.68595 90.0397 10.1948C88.6524 11.9085 87.5537 14.4359 87.0115 17.156C86.8333 18.0431 86.799 20.0149 86.9429 20.6826C87.2592 22.1125 87.4508 22.7213 87.8357 23.5286C88.4055 24.7036 89.1243 25.5842 90.2121 26.4165C90.5895 26.7076 90.8991 26.981 90.8991 27.0189C90.8991 27.0995 90.2464 27.3035 89.285 27.5285C87.8089 27.8729 86.5731 28.3624 85.8041 28.8995C84.8912 29.5406 83.8268 30.5124 83.3942 31.1027C83.216 31.3406 83.0595 31.5463 83.037 31.5656C82.9893 31.6059 82.145 33.068 82.145 33.114C82.145 33.1277 82.0554 33.3325 81.9458 33.564C81.7101 34.0643 81.5325 34.5882 81.4162 35.1261C81.3266 35.5099 81.3057 35.7946 81.3409 36.5486C81.3609 37.0648 81.4162 37.597 81.4572 37.7196C81.6245 38.1696 81.9032 38.7389 82.0956 38.9906C82.1653 39.0782 82.2275 39.1713 82.2814 39.2688C82.2814 39.3212 82.6654 39.6784 83.0344 39.9768C83.6804 40.493 84.3256 40.8236 85.2728 41.1276C86.1932 41.4188 86.8626 41.505 88.2323 41.505C89.4406 41.505 89.9284 41.4591 90.9995 41.247C91.2806 41.1938 91.5852 41.1276 91.6856 41.1147C91.981 41.0551 93.2754 40.6978 93.8143 40.5188C94.2972 40.367 94.7681 40.1818 95.2234 39.9647C95.9104 39.6607 98.7185 37.801 99.3427 37.2454C99.4532 37.1462 99.5561 37.0728 99.5628 37.0841C99.5695 37.0954 99.5218 37.3946 99.4456 37.7389C99.336 38.2228 99.3226 38.4075 99.377 38.5131C99.4189 38.5857 99.4799 38.6454 99.5143 38.6454C99.7276 38.6454 100.215 38.3744 100.82 37.9196C101.197 37.6414 103.284 35.7954 103.669 35.4051C104.163 34.9083 105.282 34.068 106.003 33.664C106.573 33.347 108.001 32.685 108.612 32.4664L109.985 31.964C111.194 31.5204 115.327 30.21 116.357 29.9479C116.57 29.8947 116.913 29.8092 117.11 29.7559C117.308 29.7027 117.873 29.5842 118.36 29.4914C118.848 29.3987 119.424 29.2793 119.631 29.2334C120.118 29.1269 122.476 29.1342 122.994 29.2463C123.798 29.4188 124.093 29.5309 124.265 29.7301C124.478 29.9721 124.478 30.1471 124.271 30.5906C123.778 31.6688 122.315 33.0519 119.657 34.9777C117.442 36.5777 115.801 37.5454 115.032 37.7067C114.091 37.9115 112.168 37.9252 109.985 37.7527C108.55 37.6406 108.441 37.6341 108.441 37.7002C108.441 37.9777 111.228 38.5801 112.498 38.5801C113.034 38.5801 113.384 38.7059 113.384 38.9026C113.384 39.2252 112.271 39.4389 110.569 39.4389C109.052 39.4389 108.289 39.3131 107.376 38.9164C106.868 38.6914 106.408 38.5591 106.289 38.5986C106.055 38.6841 105.911 39.1809 105.341 41.8873C104.998 43.5478 104.689 44.4808 104.202 45.4074C103.797 46.1562 103.188 46.7845 102.44 47.2249C101.693 47.6654 100.835 47.9013 99.9586 47.9074C99.1277 47.9074 98.7871 47.7026 98.6198 47.1131C98.5436 46.8357 98.5645 46.1276 98.6608 45.7171C98.7637 45.28 98.8189 45.0486 98.9218 44.5655C99.121 43.5978 99.162 43.3808 99.1963 42.9115L99.2373 42.4478L99.0381 43.0768C98.3035 45.4058 97.7403 46.5179 97.3429 46.4381C97.1571 46.405 97.0919 46.0873 97.1362 45.3091C97.1705 44.6405 97.2048 44.4623 97.404 43.7768C97.5713 43.2123 98.393 41.9308 99.0381 41.2494C99.1181 41.1739 99.1853 41.0868 99.2373 40.9913C99.2994 40.8852 99.3757 40.7873 99.464 40.7002C99.9243 40.1905 100.576 39.4293 100.635 39.3293C100.677 39.2486 100.67 39.2365 100.601 39.2768C100.423 39.376 99.6808 39.8655 99.5971 39.9317C99.5494 39.9712 99.2264 40.243 98.8766 40.5341C98.4894 40.8523 98.1246 41.195 97.7847 41.5599C97.3111 42.076 96.7613 42.8171 96.7613 42.9308C96.7503 42.9897 96.7158 43.0421 96.6651 43.0768C96.6107 43.1228 96.466 43.4607 96.3363 43.8308C96.1229 44.476 96.1095 44.5566 96.1162 45.4655C96.1229 46.5639 96.2258 47.0534 96.5898 47.6824C96.9672 48.3373 97.3655 48.6219 98.4708 49.0324C98.952 49.2106 99.1101 49.2372 99.6933 49.2372C101.039 49.2372 102.488 48.7808 103.531 48.0332C103.82 47.8211 104.3 47.2518 104.712 46.6236C104.987 46.2002 105.618 44.8897 105.776 44.4066C106.264 42.9179 106.34 42.547 106.594 40.218C106.663 39.5631 106.689 39.4438 106.786 39.4833C108.283 40.0793 109.532 40.2639 111.427 40.1647C112.449 40.1246 113.461 39.9601 114.439 39.6752C115.778 39.3051 117.241 38.6099 118.662 37.6639C119.761 36.9381 120.015 36.7567 120.248 36.572C120.468 36.3801 120.64 36.2543 121.244 35.8043C122.054 35.2019 124.08 33.2962 124.739 32.5285C124.931 32.31 125.095 32.118 125.116 32.0987C125.367 31.8567 126.4 30.51 126.668 30.0826C126.977 29.5793 127.046 29.4011 127.086 28.964C127.114 28.6132 127.099 28.5277 126.955 28.3293C126.578 27.7995 126.043 27.6471 124.154 27.5616C122.829 27.5019 121.195 27.6543 119.552 28.0052C118.013 28.3277 117.087 28.6205 114.608 29.5664C112.583 30.3406 112.26 30.46 111.072 30.8769C110.694 30.9997 110.323 31.141 109.959 31.3003C109.644 31.4527 109.424 31.4785 109.355 31.3729C109.314 31.3067 109.397 31.2204 110.104 30.5987C110.488 30.2616 110.694 29.9438 110.694 29.6922C110.694 29.5309 110.866 29.335 111.711 28.5342C112.94 27.3632 113.695 26.41 115.267 24.0608C115.579 23.5927 115.862 23.1066 116.112 22.6052C116.181 22.4592 116.304 22.2084 116.38 22.0407C116.757 21.2665 117.025 19.8633 116.867 19.4931C116.812 19.3544 116.777 19.3318 116.757 19.3939C116.648 19.7052 116.064 21.1278 115.761 21.8092C115.082 23.3713 114.429 24.5624 113.846 25.3302C113.578 25.6802 112.562 26.9245 112.48 27.0044C112.459 27.0237 112.312 27.1761 112.157 27.3479C112.001 27.5197 111.855 27.6326 111.835 27.6124C111.814 27.5922 111.793 27.6124 111.793 27.6592C111.793 27.706 111.625 27.8842 111.436 28.0697C110.736 28.7148 110.349 28.8697 110.349 28.4995C110.349 28.3382 110.706 27.2955 110.864 27.0044C111.708 25.4624 112.107 24.5487 112.635 22.9342C113.26 21.0617 113.356 20.7375 113.48 20.1415C113.596 19.577 113.596 19.5068 113.486 18.9173C113.424 18.5802 113.315 18.1238 113.246 17.9052L113.139 17.5044L113.05 18.1326C113.002 18.477 112.94 18.927 112.906 19.1254C112.871 19.3238 112.809 19.7141 112.768 19.9859C112.46 21.9213 112.099 23.2278 111.56 24.3995C111.505 24.5181 111.423 24.7173 111.368 24.8294C111.312 24.9415 111.196 25.2132 111.1 25.4116C111.004 25.61 110.849 25.9544 110.757 26.1729C110.665 26.3915 110.489 26.7616 110.379 27.0003C109.988 27.814 109.926 27.9592 109.851 28.2172C109.761 28.535 109.555 28.6874 109.033 28.8197C108.395 28.9721 108.113 29.1422 107.413 29.7922C107.056 30.1237 106.081 31.0229 105.25 31.7906C103.362 33.5446 102.243 34.5325 101.825 34.8019C101.761 34.8433 101.701 34.8897 101.645 34.9406C101.625 34.9607 101.35 35.1325 101.028 35.318C97.8558 37.151 94.5322 38.5535 92.1023 39.1026C90.7426 39.4075 90.6464 39.4252 89.6306 39.5462C88.5244 39.6784 86.7948 39.6454 86.1999 39.4801C84.5724 39.0365 83.7005 38.0244 83.4327 36.2906C83.2545 35.1196 84.9916 32.922 86.6802 32.1946C86.8712 32.1195 87.0551 32.0285 87.2299 31.9229C87.3289 31.8592 87.432 31.8018 87.5387 31.7511C87.655 31.6979 87.916 31.5592 88.1244 31.4535L88.9896 30.9834C89.2641 30.8446 89.8824 30.5664 90.3627 30.3745C90.843 30.1826 91.2831 29.9979 91.3174 29.9576C91.3651 29.9116 91.3451 29.9051 91.2622 29.9317C91.125 29.9842 90.1912 30.2229 89.0172 30.514C87.7679 30.8245 86.4291 31.1027 86.1723 31.1027C85.9865 31.1027 85.9321 31.0761 85.9321 30.9834C85.9321 30.6858 86.8659 29.7527 87.5111 29.4019C87.7971 29.2542 88.0958 29.1303 88.4039 29.0318C88.685 28.939 89.1795 28.7664 89.5017 28.6479C91.2187 28.0253 92.8487 27.5293 93.0863 27.5423L93.3474 27.5689L92.4956 26.7681C91.3241 25.6761 90.7928 25.0278 90.1887 23.9358C89.859 23.3407 89.5017 22.2883 89.3921 21.6068C89.3645 21.4213 89.3377 21.2431 89.3302 21.21C89.0967 20.1907 89.0791 18.027 89.2892 16.8754C89.5845 15.2811 89.9686 14.4738 91.2137 12.8432C91.9065 11.9303 92.4353 11.5795 92.9642 11.6722C93.2662 11.7246 93.7674 11.9827 94.241 12.327C94.4469 12.4795 94.646 12.6246 94.6879 12.6496C95.1682 12.9867 96.1639 13.7746 96.4861 14.0722C96.5625 14.1464 96.6466 14.2129 96.7371 14.2706C96.878 14.3666 97.0112 14.4728 97.1354 14.5883C97.8491 15.2238 98.4951 15.7528 98.4951 15.7173C98.4951 15.6819 97.3412 13.977 97.2592 13.898C97.1728 13.7918 97.0923 13.6811 97.0182 13.5666C96.9019 13.4053 96.7672 13.223 96.7095 13.1633C96.6331 13.0833 96.5643 12.9969 96.5036 12.9053C96.4519 12.8265 96.3946 12.7513 96.3321 12.6803C96.2978 12.6408 96.1396 12.4553 95.989 12.277C95.8384 12.0988 95.4033 11.6488 95.0209 11.2779C94.4712 10.7488 94.313 10.5569 94.2787 10.365C94.1072 9.47142 95.2267 9.35933 96.394 10.1529C96.9153 10.5037 98.1654 11.5496 98.6733 12.052C99.5728 12.952 100.871 14.4811 101.276 15.1165C101.351 15.2359 101.495 15.4343 101.591 15.5601C101.983 16.0569 103.15 18.0351 103.934 19.5238C105.143 21.827 106.138 24.4205 106.495 26.1874C106.605 26.7366 106.804 27.9874 106.811 28.1592L106.818 28.3584L106.887 28.1527C106.949 27.9608 106.818 25.8947 106.701 25.1487C106.399 23.2939 105.85 21.4891 104.985 19.5238C104.443 18.2996 102.918 15.7585 101.442 13.6149C101.14 13.1778 100.9 12.8206 100.9 12.8085C100.9 12.7964 100.728 12.5504 100.522 12.2658C100.316 11.9811 100.097 11.69 100.041 11.6206C99.89 11.4085 98.998 10.2496 98.8264 10.0392C98.2697 9.39227 97.6767 8.77523 97.05 8.19079C95.9104 7.16822 94.928 6.87709 93.7608 7.22305Z" fill="url(#paint0_linear_5394_22243)"/>
</g>
</g>
<defs>
<linearGradient id="paint0_linear_5394_22243" x1="104.211" y1="10.4378" x2="104.211" y2="63.5259" gradientUnits="userSpaceOnUse">
<stop stop-color="#FF8F00"/>
<stop offset="1" stop-color="#FF1100"/>
</linearGradient>
<clipPath id="clip0_5394_22243">
<rect width="55.9446" height="55.6423" fill="white" transform="translate(77.5557)"/>
</clipPath>
<clipPath id="clip1_5394_22243">
<rect width="55.9446" height="55.6423" fill="white" transform="translate(72.001 0.339844)"/>
</clipPath>
</defs>
</svg>
