<svg width="24" height="24" viewBox="0 0 24 24" fill="none" xmlns="http://www.w3.org/2000/svg">
<rect width="24" height="24" fill="white"/>
<path fill-rule="evenodd" clip-rule="evenodd" d="M8.7516 17.6483C8.52663 17.4233 8.40025 17.1181 8.40025 16.7999C8.40025 16.4817 8.52663 16.1765 8.7516 15.9515L12.7032 11.9999L8.7516 8.0483C8.53301 7.82198 8.41205 7.51886 8.41479 7.20422C8.41752 6.88959 8.54372 6.58861 8.76621 6.36612C8.9887 6.14363 9.28968 6.01743 9.60432 6.01469C9.91895 6.01196 10.2221 6.13291 10.4484 6.3515L15.2484 11.1515C15.4734 11.3765 15.5997 11.6817 15.5997 11.9999C15.5997 12.3181 15.4734 12.6233 15.2484 12.8483L10.4484 17.6483C10.2234 17.8733 9.91819 17.9996 9.6 17.9996C9.2818 17.9996 8.97663 17.8733 8.7516 17.6483Z" fill="#A1A1AA"/>
</svg>
