<svg width="92" height="42" viewBox="0 0 92 42" fill="none" xmlns="http://www.w3.org/2000/svg">
<path d="M2.33566 31.7047H0L3.07324 18.1165C3.63052 15.636 4.05668 13.2261 4.35171 10.8868C4.66313 8.45332 4.81884 6.14545 4.81884 3.96318C4.81884 3.35089 4.81065 2.91915 4.79426 2.66795L7.49871 1.49047V2.14986C7.49871 3.18604 7.40036 4.85807 7.20368 7.16594C7.00699 9.55231 6.80211 11.3264 6.58903 12.4882C7.62164 10.1803 8.86732 8.09223 10.3261 6.22395C11.8668 4.26148 13.3993 2.74645 14.9237 1.67886C16.4808 0.564178 17.8986 0.00683594 19.177 0.00683594C20.4555 0.00683594 21.4881 0.493529 22.2748 1.46692C23.0452 2.4717 23.4304 3.79048 23.4304 5.42326C23.4304 7.47994 22.9633 9.56016 22.029 11.6639C21.1111 13.7049 19.8408 15.6281 18.2182 17.4336C16.6283 19.1763 14.8581 20.5579 12.9076 21.5783C10.9571 22.5988 9.04762 23.1091 7.17909 23.1091C6.70376 23.1091 6.20385 23.0541 5.67935 22.9442L6.9824 21.2722C7.76915 21.5234 8.58868 21.649 9.44099 21.649C10.785 21.649 12.1536 21.2094 13.5468 20.3302C14.9073 19.451 16.1284 18.2264 17.2101 16.6565C18.1936 15.2278 19.0459 13.4066 19.7671 11.1929C20.4719 9.05776 20.8243 7.18164 20.8243 5.56456C20.8243 4.23008 20.5948 3.20174 20.1359 2.47955C19.6605 1.74166 19.0049 1.37272 18.169 1.37272C16.9889 1.37272 15.6285 2.01641 14.0877 3.30379C12.5634 4.57547 11.0555 6.33385 9.56392 8.57892C8.51493 10.1489 7.62983 11.8445 6.90864 13.6657C6.20385 15.4711 5.56461 17.5828 4.99094 20.0005L2.33566 31.7047Z" fill="white"/>
<path d="M15.2924 40.0648L16.4972 38.5106C17.4642 39.484 18.5378 39.9706 19.7179 39.9706C20.9964 39.9706 22.0126 39.4918 22.7666 38.5341C23.5369 37.545 24.168 35.9751 24.6597 33.8242L25.7906 28.9494C24.0041 30.9747 22.3732 31.9873 20.898 31.9873C20.0457 31.9873 19.3819 31.7361 18.9066 31.2337C18.4149 30.7313 18.169 30.0562 18.169 29.2084C18.169 28.6433 18.2428 28.0231 18.3903 27.348L20.0621 18.8937L22.4469 17.9281L20.0621 27.4187C19.8654 28.188 19.7671 28.761 19.7671 29.1378C19.7671 29.6716 19.9392 30.1033 20.2834 30.433C20.5948 30.7784 21.0374 30.9511 21.611 30.9511C22.2175 30.9511 22.8895 30.6921 23.6271 30.174C24.2991 29.703 25.1104 28.9415 26.0611 27.8897L28.1755 18.8937L30.4865 17.9281L26.897 31.7754C26.52 33.3139 26.1184 34.617 25.6923 35.6846C25.2989 36.6266 24.8482 37.4116 24.3401 38.0396C22.7502 40.0177 20.7915 41.0068 18.464 41.0068C17.1036 41.0068 16.0464 40.6928 15.2924 40.0648Z" fill="white"/>
<path d="M35.5512 19.035C35.6168 18.6739 35.6496 18.3442 35.6496 18.0459C35.6496 17.4964 35.5594 17.0647 35.3791 16.7507C35.1825 16.4367 34.9366 16.2797 34.6416 16.2797C34.494 16.2797 34.3547 16.3503 34.2236 16.4916C34.0925 16.6643 34.0269 16.8527 34.0269 17.0568C34.0269 17.779 34.535 18.4384 35.5512 19.035ZM32.6255 25.3934L32.183 25.0166C33.609 23.3681 34.5514 21.8452 35.0104 20.448C33.6827 19.7415 33.0189 18.7288 33.0189 17.4101C33.0189 16.7821 33.1746 16.2718 33.486 15.8793C33.7974 15.4868 34.1908 15.2906 34.6662 15.2906C35.1579 15.2906 35.5594 15.5025 35.8709 15.9264C36.1823 16.366 36.338 16.9312 36.338 17.622C36.338 18.093 36.2478 18.6346 36.0676 19.2469C36.4773 19.3568 36.8789 19.4118 37.2723 19.4118C38.2885 19.4118 39.1244 19.1292 39.78 18.564H40.9601L40.788 18.8937C39.6243 20.9347 38.6573 22.9678 37.8869 24.993C37.1166 27.0183 36.7314 28.5177 36.7314 29.491C36.7314 29.8521 36.8297 30.1504 37.0264 30.3859C37.2231 30.6371 37.4608 30.7627 37.7394 30.7627C38.4114 30.7627 39.4932 30.0798 40.9847 28.7139L41.3781 29.1378C40.9683 29.5774 40.2554 30.1818 39.2391 30.9511C38.3868 31.6105 37.5755 31.9402 36.8051 31.9402C36.1823 31.9402 35.6824 31.7361 35.3054 31.3279C34.9284 30.9197 34.7399 30.3624 34.7399 29.6559C34.7399 28.4784 35.2152 26.9869 36.1659 25.1814C36.4609 24.5849 36.9035 23.8156 37.4935 22.8736C37.8213 22.3398 38.5016 21.3114 39.5342 19.7886L39.78 19.4589C39.2391 19.9299 38.7228 20.2596 38.2311 20.448C37.7394 20.6521 37.1657 20.7541 36.5101 20.7541C36.2478 20.7541 35.9364 20.7149 35.5758 20.6364C35.0513 22.1906 34.0679 23.7763 32.6255 25.3934Z" fill="white"/>
<path d="M45.6069 18.8937L48.0163 17.9281L45.8527 25.676C45.4922 26.9163 45.3119 27.9368 45.3119 28.7374C45.3119 29.2398 45.402 29.648 45.5823 29.962C45.7626 30.276 46.0003 30.433 46.2953 30.433C46.8034 30.433 47.6147 29.8521 48.7293 28.6903L49.1227 29.02L48.8768 29.2791C47.9426 30.331 47.2541 31.0375 46.8116 31.3986C46.3691 31.7754 45.9593 31.9638 45.5823 31.9638C45.0742 31.9638 44.648 31.7126 44.3038 31.2102C43.9432 30.7235 43.7629 30.1112 43.7629 29.3733C43.7629 28.8866 43.8613 28.1409 44.058 27.1361L45.6069 18.8937ZM48.7293 8.69667C49.1555 8.69667 49.4997 8.82227 49.7619 9.07346C50.0242 9.32466 50.1553 9.65436 50.1553 10.0626C50.1553 10.455 50.016 10.7847 49.7373 11.0516C49.4587 11.3185 49.1227 11.452 48.7293 11.452C48.3523 11.452 48.0163 11.3107 47.7213 11.0281C47.4262 10.7455 47.2787 10.4236 47.2787 10.0626C47.2787 9.68576 47.418 9.36391 47.6967 9.09701C47.9753 8.83012 48.3195 8.69667 48.7293 8.69667Z" fill="white"/>
<g clip-path="url(#clip0_5448_15618)">
<g clip-path="url(#clip1_5448_15618)">
<path d="M62.2764 5.29518C61.4703 5.53135 60.4019 6.36622 59.4932 7.47092C58.4555 8.72559 57.6337 10.576 57.2282 12.5675C57.0949 13.217 57.0692 14.6606 57.1768 15.1495C57.4134 16.1963 57.5567 16.6421 57.8446 17.2331C58.2708 18.0934 58.8085 18.7382 59.6221 19.3475C59.9043 19.5606 60.1359 19.7608 60.1359 19.7885C60.1359 19.8476 59.6477 19.997 58.9286 20.1617C57.8246 20.4138 56.9002 20.7722 56.325 21.1654C55.6422 21.6348 54.8461 22.3463 54.5226 22.7785C54.3893 22.9527 54.2722 23.1032 54.2553 23.1174C54.2196 23.1469 53.5881 24.2174 53.5881 24.251C53.5881 24.2611 53.5212 24.411 53.4392 24.5805C53.2629 24.9468 53.13 25.3303 53.043 25.7242C52.9761 26.0052 52.9604 26.2136 52.9867 26.7657C53.0017 27.1436 53.043 27.5333 53.0737 27.623C53.1989 27.9525 53.4073 28.3693 53.5512 28.5535C53.6034 28.6177 53.6498 28.6858 53.6902 28.7572C53.6902 28.7956 53.9774 29.0572 54.2534 29.2756C54.7366 29.6535 55.2191 29.8956 55.9276 30.1182C56.6161 30.3313 57.1168 30.3945 58.1413 30.3945C59.045 30.3945 59.4099 30.3608 60.211 30.2056C60.4213 30.1666 60.6491 30.1182 60.7242 30.1087C60.9452 30.065 61.9134 29.8035 62.3164 29.6724C62.6776 29.5613 63.0299 29.4257 63.3704 29.2668C63.8842 29.0442 65.9846 27.6826 66.4515 27.2758C66.5341 27.2032 66.6111 27.1495 66.6161 27.1577C66.6211 27.166 66.5854 27.3851 66.5285 27.6372C66.4465 27.9914 66.4365 28.1266 66.4772 28.204C66.5085 28.2571 66.5541 28.3008 66.5798 28.3008C66.7394 28.3008 67.1036 28.1024 67.5561 27.7694C67.8384 27.5657 69.3993 26.2142 69.6872 25.9285C70.0571 25.5647 70.8939 24.9495 71.4334 24.6537C71.8596 24.4217 72.9273 23.9369 73.3848 23.7769L74.4118 23.4091C75.3156 23.0843 78.4073 22.1249 79.1778 21.933C79.3368 21.894 79.5934 21.8314 79.7411 21.7925C79.8888 21.7535 80.3112 21.6667 80.6761 21.5988C81.041 21.5309 81.4716 21.4435 81.6262 21.4099C81.9904 21.3319 83.7541 21.3372 84.1421 21.4193C84.743 21.5457 84.9639 21.6277 85.0922 21.7736C85.2518 21.9507 85.2518 22.0788 85.0972 22.4036C84.7279 23.193 83.6339 24.2056 81.6462 25.6155C79.9889 26.7869 78.7616 27.4955 78.1864 27.6136C77.4829 27.7635 76.0447 27.7736 74.4118 27.6472C73.3385 27.5651 73.2565 27.5604 73.2565 27.6088C73.2565 27.8119 75.3412 28.253 76.2913 28.253C76.6919 28.253 76.9541 28.3451 76.9541 28.4892C76.9541 28.7253 76.1217 28.8818 74.8481 28.8818C73.7134 28.8818 73.1432 28.7897 72.4604 28.4992C72.0805 28.3345 71.7363 28.2376 71.6468 28.2666C71.4722 28.3292 71.3645 28.6929 70.9383 30.6744C70.6817 31.8901 70.4501 32.5732 70.0859 33.2516C69.7829 33.7998 69.3274 34.2598 68.7682 34.5823C68.2091 34.9047 67.5675 35.0775 66.9121 35.0819C66.2907 35.0819 66.0359 34.932 65.9108 34.5004C65.8538 34.2973 65.8694 33.7789 65.9414 33.4783C66.0184 33.1583 66.0597 32.9889 66.1367 32.6352C66.2856 31.9267 66.3163 31.7678 66.342 31.4242L66.3726 31.0847L66.2237 31.5452C65.6742 33.2504 65.253 34.0646 64.9557 34.0062C64.8167 33.982 64.7679 33.7493 64.8011 33.1796C64.8268 32.6901 64.8524 32.5596 65.0014 32.0577C65.1265 31.6444 65.7411 30.7062 66.2237 30.2073C66.2835 30.1521 66.3337 30.0883 66.3726 30.0184C66.4191 29.9407 66.4761 29.869 66.5422 29.8052C66.8865 29.4321 67.374 28.8747 67.4185 28.8015C67.4491 28.7425 67.4441 28.7336 67.3928 28.7631C67.2595 28.8357 66.7043 29.1941 66.6418 29.2426C66.6061 29.2715 66.3645 29.4705 66.1029 29.6836C65.8133 29.9166 65.5404 30.1675 65.2861 30.4346C64.9319 30.8125 64.5207 31.3551 64.5207 31.4384C64.5124 31.4815 64.4866 31.5199 64.4487 31.5452C64.4081 31.5789 64.2998 31.8263 64.2028 32.0973C64.0432 32.5696 64.0332 32.6287 64.0382 33.2941C64.0432 34.0983 64.1202 34.4567 64.3924 34.9172C64.6747 35.3966 64.9726 35.6051 65.7993 35.9056C66.1592 36.0361 66.2775 36.0556 66.7137 36.0556C67.7201 36.0556 68.8041 35.7214 69.5846 35.174C69.8005 35.0188 70.1597 34.6019 70.4677 34.142C70.6729 33.832 71.1455 32.8725 71.2638 32.5189C71.6286 31.4289 71.685 31.1573 71.8752 29.4522C71.9265 28.9727 71.9466 28.8853 72.0185 28.9143C73.1382 29.3506 74.0726 29.4858 75.4902 29.4132C76.2542 29.3838 77.0113 29.2634 77.7433 29.0548C78.7447 28.7838 79.8387 28.2748 80.902 27.5823C81.7238 27.0509 81.9134 26.918 82.088 26.7828C82.2526 26.6423 82.3809 26.5502 82.8328 26.2207C83.4387 25.7797 84.9539 24.3845 85.447 23.8224C85.5904 23.6624 85.7137 23.5218 85.7293 23.5077C85.9171 23.3305 86.6894 22.3445 86.8897 22.0316C87.1212 21.6632 87.1726 21.5327 87.2026 21.2127C87.2232 20.9558 87.2126 20.8932 87.105 20.748C86.8227 20.3601 86.4221 20.2485 85.0096 20.1859C84.0188 20.1422 82.7965 20.2538 81.5673 20.5106C80.4164 20.7468 79.7235 20.9611 77.8697 21.6537C76.3545 22.2205 76.1129 22.3079 75.2248 22.6132C74.942 22.7031 74.6641 22.8066 74.3924 22.9231C74.1565 23.0347 73.9919 23.0536 73.9406 22.9763C73.9099 22.9279 73.9719 22.8647 74.5007 22.4095C74.788 22.1627 74.9419 21.93 74.9419 21.7458C74.9419 21.6277 75.0709 21.4843 75.7024 20.898C76.6218 20.0407 77.1863 19.3428 78.3623 17.6228C78.5959 17.2801 78.807 16.9242 78.9944 16.5571C79.0457 16.4502 79.1377 16.2666 79.1947 16.1438C79.4769 15.577 79.6772 14.5496 79.5589 14.2786C79.5183 14.1771 79.492 14.1605 79.4769 14.206C79.395 14.4339 78.9581 15.4754 78.7322 15.9743C78.224 17.118 77.7358 17.9901 77.2996 18.5522C77.0993 18.8084 76.3389 19.7195 76.2775 19.7779C76.2619 19.7921 76.1524 19.9037 76.036 20.0294C75.9195 20.1552 75.81 20.2379 75.795 20.2231C75.78 20.2083 75.7637 20.2231 75.7637 20.2573C75.7637 20.2916 75.6385 20.4221 75.4971 20.5579C74.9732 21.0302 74.6835 21.1436 74.6835 20.8726C74.6835 20.7545 74.9507 19.9911 75.069 19.7779C75.7005 18.649 75.9984 17.98 76.3939 16.798C76.8608 15.427 76.9328 15.1897 77.0254 14.7533C77.1124 14.34 77.1124 14.2887 77.0304 13.857C76.9841 13.6102 76.9021 13.2761 76.8508 13.1161L76.7707 12.8226L76.7037 13.2826C76.6681 13.5347 76.6218 13.8641 76.5961 14.0094C76.5704 14.1546 76.5241 14.4404 76.4935 14.6394C76.2625 16.0564 75.9928 17.0129 75.5897 17.8708C75.5484 17.9576 75.4871 18.1034 75.4458 18.1855C75.4045 18.2676 75.3175 18.4666 75.2455 18.6118C75.1735 18.7571 75.0577 19.0092 74.9889 19.1692C74.92 19.3292 74.7886 19.6002 74.7066 19.775C74.4137 20.3707 74.3674 20.477 74.3111 20.6659C74.2441 20.8986 74.0901 21.0101 73.6996 21.107C73.2221 21.2186 73.0112 21.3431 72.4879 21.819C72.2207 22.0617 71.4916 22.72 70.8701 23.2821C69.4581 24.5663 68.6207 25.2896 68.3078 25.4868C68.2603 25.5171 68.2155 25.5511 68.1739 25.5884C68.1589 25.6031 67.9529 25.7289 67.712 25.8647C65.3393 27.2067 62.8534 28.2335 61.0359 28.6356C60.0189 28.8588 59.9469 28.8718 59.1871 28.9603C58.3597 29.0572 57.0661 29.033 56.6211 28.9119C55.4038 28.5872 54.7516 27.8462 54.5513 26.5767C54.418 25.7194 55.7173 24.1105 56.9803 23.5779C57.1232 23.5229 57.2608 23.4563 57.3915 23.379C57.4655 23.3324 57.5427 23.2903 57.6225 23.2532C57.7095 23.2142 57.9047 23.1127 58.0606 23.0353L58.7077 22.6911C58.913 22.5896 59.3755 22.3859 59.7347 22.2453C60.094 22.1048 60.4232 21.9696 60.4489 21.9401C60.4845 21.9064 60.4695 21.9017 60.4075 21.9212C60.3049 21.9596 59.6064 22.1343 58.7284 22.3475C57.7939 22.5748 56.7926 22.7785 56.6004 22.7785C56.4615 22.7785 56.4208 22.759 56.4208 22.6911C56.4208 22.4732 57.1193 21.7901 57.6018 21.5333C57.8158 21.4251 58.0392 21.3344 58.2696 21.2623C58.4799 21.1944 58.8498 21.068 59.0907 20.9812C60.375 20.5254 61.5942 20.1623 61.7719 20.1717L61.9672 20.1912L61.3301 19.6049C60.4539 18.8055 60.0564 18.3308 59.6046 17.5313C59.358 17.0956 59.0907 16.3251 59.0087 15.8261C58.9881 15.6903 58.9681 15.5599 58.9624 15.5357C58.7878 14.7893 58.7747 13.2052 58.9318 12.3621C59.1527 11.1948 59.44 10.6038 60.3712 9.40991C60.8895 8.74154 61.285 8.4847 61.6805 8.5526C61.9065 8.59098 62.2814 8.77991 62.6356 9.03203C62.7896 9.14362 62.9385 9.2499 62.9698 9.2682C63.3291 9.515 64.0738 10.0919 64.3148 10.3097C64.372 10.3641 64.4349 10.4127 64.5026 10.455C64.608 10.5252 64.7076 10.603 64.8005 10.6876C65.3343 11.1529 65.8175 11.5402 65.8175 11.5142C65.8175 11.4882 64.9544 10.2401 64.8931 10.1822C64.8284 10.1044 64.7683 10.0234 64.7129 9.93953C64.6259 9.82144 64.5251 9.688 64.4819 9.64431C64.4248 9.58571 64.3733 9.52249 64.3279 9.45537C64.2893 9.39771 64.2464 9.34267 64.1996 9.29064C64.174 9.26171 64.0557 9.12591 63.943 8.99542C63.8304 8.86494 63.5049 8.53548 63.2189 8.26388C62.8077 7.87655 62.6894 7.73603 62.6638 7.59551C62.5355 6.94131 63.3729 6.85924 64.246 7.44022C64.6359 7.69706 65.5709 8.46285 65.9508 8.83069C66.6236 9.48962 67.5943 10.6091 67.8972 11.0743C67.9536 11.1617 68.0612 11.307 68.1332 11.3991C68.4261 11.7628 69.2992 13.2111 69.8856 14.3011C70.79 15.9873 71.5341 17.8862 71.8014 19.1798C71.8834 19.5819 72.0323 20.4976 72.0373 20.6234L72.043 20.7692L72.0943 20.6187C72.1406 20.4782 72.043 18.9655 71.9553 18.4193C71.7294 17.0613 71.3188 15.7399 70.6717 14.3011C70.2661 13.4048 69.1258 11.5443 68.0218 9.97495C67.7958 9.65494 67.6162 9.39337 67.6162 9.38452C67.6162 9.37566 67.4873 9.19558 67.3333 8.98716C67.1794 8.77873 67.0154 8.56559 66.9741 8.51481C66.8608 8.35953 66.1936 7.51107 66.0653 7.35697C65.6489 6.88336 65.2054 6.43159 64.7366 6.0037C63.8842 5.25503 63.1494 5.04188 62.2764 5.29518Z" fill="white"/>
</g>
</g>
<defs>
<clipPath id="clip0_5448_15618">
<rect width="41.8447" height="40.7381" fill="white" transform="translate(50.1553 0.00683594)"/>
</clipPath>
<clipPath id="clip1_5448_15618">
<rect width="41.8447" height="40.7381" fill="white" transform="translate(46.0005 0.255859)"/>
</clipPath>
</defs>
</svg>
