<svg width="123" height="56" viewBox="0 0 123 56" fill="none" xmlns="http://www.w3.org/2000/svg">
<path d="M3.12268 43.2947H0L4.10879 24.7352C4.85385 21.3471 5.4236 18.0555 5.81805 14.8604C6.2344 11.5367 6.44258 8.38445 6.44258 5.40379C6.44258 4.56749 6.43162 3.97779 6.40971 3.63469L10.0254 2.02642V2.92705C10.0254 4.34233 9.89396 6.62608 9.631 9.77829C9.36804 13.0377 9.09412 15.4608 8.80924 17.0477C10.1898 13.8955 11.8552 11.0435 13.8055 8.49167C15.8654 5.81122 17.9143 3.74191 19.9523 2.28375C22.0341 0.761248 23.9296 0 25.6388 0C27.3481 0 28.7287 0.664752 29.7805 1.99426C30.8104 3.36665 31.3254 5.16791 31.3254 7.39805C31.3254 10.2072 30.7009 13.0484 29.4518 15.9219C28.2246 18.7096 26.5263 21.3364 24.3569 23.8024C22.2313 26.1827 19.8646 28.0697 17.2569 29.4635C14.6492 30.8574 12.0963 31.5543 9.59813 31.5543C8.96264 31.5543 8.29428 31.4792 7.59304 31.3291L9.33517 29.0454C10.387 29.3885 11.4827 29.56 12.6222 29.56C14.4191 29.56 16.2489 28.9596 18.1115 27.7588C19.9304 26.5579 21.5629 24.8853 23.0092 22.741C24.324 20.7896 25.4635 18.3021 26.4277 15.2786C27.37 12.3622 27.8412 9.79973 27.8412 7.59104C27.8412 5.76833 27.5344 4.36378 26.9208 3.37737C26.2853 2.36952 25.4088 1.86559 24.2912 1.86559C22.7134 1.86559 20.8946 2.74478 18.8347 4.50316C16.7967 6.24009 14.7807 8.64178 12.7866 11.7082C11.3841 13.8526 10.2008 16.1685 9.23656 18.6559C8.29428 21.122 7.43965 24.0061 6.67267 27.3084L3.12268 43.2947Z" fill="#FF8F00"/>
<path d="M20.4453 54.7134L22.056 52.5905C23.3489 53.92 24.7842 54.5847 26.362 54.5847C28.0712 54.5847 29.4299 53.9307 30.4379 52.6226C31.4678 51.2717 32.3115 49.1273 32.9689 46.1895L34.481 39.5313C32.0924 42.2975 29.912 43.6806 27.9398 43.6806C26.8003 43.6806 25.9128 43.3375 25.2773 42.6514C24.6199 41.9652 24.2912 41.0431 24.2912 39.8851C24.2912 39.1132 24.3898 38.2661 24.587 37.3441L26.8222 25.7967L30.0106 24.4779L26.8222 37.4406C26.5592 38.4913 26.4277 39.274 26.4277 39.7886C26.4277 40.5177 26.6578 41.1074 27.118 41.5577C27.5344 42.0295 28.126 42.2654 28.893 42.2654C29.7038 42.2654 30.6023 41.9115 31.5884 41.2039C32.4868 40.5606 33.5715 39.5206 34.8425 38.0839L37.6694 25.7967L40.7592 24.4779L35.9601 43.3912C35.4561 45.4926 34.9192 47.2724 34.3495 48.7306C33.8236 50.0172 33.2209 51.0894 32.5416 51.9472C30.416 54.6491 27.7973 56 24.6856 56C22.8668 56 21.4534 55.5711 20.4453 54.7134Z" fill="#FF8F00"/>
<path d="M47.5305 25.9897C47.6181 25.4965 47.662 25.0461 47.662 24.6387C47.662 23.8882 47.5414 23.2985 47.3004 22.8696C47.0374 22.4407 46.7087 22.2263 46.3143 22.2263C46.117 22.2263 45.9308 22.3228 45.7555 22.5158C45.5802 22.7517 45.4925 23.009 45.4925 23.2878C45.4925 24.2742 46.1718 25.1748 47.5305 25.9897ZM43.6189 34.6743L43.0272 34.1597C44.9337 31.9081 46.1937 29.8281 46.8073 27.9196C45.0323 26.9546 44.1448 25.5715 44.1448 23.7702C44.1448 22.9125 44.353 22.2156 44.7694 21.6795C45.1857 21.1434 45.7116 20.8754 46.3471 20.8754C47.0045 20.8754 47.5414 21.1648 47.9578 21.7438C48.3741 22.3442 48.5823 23.1162 48.5823 24.0597C48.5823 24.703 48.4618 25.4429 48.2207 26.2792C48.7686 26.4293 49.3055 26.5043 49.8314 26.5043C51.19 26.5043 52.3076 26.1183 53.1842 25.3464H54.7619L54.5318 25.7967C52.976 28.5843 51.6831 31.3613 50.6531 34.1275C49.6232 36.8937 49.1082 38.9416 49.1082 40.2711C49.1082 40.7643 49.2397 41.1717 49.5027 41.4934C49.7657 41.8365 50.0834 42.008 50.4559 42.008C51.3544 42.008 52.8007 41.0752 54.7948 39.2097L55.3207 39.7886C54.7729 40.389 53.8197 41.2146 52.461 42.2654C51.3215 43.166 50.2368 43.6163 49.2069 43.6163C48.3741 43.6163 47.7058 43.3375 47.2018 42.78C46.6978 42.2225 46.4458 41.4612 46.4458 40.4963C46.4458 38.888 47.0812 36.8509 48.3522 34.3848C48.7467 33.57 49.3383 32.5192 50.1272 31.2326C50.5655 30.5035 51.4749 29.099 52.8555 27.019L53.1842 26.5686C52.461 27.2119 51.7707 27.6623 51.1133 27.9196C50.4559 28.1984 49.689 28.3377 48.8124 28.3377C48.4618 28.3377 48.0454 28.2841 47.5633 28.1769C46.8621 30.2998 45.5473 32.4656 43.6189 34.6743Z" fill="#FF8F00"/>
<path d="M60.9744 25.7967L64.1957 24.4779L61.3031 35.0603C60.821 36.7544 60.58 38.1482 60.58 39.2418C60.58 39.928 60.7005 40.4855 60.9416 40.9144C61.1826 41.3433 61.5004 41.5577 61.8948 41.5577C62.5741 41.5577 63.6588 40.7643 65.149 39.1775L65.6749 39.6278L65.3462 39.9816C64.0971 41.4183 63.1767 42.3833 62.5851 42.8765C61.9934 43.3912 61.4456 43.6485 60.9416 43.6485C60.2622 43.6485 59.6925 43.3054 59.2323 42.6192C58.7502 41.9544 58.5092 41.1181 58.5092 40.1103C58.5092 39.4455 58.6406 38.427 58.9036 37.0546L60.9744 25.7967ZM65.149 11.869C65.7187 11.869 66.1789 12.0406 66.5295 12.3837C66.8801 12.7268 67.0554 13.1771 67.0554 13.7346C67.0554 14.2707 66.8692 14.721 66.4966 15.0856C66.1241 15.4501 65.6749 15.6324 65.149 15.6324C64.6449 15.6324 64.1957 15.4394 63.8013 15.0534C63.4068 14.6674 63.2096 14.2278 63.2096 13.7346C63.2096 13.22 63.3959 12.7804 63.7684 12.4159C64.1409 12.0513 64.6011 11.869 65.149 11.869Z" fill="#FF8F00"/>
<g clip-path="url(#clip0_5460_16336)">
<path d="M83.2608 7.22354C82.183 7.54612 80.7547 8.68643 79.5397 10.1953C78.1524 11.909 77.0537 14.4364 76.5115 17.1565C76.3333 18.0436 76.299 20.0154 76.4429 20.6831C76.7592 22.1129 76.9508 22.7218 77.3357 23.5291C77.9055 24.7041 78.6243 25.5847 79.7121 26.4169C80.0895 26.7081 80.3991 26.9815 80.3991 27.0194C80.3991 27.1 79.7464 27.304 78.785 27.529C77.3089 27.8734 76.0731 28.3629 75.3041 28.9C74.3912 29.5411 73.3268 30.5129 72.8942 31.1032C72.716 31.3411 72.5595 31.5467 72.537 31.5661C72.4893 31.6064 71.645 33.0685 71.645 33.1145C71.645 33.1282 71.5554 33.333 71.4458 33.5645C71.2101 34.0648 71.0325 34.5886 70.9162 35.1266C70.8266 35.5104 70.8057 35.7951 70.8409 36.5491C70.8609 37.0652 70.9162 37.5975 70.9572 37.7201C71.1245 38.1701 71.4032 38.7394 71.5956 38.991C71.6653 39.0787 71.7275 39.1718 71.7814 39.2693C71.7814 39.3217 72.1654 39.6789 72.5344 39.9773C73.1804 40.4934 73.8256 40.8241 74.7728 41.1281C75.6932 41.4192 76.3626 41.5055 77.7323 41.5055C78.9406 41.5055 79.4284 41.4596 80.4995 41.2475C80.7806 41.1942 81.0852 41.1281 81.1856 41.1152C81.481 41.0555 82.7754 40.6983 83.3143 40.5193C83.7972 40.3675 84.2681 40.1823 84.7234 39.9652C85.4104 39.6612 88.2185 37.8015 88.8427 37.2459C88.9532 37.1467 89.0561 37.0733 89.0628 37.0846C89.0695 37.0959 89.0218 37.3951 88.9456 37.7394C88.836 38.2233 88.8226 38.408 88.877 38.5136C88.9189 38.5862 88.9799 38.6459 89.0143 38.6459C89.2276 38.6459 89.7146 38.3749 90.3196 37.9201C90.697 37.6419 92.7838 35.7959 93.1687 35.4056C93.6632 34.9088 94.782 34.0685 95.5033 33.6645C96.0731 33.3475 97.5006 32.6854 98.1122 32.4669L99.4854 31.9645C100.694 31.5209 104.827 30.2105 105.857 29.9484C106.07 29.8951 106.413 29.8097 106.61 29.7564C106.808 29.7032 107.373 29.5847 107.86 29.4919C108.348 29.3992 108.924 29.2798 109.131 29.2339C109.618 29.1274 111.976 29.1347 112.494 29.2468C113.298 29.4193 113.593 29.5314 113.765 29.7306C113.978 29.9726 113.978 30.1476 113.771 30.5911C113.278 31.6693 111.815 33.0524 109.157 34.9782C106.942 36.5782 105.301 37.5459 104.532 37.7072C103.591 37.912 101.668 37.9257 99.4854 37.7531C98.0503 37.641 97.9407 37.6346 97.9407 37.7007C97.9407 37.9781 100.728 38.5806 101.998 38.5806C102.534 38.5806 102.884 38.7064 102.884 38.9031C102.884 39.2257 101.771 39.4394 100.069 39.4394C98.5515 39.4394 97.7893 39.3136 96.8764 38.9168C96.3685 38.6918 95.9082 38.5596 95.7886 38.5991C95.5551 38.6846 95.4112 39.1814 94.8414 41.8878C94.4983 43.5483 94.1887 44.4813 93.7017 45.4079C93.2966 46.1567 92.6877 46.785 91.9401 47.2254C91.1926 47.6659 90.3347 47.9018 89.4586 47.9079C88.6277 47.9079 88.2871 47.7031 88.1198 47.1136C88.0436 46.8361 88.0645 46.1281 88.1608 45.7176C88.2637 45.2805 88.3189 45.0491 88.4218 44.566C88.621 43.5983 88.662 43.3813 88.6963 42.912L88.7373 42.4483L88.5381 43.0773C87.8035 45.4063 87.2403 46.5184 86.8429 46.4386C86.6571 46.4055 86.5919 46.0878 86.6362 45.3095C86.6705 44.641 86.7048 44.4628 86.904 43.7773C87.0713 43.2128 87.893 41.9313 88.5381 41.2499C88.6181 41.1744 88.6853 41.0873 88.7373 40.9918C88.7994 40.8857 88.8757 40.7878 88.964 40.7007C89.4243 40.191 90.0761 39.4297 90.1355 39.3297C90.1765 39.2491 90.1698 39.237 90.1012 39.2773C89.923 39.3765 89.1808 39.866 89.0971 39.9322C89.0494 39.9717 88.7264 40.2434 88.3766 40.5346C87.9894 40.8528 87.6246 41.1954 87.2847 41.5604C86.8111 42.0765 86.2613 42.8176 86.2613 42.9313C86.2503 42.9902 86.2158 43.0426 86.1651 43.0773C86.1107 43.1233 85.966 43.4612 85.8363 43.8313C85.6229 44.4765 85.6095 44.5571 85.6162 45.466C85.6229 46.5644 85.7258 47.0539 86.0898 47.6829C86.4672 48.3377 86.8655 48.6224 87.9708 49.0329C88.452 49.2111 88.6101 49.2377 89.1933 49.2377C90.5388 49.2377 91.9881 48.7813 93.0315 48.0337C93.3202 47.8216 93.8005 47.2523 94.2121 46.624C94.4866 46.2007 95.1184 44.8902 95.2765 44.4071C95.7643 42.9184 95.8396 42.5475 96.094 40.2184C96.1626 39.5636 96.1894 39.4443 96.2856 39.4838C97.7826 40.0797 99.0318 40.2644 100.927 40.1652C101.949 40.1251 102.961 39.9606 103.939 39.6757C105.278 39.3056 106.741 38.6104 108.162 37.6644C109.261 36.9386 109.515 36.7572 109.748 36.5725C109.968 36.3806 110.14 36.2548 110.744 35.8048C111.554 35.2024 113.58 33.2967 114.239 32.529C114.431 32.3104 114.595 32.1185 114.616 32.0992C114.867 31.8572 115.9 30.5105 116.168 30.083C116.477 29.5798 116.546 29.4016 116.586 28.9645C116.614 28.6137 116.599 28.5282 116.455 28.3298C116.078 27.8 115.543 27.6476 113.654 27.5621C112.329 27.5024 110.695 27.6548 109.052 28.0056C107.513 28.3282 106.587 28.621 104.108 29.5669C102.083 30.3411 101.76 30.4605 100.572 30.8774C100.194 31.0002 99.8227 31.1415 99.4594 31.3008C99.144 31.4532 98.9239 31.479 98.8553 31.3734C98.8143 31.3072 98.8971 31.2209 99.6042 30.5992C99.9882 30.2621 100.194 29.9443 100.194 29.6927C100.194 29.5314 100.366 29.3355 101.211 28.5347C102.44 27.3637 103.195 26.4105 104.767 24.0613C105.079 23.5932 105.362 23.1071 105.612 22.6057C105.681 22.4597 105.804 22.2089 105.88 22.0412C106.257 21.267 106.525 19.8638 106.367 19.4936C106.312 19.3549 106.277 19.3323 106.257 19.3944C106.148 19.7057 105.564 21.1283 105.261 21.8097C104.582 23.3718 103.929 24.5629 103.346 25.3307C103.078 25.6807 102.062 26.925 101.98 27.0048C101.959 27.0242 101.812 27.1766 101.657 27.3484C101.501 27.5202 101.355 27.6331 101.335 27.6129C101.314 27.5927 101.293 27.6129 101.293 27.6597C101.293 27.7064 101.125 27.8847 100.936 28.0702C100.236 28.7153 99.8485 28.8701 99.8485 28.5C99.8485 28.3387 100.206 27.296 100.364 27.0048C101.208 25.4629 101.607 24.5492 102.135 22.9347C102.76 21.0621 102.856 20.738 102.98 20.142C103.096 19.5775 103.096 19.5073 102.986 18.9178C102.924 18.5807 102.815 18.1243 102.746 17.9057L102.639 17.5049L102.55 18.1331C102.502 18.4775 102.44 18.9275 102.406 19.1259C102.371 19.3243 102.309 19.7146 102.268 19.9863C101.96 21.9218 101.599 23.2283 101.06 24.4C101.005 24.5186 100.923 24.7178 100.868 24.8299C100.812 24.942 100.696 25.2137 100.6 25.4121C100.504 25.6105 100.349 25.9548 100.257 26.1734C100.165 26.3919 99.9891 26.7621 99.8795 27.0008C99.4879 27.8145 99.4259 27.9597 99.3506 28.2177C99.2611 28.5355 99.0553 28.6879 98.5331 28.8201C97.8947 28.9726 97.6127 29.1427 96.9132 29.7927C96.5559 30.1242 95.5811 31.0234 94.7502 31.7911C92.8625 33.5451 91.7429 34.533 91.3245 34.8024C91.261 34.8437 91.2011 34.8901 91.1455 34.9411C91.1254 34.9612 90.8501 35.133 90.5279 35.3185C87.3558 37.1515 84.0322 38.5539 81.6023 39.1031C80.2426 39.408 80.1464 39.4257 79.1306 39.5467C78.0244 39.6789 76.2948 39.6459 75.6999 39.4805C74.0724 39.037 73.2005 38.0249 72.9327 36.2911C72.7545 35.1201 74.4916 32.9225 76.1802 32.1951C76.3712 32.1199 76.5551 32.029 76.7299 31.9234C76.8289 31.8597 76.932 31.8023 77.0387 31.7516C77.155 31.6984 77.416 31.5596 77.6244 31.454L78.4896 30.9838C78.7641 30.8451 79.3824 30.5669 79.8627 30.375C80.343 30.183 80.7831 29.9984 80.8174 29.958C80.8651 29.9121 80.8451 29.9056 80.7622 29.9322C80.625 29.9847 79.6912 30.2234 78.5172 30.5145C77.2679 30.825 75.9291 31.1032 75.6723 31.1032C75.4865 31.1032 75.4321 31.0766 75.4321 30.9838C75.4321 30.6863 76.3659 29.7532 77.0111 29.4024C77.2971 29.2546 77.5958 29.1308 77.9039 29.0322C78.185 28.9395 78.6795 28.7669 79.0017 28.6484C80.7187 28.0258 82.3487 27.5298 82.5863 27.5427L82.8474 27.5694L81.9956 26.7686C80.8241 25.6766 80.2928 25.0282 79.6887 23.9363C79.359 23.3412 79.0017 22.2887 78.8921 21.6073C78.8645 21.4218 78.8377 21.2436 78.8302 21.2105C78.5967 20.1912 78.5791 18.0275 78.7892 16.8759C79.0845 15.2815 79.4686 14.4743 80.7137 12.8437C81.4065 11.9308 81.9353 11.58 82.4642 11.6727C82.7662 11.7251 83.2674 11.9832 83.741 12.3275C83.9469 12.48 84.146 12.6251 84.1879 12.6501C84.6682 12.9872 85.6639 13.7751 85.9861 14.0727C86.0625 14.1469 86.1466 14.2134 86.2371 14.2711C86.378 14.3671 86.5112 14.4733 86.6354 14.5888C87.3491 15.2243 87.9951 15.7533 87.9951 15.7178C87.9951 15.6823 86.8412 13.9775 86.7592 13.8985C86.6728 13.7923 86.5923 13.6816 86.5182 13.567C86.4019 13.4058 86.2672 13.2235 86.2095 13.1638C86.1331 13.0838 86.0643 12.9974 86.0036 12.9058C85.9519 12.827 85.8946 12.7518 85.8321 12.6808C85.7978 12.6412 85.6396 12.4558 85.489 12.2775C85.3384 12.0993 84.9033 11.6493 84.5209 11.2783C83.9712 10.7493 83.813 10.5574 83.7787 10.3655C83.6072 9.47191 84.7267 9.35982 85.894 10.1534C86.4153 10.5042 87.6654 11.5501 88.1733 12.0525C89.0728 12.9525 90.3706 14.4816 90.7756 15.117C90.8509 15.2364 90.9948 15.4348 91.0911 15.5606C91.4827 16.0573 92.6499 18.0356 93.434 19.5243C94.6431 21.8275 95.638 24.421 95.9953 26.1879C96.1049 26.7371 96.304 27.9879 96.3107 28.1597L96.3183 28.3589L96.3869 28.1532C96.4488 27.9613 96.3183 25.8952 96.2011 25.1492C95.899 23.2944 95.3501 21.4896 94.4849 19.5243C93.9427 18.3001 92.4182 15.759 90.9421 13.6154C90.6401 13.1783 90.3999 12.8211 90.3999 12.809C90.3999 12.7969 90.2275 12.5509 90.0217 12.2662C89.8159 11.9816 89.5966 11.6904 89.5414 11.6211C89.39 11.409 88.498 10.2501 88.3264 10.0396C87.7697 9.39276 87.1767 8.77571 86.55 8.19128C85.4104 7.1687 84.428 6.87758 83.2608 7.22354Z" fill="url(#paint0_linear_5460_16336)"/>
</g>
<defs>
<linearGradient id="paint0_linear_5460_16336" x1="93.7111" y1="10.4383" x2="93.7111" y2="63.5264" gradientUnits="userSpaceOnUse">
<stop stop-color="#FF8F00"/>
<stop offset="1" stop-color="#FF1100"/>
</linearGradient>
<clipPath id="clip0_5460_16336">
<rect width="55.9446" height="55.6423" fill="white" transform="translate(67.0557)"/>
</clipPath>
</defs>
</svg>
