<svg width="86" height="39" viewBox="0 0 86 39" fill="none" xmlns="http://www.w3.org/2000/svg">
<path d="M2.18334 30.1516H0L2.87281 17.2263C3.39375 14.8667 3.79211 12.5744 4.0679 10.3492C4.35901 8.03446 4.50457 5.83917 4.50457 3.76335C4.50457 3.18093 4.49691 2.77025 4.48159 2.5313L7.00966 1.41126V2.03848C7.00966 3.02412 6.91773 4.61459 6.73387 6.80988C6.55001 9.07984 6.35849 10.7674 6.15931 11.8725C7.12457 9.6772 8.28902 7.69098 9.65265 5.91384C11.0929 4.0471 12.5255 2.60597 13.9504 1.59047C15.4059 0.530155 16.7313 0 17.9263 0C19.1214 0 20.0867 0.462952 20.8221 1.38886C21.5423 2.34463 21.9023 3.59908 21.9023 5.15221C21.9023 7.10856 21.4657 9.08731 20.5923 11.0885C19.7343 13.0299 18.5469 14.8593 17.03 16.5767C15.5438 18.2343 13.8891 19.5485 12.0658 20.5192C10.2425 21.4899 8.45756 21.9753 6.71089 21.9753C6.26656 21.9753 5.79925 21.923 5.30896 21.8185L6.52703 20.228C7.26247 20.467 8.02855 20.5864 8.82528 20.5864C10.0817 20.5864 11.361 20.1683 12.6634 19.332C13.9351 18.4957 15.0765 17.3308 16.0877 15.8375C17.007 14.4785 17.8038 12.7461 18.4779 10.6404C19.1368 8.60942 19.4662 6.82481 19.4662 5.28662C19.4662 4.01723 19.2517 3.03906 18.8227 2.3521C18.3783 1.6502 17.7655 1.29925 16.9841 1.29925C15.8809 1.29925 14.6092 1.91155 13.169 3.13613C11.7441 4.34578 10.3345 6.01838 8.94019 8.15393C7.9596 9.64733 7.13223 11.2602 6.45808 12.9925C5.79925 14.7099 5.2017 16.7186 4.66545 19.0184L2.18334 30.1516Z" fill="#FF8F00"/>
<path d="M14.2951 38.104L15.4213 36.6255C16.3252 37.5514 17.3288 38.0144 18.432 38.0144C19.6271 38.0144 20.577 37.5589 21.2818 36.6479C22.0019 35.7071 22.5918 34.2137 23.0514 32.1677L24.1086 27.5307C22.4386 29.4572 20.9141 30.4204 19.5351 30.4204C18.7384 30.4204 18.1179 30.1815 17.6735 29.7036C17.2139 29.2257 16.9841 28.5836 16.9841 27.7771C16.9841 27.2395 17.053 26.6496 17.1909 26.0075L18.7537 17.9655L20.983 17.0471L18.7537 26.0747C18.5699 26.8064 18.4779 27.3515 18.4779 27.7099C18.4779 28.2177 18.6388 28.6284 18.9606 28.942C19.2517 29.2705 19.6654 29.4348 20.2016 29.4348C20.7685 29.4348 21.3967 29.1884 22.0862 28.6956C22.7144 28.2476 23.4728 27.5233 24.3614 26.5227L26.3379 17.9655L28.4983 17.0471L25.1428 30.2188C24.7905 31.6824 24.4151 32.9219 24.0167 33.9374C23.649 34.8334 23.2276 35.5801 22.7527 36.1775C21.2665 38.0592 19.4355 39 17.2599 39C15.9882 39 14.9999 38.7013 14.2951 38.104Z" fill="#FF8F00"/>
<path d="M33.2327 18.0999C33.294 17.7565 33.3246 17.4429 33.3246 17.1591C33.3246 16.6364 33.2403 16.2257 33.0718 15.9271C32.888 15.6284 32.6581 15.479 32.3823 15.479C32.2444 15.479 32.1142 15.5462 31.9916 15.6806C31.8691 15.8449 31.8078 16.0241 31.8078 16.2183C31.8078 16.9052 32.2827 17.5325 33.2327 18.0999ZM30.4978 24.1482L30.0841 23.7898C31.4171 22.2217 32.2981 20.7731 32.7271 19.444C31.486 18.772 30.8655 17.8087 30.8655 16.5543C30.8655 15.9569 31.011 15.4716 31.3022 15.0982C31.5933 14.7249 31.961 14.5382 32.4053 14.5382C32.865 14.5382 33.2403 14.7398 33.5315 15.143C33.8226 15.5612 33.9681 16.0988 33.9681 16.7559C33.9681 17.2039 33.8839 17.7191 33.7153 18.3016C34.0984 18.4061 34.4737 18.4584 34.8415 18.4584C35.7914 18.4584 36.5728 18.1895 37.1857 17.6519H38.2888L38.128 17.9655C37.0401 19.9069 36.1361 21.8409 35.416 23.7674C34.6959 25.6939 34.3358 27.12 34.3358 28.046C34.3358 28.3894 34.4278 28.6732 34.6116 28.8972C34.7955 29.1361 35.0177 29.2556 35.2781 29.2556C35.9063 29.2556 36.9175 28.606 38.3118 27.3067L38.6795 27.7099C38.2965 28.1281 37.63 28.703 36.6801 29.4348C35.8833 30.062 35.1249 30.3756 34.4048 30.3756C33.8226 30.3756 33.3553 30.1815 33.0029 29.7932C32.6505 29.4049 32.4743 28.8748 32.4743 28.2028C32.4743 27.0827 32.9186 25.664 33.8073 23.9466C34.083 23.3791 34.4967 22.6473 35.0483 21.7513C35.3547 21.2435 35.9906 20.2654 36.9559 18.8168L37.1857 18.5032C36.6801 18.9512 36.1974 19.2648 35.7378 19.444C35.2781 19.6381 34.7419 19.7352 34.129 19.7352C33.8839 19.7352 33.5927 19.6979 33.2557 19.6232C32.7654 21.1017 31.8461 22.61 30.4978 24.1482Z" fill="#FF8F00"/>
<path d="M42.6325 17.9655L44.8848 17.0471L42.8624 24.417C42.5253 25.5968 42.3567 26.5675 42.3567 27.3291C42.3567 27.807 42.441 28.1953 42.6095 28.494C42.7781 28.7926 43.0002 28.942 43.276 28.942C43.751 28.942 44.5094 28.3894 45.5513 27.2843L45.919 27.5979L45.6892 27.8443C44.8159 28.8449 44.1724 29.5169 43.7587 29.8604C43.345 30.2188 42.9619 30.398 42.6095 30.398C42.1346 30.398 41.7362 30.1591 41.4145 29.6812C41.0774 29.2183 40.9088 28.6358 40.9088 27.9339C40.9088 27.471 41.0008 26.7616 41.1846 25.8059L42.6325 17.9655ZM45.5513 8.26594C45.9497 8.26594 46.2714 8.38541 46.5166 8.62435C46.7617 8.8633 46.8843 9.17691 46.8843 9.56519C46.8843 9.93854 46.7541 10.2522 46.4936 10.506C46.2331 10.7599 45.919 10.8868 45.5513 10.8868C45.1989 10.8868 44.8848 10.7524 44.609 10.4836C44.3332 10.2148 44.1953 9.90867 44.1953 9.56519C44.1953 9.20678 44.3256 8.90063 44.586 8.64676C44.8465 8.39288 45.1683 8.26594 45.5513 8.26594Z" fill="#FF8F00"/>
<g clip-path="url(#clip0_5460_15253)">
<g clip-path="url(#clip1_5460_15253)">
<path d="M58.2147 5.03093C57.4611 5.25559 56.4624 6.04973 55.613 7.10055C54.643 8.29401 53.8748 10.0542 53.4957 11.9486C53.3711 12.5663 53.3471 13.9395 53.4477 14.4046C53.6689 15.4003 53.8028 15.8244 54.0719 16.3866C54.4704 17.2049 54.9729 17.8182 55.7335 18.3978C55.9973 18.6005 56.2138 18.7909 56.2138 18.8173C56.2138 18.8735 55.7575 19.0156 55.0852 19.1723C54.0532 19.4121 53.1891 19.753 52.6515 20.127C52.0132 20.5735 51.269 21.2503 50.9665 21.6614C50.8419 21.8271 50.7325 21.9703 50.7167 21.9838C50.6834 22.0119 50.0931 23.0301 50.0931 23.0621C50.0931 23.0717 50.0305 23.2143 49.9538 23.3755C49.789 23.7239 49.6648 24.0888 49.5835 24.4634C49.5209 24.7307 49.5063 24.929 49.5308 25.4541C49.5449 25.8135 49.5835 26.1842 49.6121 26.2696C49.7292 26.583 49.924 26.9795 50.0585 27.1547C50.1073 27.2158 50.1507 27.2806 50.1884 27.3485C50.1884 27.385 50.457 27.6338 50.715 27.8416C51.1666 28.201 51.6177 28.4313 52.28 28.643C52.9235 28.8458 53.3915 28.9059 54.3493 28.9059C55.1941 28.9059 55.5351 28.8739 56.284 28.7262C56.4806 28.6891 56.6935 28.643 56.7637 28.6341C56.9703 28.5925 57.8753 28.3437 58.2521 28.219C58.5897 28.1133 58.919 27.9844 59.2373 27.8332C59.7176 27.6214 61.681 26.3263 62.1175 25.9394C62.1947 25.8703 62.2667 25.8192 62.2714 25.827C62.276 25.8349 62.2427 26.0433 62.1895 26.2831C62.1128 26.6201 62.1035 26.7487 62.1415 26.8222C62.1707 26.8728 62.2134 26.9143 62.2374 26.9143C62.3866 26.9143 62.7271 26.7256 63.1501 26.4089C63.414 26.2151 64.8731 24.9295 65.1422 24.6577C65.4879 24.3117 66.2701 23.7265 66.7745 23.4451C67.1729 23.2244 68.171 22.7633 68.5986 22.6111L69.5587 22.2612C70.4035 21.9523 73.2936 21.0397 74.0138 20.8572C74.1624 20.8201 74.4023 20.7605 74.5403 20.7235C74.6784 20.6864 75.0733 20.6039 75.4144 20.5393C75.7555 20.4747 76.158 20.3916 76.3025 20.3595C76.643 20.2854 78.2917 20.2905 78.6544 20.3685C79.216 20.4887 79.4226 20.5668 79.5425 20.7055C79.6917 20.874 79.6917 20.9959 79.5472 21.3048C79.202 22.0557 78.1793 23.0189 76.3212 24.36C74.772 25.4743 73.6247 26.1483 73.0871 26.2606C72.4295 26.4033 71.0851 26.4128 69.5587 26.2926C68.5553 26.2146 68.4787 26.2101 68.4787 26.2561C68.4787 26.4493 70.4275 26.8689 71.3156 26.8689C71.69 26.8689 71.9351 26.9565 71.9351 27.0935C71.9351 27.3182 71.157 27.467 69.9665 27.467C68.9058 27.467 68.3728 27.3794 67.7345 27.1031C67.3794 26.9464 67.0576 26.8543 66.974 26.8818C66.8107 26.9413 66.7101 27.2873 66.3117 29.1721C66.0718 30.3285 65.8553 30.9783 65.5149 31.6236C65.2316 32.1451 64.8058 32.5827 64.2832 32.8894C63.7605 33.1961 63.1607 33.3604 62.5481 33.3647C61.9671 33.3647 61.729 33.222 61.612 32.8115C61.5588 32.6183 61.5734 32.1252 61.6407 31.8393C61.7126 31.5349 61.7513 31.3737 61.8232 31.0373C61.9625 30.3633 61.9911 30.2122 62.0151 29.8854L62.0438 29.5624L61.9045 30.0005C61.3909 31.6225 60.9971 32.397 60.7192 32.3414C60.5894 32.3184 60.5437 32.0971 60.5747 31.5551C60.5987 31.0895 60.6227 30.9654 60.7619 30.488C60.879 30.0949 61.4535 29.2024 61.9045 28.7279C61.9604 28.6753 62.0074 28.6146 62.0438 28.5481C62.0872 28.4742 62.1405 28.4061 62.2023 28.3454C62.5241 27.9904 62.9798 27.4603 63.0214 27.3906C63.0501 27.3344 63.0454 27.326 62.9974 27.3541C62.8728 27.4232 62.3539 27.7641 62.2953 27.8101C62.262 27.8377 62.0362 28.0269 61.7916 28.2297C61.5209 28.4513 61.2658 28.6899 61.0281 28.9441C60.697 29.3035 60.3126 29.8197 60.3126 29.8989C60.3049 29.9399 60.2808 29.9764 60.2453 30.0005C60.2073 30.0325 60.1061 30.2678 60.0154 30.5256C59.8662 30.9749 59.8569 31.0311 59.8616 31.6641C59.8662 32.429 59.9382 32.7699 60.1927 33.208C60.4565 33.664 60.735 33.8623 61.5079 34.1482C61.8443 34.2723 61.9548 34.2908 62.3626 34.2908C63.3034 34.2908 64.3167 33.9729 65.0462 33.4523C65.2481 33.3046 65.5839 32.9081 65.8717 32.4706C66.0636 32.1757 66.5053 31.2631 66.6159 30.9266C66.957 29.8899 67.0096 29.6315 67.1875 28.0095C67.2355 27.5535 67.2542 27.4704 67.3215 27.4979C68.3681 27.9129 69.2416 28.0415 70.5667 27.9725C71.2809 27.9445 71.9886 27.83 72.6729 27.6315C73.609 27.3738 74.6316 26.8896 75.6256 26.2308C76.3938 25.7254 76.571 25.599 76.7343 25.4704C76.8881 25.3367 77.0081 25.2491 77.4305 24.9357C77.9968 24.5162 79.4132 23.189 79.8742 22.6544C80.0082 22.5022 80.1234 22.3685 80.1381 22.355C80.3136 22.1865 81.0355 21.2486 81.2227 20.9509C81.4392 20.6005 81.4872 20.4764 81.5153 20.172C81.5346 19.9276 81.5246 19.8681 81.424 19.73C81.1601 19.361 80.7857 19.2548 79.4653 19.1953C78.5391 19.1537 77.3965 19.2599 76.2475 19.5042C75.1716 19.7288 74.524 19.9327 72.7911 20.5915C71.3747 21.1307 71.1488 21.2138 70.3187 21.5041C70.0542 21.5897 69.7945 21.6881 69.5405 21.799C69.32 21.9052 69.1661 21.9231 69.1181 21.8496C69.0895 21.8035 69.1474 21.7434 69.6418 21.3104C69.9103 21.0756 70.0542 20.8543 70.0542 20.6791C70.0542 20.5668 70.1747 20.4303 70.765 19.8726C71.6245 19.0571 72.1522 18.3933 73.2515 16.7572C73.4699 16.4313 73.6672 16.0927 73.8424 15.7435C73.8904 15.6418 73.9764 15.4672 74.0296 15.3504C74.2935 14.8112 74.4807 13.8339 74.3701 13.5762C74.3321 13.4796 74.3075 13.4638 74.2935 13.5071C74.2168 13.7239 73.8085 14.7146 73.5973 15.1892C73.1222 16.277 72.6659 17.1066 72.2581 17.6412C72.0709 17.885 71.36 18.7516 71.3027 18.8072C71.2881 18.8207 71.1857 18.9268 71.0769 19.0464C70.9681 19.1661 70.8657 19.2447 70.8516 19.2307C70.8376 19.2166 70.8224 19.2307 70.8224 19.2632C70.8224 19.2958 70.7054 19.4199 70.5732 19.5491C70.0835 19.9984 69.8126 20.1062 69.8126 19.8485C69.8126 19.7361 70.0624 19.0099 70.173 18.8072C70.7633 17.7334 71.0418 17.097 71.4115 15.9726C71.848 14.6685 71.9152 14.4428 72.0018 14.0277C72.0832 13.6346 72.0832 13.5857 72.0065 13.1752C71.9632 12.9404 71.8866 12.6225 71.8386 12.4703L71.7637 12.1912L71.7011 12.6287C71.6678 12.8685 71.6245 13.1819 71.6005 13.3201C71.5765 13.4582 71.5332 13.73 71.5045 13.9193C71.2887 15.2672 71.0365 16.1771 70.6597 16.9931C70.6211 17.0757 70.5638 17.2144 70.5252 17.2925C70.4866 17.3705 70.4052 17.5598 70.338 17.698C70.2707 17.8361 70.1625 18.076 70.0981 18.2282C70.0337 18.3804 69.9109 18.6381 69.8342 18.8044C69.5604 19.3711 69.5171 19.4722 69.4645 19.6519C69.4019 19.8732 69.258 19.9793 68.8929 20.0714C68.4465 20.1776 68.2494 20.2961 67.7603 20.7488C67.5104 20.9796 66.8289 21.6058 66.2479 22.1405C64.9281 23.362 64.1453 24.05 63.8527 24.2376C63.8083 24.2664 63.7664 24.2987 63.7275 24.3342C63.7135 24.3483 63.521 24.4679 63.2958 24.5971C61.0779 25.8736 58.7541 26.8503 57.0551 27.2328C56.1044 27.4451 56.0371 27.4574 55.3269 27.5417C54.5534 27.6338 53.3442 27.6108 52.9282 27.4956C51.7903 27.1867 51.1807 26.4819 50.9934 25.2744C50.8688 24.4589 52.0834 22.9284 53.264 22.4219C53.3976 22.3695 53.5262 22.3062 53.6484 22.2326C53.7176 22.1882 53.7897 22.1483 53.8643 22.113C53.9456 22.0759 54.1281 21.9793 54.2738 21.9057L54.8787 21.5783C55.0706 21.4817 55.503 21.2879 55.8388 21.1543C56.1746 21.0206 56.4823 20.892 56.5063 20.8639C56.5397 20.8319 56.5256 20.8274 56.4677 20.8459C56.3718 20.8824 55.7189 21.0487 54.898 21.2514C54.0246 21.4676 53.0885 21.6614 52.9089 21.6614C52.779 21.6614 52.741 21.6429 52.741 21.5783C52.741 21.371 53.3939 20.7212 53.845 20.4769C54.045 20.374 54.2538 20.2878 54.4692 20.2191C54.6658 20.1545 55.0115 20.0344 55.2368 19.9518C56.4373 19.5182 57.577 19.1728 57.7431 19.1818L57.9256 19.2003L57.3301 18.6426C56.511 17.8822 56.1395 17.4306 55.7171 16.6702C55.4866 16.2557 55.2368 15.5228 55.1601 15.0482C55.1408 14.919 55.1221 14.7949 55.1168 14.7719C54.9536 14.062 54.9413 12.5551 55.0882 11.7531C55.2947 10.6428 55.5632 10.0806 56.4338 8.94494C56.9182 8.30918 57.2879 8.06487 57.6577 8.12946C57.8689 8.16596 58.2193 8.34568 58.5505 8.5855C58.6944 8.69165 58.8336 8.79274 58.8629 8.81015C59.1987 9.04491 59.8949 9.59363 60.1201 9.80087C60.1736 9.85255 60.2324 9.89885 60.2957 9.93903C60.3942 10.0059 60.4873 10.0799 60.5741 10.1603C61.0732 10.6029 61.5248 10.9713 61.5248 10.9466C61.5248 10.9219 60.7181 9.7346 60.6607 9.67956C60.6003 9.60557 60.544 9.52852 60.4922 9.44873C60.4109 9.3364 60.3167 9.20947 60.2764 9.16791C60.223 9.11217 60.1748 9.05203 60.1324 8.98819C60.0963 8.93335 60.0562 8.88099 60.0125 8.8315C59.9885 8.80398 59.8779 8.6748 59.7726 8.55068C59.6673 8.42656 59.3631 8.11317 59.0957 7.85482C58.7114 7.48639 58.6008 7.35272 58.5768 7.21905C58.4569 6.59676 59.2397 6.5187 60.0558 7.07134C60.4203 7.31565 61.2943 8.04409 61.6495 8.39398C62.2784 9.02077 63.1858 10.0856 63.4689 10.5282C63.5216 10.6113 63.6222 10.7495 63.6895 10.8371C63.9633 11.183 64.7794 12.5607 65.3276 13.5975C66.173 15.2015 66.8686 17.0077 67.1185 18.2383C67.1951 18.6207 67.3343 19.4918 67.339 19.6115L67.3443 19.7502L67.3923 19.607C67.4356 19.4733 67.3443 18.0344 67.2624 17.5149C67.0512 16.2231 66.6674 14.9662 66.0625 13.5975C65.6833 12.7449 64.6174 10.9752 63.5854 9.48243C63.3742 9.17802 63.2063 8.92922 63.2063 8.92079C63.2063 8.91237 63.0857 8.74107 62.9418 8.54282C62.7979 8.34456 62.6446 8.14181 62.606 8.09351C62.5001 7.9458 61.8765 7.13874 61.7565 6.99215C61.3673 6.54164 60.9526 6.11191 60.5145 5.70489C59.7176 4.99274 59.0308 4.78999 58.2147 5.03093Z" fill="url(#paint0_linear_5460_15253)"/>
</g>
</g>
<defs>
<linearGradient id="paint0_linear_5460_15253" x1="65.5214" y1="7.26979" x2="65.5214" y2="44.2419" gradientUnits="userSpaceOnUse">
<stop stop-color="#FF8F00"/>
<stop offset="1" stop-color="#FF1100"/>
</linearGradient>
<clipPath id="clip0_5460_15253">
<rect width="39.1157" height="38.7509" fill="white" transform="translate(46.8843)"/>
</clipPath>
<clipPath id="clip1_5460_15253">
<rect width="39.1157" height="38.7509" fill="white" transform="translate(43.0005 0.236816)"/>
</clipPath>
</defs>
</svg>
