<svg width="233" height="210" viewBox="0 0 233 210" fill="none" xmlns="http://www.w3.org/2000/svg">
<g clip-path="url(#clip0_5460_15271)">
<g filter="url(#filter0_b_5460_15271)">
<path d="M12.1405 107.432C13.1293 90.8531 5.81696 79.0941 16.0103 66.5222C22.3238 58.7314 46.6532 48.8636 52.9667 41.0779C55.0863 38.4642 57.2386 35.8167 59.9386 33.8991C67.3214 28.6517 76.9958 29.8731 85.8586 30.3355C92.4046 30.6773 99.0121 30.4888 105.436 29.1053C121.735 25.5945 135.683 14.7478 151.024 7.91204C158.042 4.78379 165.402 2.48954 172.954 1.07631C179.889 -0.217953 187.187 -0.720582 193.837 1.74481C200.487 4.21019 206.353 10.204 207.209 17.6479C207.688 21.8122 206.61 25.9815 206.348 30.1659C206.087 34.3502 206.918 39.0775 210.129 41.5039C212.726 43.4666 216.201 43.4202 219.134 44.7446C226.578 48.1097 228.079 58.6724 227.107 67.2246C226.134 75.7768 223.911 85.0038 227.735 92.5934C228.796 94.6982 230.278 96.5466 231.22 98.7142C232.351 101.309 232.639 104.219 232.8 107.074C233.701 123.012 230.967 139.169 224.899 153.771C223.894 156.201 222.748 158.649 220.927 160.466C218.665 162.719 215.594 163.779 213.054 165.663C210.202 167.778 208.099 170.873 205.306 173.077C200.101 177.186 193.225 177.726 186.758 178.121C168.734 179.214 150.411 180.282 132.84 175.859C112.952 170.859 94.1422 158.895 73.7304 160.026C63.0081 160.619 51.9729 164.817 41.826 161.076C36.8104 159.227 32.4682 155.397 29.728 150.566C26.8218 145.447 26.9362 139.084 23.7398 134.157C21.6115 130.876 18.1236 129.101 15.9236 125.908C12.4521 120.878 11.7799 113.476 12.1405 107.432Z" fill="#FEE4CB" fill-opacity="0.3"/>
</g>
<path opacity="0.2" d="M230.684 135.031C231.776 129.828 232.481 124.551 232.792 119.244C222.562 117.666 212.104 116.893 202.341 113.829C201.997 112.711 203.297 111.754 204.483 111.237C208.976 109.282 214.306 108.85 219.137 110.033C220.845 110.454 222.484 111.067 224.192 111.487C227.045 112.19 230.006 112.335 232.967 112.137C232.953 110.451 232.899 108.767 232.804 107.083C232.679 104.87 232.475 102.626 231.865 100.52C227.171 100.596 222.441 100.645 217.824 99.9367C210.914 98.8724 204.112 96.1105 197.182 97.0642C192.942 97.6485 189.115 99.5849 185.003 100.661C176.654 102.847 167.703 101.388 158.995 101.564C155.728 101.631 152.336 101.967 149.54 103.463C146.745 104.958 144.742 107.888 145.503 110.669C146.277 113.499 149.472 115.242 152.49 116.472C158.061 118.73 163.891 120.287 169.845 121.107C177.771 122.206 185.857 122.021 193.834 122.786C195.741 122.97 197.738 123.24 199.261 124.261C200.506 125.098 201.287 126.341 202.27 127.413C205.768 131.23 211.595 132.69 217.095 133.595C221.591 134.355 226.129 134.835 230.684 135.031Z" fill="white"/>
<path opacity="0.5" d="M113.417 52.21C114.265 48.9806 117.573 46.5717 121.526 46.5717C122.233 46.5713 122.937 46.6497 123.627 46.8055C125.578 43.1614 129.812 40.6344 134.722 40.6344C135.953 40.6327 137.178 40.7946 138.366 41.1157C141.004 37.292 145.811 34.7349 151.298 34.7349C157.825 34.7349 163.385 38.3538 165.496 43.4215C167.066 42.6638 168.788 42.2732 170.531 42.2793C176.253 42.2793 180.892 46.3317 180.892 51.3266C180.892 51.6205 180.875 51.9142 180.842 52.2062L113.417 52.21Z" fill="white"/>
<path opacity="0.5" d="M90.0212 47.098C89.7862 46.2083 88.8741 45.5436 87.7848 45.5436C87.5899 45.5435 87.3957 45.565 87.2055 45.6077C86.6665 44.6024 85.4993 43.9063 84.1449 43.9063C83.8054 43.9058 83.4674 43.9506 83.1398 44.0395C82.411 42.984 81.0868 42.2803 79.574 42.2803C77.7736 42.2803 76.2407 43.278 75.659 44.6766C75.2263 44.4671 74.7514 44.3592 74.2707 44.3612C72.6926 44.3612 71.4136 45.4782 71.4136 46.858C71.4137 46.9386 71.4183 47.0191 71.4274 47.0992L90.0212 47.098Z" fill="white"/>
<path opacity="0.5" d="M199.908 16.7471C199.572 15.4691 198.265 14.5167 196.702 14.5167C196.422 14.5166 196.144 14.5478 195.871 14.6096C195.1 13.1684 193.425 12.1694 191.484 12.1694C190.997 12.1685 190.512 12.2327 190.042 12.3604C188.997 10.8525 187.097 9.83594 184.929 9.83594C182.348 9.83594 180.154 11.2684 179.316 13.2714C178.695 12.9723 178.014 12.818 177.325 12.8203C175.063 12.8203 173.229 14.4224 173.229 16.399C173.229 16.5153 173.235 16.6315 173.248 16.7471H199.908Z" fill="white"/>
<path opacity="0.5" d="M226.877 56.6668C224.892 55.179 222.312 54.2793 219.492 54.2793C215.367 54.2793 211.755 56.2031 209.767 59.0794C208.873 58.837 207.951 58.7148 207.025 58.7162C203.333 58.7162 200.149 60.6162 198.681 63.358C198.163 63.2402 197.633 63.1812 197.102 63.1821C194.129 63.1821 191.642 64.9928 191.003 67.4217H227.084L227.107 67.227C227.492 63.8292 227.489 60.1198 226.877 56.6668Z" fill="white"/>
<path opacity="0.5" d="M17.3257 65.1098H57.3842C56.756 62.7224 54.3047 60.9318 51.376 60.9318C50.8523 60.9313 50.3301 60.9895 49.8193 61.1052C48.3731 58.4048 45.2359 56.5325 41.5973 56.5325C40.6854 56.5317 39.7775 56.6517 38.8972 56.8894C37.8906 55.4607 36.5489 54.3009 34.9897 53.5117C28.0769 57.4963 21.0849 61.4897 17.3257 65.1098Z" fill="white"/>
<path opacity="0.2" d="M225.432 51.6407C224.134 48.5848 222.109 46.0892 219.134 44.7434C216.201 43.419 212.726 43.4655 210.129 41.5027C208.536 40.3002 207.529 38.5297 206.95 36.5406C194.78 36.5305 182.576 36.9929 170.784 34.5552C169.8 34.3516 168.781 34.1091 168.029 33.521C166.403 32.2494 166.741 29.7965 168.197 28.3779C169.653 26.9592 171.859 26.3422 173.984 25.91C184.718 23.7273 195.811 24.7162 206.875 25.3609C207.206 22.7862 207.503 20.2152 207.209 17.6468C207.112 16.8145 206.952 15.9907 206.73 15.1827C195.866 15.5282 184.984 14.195 174.117 14.4463C172.873 14.4752 171.534 14.5556 170.57 15.243C169.702 15.8612 169.314 16.8438 168.718 17.6694C166.913 20.1524 163.33 21.0621 160.062 21.7683L124.582 29.5C121.366 30.2012 117.988 30.979 115.617 33.0021C111.5 36.5204 112.476 43.4203 117.445 45.9573C120.36 47.445 123.926 47.4538 127.302 47.4224L143.035 47.2742C146.622 47.2415 150.322 47.2252 153.639 48.4277C156.722 49.546 159.237 51.6407 162.308 52.7855C165.667 54.042 169.433 54.0672 173.086 54.076L213.494 54.179C216.603 54.1878 219.811 54.179 222.676 53.1222C223.658 52.7579 224.586 52.2594 225.432 51.6407Z" fill="white"/>
<path d="M23.2808 72.4656C27.2574 71.586 26.5186 78.0548 26.2523 79.7863C27.4697 80.4521 28.63 81.2174 29.7213 82.0745C29.2451 79.9962 27.6281 78.8075 27.711 77.4089C27.804 75.8432 28.8832 74.2775 30.6271 76.4954C32.0092 78.2546 30.7076 81.2264 30.107 82.3849C31.507 83.5271 32.7672 84.8309 33.8612 86.269C33.6438 83.7898 31.9238 82.1901 32.1826 80.6144C32.4653 78.8891 33.8272 77.3096 35.4782 80.0288C36.8427 82.2756 34.8613 85.564 34.1326 86.6371C34.5501 87.2032 34.9236 87.8006 35.2495 88.424C35.9343 89.774 36.5499 91.158 37.0939 92.5707C36.9507 90.3842 35.7496 88.7055 36.1604 87.3069C36.6517 85.6281 38.1845 84.266 39.4673 87.2428C40.4813 89.5989 38.368 92.4211 37.4407 93.4993C38.4007 96.1639 39.1025 98.9146 39.5364 101.713C40.0654 99.7268 39.5364 96.5427 40.5868 94.889C41.2753 93.8033 42.1033 93.7745 42.6813 93.9428C42.9315 94.0225 43.159 94.1609 43.3448 94.3465C43.5306 94.5321 43.6693 94.7595 43.7492 95.0097C44.8147 98.0078 40.8431 101.272 39.6093 102.197C40.0126 104.996 40.1489 107.826 40.0164 110.65C40.2978 109.626 40.7162 108.077 40.9022 107.257C41.1949 105.974 42.1787 104.377 43.2517 103.968L43.3836 103.922C44.2116 103.671 45.0169 104.174 45.3323 105.04C46.5372 108.417 41.1409 111.03 39.9636 111.554C39.9636 111.571 39.9636 111.588 39.9636 111.604C39.5402 117.653 38.0501 121.499 37.9873 121.656L37.4734 121.43C37.4885 121.394 38.9044 117.731 39.3643 112.079C34.62 109.718 34.3135 105.977 35.3802 104.999C36.4821 103.988 38.5564 104.204 38.6682 106.867C38.7323 108.411 39.1206 109.994 39.4347 111.052C39.5966 108.172 39.4737 105.283 39.0678 102.427C32.0419 101.887 33.0081 96.995 34.6841 96.3617C36.3803 95.7196 37.2309 96.7739 37.6995 98.9226C37.9444 100.018 38.3853 101.061 39.0012 102C38.5847 99.2506 37.9056 96.5475 36.9733 93.9278C35.8564 94.6704 32.8925 96.3542 31.141 94.6126C28.9523 92.4375 30.4914 91.0841 32.0331 90.9685C33.4503 90.858 34.6577 93.0092 36.8251 93.5231C36.2284 91.8971 35.5361 90.3077 34.752 88.7633C34.7394 88.7369 34.0421 87.3458 32.4502 85.5301C31.4061 86.4273 28.6483 88.4793 26.7109 87.0242C24.2784 85.1959 25.6655 83.6427 27.1933 83.3047C28.5566 83.0031 29.9575 84.8252 32.077 85.1129C30.3341 83.2318 28.301 81.6421 26.055 80.4046C24.9657 81.3269 22.277 83.272 20.3785 81.8446C17.9461 80.0163 19.3332 78.4644 20.861 78.1264C22.243 77.8198 23.6678 79.6996 25.8339 79.9459L25.8615 79.8856C25.2735 79.2925 24.0234 78.0422 23.3952 77.4793C22.5571 76.7253 21.8435 75.1948 22.0948 74.0074C22.1544 73.6741 22.2932 73.36 22.4997 73.0917C22.7061 72.8233 22.974 72.6086 23.2808 72.4656Z" fill="#07085B"/>
<path d="M16.9209 103.676L8.98782 100.638C8.03671 94.6064 7.58691 89.501 7.58691 89.501C17.3581 90.6909 24.6592 94.3036 30.1171 99.0396L30.5355 108.796L33.6489 102.532C46.291 116.709 46.2596 137.011 46.2596 137.011C46.2596 137.011 19.5581 123.985 14.6631 119.112C12.7785 117.227 11.2871 112.388 10.1751 107.151C13.0436 105.894 16.9209 103.676 16.9209 103.676Z" fill="#06BFAD"/>
<path d="M7.58691 89.501C7.58691 89.501 37.8051 117.433 46.2621 137.009C46.2621 137.009 19.5606 123.984 14.6656 119.111C12.781 117.226 11.2896 112.387 10.1777 107.149C13.041 105.893 16.9209 103.676 16.9209 103.676L8.98782 100.638C8.03671 94.6077 7.58691 89.501 7.58691 89.501Z" fill="#02CCC0"/>
<path d="M2.28982 98.1724C4.73356 96.2059 6.43601 100.917 6.84937 102.202C7.91701 102.245 8.97934 102.375 10.0256 102.592C8.98529 101.323 7.46125 101.055 7.04035 100.064C6.56668 98.9515 6.77524 97.5014 8.73778 98.43C10.2932 99.1688 10.4151 101.664 10.3988 102.671C11.7558 102.978 13.0717 103.445 14.3188 104.062C13.3137 102.428 11.5848 101.913 11.223 100.737C10.8272 99.4503 11.223 97.8934 13.2948 99.2028C15.0073 100.286 14.7673 103.233 14.6329 104.229C15.1147 104.476 15.5767 104.76 16.015 105.078C16.9489 105.774 17.8471 106.516 18.7062 107.303C17.8582 105.842 16.4547 105.097 16.2575 103.993C16.0213 102.666 16.6118 101.199 18.519 102.814C20.0267 104.091 19.5367 106.762 19.2666 107.824C20.8419 109.333 22.2686 110.99 23.5271 112.771C23.2118 111.219 21.7556 109.204 21.9126 107.703C22.0157 106.718 22.5773 106.414 23.0334 106.334C23.2331 106.303 23.4373 106.32 23.6291 106.384C23.8208 106.448 23.9943 106.557 24.1352 106.702C25.8942 108.406 24.2785 112.019 23.7432 113.08C24.9812 114.872 26.0456 116.777 26.922 118.77C26.7649 117.967 26.5224 116.76 26.3717 116.131C26.1342 115.146 26.2661 113.707 26.8654 113.056C26.8906 113.029 26.9157 113.004 26.9408 112.98C27.4258 112.522 28.1583 112.592 28.6672 113.082C30.6573 114.998 27.8304 118.651 27.1984 119.416L27.2135 119.452C28.9951 123.769 29.2853 126.933 29.2966 127.065L28.8657 127.085C28.8657 127.053 28.5842 124.043 26.9634 119.986C22.8813 119.986 21.3874 117.51 21.7882 116.468C22.2029 115.392 23.7068 114.834 24.6956 116.629C25.2447 117.578 25.9043 118.459 26.6607 119.253C25.7843 117.211 24.7091 115.261 23.4505 113.43C18.4248 115.465 17.4096 111.761 18.3469 110.749C19.2842 109.738 20.2454 110.16 21.3083 111.479C21.8522 112.152 22.5138 112.72 23.2608 113.156C22.03 111.403 20.6349 109.772 19.0945 108.284C18.5793 109.179 17.1118 111.356 15.3064 110.757C13.0511 110.003 13.6491 108.545 14.6706 107.933C15.6104 107.372 17.1835 108.436 18.852 108.059C17.8832 107.142 16.8607 106.283 15.7901 105.487C15.7725 105.473 14.8151 104.753 13.0951 104.046C12.6817 105.022 11.4831 107.384 9.64868 107.044C7.34315 106.618 7.76405 105.071 8.70637 104.313C9.54314 103.638 11.1363 104.413 12.6943 103.886C10.8475 103.186 8.90045 102.787 6.92727 102.704C6.49129 103.709 5.30397 105.971 3.50478 105.643C1.2005 105.217 1.62014 103.67 2.56246 102.913C3.4118 102.229 5.03887 103.039 6.61694 102.464V102.406C6.00883 102.198 4.71722 101.764 4.09153 101.592C3.256 101.362 2.23705 100.549 2.00335 99.6438C1.93019 99.3935 1.91801 99.1293 1.96785 98.8733C2.01769 98.6173 2.12809 98.377 2.28982 98.1724Z" fill="#FEB546"/>
<path d="M0.0322266 113.9C5.89344 112.716 11.3036 112.907 16.2175 113.982C16.9713 116.188 17.9312 118.809 17.9312 118.809L19.5646 114.869C37.8468 120.568 48.3819 138.022 48.3819 138.022C35.5852 140.813 26.0427 139.404 18.9816 136.178C19.0582 134.619 19.2052 132.309 19.2052 132.309L16.754 135.06C13.7261 133.392 10.9757 131.264 8.60103 128.751C9.88635 127.329 11.2961 125.68 11.2961 125.68L6.62091 126.478C1.55627 120.151 0.0322266 113.9 0.0322266 113.9Z" fill="#55769F"/>
<path d="M18.9728 136.178C19.0494 134.619 19.1964 132.309 19.1964 132.309L16.7452 135.061C13.7173 133.392 10.9669 131.264 8.59224 128.751C9.87756 127.329 11.2873 125.68 11.2873 125.68L6.61211 126.478C1.55627 120.151 0.0322266 113.9 0.0322266 113.9C21.8651 119.074 48.3781 138.026 48.3781 138.026C35.5815 140.813 26.0389 139.402 18.9728 136.178Z" fill="#07085B"/>
<path d="M210.438 104.373L215.661 101.658C215.84 97.431 215.75 93.8799 215.75 93.8799C209.115 95.4682 206.101 96.8127 202.715 100.503L202.119 106.129L199.866 102.877C192.276 113.633 192.855 129.632 192.855 129.632C192.855 129.632 210.217 118.564 213.203 114.823C214.358 113.379 215 109.922 215.353 106.234C213.284 105.596 210.438 104.373 210.438 104.373Z" fill="#06BFAD"/>
<path d="M215.75 93.8799C215.75 93.8799 197.14 115.493 192.855 129.632C192.855 129.632 210.217 118.564 213.203 114.823C214.358 113.379 215 109.922 215.353 106.234C213.284 105.596 210.438 104.373 210.438 104.373L215.661 101.658C215.84 97.431 215.75 93.8799 215.75 93.8799Z" fill="#02CCC0"/>
<path d="M222.866 110.085C219.101 109.743 215.307 110.196 211.728 111.414C211.383 112.993 210.928 114.872 210.928 114.872L209.497 112.288C197.356 117.649 191.475 130.497 191.475 130.497C200.505 131.411 206.964 129.69 211.577 126.913C211.401 125.847 211.119 124.267 211.119 124.267L213.024 125.969C214.977 124.582 216.704 122.9 218.141 120.983C217.143 120.104 216.044 119.082 216.044 119.082L219.326 119.263C222.312 114.509 222.866 110.085 222.866 110.085Z" fill="#FF5B7E"/>
<path d="M211.58 126.909C211.404 125.843 211.121 124.263 211.121 124.263L213.026 125.965C214.98 124.578 216.706 122.896 218.144 120.979C217.146 120.1 216.047 119.078 216.047 119.078L219.328 119.259C222.312 114.505 222.87 110.086 222.87 110.086C208.244 115.364 191.479 130.498 191.479 130.498C200.508 131.411 206.968 129.69 211.58 126.909Z" fill="#E03268"/>
<path d="M197.204 68.7664L120.079 51.6821V172.566L197.204 188.848V68.7664Z" fill="#1C2072"/>
<path d="M199.223 188.818L197.204 188.848V67.9547L199.223 67.9258V188.818Z" fill="#07085B"/>
<path d="M120.079 51.6822L120.964 51.0137L199.223 67.9258L197.204 68.7665L120.079 51.6822Z" fill="#4D5296"/>
<path d="M42.9531 68.7664L120.079 51.6821V172.566L42.9531 188.848V68.7664Z" fill="#1C2072"/>
<path d="M46.188 69.91L114.735 52.8848C114.735 52.8848 118.334 54.3926 120.078 54.1878L87.5004 81.4214C87.5004 81.4214 64.9338 84.3442 64.3533 83.3716C63.7729 82.399 46.188 69.91 46.188 69.91Z" fill="#EAF5F9"/>
<path d="M46.188 188.279L54.9226 192.188V73.8179L46.188 69.9087V188.279Z" fill="#DAEEF7"/>
<path d="M120.078 172.566L54.9229 192.188V73.8088L120.078 54.1875V172.566Z" fill="#CAE2EA"/>
<g style="mix-blend-mode:multiply" opacity="0.5">
<path d="M113.55 73.5327L61.4512 89.2222V80.6964L113.55 65.0068V73.5327Z" fill="#CAE2EA"/>
</g>
<g style="mix-blend-mode:multiply" opacity="0.5">
<path d="M113.55 77.2493L80.7788 87.1184V85.5879L113.55 75.7188V77.2493Z" fill="#CAE2EA"/>
</g>
<g style="mix-blend-mode:multiply" opacity="0.5">
<path d="M113.55 81.0759L80.7788 90.945V89.4145L113.55 79.5454V81.0759Z" fill="#CAE2EA"/>
</g>
<g style="mix-blend-mode:multiply" opacity="0.5">
<path d="M113.55 84.9006L80.7788 94.7697V93.2392L113.55 83.3701V84.9006Z" fill="#CAE2EA"/>
</g>
<g style="mix-blend-mode:multiply" opacity="0.5">
<path d="M113.55 88.7268L80.7788 98.5959V97.0654L113.55 87.1963V88.7268Z" fill="#CAE2EA"/>
</g>
<g style="mix-blend-mode:multiply" opacity="0.5">
<path d="M113.55 92.5517L80.7788 102.421V100.892L113.55 91.0225V92.5517Z" fill="#CAE2EA"/>
</g>
<g style="mix-blend-mode:multiply" opacity="0.5">
<path d="M113.55 96.3782L80.7788 106.247V104.717L113.55 94.8477V96.3782Z" fill="#CAE2EA"/>
</g>
<g style="mix-blend-mode:multiply" opacity="0.5">
<path d="M113.55 100.203L80.7788 110.073V108.543L113.55 98.6738V100.203Z" fill="#CAE2EA"/>
</g>
<g style="mix-blend-mode:multiply" opacity="0.5">
<path d="M113.55 104.03L80.7788 113.899V112.368L113.55 102.499V104.03Z" fill="#CAE2EA"/>
</g>
<g style="mix-blend-mode:multiply" opacity="0.5">
<path d="M113.55 107.856L80.7788 117.725V116.194L113.55 106.325V107.856Z" fill="#CAE2EA"/>
</g>
<g style="mix-blend-mode:multiply" opacity="0.5">
<path d="M113.55 111.681L80.7788 121.55V120.021L113.55 110.15V111.681Z" fill="#CAE2EA"/>
</g>
<g style="mix-blend-mode:multiply" opacity="0.5">
<path d="M113.55 115.507L61.4512 131.197V129.666L113.55 113.977V115.507Z" fill="#CAE2EA"/>
</g>
<g style="mix-blend-mode:multiply" opacity="0.5">
<path d="M87.5006 127.177L61.4512 135.021V133.492L87.5006 125.647V127.177Z" fill="#CAE2EA"/>
</g>
<g style="mix-blend-mode:multiply" opacity="0.5">
<path d="M87.5006 131.003L61.4512 138.848V137.317L87.5006 129.473V131.003Z" fill="#CAE2EA"/>
</g>
<g style="mix-blend-mode:multiply" opacity="0.5">
<path d="M87.5006 134.828L61.4512 142.673V141.144L87.5006 133.299V134.828Z" fill="#CAE2EA"/>
</g>
<g style="mix-blend-mode:multiply" opacity="0.5">
<path d="M87.5006 138.654L61.4512 146.499V144.968L87.5006 137.124V138.654Z" fill="#CAE2EA"/>
</g>
<g style="mix-blend-mode:multiply" opacity="0.5">
<path d="M87.5006 142.48L61.4512 150.325V148.794L87.5006 140.95V142.48Z" fill="#CAE2EA"/>
</g>
<g style="mix-blend-mode:multiply" opacity="0.5">
<path d="M87.5006 146.305L61.4512 154.15V152.62L87.5006 144.775V146.305Z" fill="#CAE2EA"/>
</g>
<g style="mix-blend-mode:multiply" opacity="0.5">
<path d="M87.5006 150.132L61.4512 157.976V156.446L87.5006 148.601V150.132Z" fill="#CAE2EA"/>
</g>
<g style="mix-blend-mode:multiply" opacity="0.5">
<path d="M87.5006 153.956L61.4512 161.801V160.271L87.5006 152.427V153.956Z" fill="#CAE2EA"/>
</g>
<g style="mix-blend-mode:multiply" opacity="0.5">
<path d="M87.5006 157.783L61.4512 165.628V164.097L87.5006 156.252V157.783Z" fill="#CAE2EA"/>
</g>
<g style="mix-blend-mode:multiply" opacity="0.5">
<path d="M113.55 153.764L61.4512 169.453V167.923L113.55 152.234V153.764Z" fill="#CAE2EA"/>
</g>
<g style="mix-blend-mode:multiply" opacity="0.5">
<path d="M113.55 157.59L61.4512 173.279V171.749L113.55 156.059V157.59Z" fill="#CAE2EA"/>
</g>
<g style="mix-blend-mode:multiply" opacity="0.5">
<path d="M113.55 161.416L61.4512 177.105V175.575L113.55 159.885V161.416Z" fill="#CAE2EA"/>
</g>
<g style="mix-blend-mode:multiply" opacity="0.5">
<path d="M61.4512 127.37L78.624 122.199V86.2378L61.4512 91.4086V127.37Z" fill="#CAE2EA"/>
</g>
<g style="mix-blend-mode:multiply" opacity="0.5">
<path d="M89.3398 157.229L113.55 149.938V117.803L89.3398 125.093V157.229Z" fill="#CAE2EA"/>
</g>
<path d="M193.969 69.91L125.422 52.8848C125.422 52.8848 121.823 54.3926 120.079 54.1878L152.656 81.4214C152.656 81.4214 175.229 84.3467 175.803 83.3741C176.378 82.4015 193.969 69.91 193.969 69.91Z" fill="#F3FCFF"/>
<path d="M193.97 188.279L185.234 192.188V73.8179L193.97 69.9087V188.279Z" fill="#B6D5E0"/>
<path d="M120.079 172.566L185.234 192.188V73.8088L120.079 54.1875V172.566Z" fill="#DAEEF7"/>
<path d="M120.117 172.566L185.273 192.188V73.8088L120.117 54.1875V172.566Z" fill="#DFEEF2"/>
<g style="mix-blend-mode:multiply" opacity="0.5">
<path d="M126.646 73.5327L178.744 89.2222V80.6964L126.646 65.0068V73.5327Z" fill="#CAE2EA"/>
</g>
<g style="mix-blend-mode:multiply" opacity="0.5">
<path d="M126.646 77.2493L159.418 87.1184V85.5879L126.646 75.7188V77.2493Z" fill="#CAE2EA"/>
</g>
<g style="mix-blend-mode:multiply" opacity="0.5">
<path d="M126.646 81.0759L159.418 90.945V89.4145L126.646 79.5454V81.0759Z" fill="#CAE2EA"/>
</g>
<g style="mix-blend-mode:multiply" opacity="0.5">
<path d="M126.646 84.9006L159.418 94.7697V93.2392L126.646 83.3701V84.9006Z" fill="#CAE2EA"/>
</g>
<g style="mix-blend-mode:multiply" opacity="0.5">
<path d="M126.646 88.7268L159.418 98.5959V97.0654L126.646 87.1963V88.7268Z" fill="#CAE2EA"/>
</g>
<g style="mix-blend-mode:multiply" opacity="0.5">
<path d="M126.646 92.5517L159.418 102.421V100.892L126.646 91.0225V92.5517Z" fill="#CAE2EA"/>
</g>
<g style="mix-blend-mode:multiply" opacity="0.5">
<path d="M126.646 96.3782L159.418 106.247V104.717L126.646 94.8477V96.3782Z" fill="#CAE2EA"/>
</g>
<g style="mix-blend-mode:multiply" opacity="0.5">
<path d="M126.646 100.203L159.418 110.073V108.543L126.646 98.6738V100.203Z" fill="#CAE2EA"/>
</g>
<g style="mix-blend-mode:multiply" opacity="0.5">
<path d="M126.646 104.03L159.418 113.899V112.368L126.646 102.499V104.03Z" fill="#CAE2EA"/>
</g>
<g style="mix-blend-mode:multiply" opacity="0.5">
<path d="M126.646 107.856L159.418 117.725V116.194L126.646 106.325V107.856Z" fill="#CAE2EA"/>
</g>
<g style="mix-blend-mode:multiply" opacity="0.5">
<path d="M126.646 111.681L159.418 121.55V120.021L126.646 110.15V111.681Z" fill="#CAE2EA"/>
</g>
<g style="mix-blend-mode:multiply" opacity="0.5">
<path d="M126.646 115.507L178.744 131.197V129.666L126.646 113.977V115.507Z" fill="#CAE2EA"/>
</g>
<g style="mix-blend-mode:multiply" opacity="0.5">
<path d="M152.695 127.177L178.745 135.021V133.492L152.695 125.647V127.177Z" fill="#CAE2EA"/>
</g>
<g style="mix-blend-mode:multiply" opacity="0.5">
<path d="M152.695 131.003L178.745 138.848V137.317L152.695 129.473V131.003Z" fill="#CAE2EA"/>
</g>
<g style="mix-blend-mode:multiply" opacity="0.5">
<path d="M152.695 134.828L178.745 142.673V141.144L152.695 133.299V134.828Z" fill="#CAE2EA"/>
</g>
<g style="mix-blend-mode:multiply" opacity="0.5">
<path d="M152.695 138.654L178.745 146.499V144.968L152.695 137.124V138.654Z" fill="#CAE2EA"/>
</g>
<g style="mix-blend-mode:multiply" opacity="0.5">
<path d="M152.695 142.48L178.745 150.325V148.794L152.695 140.95V142.48Z" fill="#CAE2EA"/>
</g>
<g style="mix-blend-mode:multiply" opacity="0.5">
<path d="M152.695 146.305L178.745 154.15V152.62L152.695 144.775V146.305Z" fill="#CAE2EA"/>
</g>
<g style="mix-blend-mode:multiply" opacity="0.5">
<path d="M152.695 150.132L178.745 157.976V156.446L152.695 148.601V150.132Z" fill="#CAE2EA"/>
</g>
<g style="mix-blend-mode:multiply" opacity="0.5">
<path d="M152.695 153.956L178.745 161.801V160.271L152.695 152.427V153.956Z" fill="#CAE2EA"/>
</g>
<g style="mix-blend-mode:multiply" opacity="0.5">
<path d="M152.695 157.783L178.745 165.628V164.097L152.695 156.252V157.783Z" fill="#CAE2EA"/>
</g>
<g style="mix-blend-mode:multiply" opacity="0.5">
<path d="M126.646 153.764L178.744 169.453V167.923L126.646 152.234V153.764Z" fill="#CAE2EA"/>
</g>
<g style="mix-blend-mode:multiply" opacity="0.5">
<path d="M126.646 157.59L178.744 173.279V171.749L126.646 156.059V157.59Z" fill="#CAE2EA"/>
</g>
<g style="mix-blend-mode:multiply" opacity="0.5">
<path d="M126.646 161.416L178.744 177.105V175.575L126.646 159.885V161.416Z" fill="#CAE2EA"/>
</g>
<g style="mix-blend-mode:multiply" opacity="0.5">
<path d="M178.745 127.37L161.573 122.199V86.2378L178.745 91.4086V127.37Z" fill="#CAE2EA"/>
</g>
<g style="mix-blend-mode:multiply" opacity="0.5">
<path d="M150.857 157.229L126.646 149.938V117.803L150.857 125.093V157.229Z" fill="#CAE2EA"/>
</g>
<path d="M40.9351 188.818L42.9529 188.848V67.9547L40.9351 67.9258V188.818Z" fill="#07085B"/>
<path d="M120.078 51.6822L119.194 51.0137L40.9351 67.9258L42.9529 68.7665L120.078 51.6822Z" fill="#4D5296"/>
<path d="M126.408 52.1995C123.936 51.3199 121.969 51.046 120.685 50.9794C119.906 50.9065 117.515 50.8437 113.828 52.1568C114.033 52.3597 114.258 52.5416 114.5 52.6996C115.521 53.3742 116.68 53.8109 117.892 53.9776C122.855 55.0167 126.408 52.1995 126.408 52.1995Z" fill="#07085B"/>
<g style="mix-blend-mode:multiply">
<path d="M123.907 53.4502L190.779 71.3362L191.791 189.254L189.603 190.985V71.8627L123.907 53.4502Z" fill="#B6D5E0"/>
</g>
<path d="M172.719 208.837L120.748 190.617L161.911 167.906L215.069 186.914L175.107 208.645C174.745 208.842 174.345 208.961 173.933 208.994C173.522 209.027 173.108 208.974 172.719 208.837Z" fill="#E03268"/>
<path d="M124.79 170.889C124.79 170.889 132.607 179.936 123.567 189.824L172.533 208.226C173.126 208.449 173.769 208.499 174.39 208.37C175.01 208.241 175.58 207.939 176.036 207.499L177.811 205.78C177.811 205.78 183.98 188.866 183.98 188.439C183.98 188.012 171.642 178.01 171.642 178.01C171.642 178.01 151.327 175.563 150.795 175.563C150.264 175.563 124.79 170.889 124.79 170.889Z" fill="#DAEEF7"/>
<g style="mix-blend-mode:multiply">
<path d="M178.024 202.689C177.705 202.689 141.648 190.775 141.648 190.775C141.648 190.775 177.598 203.844 177.708 203.527C177.817 203.21 178.024 202.689 178.024 202.689Z" fill="#DAEEF7"/>
</g>
<path d="M122.024 170.404V171.517L173.716 189.235C173.716 189.235 176.907 193.224 176.588 198.649C176.269 204.074 175.094 208.361 173.393 208.42C173.393 208.42 174.467 208.508 175.009 208.169C175.551 207.829 176.814 206.704 176.814 206.704C176.814 206.704 178.95 197.049 179.061 196.811C179.172 196.572 177.944 188.699 177.12 188.114C176.296 187.528 176.987 186.598 173.078 185.88C169.169 185.161 138.378 171.335 137.633 171.517C136.888 171.699 130.507 171.41 130.161 171.517C129.815 171.624 122.024 170.404 122.024 170.404Z" fill="#E03268"/>
<path d="M174.514 188.754C174.514 188.754 181.095 199.925 174.514 208.886L218.336 185.137C218.336 185.137 223.495 174.553 216.847 167.905L174.514 188.754Z" fill="#E03268"/>
<path d="M174.514 188.754L122.024 170.404L169.409 154.289L216.847 167.905L174.514 188.754Z" fill="#FF5B7E"/>
<g style="mix-blend-mode:multiply">
<path d="M166.111 192.376L127.916 179.084C127.929 179.365 127.934 179.65 127.929 179.939L166.111 192.376Z" fill="#DAEEF7"/>
</g>
<g style="mix-blend-mode:multiply">
<path d="M127.48 183.042C127.374 183.432 127.249 183.827 127.103 184.229L155.134 193.381L127.48 183.042Z" fill="#DAEEF7"/>
</g>
<path d="M166.151 182.961L219.172 167.216L179.315 147.592L125.062 164.017L163.775 182.795C164.52 183.142 165.366 183.201 166.151 182.961Z" fill="#06BFAD"/>
<path d="M216.264 150.166C216.264 150.166 207.926 157.978 216.398 166.526L166.374 182.428C165.137 182.821 163.789 182.576 162.912 181.8L161.235 180.313C161.235 180.313 156.04 165.698 156.064 165.331C156.087 164.964 169.005 156.323 169.005 156.323C169.005 156.323 189.461 154.208 189.987 154.208C190.513 154.208 216.264 150.166 216.264 150.166Z" fill="#DAEEF7"/>
<g style="mix-blend-mode:multiply">
<path d="M161.2 177.649C161.519 177.649 198.264 167.354 198.264 167.354C198.264 167.354 161.562 178.648 161.474 178.373C161.386 178.098 161.2 177.649 161.2 177.649Z" fill="#DAEEF7"/>
</g>
<path d="M219.057 149.752L218.993 150.717L166.282 166.021C166.282 166.021 162.862 169.468 162.868 174.156C162.875 178.844 163.804 182.547 165.507 182.599C165.507 182.599 164.426 182.675 163.905 182.385C163.383 182.095 162.183 181.118 162.183 181.118C162.183 181.118 160.599 172.777 160.506 172.574C160.413 172.37 162.089 165.565 162.947 165.059C163.806 164.554 163.167 163.75 167.117 163.129C171.068 162.509 202.655 150.564 203.389 150.721C204.123 150.878 210.522 150.628 210.861 150.721C211.2 150.814 219.057 149.752 219.057 149.752Z" fill="#06BFAD"/>
<path d="M165.512 165.611C165.512 165.611 158.288 175.264 164.354 183.008L121.899 162.486C121.899 162.486 117.35 153.339 124.379 147.596L165.512 165.611Z" fill="#06BFAD"/>
<path d="M165.512 165.608L219.057 149.751L172.599 135.826L124.379 147.591L165.512 165.608Z" fill="#02CCC0"/>
<g style="mix-blend-mode:multiply">
<path d="M173.706 168.733L212.669 157.248C212.639 157.489 212.618 157.735 212.607 157.985L173.706 168.733Z" fill="#DAEEF7"/>
</g>
<g style="mix-blend-mode:multiply">
<path d="M212.874 160.672C212.96 161.019 213.065 161.361 213.188 161.697L184.63 169.606L212.874 160.672Z" fill="#DAEEF7"/>
</g>
<g style="mix-blend-mode:multiply" opacity="0.3">
<path d="M131.514 150.717C131.514 150.717 124.367 158.174 129.954 166.389L133.115 167.905C133.115 167.905 129.049 158.077 135.09 152.283L131.514 150.717Z" fill="#06BFAD"/>
</g>
<path d="M178.36 163.727L134.197 148.738L166.351 130.141L211.559 145.777L180.316 163.572C180.02 163.735 179.692 163.833 179.355 163.86C179.018 163.886 178.678 163.841 178.36 163.727Z" fill="#F4A640"/>
<path d="M136.023 132.563C136.023 132.563 143.146 139.986 136.456 148.095L178.159 163.224C179.189 163.601 180.295 163.367 180.987 162.629L182.318 161.221C182.318 161.221 186.111 147.351 186.078 147.003C186.045 146.655 175.13 138.44 175.13 138.44C175.13 138.44 158.222 136.419 157.791 136.417C157.36 136.416 136.023 132.563 136.023 132.563Z" fill="#DAEEF7"/>
<g style="mix-blend-mode:multiply">
<path d="M182.259 158.689C181.996 158.689 151.412 148.888 151.412 148.888C151.412 148.888 181.996 159.638 182.06 159.376C182.124 159.115 182.259 158.689 182.259 158.689Z" fill="#DAEEF7"/>
</g>
<path d="M133.71 132.163L133.796 133.079L177.69 147.642C177.69 147.642 180.62 150.917 180.77 155.368C180.919 159.818 180.278 163.333 178.885 163.379C178.885 163.379 179.776 163.454 180.197 163.178C180.618 162.903 181.57 161.977 181.57 161.977C181.57 161.977 182.599 154.061 182.668 153.863C182.737 153.666 181.132 147.204 180.407 146.729C179.682 146.254 180.182 145.485 176.91 144.893C173.638 144.301 147.242 132.933 146.643 133.081C146.043 133.229 140.769 132.989 140.493 133.081C140.216 133.173 133.71 132.163 133.71 132.163Z" fill="#F4A640"/>
<path d="M178.311 147.256C178.311 147.256 184.577 156.429 179.841 163.771L214.105 144.323C214.105 144.323 217.547 135.645 211.57 130.185L178.311 147.256Z" fill="#F4A640"/>
<path d="M178.311 147.256L133.712 132.162L171.489 118.979L211.57 130.185L178.311 147.256Z" fill="#FEB546"/>
<g style="mix-blend-mode:multiply">
<path d="M171.669 150.216L139.217 139.284C139.25 139.512 139.275 139.746 139.293 139.984L171.669 150.216Z" fill="#DAEEF7"/>
</g>
<g style="mix-blend-mode:multiply">
<path d="M139.162 142.533C139.104 142.854 139.03 143.179 138.938 143.507L162.706 151.035L139.162 142.533Z" fill="#DAEEF7"/>
</g>
<path d="M174.488 142.765L148.672 133.708L153.774 131.487L181.123 139.593L174.488 142.765Z" fill="#F4A640"/>
<path d="M143.765 144C143.765 144 141.103 146.7 142.318 150.343C142.318 150.343 143.127 148.458 143.936 147.915C143.936 147.915 143.801 150.209 144.745 151.154C144.745 151.154 145.579 146.071 148.13 145.577L143.765 144Z" fill="#FF5B7E"/>
<path d="M174.514 173.989C174.514 173.989 176.148 175.905 176.022 178.334C176.022 178.334 176.92 177.091 177.145 176.161C177.769 176.499 178.272 177.022 178.585 177.659C178.585 177.659 179.59 175.088 178.549 172.865L174.514 173.989Z" fill="#FEB546"/>
<path d="M149.24 186.498C149.24 186.498 146.476 190.206 147.419 196.143C147.419 196.143 148.364 193.714 150.523 192.365C150.523 192.365 151.466 196.278 152.007 197.627C152.007 197.627 154.163 189.755 156.727 189.104L149.24 186.498Z" fill="#02CCC0"/>
<path d="M82.1797 37.7529C85.5809 38.7217 97.5483 35.9673 101.471 35.0148L101.608 34.9483L102.99 33.9794C104.137 33.2255 105.312 32.3459 105.431 32.3924C105.599 32.4615 105.604 32.6186 104.677 33.9392C104.663 33.9588 104.655 33.9817 104.653 34.0055C104.651 34.0293 104.656 34.0532 104.667 34.0747C104.677 34.0962 104.693 34.1144 104.713 34.1275C104.733 34.1406 104.756 34.148 104.78 34.1491C105.592 34.1792 108.149 34.2898 108.189 34.4997C108.237 34.751 105.95 34.7045 105.868 34.9244C105.787 35.1443 108.018 35.1292 108.026 35.4031C108.033 35.6771 105.999 35.6218 105.963 35.7374C105.926 35.853 107.87 36.1143 107.973 36.2752C108.076 36.436 105.963 36.4008 105.88 36.5353C105.797 36.6697 107.247 37.1636 107.218 37.2968C107.189 37.43 107.558 37.3885 103.971 37.1925C103.971 37.1925 103.074 37.1196 102.731 37.0668L101.84 37.4765C94.6121 41.6684 80.9409 42.0567 80.9409 42.0567L82.1797 37.7529Z" fill="#FFC0BB"/>
<path d="M73.4864 35.1544C73.4864 35.1544 71.8266 36.7289 70.7838 35.6382C70.7838 35.6382 67.791 36.2854 68.0398 33.6503C68.0398 33.6503 66.0018 32.4164 66.7532 30.0465C66.7532 30.0465 64.9226 28.3803 66.9253 26.4577C66.9253 26.4577 65.6073 24.2085 68.1365 23.4495C68.1365 23.4495 68.4644 19.5994 72.0603 20.6285C72.0603 20.6285 74.7717 17.707 77.1061 19.5441C77.1061 19.5441 79.5448 18.7412 80.5638 21.5446C80.5638 21.5446 83.1508 22.4116 82.2047 25.5907C82.2047 25.5907 84.7175 28.3652 83.0528 31.1736C83.0528 31.1736 83.9322 34.9345 79.7044 34.452C75.4765 33.9695 73.4864 35.1544 73.4864 35.1544Z" fill="#FEB546"/>
<path d="M85.328 42.9039C85.328 42.9039 80.9054 44.4595 77.1977 43.4618C76.8622 43.3738 76.5654 43.1771 76.3535 42.9024C76.1417 42.6278 76.0268 42.2907 76.0267 41.9439C76.0355 41.1899 74.6786 38.0849 76.219 37.6627C79.5234 36.7567 84.402 36.9779 84.402 36.9779C84.402 36.9779 85.9726 39.2473 85.328 42.9039Z" fill="#FF5B7E"/>
<path d="M73.2944 36.6875C73.2944 36.6875 69.6131 37.3422 68.3278 38.8237C67.0425 40.3052 63.7569 56.6669 64.5434 59.596L80.0979 57.3669C80.0979 57.3669 81.7702 44.2835 81.436 40.5112C81.1018 36.739 76.9808 36.8961 76.9808 36.8961L73.2944 36.6875Z" fill="#FF5B7E"/>
<path d="M81.4219 43.724C81.4809 41.7424 81.4219 40.3765 81.4219 40.3765C81.6442 41.7361 81.4219 43.724 81.4219 43.724Z" fill="white"/>
<path d="M67.8389 48.9136C68.3005 49.1197 68.7996 49.2288 69.3051 49.234C69.9961 48.1358 70.9636 45.355 70.8882 42.9512C69.4069 45.4027 67.8389 48.9136 67.8389 48.9136Z" fill="white"/>
<path d="M91.0678 72.8843L90.4132 75.1536C90.4003 75.1983 90.3964 75.245 90.4017 75.2912C90.4069 75.3373 90.4212 75.382 90.4437 75.4226C90.4662 75.4632 90.4966 75.499 90.5329 75.5279C90.5693 75.5568 90.611 75.5782 90.6557 75.5909L95.9804 77.1114C96.0637 77.1353 96.1525 77.1317 96.2335 77.101C96.3145 77.0702 96.3833 77.0141 96.4298 76.9409C96.4762 76.8677 96.4976 76.7815 96.4909 76.6951C96.4842 76.6087 96.4497 76.5268 96.3925 76.4617L93.7113 73.402C93.7113 73.402 92.5353 74.2275 91.0678 72.8843Z" fill="#4188E4"/>
<path d="M81.3569 57.7209C81.3569 57.7209 92.0365 54.7164 93.2867 54.8521C94.6687 55.0017 98.4946 57.3489 94.1662 74.0487C94.1662 74.0487 92.0881 74.7122 90.8191 73.2734L90.9058 63.7612C90.9058 63.7612 83.1813 67.9958 80.7966 66.9654C78.4119 65.935 81.3569 57.7209 81.3569 57.7209Z" fill="#282828"/>
<path d="M73.9163 72.8252L72.489 74.71C72.461 74.7471 72.4405 74.7893 72.4289 74.8342C72.4172 74.8791 72.4145 74.9259 72.4209 74.9719C72.4273 75.0179 72.4427 75.0622 72.4663 75.1022C72.4898 75.1422 72.521 75.1772 72.5581 75.2051L76.9744 78.5388C77.0435 78.5913 77.1278 78.6199 77.2146 78.6204C77.3013 78.6209 77.3859 78.5932 77.4556 78.5415C77.5253 78.4898 77.5763 78.4169 77.601 78.3337C77.6257 78.2505 77.6228 78.1615 77.5926 78.0801L76.1942 74.2589C76.1942 74.2589 74.7996 74.607 73.9163 72.8252Z" fill="#4188E4"/>
<path d="M64.9339 59.5329C64.9339 59.5329 64.7253 70.4776 75.817 66.3498L73.6032 73.2295C73.6032 73.2295 75.1901 74.863 76.297 74.6632C77.3172 74.4848 87.8561 61.649 81.7297 57.1039C80.8409 56.4585 79.7725 56.107 78.6741 56.0987C75.8987 56.0522 68.6943 56.2708 64.9339 59.5329Z" fill="#333333"/>
<path d="M73.3384 38.2982L73.2417 34.6981L76.8087 34.6592L77.5324 37.8006C77.5324 37.8006 75.5208 40.1001 73.3384 38.2982Z" fill="#FFC0BB"/>
<path d="M77.2924 36.7589L76.8087 34.6592L73.2417 34.6981L73.2894 36.4649C74.0684 37.0818 75.4103 37.6599 77.2924 36.7589Z" fill="#F99893"/>
<path d="M80.1368 30.0125C80.0237 30.622 80.329 31.1887 80.8178 31.2779C81.3066 31.3671 81.794 30.9449 81.9071 30.3355C82.0202 29.726 81.7161 29.1593 81.2274 29.0701C80.7386 28.9809 80.2512 29.3993 80.1368 30.0125Z" fill="#F99893"/>
<path d="M80.658 33.3322C80.749 33.0583 80.8142 32.7764 80.8528 32.4903C80.9574 31.7405 80.9655 30.9804 80.8766 30.2285C80.8603 30.0815 80.8527 29.9345 80.849 29.7875C80.8285 29.1204 80.6693 28.4648 80.3817 27.8626C80.094 27.2604 79.6841 26.7247 79.1781 26.2896C78.6721 25.8545 78.081 25.5295 77.4425 25.3353C76.804 25.1412 76.1321 25.0821 75.4696 25.1619C74.807 25.2417 74.1684 25.4585 73.5942 25.7987C73.02 26.1389 72.523 26.5948 72.1347 27.1376C71.7464 27.6804 71.4753 28.2981 71.3388 28.9514C71.2023 29.6047 71.2032 30.2793 71.3416 30.9322C71.1875 30.8785 71.0229 30.862 70.8611 30.8838C70.6994 30.9056 70.545 30.9653 70.4106 31.0579C69.9081 31.4223 69.8616 32.2302 70.3189 32.861C70.7762 33.4918 71.5565 33.7067 72.0628 33.3423C72.1317 33.2918 72.1934 33.2322 72.2463 33.1651C72.9574 35.4131 75.2139 36.7916 77.4717 36.2814C78.5394 36.0385 79.4752 35.3995 80.0901 34.4933C80.1354 34.4354 80.1773 34.375 80.2157 34.3124C80.4051 34.0062 80.5537 33.6768 80.658 33.3322Z" fill="#FFC0BB"/>
<path d="M77.0884 29.6831C77.1701 29.9457 77.2429 30.2033 77.3271 30.4521C77.4113 30.7009 77.5106 30.9548 77.6588 31.0993L77.6864 31.1219C77.6965 31.1294 77.7003 31.1344 77.7204 31.1495C77.7554 31.1728 77.7878 31.1997 77.8171 31.2299C77.8807 31.2919 77.9278 31.3688 77.9541 31.4536C77.977 31.5353 77.9813 31.6211 77.9665 31.7046C77.9517 31.7882 77.9182 31.8673 77.8686 31.9361C77.7815 32.0538 77.6678 32.1493 77.5368 32.2148C77.4058 32.2803 77.2612 32.314 77.1148 32.3131C77.3661 32.1962 77.5859 32.0392 77.6839 31.8306C77.7079 31.786 77.7223 31.737 77.7262 31.6866C77.7301 31.6362 77.7234 31.5855 77.7065 31.5378C77.6893 31.4944 77.6622 31.4557 77.6274 31.4247C77.6091 31.4076 77.5893 31.392 77.5683 31.3782L77.5231 31.3443L77.4716 31.3028C77.3635 31.1928 77.2811 31.0602 77.2304 30.9145C77.1804 30.7827 77.1434 30.6464 77.1198 30.5074C77.0697 30.2356 77.0591 29.958 77.0884 29.6831Z" fill="#F99893"/>
<path d="M75.6475 30.4573C75.6661 30.5382 75.6602 30.6228 75.6307 30.7004C75.6011 30.778 75.5492 30.8451 75.4816 30.8932C75.4139 30.9413 75.3335 30.9682 75.2505 30.9706C75.1676 30.973 75.0857 30.9507 75.0154 30.9066C74.9451 30.8624 74.8895 30.7984 74.8555 30.7227C74.8216 30.6469 74.8109 30.5628 74.8247 30.4809C74.8386 30.3991 74.8764 30.3232 74.9334 30.2628C74.9904 30.2025 75.064 30.1604 75.145 30.1419C75.2534 30.1171 75.3673 30.1364 75.4615 30.1955C75.5558 30.2547 75.6227 30.3488 75.6475 30.4573Z" fill="#333333"/>
<path d="M79.2159 29.8919C79.2345 29.9728 79.2286 30.0574 79.199 30.135C79.1695 30.2126 79.1176 30.2796 79.05 30.3277C78.9823 30.3758 78.9019 30.4028 78.8189 30.4051C78.7359 30.4075 78.6541 30.3852 78.5838 30.3411C78.5135 30.297 78.4578 30.233 78.4239 30.1572C78.39 30.0815 78.3792 29.9974 78.3931 29.9155C78.407 29.8337 78.4448 29.7578 78.5018 29.6974C78.5588 29.6371 78.6324 29.595 78.7133 29.5765C78.8218 29.5517 78.9357 29.571 79.0299 29.6301C79.1242 29.6893 79.1911 29.7834 79.2159 29.8919Z" fill="#333333"/>
<path d="M75.9049 29.4057C75.6952 29.3978 75.4853 29.4054 75.2767 29.4283C75.0825 29.4489 74.8922 29.4967 74.7113 29.5703C74.5301 29.6417 74.3607 29.74 74.2087 29.8618C74.1233 29.9171 74.0567 29.995 73.9725 30.0604C73.8884 30.1257 73.8255 30.2111 73.7363 30.284C73.7611 30.1745 73.7964 30.0676 73.8419 29.9649C73.8915 29.8622 73.9535 29.7659 74.0266 29.6784C74.1741 29.4941 74.3673 29.3516 74.5869 29.2649C74.8055 29.1769 75.0424 29.1441 75.2767 29.1695C75.5032 29.1918 75.7198 29.2733 75.9049 29.4057Z" fill="#07085B"/>
<path d="M77.7495 29.1153C77.8787 28.9269 78.0562 28.7768 78.2634 28.6805C78.475 28.5771 78.709 28.5278 78.9444 28.5373C79.1804 28.5458 79.4102 28.615 79.6115 28.7383C79.7092 28.7968 79.7995 28.8668 79.8804 28.9469C79.9575 29.0279 80.0265 29.1163 80.0865 29.2108C79.9772 29.1731 79.8854 29.1203 79.7887 29.0851C79.6919 29.05 79.599 29.0009 79.501 28.9783C79.3171 28.9149 79.1249 28.8789 78.9306 28.8715C78.7354 28.8637 78.5401 28.8828 78.3501 28.9281C78.1455 28.9755 77.9448 29.0381 77.7495 29.1153Z" fill="#07085B"/>
<path d="M69.1194 46.1116C66.9835 48.9326 65.1742 61.1062 64.6277 65.1147L64.6402 65.2667L65.0347 66.9116C65.3225 68.2586 65.7094 69.676 65.6202 69.769C65.4946 69.8947 65.3463 69.8482 64.4593 68.4974C64.4464 68.4771 64.4282 68.4608 64.4068 68.4501C64.3853 68.4395 64.3613 68.4348 64.3374 68.4368C64.3135 68.4387 64.2906 68.4471 64.2711 68.4611C64.2516 68.4751 64.2363 68.4942 64.2269 68.5162C63.9027 69.2701 62.8674 71.6086 62.6588 71.5697C62.4076 71.5244 63.2871 69.4059 63.1099 69.25C62.9327 69.0942 62.1349 71.1801 61.8773 71.0884C61.6198 70.9967 62.4138 69.1168 62.3196 69.0402C62.2254 68.9635 61.2718 70.6838 61.0883 70.7202C60.9049 70.7567 61.6977 68.7977 61.6097 68.672C61.5218 68.5464 60.5242 69.7175 60.4136 69.6433C60.3031 69.5692 60.2038 69.9273 61.6952 66.6515C61.6952 66.6515 62.0897 65.8397 62.2606 65.5381L62.2053 64.5567C60.9489 56.2835 65.5725 43.3823 65.5725 43.3823L69.1194 46.1116Z" fill="#FFC0BB"/>
<path d="M63.4956 47.2426C63.4956 47.2426 64.6477 40.8806 68.2424 38.5987C69.7639 37.6324 70.6296 37.2692 71.3156 37.665C72.033 38.0797 70.4713 39.6253 70.7841 41.3694C71.4035 44.8224 69.1759 49.1601 69.1759 49.1601C69.1759 49.1601 66.1592 48.8208 63.4956 47.2426Z" fill="#FF5B7E"/>
<path d="M71.5929 25.2363L71.5376 28.3438L78.7545 26.3924C78.7545 26.3924 79.5686 27.0772 79.688 27.0596C79.8074 27.042 80.7208 26.6236 80.6818 26.4929C80.6429 26.3622 78.0333 23.0889 78.0333 23.0889C78.0333 23.0889 75.6386 23.6996 75.425 23.7636C75.2114 23.8277 71.5929 25.2363 71.5929 25.2363Z" fill="#FEB546"/>
<path d="M71.24 29.7763C71.24 29.7763 74.9226 26.5808 80.5513 28.2432C80.5096 27.7455 80.4153 27.2535 80.2699 26.7756C80.2699 26.7756 76.4466 24.3026 71.0679 28.2219C71.0679 28.2169 70.7814 28.619 71.24 29.7763Z" fill="#FF5B7E"/>
<path d="M79.0334 32.7241C78.9493 33.4429 78.3185 34.0385 77.5031 34.1063C76.6877 34.1742 75.9628 33.7068 75.7529 33.0144L79.0334 32.7241Z" fill="white"/>
<path d="M53.626 195.054V197.509C53.6257 197.607 53.5867 197.7 53.5177 197.769C53.4487 197.838 53.3553 197.876 53.2579 197.876H47.5034C47.4134 197.877 47.3257 197.848 47.2535 197.794C47.1813 197.74 47.1286 197.664 47.1033 197.578C47.0779 197.491 47.0813 197.399 47.1129 197.315C47.1445 197.23 47.2026 197.158 47.2785 197.11L50.4334 195.054C50.4334 195.054 51.7765 195.979 53.626 195.054Z" fill="#07085B"/>
<path d="M66.3237 195.054V197.51C66.3241 197.607 66.363 197.7 66.432 197.769C66.501 197.838 66.5944 197.876 66.6919 197.876H72.4488C72.5387 197.876 72.6262 197.847 72.6982 197.793C72.7702 197.739 72.8227 197.663 72.8479 197.577C72.8731 197.491 72.8696 197.398 72.838 197.314C72.8063 197.23 72.7482 197.158 72.6724 197.11L69.5188 195.054C69.5188 195.054 68.1757 195.979 66.3237 195.054Z" fill="#07085B"/>
<path d="M59.6254 133.035L59.6104 137.051L63.5153 136.449L62.8645 131.934L59.6254 133.035Z" fill="#FFC0BB"/>
<path d="M64.8447 135.992C64.8447 135.992 67.6164 136.673 69.9194 138.408C72.2224 140.143 76.8699 143.483 76.6438 146.889C76.4176 150.294 72.7489 155.614 72.7489 155.614L71.5201 153.065C71.5201 153.065 72.6333 147.075 72.3833 146.855C72.1332 146.635 67.3664 142.331 67.3664 142.331L64.8447 135.992Z" fill="#07085B"/>
<path d="M71.2627 159.445C71.2527 158.998 72.4187 160.316 72.3935 159.959C71.9362 152.532 57.4019 158.759 57.4019 158.759L53.855 161.359L49.2163 195.769C49.2163 195.769 51.5533 196.602 53.6427 196.039L62.3258 166.404L63.4164 165.984C63.4164 165.984 68.2674 162.596 71.2627 159.445Z" fill="#55769F"/>
<path d="M72.3944 158.271C69.4004 161.428 63.416 165.979 63.416 165.979L66.3259 195.819C66.3259 195.819 69.1918 196.241 70.5651 195.499C70.5651 195.499 72.5904 167.128 72.3944 158.271Z" fill="#3C5E8C"/>
<path d="M53.8573 161.359L53.2856 166.273C54.7934 166.857 58.4847 167.483 61.2627 161.415C62.1422 159.501 62.3646 158.124 62.2025 157.135C60.57 157.573 58.9673 158.116 57.4042 158.76L53.8573 161.359Z" fill="#3C5E8C"/>
<path d="M67.1954 141.306C67.0698 141.306 65.7028 138.282 64.9691 136.64C64.8584 136.392 64.6568 136.195 64.4057 136.092C64.1546 135.988 63.8732 135.984 63.6197 136.082C61.632 136.857 59.4333 136.069 59.4333 136.069C59.4333 136.069 52.837 159.102 55.5597 160.912C62.6949 165.654 70.8881 160.186 70.8881 160.186C70.8881 160.186 71.9397 155.879 71.9397 155.712C71.9397 155.545 67.36 141.306 67.1954 141.306Z" fill="#FFCC68"/>
<path d="M59.4311 136.069C59.4311 136.069 58.1747 137.932 58.049 137.9C57.1959 137.746 54.8389 135.652 54.4368 142.59C54.6605 144.713 52.6401 161.881 52.6401 161.881C58.1219 164.45 59.666 162.95 59.666 162.95C60.788 157.755 59.4311 136.069 59.4311 136.069Z" fill="#07085B"/>
<path d="M59.4309 136.069C59.4309 136.069 55.8828 136.522 53.2858 137.751C50.6887 138.98 46.0726 141.45 46.2573 144.89C46.442 148.331 53.0634 155.614 53.0634 155.614L54.0685 154.609L54.9555 153.257L50.3998 145.222L56.2396 142.782L59.4309 136.069Z" fill="#07085B"/>
<path d="M65.5623 136.452C67.2321 138.28 70.5604 143.956 73.2089 161.237C73.2089 161.237 70.2676 163.021 66.9067 163.204C66.9067 163.204 66.0347 140.343 63.5596 136.104C63.885 135.932 64.2579 135.874 64.6202 135.937C64.9824 136 65.3137 136.181 65.5623 136.452Z" fill="#07085B"/>
<path d="M71.0416 152.316C71.9211 152.913 72.4236 153.969 72.7051 154.889L72.739 155.027C72.9149 155.771 72.5329 155.918 72.3407 155.947C72.3112 155.951 72.2812 155.945 72.2551 155.931C72.2289 155.917 72.2079 155.895 72.195 155.868C72.1409 155.765 72.0693 155.634 71.9638 155.462C71.3431 154.457 70.6244 156.099 70.4096 155.696C70.1382 155.184 71.3305 154.745 71.1722 154.487C70.8732 154.002 70.1884 155.115 69.9585 154.817C69.7072 154.484 71.0654 154.167 70.7312 153.605C70.5528 153.303 69.652 154.261 69.5439 153.856C69.4296 153.431 70.5679 153.256 70.3681 152.911C70.0729 152.401 69.4421 153.54 69.1908 153.185C69.0388 152.968 70.4146 151.893 71.0416 152.316Z" fill="#FFC0BB"/>
<path opacity="0.6" d="M63.1636 134.014L62.8634 131.936L59.623 133.417V134.209C60.402 134.4 61.8632 134.574 63.1636 134.014Z" fill="#FC8D84"/>
<path d="M65.2293 124.843L65.4655 127.598L65.0295 127.872L64.2241 124.517L65.2293 124.843Z" fill="#07085B"/>
<path d="M64.6424 127.314C64.523 127.942 64.8309 128.521 65.3309 128.618C65.831 128.715 66.3361 128.285 66.4529 127.661C66.5697 127.036 66.2657 126.453 65.7656 126.358C65.2656 126.262 64.763 126.689 64.6424 127.314Z" fill="#F99893"/>
<path d="M65.1536 130.723C65.2483 130.442 65.3168 130.154 65.3584 129.861C65.4695 129.094 65.4822 128.316 65.3961 127.546C65.3811 127.396 65.3748 127.246 65.371 127.094C65.3547 126.411 65.1967 125.74 64.9072 125.122C64.6176 124.504 64.2028 123.953 63.689 123.504C63.1752 123.055 62.5736 122.718 61.9225 122.514C61.2714 122.309 60.585 122.243 59.9068 122.318C59.2286 122.393 58.5735 122.609 57.983 122.951C57.3925 123.293 56.8796 123.754 56.4767 124.305C56.0738 124.855 55.7898 125.484 55.6428 126.15C55.4957 126.817 55.4888 127.506 55.6224 128.176C55.4654 128.119 55.2971 128.099 55.1312 128.119C54.9653 128.14 54.8065 128.198 54.6676 128.291C54.1461 128.661 54.0984 129.489 54.562 130.14C55.0256 130.79 55.8184 131.019 56.3449 130.642C56.4159 130.592 56.4794 130.531 56.5333 130.463C57.2482 132.775 59.5487 134.21 61.8643 133.707C62.9592 133.467 63.922 132.82 64.5581 131.897C64.6008 131.843 64.6448 131.782 64.6837 131.712C64.8826 131.404 65.0405 131.071 65.1536 130.723Z" fill="#FFC0BB"/>
<path d="M60.0404 127.728C60.0585 127.812 60.0517 127.898 60.0207 127.977C59.9896 128.056 59.9359 128.125 59.8661 128.173C59.7963 128.222 59.7137 128.248 59.6287 128.25C59.5438 128.252 59.4602 128.228 59.3887 128.182C59.3171 128.136 59.2608 128.07 59.2268 127.992C59.1928 127.914 59.1827 127.828 59.1977 127.744C59.2127 127.661 59.2522 127.583 59.3112 127.522C59.3702 127.461 59.446 127.419 59.529 127.401C59.6403 127.376 59.7567 127.397 59.8526 127.459C59.9485 127.52 60.016 127.617 60.0404 127.728Z" fill="#333333"/>
<path d="M63.6975 127.182C63.7158 127.265 63.709 127.351 63.6779 127.431C63.6469 127.51 63.5931 127.578 63.5232 127.627C63.4534 127.675 63.3707 127.702 63.2857 127.703C63.2006 127.705 63.117 127.681 63.0455 127.635C62.9739 127.589 62.9176 127.523 62.8837 127.445C62.8498 127.367 62.8399 127.281 62.8551 127.197C62.8703 127.113 62.91 127.036 62.9691 126.975C63.0283 126.914 63.1043 126.872 63.1874 126.854C63.2425 126.842 63.2993 126.841 63.3548 126.851C63.4102 126.861 63.4631 126.881 63.5105 126.912C63.5579 126.942 63.5988 126.982 63.6309 127.028C63.663 127.074 63.6856 127.127 63.6975 127.182Z" fill="#333333"/>
<path d="M60.3669 126.783C60.1546 126.743 59.9395 126.721 59.7236 126.715C59.5223 126.711 59.3214 126.734 59.1268 126.786C58.9326 126.837 58.7475 126.917 58.5777 127.024C58.3956 127.14 58.2198 127.266 58.0513 127.401C58.1288 127.183 58.2581 126.987 58.4282 126.83C58.6018 126.664 58.8151 126.545 59.0476 126.485C59.2789 126.423 59.5217 126.419 59.755 126.473C59.982 126.523 60.1925 126.63 60.3669 126.783Z" fill="#FF5500"/>
<path d="M62.0742 126.506C62.19 126.304 62.3552 126.136 62.5542 126.016C62.7582 125.89 62.9898 125.816 63.2289 125.801C63.4678 125.783 63.7075 125.826 63.9249 125.927C64.1366 126.021 64.3221 126.165 64.4652 126.348C64.2623 126.273 64.0556 126.21 63.8458 126.158C63.6505 126.111 63.4492 126.095 63.249 126.109C63.0479 126.122 62.8499 126.164 62.661 126.235C62.4585 126.309 62.2622 126.4 62.0742 126.506Z" fill="#FF5500"/>
<path d="M64.7153 121.902C64.7153 121.902 66.1653 121.623 64.3799 120.748C62.5945 119.874 58.2171 119.366 55.9292 121.324C55.9292 121.324 55.1603 120.337 54.468 120.771C53.7757 121.204 55.1879 121.683 55.1879 121.683C55.1879 121.683 54.2217 121.868 54.0358 122.404C53.8975 122.8 54.4893 122.683 54.8059 122.595C54.2808 122.811 52.7366 124.268 54.7431 128.25C55.0974 128.084 57.3929 124.814 57.3929 124.814C57.3929 124.814 62.0065 126.322 61.1622 125.073C61.1622 125.073 66.5397 126.424 65.2368 123.99C65.2393 123.985 67.2207 123.687 64.7153 121.902Z" fill="#FF5500"/>
<path d="M57.3956 124.809C57.4697 125.078 56.1969 127.95 55.6253 128.175C55.331 128.181 55.0373 128.204 54.7458 128.245C54.6025 127.428 55.9859 125.146 55.9859 125.146L57.3956 124.809Z" fill="#FF5500"/>
<path d="M61.4061 126.575C61.3782 126.883 61.3951 127.194 61.4563 127.498C61.4839 127.654 61.5259 127.807 61.582 127.956C61.642 128.117 61.7358 128.264 61.8571 128.387C62.0104 128.512 62.0808 128.54 62.126 128.653C62.1457 128.707 62.1539 128.765 62.15 128.823C62.1461 128.88 62.1302 128.936 62.1034 128.987C61.9928 129.225 61.7403 129.402 61.4639 129.533C61.6277 129.531 61.7889 129.492 61.9345 129.417C62.0801 129.341 62.2059 129.233 62.3019 129.1C62.3562 129.023 62.3923 128.934 62.4075 128.841C62.4228 128.748 62.4167 128.652 62.3899 128.561C62.3233 128.358 62.1964 128.281 62.0557 128.169C61.9647 128.074 61.8908 127.964 61.837 127.844C61.7745 127.712 61.72 127.577 61.6737 127.439C61.5807 127.16 61.4978 126.869 61.4061 126.575Z" fill="#F99893"/>
<path d="M52.0393 148.019C51.5368 147.156 51.0342 146.293 50.5191 145.436C50.4776 145.365 50.4349 145.296 50.3934 145.226L50.798 145.076C51.3232 144.883 51.8433 144.677 52.3622 144.468C52.8812 144.259 53.3975 144.043 53.9102 143.818C54.4228 143.593 54.9329 143.364 55.4355 143.115C54.9002 143.284 54.3738 143.473 53.8486 143.669C53.3234 143.865 52.8045 144.068 52.2844 144.277C51.7642 144.486 51.2503 144.702 50.7377 144.927C50.2251 145.152 49.715 145.38 49.2124 145.63C49.5604 145.52 49.9059 145.4 50.2489 145.277L50.3746 145.516C50.8608 146.396 51.3571 147.258 51.8547 148.123C52.3522 148.989 52.8598 149.85 53.3749 150.707C53.8901 151.564 54.4102 152.417 54.9454 153.263C54.4797 152.377 54.0027 151.498 53.5144 150.624C53.0344 149.751 52.5381 148.884 52.0393 148.019Z" fill="#07085B"/>
<path d="M55.6929 154.267C55.6807 154.255 55.672 154.24 55.6677 154.223C55.6634 154.207 55.6638 154.189 55.6687 154.173C55.6736 154.156 55.6829 154.142 55.6956 154.13C55.7082 154.119 55.7238 154.111 55.7406 154.107C56.8814 153.866 56.9556 153.781 56.9003 153.661C56.8689 153.593 55.8474 153.41 54.9403 153.253L54.9503 153.26L54.3648 154.185C54.3648 154.185 53.4501 155.214 53.4263 155.238C53.4828 155.314 53.518 155.364 53.518 155.364C55.3247 157.219 55.3687 157.17 55.4466 157.114C55.5245 157.059 55.0018 156.087 55.1099 156.06C55.2179 156.034 56.3236 157.077 56.3475 156.94C56.3713 156.803 55.468 155.72 55.5433 155.676C55.6187 155.632 56.6741 156.654 56.7998 156.506C56.9254 156.358 55.7393 155.276 55.8901 155.201C56.0409 155.125 57.2332 156.264 57.3287 156.109C57.4116 155.986 56.1087 154.679 55.6929 154.267Z" fill="#FFC0BB"/>
<path d="M53.0635 155.614L53.566 155.044C53.7294 154.852 53.8952 154.667 54.0535 154.468C54.2118 154.27 54.3714 154.079 54.5247 153.88C54.5988 153.78 54.6755 153.679 54.7446 153.575C54.8137 153.471 54.884 153.365 54.9556 153.261C54.854 153.493 54.7312 153.716 54.5888 153.925C54.4483 154.137 54.2965 154.34 54.1339 154.535C53.9719 154.73 53.8022 154.918 53.6238 155.098C53.4463 155.28 53.2592 155.452 53.0635 155.614Z" fill="#07085B"/>
<path d="M63.145 130.286C63.1212 130.827 62.6425 131.325 61.9678 131.45C61.2931 131.576 60.6673 131.287 60.4487 130.791L63.145 130.286Z" fill="white"/>
<path d="M144.097 42.9413C144.097 42.9413 140.752 42.6234 138.535 44.2217C136.319 45.8201 133.731 48.5204 128.107 46.8417C128.107 46.8417 130.764 50.0384 134.297 50.3839C137.83 50.7295 136.878 47.8834 144.917 49.5609L144.522 46.1568L144.097 42.9413Z" fill="#FF5B7E"/>
<path d="M162.407 96.3391L162.906 129.206L163.743 131.577L166.262 129.207L168.668 95.501L162.407 96.3391Z" fill="#FFC0BB"/>
<path d="M177.442 97.46H171.141C171.141 97.46 174.091 129.019 174.068 129.215C174.045 129.411 175.13 130.828 175.13 130.828L177.425 129.216L177.442 97.46Z" fill="#FFC0BB"/>
<path d="M162.407 96.3391L162.906 129.206L163.743 131.577L166.262 129.207L168.668 95.501L162.407 96.3391Z" fill="#FFC0BB"/>
<path d="M177.442 97.46H171.141C171.141 97.46 174.091 129.019 174.068 129.215C174.045 129.411 175.13 130.828 175.13 130.828L177.425 129.216L177.442 97.46Z" fill="#FFC0BB"/>
<path d="M162.773 120.456L162.906 129.206L163.743 131.578L166.256 129.207L166.884 120.378C164.962 121.129 163.529 120.781 162.773 120.456Z" fill="#FBF9EB"/>
<path d="M173.279 120.455C173.733 125.375 174.076 129.144 174.068 129.212C174.047 129.408 175.13 130.826 175.13 130.826L177.425 129.213V120.495C176.073 120.912 174.624 120.898 173.279 120.455Z" fill="#FBF9EB"/>
<path d="M161.471 97.9516C163.262 98.6691 166.041 99.3891 169.111 98.7345L169.54 94.1141C169.703 94.261 169.875 94.3994 170.052 94.5287L170.461 98.5849C170.461 98.5849 173.863 99.8302 178.026 99.0637C178.041 97.2593 178.045 95.6622 178.035 94.383C177.958 85.1522 175.105 83.8002 175.105 83.8002L170.248 82.5675L169.182 82.7509C167.484 82.193 164.407 81.5534 163.151 83.6732C161.358 86.6764 161.459 95.9348 161.459 95.9348C161.459 95.9348 161.459 96.68 161.471 97.9516Z" fill="#02CCC0"/>
<path d="M164.732 74.4108L160.179 72.2998L160.589 77.1237C160.589 77.1237 151.967 73.2032 151.531 72.8087C151.386 72.683 151.22 72.3324 151.061 71.9291C150.902 71.5028 150.776 71.0651 150.684 70.6197C150.533 69.95 149.96 69.4134 149.768 69.2375C149.605 69.0112 149.478 68.7611 149.391 68.4961C149.382 68.4661 149.363 68.44 149.337 68.422C149.312 68.404 149.281 68.3951 149.249 68.3967C149.218 68.3983 149.188 68.4103 149.164 68.4308C149.141 68.4513 149.124 68.4792 149.118 68.51L149.072 68.8115C149.047 69.0732 149.091 69.3367 149.197 69.5768L149.078 69.5315L148.863 71.5609L149.106 73.3352L150.469 74.3643C150.469 74.3643 162.483 83.0221 163.582 81.8924C164.77 80.6786 164.732 74.4108 164.732 74.4108Z" fill="#FFC0BB"/>
<path d="M166.262 129.208V131.711C166.262 131.761 166.252 131.811 166.232 131.857C166.213 131.903 166.184 131.945 166.148 131.98C166.113 132.015 166.07 132.043 166.023 132.061C165.976 132.08 165.926 132.089 165.876 132.088H159.827C159.733 132.091 159.642 132.063 159.566 132.008C159.491 131.954 159.435 131.876 159.409 131.787C159.382 131.698 159.385 131.602 159.418 131.515C159.451 131.428 159.512 131.355 159.592 131.306L162.907 129.213C162.907 129.213 164.317 130.15 166.262 129.208Z" fill="#07085B"/>
<path d="M177.425 129.213V131.716C177.426 131.767 177.415 131.817 177.396 131.863C177.376 131.91 177.348 131.952 177.312 131.987C177.275 132.022 177.233 132.049 177.186 132.068C177.139 132.086 177.089 132.095 177.039 132.093H170.99C170.897 132.096 170.806 132.069 170.73 132.014C170.654 131.96 170.599 131.882 170.572 131.793C170.545 131.704 170.549 131.608 170.582 131.521C170.615 131.434 170.676 131.361 170.755 131.312L174.07 129.218C174.07 129.218 175.479 130.155 177.425 129.213Z" fill="#07085B"/>
<path d="M163.701 64.2061C163.701 64.2061 162.769 64.4285 161.418 66.0984C160.068 67.7684 158.863 72.3876 158.863 72.3876L163.171 74.7436L165.977 69.1645L163.701 64.2061Z" fill="#F2B955"/>
<path d="M175.896 90.8516C175.441 91.0187 174.994 91.1996 174.551 91.3906C174.107 91.5816 173.671 91.7877 173.234 91.9963C172.797 92.2049 172.367 92.421 171.94 92.6434C171.513 92.8658 171.085 93.092 170.666 93.3283L170.632 93.2478C170.948 93.182 171.268 93.1329 171.589 93.1008C171.91 93.0694 172.232 93.0543 172.554 93.0556C172.876 93.0549 173.198 93.0738 173.518 93.1121L173.758 93.1435L173.995 93.1863L174.113 93.2076L174.23 93.2353L174.464 93.2918L174.228 93.2466L174.11 93.224L173.991 93.2064L173.753 93.1725L173.514 93.1498C173.435 93.141 173.354 93.136 173.274 93.1322C173.194 93.1285 173.114 93.1222 173.035 93.1209H172.795C172.715 93.1209 172.635 93.1209 172.555 93.1209C172.235 93.1268 171.915 93.1477 171.598 93.1838C171.281 93.2173 170.965 93.268 170.653 93.3358L170.367 93.3986L170.618 93.2554C171.037 93.0158 171.462 92.7858 171.893 92.5655C172.325 92.3452 172.759 92.132 173.195 91.9259C173.633 91.7224 174.074 91.5301 174.527 91.3454C174.752 91.2562 174.977 91.1682 175.205 91.0878C175.434 91.0074 175.666 90.927 175.896 90.8516Z" fill="white"/>
<path d="M163.142 90.6621C163.372 90.7375 163.604 90.8104 163.831 90.8958C164.057 90.9813 164.284 91.0655 164.509 91.1559C164.958 91.3407 165.402 91.5329 165.841 91.7365C166.279 91.9401 166.712 92.1574 167.141 92.3786C167.571 92.5997 167.996 92.8284 168.417 93.0684L168.668 93.2117L168.381 93.1489C168.07 93.0811 167.755 93.0303 167.438 92.9968C167.12 92.9616 166.801 92.9378 166.48 92.9315C166.4 92.9315 166.321 92.9315 166.24 92.9315H166C165.92 92.9315 165.841 92.9403 165.76 92.9428C165.68 92.9453 165.601 92.9503 165.522 92.9604L165.282 92.983L165.044 93.0157L164.919 93.0333L164.802 93.0559L164.568 93.1074L164.803 93.0509L164.92 93.0232L165.038 93.0018L165.275 92.9591L165.514 92.929C165.834 92.8904 166.157 92.872 166.479 92.8737C166.801 92.8728 167.123 92.8884 167.444 92.9202C167.765 92.9518 168.084 93.0008 168.4 93.0672L168.366 93.1476C167.947 92.9114 167.519 92.6877 167.094 92.4628C166.668 92.2379 166.234 92.023 165.799 91.8131C165.365 91.6033 164.927 91.3997 164.485 91.2062C164.043 91.0127 163.597 90.8292 163.142 90.6621Z" fill="white"/>
<path opacity="0.5" d="M164.115 85.3318C164.508 85.4009 164.905 85.4575 165.302 85.509C165.699 85.5605 166.097 85.6057 166.496 85.6447C167.292 85.7213 168.091 85.7703 168.893 85.7905C169.292 85.7992 169.693 85.8005 170.093 85.7905C170.492 85.7804 170.893 85.7578 171.291 85.7264C171.69 85.695 172.088 85.6459 172.484 85.5819C172.88 85.5178 173.27 85.4386 173.657 85.3306C173.273 85.4399 172.882 85.5266 172.488 85.5995C172.093 85.6723 171.695 85.7163 171.295 85.7565C170.896 85.7967 170.495 85.8143 170.094 85.8269C169.693 85.8395 169.292 85.8382 168.892 85.8269C168.09 85.8055 167.288 85.754 166.492 85.6686C166.094 85.6271 165.695 85.5768 165.298 85.5203C164.901 85.4638 164.507 85.4085 164.115 85.3318Z" fill="#DAEEF7"/>
<path d="M174.579 55.6781C174.579 55.6781 175.43 51.2801 172.946 49.7245C170.462 48.1689 167.91 48.4466 166.2 49.4883C164.49 50.53 162.974 53.8385 165.047 57.0113L170.155 53.8398L174.579 55.6781Z" fill="#07085B"/>
<path d="M173.135 86.8247C173.153 86.8709 173.174 86.9158 173.199 86.9592L173.268 87.0848L173.407 87.3474L173.641 87.7822L174.307 88.9395C174.399 89.1142 175.272 90.6359 175.478 90.9764C175.227 90.6698 174.911 90.3645 174.702 90.0264C174.596 89.8568 174.498 89.6847 174.399 89.5112C174.299 89.3378 174.206 89.1632 174.112 88.9885C173.928 88.6367 173.749 88.2811 173.583 87.9204C173.5 87.7407 173.42 87.5585 173.343 87.3763C173.306 87.2846 173.267 87.1929 173.231 87.0999C173.193 87.0103 173.161 86.9184 173.135 86.8247Z" fill="#EA9734"/>
<path d="M181.623 69.5917C179.665 67.2269 177.578 65.0379 175.699 63.8618C174.131 62.8791 171.525 62.6052 170.906 62.6153C169.376 62.4217 168.267 62.3413 167.444 62.761C164.999 63.1015 162.428 64.4712 162.396 65.332C162.227 69.6219 162.177 72.9116 162.2 75.4335C162.2 75.4423 162.123 84.5788 162.188 86.5303C162.188 86.5303 172.114 88.6765 177.199 87.391C177.199 87.391 178.045 75.441 176.841 72.2142L177.355 72.8676C177.355 72.8676 179.394 72.4039 181.623 69.5917Z" fill="#FFCC68"/>
<path d="M181.323 69.9639C179.975 71.5974 178.483 72.4707 177.736 72.7447L182.535 78.4997L173.74 87.968L175.284 90.6633C176.507 90.0715 176.783 87.8235 176.783 87.8235C176.783 87.8235 187.661 80.558 187.661 78.8189C187.668 76.4892 181.323 69.9639 181.323 69.9639Z" fill="#FFC0BB"/>
<path d="M181.405 69.8494C181.329 69.9349 181.26 70.0241 181.182 70.1007L180.948 70.3521L180.833 70.4777L180.707 70.5958L180.463 70.8308C180.381 70.9075 180.294 70.9804 180.212 71.0557C180.046 71.209 179.862 71.3397 179.688 71.483C179.329 71.7518 178.951 71.9949 178.557 72.2105L178.408 72.2897C178.359 72.3148 178.307 72.3387 178.257 72.3626C178.157 72.4128 178.054 72.4568 177.951 72.5008C177.899 72.5234 177.846 72.5423 177.795 72.5636C177.743 72.585 177.691 72.6051 177.638 72.6227C177.566 72.6478 177.492 72.6729 177.42 72.6943L176.895 72.066L176.298 71.3636C175.903 70.8936 175.497 70.4325 175.095 69.9676C174.693 69.5026 174.281 69.0452 173.867 68.5853C173.454 68.1254 173.039 67.6743 172.611 67.2295C172.975 67.7246 173.352 68.2096 173.73 68.6921C174.109 69.1747 174.494 69.6547 174.88 70.1322C175.266 70.6097 175.656 71.0846 176.052 71.5546L176.643 72.262L177.24 72.9645L177.305 73.0411L177.399 73.016C177.517 72.9847 177.632 72.9474 177.746 72.9042C177.858 72.8639 177.967 72.8187 178.074 72.7697C178.181 72.7207 178.287 72.6717 178.39 72.6177L178.546 72.536L178.698 72.4493C179.1 72.2165 179.482 71.9505 179.839 71.6539L180.098 71.4239C180.186 71.3485 180.266 71.2668 180.349 71.1864C180.432 71.106 180.512 71.0256 180.592 70.9414L180.819 70.6901L180.932 70.5644L181.038 70.43L181.248 70.1611C181.383 69.9776 181.499 69.7841 181.632 69.5994L181.405 69.8494Z" fill="#FBF9EB"/>
<path d="M167.44 62.9499C167.44 62.9499 169.412 64.1198 170.948 62.9499L170.588 60.0975L167.531 59.4692L167.44 62.9524V62.9499Z" fill="#FFC0BB"/>
<g opacity="0.6">
<path opacity="0.6" d="M167.482 61.3263L167.531 59.4653L170.632 60.4316L170.718 61.129C170.03 61.3791 168.722 61.6807 167.482 61.3263Z" fill="#FC8D84"/>
</g>
<path d="M165.322 58.6374C165.206 58.4009 165.113 58.1539 165.043 57.8998C164.86 57.2374 164.765 56.5538 164.759 55.8666C164.759 55.7322 164.747 55.599 164.734 55.4658C164.679 54.9028 164.738 54.3345 164.906 53.7946C165.474 51.9625 167.251 50.6858 169.225 50.6959C171.885 50.7097 173.904 52.9011 173.698 55.4005C173.835 55.3338 173.985 55.2992 174.137 55.2992C174.29 55.2992 174.44 55.3338 174.577 55.4005C175.09 55.6719 175.222 56.3957 174.871 57.0177C174.521 57.6397 173.821 57.9224 173.308 57.6522C173.238 57.6149 173.174 57.5679 173.117 57.5128C172.927 58.5376 172.362 59.455 171.532 60.0859C170.702 60.7168 169.668 61.0162 168.629 60.9256C167.617 60.8327 166.676 60.3648 165.991 59.6137C165.941 59.5665 165.894 59.5166 165.85 59.4642C165.639 59.2128 165.461 58.9349 165.322 58.6374Z" fill="#FFC0BB"/>
<path d="M169.64 55.4671C169.636 55.5175 169.642 55.5682 169.658 55.6164C169.673 55.6646 169.698 55.7092 169.731 55.7477C169.764 55.7862 169.804 55.8179 169.849 55.8409C169.894 55.8639 169.943 55.8778 169.994 55.8817C170.096 55.8927 170.198 55.863 170.278 55.799C170.358 55.735 170.41 55.6419 170.422 55.54C170.427 55.4893 170.422 55.4382 170.407 55.3896C170.392 55.341 170.367 55.296 170.334 55.2572C170.301 55.2185 170.26 55.1868 170.215 55.1641C170.169 55.1415 170.12 55.1282 170.069 55.1253C169.967 55.1143 169.865 55.1441 169.784 55.2081C169.704 55.2721 169.652 55.3651 169.64 55.4671Z" fill="#333333"/>
<path d="M166.263 55.3677C166.258 55.4184 166.263 55.4695 166.278 55.5181C166.293 55.5667 166.318 55.6117 166.351 55.6505C166.384 55.6892 166.425 55.7209 166.47 55.7435C166.516 55.7662 166.565 55.7794 166.616 55.7824C166.718 55.7934 166.821 55.7636 166.901 55.6996C166.981 55.6356 167.033 55.5425 167.045 55.4406C167.049 55.39 167.044 55.3391 167.028 55.2907C167.013 55.2424 166.988 55.1975 166.955 55.1588C166.922 55.1201 166.882 55.0883 166.837 55.0653C166.792 55.0423 166.742 55.0285 166.692 55.0247C166.589 55.0137 166.487 55.0436 166.407 55.1079C166.326 55.1722 166.275 55.2656 166.263 55.3677Z" fill="#333333"/>
<path d="M169.244 54.6715C169.432 54.6154 169.624 54.5734 169.819 54.5458C170.002 54.52 170.187 54.52 170.369 54.5458C170.551 54.5701 170.727 54.6214 170.893 54.6979L170.959 54.7255C170.98 54.7343 171 54.7481 171.022 54.7582L171.147 54.8248C171.234 54.8713 171.313 54.9291 171.408 54.9756C171.359 54.8868 171.302 54.8027 171.238 54.7242C171.168 54.646 171.09 54.5756 171.005 54.5144C170.829 54.3856 170.623 54.3035 170.406 54.2757C170.189 54.2452 169.969 54.2667 169.763 54.3385C169.564 54.4044 169.386 54.5188 169.244 54.6715Z" fill="#07085B"/>
<path d="M167.663 54.6023C167.535 54.4373 167.367 54.3076 167.175 54.2253C166.978 54.137 166.763 54.0961 166.547 54.1059C166.329 54.1155 166.116 54.1794 165.929 54.2919C165.839 54.3454 165.754 54.4086 165.678 54.4804C165.606 54.5544 165.541 54.6342 165.483 54.7191C165.583 54.6814 165.668 54.6299 165.758 54.5935L165.893 54.5369C165.914 54.5294 165.935 54.5168 165.958 54.5105L166.026 54.4892C166.198 54.4271 166.378 54.3915 166.561 54.3836C166.745 54.3734 166.929 54.3895 167.109 54.4314C167.298 54.4737 167.483 54.5308 167.663 54.6023Z" fill="#07085B"/>
<path d="M168.278 54.5938C168.337 54.8618 168.357 55.1368 168.337 55.4105C168.328 55.5511 168.305 55.6903 168.268 55.8264C168.23 55.9756 168.161 56.1148 168.065 56.2348L168.017 56.2801L167.976 56.319C167.955 56.3354 167.936 56.3535 167.919 56.373C167.886 56.4087 167.862 56.4518 167.849 56.4987C167.837 56.5488 167.836 56.6009 167.846 56.6514C167.856 56.7019 167.876 56.7497 167.906 56.7915C168.032 56.9888 168.283 57.1182 168.545 57.2049C168.397 57.2209 168.247 57.2028 168.107 57.1521C167.967 57.1013 167.84 57.0192 167.737 56.9121C167.68 56.8501 167.638 56.7758 167.614 56.695C167.59 56.6141 167.585 56.5289 167.6 56.4459C167.608 56.4021 167.622 56.3598 167.643 56.3203C167.661 56.2811 167.685 56.2443 167.713 56.211C167.741 56.1787 167.771 56.1489 167.803 56.1217C167.815 56.1123 167.825 56.1018 167.835 56.0903L167.861 56.0652C167.933 55.9725 167.989 55.8679 168.025 55.7561C168.067 55.6325 168.102 55.5067 168.13 55.3791C168.182 55.1265 168.227 54.8627 168.278 54.5938Z" fill="#F99893"/>
<path d="M167.063 57.7337C167.189 58.2012 167.768 58.5455 168.452 58.5341C169.135 58.5228 169.696 58.1572 169.811 57.6885L167.063 57.7337Z" fill="white"/>
<path d="M173.583 55.5359C173.835 55.2946 174.046 55.3047 174.046 55.3047L173.866 53.9023L173.395 53.0692C173.395 53.0692 171.588 50.8463 171.525 50.7923C171.462 50.7383 170.123 50.0484 170.04 50.0132C169.957 49.9781 168.132 50.3261 168.132 50.3261C168.132 50.3261 164.876 49.7908 165.487 51.457C166.098 53.1233 168.49 53.9212 168.608 53.8445C168.211 53.4814 168.129 52.407 168.129 52.407C169.874 54.1536 173.085 55.3549 173.583 55.5359Z" fill="#07085B"/>
<path d="M144.083 42.9278L154.572 131.325L155.085 131.267L144.598 42.8838L144.083 42.9278Z" fill="#8A452B"/>
<path d="M147.882 71.4129C147.883 71.2544 147.895 71.0961 147.917 70.9392C147.937 70.8476 147.982 70.7632 148.046 70.6947C148.11 70.6262 148.191 70.5761 148.281 70.5496L148.492 70.4868L148.511 70.9605C148.492 71.3224 148.486 71.296 148.987 71.5147C149.702 71.825 149.402 72.1995 149.402 72.1995C149.402 72.1995 149.204 72.4659 148.329 72.0286C148.329 72.0286 147.909 71.8075 147.882 71.4129Z" fill="#FFC0BB"/>
<path d="M147.808 71.8186C147.808 71.6676 147.819 71.5168 147.842 71.3675C147.86 71.2795 147.902 71.1981 147.963 71.1317C148.024 71.0654 148.101 71.0167 148.187 70.9905L148.388 70.9302L148.406 71.3813C148.389 71.7256 148.382 71.7017 148.859 71.909C149.54 72.2056 149.255 72.5612 149.255 72.5612C149.255 72.5612 149.065 72.8125 148.234 72.3979C148.235 72.4041 147.833 72.1943 147.808 71.8186Z" fill="#FFC0BB"/>
<path d="M147.917 72.3589C147.918 72.2327 147.927 72.1067 147.946 71.9819C147.962 71.908 147.998 71.8398 148.049 71.7845C148.101 71.7292 148.166 71.6889 148.239 71.6677L148.408 71.6162L148.423 71.9932C148.41 72.2847 148.403 72.2646 148.8 72.4405C149.377 72.6919 149.136 72.9922 149.136 72.9922C149.136 72.9922 148.975 73.2058 148.271 72.8539C148.278 72.8552 147.938 72.6768 147.917 72.3589Z" fill="#FFC0BB"/>
<path d="M148.038 70.8294C148.038 70.6713 148.05 70.5134 148.073 70.3569C148.093 70.2653 148.137 70.1807 148.202 70.1122C148.266 70.0436 148.347 69.9936 148.437 69.9674L148.648 69.9033L148.666 70.377C148.648 70.7389 148.642 70.7138 149.143 70.9312C149.858 71.2428 149.558 71.6173 149.558 71.6173C149.558 71.6173 149.359 71.8837 148.485 71.4451C148.486 71.4451 148.065 71.2252 148.038 70.8294Z" fill="#FFC0BB"/>
<path d="M148.666 70.3774C148.664 70.4568 148.668 70.5362 148.677 70.6149C148.688 70.6519 148.708 70.6856 148.735 70.713C148.762 70.7404 148.796 70.7606 148.833 70.772C148.979 70.8411 149.134 70.8977 149.284 70.9668C149.32 70.9881 149.358 71.007 149.393 71.0296C149.428 71.0528 149.462 71.0788 149.492 71.1075C149.56 71.163 149.611 71.236 149.64 71.3186C149.668 71.4036 149.663 71.496 149.626 71.5775C149.617 71.5985 149.605 71.6183 149.592 71.6365C149.576 71.657 149.556 71.6738 149.533 71.6856C149.493 71.7069 149.451 71.7217 149.407 71.7295C149.323 71.7404 149.238 71.7375 149.156 71.7207C149.071 71.7069 148.986 71.6863 148.904 71.6592C148.747 71.6059 148.595 71.5387 148.45 71.4581C148.307 71.3706 148.189 71.2488 148.107 71.1038C148.068 71.0313 148.044 70.9519 148.036 70.87C148.032 70.8283 148.032 70.7861 148.036 70.7444L148.046 70.6187V70.7444C148.044 70.7839 148.047 70.8235 148.054 70.8625C148.067 70.9398 148.096 71.0137 148.138 71.0799C148.223 71.2135 148.34 71.3241 148.479 71.4016C148.623 71.4734 148.772 71.5351 148.925 71.5863C149.073 71.64 149.232 71.6606 149.389 71.6466C149.426 71.6414 149.461 71.6304 149.494 71.6139C149.507 71.6074 149.518 71.5984 149.528 71.5875C149.538 71.5735 149.547 71.5584 149.554 71.5423C149.585 71.4776 149.591 71.4035 149.569 71.335C149.545 71.2635 149.501 71.2001 149.443 71.1515C149.415 71.1255 149.385 71.1012 149.353 71.0786C149.32 71.056 149.286 71.0359 149.253 71.0145C149.113 70.9379 148.959 70.8788 148.813 70.8009C148.776 70.7807 148.742 70.7558 148.711 70.7268C148.68 70.6963 148.661 70.6565 148.656 70.6137C148.651 70.5348 148.655 70.4557 148.666 70.3774Z" fill="#F99893"/>
<path d="M149.292 71.693C149.345 71.7279 149.39 71.7741 149.423 71.8284C149.457 71.8827 149.478 71.9437 149.485 72.0071C149.486 72.0727 149.47 72.1373 149.437 72.1943C149.428 72.2103 149.416 72.2247 149.402 72.2371C149.389 72.2479 149.374 72.2572 149.358 72.2647C149.328 72.2805 149.295 72.2923 149.262 72.2999C149.132 72.3206 148.999 72.3133 148.872 72.2785C148.748 72.2465 148.626 72.2045 148.509 72.1529C148.45 72.129 148.395 72.0988 148.337 72.0712C148.278 72.0429 148.223 72.0074 148.173 71.9656C148.069 71.8869 147.984 71.7866 147.922 71.6716C147.894 71.6139 147.873 71.5526 147.861 71.4894C147.856 71.4582 147.854 71.4267 147.853 71.3952V71.3009C147.864 71.1785 147.882 71.0568 147.907 70.9365C147.898 71.0622 147.892 71.1816 147.893 71.3034V71.3927C147.895 71.4222 147.899 71.4516 147.905 71.4806C147.919 71.5378 147.942 71.5928 147.971 71.644C148.033 71.7464 148.113 71.836 148.209 71.9078C148.256 71.9448 148.307 71.9768 148.361 72.0033C148.417 72.0285 148.472 72.0574 148.529 72.08C148.642 72.1302 148.759 72.1722 148.878 72.2056C148.994 72.2401 149.116 72.2512 149.236 72.2383C149.264 72.2367 149.291 72.2296 149.316 72.2175C149.34 72.2054 149.363 72.1886 149.381 72.168C149.412 72.1194 149.43 72.0635 149.432 72.0059C149.434 71.9468 149.42 71.8883 149.392 71.8362C149.365 71.7844 149.331 71.7363 149.292 71.693Z" fill="#F99893"/>
<path d="M149.293 72.272C149.312 72.3133 149.322 72.3583 149.322 72.4039C149.322 72.4495 149.312 72.4946 149.293 72.5359C149.284 72.5592 149.27 72.5802 149.251 72.5974C149.233 72.6137 149.211 72.6273 149.189 72.6376C149.144 72.6567 149.096 72.6686 149.048 72.6728C148.861 72.6783 148.675 72.6432 148.503 72.5698C148.418 72.5359 148.334 72.4994 148.251 72.458C148.167 72.4169 148.091 72.3622 148.025 72.2959C147.959 72.2326 147.904 72.1592 147.861 72.0785C147.82 71.9978 147.799 71.9086 147.8 71.8184C147.834 71.9904 147.929 72.1444 148.068 72.2519C148.134 72.3083 148.207 72.3552 148.285 72.3914C148.369 72.4291 148.453 72.4642 148.537 72.4969C148.619 72.5291 148.702 72.556 148.788 72.5773C148.872 72.6008 148.959 72.6127 149.047 72.6125C149.089 72.6119 149.132 72.6047 149.172 72.5911C149.191 72.5852 149.209 72.5763 149.225 72.5648C149.24 72.5522 149.252 72.5368 149.26 72.5195C149.282 72.4827 149.297 72.4417 149.302 72.3992C149.308 72.3566 149.305 72.3133 149.293 72.272Z" fill="#F99893"/>
<path d="M149.106 72.6368C149.137 72.664 149.163 72.6975 149.181 72.7351C149.199 72.7727 149.209 72.8137 149.211 72.8554C149.211 72.8991 149.2 72.942 149.181 72.9811C149.177 72.9919 149.172 73.002 149.165 73.0112C149.156 73.0214 149.147 73.0302 149.136 73.0376C149.117 73.051 149.096 73.0616 149.074 73.069C148.99 73.0954 148.901 73.1014 148.814 73.0866C148.731 73.0732 148.649 73.0526 148.569 73.0251C148.491 72.9967 148.415 72.9644 148.34 72.9283C148.302 72.9102 148.265 72.89 148.229 72.868C148.193 72.8452 148.16 72.8192 148.129 72.7901C148.065 72.7382 148.012 72.6729 147.976 72.5987C147.939 72.5244 147.919 72.4431 147.917 72.3604C147.952 72.5125 148.041 72.6465 148.168 72.7373C148.199 72.7616 148.231 72.7839 148.265 72.8039C148.296 72.824 148.335 72.8366 148.371 72.8542C148.443 72.8881 148.519 72.9183 148.594 72.9446C148.669 72.9713 148.746 72.9919 148.824 73.0062C148.899 73.0226 148.977 73.0226 149.052 73.0062C149.068 73.0016 149.084 72.9948 149.099 72.9861C149.106 72.9827 149.112 72.9785 149.117 72.9735L149.132 72.9522C149.152 72.9209 149.164 72.8857 149.168 72.8491C149.174 72.8116 149.17 72.7733 149.158 72.7373C149.145 72.7018 149.127 72.668 149.106 72.6368Z" fill="#F99893"/>
</g>
<defs>
<filter id="filter0_b_5460_15271" x="-89.4814" y="-100" width="422.449" height="379.083" filterUnits="userSpaceOnUse" color-interpolation-filters="sRGB">
<feFlood flood-opacity="0" result="BackgroundImageFix"/>
<feGaussianBlur in="BackgroundImage" stdDeviation="50"/>
<feComposite in2="SourceAlpha" operator="in" result="effect1_backgroundBlur_5460_15271"/>
<feBlend mode="normal" in="SourceGraphic" in2="effect1_backgroundBlur_5460_15271" result="shape"/>
</filter>
<clipPath id="clip0_5460_15271">
<rect width="232.936" height="209.004" fill="white" transform="translate(0.0322266)"/>
</clipPath>
</defs>
</svg>
