<svg width="399" height="359" viewBox="0 0 399 359" fill="none" xmlns="http://www.w3.org/2000/svg">
<g clip-path="url(#clip0_5460_16366)">
<g filter="url(#filter0_b_5460_16366)">
<path d="M20.7407 184.023C22.4345 155.624 9.90896 135.482 27.3694 113.947C38.1839 100.602 79.8582 83.6994 90.6727 70.3631C94.3034 65.8861 97.99 61.351 102.615 58.0665C115.261 49.078 131.833 51.1702 147.014 51.9623C158.227 52.5477 169.545 52.2248 180.549 49.8551C208.466 43.8413 232.36 25.2617 258.637 13.5527C270.658 8.19424 283.265 4.26438 296.201 1.84363C308.081 -0.373337 320.58 -1.2343 331.972 2.98871C343.363 7.21172 353.412 17.4787 354.877 30.2295C355.697 37.3625 353.851 44.5042 353.403 51.6717C352.955 58.8392 354.378 66.9365 359.879 71.0928C364.327 74.4548 370.28 74.3752 375.303 76.6438C388.055 82.4079 390.626 100.501 388.961 115.15C387.295 129.799 383.486 145.605 390.037 158.605C391.853 162.21 394.393 165.376 396.007 169.089C397.944 173.534 398.437 178.519 398.712 183.409C400.255 210.71 395.572 238.386 385.179 263.397C383.458 267.559 381.495 271.752 378.374 274.865C374.5 278.724 369.241 280.541 364.889 283.767C360.004 287.39 356.401 292.691 351.617 296.466C342.702 303.505 330.924 304.43 319.847 305.106C288.972 306.979 257.587 308.808 227.489 301.232C193.423 292.667 161.203 272.174 126.239 274.111C107.873 275.127 88.9704 282.319 71.5896 275.911C62.9982 272.742 55.5604 266.182 50.8665 257.908C45.8886 249.139 46.0845 238.24 40.6094 229.8C36.9636 224.18 30.9893 221.139 27.2209 215.669C21.2745 207.053 20.1231 194.376 20.7407 184.023Z" fill="#FEE4CB" fill-opacity="0.3"/>
</g>
<path opacity="0.2" d="M395.088 231.298C396.959 222.386 398.167 213.347 398.699 204.255C381.177 201.552 363.262 200.228 346.54 194.981C345.95 193.065 348.178 191.425 350.209 190.54C357.905 187.191 367.035 186.451 375.31 188.478C378.235 189.199 381.043 190.25 383.968 190.969C388.855 192.172 393.928 192.421 398.998 192.081C398.976 189.194 398.883 186.309 398.721 183.424C398.506 179.634 398.157 175.79 397.111 172.182C389.071 172.314 380.97 172.398 373.061 171.184C361.224 169.361 349.572 164.63 337.703 166.263C330.44 167.264 323.884 170.581 316.84 172.423C302.539 176.169 287.207 173.67 272.291 173.971C266.695 174.085 260.884 174.662 256.096 177.223C251.307 179.785 247.877 184.804 249.181 189.567C250.507 194.415 255.979 197.4 261.149 199.507C270.691 203.375 280.677 206.042 290.877 207.447C304.452 209.328 318.304 209.012 331.968 210.323C335.235 210.637 338.654 211.1 341.263 212.85C343.396 214.283 344.734 216.412 346.417 218.248C352.409 224.787 362.39 227.288 371.812 228.838C379.512 230.14 387.286 230.961 395.088 231.298Z" fill="white"/>
<path opacity="0.5" d="M194.219 89.431C195.672 83.8993 201.339 79.7732 208.109 79.7732C209.32 79.7723 210.527 79.9066 211.708 80.1735C215.05 73.9316 222.303 69.6031 230.713 69.6031C232.821 69.6001 234.92 69.8773 236.954 70.4274C241.474 63.8777 249.708 59.4976 259.107 59.4976C270.287 59.4976 279.81 65.6965 283.426 74.3771C286.116 73.0791 289.065 72.4101 292.052 72.4206C301.853 72.4206 309.798 79.3621 309.798 87.9178C309.798 88.4213 309.769 88.9243 309.712 89.4245L194.219 89.431Z" fill="white"/>
<path opacity="0.5" d="M154.144 80.6752C153.741 79.1513 152.179 78.0126 150.313 78.0126C149.979 78.0125 149.647 78.0493 149.321 78.1224C148.398 76.4005 146.398 75.2081 144.078 75.2081C143.497 75.2073 142.918 75.284 142.357 75.4362C141.108 73.6282 138.84 72.4229 136.249 72.4229C133.165 72.4229 130.539 74.1319 129.543 76.5275C128.801 76.1687 127.988 75.9839 127.164 75.9872C124.461 75.9872 122.271 77.9007 122.271 80.264C122.271 80.4021 122.279 80.5401 122.294 80.6773L154.144 80.6752Z" fill="white"/>
<path opacity="0.5" d="M342.371 28.6863C341.797 26.4973 339.556 24.8658 336.879 24.8658C336.4 24.8657 335.923 24.9191 335.456 25.0251C334.135 22.5563 331.266 20.8451 327.941 20.8451C327.107 20.8437 326.277 20.9537 325.472 21.1723C323.682 18.5894 320.428 16.8481 316.713 16.8481C312.293 16.8481 308.535 19.3019 307.1 22.7328C306.036 22.2204 304.869 21.9562 303.688 21.9601C299.815 21.9601 296.672 24.7044 296.672 28.0901C296.672 28.2893 296.683 28.4883 296.705 28.6863H342.371Z" fill="white"/>
<path opacity="0.5" d="M388.567 97.0656C385.166 94.5172 380.748 92.9761 375.917 92.9761C368.851 92.9761 362.664 96.2714 359.259 101.198C357.728 100.783 356.149 100.574 354.563 100.576C348.238 100.576 342.784 103.831 340.27 108.527C339.383 108.325 338.475 108.224 337.565 108.226C332.473 108.226 328.212 111.327 327.119 115.488H388.922L388.961 115.154C389.621 109.334 389.615 102.98 388.567 97.0656Z" fill="white"/>
<path opacity="0.5" d="M29.6226 111.528H98.2396C97.1635 107.438 92.9647 104.371 87.948 104.371C87.0509 104.37 86.1565 104.47 85.2815 104.668C82.8043 100.043 77.4304 96.8355 71.1978 96.8355C69.6359 96.834 68.0807 97.0396 66.5728 97.4468C64.8487 94.9996 62.5504 93.013 59.8796 91.6611C48.0385 98.4864 36.0618 105.327 29.6226 111.528Z" fill="white"/>
<path opacity="0.2" d="M386.092 88.4563C383.869 83.2217 380.4 78.947 375.303 76.6418C370.28 74.3732 364.327 74.4528 359.879 71.0908C357.15 69.0309 355.426 65.9982 354.434 62.591C333.588 62.5737 312.682 63.3658 292.484 59.1902C290.799 58.8415 289.054 58.4261 287.765 57.4187C284.98 55.2405 285.559 51.039 288.053 48.609C290.547 46.1789 294.327 45.1221 297.966 44.3817C316.352 40.6429 335.353 42.3369 354.305 43.4411C354.873 39.0308 355.381 34.627 354.877 30.2275C354.711 28.8018 354.437 27.3908 354.057 26.0066C335.448 26.5985 316.808 24.3148 298.194 24.7453C296.063 24.7948 293.769 24.9326 292.118 26.1099C290.631 27.1689 289.966 28.8521 288.946 30.2662C285.854 34.5194 279.716 36.0777 274.118 37.2874L213.343 50.5311C207.836 51.7321 202.049 53.0644 197.988 56.5298C190.935 62.5565 192.607 74.3753 201.119 78.721C206.112 81.2695 212.22 81.2845 218.003 81.2307L244.952 80.9768C251.096 80.9208 257.434 80.8928 263.116 82.9527C268.397 84.8683 272.706 88.4563 277.966 90.4172C283.719 92.5696 290.171 92.6126 296.427 92.6277L365.642 92.8042C370.969 92.8193 376.463 92.8042 381.37 90.994C383.054 90.37 384.643 89.516 386.092 88.4563Z" fill="white"/>
<path d="M39.8237 124.128C46.6353 122.621 45.3698 133.702 44.9136 136.668C46.999 137.808 48.9865 139.119 50.8557 140.587C50.04 137.027 47.2702 134.991 47.4122 132.595C47.5715 129.914 49.4202 127.232 52.4074 131.031C54.7747 134.044 52.5451 139.134 51.5164 141.119C53.9145 143.075 56.073 145.309 57.947 147.772C57.5747 143.525 54.6284 140.785 55.0717 138.086C55.556 135.131 57.8889 132.425 60.7168 137.083C63.054 140.932 59.6601 146.564 58.4119 148.403C59.1272 149.372 59.7668 150.396 60.3251 151.463C61.4982 153.776 62.5527 156.146 63.4845 158.566C63.2391 154.821 61.1817 151.945 61.8854 149.55C62.7269 146.674 65.3525 144.341 67.5499 149.44C69.2867 153.476 65.6668 158.31 64.0785 160.157C65.7229 164.721 66.925 169.433 67.6683 174.227C68.5743 170.824 67.6683 165.37 69.4675 162.537C70.6468 160.678 72.0651 160.628 73.0551 160.917C73.4837 161.053 73.8735 161.29 74.1917 161.608C74.51 161.926 74.7475 162.316 74.8844 162.744C76.7094 167.88 69.9065 173.472 67.7931 175.056C68.4839 179.849 68.7174 184.697 68.4904 189.535C68.9725 187.781 69.6891 185.127 70.0076 183.723C70.5091 181.526 72.1942 178.79 74.0322 178.089L74.2581 178.011C75.6764 177.581 77.0559 178.442 77.5961 179.925C79.66 185.71 70.4166 190.185 68.4 191.083C68.4 191.113 68.4 191.141 68.4 191.169C67.6747 201.53 65.1223 208.119 65.0147 208.388L64.1344 208C64.1603 207.938 66.5857 201.664 67.3734 191.982C59.2469 187.938 58.7218 181.53 60.5489 179.856C62.4364 178.123 65.9896 178.493 66.1811 183.054C66.2909 185.699 66.9559 188.411 67.4939 190.224C67.7713 185.29 67.5608 180.342 66.8655 175.45C54.8307 174.524 56.4857 166.145 59.3566 165.06C62.2621 163.96 63.7191 165.766 64.5218 169.447C64.9412 171.324 65.6965 173.11 66.7514 174.718C66.0379 170.008 64.8748 165.378 63.2779 160.891C61.3646 162.163 56.2877 165.047 53.2876 162.064C49.5385 158.338 52.1749 156.02 54.8156 155.822C57.2432 155.633 59.3115 159.317 63.0239 160.198C62.0018 157.412 60.8161 154.69 59.4729 152.044C59.4513 151.999 58.2569 149.617 55.5301 146.506C53.7417 148.043 49.0177 151.558 45.6991 149.066C41.5325 145.934 43.9085 143.273 46.5255 142.694C48.8606 142.178 51.2603 145.299 54.8909 145.792C51.9055 142.569 48.4229 139.847 44.5757 137.727C42.7098 139.307 38.1042 142.638 34.8523 140.193C30.6857 137.062 33.0617 134.403 35.6787 133.824C38.0461 133.299 40.4866 136.519 44.1969 136.941L44.2443 136.838C43.237 135.822 41.0957 133.68 40.0196 132.716C38.5841 131.424 37.3617 128.803 37.7921 126.769C37.8942 126.198 38.132 125.66 38.4856 125.2C38.8392 124.741 39.2982 124.373 39.8237 124.128Z" fill="#07085B"/>
<path d="M28.9297 177.589L15.3411 172.385C13.7119 162.053 12.9414 153.308 12.9414 153.308C29.6787 155.346 42.1848 161.535 51.5338 169.647L52.2504 186.358L57.5835 175.628C79.2384 199.914 79.1846 234.688 79.1846 234.688C79.1846 234.688 33.4471 212.376 25.0623 204.029C21.8341 200.801 19.2795 192.512 17.3748 183.541C22.2882 181.388 28.9297 177.589 28.9297 177.589Z" fill="#06BFAD"/>
<path d="M12.9414 153.308C12.9414 153.308 64.7028 201.154 79.1889 234.686C79.1889 234.686 33.4514 212.374 25.0666 204.027C21.8384 200.799 19.2838 192.51 17.3791 183.539C22.2839 181.386 28.9297 177.589 28.9297 177.589L15.3411 172.385C13.7119 162.055 12.9414 153.308 12.9414 153.308Z" fill="#02CCC0"/>
<path d="M3.8681 168.162C8.05403 164.793 10.9702 172.863 11.6783 175.065C13.507 175.137 15.3267 175.361 17.1189 175.732C15.3369 173.558 12.7263 173.1 12.0054 171.401C11.194 169.496 11.5513 167.013 14.9129 168.603C17.5773 169.869 17.7861 174.143 17.7581 175.868C20.0826 176.393 22.3366 177.193 24.4728 178.25C22.7511 175.452 19.7897 174.57 19.1699 172.555C18.492 170.351 19.1699 167.684 22.7188 169.927C25.6522 171.782 25.2411 176.83 25.0108 178.536C25.8361 178.96 26.6275 179.447 27.3782 179.992C28.9778 181.183 30.5164 182.455 31.9881 183.801C30.5354 181.3 28.1314 180.024 27.7936 178.132C27.3889 175.859 28.4005 173.347 31.6674 176.113C34.25 178.3 33.4107 182.876 32.948 184.695C35.6463 187.279 38.0902 190.117 40.2459 193.169C39.7057 190.51 37.2114 187.058 37.4804 184.488C37.6569 182.8 38.6189 182.28 39.4001 182.142C39.7422 182.088 40.0921 182.118 40.4205 182.228C40.7489 182.337 41.0462 182.524 41.2875 182.772C44.3005 185.691 41.5329 191.879 40.6161 193.698C42.7366 196.766 44.5598 200.03 46.061 203.444C45.792 202.069 45.3766 200 45.1184 198.924C44.7116 197.237 44.9376 194.772 45.9642 193.657C46.0072 193.61 46.0502 193.567 46.0933 193.526C46.924 192.742 48.1787 192.861 49.0503 193.7C52.4593 196.983 47.617 203.24 46.5345 204.55L46.5603 204.613C49.612 212.006 50.1092 217.426 50.1286 217.652L49.3904 217.687C49.3904 217.633 48.9083 212.476 46.132 205.528C39.1397 205.528 36.5808 201.285 37.2673 199.501C37.9775 197.658 40.5536 196.703 42.2474 199.776C43.188 201.402 44.3179 202.911 45.6134 204.271C44.1122 200.773 42.2704 197.433 40.1146 194.296C31.506 197.783 29.7671 191.438 31.3726 189.705C32.9781 187.973 34.6245 188.696 36.4452 190.956C37.3769 192.108 38.5102 193.081 39.7896 193.827C37.6814 190.825 35.2918 188.031 32.6531 185.482C31.7707 187.015 29.257 190.745 26.1644 189.718C22.3013 188.427 23.3257 185.93 25.0754 184.882C26.6852 183.92 29.3797 185.743 32.2377 185.097C30.5782 183.526 28.8269 182.055 26.993 180.691C26.9628 180.667 25.3229 179.434 22.3766 178.222C21.6685 179.895 19.6154 183.941 16.4732 183.358C12.524 182.628 13.245 179.979 14.8591 178.681C16.2925 177.525 19.0214 178.851 21.6901 177.949C18.5267 176.75 15.1916 176.066 11.8117 175.923C11.0649 177.645 9.03111 181.52 5.94923 180.958C2.00218 180.228 2.721 177.579 4.33511 176.283C5.78997 175.11 8.577 176.498 11.2801 175.512V175.413C10.2385 175.058 8.02605 174.313 6.95428 174.019C5.5231 173.625 3.77771 172.232 3.37741 170.682C3.25208 170.254 3.23123 169.801 3.3166 169.363C3.40196 168.924 3.59107 168.512 3.8681 168.162Z" fill="#FEB546"/>
<path d="M0.000488281 195.101C10.0403 193.074 19.3074 193.401 27.7245 195.241C29.0158 199.021 30.66 203.511 30.66 203.511L33.4578 196.761C64.7737 206.524 82.8195 236.421 82.8195 236.421C60.8999 241.201 44.5543 238.788 32.4592 233.261C32.5905 230.592 32.8423 226.634 32.8423 226.634L28.6435 231.347C23.457 228.49 18.7458 224.844 14.6782 220.54C16.8798 218.104 19.2945 215.28 19.2945 215.28L11.2864 216.647C2.61105 205.809 0.000488281 195.101 0.000488281 195.101Z" fill="#55769F"/>
<path d="M32.4442 233.261C32.5754 230.592 32.8272 226.634 32.8272 226.634L28.6284 231.348C23.442 228.49 18.7307 224.844 14.6631 220.54C16.8647 218.104 19.2795 215.28 19.2795 215.28L11.2713 216.647C2.61105 205.809 0.000488281 195.101 0.000488281 195.101C37.3984 203.965 82.8131 236.427 82.8131 236.427C60.8934 241.201 44.5478 238.784 32.4442 233.261Z" fill="#07085B"/>
<path d="M360.408 178.784L369.355 174.132C369.662 166.892 369.507 160.809 369.507 160.809C358.142 163.53 352.979 165.833 347.179 172.154L346.159 181.791L342.3 176.22C329.299 194.645 330.291 222.049 330.291 222.049C330.291 222.049 360.029 203.091 365.145 196.683C367.123 194.21 368.222 188.289 368.827 181.971C365.283 180.878 360.408 178.784 360.408 178.784Z" fill="#06BFAD"/>
<path d="M369.507 160.809C369.507 160.809 337.63 197.83 330.291 222.049C330.291 222.049 360.029 203.091 365.145 196.683C367.123 194.21 368.223 188.289 368.827 181.971C365.283 180.878 360.408 178.784 360.408 178.784L369.355 174.132C369.662 166.892 369.507 160.809 369.507 160.809Z" fill="#02CCC0"/>
<path d="M381.697 188.566C375.248 187.98 368.748 188.756 362.618 190.844C362.027 193.547 361.248 196.767 361.248 196.767L358.796 192.339C338 201.524 327.926 223.53 327.926 223.53C343.393 225.097 354.457 222.148 362.36 217.391C362.059 215.566 361.575 212.858 361.575 212.858L364.837 215.775C368.184 213.399 371.141 210.518 373.603 207.234C371.894 205.727 370.011 203.977 370.011 203.977L375.632 204.287C380.748 196.145 381.697 188.566 381.697 188.566Z" fill="#FF5B7E"/>
<path d="M362.364 217.385C362.063 215.56 361.579 212.852 361.579 212.852L364.841 215.769C368.188 213.393 371.145 210.512 373.607 207.228C371.898 205.721 370.015 203.971 370.015 203.971L375.637 204.281C380.748 196.139 381.704 188.569 381.704 188.569C356.65 197.609 327.932 223.532 327.932 223.532C343.4 225.097 354.464 222.148 362.364 217.385Z" fill="#E03268"/>
<path d="M337.74 117.791L205.63 88.5273V295.592L337.74 323.481V117.791Z" fill="#1C2072"/>
<path d="M341.198 323.429L337.74 323.481V116.401L341.198 116.351V323.429Z" fill="#07085B"/>
<path d="M205.63 88.5274L207.147 87.3823L341.198 116.351L337.74 117.791L205.63 88.5274Z" fill="#4D5296"/>
<path d="M73.52 117.791L205.63 88.5273V295.592L73.52 323.481V117.791Z" fill="#1C2072"/>
<path d="M79.062 119.75L196.477 90.5869C196.477 90.5869 202.643 93.1698 205.63 92.819L149.827 139.468C149.827 139.468 111.172 144.474 110.178 142.808C109.184 141.142 79.062 119.75 79.062 119.75Z" fill="#EAF5F9"/>
<path d="M79.062 322.506L94.0238 329.202V126.444L79.062 119.748V322.506Z" fill="#DAEEF7"/>
<path d="M205.63 295.593L94.0234 329.202V126.429L205.63 92.8193V295.593Z" fill="#CAE2EA"/>
<g style="mix-blend-mode:multiply" opacity="0.5">
<path d="M194.447 125.955L105.206 152.83V138.226L194.447 111.351V125.955Z" fill="#CAE2EA"/>
</g>
<g style="mix-blend-mode:multiply" opacity="0.5">
<path d="M194.447 132.322L138.312 149.227V146.606L194.447 129.701V132.322Z" fill="#CAE2EA"/>
</g>
<g style="mix-blend-mode:multiply" opacity="0.5">
<path d="M194.447 138.876L138.312 155.781V153.159L194.447 136.254V138.876Z" fill="#CAE2EA"/>
</g>
<g style="mix-blend-mode:multiply" opacity="0.5">
<path d="M194.447 145.428L138.312 162.333V159.712L194.447 142.807V145.428Z" fill="#CAE2EA"/>
</g>
<g style="mix-blend-mode:multiply" opacity="0.5">
<path d="M194.447 151.982L138.312 168.887V166.265L194.447 149.36V151.982Z" fill="#CAE2EA"/>
</g>
<g style="mix-blend-mode:multiply" opacity="0.5">
<path d="M194.447 158.534L138.312 175.439V172.819L194.447 155.915V158.534Z" fill="#CAE2EA"/>
</g>
<g style="mix-blend-mode:multiply" opacity="0.5">
<path d="M194.447 165.088L138.312 181.993V179.371L194.447 162.466V165.088Z" fill="#CAE2EA"/>
</g>
<g style="mix-blend-mode:multiply" opacity="0.5">
<path d="M194.447 171.64L138.312 188.547V185.925L194.447 169.021V171.64Z" fill="#CAE2EA"/>
</g>
<g style="mix-blend-mode:multiply" opacity="0.5">
<path d="M194.447 178.194L138.312 195.099V192.477L194.447 175.572V178.194Z" fill="#CAE2EA"/>
</g>
<g style="mix-blend-mode:multiply" opacity="0.5">
<path d="M194.447 184.748L138.312 201.653V199.031L194.447 182.126V184.748Z" fill="#CAE2EA"/>
</g>
<g style="mix-blend-mode:multiply" opacity="0.5">
<path d="M194.447 191.3L138.312 208.205V205.585L194.447 188.678V191.3Z" fill="#CAE2EA"/>
</g>
<g style="mix-blend-mode:multiply" opacity="0.5">
<path d="M194.447 197.854L105.206 224.729V222.107L194.447 195.232V197.854Z" fill="#CAE2EA"/>
</g>
<g style="mix-blend-mode:multiply" opacity="0.5">
<path d="M149.827 217.844L105.206 231.281V228.662L149.827 215.224V217.844Z" fill="#CAE2EA"/>
</g>
<g style="mix-blend-mode:multiply" opacity="0.5">
<path d="M149.827 224.398L105.206 237.835V235.213L149.827 221.776V224.398Z" fill="#CAE2EA"/>
</g>
<g style="mix-blend-mode:multiply" opacity="0.5">
<path d="M149.827 230.95L105.206 244.387V241.768L149.827 228.33V230.95Z" fill="#CAE2EA"/>
</g>
<g style="mix-blend-mode:multiply" opacity="0.5">
<path d="M149.827 237.503L105.206 250.941V248.319L149.827 234.882V237.503Z" fill="#CAE2EA"/>
</g>
<g style="mix-blend-mode:multiply" opacity="0.5">
<path d="M149.827 244.058L105.206 257.495V254.874L149.827 241.436V244.058Z" fill="#CAE2EA"/>
</g>
<g style="mix-blend-mode:multiply" opacity="0.5">
<path d="M149.827 250.609L105.206 264.047V261.425L149.827 247.988V250.609Z" fill="#CAE2EA"/>
</g>
<g style="mix-blend-mode:multiply" opacity="0.5">
<path d="M149.827 257.164L105.206 270.601V267.979L149.827 254.542V257.164Z" fill="#CAE2EA"/>
</g>
<g style="mix-blend-mode:multiply" opacity="0.5">
<path d="M149.827 263.715L105.206 277.153V274.531L149.827 261.096V263.715Z" fill="#CAE2EA"/>
</g>
<g style="mix-blend-mode:multiply" opacity="0.5">
<path d="M149.827 270.27L105.206 283.707V281.085L149.827 267.648V270.27Z" fill="#CAE2EA"/>
</g>
<g style="mix-blend-mode:multiply" opacity="0.5">
<path d="M194.447 263.386L105.206 290.259V287.639L194.447 260.765V263.386Z" fill="#CAE2EA"/>
</g>
<g style="mix-blend-mode:multiply" opacity="0.5">
<path d="M194.447 269.938L105.206 296.813V294.191L194.447 267.316V269.938Z" fill="#CAE2EA"/>
</g>
<g style="mix-blend-mode:multiply" opacity="0.5">
<path d="M194.447 276.492L105.206 303.367V300.745L194.447 273.87V276.492Z" fill="#CAE2EA"/>
</g>
<g style="mix-blend-mode:multiply" opacity="0.5">
<path d="M105.206 218.175L134.622 209.318V147.718L105.206 156.575V218.175Z" fill="#CAE2EA"/>
</g>
<g style="mix-blend-mode:multiply" opacity="0.5">
<path d="M152.978 269.32L194.447 256.832V201.787L152.978 214.275V269.32Z" fill="#CAE2EA"/>
</g>
<path d="M332.198 119.75L214.783 90.5869C214.783 90.5869 208.617 93.1698 205.63 92.819L261.433 139.468C261.433 139.468 300.099 144.479 301.082 142.813C302.066 141.147 332.198 119.75 332.198 119.75Z" fill="#F3FCFF"/>
<path d="M332.2 322.506L317.236 329.202V126.444L332.2 119.748V322.506Z" fill="#B6D5E0"/>
<path d="M205.63 295.593L317.236 329.202V126.429L205.63 92.8193V295.593Z" fill="#DAEEF7"/>
<path d="M205.697 295.593L317.303 329.202V126.429L205.697 92.8193V295.593Z" fill="#DFEEF2"/>
<g style="mix-blend-mode:multiply" opacity="0.5">
<path d="M216.879 125.955L306.12 152.83V138.226L216.879 111.351V125.955Z" fill="#CAE2EA"/>
</g>
<g style="mix-blend-mode:multiply" opacity="0.5">
<path d="M216.879 132.322L273.016 149.227V146.606L216.879 129.701V132.322Z" fill="#CAE2EA"/>
</g>
<g style="mix-blend-mode:multiply" opacity="0.5">
<path d="M216.879 138.876L273.016 155.781V153.159L216.879 136.254V138.876Z" fill="#CAE2EA"/>
</g>
<g style="mix-blend-mode:multiply" opacity="0.5">
<path d="M216.879 145.428L273.016 162.333V159.712L216.879 142.807V145.428Z" fill="#CAE2EA"/>
</g>
<g style="mix-blend-mode:multiply" opacity="0.5">
<path d="M216.879 151.982L273.016 168.887V166.265L216.879 149.36V151.982Z" fill="#CAE2EA"/>
</g>
<g style="mix-blend-mode:multiply" opacity="0.5">
<path d="M216.879 158.534L273.016 175.439V172.819L216.879 155.915V158.534Z" fill="#CAE2EA"/>
</g>
<g style="mix-blend-mode:multiply" opacity="0.5">
<path d="M216.879 165.088L273.016 181.993V179.371L216.879 162.466V165.088Z" fill="#CAE2EA"/>
</g>
<g style="mix-blend-mode:multiply" opacity="0.5">
<path d="M216.879 171.64L273.016 188.547V185.925L216.879 169.021V171.64Z" fill="#CAE2EA"/>
</g>
<g style="mix-blend-mode:multiply" opacity="0.5">
<path d="M216.879 178.194L273.016 195.099V192.477L216.879 175.572V178.194Z" fill="#CAE2EA"/>
</g>
<g style="mix-blend-mode:multiply" opacity="0.5">
<path d="M216.879 184.748L273.016 201.653V199.031L216.879 182.126V184.748Z" fill="#CAE2EA"/>
</g>
<g style="mix-blend-mode:multiply" opacity="0.5">
<path d="M216.879 191.3L273.016 208.205V205.585L216.879 188.678V191.3Z" fill="#CAE2EA"/>
</g>
<g style="mix-blend-mode:multiply" opacity="0.5">
<path d="M216.879 197.854L306.12 224.729V222.107L216.879 195.232V197.854Z" fill="#CAE2EA"/>
</g>
<g style="mix-blend-mode:multiply" opacity="0.5">
<path d="M261.5 217.844L306.12 231.281V228.662L261.5 215.224V217.844Z" fill="#CAE2EA"/>
</g>
<g style="mix-blend-mode:multiply" opacity="0.5">
<path d="M261.5 224.398L306.12 237.835V235.213L261.5 221.776V224.398Z" fill="#CAE2EA"/>
</g>
<g style="mix-blend-mode:multiply" opacity="0.5">
<path d="M261.5 230.95L306.12 244.387V241.768L261.5 228.33V230.95Z" fill="#CAE2EA"/>
</g>
<g style="mix-blend-mode:multiply" opacity="0.5">
<path d="M261.5 237.503L306.12 250.941V248.319L261.5 234.882V237.503Z" fill="#CAE2EA"/>
</g>
<g style="mix-blend-mode:multiply" opacity="0.5">
<path d="M261.5 244.058L306.12 257.495V254.874L261.5 241.436V244.058Z" fill="#CAE2EA"/>
</g>
<g style="mix-blend-mode:multiply" opacity="0.5">
<path d="M261.5 250.609L306.12 264.047V261.425L261.5 247.988V250.609Z" fill="#CAE2EA"/>
</g>
<g style="mix-blend-mode:multiply" opacity="0.5">
<path d="M261.5 257.164L306.12 270.601V267.979L261.5 254.542V257.164Z" fill="#CAE2EA"/>
</g>
<g style="mix-blend-mode:multiply" opacity="0.5">
<path d="M261.5 263.715L306.12 277.153V274.531L261.5 261.096V263.715Z" fill="#CAE2EA"/>
</g>
<g style="mix-blend-mode:multiply" opacity="0.5">
<path d="M261.5 270.27L306.12 283.707V281.085L261.5 267.648V270.27Z" fill="#CAE2EA"/>
</g>
<g style="mix-blend-mode:multiply" opacity="0.5">
<path d="M216.879 263.386L306.12 290.259V287.639L216.879 260.765V263.386Z" fill="#CAE2EA"/>
</g>
<g style="mix-blend-mode:multiply" opacity="0.5">
<path d="M216.879 269.938L306.12 296.813V294.191L216.879 267.316V269.938Z" fill="#CAE2EA"/>
</g>
<g style="mix-blend-mode:multiply" opacity="0.5">
<path d="M216.879 276.492L306.12 303.367V300.745L216.879 273.87V276.492Z" fill="#CAE2EA"/>
</g>
<g style="mix-blend-mode:multiply" opacity="0.5">
<path d="M306.12 218.175L276.707 209.318V147.718L306.12 156.575V218.175Z" fill="#CAE2EA"/>
</g>
<g style="mix-blend-mode:multiply" opacity="0.5">
<path d="M258.351 269.32L216.879 256.832V201.787L258.351 214.275V269.32Z" fill="#CAE2EA"/>
</g>
<path d="M70.064 323.429L73.5203 323.481V116.401L70.064 116.351V323.429Z" fill="#07085B"/>
<path d="M205.63 88.5274L204.115 87.3823L70.064 116.351L73.5203 117.791L205.63 88.5274Z" fill="#4D5296"/>
<path d="M216.472 89.414C212.237 87.9074 208.869 87.4381 206.669 87.324C205.335 87.1992 201.239 87.0916 194.923 89.3408C195.275 89.6884 195.66 89.9999 196.074 90.2707C197.823 91.4261 199.809 92.1742 201.885 92.4597C210.386 94.2397 216.472 89.414 216.472 89.414Z" fill="#07085B"/>
<g style="mix-blend-mode:multiply">
<path d="M212.188 91.5557L326.734 122.193L328.468 324.176L324.719 327.142V123.095L212.188 91.5557Z" fill="#B6D5E0"/>
</g>
<path d="M295.798 357.721L206.777 326.511L277.286 287.609L368.341 320.168L299.89 357.392C299.268 357.729 298.584 357.933 297.879 357.99C297.174 358.047 296.465 357.955 295.798 357.721Z" fill="#E03268"/>
<path d="M213.7 292.719C213.7 292.719 227.091 308.216 211.606 325.153L295.48 356.675C296.496 357.057 297.599 357.142 298.661 356.921C299.723 356.701 300.701 356.183 301.48 355.429L304.521 352.484C304.521 352.484 315.088 323.513 315.088 322.781C315.088 322.05 293.954 304.916 293.954 304.916C293.954 304.916 259.156 300.726 258.246 300.726C257.335 300.726 213.7 292.719 213.7 292.719Z" fill="#DAEEF7"/>
<g style="mix-blend-mode:multiply">
<path d="M304.887 347.19C304.341 347.19 242.578 326.783 242.578 326.783C242.578 326.783 304.158 349.168 304.345 348.625C304.532 348.083 304.887 347.19 304.887 347.19Z" fill="#DAEEF7"/>
</g>
<path d="M208.963 291.888V293.795L297.507 324.144C297.507 324.144 302.974 330.978 302.427 340.27C301.88 349.562 299.868 356.906 296.954 357.007C296.954 357.007 298.794 357.157 299.722 356.576C300.649 355.995 302.814 354.067 302.814 354.067C302.814 354.067 306.473 337.53 306.662 337.121C306.852 336.712 304.749 323.227 303.337 322.224C301.925 321.221 303.109 319.628 296.414 318.397C289.718 317.166 236.976 293.483 235.7 293.795C234.423 294.107 223.493 293.612 222.901 293.795C222.309 293.978 208.963 291.888 208.963 291.888Z" fill="#E03268"/>
<path d="M298.874 323.32C298.874 323.32 310.147 342.454 298.874 357.805L373.937 317.125C373.937 317.125 382.773 298.995 371.386 287.607L298.874 323.32Z" fill="#E03268"/>
<path d="M298.874 323.32L208.963 291.888L290.13 264.284L371.386 287.607L298.874 323.32Z" fill="#FF5B7E"/>
<g style="mix-blend-mode:multiply">
<path d="M284.48 329.525L219.055 306.757C219.078 307.238 219.085 307.725 219.077 308.22L284.48 329.525Z" fill="#DAEEF7"/>
</g>
<g style="mix-blend-mode:multiply">
<path d="M218.308 313.537C218.127 314.204 217.912 314.882 217.663 315.569L265.677 331.247L218.308 313.537Z" fill="#DAEEF7"/>
</g>
<path d="M284.549 313.397L375.37 286.428L307.097 252.813L214.167 280.948L280.48 313.113C281.754 313.707 283.204 313.808 284.549 313.397Z" fill="#06BFAD"/>
<path d="M370.388 257.222C370.388 257.222 356.106 270.603 370.618 285.246L284.93 312.485C282.812 313.158 280.503 312.738 279.001 311.408L276.128 308.862C276.128 308.862 267.229 283.827 267.27 283.199C267.311 282.57 289.437 267.768 289.437 267.768C289.437 267.768 324.476 264.146 325.378 264.146C326.279 264.146 370.388 257.222 370.388 257.222Z" fill="#DAEEF7"/>
<g style="mix-blend-mode:multiply">
<path d="M276.067 304.299C276.614 304.299 339.556 286.664 339.556 286.664C339.556 286.664 276.687 306.01 276.537 305.538C276.386 305.067 276.067 304.299 276.067 304.299Z" fill="#DAEEF7"/>
</g>
<path d="M375.172 256.514L375.062 258.167L284.773 284.381C284.773 284.381 278.915 290.285 278.925 298.315C278.936 306.346 280.529 312.689 283.445 312.777C283.445 312.777 281.594 312.909 280.701 312.411C279.808 311.914 277.753 310.242 277.753 310.242C277.753 310.242 275.039 295.954 274.879 295.606C274.72 295.257 277.591 283.599 279.061 282.734C280.531 281.869 279.438 280.491 286.204 279.428C292.97 278.365 347.078 257.904 348.334 258.173C349.591 258.442 360.552 258.014 361.133 258.173C361.714 258.332 375.172 256.514 375.172 256.514Z" fill="#06BFAD"/>
<path d="M283.454 283.679C283.454 283.679 271.079 300.214 281.469 313.479L208.748 278.326C208.748 278.326 200.955 262.658 212.997 252.82L283.454 283.679Z" fill="#06BFAD"/>
<path d="M283.454 283.672L375.172 256.511L295.594 232.658L212.997 252.811L283.454 283.672Z" fill="#02CCC0"/>
<g style="mix-blend-mode:multiply">
<path d="M297.49 289.025L364.231 269.353C364.179 269.766 364.144 270.187 364.125 270.616L297.49 289.025Z" fill="#DAEEF7"/>
</g>
<g style="mix-blend-mode:multiply">
<path d="M364.581 275.218C364.729 275.812 364.908 276.399 365.119 276.974L316.201 290.521L364.581 275.218Z" fill="#DAEEF7"/>
</g>
<g style="mix-blend-mode:multiply" opacity="0.3">
<path d="M225.219 258.167C225.219 258.167 212.975 270.939 222.546 285.011L227.961 287.607C227.961 287.607 220.996 270.773 231.344 260.848L225.219 258.167Z" fill="#06BFAD"/>
</g>
<path d="M305.462 280.45L229.813 254.776L284.891 222.921L362.328 249.703L308.812 280.186C308.305 280.465 307.743 280.633 307.165 280.678C306.588 280.724 306.007 280.646 305.462 280.45Z" fill="#F4A640"/>
<path d="M232.943 227.071C232.943 227.071 245.143 239.785 233.683 253.674L305.117 279.589C306.882 280.235 308.776 279.835 309.962 278.571L312.241 276.158C312.241 276.158 318.738 252.4 318.682 251.804C318.626 251.208 299.929 237.138 299.929 237.138C299.929 237.138 270.967 233.674 270.229 233.672C269.491 233.67 232.943 227.071 232.943 227.071Z" fill="#DAEEF7"/>
<g style="mix-blend-mode:multiply">
<path d="M312.14 271.821C311.69 271.821 259.302 255.033 259.302 255.033C259.302 255.033 311.69 273.446 311.8 272.999C311.909 272.551 312.14 271.821 312.14 271.821Z" fill="#DAEEF7"/>
</g>
<path d="M228.98 226.384L229.127 227.953L304.314 252.9C304.314 252.9 309.333 258.509 309.589 266.133C309.845 273.756 308.748 279.777 306.361 279.856C306.361 279.856 307.887 279.983 308.608 279.512C309.329 279.041 310.96 277.454 310.96 277.454C310.96 277.454 312.723 263.894 312.841 263.556C312.959 263.218 310.209 252.148 308.967 251.335C307.725 250.521 308.582 249.204 302.978 248.19C297.374 247.176 252.159 227.704 251.133 227.958C250.106 228.212 241.071 227.801 240.598 227.958C240.124 228.115 228.98 226.384 228.98 226.384Z" fill="#F4A640"/>
<path d="M305.377 252.236C305.377 252.236 316.11 267.949 307.999 280.525L366.69 247.213C366.69 247.213 372.585 232.348 362.347 222.996L305.377 252.236Z" fill="#F4A640"/>
<path d="M305.378 252.237L228.983 226.382L293.692 203.801L362.347 222.996L305.378 252.237Z" fill="#FEB546"/>
<g style="mix-blend-mode:multiply">
<path d="M294.001 257.307L238.414 238.582C238.47 238.973 238.513 239.373 238.543 239.78L294.001 257.307Z" fill="#DAEEF7"/>
</g>
<g style="mix-blend-mode:multiply">
<path d="M238.319 244.148C238.22 244.698 238.092 245.254 237.936 245.816L278.648 258.711L238.319 244.148Z" fill="#DAEEF7"/>
</g>
<path d="M298.829 244.544L254.608 229.032L263.348 225.226L310.194 239.111L298.829 244.544Z" fill="#F4A640"/>
<path d="M246.852 247.23C246.852 247.23 242.292 251.856 244.373 258.095C244.373 258.095 245.759 254.867 247.145 253.937C247.145 253.937 246.914 257.865 248.531 259.484C248.531 259.484 249.96 250.777 254.329 249.931L246.852 247.23Z" fill="#FF5B7E"/>
<path d="M298.874 298.029C298.874 298.029 301.672 301.311 301.457 305.472C301.457 305.472 302.995 303.343 303.381 301.75C304.449 302.328 305.311 303.225 305.847 304.316C305.847 304.316 307.569 299.912 305.785 296.104L298.874 298.029Z" fill="#FEB546"/>
<path d="M255.581 319.456C255.581 319.456 250.846 325.808 252.463 335.978C252.463 335.978 254.081 331.817 257.779 329.506C257.779 329.506 259.395 336.208 260.32 338.52C260.32 338.52 264.013 325.035 268.406 323.92L255.581 319.456Z" fill="#02CCC0"/>
<path d="M140.712 64.6681C146.538 66.3276 167.037 61.6095 173.756 59.978L173.991 59.8639L176.358 58.2044C178.323 56.913 180.336 55.4063 180.54 55.4859C180.828 55.6043 180.837 55.8734 179.249 58.1355C179.225 58.169 179.211 58.2082 179.208 58.2491C179.205 58.2899 179.212 58.3308 179.23 58.3676C179.248 58.4044 179.276 58.4356 179.31 58.458C179.345 58.4804 179.384 58.4932 179.425 58.495C180.816 58.5466 185.195 58.7361 185.264 59.0955C185.346 59.526 181.429 59.4464 181.289 59.823C181.149 60.1997 184.971 60.1739 184.984 60.6431C184.997 61.1123 181.513 61.0176 181.45 61.2156C181.388 61.4136 184.717 61.8613 184.894 62.1368C185.07 62.4124 181.45 62.3521 181.308 62.5824C181.166 62.8127 183.65 63.6586 183.6 63.8867C183.551 64.1149 184.184 64.0439 178.039 63.7081C178.039 63.7081 176.503 63.5833 175.915 63.4929L174.389 64.1946C162.008 71.375 138.59 72.04 138.59 72.04L140.712 64.6681Z" fill="#FFC0BB"/>
<path d="M125.822 60.2168C125.822 60.2168 122.979 62.9137 121.192 61.0455C121.192 61.0455 116.066 62.1539 116.492 57.6404C116.492 57.6404 113.001 55.5267 114.288 51.4673C114.288 51.4673 111.153 48.6132 114.583 45.32C114.583 45.32 112.325 41.4672 116.658 40.1672C116.658 40.1672 117.219 33.5722 123.379 35.3351C123.379 35.3351 128.023 30.3307 132.022 33.4775C132.022 33.4775 136.199 32.1021 137.945 36.9041C137.945 36.9041 142.376 38.3893 140.755 43.8349C140.755 43.8349 145.06 48.5874 142.208 53.398C142.208 53.398 143.715 59.8401 136.473 59.0136C129.231 58.1871 125.822 60.2168 125.822 60.2168Z" fill="#FEB546"/>
<path d="M146.106 73.4903C146.106 73.4903 138.53 76.155 132.179 74.446C131.604 74.2952 131.096 73.9583 130.733 73.4878C130.37 73.0174 130.173 72.44 130.173 71.8459C130.188 70.5544 127.864 65.2359 130.502 64.5127C136.163 62.9608 144.519 63.3396 144.519 63.3396C144.519 63.3396 147.21 67.2268 146.106 73.4903Z" fill="#FF5B7E"/>
<path d="M125.492 62.8428C125.492 62.8428 119.187 63.9642 116.985 66.5019C114.783 69.0395 109.155 97.0659 110.503 102.083L137.146 98.2648C137.146 98.2648 140.011 75.854 139.438 69.3925C138.866 62.931 131.807 63.2001 131.807 63.2001L125.492 62.8428Z" fill="#FF5B7E"/>
<path d="M139.415 74.8961C139.516 71.5018 139.415 69.1621 139.415 69.1621C139.795 71.491 139.415 74.8961 139.415 74.8961Z" fill="white"/>
<path d="M116.148 83.7854C116.939 84.1385 117.794 84.3253 118.66 84.3343C119.843 82.4531 121.5 77.6898 121.371 73.5723C118.834 77.7716 116.148 83.7854 116.148 83.7854Z" fill="white"/>
<path d="M155.937 124.845L154.816 128.732C154.794 128.808 154.787 128.888 154.796 128.968C154.805 129.047 154.829 129.123 154.868 129.193C154.906 129.262 154.958 129.324 155.021 129.373C155.083 129.422 155.154 129.459 155.231 129.481L164.352 132.085C164.494 132.126 164.646 132.12 164.785 132.068C164.924 132.015 165.042 131.919 165.121 131.793C165.201 131.668 165.238 131.52 165.226 131.372C165.215 131.224 165.156 131.084 165.058 130.973L160.465 125.732C160.465 125.732 158.451 127.146 155.937 124.845Z" fill="#4188E4"/>
<path d="M139.303 98.8718C139.303 98.8718 157.596 93.7254 159.737 93.9578C162.105 94.214 168.658 98.2347 161.244 126.84C161.244 126.84 157.684 127.977 155.51 125.512L155.659 109.218C155.659 109.218 142.428 116.472 138.343 114.707C134.258 112.942 139.303 98.8718 139.303 98.8718Z" fill="#282828"/>
<path d="M126.558 124.744L124.113 127.972C124.065 128.036 124.03 128.108 124.01 128.185C123.99 128.262 123.985 128.342 123.996 128.421C124.007 128.5 124.033 128.575 124.074 128.644C124.114 128.713 124.168 128.772 124.231 128.82L131.796 134.531C131.914 134.62 132.059 134.67 132.207 134.67C132.356 134.671 132.501 134.624 132.62 134.535C132.739 134.447 132.827 134.322 132.869 134.179C132.912 134.037 132.906 133.884 132.855 133.745L130.459 127.2C130.459 127.2 128.071 127.796 126.558 124.744Z" fill="#4188E4"/>
<path d="M111.172 101.975C111.172 101.975 110.815 120.723 129.814 113.652L126.022 125.437C126.022 125.437 128.74 128.235 130.636 127.892C132.383 127.587 150.436 105.6 139.942 97.8149C138.419 96.7092 136.589 96.1071 134.708 96.0929C129.954 96.0133 117.613 96.3878 111.172 101.975Z" fill="#333333"/>
<path d="M125.568 65.602L125.402 59.4354L131.512 59.3687L132.751 64.7497C132.751 64.7497 129.306 68.6886 125.568 65.602Z" fill="#FFC0BB"/>
<path d="M132.34 62.9653L131.512 59.3687L125.402 59.4354L125.484 62.4616C126.818 63.5185 129.116 64.5086 132.34 62.9653Z" fill="#F99893"/>
<path d="M137.213 51.4092C137.019 52.4532 137.542 53.4239 138.38 53.5767C139.217 53.7295 140.052 53.0063 140.246 51.9624C140.439 50.9185 139.918 49.9478 139.081 49.7949C138.244 49.6421 137.409 50.3589 137.213 51.4092Z" fill="#F99893"/>
<path d="M138.106 57.0957C138.262 56.6264 138.374 56.1436 138.44 55.6536C138.619 54.3692 138.633 53.0671 138.481 51.7792C138.453 51.5274 138.44 51.2756 138.433 51.0237C138.398 49.8811 138.126 48.7582 137.633 47.7267C137.14 46.6951 136.438 45.7775 135.571 45.0322C134.705 44.2868 133.692 43.7302 132.598 43.3976C131.505 43.0651 130.354 42.9639 129.219 43.1005C128.084 43.2372 126.99 43.6087 126.007 44.1913C125.023 44.774 124.172 45.5551 123.506 46.4848C122.841 47.4146 122.377 48.4727 122.143 49.5917C121.909 50.7107 121.911 51.8662 122.148 52.9846C121.884 52.8927 121.602 52.8643 121.325 52.9017C121.048 52.9391 120.784 53.0412 120.553 53.1998C119.692 53.824 119.613 55.208 120.396 56.2885C121.18 57.369 122.516 57.7371 123.383 57.1129C123.501 57.0264 123.607 56.9243 123.698 56.8094C124.916 60.66 128.781 63.0212 132.648 62.1474C134.477 61.7313 136.08 60.6366 137.133 59.0845C137.211 58.9853 137.283 58.8818 137.349 58.7745C137.673 58.2502 137.928 57.6858 138.106 57.0957Z" fill="#FFC0BB"/>
<path d="M131.992 50.8452C132.132 51.2951 132.257 51.7363 132.401 52.1625C132.545 52.5887 132.715 53.0234 132.969 53.271L133.016 53.3097C133.034 53.3226 133.04 53.3312 133.075 53.3571C133.135 53.3969 133.19 53.4431 133.24 53.4948C133.349 53.6009 133.43 53.7326 133.475 53.8779C133.514 54.0179 133.521 54.1648 133.496 54.3079C133.471 54.451 133.413 54.5866 133.328 54.7045C133.179 54.9061 132.984 55.0696 132.76 55.1818C132.536 55.294 132.288 55.3517 132.037 55.3502C132.468 55.15 132.844 54.881 133.012 54.5237C133.053 54.4474 133.078 54.3634 133.084 54.277C133.091 54.1906 133.08 54.1038 133.051 54.0222C133.021 53.9479 132.975 53.8816 132.915 53.8284C132.884 53.799 132.85 53.7724 132.814 53.7488L132.737 53.6907L132.648 53.6197C132.463 53.4312 132.322 53.204 132.235 52.9546C132.15 52.7288 132.086 52.4952 132.046 52.2572C131.96 51.7916 131.942 51.316 131.992 50.8452Z" fill="#F99893"/>
<path d="M129.523 52.1711C129.555 52.3097 129.545 52.4547 129.495 52.5876C129.444 52.7204 129.355 52.8353 129.239 52.9177C129.123 53.0001 128.986 53.0462 128.843 53.0503C128.701 53.0544 128.561 53.0162 128.441 52.9406C128.32 52.8651 128.225 52.7555 128.167 52.6257C128.109 52.4959 128.09 52.3518 128.114 52.2116C128.138 52.0714 128.203 51.9414 128.3 51.838C128.398 51.7347 128.524 51.6626 128.663 51.6309C128.848 51.5884 129.043 51.6214 129.205 51.7228C129.366 51.8241 129.481 51.9853 129.523 52.1711Z" fill="#333333"/>
<path d="M135.635 51.2024C135.667 51.341 135.657 51.4859 135.606 51.6188C135.556 51.7517 135.467 51.8666 135.351 51.949C135.235 52.0313 135.097 52.0775 134.955 52.0816C134.813 52.0856 134.673 52.0475 134.553 51.9719C134.432 51.8963 134.337 51.7867 134.279 51.6569C134.221 51.5272 134.202 51.3831 134.226 51.2429C134.25 51.1027 134.314 50.9727 134.412 50.8693C134.51 50.7659 134.636 50.6938 134.774 50.6621C134.96 50.6196 135.155 50.6527 135.317 50.754C135.478 50.8553 135.593 51.0166 135.635 51.2024Z" fill="#333333"/>
<path d="M129.965 50.3696C129.605 50.3561 129.246 50.3691 128.889 50.4083C128.556 50.4437 128.23 50.5255 127.92 50.6515C127.61 50.7739 127.319 50.9422 127.059 51.1509C126.913 51.2456 126.799 51.3791 126.655 51.491C126.51 51.6029 126.403 51.7493 126.25 51.8741C126.292 51.6864 126.353 51.5033 126.431 51.3274C126.516 51.1515 126.622 50.9867 126.747 50.8367C127 50.521 127.331 50.2769 127.707 50.1285C128.081 49.9777 128.487 49.9215 128.889 49.9649C129.276 50.0032 129.648 50.1428 129.965 50.3696Z" fill="#07085B"/>
<path d="M133.124 49.8724C133.345 49.5497 133.649 49.2925 134.004 49.1277C134.367 48.9505 134.768 48.8662 135.171 48.8823C135.575 48.8969 135.969 49.0155 136.314 49.2267C136.481 49.3268 136.636 49.4468 136.774 49.584C136.906 49.7228 137.024 49.8742 137.127 50.036C136.94 49.9714 136.783 49.881 136.617 49.8208C136.451 49.7605 136.292 49.6766 136.124 49.6378C135.809 49.5291 135.48 49.4675 135.147 49.4549C134.813 49.4415 134.478 49.4741 134.153 49.5517C133.802 49.633 133.459 49.7402 133.124 49.8724Z" fill="#07085B"/>
<path d="M118.341 78.9856C114.682 83.8177 111.583 104.67 110.647 111.536L110.668 111.797L111.344 114.614C111.837 116.922 112.5 119.349 112.347 119.509C112.132 119.724 111.878 119.644 110.358 117.331C110.336 117.296 110.305 117.268 110.268 117.25C110.231 117.231 110.19 117.223 110.149 117.227C110.108 117.23 110.069 117.245 110.036 117.269C110.002 117.292 109.976 117.325 109.96 117.363C109.405 118.654 107.631 122.66 107.274 122.593C106.844 122.516 108.35 118.887 108.047 118.62C107.743 118.353 106.377 121.926 105.936 121.769C105.494 121.612 106.855 118.392 106.693 118.26C106.532 118.129 104.898 121.076 104.584 121.138C104.27 121.201 105.628 117.845 105.477 117.63C105.326 117.414 103.618 119.421 103.428 119.294C103.239 119.167 103.069 119.78 105.623 114.169C105.623 114.169 106.299 112.778 106.592 112.262L106.497 110.581C104.345 96.4092 112.265 74.3105 112.265 74.3105L118.341 78.9856Z" fill="#FFC0BB"/>
<path d="M108.708 80.9228C108.708 80.9228 110.681 70.0252 116.838 66.1164C119.445 64.4612 120.927 63.8392 122.103 64.5172C123.331 65.2275 120.656 67.8749 121.192 70.8625C122.253 76.7773 118.437 84.2073 118.437 84.2073C118.437 84.2073 113.27 83.6262 108.708 80.9228Z" fill="#FF5B7E"/>
<path d="M122.579 43.2278L122.484 48.5507L134.846 45.208C134.846 45.208 136.24 46.381 136.445 46.3509C136.649 46.3208 138.214 45.604 138.147 45.3802C138.081 45.1563 133.61 39.5493 133.61 39.5493C133.61 39.5493 129.508 40.5954 129.143 40.7052C128.777 40.8149 122.579 43.2278 122.579 43.2278Z" fill="#FEB546"/>
<path d="M121.974 51.0043C121.974 51.0043 128.282 45.5307 137.923 48.3784C137.852 47.5257 137.69 46.683 137.441 45.8643C137.441 45.8643 130.892 41.6284 121.679 48.3418C121.679 48.3332 121.188 49.0219 121.974 51.0043Z" fill="#FF5B7E"/>
<path d="M135.323 56.0542C135.179 57.2854 134.099 58.3056 132.702 58.4218C131.305 58.5381 130.064 57.7374 129.704 56.5514L135.323 56.0542Z" fill="white"/>
<path d="M91.8028 334.112V338.318C91.8022 338.484 91.7355 338.644 91.6173 338.762C91.4992 338.88 91.3391 338.946 91.1722 338.946H81.3154C81.1611 338.946 81.0109 338.897 80.8873 338.805C80.7636 338.712 80.6733 338.582 80.6299 338.434C80.5865 338.286 80.5922 338.128 80.6464 337.984C80.7005 337.839 80.8001 337.716 80.9301 337.633L86.3342 334.112C86.3342 334.112 88.6348 335.696 91.8028 334.112Z" fill="#07085B"/>
<path d="M113.552 334.112V338.318C113.553 338.485 113.62 338.644 113.738 338.762C113.856 338.88 114.016 338.946 114.183 338.946H124.044C124.198 338.946 124.348 338.896 124.471 338.804C124.594 338.711 124.684 338.581 124.728 338.433C124.771 338.285 124.765 338.127 124.711 337.983C124.656 337.839 124.557 337.716 124.427 337.633L119.025 334.112C119.025 334.112 116.725 335.696 113.552 334.112Z" fill="#07085B"/>
<path d="M102.079 227.878L102.053 234.757L108.742 233.726L107.627 225.992L102.079 227.878Z" fill="#FFC0BB"/>
<path d="M111.019 232.942C111.019 232.942 115.767 234.109 119.712 237.081C123.656 240.054 131.617 245.775 131.23 251.608C130.842 257.441 124.558 266.554 124.558 266.554L122.453 262.187C122.453 262.187 124.36 251.927 123.932 251.55C123.504 251.173 115.338 243.801 115.338 243.801L111.019 232.942Z" fill="#07085B"/>
<path d="M122.012 273.117C121.995 272.351 123.992 274.609 123.949 273.997C123.166 261.275 98.2698 271.942 98.2698 271.942L92.1943 276.395L84.2485 335.336C84.2485 335.336 88.2515 336.763 91.8306 335.799L106.704 285.037L108.572 284.318C108.572 284.318 116.882 278.513 122.012 273.117Z" fill="#55769F"/>
<path d="M123.952 271.106C118.823 276.513 108.572 284.309 108.572 284.309L113.557 335.422C113.557 335.422 118.466 336.145 120.818 334.873C120.818 334.873 124.287 286.277 123.952 271.106Z" fill="#3C5E8C"/>
<path d="M92.1985 276.395L91.2192 284.811C93.8018 285.812 100.125 286.884 104.883 276.49C106.39 273.212 106.771 270.853 106.493 269.159C103.697 269.91 100.951 270.839 98.274 271.942L92.1985 276.395Z" fill="#3C5E8C"/>
<path d="M115.046 242.045C114.831 242.045 112.489 236.866 111.232 234.053C111.043 233.628 110.697 233.292 110.267 233.114C109.837 232.936 109.355 232.93 108.921 233.097C105.516 234.425 101.75 233.076 101.75 233.076C101.75 233.076 90.4511 272.529 95.1148 275.629C107.337 283.752 121.371 274.385 121.371 274.385C121.371 274.385 123.172 267.008 123.172 266.722C123.172 266.436 115.328 242.045 115.046 242.045Z" fill="#FFCC68"/>
<path d="M101.746 233.076C101.746 233.076 99.5935 236.266 99.3783 236.212C97.917 235.947 93.8795 232.362 93.1909 244.245C93.5739 247.883 90.1133 277.289 90.1133 277.289C99.5031 281.69 102.148 279.12 102.148 279.12C104.07 270.222 101.746 233.076 101.746 233.076Z" fill="#07085B"/>
<path d="M101.745 233.076C101.745 233.076 95.6677 233.851 91.2192 235.956C86.7707 238.061 78.8637 242.293 79.1801 248.186C79.4965 254.079 90.8383 266.555 90.8383 266.555L92.56 264.833L94.0795 262.517L86.2758 248.754L96.2789 244.574L101.745 233.076Z" fill="#07085B"/>
<path d="M112.248 233.73C115.108 236.862 120.809 246.584 125.346 276.186C125.346 276.186 120.308 279.241 114.551 279.555C114.551 279.555 113.057 240.396 108.817 233.134C109.375 232.841 110.014 232.74 110.634 232.848C111.255 232.956 111.822 233.266 112.248 233.73Z" fill="#07085B"/>
<path d="M121.633 260.904C123.14 261.926 124.001 263.737 124.483 265.312L124.541 265.549C124.842 266.823 124.188 267.075 123.859 267.124C123.808 267.131 123.757 267.121 123.712 267.097C123.667 267.073 123.631 267.035 123.609 266.989C123.517 266.812 123.394 266.589 123.213 266.294C122.15 264.572 120.919 267.385 120.551 266.694C120.086 265.818 122.128 265.065 121.857 264.623C121.345 263.793 120.172 265.7 119.778 265.19C119.348 264.619 121.674 264.075 121.102 263.112C120.796 262.596 119.253 264.236 119.068 263.543C118.872 262.815 120.822 262.514 120.48 261.924C119.974 261.05 118.894 263.001 118.463 262.394C118.203 262.021 120.56 260.181 121.633 260.904Z" fill="#FFC0BB"/>
<path opacity="0.6" d="M108.139 229.555L107.625 225.995L102.075 228.532V229.888C103.409 230.215 105.912 230.515 108.139 229.555Z" fill="#FC8D84"/>
<path d="M111.678 213.846L112.082 218.564L111.336 219.033L109.956 213.287L111.678 213.846Z" fill="#07085B"/>
<path d="M110.672 218.078C110.468 219.154 110.995 220.146 111.852 220.312C112.708 220.478 113.574 219.742 113.774 218.672C113.974 217.602 113.453 216.603 112.596 216.44C111.74 216.276 110.879 217.008 110.672 218.078Z" fill="#F99893"/>
<path d="M111.549 223.917C111.711 223.437 111.828 222.943 111.899 222.441C112.09 221.127 112.111 219.795 111.964 218.476C111.938 218.22 111.927 217.962 111.921 217.701C111.893 216.533 111.622 215.383 111.126 214.324C110.63 213.266 109.92 212.322 109.04 211.553C108.16 210.784 107.129 210.206 106.014 209.856C104.899 209.506 103.723 209.392 102.561 209.521C101.4 209.65 100.277 210.019 99.2659 210.605C98.2544 211.191 97.3758 211.98 96.6857 212.924C95.9956 213.867 95.5092 214.944 95.2573 216.085C95.0054 217.227 94.9935 218.408 95.2224 219.554C94.9534 219.457 94.6651 219.424 94.381 219.458C94.0969 219.493 93.8248 219.594 93.5868 219.753C92.6937 220.385 92.6119 221.804 93.406 222.919C94.2002 224.034 95.5582 224.425 96.4599 223.78C96.5817 223.693 96.6904 223.589 96.7828 223.472C98.0073 227.432 101.948 229.89 105.914 229.029C107.79 228.619 109.439 227.511 110.529 225.93C110.602 225.837 110.677 225.732 110.744 225.611C111.084 225.084 111.355 224.515 111.549 223.917Z" fill="#FFC0BB"/>
<path d="M102.79 218.788C102.821 218.93 102.809 219.079 102.756 219.214C102.703 219.35 102.61 219.467 102.491 219.55C102.371 219.633 102.23 219.679 102.084 219.682C101.939 219.684 101.796 219.644 101.673 219.565C101.551 219.487 101.454 219.373 101.396 219.24C101.338 219.107 101.32 218.959 101.346 218.815C101.372 218.672 101.439 218.54 101.54 218.435C101.642 218.33 101.771 218.257 101.914 218.226C102.104 218.185 102.304 218.221 102.468 218.326C102.632 218.431 102.748 218.598 102.79 218.788Z" fill="#333333"/>
<path d="M109.054 217.852C109.085 217.994 109.074 218.143 109.02 218.278C108.967 218.414 108.875 218.531 108.755 218.614C108.636 218.697 108.494 218.743 108.349 218.746C108.203 218.749 108.06 218.708 107.937 218.629C107.815 218.55 107.718 218.437 107.66 218.303C107.602 218.17 107.585 218.022 107.611 217.878C107.637 217.735 107.705 217.603 107.806 217.498C107.908 217.393 108.038 217.321 108.18 217.29C108.275 217.27 108.372 217.268 108.467 217.285C108.562 217.302 108.653 217.338 108.734 217.39C108.815 217.442 108.885 217.51 108.94 217.589C108.995 217.668 109.034 217.758 109.054 217.852Z" fill="#333333"/>
<path d="M103.349 217.17C102.985 217.102 102.617 217.063 102.247 217.053C101.902 217.045 101.558 217.086 101.225 217.174C100.892 217.261 100.575 217.399 100.284 217.583C99.9721 217.782 99.671 217.997 99.3823 218.229C99.5151 217.855 99.7367 217.519 100.028 217.249C100.325 216.965 100.691 216.762 101.089 216.66C101.485 216.554 101.901 216.546 102.301 216.638C102.689 216.724 103.05 216.906 103.349 217.17Z" fill="#FF5500"/>
<path d="M106.273 216.694C106.472 216.349 106.755 216.06 107.096 215.855C107.445 215.639 107.842 215.513 108.251 215.487C108.661 215.455 109.071 215.529 109.444 215.702C109.806 215.863 110.124 216.111 110.369 216.423C110.022 216.295 109.667 216.187 109.308 216.098C108.973 216.018 108.629 215.989 108.286 216.014C107.941 216.037 107.602 216.109 107.278 216.229C106.932 216.357 106.596 216.512 106.273 216.694Z" fill="#FF5500"/>
<path d="M110.797 208.807C110.797 208.807 113.281 208.33 110.223 206.832C107.164 205.333 99.6663 204.464 95.7473 207.817C95.7473 207.817 94.4301 206.128 93.2443 206.87C92.0585 207.613 94.4775 208.433 94.4775 208.433C94.4775 208.433 92.8225 208.749 92.504 209.668C92.2672 210.346 93.2809 210.146 93.8232 209.996C92.9236 210.366 90.2786 212.86 93.7156 219.681C94.3225 219.397 98.2545 213.797 98.2545 213.797C98.2545 213.797 106.157 216.38 104.711 214.24C104.711 214.24 113.922 216.554 111.69 212.385C111.695 212.376 115.089 211.866 110.797 208.807Z" fill="#FF5500"/>
<path d="M98.2589 213.788C98.3858 214.249 96.2057 219.169 95.2265 219.554C94.7224 219.564 94.2193 219.603 93.72 219.673C93.4746 218.274 95.8442 214.365 95.8442 214.365L98.2589 213.788Z" fill="#FF5500"/>
<path d="M105.129 216.812C105.081 217.341 105.11 217.874 105.215 218.395C105.262 218.662 105.334 218.924 105.43 219.178C105.533 219.455 105.694 219.707 105.901 219.916C106.164 220.132 106.284 220.179 106.362 220.373C106.396 220.465 106.41 220.564 106.403 220.663C106.396 220.762 106.369 220.858 106.323 220.945C106.134 221.352 105.701 221.655 105.228 221.879C105.508 221.877 105.784 221.809 106.034 221.68C106.283 221.552 106.499 221.366 106.663 221.139C106.756 221.006 106.818 220.854 106.844 220.694C106.87 220.535 106.86 220.371 106.814 220.215C106.7 219.867 106.482 219.735 106.241 219.544C106.086 219.381 105.959 219.192 105.867 218.986C105.76 218.761 105.666 218.53 105.587 218.293C105.428 217.816 105.286 217.316 105.129 216.812Z" fill="#F99893"/>
<path d="M89.0845 253.545C88.2237 252.067 87.3628 250.588 86.4804 249.12C86.4094 248.999 86.3362 248.881 86.2652 248.761L86.9582 248.504C87.8578 248.173 88.7488 247.82 89.6376 247.463C90.5265 247.105 91.411 246.735 92.2891 246.35C93.1672 245.965 94.0409 245.571 94.9018 245.145C93.985 245.435 93.0832 245.758 92.1836 246.094C91.284 246.43 90.3952 246.778 89.5042 247.136C88.6132 247.493 87.733 247.863 86.8549 248.248C85.9768 248.634 85.103 249.025 84.2422 249.454C84.8383 249.264 85.4302 249.06 86.0177 248.849L86.2329 249.258C87.0658 250.764 87.9159 252.241 88.7682 253.724C89.6204 255.207 90.4899 256.681 91.3723 258.149C92.2546 259.617 93.1456 261.079 94.0624 262.527C93.2647 261.011 92.4476 259.504 91.6111 258.007C90.789 256.511 89.9389 255.026 89.0845 253.545Z" fill="#07085B"/>
<path d="M95.3429 264.247C95.322 264.226 95.3071 264.2 95.2998 264.172C95.2926 264.143 95.2931 264.114 95.3016 264.085C95.31 264.057 95.3259 264.032 95.3476 264.012C95.3693 263.993 95.396 263.979 95.4247 263.973C97.3789 263.56 97.5059 263.414 97.4112 263.209C97.3574 263.093 95.6077 262.779 94.0538 262.51L94.071 262.523L93.0681 264.107C93.0681 264.107 91.5013 265.87 91.4604 265.911C91.5573 266.04 91.6176 266.126 91.6176 266.126C94.7124 269.303 94.7877 269.219 94.9211 269.124C95.0545 269.029 94.1593 267.363 94.3443 267.318C94.5294 267.273 96.4233 269.06 96.4642 268.825C96.5051 268.59 94.9577 266.735 95.0868 266.66C95.216 266.584 97.0238 268.336 97.239 268.082C97.4542 267.828 95.4226 265.975 95.6808 265.846C95.9391 265.717 97.9815 267.667 98.145 267.402C98.2871 267.191 96.0553 264.953 95.3429 264.247Z" fill="#FFC0BB"/>
<path d="M90.8384 266.554L91.6992 265.577C91.979 265.248 92.2631 264.931 92.5343 264.591C92.8054 264.251 93.0788 263.924 93.3413 263.584C93.4683 263.412 93.5996 263.24 93.718 263.061C93.8363 262.882 93.9568 262.702 94.0795 262.523C93.9054 262.921 93.6951 263.302 93.4511 263.662C93.2106 264.023 92.9505 264.372 92.672 264.705C92.3944 265.039 92.1038 265.362 91.7982 265.67C91.4941 265.981 91.1737 266.277 90.8384 266.554Z" fill="#07085B"/>
<path d="M108.107 223.168C108.066 224.096 107.246 224.948 106.091 225.164C104.935 225.379 103.863 224.884 103.489 224.034L108.107 223.168Z" fill="white"/>
<path d="M246.772 73.5553C246.772 73.5553 241.041 73.0108 237.245 75.7486C233.448 78.4865 229.015 83.112 219.382 80.2364C219.382 80.2364 223.934 85.7121 229.985 86.304C236.037 86.8959 234.406 82.0207 248.175 84.8942L247.5 79.0633L246.772 73.5553Z" fill="#FF5B7E"/>
<path d="M278.136 165.022L278.99 221.32L280.423 225.381L284.739 221.322L288.86 163.586L278.136 165.022Z" fill="#FFC0BB"/>
<path d="M303.888 166.941H293.095C293.095 166.941 298.148 220.999 298.11 221.335C298.071 221.67 299.928 224.098 299.928 224.098L303.86 221.337L303.888 166.941Z" fill="#FFC0BB"/>
<path d="M278.136 165.022L278.99 221.32L280.423 225.381L284.739 221.322L288.86 163.586L278.136 165.022Z" fill="#FFC0BB"/>
<path d="M303.888 166.941H293.095C293.095 166.941 298.148 220.999 298.11 221.335C298.071 221.67 299.928 224.098 299.928 224.098L303.86 221.337L303.888 166.941Z" fill="#FFC0BB"/>
<path d="M278.762 206.332L278.99 221.319L280.424 225.383L284.728 221.321L285.804 206.199C282.511 207.484 280.058 206.887 278.762 206.332Z" fill="#FBF9EB"/>
<path d="M296.758 206.33C297.535 214.757 298.123 221.214 298.11 221.33C298.073 221.666 299.928 224.094 299.928 224.094L303.86 221.332V206.399C301.543 207.113 299.061 207.089 296.758 206.33Z" fill="#FBF9EB"/>
<path d="M276.533 167.783C279.599 169.012 284.36 170.245 289.62 169.124L290.354 161.21C290.634 161.461 290.927 161.698 291.232 161.92L291.931 168.868C291.931 168.868 297.759 171.001 304.889 169.688C304.915 166.597 304.922 163.861 304.904 161.67C304.773 145.859 299.886 143.543 299.886 143.543L291.567 141.431L289.74 141.746C286.833 140.79 281.562 139.694 279.41 143.325C276.339 148.47 276.511 164.329 276.511 164.329C276.511 164.329 276.511 165.605 276.533 167.783Z" fill="#02CCC0"/>
<path d="M282.117 127.46L274.318 123.844L275.022 132.107C275.022 132.107 260.251 125.391 259.505 124.715C259.257 124.5 258.973 123.9 258.7 123.209C258.428 122.479 258.212 121.729 258.054 120.966C257.796 119.819 256.814 118.9 256.485 118.598C256.206 118.211 255.988 117.782 255.839 117.328C255.824 117.277 255.791 117.232 255.747 117.201C255.703 117.171 255.65 117.155 255.597 117.158C255.543 117.161 255.492 117.181 255.451 117.216C255.411 117.252 255.383 117.299 255.372 117.352L255.293 117.869C255.251 118.317 255.325 118.768 255.508 119.179L255.304 119.102L254.936 122.578L255.351 125.617L257.686 127.38C257.686 127.38 278.265 142.21 280.148 140.275C282.182 138.196 282.117 127.46 282.117 127.46Z" fill="#FFC0BB"/>
<path d="M284.739 221.322V225.609C284.739 225.695 284.722 225.781 284.688 225.86C284.655 225.939 284.606 226.011 284.544 226.071C284.483 226.131 284.41 226.179 284.33 226.21C284.25 226.242 284.164 226.257 284.078 226.255H273.715C273.556 226.26 273.399 226.213 273.27 226.119C273.14 226.026 273.045 225.893 272.999 225.74C272.953 225.588 272.959 225.424 273.016 225.275C273.073 225.126 273.177 225 273.313 224.916L278.993 221.33C278.993 221.33 281.407 222.936 284.739 221.322Z" fill="#07085B"/>
<path d="M303.86 221.333V225.62C303.86 225.706 303.843 225.792 303.81 225.871C303.776 225.951 303.727 226.023 303.665 226.083C303.603 226.143 303.53 226.19 303.45 226.222C303.369 226.253 303.284 226.268 303.197 226.266H292.837C292.678 226.271 292.521 226.223 292.391 226.13C292.262 226.037 292.167 225.904 292.121 225.751C292.075 225.598 292.081 225.435 292.138 225.286C292.194 225.137 292.299 225.011 292.435 224.927L298.112 221.341C298.112 221.341 300.527 222.945 303.86 221.333Z" fill="#07085B"/>
<path d="M280.352 109.98C280.352 109.98 278.756 110.361 276.442 113.221C274.128 116.082 272.064 123.994 272.064 123.994L279.444 128.03L284.25 118.473L280.352 109.98Z" fill="#F2B955"/>
<path d="M301.241 155.622C300.462 155.908 299.696 156.218 298.936 156.545C298.176 156.873 297.43 157.226 296.681 157.583C295.932 157.94 295.196 158.31 294.464 158.691C293.732 159.072 293.001 159.46 292.282 159.864L292.224 159.727C292.765 159.614 293.313 159.53 293.864 159.475C294.413 159.421 294.965 159.395 295.516 159.397C296.068 159.396 296.619 159.429 297.167 159.494L297.578 159.548L297.985 159.621L298.187 159.658L298.387 159.705L298.788 159.802L298.383 159.725L298.181 159.686L297.978 159.656L297.57 159.598L297.161 159.559C297.025 159.544 296.887 159.535 296.75 159.529C296.612 159.522 296.476 159.511 296.341 159.509H295.93C295.792 159.509 295.654 159.509 295.519 159.509C294.969 159.519 294.422 159.555 293.879 159.617C293.335 159.674 292.795 159.761 292.26 159.877L291.77 159.985L292.2 159.74C292.917 159.329 293.645 158.935 294.384 158.558C295.123 158.181 295.867 157.815 296.614 157.462C297.365 157.114 298.121 156.784 298.895 156.468C299.281 156.315 299.666 156.164 300.057 156.027C300.449 155.889 300.847 155.751 301.241 155.622Z" fill="white"/>
<path d="M279.395 155.297C279.788 155.426 280.187 155.551 280.574 155.697C280.961 155.844 281.351 155.988 281.736 156.143C282.504 156.459 283.266 156.789 284.017 157.137C284.768 157.486 285.509 157.858 286.245 158.237C286.981 158.616 287.708 159.008 288.429 159.419L288.86 159.664L288.369 159.556C287.835 159.44 287.296 159.353 286.753 159.296C286.208 159.236 285.662 159.195 285.113 159.184C284.975 159.184 284.839 159.184 284.702 159.184H284.291C284.153 159.184 284.017 159.199 283.88 159.203C283.742 159.208 283.606 159.216 283.471 159.234L283.06 159.272L282.653 159.328L282.438 159.358L282.238 159.397L281.837 159.485L282.24 159.389L282.44 159.341L282.642 159.305L283.049 159.231L283.458 159.18C284.006 159.114 284.558 159.082 285.111 159.085C285.663 159.084 286.214 159.11 286.763 159.165C287.314 159.219 287.86 159.303 288.401 159.417L288.343 159.554C287.624 159.15 286.893 158.767 286.163 158.381C285.433 157.996 284.691 157.628 283.946 157.268C283.202 156.909 282.453 156.56 281.695 156.229C280.938 155.897 280.174 155.583 279.395 155.297Z" fill="white"/>
<path opacity="0.5" d="M281.061 146.166C281.734 146.285 282.414 146.381 283.094 146.47C283.774 146.558 284.457 146.635 285.139 146.702C286.503 146.833 287.872 146.917 289.245 146.952C289.93 146.967 290.616 146.969 291.3 146.952C291.985 146.935 292.671 146.896 293.354 146.842C294.036 146.788 294.718 146.704 295.396 146.595C296.074 146.485 296.743 146.349 297.406 146.164C296.748 146.351 296.078 146.5 295.402 146.625C294.727 146.749 294.044 146.825 293.36 146.894C292.676 146.963 291.989 146.993 291.303 147.014C290.616 147.036 289.93 147.034 289.243 147.014C287.87 146.978 286.497 146.889 285.132 146.743C284.45 146.672 283.768 146.586 283.088 146.489C282.408 146.392 281.732 146.298 281.061 146.166Z" fill="#DAEEF7"/>
<path d="M298.986 95.3716C298.986 95.3716 300.443 87.8382 296.188 85.1735C291.933 82.5089 287.562 82.9846 284.633 84.7689C281.704 86.5532 279.107 92.2205 282.658 97.6553L291.408 92.2226L298.986 95.3716Z" fill="#07085B"/>
<path d="M296.511 148.724C296.542 148.803 296.579 148.88 296.62 148.954L296.739 149.169L296.978 149.619L297.378 150.364L298.519 152.346C298.676 152.645 300.172 155.252 300.524 155.835C300.094 155.31 299.554 154.787 299.194 154.208C299.014 153.917 298.846 153.622 298.676 153.325C298.506 153.028 298.347 152.729 298.185 152.43C297.869 151.827 297.563 151.218 297.279 150.601C297.137 150.293 296.999 149.981 296.868 149.669C296.803 149.511 296.737 149.354 296.676 149.195C296.611 149.042 296.556 148.884 296.511 148.724Z" fill="#EA9734"/>
<path d="M311.051 119.205C307.698 115.154 304.123 111.405 300.904 109.39C298.218 107.707 293.754 107.238 292.693 107.255C290.074 106.924 288.174 106.786 286.764 107.505C282.576 108.088 278.173 110.434 278.117 111.909C277.828 119.257 277.742 124.892 277.781 129.212C277.781 129.227 277.65 144.877 277.761 148.22C277.761 148.22 294.763 151.896 303.473 149.694C303.473 149.694 304.922 129.225 302.86 123.697L303.74 124.816C303.74 124.816 307.233 124.022 311.051 119.205Z" fill="#FFCC68"/>
<path d="M310.537 119.842C308.227 122.64 305.673 124.136 304.392 124.606L312.613 134.464L297.548 150.682L300.193 155.299C302.287 154.285 302.761 150.434 302.761 150.434C302.761 150.434 321.394 137.989 321.394 135.01C321.405 131.02 310.537 119.842 310.537 119.842Z" fill="#FFC0BB"/>
<path d="M310.676 119.646C310.547 119.793 310.429 119.946 310.295 120.077L309.895 120.507L309.697 120.723L309.482 120.925L309.064 121.327C308.922 121.459 308.774 121.584 308.634 121.713C308.35 121.975 308.033 122.199 307.736 122.445C307.121 122.905 306.474 123.321 305.799 123.691L305.543 123.826C305.459 123.869 305.371 123.91 305.285 123.951C305.113 124.037 304.936 124.113 304.76 124.188C304.672 124.227 304.581 124.259 304.493 124.296C304.405 124.332 304.314 124.367 304.224 124.397C304.101 124.44 303.974 124.483 303.852 124.519L302.952 123.443L301.93 122.24C301.252 121.435 300.557 120.645 299.868 119.849C299.179 119.052 298.473 118.269 297.765 117.481C297.057 116.693 296.347 115.921 295.613 115.159C296.237 116.007 296.883 116.838 297.531 117.664C298.179 118.491 298.839 119.313 299.5 120.131C300.161 120.949 300.83 121.762 301.508 122.567L302.52 123.779L303.542 124.982L303.654 125.114L303.815 125.07C304.016 125.017 304.215 124.953 304.409 124.879C304.601 124.81 304.788 124.733 304.971 124.649C305.154 124.565 305.337 124.481 305.513 124.388L305.78 124.248L306.04 124.1C306.729 123.701 307.383 123.245 307.995 122.737L308.438 122.343C308.589 122.214 308.726 122.074 308.868 121.937C309.01 121.799 309.148 121.661 309.284 121.517L309.673 121.086L309.867 120.871L310.048 120.641L310.407 120.18C310.64 119.866 310.838 119.535 311.066 119.218L310.676 119.646Z" fill="#FBF9EB"/>
<path d="M286.757 107.828C286.757 107.828 290.134 109.832 292.766 107.828L292.148 102.942L286.912 101.866L286.757 107.832V107.828Z" fill="#FFC0BB"/>
<g opacity="0.6">
<path opacity="0.6" d="M286.828 105.047L286.912 101.859L292.224 103.515L292.372 104.709C291.193 105.137 288.952 105.654 286.828 105.047Z" fill="#FC8D84"/>
</g>
<path d="M283.129 100.441C282.93 100.036 282.77 99.6125 282.651 99.1772C282.338 98.0426 282.174 96.8718 282.165 95.6946C282.165 95.4643 282.143 95.2362 282.122 95.008C282.028 94.0437 282.128 93.0703 282.416 92.1453C283.389 89.0071 286.432 86.8203 289.813 86.8375C294.37 86.8612 297.828 90.615 297.475 94.8961C297.71 94.7819 297.967 94.7226 298.228 94.7226C298.489 94.7226 298.747 94.7819 298.982 94.8961C299.86 95.361 300.086 96.6008 299.485 97.6662C298.885 98.7317 297.686 99.216 296.808 98.7532C296.688 98.6892 296.578 98.6088 296.481 98.5143C296.155 100.27 295.187 101.841 293.766 102.922C292.345 104.003 290.572 104.515 288.793 104.36C287.059 104.201 285.447 103.4 284.274 102.113C284.189 102.032 284.108 101.947 284.033 101.857C283.671 101.426 283.367 100.95 283.129 100.441Z" fill="#FFC0BB"/>
<path d="M290.526 95.0102C290.519 95.0966 290.529 95.1835 290.555 95.266C290.582 95.3485 290.624 95.4249 290.681 95.4909C290.737 95.5569 290.805 95.6111 290.883 95.6505C290.96 95.6899 291.044 95.7137 291.13 95.7205C291.305 95.7393 291.48 95.6883 291.618 95.5787C291.755 95.469 291.844 95.3096 291.864 95.135C291.873 95.0483 291.864 94.9607 291.838 94.8774C291.813 94.7942 291.77 94.7171 291.714 94.6507C291.657 94.5844 291.588 94.5301 291.51 94.4913C291.432 94.4524 291.347 94.4298 291.26 94.4247C291.085 94.4059 290.91 94.4569 290.772 94.5665C290.635 94.6761 290.546 94.8356 290.526 95.0102Z" fill="#333333"/>
<path d="M284.741 94.8404C284.732 94.9272 284.741 95.0148 284.766 95.098C284.792 95.1812 284.835 95.2584 284.891 95.3247C284.948 95.3911 285.017 95.4453 285.095 95.4842C285.173 95.523 285.258 95.5457 285.345 95.5507C285.52 95.5695 285.695 95.5186 285.833 95.4089C285.97 95.2993 286.059 95.1399 286.079 94.9653C286.087 94.8787 286.077 94.7914 286.051 94.7085C286.025 94.6257 285.982 94.5489 285.926 94.4826C285.87 94.4163 285.801 94.3619 285.723 94.3224C285.646 94.283 285.561 94.2593 285.475 94.2528C285.299 94.2341 285.124 94.2853 284.987 94.3954C284.849 94.5055 284.761 94.6654 284.741 94.8404Z" fill="#333333"/>
<path d="M289.846 93.6478C290.168 93.5517 290.498 93.4798 290.831 93.4326C291.144 93.3884 291.461 93.3884 291.774 93.4326C292.085 93.4742 292.387 93.562 292.671 93.693L292.783 93.7404C292.82 93.7554 292.854 93.7791 292.891 93.7963L293.106 93.9104C293.255 93.99 293.39 94.089 293.554 94.1687C293.469 94.0167 293.371 93.8726 293.261 93.7382C293.142 93.6041 293.009 93.4836 292.863 93.3788C292.561 93.1581 292.208 93.0175 291.836 92.9698C291.466 92.9176 291.088 92.9545 290.735 93.0774C290.395 93.1903 290.09 93.3864 289.846 93.6478Z" fill="#07085B"/>
<path d="M287.138 93.5294C286.919 93.2469 286.632 93.0247 286.303 92.8837C285.965 92.7324 285.597 92.6623 285.227 92.6792C284.853 92.6956 284.489 92.8051 284.168 92.9978C284.013 93.0894 283.869 93.1977 283.738 93.3206C283.615 93.4474 283.504 93.5842 283.404 93.7296C283.576 93.665 283.721 93.5768 283.876 93.5144L284.106 93.4175C284.142 93.4046 284.179 93.3831 284.218 93.3723L284.334 93.3357C284.629 93.2294 284.938 93.1684 285.251 93.1549C285.566 93.1374 285.882 93.165 286.189 93.2367C286.513 93.3091 286.83 93.407 287.138 93.5294Z" fill="#07085B"/>
<path d="M288.193 93.5142C288.293 93.9733 288.327 94.4444 288.294 94.9132C288.277 95.154 288.238 95.3925 288.175 95.6257C288.111 95.8811 287.992 96.1197 287.827 96.3252L287.745 96.4027L287.674 96.4694C287.639 96.4975 287.607 96.5284 287.577 96.562C287.52 96.6231 287.479 96.6969 287.457 96.7772C287.436 96.863 287.434 96.9522 287.452 97.0387C287.469 97.1252 287.504 97.2071 287.556 97.2787C287.771 97.6166 288.201 97.8383 288.649 97.9869C288.395 98.0142 288.139 97.9832 287.899 97.8963C287.659 97.8094 287.442 97.6688 287.265 97.4853C287.167 97.3791 287.095 97.2518 287.055 97.1134C287.014 96.9749 287.006 96.829 287.03 96.6868C287.044 96.6118 287.069 96.5392 287.104 96.4716C287.136 96.4044 287.176 96.3415 287.224 96.2843C287.271 96.2291 287.323 96.178 287.379 96.1315C287.399 96.1153 287.417 96.0972 287.433 96.0777L287.478 96.0346C287.602 95.8758 287.696 95.6966 287.758 95.5051C287.83 95.2935 287.891 95.0779 287.939 94.8594C288.027 94.4268 288.104 93.9748 288.193 93.5142Z" fill="#F99893"/>
<path d="M286.112 98.8934C286.327 99.6941 287.319 100.284 288.49 100.264C289.661 100.245 290.621 99.6188 290.819 98.8159L286.112 98.8934Z" fill="white"/>
<path d="M297.279 95.1286C297.71 94.7154 298.071 94.7326 298.071 94.7326L297.764 92.3305L296.957 90.9035C296.957 90.9035 293.862 87.0959 293.754 87.0033C293.647 86.9108 291.352 85.7291 291.21 85.6688C291.068 85.6086 287.941 86.2048 287.941 86.2048C287.941 86.2048 282.365 85.2879 283.411 88.1419C284.457 90.996 288.555 92.3628 288.757 92.2315C288.077 91.6095 287.937 89.7692 287.937 89.7692C290.926 92.761 296.425 94.8187 297.279 95.1286Z" fill="#07085B"/>
<path d="M246.747 73.5314L264.715 224.948L265.593 224.849L247.629 73.4561L246.747 73.5314Z" fill="#8A452B"/>
<path d="M253.255 122.324C253.257 122.053 253.277 121.781 253.315 121.513C253.35 121.356 253.426 121.211 253.536 121.094C253.646 120.977 253.785 120.891 253.939 120.845L254.301 120.738L254.333 121.549C254.301 122.169 254.29 122.124 255.149 122.498C256.373 123.03 255.859 123.671 255.859 123.671C255.859 123.671 255.519 124.128 254.021 123.379C254.021 123.379 253.302 123 253.255 122.324Z" fill="#FFC0BB"/>
<path d="M253.128 123.019C253.128 122.761 253.148 122.502 253.186 122.247C253.218 122.096 253.29 121.956 253.394 121.843C253.498 121.729 253.63 121.646 253.778 121.601L254.122 121.498L254.152 122.27C254.124 122.86 254.111 122.819 254.929 123.174C256.096 123.682 255.607 124.291 255.607 124.291C255.607 124.291 255.282 124.722 253.858 124.012C253.86 124.022 253.171 123.663 253.128 123.019Z" fill="#FFC0BB"/>
<path d="M253.315 123.945C253.316 123.729 253.333 123.513 253.364 123.299C253.392 123.173 253.453 123.056 253.541 122.961C253.629 122.866 253.742 122.797 253.866 122.761L254.156 122.673L254.182 123.319C254.159 123.818 254.148 123.784 254.828 124.085C255.816 124.515 255.403 125.03 255.403 125.03C255.403 125.03 255.127 125.396 253.922 124.793C253.933 124.795 253.352 124.489 253.315 123.945Z" fill="#FFC0BB"/>
<path d="M253.521 121.326C253.522 121.055 253.543 120.784 253.582 120.516C253.616 120.359 253.692 120.214 253.802 120.097C253.912 119.98 254.052 119.894 254.206 119.849L254.567 119.739L254.598 120.551C254.567 121.171 254.557 121.128 255.415 121.5C256.64 122.034 256.126 122.675 256.126 122.675C256.126 122.675 255.786 123.131 254.288 122.38C254.29 122.38 253.569 122.004 253.521 121.326Z" fill="#FFC0BB"/>
<path d="M254.598 120.551C254.594 120.687 254.601 120.823 254.617 120.958C254.636 121.021 254.67 121.079 254.717 121.126C254.763 121.172 254.821 121.207 254.884 121.227C255.133 121.345 255.4 121.442 255.656 121.56C255.719 121.597 255.783 121.629 255.844 121.668C255.904 121.708 255.961 121.752 256.014 121.801C256.129 121.896 256.216 122.022 256.265 122.163C256.314 122.308 256.305 122.467 256.242 122.606C256.227 122.642 256.207 122.676 256.184 122.708C256.157 122.743 256.122 122.771 256.083 122.791C256.015 122.828 255.943 122.853 255.867 122.867C255.724 122.885 255.579 122.88 255.437 122.852C255.291 122.828 255.147 122.793 255.006 122.746C254.737 122.655 254.476 122.54 254.227 122.402C253.984 122.252 253.782 122.043 253.64 121.795C253.573 121.671 253.532 121.535 253.519 121.395C253.511 121.323 253.511 121.251 253.519 121.179L253.537 120.964V121.179C253.533 121.247 253.538 121.315 253.549 121.382C253.572 121.514 253.621 121.641 253.694 121.754C253.84 121.983 254.04 122.172 254.277 122.305C254.524 122.428 254.779 122.534 255.041 122.621C255.296 122.713 255.567 122.749 255.837 122.725C255.899 122.716 255.96 122.697 256.016 122.669C256.038 122.658 256.058 122.642 256.074 122.624C256.092 122.6 256.107 122.574 256.119 122.546C256.172 122.435 256.182 122.308 256.145 122.191C256.103 122.069 256.029 121.96 255.93 121.877C255.88 121.832 255.829 121.791 255.775 121.752C255.719 121.713 255.661 121.679 255.603 121.642C255.364 121.511 255.099 121.41 254.849 121.276C254.786 121.241 254.727 121.199 254.675 121.149C254.623 121.097 254.589 121.029 254.58 120.955C254.573 120.82 254.578 120.685 254.598 120.551Z" fill="#F99893"/>
<path d="M255.669 122.804C255.761 122.864 255.838 122.943 255.895 123.036C255.952 123.129 255.988 123.234 256.001 123.342C256.003 123.454 255.974 123.565 255.919 123.663C255.903 123.69 255.882 123.715 255.859 123.736C255.835 123.755 255.81 123.77 255.783 123.783C255.731 123.81 255.675 123.831 255.618 123.844C255.395 123.879 255.168 123.867 254.95 123.807C254.738 123.752 254.53 123.68 254.329 123.592C254.227 123.551 254.133 123.499 254.034 123.452C253.933 123.403 253.839 123.343 253.754 123.271C253.576 123.136 253.429 122.964 253.323 122.767C253.275 122.669 253.239 122.564 253.218 122.455C253.21 122.402 253.206 122.348 253.205 122.294V122.133C253.223 121.923 253.254 121.714 253.298 121.508C253.283 121.724 253.272 121.928 253.274 122.137V122.29C253.277 122.34 253.284 122.391 253.293 122.44C253.319 122.538 253.357 122.632 253.407 122.72C253.513 122.896 253.651 123.049 253.814 123.172C253.895 123.235 253.982 123.29 254.075 123.336C254.171 123.379 254.266 123.428 254.363 123.467C254.557 123.553 254.757 123.625 254.961 123.682C255.16 123.741 255.368 123.76 255.575 123.738C255.622 123.735 255.668 123.723 255.71 123.703C255.753 123.682 255.791 123.653 255.822 123.618C255.876 123.535 255.906 123.439 255.91 123.34C255.913 123.239 255.889 123.139 255.841 123.049C255.795 122.961 255.737 122.878 255.669 122.804Z" fill="#F99893"/>
<path d="M255.672 123.797C255.705 123.867 255.722 123.944 255.722 124.023C255.722 124.101 255.705 124.178 255.672 124.249C255.656 124.288 255.632 124.324 255.601 124.354C255.568 124.382 255.532 124.405 255.493 124.423C255.416 124.455 255.335 124.476 255.252 124.483C254.931 124.493 254.613 124.432 254.318 124.307C254.174 124.249 254.029 124.186 253.887 124.115C253.744 124.045 253.613 123.951 253.5 123.837C253.387 123.729 253.292 123.603 253.218 123.465C253.149 123.327 253.113 123.174 253.115 123.02C253.173 123.314 253.336 123.578 253.573 123.762C253.686 123.859 253.811 123.939 253.946 124.001C254.089 124.066 254.232 124.126 254.376 124.182C254.516 124.237 254.66 124.283 254.806 124.32C254.951 124.36 255.1 124.38 255.25 124.38C255.323 124.379 255.395 124.366 255.465 124.343C255.497 124.333 255.528 124.318 255.555 124.298C255.58 124.277 255.601 124.25 255.616 124.221C255.654 124.158 255.678 124.087 255.688 124.014C255.697 123.941 255.692 123.867 255.672 123.797Z" fill="#F99893"/>
<path d="M255.351 124.421C255.405 124.467 255.449 124.525 255.48 124.589C255.511 124.654 255.529 124.724 255.532 124.795C255.531 124.87 255.513 124.944 255.48 125.011C255.473 125.029 255.464 125.046 255.452 125.062C255.438 125.08 255.421 125.095 255.403 125.107C255.37 125.13 255.335 125.148 255.297 125.161C255.153 125.206 255 125.217 254.852 125.191C254.709 125.168 254.568 125.133 254.432 125.086C254.299 125.037 254.168 124.982 254.04 124.92C253.975 124.889 253.911 124.855 253.849 124.817C253.788 124.778 253.731 124.733 253.679 124.683C253.568 124.595 253.478 124.483 253.416 124.355C253.353 124.228 253.318 124.089 253.315 123.947C253.375 124.208 253.528 124.437 253.745 124.593C253.798 124.635 253.853 124.673 253.911 124.707C253.965 124.741 254.032 124.763 254.092 124.793C254.217 124.851 254.346 124.903 254.475 124.948C254.603 124.994 254.735 125.029 254.869 125.054C254.997 125.082 255.13 125.082 255.258 125.054C255.287 125.046 255.314 125.034 255.34 125.019C255.351 125.013 255.361 125.006 255.37 124.998L255.396 124.961C255.43 124.907 255.451 124.847 255.458 124.785C255.468 124.72 255.462 124.655 255.441 124.593C255.418 124.532 255.388 124.474 255.351 124.421Z" fill="#F99893"/>
</g>
<defs>
<filter id="filter0_b_5460_16366" x="-82.0376" y="-100" width="581.038" height="506.755" filterUnits="userSpaceOnUse" color-interpolation-filters="sRGB">
<feFlood flood-opacity="0" result="BackgroundImageFix"/>
<feGaussianBlur in="BackgroundImage" stdDeviation="50"/>
<feComposite in2="SourceAlpha" operator="in" result="effect1_backgroundBlur_5460_16366"/>
<feBlend mode="normal" in="SourceGraphic" in2="effect1_backgroundBlur_5460_16366" result="shape"/>
</filter>
<clipPath id="clip0_5460_16366">
<rect width="398.999" height="358.006" fill="white" transform="translate(0.000488281)"/>
</clipPath>
</defs>
</svg>
