<svg width="92" height="42" viewBox="0 0 92 42" fill="none" xmlns="http://www.w3.org/2000/svg">
<path d="M2.33566 31.7018H0L3.07324 18.1136C3.63052 15.633 4.05668 13.2231 4.35171 10.8839C4.66313 8.45039 4.81884 6.14252 4.81884 3.96025C4.81884 3.34796 4.81065 2.91622 4.79426 2.66502L7.49871 1.48754V2.14693C7.49871 3.18311 7.40036 4.85514 7.20368 7.16301C7.00699 9.54938 6.80211 11.3235 6.58903 12.4852C7.62164 10.1774 8.86732 8.0893 10.3261 6.22102C11.8668 4.25855 13.3993 2.74352 14.9237 1.67593C16.4808 0.561249 17.8986 0.00390625 19.177 0.00390625C20.4555 0.00390625 21.4881 0.4906 22.2748 1.46399C23.0452 2.46877 23.4304 3.78756 23.4304 5.42033C23.4304 7.47701 22.9633 9.55723 22.029 11.661C21.1111 13.702 19.8408 15.6252 18.2182 17.4307C16.6283 19.1733 14.8581 20.5549 12.9076 21.5754C10.9571 22.5959 9.04762 23.1061 7.17909 23.1061C6.70376 23.1061 6.20385 23.0512 5.67935 22.9413L6.9824 21.2693C7.76915 21.5205 8.58868 21.6461 9.44099 21.6461C10.785 21.6461 12.1536 21.2065 13.5468 20.3273C14.9073 19.4481 16.1284 18.2235 17.2101 16.6535C18.1936 15.2249 19.0459 13.4037 19.7671 11.19C20.4719 9.05483 20.8243 7.17871 20.8243 5.56163C20.8243 4.22715 20.5948 3.19881 20.1359 2.47662C19.6605 1.73873 19.0049 1.36979 18.169 1.36979C16.9889 1.36979 15.6285 2.01348 14.0877 3.30086C12.5634 4.57255 11.0555 6.33092 9.56392 8.57599C8.51493 10.146 7.62983 11.8415 6.90864 13.6627C6.20385 15.4682 5.56461 17.5798 4.99094 19.9976L2.33566 31.7018Z" fill="white"/>
<path d="M15.2924 40.0619L16.4972 38.5076C17.4642 39.481 18.5378 39.9677 19.7179 39.9677C20.9964 39.9677 22.0126 39.4889 22.7666 38.5312C23.5369 37.5421 24.168 35.9721 24.6597 33.8213L25.7906 28.9465C24.0041 30.9717 22.3732 31.9844 20.898 31.9844C20.0457 31.9844 19.3819 31.7332 18.9066 31.2308C18.4149 30.7284 18.169 30.0533 18.169 29.2055C18.169 28.6403 18.2428 28.0202 18.3903 27.3451L20.0621 18.8908L22.4469 17.9252L20.0621 27.4157C19.8654 28.185 19.7671 28.7581 19.7671 29.1349C19.7671 29.6687 19.9392 30.1004 20.2834 30.4301C20.5948 30.7755 21.0374 30.9482 21.611 30.9482C22.2175 30.9482 22.8895 30.6891 23.6271 30.1711C24.2991 29.7001 25.1104 28.9386 26.0611 27.8867L28.1755 18.8908L30.4865 17.9252L26.897 31.7724C26.52 33.311 26.1184 34.6141 25.6923 35.6817C25.2989 36.6237 24.8482 37.4087 24.3401 38.0366C22.7502 40.0148 20.7915 41.0039 18.464 41.0039C17.1036 41.0039 16.0464 40.6899 15.2924 40.0619Z" fill="white"/>
<path d="M35.5512 19.0321C35.6168 18.671 35.6496 18.3413 35.6496 18.043C35.6496 17.4935 35.5594 17.0617 35.3791 16.7477C35.1825 16.4337 34.9366 16.2767 34.6416 16.2767C34.494 16.2767 34.3547 16.3474 34.2236 16.4887C34.0925 16.6614 34.0269 16.8498 34.0269 17.0539C34.0269 17.7761 34.535 18.4355 35.5512 19.0321ZM32.6255 25.3905L32.183 25.0137C33.609 23.3652 34.5514 21.8423 35.0104 20.445C33.6827 19.7385 33.0189 18.7259 33.0189 17.4071C33.0189 16.7791 33.1746 16.2689 33.486 15.8764C33.7974 15.4839 34.1908 15.2877 34.6662 15.2877C35.1579 15.2877 35.5594 15.4996 35.8709 15.9235C36.1823 16.3631 36.338 16.9283 36.338 17.6191C36.338 18.0901 36.2478 18.6317 36.0676 19.244C36.4773 19.3539 36.8789 19.4088 37.2723 19.4088C38.2885 19.4088 39.1244 19.1262 39.78 18.5611H40.9601L40.788 18.8908C39.6243 20.9317 38.6573 22.9648 37.8869 24.9901C37.1166 27.0154 36.7314 28.5147 36.7314 29.4881C36.7314 29.8492 36.8297 30.1475 37.0264 30.383C37.2231 30.6342 37.4608 30.7598 37.7394 30.7598C38.4114 30.7598 39.4932 30.0769 40.9847 28.711L41.3781 29.1349C40.9683 29.5745 40.2554 30.1789 39.2391 30.9482C38.3868 31.6076 37.5755 31.9373 36.8051 31.9373C36.1823 31.9373 35.6824 31.7332 35.3054 31.325C34.9284 30.9168 34.7399 30.3594 34.7399 29.653C34.7399 28.4755 35.2152 26.984 36.1659 25.1785C36.4609 24.5819 36.9035 23.8126 37.4935 22.8706C37.8213 22.3369 38.5016 21.3085 39.5342 19.7856L39.78 19.4559C39.2391 19.9269 38.7228 20.2566 38.2311 20.445C37.7394 20.6491 37.1657 20.7512 36.5101 20.7512C36.2478 20.7512 35.9364 20.7119 35.5758 20.6334C35.0513 22.1877 34.0679 23.7734 32.6255 25.3905Z" fill="white"/>
<path d="M45.6069 18.8908L48.0163 17.9252L45.8527 25.6731C45.4922 26.9133 45.3119 27.9338 45.3119 28.7345C45.3119 29.2369 45.402 29.6451 45.5823 29.9591C45.7626 30.2731 46.0003 30.4301 46.2953 30.4301C46.8034 30.4301 47.6147 29.8492 48.7293 28.6874L49.1227 29.0171L48.8768 29.2762C47.9426 30.328 47.2541 31.0345 46.8116 31.3956C46.3691 31.7724 45.9593 31.9608 45.5823 31.9608C45.0742 31.9608 44.648 31.7096 44.3038 31.2072C43.9432 30.7205 43.7629 30.1083 43.7629 29.3704C43.7629 28.8837 43.8613 28.1379 44.058 27.1331L45.6069 18.8908ZM48.7293 8.69374C49.1555 8.69374 49.4997 8.81934 49.7619 9.07053C50.0242 9.32173 50.1553 9.65143 50.1553 10.0596C50.1553 10.4521 50.016 10.7818 49.7373 11.0487C49.4587 11.3156 49.1227 11.4491 48.7293 11.4491C48.3523 11.4491 48.0163 11.3078 47.7213 11.0252C47.4262 10.7426 47.2787 10.4207 47.2787 10.0596C47.2787 9.68283 47.418 9.36098 47.6967 9.09408C47.9753 8.82719 48.3195 8.69374 48.7293 8.69374Z" fill="white"/>
<g clip-path="url(#clip0_5460_15590)">
<g clip-path="url(#clip1_5460_15590)">
<path d="M62.2764 5.29225C61.4703 5.52842 60.4019 6.36329 59.4932 7.46799C58.4555 8.72267 57.6337 10.5731 57.2282 12.5646C57.0949 13.2141 57.0692 14.6577 57.1768 15.1466C57.4134 16.1934 57.5567 16.6392 57.8446 17.2302C58.2708 18.0905 58.8085 18.7352 59.6221 19.3446C59.9043 19.5577 60.1359 19.7579 60.1359 19.7856C60.1359 19.8447 59.6477 19.994 58.9286 20.1588C57.8246 20.4109 56.9002 20.7693 56.325 21.1625C55.6422 21.6319 54.8461 22.3434 54.5226 22.7756C54.3893 22.9497 54.2722 23.1003 54.2553 23.1145C54.2196 23.144 53.5881 24.2144 53.5881 24.2481C53.5881 24.2581 53.5212 24.4081 53.4392 24.5776C53.2629 24.9439 53.13 25.3274 53.043 25.7212C52.9761 26.0023 52.9604 26.2107 52.9867 26.7628C53.0017 27.1406 53.043 27.5303 53.0737 27.6201C53.1989 27.9495 53.4073 28.3664 53.5512 28.5506C53.6034 28.6148 53.6498 28.6829 53.6902 28.7543C53.6902 28.7927 53.9774 29.0542 54.2534 29.2727C54.7366 29.6506 55.2191 29.8926 55.9276 30.1152C56.6161 30.3284 57.1168 30.3916 58.1413 30.3916C59.045 30.3916 59.4099 30.3579 60.211 30.2026C60.4213 30.1637 60.6491 30.1152 60.7242 30.1058C60.9452 30.0621 61.9134 29.8005 62.3164 29.6695C62.6776 29.5583 63.0299 29.4228 63.3704 29.2638C63.8842 29.0412 65.9846 27.6797 66.4515 27.2729C66.5341 27.2003 66.6111 27.1465 66.6161 27.1548C66.6211 27.1631 66.5854 27.3821 66.5285 27.6342C66.4465 27.9885 66.4365 28.1237 66.4772 28.2011C66.5085 28.2542 66.5541 28.2979 66.5798 28.2979C66.7394 28.2979 67.1036 28.0995 67.5561 27.7665C67.8384 27.5628 69.3993 26.2113 69.6872 25.9255C70.0571 25.5618 70.8939 24.9466 71.4334 24.6508C71.8596 24.4187 72.9273 23.934 73.3848 23.774L74.4118 23.4061C75.3156 23.0814 78.4073 22.122 79.1778 21.9301C79.3368 21.8911 79.5934 21.8285 79.7411 21.7895C79.8888 21.7506 80.3112 21.6638 80.6761 21.5959C81.041 21.528 81.4716 21.4406 81.6262 21.4069C81.9904 21.329 83.7541 21.3343 84.1421 21.4164C84.743 21.5427 84.9639 21.6248 85.0922 21.7706C85.2518 21.9478 85.2518 22.0759 85.0972 22.4006C84.7279 23.19 83.6339 24.2026 81.6462 25.6126C79.9889 26.784 78.7616 27.4925 78.1864 27.6106C77.4829 27.7606 76.0447 27.7706 74.4118 27.6443C73.3385 27.5622 73.2565 27.5575 73.2565 27.6059C73.2565 27.809 75.3412 28.2501 76.2913 28.2501C76.6919 28.2501 76.9541 28.3422 76.9541 28.4862C76.9541 28.7224 76.1217 28.8789 74.8481 28.8789C73.7134 28.8789 73.1432 28.7868 72.4604 28.4963C72.0805 28.3315 71.7363 28.2347 71.6468 28.2636C71.4722 28.3262 71.3645 28.6899 70.9383 30.6714C70.6817 31.8871 70.4501 32.5703 70.0859 33.2487C69.7829 33.7969 69.3274 34.2569 68.7682 34.5793C68.2091 34.9018 67.5675 35.0745 66.9121 35.079C66.2907 35.079 66.0359 34.929 65.9108 34.4974C65.8538 34.2943 65.8694 33.7759 65.9414 33.4754C66.0184 33.1554 66.0597 32.9859 66.1367 32.6323C66.2856 31.9237 66.3163 31.7649 66.342 31.4213L66.3726 31.0818L66.2237 31.5423C65.6742 33.2475 65.253 34.0617 64.9557 34.0032C64.8167 33.979 64.7679 33.7464 64.8011 33.1766C64.8268 32.6872 64.8524 32.5567 65.0014 32.0548C65.1265 31.6415 65.7411 30.7033 66.2237 30.2044C66.2835 30.1491 66.3337 30.0854 66.3726 30.0155C66.4191 29.9378 66.4761 29.8661 66.5422 29.8023C66.8865 29.4292 67.374 28.8718 67.4185 28.7986C67.4491 28.7395 67.4441 28.7307 67.3928 28.7602C67.2595 28.8328 66.7043 29.1912 66.6418 29.2396C66.6061 29.2686 66.3645 29.4675 66.1029 29.6807C65.8133 29.9136 65.5404 30.1645 65.2861 30.4317C64.9319 30.8096 64.5207 31.3522 64.5207 31.4354C64.5124 31.4786 64.4866 31.5169 64.4487 31.5423C64.4081 31.576 64.2998 31.8234 64.2028 32.0944C64.0432 32.5667 64.0332 32.6258 64.0382 33.2912C64.0432 34.0953 64.1202 34.4537 64.3924 34.9143C64.6747 35.3937 64.9726 35.6021 65.7993 35.9027C66.1592 36.0331 66.2775 36.0526 66.7137 36.0526C67.7201 36.0526 68.8041 35.7184 69.5846 35.1711C69.8005 35.0158 70.1597 34.599 70.4677 34.139C70.6729 33.8291 71.1455 32.8696 71.2638 32.5159C71.6286 31.426 71.685 31.1544 71.8752 29.4492C71.9265 28.9698 71.9466 28.8824 72.0185 28.9113C73.1382 29.3477 74.0726 29.4829 75.4902 29.4103C76.2542 29.3809 77.0113 29.2604 77.7433 29.0519C78.7447 28.7809 79.8387 28.2719 80.902 27.5793C81.7238 27.0479 81.9134 26.9151 82.088 26.7799C82.2526 26.6394 82.3809 26.5473 82.8328 26.2178C83.4387 25.7767 84.9539 24.3815 85.447 23.8195C85.5904 23.6594 85.7137 23.5189 85.7293 23.5047C85.9171 23.3276 86.6894 22.3416 86.8897 22.0287C87.1212 21.6602 87.1726 21.5297 87.2026 21.2097C87.2232 20.9529 87.2126 20.8903 87.105 20.7451C86.8227 20.3572 86.4221 20.2456 85.0096 20.183C84.0188 20.1393 82.7965 20.2509 81.5673 20.5077C80.4164 20.7439 79.7235 20.9582 77.8697 21.6508C76.3545 22.2176 76.1129 22.305 75.2248 22.6102C74.942 22.7002 74.6641 22.8036 74.3924 22.9202C74.1565 23.0318 73.9919 23.0507 73.9406 22.9734C73.9099 22.9249 73.9719 22.8618 74.5007 22.4065C74.788 22.1597 74.9419 21.9271 74.9419 21.7429C74.9419 21.6248 75.0709 21.4813 75.7024 20.895C76.6218 20.0377 77.1863 19.3398 78.3623 17.6199C78.5959 17.2772 78.807 16.9213 78.9944 16.5542C79.0457 16.4473 79.1377 16.2637 79.1947 16.1409C79.4769 15.5741 79.6772 14.5467 79.5589 14.2757C79.5183 14.1741 79.492 14.1576 79.4769 14.2031C79.395 14.431 78.9581 15.4725 78.7322 15.9714C78.224 17.1151 77.7358 17.9872 77.2996 18.5492C77.0993 18.8055 76.3389 19.7165 76.2775 19.775C76.2619 19.7892 76.1524 19.9007 76.036 20.0265C75.9195 20.1523 75.81 20.2349 75.795 20.2202C75.78 20.2054 75.7637 20.2202 75.7637 20.2544C75.7637 20.2887 75.6385 20.4191 75.4971 20.5549C74.9732 21.0273 74.6835 21.1407 74.6835 20.8696C74.6835 20.7516 74.9507 19.9881 75.069 19.775C75.7005 18.6461 75.9984 17.9771 76.3939 16.7951C76.8608 15.4241 76.9328 15.1867 77.0254 14.7504C77.1124 14.3371 77.1124 14.2857 77.0304 13.8541C76.9841 13.6073 76.9021 13.2731 76.8508 13.1131L76.7707 12.8197L76.7037 13.2796C76.6681 13.5317 76.6218 13.8612 76.5961 14.0065C76.5704 14.1517 76.5241 14.4375 76.4935 14.6364C76.2625 16.0535 75.9928 17.01 75.5897 17.8679C75.5484 17.9547 75.4871 18.1005 75.4458 18.1826C75.4045 18.2647 75.3175 18.4636 75.2455 18.6089C75.1735 18.7541 75.0577 19.0062 74.9889 19.1662C74.92 19.3263 74.7886 19.5973 74.7066 19.772C74.4137 20.3678 74.3674 20.4741 74.3111 20.663C74.2441 20.8956 74.0901 21.0072 73.6996 21.104C73.2221 21.2156 73.0112 21.3402 72.4879 21.8161C72.2207 22.0588 71.4916 22.7171 70.8701 23.2792C69.4581 24.5634 68.6207 25.2867 68.3078 25.4839C68.2603 25.5142 68.2155 25.5481 68.1739 25.5854C68.1589 25.6002 67.9529 25.726 67.712 25.8618C65.3393 27.2038 62.8534 28.2306 61.0359 28.6327C60.0189 28.8558 59.9469 28.8688 59.1871 28.9574C58.3597 29.0542 57.0661 29.03 56.6211 28.909C55.4038 28.5842 54.7516 27.8433 54.5513 26.5738C54.418 25.7165 55.7173 24.1076 56.9803 23.575C57.1232 23.52 57.2608 23.4534 57.3915 23.376C57.4655 23.3294 57.5427 23.2874 57.6225 23.2503C57.7095 23.2113 57.9047 23.1097 58.0606 23.0324L58.7077 22.6882C58.913 22.5866 59.3755 22.3829 59.7347 22.2424C60.094 22.1019 60.4232 21.9667 60.4489 21.9371C60.4845 21.9035 60.4695 21.8988 60.4075 21.9183C60.3049 21.9566 59.6064 22.1314 58.7284 22.3445C57.7939 22.5719 56.7926 22.7756 56.6004 22.7756C56.4615 22.7756 56.4208 22.7561 56.4208 22.6882C56.4208 22.4703 57.1193 21.7872 57.6018 21.5303C57.8158 21.4222 58.0392 21.3315 58.2696 21.2593C58.4799 21.1914 58.8498 21.0651 59.0907 20.9783C60.375 20.5225 61.5942 20.1594 61.7719 20.1688L61.9672 20.1883L61.3301 19.602C60.4539 18.8025 60.0564 18.3278 59.6046 17.5284C59.358 17.0926 59.0907 16.3221 59.0087 15.8232C58.9881 15.6874 58.9681 15.5569 58.9624 15.5327C58.7878 14.7864 58.7747 13.2023 58.9318 12.3591C59.1527 11.1919 59.44 10.6008 60.3712 9.40698C60.8895 8.73861 61.285 8.48177 61.6805 8.54967C61.9065 8.58805 62.2814 8.77698 62.6356 9.0291C62.7896 9.14069 62.9385 9.24697 62.9698 9.26527C63.3291 9.51207 64.0738 10.0889 64.3148 10.3068C64.372 10.3611 64.4349 10.4098 64.5026 10.452C64.608 10.5223 64.7076 10.6001 64.8005 10.6847C65.3343 11.1499 65.8175 11.5373 65.8175 11.5113C65.8175 11.4853 64.9544 10.2371 64.8931 10.1793C64.8284 10.1015 64.7683 10.0205 64.7129 9.9366C64.6259 9.81851 64.5251 9.68507 64.4819 9.64138C64.4248 9.58278 64.3733 9.51956 64.3279 9.45244C64.2893 9.39478 64.2464 9.33974 64.1996 9.28771C64.174 9.25878 64.0557 9.12298 63.943 8.99249C63.8304 8.86201 63.5049 8.53255 63.2189 8.26095C62.8077 7.87362 62.6894 7.7331 62.6638 7.59258C62.5355 6.93838 63.3729 6.85631 64.246 7.43729C64.6359 7.69413 65.5709 8.45992 65.9508 8.82776C66.6236 9.48669 67.5943 10.6061 67.8972 11.0714C67.9536 11.1588 68.0612 11.304 68.1332 11.3961C68.4261 11.7599 69.2992 13.2082 69.8856 14.2981C70.79 15.9844 71.5341 17.8832 71.8014 19.1769C71.8834 19.579 72.0323 20.4947 72.0373 20.6205L72.043 20.7663L72.0943 20.6158C72.1406 20.4752 72.043 18.9625 71.9553 18.4164C71.7294 17.0584 71.3188 15.737 70.6717 14.2981C70.2661 13.4018 69.1258 11.5414 68.0218 9.97202C67.7958 9.65201 67.6162 9.39044 67.6162 9.38159C67.6162 9.37273 67.4873 9.19265 67.3333 8.98423C67.1794 8.7758 67.0154 8.56266 66.9741 8.51188C66.8608 8.3566 66.1936 7.50814 66.0653 7.35404C65.6489 6.88043 65.2054 6.42866 64.7366 6.00077C63.8842 5.2521 63.1494 5.03895 62.2764 5.29225Z" fill="white"/>
</g>
</g>
<defs>
<clipPath id="clip0_5460_15590">
<rect width="41.8447" height="40.7381" fill="white" transform="translate(50.1553 0.00390625)"/>
</clipPath>
<clipPath id="clip1_5460_15590">
<rect width="41.8447" height="40.7381" fill="white" transform="translate(46.0005 0.25293)"/>
</clipPath>
</defs>
</svg>
