<svg width="49" height="49" viewBox="0 0 49 49" fill="none" xmlns="http://www.w3.org/2000/svg">
<rect x="0.500488" y="0.00390625" width="47.9988" height="48" rx="23.9994" fill="#FF8F00"/>
<path d="M12.5005 18.0029C14.5541 18.0029 16.6077 18.0029 18.6613 18.0029C18.8562 18.0029 18.9077 18.052 18.9077 18.2444C18.9018 22.4844 18.9018 26.7244 18.9077 30.9644C18.9077 31.1576 18.8562 31.214 18.6605 31.2132C16.7003 31.2067 14.7401 31.2091 12.7815 31.2132C12.6881 31.2132 12.5955 31.2236 12.5021 31.2284L12.5005 18.0029ZM15.6888 19.2057C15.2056 19.2057 14.7224 19.2057 14.2352 19.2057C13.8325 19.2057 13.7045 19.3321 13.7037 19.7394C13.7037 20.7162 13.7037 21.6925 13.7037 22.6683C13.7037 23.0708 13.8381 23.2028 14.2376 23.2028C15.2136 23.2028 16.19 23.2028 17.1666 23.2028C17.5628 23.2028 17.7021 23.0627 17.7021 22.665C17.7021 21.6893 17.7021 20.7133 17.7021 19.737C17.7021 19.3409 17.5668 19.2073 17.1642 19.2057C16.6729 19.2041 16.1808 19.2057 15.6888 19.2057Z" fill="white"/>
<path d="M12.5005 33.6108C14.5782 33.6108 16.6563 33.6083 18.7345 33.6035C18.8723 33.6035 18.9061 33.6542 18.9053 33.7806C18.9004 34.3587 18.9053 34.9367 18.9004 35.5147C18.9004 35.8561 18.749 35.9978 18.4108 35.9978C16.6061 35.9978 14.8021 35.9978 12.9974 36.0018C12.8963 36.0072 12.7958 35.9835 12.7077 35.9336C12.6196 35.8836 12.5477 35.8095 12.5005 35.72V33.6108Z" fill="white"/>
<path d="M12.5005 15.4728C12.6334 15.2578 12.8323 15.1974 13.0755 15.1983C14.8255 15.2031 16.5747 15.1983 18.3238 15.1983C18.7708 15.1983 18.9004 15.3263 18.9029 15.7618C18.9029 16.1643 18.8924 16.5588 18.9077 16.9565C18.9149 17.1497 18.8602 17.2045 18.6661 17.2037C16.6753 17.1964 14.6837 17.1988 12.6922 17.1988L12.5005 17.2069V15.4728Z" fill="white"/>
<path d="M24.5974 12.0039C24.8301 12.1021 24.9106 12.2865 24.9058 12.528C24.8994 12.8331 24.9002 13.1374 24.9058 13.4417C24.9058 13.5625 24.8672 13.6028 24.7447 13.6028C23.1196 13.5995 21.4947 13.5995 19.8701 13.6028C19.7517 13.6028 19.7018 13.573 19.7042 13.4458C19.7114 13.1101 19.7098 12.7743 19.7042 12.4386C19.7042 12.2229 19.829 12.0957 20.0022 12.0039H24.5974Z" fill="white"/>
<path d="M12.5005 32.0177C12.5706 32.0177 12.6406 32.0064 12.7107 32.0064C14.687 32.0064 16.6632 32.0064 18.6395 32C18.8618 32 18.9125 32.0676 18.9077 32.2761C18.8956 32.8051 18.9077 32.8051 18.3826 32.8051H12.7807C12.6873 32.8051 12.5939 32.8107 12.5005 32.8139V32.0177Z" fill="white"/>
<path d="M24.9437 17.4636C24.8825 17.5787 24.9059 17.6737 24.9059 17.7639C24.9059 22.1381 24.9059 26.5122 24.9059 30.8864C24.9059 31.2044 24.9059 31.2044 24.595 31.2044C23.0472 31.2044 21.5001 31.2044 19.9531 31.2084C19.7606 31.2084 19.7026 31.1601 19.7026 30.962C19.7085 26.1897 19.7085 21.4173 19.7026 16.6449C19.7026 16.4468 19.759 16.4033 19.9507 16.4033C21.5141 16.4114 23.077 16.4114 24.6393 16.4033C24.8503 16.4033 24.9429 16.4533 24.9075 16.6714C24.9008 16.7249 24.9008 16.779 24.9075 16.8324C24.9115 16.884 24.8809 16.9532 24.9397 16.9806C24.9985 17.0079 25.0098 16.9331 25.0444 16.9065C25.1266 16.847 25.22 16.8049 25.319 16.7825C27.233 16.2721 29.1473 15.7622 31.0618 15.2529C31.4532 15.1483 31.6255 15.2529 31.7302 15.6474C31.8913 16.2737 32.0524 16.9001 32.2255 17.5248C32.261 17.6568 32.2392 17.7188 32.0983 17.7558C29.9507 18.3242 27.8032 18.8963 25.6556 19.4722C25.4897 19.5173 25.4744 19.4392 25.4454 19.3265C25.3064 18.7834 25.1649 18.2402 25.021 17.6971C24.9993 17.6246 24.9727 17.5586 24.9437 17.4636Z" fill="white"/>
<path d="M32.8311 20.0967C32.939 20.0967 32.9189 20.2102 32.9374 20.2802C33.2209 21.3536 33.5014 22.4246 33.779 23.4932C34.2278 25.2139 34.6775 26.9338 35.1279 28.6529C35.1738 28.8259 35.1464 28.8879 34.9628 28.9362C32.8502 29.4912 30.7402 30.0547 28.6329 30.6269C28.43 30.6824 28.3913 30.6228 28.3414 30.4449C27.6225 27.6685 26.8977 24.8927 26.167 22.1174C26.1243 21.9564 26.1195 21.8759 26.3176 21.8235C28.4445 21.2648 30.569 20.6964 32.6934 20.1273C32.7321 20.1152 32.7707 20.1088 32.8311 20.0967Z" fill="white"/>
<path d="M36.4991 33.9583C36.4991 34.2054 36.3824 34.3399 36.1094 34.4131C34.9518 34.725 33.7932 35.0352 32.6336 35.3438C31.8583 35.5504 31.0822 35.756 30.3053 35.9605C29.9639 36.0506 29.7907 35.9516 29.6973 35.6095C29.558 35.0982 29.434 34.5822 29.2866 34.0734C29.2351 33.8963 29.2955 33.8528 29.4477 33.8118C31.1743 33.3577 32.8993 32.8996 34.6227 32.4375C35.0254 32.3313 35.4216 32.2266 35.8194 32.1155C35.9491 32.0793 36.024 32.0777 36.061 32.2435C36.1859 32.7748 36.3308 33.3005 36.4677 33.8287C36.4863 33.8802 36.4991 33.9341 36.4991 33.9583Z" fill="white"/>
<path d="M22.3079 33.6052C23.1044 33.6052 23.9 33.6093 24.6965 33.6052C24.8576 33.6052 24.9107 33.6495 24.9083 33.8138C24.8986 34.3676 24.9083 34.9223 24.9035 35.4762C24.9035 35.8715 24.7617 36.0035 24.3599 36.0035H20.2382C19.8355 36.0035 19.7075 35.8715 19.7059 35.469C19.7059 34.9304 19.7131 34.3918 19.701 33.854C19.6962 33.664 19.7405 33.6004 19.9426 33.6036C20.731 33.6125 21.5203 33.6052 22.3079 33.6052Z" fill="white"/>
<path d="M35.7965 31.2244C35.7965 31.346 35.6878 31.3234 35.6258 31.3404C34.7399 31.5819 33.8484 31.8178 32.9593 32.0552C31.7312 32.3821 30.5015 32.7041 29.2766 33.0422C29.0712 33.0994 29.01 33.0511 28.9673 32.8563C28.8763 32.4449 28.766 32.0383 28.6516 31.6334C28.6122 31.4941 28.6428 31.4426 28.7821 31.4056C30.9227 30.8393 33.0624 30.2696 35.2014 29.6964C35.3133 29.6666 35.3906 29.6513 35.4269 29.7979C35.538 30.2519 35.6596 30.7035 35.7772 31.1568C35.7828 31.1793 35.7901 31.2011 35.7965 31.2244Z" fill="white"/>
<path d="M22.3257 15.6071C21.5293 15.6071 20.7328 15.6007 19.9363 15.612C19.7471 15.612 19.6947 15.554 19.7036 15.3704C19.7173 15.1064 19.7116 14.8399 19.7036 14.575C19.7036 14.4495 19.735 14.3947 19.8743 14.3955C21.4978 14.3998 23.1219 14.3998 24.7465 14.3955C24.873 14.3955 24.9076 14.4446 24.9076 14.5606C24.9028 14.8496 24.8996 15.1386 24.9076 15.4276C24.9124 15.5781 24.8496 15.6071 24.7135 15.6063C23.9171 15.6047 23.1206 15.6071 22.3257 15.6071Z" fill="white"/>
<path d="M25.7239 20.4055C25.6965 20.2308 25.8278 20.2541 25.9051 20.2332C27.163 19.8945 28.4215 19.5583 29.6805 19.2245C30.539 18.995 31.3991 18.7688 32.2575 18.5329C32.4186 18.4886 32.5032 18.5023 32.5249 18.6851C32.5499 18.8912 32.7359 19.1279 32.628 19.28C32.5354 19.4088 32.2624 19.412 32.0643 19.4636C30.0985 19.9909 28.131 20.5101 26.166 21.0455C25.9679 21.0995 25.8673 21.0874 25.8383 20.8603C25.8108 20.7062 25.7726 20.5542 25.7239 20.4055Z" fill="white"/>
<path d="M22.3204 32.0059C23.1016 32.0059 23.8828 32.0099 24.6639 32.0059C24.8347 32.0059 24.9112 32.034 24.9096 32.2321C24.9031 32.8085 24.9096 32.8085 24.3378 32.8085C22.8882 32.8085 21.4321 32.8085 19.9793 32.8125C19.7772 32.8125 19.6926 32.7779 19.6991 32.5493C19.7144 32.0091 19.6991 32.0091 20.2354 32.0091L22.3204 32.0059Z" fill="white"/>
</svg>
