<svg width="66" height="67" viewBox="0 0 66 67" fill="none" xmlns="http://www.w3.org/2000/svg">
<rect y="0.00634766" width="66" height="66.0008" rx="33" fill="#FF8F00"/>
<g clip-path="url(#clip0_5462_16629)">
<path d="M19.5 19.5063V49.8813C19.4999 50.0767 19.5506 50.2687 19.6472 50.4385C19.7438 50.6083 19.883 50.75 20.051 50.8497C20.219 50.9494 20.4101 51.0036 20.6054 51.007C20.8008 51.0104 20.9936 50.9629 21.165 50.8691L33 44.4116L44.835 50.8691C45.0064 50.9629 45.1992 51.0104 45.3946 51.007C45.5899 51.0036 45.781 50.9494 45.949 50.8497C46.117 50.75 46.2562 50.6083 46.3528 50.4385C46.4494 50.2687 46.5001 50.0767 46.5 49.8813V19.5063C46.5 18.3129 46.0259 17.1683 45.182 16.3244C44.3381 15.4805 43.1935 15.0063 42 15.0063H24C22.8065 15.0063 21.6619 15.4805 20.818 16.3244C19.9741 17.1683 19.5 18.3129 19.5 19.5063V19.5063Z" fill="white"/>
</g>
<defs>
<clipPath id="clip0_5462_16629">
<rect width="36" height="36.0008" fill="white" transform="translate(15 15.0063)"/>
</clipPath>
</defs>
</svg>
