<svg width="66" height="67" viewBox="0 0 66 67" fill="none" xmlns="http://www.w3.org/2000/svg">
<rect x="0.00244141" y="0.00634766" width="65.9976" height="65.9998" rx="32.9988" fill="#FF8F00"/>
<path d="M15.0024 24.0054C18.0828 24.0054 21.1631 24.0054 24.2434 24.0054C24.5358 24.0054 24.6131 24.079 24.6131 24.3676C24.6042 30.7275 24.6042 37.0874 24.6131 43.4472C24.6131 43.737 24.5358 43.8216 24.2422 43.8203C21.302 43.8107 18.3618 43.8143 15.424 43.8203C15.2839 43.8203 15.145 43.836 15.0049 43.8433L15.0024 24.0054ZM19.7848 25.8095C19.06 25.8095 18.3352 25.8095 17.6044 25.8095C17.0004 25.8095 16.8084 25.9991 16.8072 26.6101C16.8072 28.0753 16.8072 29.5397 16.8072 31.0032C16.8072 31.607 17.0089 31.805 17.608 31.805C19.0721 31.805 20.5366 31.805 22.0014 31.805C22.5958 31.805 22.8047 31.5949 22.8047 30.9984C22.8047 29.5348 22.8047 28.0708 22.8047 26.6065C22.8047 26.0123 22.6018 25.8119 21.9978 25.8095C21.2609 25.8071 20.5229 25.8095 19.7848 25.8095Z" fill="white"/>
<path d="M15.0024 47.4161C18.119 47.4161 21.236 47.4125 24.3534 47.4053C24.5599 47.4053 24.6107 47.4814 24.6094 47.6709C24.6022 48.538 24.6094 49.405 24.6022 50.272C24.6022 50.784 24.3751 50.9966 23.8678 50.9966C21.1607 50.9966 18.4548 50.9966 15.7478 51.0026C15.5961 51.0107 15.4453 50.9752 15.3132 50.9003C15.1812 50.8254 15.0733 50.7142 15.0024 50.58V47.4161Z" fill="white"/>
<path d="M15.0024 20.2087C15.2018 19.8862 15.5001 19.7957 15.8649 19.7969C18.4899 19.8041 21.1136 19.7969 23.7373 19.7969C24.4077 19.7969 24.6022 19.9889 24.6058 20.6422C24.6058 21.246 24.5901 21.8377 24.6131 22.4342C24.6239 22.724 24.5418 22.8061 24.2507 22.8049C21.2646 22.7941 18.2773 22.7977 15.2899 22.7977L15.0024 22.8098V20.2087Z" fill="white"/>
<path d="M33.1474 15.0063C33.4965 15.1537 33.6173 15.4302 33.61 15.7925C33.6004 16.2501 33.6016 16.7066 33.61 17.1631C33.61 17.3442 33.5521 17.4046 33.3684 17.4046C30.9308 17.3997 28.4935 17.3997 26.0566 17.4046C25.879 17.4046 25.8041 17.3599 25.8077 17.1691C25.8186 16.6655 25.8162 16.162 25.8077 15.6584C25.8077 15.3348 25.995 15.144 26.2547 15.0063H33.1474Z" fill="white"/>
<path d="M15.0024 45.0266C15.1075 45.0266 15.2126 45.0097 15.3177 45.0097C18.2821 45.0097 21.2465 45.0097 24.2108 45C24.5442 45 24.6203 45.1014 24.6131 45.4142C24.595 46.2076 24.6131 46.2076 23.8255 46.2076H15.4228C15.2827 46.2076 15.1426 46.216 15.0024 46.2208V45.0266Z" fill="white"/>
<path d="M33.6667 23.1958C33.5749 23.3685 33.6099 23.511 33.6099 23.6463C33.6099 30.2074 33.6099 36.7685 33.6099 43.3296C33.6099 43.8066 33.6099 43.8066 33.1436 43.8066C30.8219 43.8066 28.5014 43.8066 26.1809 43.8126C25.8921 43.8126 25.8052 43.7402 25.8052 43.4431C25.814 36.2847 25.814 29.1262 25.8052 21.9677C25.8052 21.6707 25.8897 21.6055 26.1772 21.6055C28.5223 21.6176 30.8666 21.6176 33.21 21.6055C33.5265 21.6055 33.6655 21.6803 33.6123 22.0076C33.6023 22.0878 33.6023 22.1689 33.6123 22.2491C33.6183 22.3264 33.5724 22.4302 33.6606 22.4713C33.7488 22.5124 33.7657 22.4001 33.8177 22.3602C33.941 22.271 34.0811 22.2078 34.2296 22.1742C37.1005 21.4086 39.9719 20.6438 42.8436 19.8799C43.4307 19.7229 43.6892 19.8799 43.8463 20.4716C44.0878 21.4111 44.3294 22.3505 44.5892 23.2876C44.6423 23.4857 44.6097 23.5786 44.3983 23.6342C41.177 24.4867 37.9558 25.3449 34.7345 26.2087C34.4857 26.2763 34.4627 26.1592 34.4192 25.9902C34.2107 25.1754 33.9985 24.3607 33.7826 23.546C33.75 23.4374 33.7101 23.3383 33.6667 23.1958Z" fill="white"/>
<path d="M45.4977 27.145C45.6596 27.145 45.6294 27.3153 45.6572 27.4203C46.0824 29.0304 46.5032 30.6369 46.9195 32.2397C47.5928 34.8207 48.2672 37.4005 48.9429 39.979C49.0117 40.2387 48.9707 40.3317 48.6952 40.4041C45.5263 41.2365 42.3614 42.0818 39.2006 42.94C38.8962 43.0233 38.8382 42.934 38.7633 42.6671C37.685 38.5026 36.5978 34.3389 35.5018 30.176C35.4377 29.9345 35.4305 29.8137 35.7276 29.7353C38.9179 28.8972 42.1045 28.0447 45.2912 27.1909C45.3491 27.1728 45.4071 27.1631 45.4977 27.145Z" fill="white"/>
<path d="M51 47.9383C51 48.3091 50.8248 48.5107 50.4153 48.6206C48.6791 49.0883 46.9412 49.5537 45.2017 50.0166C44.0388 50.3265 42.8748 50.6348 41.7095 50.9416C41.1973 51.0768 40.9376 50.9283 40.7974 50.4151C40.5885 49.6483 40.4024 48.8742 40.1814 48.111C40.1041 47.8454 40.1947 47.7802 40.423 47.7186C43.0129 47.0375 45.6003 46.3504 48.1854 45.6572C48.7894 45.4978 49.3837 45.3409 49.9804 45.1742C50.1749 45.1199 50.2873 45.1175 50.3428 45.3662C50.5301 46.1632 50.7475 46.9518 50.9529 47.7439C50.9806 47.8212 51 47.9021 51 47.9383Z" fill="white"/>
<path d="M29.713 47.4088C30.9077 47.4088 32.1011 47.4149 33.2958 47.4088C33.5374 47.4088 33.6171 47.4753 33.6135 47.7216C33.599 48.5524 33.6135 49.3844 33.6063 50.2152C33.6063 50.8081 33.3937 51.0062 32.7909 51.0062H26.6085C26.0045 51.0062 25.8124 50.8081 25.81 50.2044C25.81 49.3965 25.8209 48.5886 25.8028 47.782C25.7955 47.497 25.862 47.4016 26.1652 47.4064C27.3478 47.4197 28.5316 47.4088 29.713 47.4088Z" fill="white"/>
<path d="M49.9456 43.8371C49.9456 44.0194 49.7825 43.9856 49.6895 44.011C48.3607 44.3732 47.0235 44.7271 45.6899 45.0833C43.8477 45.5736 42.0031 46.0566 40.1658 46.5638C39.8578 46.6495 39.766 46.577 39.702 46.2848C39.5655 45.6677 39.4 45.0579 39.2284 44.4505C39.1692 44.2416 39.2151 44.1643 39.4241 44.1088C42.6349 43.2595 45.8445 42.4049 49.0529 41.5451C49.2208 41.5004 49.3367 41.4775 49.3911 41.6973C49.5578 42.3783 49.7402 43.0558 49.9166 43.7356C49.925 43.7695 49.9359 43.8021 49.9456 43.8371Z" fill="white"/>
<path d="M29.7397 20.4116C28.545 20.4116 27.3504 20.402 26.1557 20.4189C25.8718 20.4189 25.7933 20.3319 25.8066 20.0566C25.8271 19.6605 25.8187 19.2608 25.8066 18.8635C25.8066 18.6752 25.8537 18.593 26.0627 18.5943C28.4979 18.6007 30.934 18.6007 33.3709 18.5943C33.5605 18.5943 33.6125 18.6679 33.6125 18.8418C33.6052 19.2753 33.6004 19.7088 33.6125 20.1424C33.6197 20.3682 33.5255 20.4116 33.3214 20.4104C32.1267 20.408 30.932 20.4116 29.7397 20.4116Z" fill="white"/>
<path d="M34.8376 27.6087C34.7965 27.3466 34.9934 27.3816 35.1094 27.3503C36.9962 26.8423 38.8839 26.3379 40.7723 25.8372C42.06 25.493 43.3502 25.1537 44.6379 24.7999C44.8794 24.7335 45.0063 24.754 45.0389 25.0281C45.0763 25.3372 45.3554 25.6923 45.1935 25.9205C45.0546 26.1137 44.6451 26.1185 44.3479 26.1958C41.3993 26.9868 38.4482 27.7657 35.5008 28.5687C35.2036 28.6496 35.0526 28.6315 35.0091 28.2909C34.968 28.0598 34.9106 27.8318 34.8376 27.6087Z" fill="white"/>
<path d="M29.7323 45.0078C30.904 45.0078 32.0757 45.0139 33.2475 45.0078C33.5036 45.0078 33.6183 45.0501 33.6159 45.3471C33.6062 46.2118 33.6159 46.2118 32.7582 46.2118C30.5839 46.2118 28.3999 46.2118 26.2207 46.2178C25.9175 46.2178 25.7907 46.1659 25.8003 45.8229C25.8233 45.0126 25.8003 45.0126 26.6048 45.0126L29.7323 45.0078Z" fill="white"/>
</svg>
