<svg width="49" height="49" viewBox="0 0 49 49" fill="none" xmlns="http://www.w3.org/2000/svg">
<rect x="0.5" y="0.00390625" width="48" height="48" rx="24" fill="#FF8F00"/>
<g clip-path="url(#clip0_5462_16710)">
<path d="M30.9086 24.001C30.9094 25.2674 30.5344 26.5055 29.831 27.5588C29.1276 28.612 28.1274 29.433 26.9571 29.9178C25.7868 30.4027 24.4989 30.5296 23.2564 30.2826C22.0139 30.0355 20.8726 29.4256 19.977 28.5299C19.0814 27.6343 18.4717 26.4932 18.2251 25.2511C17.9784 24.009 18.1059 22.7216 18.5915 21.552C19.077 20.3823 19.8987 19.3829 20.9527 18.6802C22.0066 17.9775 23.2454 17.6032 24.5122 17.6045C26.2079 17.6085 27.8329 18.2839 29.0316 19.4826C30.2304 20.6814 30.9052 22.3061 30.9086 24.001ZM23.305 22.4162C23.303 22.2346 23.3425 22.0549 23.4206 21.8909C23.4987 21.7268 23.6132 21.5828 23.7555 21.4699C23.8978 21.3569 24.0641 21.278 24.2416 21.2391C24.4191 21.2002 24.6032 21.2024 24.7797 21.2455C25.3179 21.3728 25.6614 21.7948 25.7028 22.3789C25.7235 22.6736 25.8549 22.8149 26.1077 22.8123C26.3604 22.8096 26.5012 22.6502 26.5032 22.3696C26.5078 21.5662 25.9396 20.7761 25.1405 20.5241C24.9404 20.4574 24.8837 20.3721 24.8998 20.1787C24.9121 19.9876 24.9121 19.7958 24.8998 19.6047C24.8884 19.3573 24.737 19.2106 24.5089 19.2046C24.2695 19.2006 24.112 19.3533 24.104 19.6127C24.0967 19.8373 24.094 20.0627 24.104 20.2874C24.1094 20.4107 24.0594 20.4554 23.9486 20.4934C22.9615 20.8308 22.3786 21.7142 22.516 22.6529C22.6654 23.671 23.4497 24.3644 24.5069 24.4064C25.1879 24.4337 25.6975 24.9438 25.7015 25.6005C25.7032 25.9076 25.5871 26.2037 25.377 26.4278C25.167 26.6519 24.879 26.787 24.5723 26.8053C23.8939 26.8366 23.361 26.3572 23.305 25.6645C23.281 25.3671 23.1242 25.2025 22.8801 25.2178C22.636 25.2331 22.4859 25.4131 22.5073 25.7098C22.556 26.4052 22.8848 26.9319 23.4644 27.3206C23.6645 27.454 23.998 27.4166 24.084 27.6573C24.1614 27.8807 24.096 28.1514 24.104 28.4014C24.112 28.6514 24.2601 28.8014 24.4876 28.8061C24.7257 28.8134 24.8877 28.6607 24.8998 28.4061C24.9121 28.2149 24.9121 28.0232 24.8998 27.832C24.8837 27.6473 24.9358 27.5653 25.1272 27.5027C25.5872 27.3543 25.9769 27.0426 26.2227 26.6265C26.4685 26.2104 26.5533 25.7188 26.4612 25.2445C26.2857 24.3064 25.5034 23.6443 24.5222 23.6103C23.8152 23.5803 23.305 23.0856 23.305 22.4162Z" fill="white"/>
<path d="M33.0816 33.2059C32.3899 33.2059 31.6983 33.2059 31.006 33.2059C30.6471 33.2059 30.5064 33.0658 30.5064 32.7071C30.5064 31.307 30.5064 29.9069 30.5064 28.5068C30.5064 28.2988 30.5504 28.1241 30.7592 28.0401C30.9679 27.9561 31.1247 28.0548 31.2681 28.2001C31.6143 28.5495 31.9671 28.8922 32.3086 29.2462C32.418 29.3595 32.4693 29.3669 32.5607 29.2249C33.3097 28.0594 33.8113 26.7967 34.0007 25.4245C34.3816 22.6616 33.7266 20.1574 31.9751 17.9833C30.3877 16.0098 28.314 14.8497 25.7995 14.4996C24.0739 14.2552 22.3143 14.4914 20.7144 15.1824C20.3489 15.3364 20.1855 15.2757 20.0094 14.925C19.8071 14.525 19.607 14.1229 19.4092 13.7189C19.2351 13.3655 19.2998 13.1802 19.6566 13.0242C21.4603 12.2223 23.4363 11.8849 25.404 12.0428C28.5221 12.2934 31.1754 13.5496 33.287 15.8477C35.8689 18.658 36.8887 21.9916 36.3672 25.7779C36.109 27.6501 35.4014 29.3515 34.3122 30.8937C34.1995 31.053 34.1981 31.1443 34.3442 31.2824C34.7444 31.6604 35.1239 32.0584 35.5148 32.4451C35.6602 32.5885 35.7642 32.7398 35.6755 32.9532C35.5868 33.1665 35.4154 33.2092 35.2086 33.2079C34.4989 33.2059 33.7899 33.2059 33.0816 33.2059Z" fill="white"/>
<path d="M15.8848 14.8039C16.5931 14.8039 17.3021 14.8039 18.0104 14.8039C18.3546 14.8039 18.498 14.9452 18.4987 15.2879C18.4987 16.696 18.4987 18.1042 18.4987 19.5123C18.4987 19.723 18.4433 19.891 18.2319 19.9736C18.0204 20.0563 17.8804 19.9576 17.743 19.819C17.4028 19.4763 17.05 19.1442 16.7211 18.7909C16.5684 18.6262 16.5044 18.6742 16.405 18.8336C15.2711 20.6497 14.7569 22.6205 14.931 24.76C15.1311 27.2269 16.1355 29.3118 17.9324 31.0026C19.5458 32.5214 21.4714 33.3701 23.6831 33.5628C25.2586 33.7034 26.8443 33.4481 28.2959 32.82C28.6468 32.6707 28.8149 32.734 28.9849 33.0694C29.191 33.4774 29.3971 33.8861 29.5992 34.2968C29.7653 34.6342 29.6993 34.8302 29.3604 34.9769C27.5651 35.7773 25.5986 36.1183 23.6384 35.969C20.7444 35.7496 18.2425 34.6355 16.1595 32.62C14.1313 30.6592 12.9287 28.263 12.5925 25.4561C12.2264 22.3998 12.95 19.6076 14.7089 17.0841C14.8036 16.9507 14.8089 16.8707 14.6862 16.7507C14.2787 16.358 13.8858 15.9506 13.4803 15.5506C13.3335 15.4053 13.2408 15.2499 13.3335 15.0392C13.4209 14.8392 13.585 14.7965 13.7844 14.7979C14.4848 14.8072 15.1844 14.8039 15.8848 14.8039Z" fill="white"/>
</g>
<defs>
<clipPath id="clip0_5462_16710">
<rect width="24" height="24" fill="white" transform="translate(12.5 12.0039)"/>
</clipPath>
</defs>
</svg>
