<svg width="49" height="49" viewBox="0 0 49 49" fill="none" xmlns="http://www.w3.org/2000/svg">
<rect x="0.5" y="0.00390625" width="48" height="48" rx="24" fill="#FF8F00"/>
<g clip-path="url(#clip0_5462_16703)">
<path d="M15.5 15.0039V35.2539C15.4999 35.3841 15.5337 35.5122 15.5981 35.6254C15.6625 35.7386 15.7553 35.833 15.8673 35.8995C15.9794 35.9659 16.1067 36.0021 16.237 36.0043C16.3672 36.0066 16.4957 35.9749 16.61 35.9124L24.5 31.6074L32.39 35.9124C32.5043 35.9749 32.6328 36.0066 32.763 36.0043C32.8933 36.0021 33.0207 35.9659 33.1327 35.8995C33.2447 35.833 33.3375 35.7386 33.4019 35.6254C33.4663 35.5122 33.5001 35.3841 33.5 35.2539V15.0039C33.5 14.2083 33.1839 13.4452 32.6213 12.8826C32.0587 12.32 31.2956 12.0039 30.5 12.0039H18.5C17.7044 12.0039 16.9413 12.32 16.3787 12.8826C15.8161 13.4452 15.5 14.2083 15.5 15.0039Z" fill="white"/>
</g>
<defs>
<clipPath id="clip0_5462_16703">
<rect width="24" height="24" fill="white" transform="translate(12.5 12.0039)"/>
</clipPath>
</defs>
</svg>
