<svg width="36" height="37" viewBox="0 0 36 37" fill="none" xmlns="http://www.w3.org/2000/svg">
<g clip-path="url(#clip0_5462_16664)">
<path d="M4.5 4.50635V34.8813C4.49986 35.0767 4.55059 35.2687 4.64721 35.4385C4.74382 35.6083 4.88299 35.75 5.05101 35.8497C5.21903 35.9494 5.41011 36.0036 5.60544 36.007C5.80077 36.0104 5.99362 35.9629 6.165 35.8691L18 29.4116L29.835 35.8691C30.0064 35.9629 30.1992 36.0104 30.3946 36.007C30.5899 36.0036 30.781 35.9494 30.949 35.8497C31.117 35.75 31.2562 35.6083 31.3528 35.4385C31.4494 35.2687 31.5001 35.0767 31.5 34.8813V4.50635C31.5 3.31287 31.0259 2.16828 30.182 1.32437C29.3381 0.480454 28.1935 0.00634766 27 0.00634766L9 0.00634766C7.80653 0.00634766 6.66193 0.480454 5.81802 1.32437C4.97411 2.16828 4.5 3.31287 4.5 4.50635V4.50635Z" fill="white"/>
</g>
<defs>
<clipPath id="clip0_5462_16664">
<rect width="36" height="36.0008" fill="white" transform="translate(0 0.00634766)"/>
</clipPath>
</defs>
</svg>
