<svg width="51" height="49" viewBox="0 0 51 49" fill="none" xmlns="http://www.w3.org/2000/svg">
<rect x="0.141602" y="0.00390625" width="50.7165" height="48" rx="24" fill="#FF8F00"/>
<path d="M12.1441 18.277C12.1441 16.8868 12.1441 15.499 12.1441 14.1088C12.1347 14.0337 12.1522 13.9576 12.1937 13.8943C12.2352 13.831 12.2979 13.7845 12.3705 13.7631C14.3682 12.869 16.4964 12.301 18.6739 12.0807C21.9939 11.7795 25.3343 12.3677 28.3518 13.785C28.4077 13.803 28.4559 13.8397 28.4882 13.8888C28.5205 13.938 28.5351 13.9967 28.5295 14.0552C28.5295 16.8308 28.583 19.6112 28.5051 22.3867C28.4443 24.6388 27.5873 26.6596 26.2896 28.488C25.0644 30.1886 23.5032 31.6197 21.7026 32.6927C21.422 32.8782 21.1068 33.0053 20.7759 33.0664C20.445 33.1275 20.1052 33.1213 19.7768 33.0482C19.4121 32.9455 19.0679 32.7808 18.7591 32.5612C16.1224 30.857 14.0358 28.6852 12.8915 25.7076C12.3848 24.4321 12.1309 23.0702 12.1441 21.6977C12.1636 20.5583 12.1441 19.4164 12.1441 18.277ZM20.3952 29.8758C21.8 29.8149 22.8689 29.2087 23.5311 27.9621C23.9279 27.2171 24.2858 26.4502 24.6608 25.6954C24.7582 25.5007 24.8482 25.3059 24.6729 25.1087C24.4977 24.9115 24.3199 24.9675 24.1154 25.0235C22.5274 25.4642 20.8738 25.62 19.2314 25.4836C18.3345 25.4034 17.447 25.2404 16.5801 24.9967C16.4958 24.9587 16.4015 24.9489 16.3112 24.9686C16.2209 24.9884 16.1393 25.0366 16.0785 25.1063C16.0231 25.1709 15.9896 25.2513 15.9826 25.3361C15.9756 25.4209 15.9955 25.5058 16.0396 25.5786C16.4559 26.4112 16.8284 27.2634 17.2886 28.0668C17.9678 29.2549 19.0415 29.8271 20.3952 29.8758ZM18.9344 19.3677C18.9344 19.0658 18.9344 18.7615 18.9344 18.4571C18.9344 18.07 18.7908 17.9239 18.3988 17.9239C18.0579 17.9239 17.7171 17.9386 17.3787 17.9702C16.4136 18.0292 15.4719 18.2913 14.6153 18.7396C14.034 19.0471 13.5576 19.5209 13.247 20.1005C13.1944 20.1774 13.1681 20.2692 13.172 20.3623C13.176 20.4553 13.21 20.5446 13.2689 20.6167C13.3311 20.686 13.4145 20.7329 13.506 20.75C13.5976 20.7672 13.6922 20.7537 13.7753 20.7117C15.2413 20.1516 16.8622 20.1516 18.3282 20.7117C18.6861 20.8431 18.9247 20.6678 18.932 20.2807C18.9393 19.9764 18.9344 19.672 18.9344 19.3677ZM21.744 19.3336V20.215C21.744 20.6703 21.9875 20.8358 22.4038 20.6824C23.8376 20.1529 25.4133 20.1529 26.8471 20.6824C27.0516 20.7555 27.2464 20.792 27.4022 20.6094C27.558 20.4268 27.4826 20.2296 27.3827 20.0324C27.0016 19.3862 26.4217 18.8805 25.7296 18.591C24.6027 18.1108 23.3814 17.8927 22.1579 17.9532C21.8804 17.9532 21.7513 18.109 21.7465 18.3963C21.7416 18.6836 21.744 19.022 21.744 19.3336ZM18.6106 15.7766C18.6106 15.6524 18.467 15.5453 18.2649 15.4795C17.5992 15.2584 16.8894 15.204 16.1978 15.3213C15.1906 15.4842 14.2728 15.9961 13.6049 16.7675C13.5568 16.8083 13.5194 16.8601 13.4957 16.9185C13.4721 16.977 13.463 17.0403 13.4692 17.103C13.4755 17.1658 13.4968 17.226 13.5315 17.2787C13.5661 17.3314 13.613 17.3748 13.6682 17.4054C13.9117 17.5587 14.0943 17.4054 14.2623 17.2349C14.6308 16.8148 15.0959 16.4904 15.6176 16.2898C16.1392 16.0892 16.7018 16.0184 17.2569 16.0833C17.5378 16.1233 17.8154 16.1844 18.0871 16.2659C18.3915 16.3414 18.6155 16.1734 18.6106 15.7766ZM23.8573 15.3651C23.3972 15.3611 22.9396 15.4344 22.5036 15.5818C22.2212 15.6743 22.0898 15.8593 22.1531 16.0687C22.2164 16.2781 22.4233 16.4047 22.7228 16.3122C23.3862 16.0925 24.0998 16.0742 24.7736 16.2597C25.4474 16.4452 26.0511 16.826 26.5087 17.3542C26.74 17.5977 26.9664 17.6294 27.1539 17.4468C27.3414 17.2641 27.3097 17.0523 27.0979 16.8162C26.6897 16.3605 26.1903 15.9959 25.632 15.7459C25.0737 15.4959 24.469 15.3661 23.8573 15.3651Z" fill="white"/>
<path d="M25.6653 36.0042C25.1178 35.979 24.5983 35.7548 24.2045 35.3737C23.6065 34.7101 23.0945 33.9739 22.6803 33.1825C22.6268 33.0875 22.6414 33.0364 22.7266 32.9804C23.2853 32.6081 23.8203 32.2015 24.3286 31.763C24.482 31.6291 24.5088 31.7776 24.5721 31.8531C24.8912 32.2953 25.3124 32.6537 25.7999 32.8979C26.2875 33.1421 26.8268 33.2648 27.372 33.2555C28.1916 33.2657 28.9848 32.9657 29.5924 32.4155C30.2011 31.8702 30.8097 31.3126 31.4087 30.7624C31.4855 30.71 31.5442 30.6349 31.5765 30.5477C31.6088 30.4604 31.6131 30.3653 31.5888 30.2754C31.5619 30.1871 31.5064 30.1103 31.4311 30.0569C31.3557 30.0036 31.2647 29.9768 31.1725 29.9808C29.8315 29.8427 28.5186 29.5054 27.277 28.9802C27.0847 28.8974 27.0335 28.8463 27.1675 28.6442C28.261 27.0466 28.9755 25.2205 29.2564 23.305C29.3091 22.9315 29.3351 22.5548 29.3343 22.1777C29.3343 20.2908 29.3343 18.4039 29.3343 16.5171C29.3343 16.3053 29.3684 16.2273 29.607 16.2736C33.099 17.0314 36.281 18.8252 38.7371 21.4205C38.7959 21.4682 38.8363 21.5348 38.8514 21.609C38.8665 21.6831 38.8553 21.7603 38.8198 21.8271C37.8874 24.1814 36.9817 26.5455 36.0297 28.8877C35.1946 30.9036 33.7874 32.435 32.0319 33.667C30.3062 34.8334 28.3501 35.6156 26.2958 35.9604C26.0986 35.9872 25.8941 35.9848 25.6653 36.0042ZM35.7789 26.8206C35.718 26.1906 35.4628 25.595 35.0485 25.1164C34.2134 24.0914 33.0813 23.4754 31.864 23.0079C31.8112 22.9827 31.7535 22.9695 31.695 22.9692C31.6365 22.9689 31.5786 22.9815 31.5256 23.0062C31.4725 23.0308 31.4256 23.0669 31.3881 23.1118C31.3507 23.1567 31.3236 23.2094 31.3088 23.266C31.0751 23.8357 30.8487 24.4152 30.6466 24.9849C30.5322 25.299 30.6977 25.5205 31.0337 25.5473C31.3186 25.5692 31.6034 25.5814 31.8834 25.6228C33.083 25.7932 34.2031 26.3219 35.0972 27.1396C35.1555 27.2084 35.2355 27.2553 35.324 27.2725C35.4125 27.2898 35.5043 27.2764 35.5841 27.2345C35.6569 27.1958 35.7152 27.1345 35.7503 27.0599C35.7854 26.9853 35.7954 26.9014 35.7789 26.8206ZM32.9523 21.0066C32.6309 21.0066 32.4653 21.1211 32.4337 21.3694C32.402 21.6177 32.5578 21.7662 32.8816 21.8052C33.0448 21.8271 33.2103 21.8368 33.3686 21.8709C33.9398 21.9794 34.4729 22.2346 34.9156 22.6116C35.3583 22.9885 35.6952 23.4741 35.8933 24.0208C36.0102 24.3178 36.1977 24.4225 36.4363 24.3348C36.6749 24.2472 36.7698 24.0354 36.6578 23.7262C36.371 22.9619 35.8679 22.2978 35.2098 21.8148C34.5518 21.3319 33.7673 21.0511 32.9523 21.0066Z" fill="white"/>
</svg>
