<svg width="71" height="67" viewBox="0 0 71 67" fill="none" xmlns="http://www.w3.org/2000/svg">
<rect x="0.924805" y="0.00585938" width="70.075" height="66" rx="33" fill="#FF8F00"/>
<path d="M15.9285 24.4155C15.9285 22.3302 15.9285 20.2485 15.9285 18.1632C15.9144 18.0505 15.9408 17.9365 16.003 17.8415C16.0652 17.7465 16.1592 17.6767 16.2682 17.6446C19.2647 16.3035 22.457 15.4515 25.7233 15.1211C30.7034 14.6692 35.714 15.5516 40.2401 17.6775C40.3241 17.7046 40.3963 17.7595 40.4448 17.8332C40.4933 17.907 40.5151 17.995 40.5067 18.0829C40.5067 22.2462 40.587 26.4168 40.4702 30.5801C40.3789 33.9582 39.0934 36.9894 37.1468 39.7321C35.309 42.283 32.9672 44.4297 30.2664 46.0392C29.8454 46.3175 29.3726 46.5081 28.8763 46.5997C28.38 46.6913 27.8703 46.682 27.3777 46.5724C26.8306 46.4183 26.3142 46.1713 25.8511 45.842C21.896 43.2855 18.7662 40.0279 17.0497 35.5615C16.2896 33.6482 15.9088 31.6053 15.9285 29.5466C15.9578 27.8374 15.9285 26.1246 15.9285 24.4155ZM28.3053 41.8138C30.4125 41.7225 32.0157 40.8131 33.0091 38.9433C33.6044 37.8257 34.1412 36.6754 34.7036 35.5432C34.8497 35.2511 34.9848 34.9589 34.7219 34.6631C34.4589 34.3673 34.1923 34.4513 33.8856 34.5353C31.5035 35.1964 29.0232 35.4301 26.5596 35.2255C25.2142 35.1051 23.8829 34.8606 22.5825 34.4951C22.4561 34.4382 22.3147 34.4234 22.1792 34.453C22.0438 34.4826 21.9214 34.555 21.8302 34.6594C21.7471 34.7563 21.6967 34.877 21.6863 35.0042C21.6758 35.1314 21.7057 35.2587 21.7718 35.3679C22.3963 36.6169 22.955 37.8951 23.6453 39.1003C24.6642 40.8825 26.2747 41.7407 28.3053 41.8138ZM26.114 26.0516C26.114 25.5987 26.114 25.1422 26.114 24.6857C26.114 24.1051 25.8986 23.8859 25.3106 23.8859C24.7993 23.8859 24.288 23.9079 23.7804 23.9553C22.3329 24.0438 20.9203 24.437 19.6353 25.1094C18.7634 25.5706 18.0488 26.2814 17.5829 27.1509C17.504 27.2661 17.4645 27.4039 17.4705 27.5434C17.4764 27.683 17.5274 27.8169 17.6158 27.9251C17.7091 28.029 17.8341 28.0993 17.9714 28.1251C18.1088 28.1508 18.2507 28.1306 18.3754 28.0675C20.5743 27.2275 23.0058 27.2275 25.2047 28.0675C25.7415 28.2647 26.0994 28.0018 26.1104 27.4211C26.1214 26.9646 26.114 26.5081 26.114 26.0516ZM30.3285 26.0005V27.3225C30.3285 28.0054 30.6937 28.2538 31.3182 28.0237C33.4689 27.2295 35.8325 27.2295 37.9831 28.0237C38.2899 28.1333 38.5821 28.188 38.8158 27.9141C39.0495 27.6402 38.9363 27.3444 38.7866 27.0486C38.2149 26.0793 37.3451 25.3208 36.3069 24.8866C34.6165 24.1663 32.7846 23.8391 30.9493 23.9298C30.533 23.9298 30.3394 24.1635 30.3321 24.5944C30.3248 25.0254 30.3285 25.533 30.3285 26.0005ZM25.6283 20.6649C25.6283 20.4786 25.4129 20.3179 25.1097 20.2193C24.1112 19.8876 23.0465 19.8061 22.0092 19.9819C20.4983 20.2263 19.1216 20.9942 18.1198 22.1512C18.0476 22.2124 17.9914 22.2902 17.956 22.3778C17.9206 22.4655 17.9069 22.5605 17.9163 22.6546C17.9256 22.7487 17.9576 22.8391 18.0096 22.9181C18.0616 22.9971 18.132 23.0623 18.2147 23.1081C18.5799 23.3381 18.8538 23.1081 19.1058 22.8524C19.6586 22.2222 20.3563 21.7357 21.1388 21.4348C21.9213 21.1338 22.7651 21.0276 23.5978 21.125C24.0192 21.185 24.4355 21.2766 24.8431 21.3989C25.2996 21.5121 25.6356 21.2601 25.6283 20.6649ZM33.4985 20.0477C32.8082 20.0417 32.1218 20.1516 31.4679 20.3727C31.0443 20.5115 30.8471 20.789 30.942 21.1031C31.037 21.4172 31.3474 21.6071 31.7966 21.4683C32.7917 21.1388 33.8622 21.1114 34.8728 21.3896C35.8835 21.6677 36.7892 22.239 37.4755 23.0314C37.8225 23.3966 38.1621 23.4441 38.4433 23.1701C38.7245 22.8962 38.677 22.5785 38.3593 22.2243C37.7471 21.5408 36.9979 20.9938 36.1605 20.6188C35.323 20.2438 34.416 20.0492 33.4985 20.0477Z" fill="white"/>
<path d="M36.2106 51.006C35.3893 50.9681 34.6101 50.6318 34.0193 50.0601C33.1224 49.0647 32.3543 47.9604 31.7332 46.7733C31.6528 46.6308 31.6747 46.5541 31.8026 46.4701C32.6405 45.9117 33.4431 45.3019 34.2056 44.6441C34.4357 44.4433 34.4758 44.666 34.5708 44.7793C35.0494 45.4425 35.6813 45.9802 36.4126 46.3464C37.1438 46.7127 37.9529 46.8967 38.7706 46.8828C40.0001 46.8982 41.1898 46.4481 42.1013 45.6229C43.0143 44.8048 43.9273 43.9685 44.8257 43.1431C44.941 43.0645 45.029 42.952 45.0774 42.8211C45.1258 42.6902 45.1323 42.5475 45.0959 42.4127C45.0556 42.2803 44.9723 42.165 44.8593 42.085C44.7462 42.005 44.6098 41.9648 44.4714 41.9708C42.4599 41.7636 40.4905 41.2577 38.6282 40.4699C38.3397 40.3457 38.263 40.269 38.4639 39.9659C40.1042 37.5695 41.1759 34.8303 41.5973 31.957C41.6763 31.3968 41.7154 30.8318 41.7142 30.2661C41.7142 27.4358 41.7142 24.6054 41.7142 21.7751C41.7142 21.4574 41.7653 21.3405 42.1232 21.4099C47.3611 22.5466 52.1342 25.2373 55.8183 29.1303C55.9065 29.2018 55.9672 29.3017 55.9898 29.413C56.0125 29.5242 55.9957 29.6399 55.9425 29.7402C54.5437 33.2717 53.1852 36.8178 51.7572 40.3311C50.5046 43.355 48.3937 45.6521 45.7606 47.5C43.172 49.2497 40.2378 50.4229 37.1564 50.9402C36.8606 50.9804 36.5538 50.9767 36.2106 51.006ZM51.3811 37.2305C51.2897 36.2854 50.9069 35.392 50.2855 34.6741C49.0328 33.1366 47.3346 32.2126 45.5086 31.5114C45.4294 31.4736 45.3429 31.4538 45.2551 31.4533C45.1674 31.4528 45.0806 31.4718 45.0011 31.5088C44.9215 31.5458 44.8511 31.5999 44.7949 31.6673C44.7387 31.7347 44.6981 31.8136 44.676 31.8985C44.3254 32.7531 43.9857 33.6223 43.6826 34.4769C43.511 34.948 43.7593 35.2803 44.2633 35.3205C44.6906 35.3534 45.1179 35.3716 45.5378 35.4337C47.3372 35.6894 49.0174 36.4824 50.3585 37.7089C50.446 37.8121 50.566 37.8825 50.6987 37.9083C50.8315 37.9342 50.9691 37.9141 51.0889 37.8514C51.1981 37.7932 51.2855 37.7013 51.3381 37.5895C51.3908 37.4776 51.4058 37.3517 51.3811 37.2305ZM47.1411 28.5095C46.659 28.5095 46.4107 28.6811 46.3632 29.0536C46.3157 29.4261 46.5494 29.6489 47.0352 29.7073C47.2799 29.7402 47.5282 29.7548 47.7656 29.8059C48.6224 29.9686 49.4221 30.3515 50.0861 30.9169C50.7501 31.4823 51.2556 32.2107 51.5527 33.0307C51.728 33.4762 52.0092 33.6333 52.3671 33.5018C52.725 33.3703 52.8675 33.0526 52.6995 32.5888C52.2693 31.4425 51.5145 30.4462 50.5274 29.7218C49.5404 28.9974 48.3637 28.5761 47.1411 28.5095Z" fill="white"/>
</svg>
