<svg width="66" height="67" viewBox="0 0 66 67" fill="none" xmlns="http://www.w3.org/2000/svg">
<rect y="0.00683594" width="66" height="66" rx="33" fill="#FF8F00"/>
<g clip-path="url(#clip0_5462_16645)">
<path d="M42.6134 33.002C42.6146 34.9016 42.052 36.7588 40.9969 38.3386C39.9419 39.9185 38.4417 41.15 36.6862 41.8772C34.9307 42.6045 32.9988 42.7949 31.1351 42.4243C29.2713 42.0538 27.5594 41.1389 26.216 39.7954C24.8726 38.4519 23.958 36.7403 23.5881 34.8771C23.2181 33.0139 23.4094 31.0829 24.1377 29.3284C24.866 27.5739 26.0986 26.0748 27.6795 25.0208C29.2604 23.9668 31.1186 23.4053 33.0188 23.4072C35.5623 23.4133 37.9998 24.4263 39.7979 26.2244C41.596 28.0226 42.6084 30.4596 42.6134 33.002ZM31.208 30.6248C31.2049 30.3524 31.2642 30.0828 31.3814 29.8368C31.4985 29.5908 31.6704 29.3748 31.8838 29.2053C32.0973 29.0358 32.3466 28.9174 32.6129 28.8591C32.8792 28.8007 33.1552 28.804 33.42 28.8687C34.2274 29.0597 34.7427 29.6928 34.8047 30.5688C34.8357 31.0109 35.0328 31.2229 35.412 31.2189C35.7911 31.2149 36.0022 30.9759 36.0052 30.5548C36.0123 29.3497 35.1599 28.1646 33.9613 27.7866C33.6611 27.6866 33.5761 27.5586 33.6001 27.2686C33.6186 26.9818 33.6186 26.6942 33.6001 26.4075C33.5831 26.0365 33.356 25.8164 33.0138 25.8074C32.6547 25.8014 32.4186 26.0305 32.4065 26.4195C32.3955 26.7565 32.3915 27.0945 32.4065 27.4316C32.4146 27.6166 32.3395 27.6836 32.1734 27.7406C30.6927 28.2466 29.8183 29.5717 30.0244 30.9799C30.2485 32.507 31.4251 33.5471 33.0108 33.6101C34.0323 33.6511 34.7967 34.4161 34.8027 35.4012C34.8053 35.8619 34.6311 36.306 34.316 36.6422C34.0009 36.9784 33.5689 37.181 33.1089 37.2084C32.0914 37.2554 31.292 36.5363 31.208 35.4972C31.172 35.0512 30.9369 34.8042 30.5707 34.8272C30.2045 34.8502 29.9794 35.1202 30.0114 35.5652C30.0845 36.6083 30.5777 37.3984 31.4471 37.9814C31.7472 38.1815 32.2475 38.1255 32.3765 38.4865C32.4926 38.8215 32.3945 39.2275 32.4065 39.6026C32.4186 39.9776 32.6407 40.2026 32.9818 40.2096C33.339 40.2206 33.5821 39.9916 33.6001 39.6096C33.6186 39.3229 33.6186 39.0352 33.6001 38.7485C33.5761 38.4715 33.6541 38.3485 33.9413 38.2545C34.6313 38.0319 35.2159 37.5644 35.5846 36.9402C35.9532 36.3161 36.0805 35.5787 35.9422 34.8672C35.6791 33.4601 34.5055 32.467 33.0338 32.416C31.9733 32.371 31.208 31.6289 31.208 30.6248Z" fill="white"/>
<path d="M45.8729 46.8093C44.8354 46.8093 43.7979 46.8093 42.7594 46.8093C42.2212 46.8093 42.0101 46.5992 42.0101 46.0612C42.0101 43.961 42.0101 41.8609 42.0101 39.7607C42.0101 39.4487 42.0761 39.1866 42.3893 39.0606C42.7024 38.9346 42.9375 39.0826 43.1526 39.3006C43.6719 39.8247 44.2011 40.3387 44.7134 40.8698C44.8774 41.0398 44.9545 41.0508 45.0915 40.8378C46.2151 39.0896 46.9674 37.1955 47.2516 35.1373C47.8228 30.993 46.8404 27.2366 44.2131 23.9754C41.832 21.0151 38.7215 19.275 34.9497 18.7499C32.3614 18.3833 29.722 18.7376 27.3221 19.774C26.7739 20.005 26.5288 19.914 26.2646 19.388C25.9612 18.7879 25.661 18.1849 25.3642 17.5788C25.1031 17.0488 25.2001 16.7708 25.7354 16.5368C28.441 15.3339 31.4049 14.8278 34.3565 15.0646C39.0337 15.4407 43.0136 17.3248 46.1811 20.7721C50.0539 24.9875 51.5836 29.9879 50.8012 35.6673C50.414 38.4756 49.3525 41.0278 47.7188 43.341C47.5497 43.58 47.5477 43.717 47.7668 43.924C48.3671 44.4911 48.9364 45.0881 49.5226 45.6682C49.7407 45.8832 49.8968 46.1102 49.7637 46.4302C49.6307 46.7503 49.3736 46.8143 49.0634 46.8123C47.9989 46.8093 46.9354 46.8093 45.8729 46.8093Z" fill="white"/>
<path d="M20.0776 19.2073C21.1401 19.2073 22.2036 19.2073 23.2661 19.2073C23.7824 19.2073 23.9975 19.4193 23.9985 19.9333C23.9985 22.0455 23.9985 24.1577 23.9985 26.2699C23.9985 26.5859 23.9154 26.8379 23.5983 26.9619C23.2811 27.0859 23.071 26.9379 22.8649 26.7299C22.3547 26.2159 21.8254 25.7178 21.3322 25.1878C21.1031 24.9408 21.0071 25.0128 20.858 25.2518C19.1572 27.976 18.3858 30.9323 18.6469 34.1415C18.9471 37.8418 20.4538 40.9691 23.1491 43.5053C25.5692 45.7835 28.4576 47.0566 31.7751 47.3456C34.1384 47.5566 36.517 47.1737 38.6944 46.2315C39.2207 46.0075 39.4728 46.1025 39.7279 46.6056C40.037 47.2176 40.3462 47.8307 40.6493 48.4467C40.8984 48.9528 40.7994 49.2468 40.2912 49.4668C37.5981 50.6675 34.6484 51.1789 31.7081 50.9549C27.3671 50.6259 23.6143 48.9548 20.4898 45.9315C17.4474 42.9903 15.6435 39.396 15.1393 35.1856C14.59 30.6012 15.6755 26.4129 18.3138 22.6276C18.4559 22.4276 18.4639 22.3075 18.2798 22.1275C17.6685 21.5385 17.0792 20.9274 16.4709 20.3274C16.2508 20.1094 16.1117 19.8763 16.2508 19.5603C16.3819 19.2603 16.628 19.1963 16.9271 19.1983C17.9776 19.2123 19.0271 19.2073 20.0776 19.2073Z" fill="white"/>
</g>
<defs>
<clipPath id="clip0_5462_16645">
<rect width="36" height="36" fill="white" transform="translate(15 15.0068)"/>
</clipPath>
</defs>
</svg>
