<svg width="96" height="60" viewBox="0 0 96 60" fill="none" xmlns="http://www.w3.org/2000/svg">
<path d="M43.6812 15.4998C43.6812 17.9808 45.7002 19.9998 48.1812 19.9998C50.6622 19.9998 52.6812 17.9808 52.6812 15.4998C52.6812 13.0188 50.6622 10.9998 48.1812 10.9998C45.7002 10.9998 43.6812 13.0188 43.6812 15.4998ZM56.1812 29.9998H57.1812V28.9998C57.1812 25.1408 54.0402 21.9998 50.1812 21.9998H46.1812C42.3212 21.9998 39.1812 25.1408 39.1812 28.9998V29.9998H56.1812Z" fill="#FF8F00"/>
<path d="M34.4828 42.6858C34.7788 42.6858 35.0368 42.6498 35.2568 42.5778C35.4768 42.5018 35.6588 42.3958 35.8028 42.2598C35.9508 42.1198 36.0608 41.9518 36.1328 41.7558C36.2048 41.5558 36.2408 41.3338 36.2408 41.0898C36.2408 40.8578 36.2048 40.6478 36.1328 40.4598C36.0608 40.2718 35.9528 40.1118 35.8088 39.9798C35.6648 39.8478 35.4828 39.7478 35.2628 39.6798C35.0428 39.6078 34.7828 39.5718 34.4828 39.5718H33.2768V42.6858H34.4828ZM34.4828 38.3238C35.0628 38.3238 35.5648 38.3918 35.9888 38.5278C36.4128 38.6638 36.7628 38.8538 37.0388 39.0978C37.3148 39.3418 37.5188 39.6338 37.6508 39.9738C37.7868 40.3138 37.8548 40.6858 37.8548 41.0898C37.8548 41.5098 37.7848 41.8958 37.6448 42.2478C37.5048 42.5958 37.2948 42.8958 37.0148 43.1478C36.7348 43.3998 36.3828 43.5958 35.9588 43.7358C35.5388 43.8758 35.0468 43.9458 34.4828 43.9458H33.2768V46.9998H31.6628V38.3238H34.4828ZM40.1627 41.9118C40.3547 41.5438 40.5827 41.2558 40.8467 41.0478C41.1107 40.8358 41.4227 40.7298 41.7827 40.7298C42.0667 40.7298 42.2947 40.7918 42.4667 40.9158L42.3707 42.0258C42.3507 42.0978 42.3207 42.1498 42.2807 42.1818C42.2447 42.2098 42.1947 42.2238 42.1307 42.2238C42.0707 42.2238 41.9807 42.2138 41.8607 42.1938C41.7447 42.1738 41.6307 42.1638 41.5187 42.1638C41.3547 42.1638 41.2087 42.1878 41.0807 42.2358C40.9527 42.2838 40.8367 42.3538 40.7327 42.4458C40.6327 42.5338 40.5427 42.6418 40.4627 42.7698C40.3867 42.8978 40.3147 43.0438 40.2467 43.2078V46.9998H38.7647V40.8438H39.6347C39.7867 40.8438 39.8927 40.8718 39.9527 40.9278C40.0127 40.9798 40.0527 41.0758 40.0727 41.2158L40.1627 41.9118ZM45.7895 40.7478C46.2455 40.7478 46.6595 40.8218 47.0315 40.9698C47.4075 41.1178 47.7275 41.3278 47.9915 41.5998C48.2595 41.8718 48.4655 42.2038 48.6095 42.5958C48.7535 42.9878 48.8255 43.4258 48.8255 43.9098C48.8255 44.3978 48.7535 44.8378 48.6095 45.2298C48.4655 45.6218 48.2595 45.9558 47.9915 46.2318C47.7275 46.5078 47.4075 46.7198 47.0315 46.8678C46.6595 47.0158 46.2455 47.0898 45.7895 47.0898C45.3295 47.0898 44.9115 47.0158 44.5355 46.8678C44.1595 46.7198 43.8375 46.5078 43.5695 46.2318C43.3055 45.9558 43.0995 45.6218 42.9515 45.2298C42.8075 44.8378 42.7355 44.3978 42.7355 43.9098C42.7355 43.4258 42.8075 42.9878 42.9515 42.5958C43.0995 42.2038 43.3055 41.8718 43.5695 41.5998C43.8375 41.3278 44.1595 41.1178 44.5355 40.9698C44.9115 40.8218 45.3295 40.7478 45.7895 40.7478ZM45.7895 45.9498C46.3015 45.9498 46.6795 45.7778 46.9235 45.4338C47.1715 45.0898 47.2955 44.5858 47.2955 43.9218C47.2955 43.2578 47.1715 42.7518 46.9235 42.4038C46.6795 42.0558 46.3015 41.8818 45.7895 41.8818C45.2695 41.8818 44.8835 42.0578 44.6315 42.4098C44.3835 42.7578 44.2595 43.2618 44.2595 43.9218C44.2595 44.5818 44.3835 45.0858 44.6315 45.4338C44.8835 45.7778 45.2695 45.9498 45.7895 45.9498ZM50.2418 46.9998V41.9598L49.7078 41.8758C49.5918 41.8518 49.4978 41.8118 49.4258 41.7558C49.3578 41.6958 49.3238 41.6118 49.3238 41.5038V40.8978H50.2418V40.6998C50.2418 40.3238 50.3038 39.9758 50.4278 39.6558C50.5518 39.3318 50.7398 39.0518 50.9918 38.8158C51.2438 38.5798 51.5618 38.3958 51.9458 38.2638C52.3338 38.1278 52.7898 38.0598 53.3138 38.0598C53.4818 38.0598 53.6518 38.0698 53.8238 38.0898C53.9998 38.1058 54.1518 38.1338 54.2798 38.1738L54.2318 38.9418C54.2238 39.0338 54.1738 39.0898 54.0818 39.1098C53.9898 39.1258 53.8758 39.1338 53.7398 39.1338C53.3518 39.1338 53.0258 39.1678 52.7618 39.2358C52.5018 39.3038 52.2898 39.4058 52.1258 39.5418C51.9658 39.6738 51.8498 39.8418 51.7778 40.0458C51.7098 40.2458 51.6758 40.4798 51.6758 40.7478V40.8978H55.4918V46.9998H54.0098V41.9538H51.7238V46.9998H50.2418ZM58.5108 38.0838V46.9998H57.0288V38.0838H58.5108ZM63.9534 43.2138C63.9534 43.0218 63.9254 42.8418 63.8694 42.6738C63.8174 42.5018 63.7374 42.3518 63.6294 42.2238C63.5214 42.0958 63.3834 41.9958 63.2154 41.9238C63.0514 41.8478 62.8594 41.8098 62.6394 41.8098C62.2114 41.8098 61.8734 41.9318 61.6254 42.1758C61.3814 42.4198 61.2254 42.7658 61.1574 43.2138H63.9534ZM61.1274 44.1078C61.1514 44.4238 61.2074 44.6978 61.2954 44.9298C61.3834 45.1578 61.4994 45.3478 61.6434 45.4998C61.7874 45.6478 61.9574 45.7598 62.1534 45.8358C62.3534 45.9078 62.5734 45.9438 62.8134 45.9438C63.0534 45.9438 63.2594 45.9158 63.4314 45.8598C63.6074 45.8038 63.7594 45.7418 63.8874 45.6738C64.0194 45.6058 64.1334 45.5438 64.2294 45.4878C64.3294 45.4318 64.4254 45.4038 64.5174 45.4038C64.6414 45.4038 64.7334 45.4498 64.7934 45.5418L65.2194 46.0818C65.0554 46.2738 64.8714 46.4358 64.6674 46.5678C64.4634 46.6958 64.2494 46.7998 64.0254 46.8798C63.8054 46.9558 63.5794 47.0098 63.3474 47.0418C63.1194 47.0738 62.8974 47.0898 62.6814 47.0898C62.2534 47.0898 61.8554 47.0198 61.4874 46.8798C61.1194 46.7358 60.7994 46.5258 60.5274 46.2498C60.2554 45.9698 60.0414 45.6258 59.8854 45.2178C59.7294 44.8058 59.6514 44.3298 59.6514 43.7898C59.6514 43.3698 59.7194 42.9758 59.8554 42.6078C59.9914 42.2358 60.1854 41.9138 60.4374 41.6418C60.6934 41.3658 61.0034 41.1478 61.3674 40.9878C61.7354 40.8278 62.1494 40.7478 62.6094 40.7478C62.9974 40.7478 63.3554 40.8098 63.6834 40.9338C64.0114 41.0578 64.2934 41.2398 64.5294 41.4798C64.7654 41.7158 64.9494 42.0078 65.0814 42.3558C65.2174 42.6998 65.2854 43.0938 65.2854 43.5378C65.2854 43.7618 65.2614 43.9138 65.2134 43.9938C65.1654 44.0698 65.0734 44.1078 64.9374 44.1078H61.1274Z" fill="#FF8F00"/>
</svg>
