<svg width="56" height="17" viewBox="0 0 56 17" fill="none" xmlns="http://www.w3.org/2000/svg">
<rect x="0.5" y="0.5" width="55" height="16" rx="4.5" fill="white"/>
<path d="M20.8571 8.405C21.1038 8.405 21.3188 8.375 21.5021 8.315C21.6855 8.25167 21.8371 8.16333 21.9571 8.05C22.0805 7.93333 22.1721 7.79333 22.2321 7.63C22.2921 7.46333 22.3221 7.27833 22.3221 7.075C22.3221 6.88167 22.2921 6.70667 22.2321 6.55C22.1721 6.39333 22.0821 6.26 21.9621 6.15C21.8421 6.04 21.6905 5.95667 21.5071 5.9C21.3238 5.84 21.1071 5.81 20.8571 5.81H19.8521V8.405H20.8571ZM20.8571 4.77C21.3405 4.77 21.7588 4.82667 22.1121 4.94C22.4655 5.05333 22.7571 5.21167 22.9871 5.415C23.2171 5.61833 23.3871 5.86167 23.4971 6.145C23.6105 6.42833 23.6671 6.73833 23.6671 7.075C23.6671 7.425 23.6088 7.74667 23.4921 8.04C23.3755 8.33 23.2005 8.58 22.9671 8.79C22.7338 9 22.4405 9.16333 22.0871 9.28C21.7371 9.39667 21.3271 9.455 20.8571 9.455H19.8521V12H18.5071V4.77H20.8571ZM26.8836 8.21C27.1369 8.21 27.3569 8.17833 27.5436 8.115C27.7336 8.05167 27.8886 7.965 28.0086 7.855C28.1319 7.74167 28.2236 7.60833 28.2836 7.455C28.3436 7.30167 28.3736 7.13333 28.3736 6.95C28.3736 6.58333 28.2519 6.30167 28.0086 6.105C27.7686 5.90833 27.4002 5.81 26.9036 5.81H26.0436V8.21H26.8836ZM30.3436 12H29.1286C28.8986 12 28.7319 11.91 28.6286 11.73L27.1086 9.415C27.0519 9.32833 26.9886 9.26667 26.9186 9.23C26.8519 9.19333 26.7519 9.175 26.6186 9.175H26.0436V12H24.6986V4.77H26.9036C27.3936 4.77 27.8136 4.82167 28.1636 4.925C28.5169 5.025 28.8052 5.16667 29.0286 5.35C29.2552 5.53333 29.4219 5.75333 29.5286 6.01C29.6352 6.26333 29.6886 6.54333 29.6886 6.85C29.6886 7.09333 29.6519 7.32333 29.5786 7.54C29.5086 7.75667 29.4052 7.95333 29.2686 8.13C29.1352 8.30667 28.9686 8.46167 28.7686 8.595C28.5719 8.72833 28.3469 8.83333 28.0936 8.91C28.1802 8.96 28.2602 9.02 28.3336 9.09C28.4069 9.15667 28.4736 9.23667 28.5336 9.33L30.3436 12ZM37.9217 8.385C37.9217 8.915 37.8333 9.40667 37.6567 9.86C37.4833 10.31 37.2367 10.7 36.9167 11.03C36.5967 11.36 36.2117 11.6183 35.7617 11.805C35.3117 11.9883 34.8117 12.08 34.2617 12.08C33.715 12.08 33.2167 11.9883 32.7667 11.805C32.3167 11.6183 31.93 11.36 31.6067 11.03C31.2867 10.7 31.0383 10.31 30.8617 9.86C30.685 9.40667 30.5967 8.915 30.5967 8.385C30.5967 7.855 30.685 7.365 30.8617 6.915C31.0383 6.46167 31.2867 6.07 31.6067 5.74C31.93 5.41 32.3167 5.15333 32.7667 4.97C33.2167 4.78333 33.715 4.69 34.2617 4.69C34.6283 4.69 34.9733 4.73333 35.2967 4.82C35.62 4.90333 35.9167 5.02333 36.1867 5.18C36.4567 5.33333 36.6983 5.52167 36.9117 5.745C37.1283 5.965 37.3117 6.21167 37.4617 6.485C37.6117 6.75833 37.725 7.055 37.8017 7.375C37.8817 7.695 37.9217 8.03167 37.9217 8.385ZM36.5467 8.385C36.5467 7.98833 36.4933 7.63333 36.3867 7.32C36.28 7.00333 36.1283 6.735 35.9317 6.515C35.735 6.295 35.495 6.12667 35.2117 6.01C34.9317 5.89333 34.615 5.835 34.2617 5.835C33.9083 5.835 33.59 5.89333 33.3067 6.01C33.0267 6.12667 32.7867 6.295 32.5867 6.515C32.39 6.735 32.2383 7.00333 32.1317 7.32C32.025 7.63333 31.9717 7.98833 31.9717 8.385C31.9717 8.78167 32.025 9.13833 32.1317 9.455C32.2383 9.76833 32.39 10.035 32.5867 10.255C32.7867 10.4717 33.0267 10.6383 33.3067 10.755C33.59 10.8717 33.9083 10.93 34.2617 10.93C34.615 10.93 34.9317 10.8717 35.2117 10.755C35.495 10.6383 35.735 10.4717 35.9317 10.255C36.1283 10.035 36.28 9.76833 36.3867 9.455C36.4933 9.13833 36.5467 8.78167 36.5467 8.385Z" fill="url(#paint0_linear)"/>
<rect x="0.5" y="0.5" width="55" height="16" rx="4.5" stroke="url(#paint1_linear)"/>
<defs>
<linearGradient id="paint0_linear" x1="0.182892" y1="8.5" x2="49.7188" y2="8.5" gradientUnits="userSpaceOnUse">
<stop stop-color="#FF1100"/>
<stop offset="1" stop-color="#EFFF00"/>
</linearGradient>
<linearGradient id="paint1_linear" x1="28" y1="0" x2="28" y2="17" gradientUnits="userSpaceOnUse">
<stop stop-color="#FF1000"/>
<stop offset="1" stop-color="#FFD037"/>
</linearGradient>
</defs>
</svg>
