<svg width="95" height="60" viewBox="0 0 95 60" fill="none" xmlns="http://www.w3.org/2000/svg">
<path d="M54.625 11H41.625C40.419 11 38.625 11.799 38.625 14V28C38.625 30.201 40.419 31 41.625 31H56.625V29H41.637C41.175 28.988 40.625 28.806 40.625 28C40.625 27.899 40.634 27.809 40.649 27.727C40.761 27.151 41.233 27.01 41.637 27H56.625V13C56.625 12.4696 56.4143 11.9609 56.0392 11.5858C55.6641 11.2107 55.1554 11 54.625 11ZM54.625 20L52.625 19L50.625 20V13H54.625V20Z" fill="#3F3F46"/>
<path d="M29.8016 42.686C30.0976 42.686 30.3556 42.65 30.5756 42.578C30.7956 42.502 30.9776 42.396 31.1216 42.26C31.2696 42.12 31.3796 41.952 31.4516 41.756C31.5236 41.556 31.5596 41.334 31.5596 41.09C31.5596 40.858 31.5236 40.648 31.4516 40.46C31.3796 40.272 31.2716 40.112 31.1276 39.98C30.9836 39.848 30.8016 39.748 30.5816 39.68C30.3616 39.608 30.1016 39.572 29.8016 39.572H28.5956V42.686H29.8016ZM29.8016 38.324C30.3816 38.324 30.8836 38.392 31.3076 38.528C31.7316 38.664 32.0816 38.854 32.3576 39.098C32.6336 39.342 32.8376 39.634 32.9696 39.974C33.1056 40.314 33.1736 40.686 33.1736 41.09C33.1736 41.51 33.1036 41.896 32.9636 42.248C32.8236 42.596 32.6136 42.896 32.3336 43.148C32.0536 43.4 31.7016 43.596 31.2776 43.736C30.8576 43.876 30.3656 43.946 29.8016 43.946H28.5956V47H26.9816V38.324H29.8016ZM39.7693 40.844L36.4153 48.692C36.3713 48.796 36.3133 48.874 36.2413 48.926C36.1733 48.982 36.0673 49.01 35.9233 49.01H34.8193L35.9713 46.538L33.4813 40.844H34.7833C34.8993 40.844 34.9893 40.872 35.0533 40.928C35.1213 40.984 35.1713 41.048 35.2033 41.12L36.5113 44.312C36.5553 44.42 36.5913 44.528 36.6193 44.636C36.6513 44.744 36.6813 44.854 36.7093 44.966C36.7453 44.854 36.7813 44.744 36.8173 44.636C36.8533 44.524 36.8933 44.414 36.9373 44.306L38.1733 41.12C38.2053 41.04 38.2573 40.974 38.3293 40.922C38.4053 40.87 38.4893 40.844 38.5813 40.844H39.7693ZM41.9034 41.912C42.0954 41.544 42.3234 41.256 42.5874 41.048C42.8514 40.836 43.1634 40.73 43.5234 40.73C43.8074 40.73 44.0354 40.792 44.2074 40.916L44.1114 42.026C44.0914 42.098 44.0614 42.15 44.0214 42.182C43.9854 42.21 43.9354 42.224 43.8714 42.224C43.8114 42.224 43.7214 42.214 43.6014 42.194C43.4854 42.174 43.3714 42.164 43.2594 42.164C43.0954 42.164 42.9494 42.188 42.8214 42.236C42.6934 42.284 42.5774 42.354 42.4734 42.446C42.3734 42.534 42.2834 42.642 42.2034 42.77C42.1274 42.898 42.0554 43.044 41.9874 43.208V47H40.5054V40.844H41.3754C41.5274 40.844 41.6334 40.872 41.6934 40.928C41.7534 40.98 41.7934 41.076 41.8134 41.216L41.9034 41.912ZM46.518 40.844V47H45.03V40.844H46.518ZM46.722 39.05C46.722 39.178 46.696 39.298 46.644 39.41C46.592 39.522 46.522 39.62 46.434 39.704C46.35 39.788 46.25 39.856 46.134 39.908C46.018 39.956 45.894 39.98 45.762 39.98C45.634 39.98 45.512 39.956 45.396 39.908C45.284 39.856 45.186 39.788 45.102 39.704C45.018 39.62 44.95 39.522 44.898 39.41C44.85 39.298 44.826 39.178 44.826 39.05C44.826 38.918 44.85 38.794 44.898 38.678C44.95 38.562 45.018 38.462 45.102 38.378C45.186 38.294 45.284 38.228 45.396 38.18C45.512 38.128 45.634 38.102 45.762 38.102C45.894 38.102 46.018 38.128 46.134 38.18C46.25 38.228 46.35 38.294 46.434 38.378C46.522 38.462 46.592 38.562 46.644 38.678C46.696 38.794 46.722 38.918 46.722 39.05ZM56.2628 45.668V47H51.1808V38.324H52.7948V45.668H56.2628ZM58.7172 40.844V47H57.2292V40.844H58.7172ZM58.9212 39.05C58.9212 39.178 58.8952 39.298 58.8432 39.41C58.7912 39.522 58.7212 39.62 58.6332 39.704C58.5492 39.788 58.4492 39.856 58.3332 39.908C58.2172 39.956 58.0932 39.98 57.9612 39.98C57.8332 39.98 57.7112 39.956 57.5952 39.908C57.4832 39.856 57.3852 39.788 57.3012 39.704C57.2172 39.62 57.1492 39.522 57.0972 39.41C57.0492 39.298 57.0252 39.178 57.0252 39.05C57.0252 38.918 57.0492 38.794 57.0972 38.678C57.1492 38.562 57.2172 38.462 57.3012 38.378C57.3852 38.294 57.4832 38.228 57.5952 38.18C57.7112 38.128 57.8332 38.102 57.9612 38.102C58.0932 38.102 58.2172 38.128 58.3332 38.18C58.4492 38.228 58.5492 38.294 58.6332 38.378C58.7212 38.462 58.7912 38.562 58.8432 38.678C58.8952 38.794 58.9212 38.918 58.9212 39.05ZM63.9841 42.044C63.9441 42.108 63.9021 42.154 63.8581 42.182C63.8141 42.206 63.7581 42.218 63.6901 42.218C63.6181 42.218 63.5401 42.198 63.4561 42.158C63.3761 42.118 63.2821 42.074 63.1741 42.026C63.0661 41.974 62.9421 41.928 62.8021 41.888C62.6661 41.848 62.5041 41.828 62.3161 41.828C62.0241 41.828 61.7941 41.89 61.6261 42.014C61.4621 42.138 61.3801 42.3 61.3801 42.5C61.3801 42.632 61.4221 42.744 61.5061 42.836C61.5941 42.924 61.7081 43.002 61.8481 43.07C61.9921 43.138 62.1541 43.2 62.3341 43.256C62.5141 43.308 62.6961 43.366 62.8801 43.43C63.0681 43.494 63.2521 43.568 63.4321 43.652C63.6121 43.732 63.7721 43.836 63.9121 43.964C64.0561 44.088 64.1701 44.238 64.2541 44.414C64.3421 44.59 64.3861 44.802 64.3861 45.05C64.3861 45.346 64.3321 45.62 64.2241 45.872C64.1201 46.12 63.9641 46.336 63.7561 46.52C63.5481 46.7 63.2901 46.842 62.9821 46.946C62.6781 47.046 62.3261 47.096 61.9261 47.096C61.7141 47.096 61.5061 47.076 61.3021 47.036C61.1021 47 60.9081 46.948 60.7201 46.88C60.5361 46.812 60.3641 46.732 60.2041 46.64C60.0481 46.548 59.9101 46.448 59.7901 46.34L60.1321 45.776C60.1761 45.708 60.2281 45.656 60.2881 45.62C60.3481 45.584 60.4241 45.566 60.5161 45.566C60.6081 45.566 60.6941 45.592 60.7741 45.644C60.8581 45.696 60.9541 45.752 61.0621 45.812C61.1701 45.872 61.2961 45.928 61.4401 45.98C61.5881 46.032 61.7741 46.058 61.9981 46.058C62.1741 46.058 62.3241 46.038 62.4481 45.998C62.5761 45.954 62.6801 45.898 62.7601 45.83C62.8441 45.762 62.9041 45.684 62.9401 45.596C62.9801 45.504 63.0001 45.41 63.0001 45.314C63.0001 45.17 62.9561 45.052 62.8681 44.96C62.7841 44.868 62.6701 44.788 62.5261 44.72C62.3861 44.652 62.2241 44.592 62.0401 44.54C61.8601 44.484 61.6741 44.424 61.4821 44.36C61.2941 44.296 61.1081 44.222 60.9241 44.138C60.7441 44.05 60.5821 43.94 60.4381 43.808C60.2981 43.676 60.1841 43.514 60.0961 43.322C60.0121 43.13 59.9701 42.898 59.9701 42.626C59.9701 42.374 60.0201 42.134 60.1201 41.906C60.2201 41.678 60.3661 41.48 60.5581 41.312C60.7541 41.14 60.9961 41.004 61.2841 40.904C61.5761 40.8 61.9121 40.748 62.2921 40.748C62.7161 40.748 63.1021 40.818 63.4501 40.958C63.7981 41.098 64.0881 41.282 64.3201 41.51L63.9841 42.044ZM67.5535 47.096C67.0175 47.096 66.6055 46.946 66.3175 46.646C66.0335 46.342 65.8915 45.924 65.8915 45.392V41.954H65.2615C65.1815 41.954 65.1135 41.928 65.0575 41.876C65.0015 41.824 64.9735 41.746 64.9735 41.642V41.054L65.9635 40.892L66.2755 39.212C66.2955 39.132 66.3335 39.07 66.3895 39.026C66.4455 38.982 66.5175 38.96 66.6055 38.96H67.3735V40.898H69.0175V41.954H67.3735V45.29C67.3735 45.482 67.4195 45.632 67.5115 45.74C67.6075 45.848 67.7375 45.902 67.9015 45.902C67.9935 45.902 68.0695 45.892 68.1295 45.872C68.1935 45.848 68.2475 45.824 68.2915 45.8C68.3395 45.776 68.3815 45.754 68.4175 45.734C68.4535 45.71 68.4895 45.698 68.5255 45.698C68.5695 45.698 68.6055 45.71 68.6335 45.734C68.6615 45.754 68.6915 45.786 68.7235 45.83L69.1675 46.55C68.9515 46.73 68.7035 46.866 68.4235 46.958C68.1435 47.05 67.8535 47.096 67.5535 47.096Z" fill="#3F3F46"/>
</svg>
