<svg width="96" height="42" viewBox="0 0 96 42" fill="none" xmlns="http://www.w3.org/2000/svg">
<path d="M48.489 2.20996C48.3135 2.07341 48.0974 1.99927 47.875 1.99927C47.6526 1.99927 47.4365 2.07341 47.261 2.20996L39.033 8.60996C38.6722 8.89066 38.3802 9.25011 38.1795 9.66086C37.9789 10.0716 37.8747 10.5228 37.875 10.98V20C37.875 20.5304 38.0857 21.0391 38.4608 21.4142C38.8359 21.7892 39.3446 22 39.875 22H43.875C44.4054 22 44.9141 21.7892 45.2892 21.4142C45.6643 21.0391 45.875 20.5304 45.875 20V14H49.875V20C49.875 20.5304 50.0857 21.0391 50.4608 21.4142C50.8359 21.7892 51.3446 22 51.875 22H55.875C56.4054 22 56.9141 21.7892 57.2892 21.4142C57.6643 21.0391 57.875 20.5304 57.875 20V10.98C57.8751 10.5226 57.7706 10.0713 57.5696 9.66058C57.3685 9.24982 57.0762 8.89045 56.715 8.60996L48.489 2.20996Z" fill="#FF8F00"/>
<path d="M39.948 29.324V38H38.328V34.208H34.254V38H32.634V29.324H34.254V33.056H38.328V29.324H39.948ZM44.1826 31.748C44.6386 31.748 45.0526 31.822 45.4246 31.97C45.8006 32.118 46.1206 32.328 46.3846 32.6C46.6526 32.872 46.8586 33.204 47.0026 33.596C47.1466 33.988 47.2186 34.426 47.2186 34.91C47.2186 35.398 47.1466 35.838 47.0026 36.23C46.8586 36.622 46.6526 36.956 46.3846 37.232C46.1206 37.508 45.8006 37.72 45.4246 37.868C45.0526 38.016 44.6386 38.09 44.1826 38.09C43.7226 38.09 43.3046 38.016 42.9286 37.868C42.5526 37.72 42.2306 37.508 41.9626 37.232C41.6986 36.956 41.4926 36.622 41.3446 36.23C41.2006 35.838 41.1286 35.398 41.1286 34.91C41.1286 34.426 41.2006 33.988 41.3446 33.596C41.4926 33.204 41.6986 32.872 41.9626 32.6C42.2306 32.328 42.5526 32.118 42.9286 31.97C43.3046 31.822 43.7226 31.748 44.1826 31.748ZM44.1826 36.95C44.6946 36.95 45.0726 36.778 45.3166 36.434C45.5646 36.09 45.6886 35.586 45.6886 34.922C45.6886 34.258 45.5646 33.752 45.3166 33.404C45.0726 33.056 44.6946 32.882 44.1826 32.882C43.6626 32.882 43.2766 33.058 43.0246 33.41C42.7766 33.758 42.6526 34.262 42.6526 34.922C42.6526 35.582 42.7766 36.086 43.0246 36.434C43.2766 36.778 43.6626 36.95 44.1826 36.95ZM48.3492 38V31.844H49.2552C49.4472 31.844 49.5732 31.934 49.6332 32.114L49.7292 32.57C49.8372 32.45 49.9492 32.34 50.0652 32.24C50.1852 32.14 50.3112 32.054 50.4432 31.982C50.5792 31.91 50.7232 31.854 50.8752 31.814C51.0312 31.77 51.2012 31.748 51.3852 31.748C51.7732 31.748 52.0912 31.854 52.3392 32.066C52.5912 32.274 52.7792 32.552 52.9032 32.9C52.9992 32.696 53.1192 32.522 53.2632 32.378C53.4072 32.23 53.5652 32.11 53.7372 32.018C53.9092 31.926 54.0912 31.858 54.2832 31.814C54.4792 31.77 54.6752 31.748 54.8712 31.748C55.2112 31.748 55.5132 31.8 55.7772 31.904C56.0412 32.008 56.2632 32.16 56.4432 32.36C56.6232 32.56 56.7592 32.804 56.8512 33.092C56.9472 33.38 56.9952 33.71 56.9952 34.082V38H55.5132V34.082C55.5132 33.69 55.4272 33.396 55.2552 33.2C55.0832 33 54.8312 32.9 54.4992 32.9C54.3472 32.9 54.2052 32.926 54.0732 32.978C53.9452 33.03 53.8312 33.106 53.7312 33.206C53.6352 33.302 53.5592 33.424 53.5032 33.572C53.4472 33.72 53.4192 33.89 53.4192 34.082V38H51.9312V34.082C51.9312 33.67 51.8472 33.37 51.6792 33.182C51.5152 32.994 51.2732 32.9 50.9532 32.9C50.7372 32.9 50.5352 32.954 50.3472 33.062C50.1632 33.166 49.9912 33.31 49.8312 33.494V38H48.3492ZM62.3699 34.214C62.3699 34.022 62.3419 33.842 62.2859 33.674C62.2339 33.502 62.1539 33.352 62.0459 33.224C61.9379 33.096 61.7999 32.996 61.6319 32.924C61.4679 32.848 61.2759 32.81 61.0559 32.81C60.6279 32.81 60.2899 32.932 60.0419 33.176C59.7979 33.42 59.6419 33.766 59.5739 34.214H62.3699ZM59.5439 35.108C59.5679 35.424 59.6239 35.698 59.7119 35.93C59.7999 36.158 59.9159 36.348 60.0599 36.5C60.2039 36.648 60.3739 36.76 60.5699 36.836C60.7699 36.908 60.9899 36.944 61.2299 36.944C61.4699 36.944 61.6759 36.916 61.8479 36.86C62.0239 36.804 62.1759 36.742 62.3039 36.674C62.4359 36.606 62.5499 36.544 62.6459 36.488C62.7459 36.432 62.8419 36.404 62.9339 36.404C63.0579 36.404 63.1499 36.45 63.2099 36.542L63.6359 37.082C63.4719 37.274 63.2879 37.436 63.0839 37.568C62.8799 37.696 62.6659 37.8 62.4419 37.88C62.2219 37.956 61.9959 38.01 61.7639 38.042C61.5359 38.074 61.3139 38.09 61.0979 38.09C60.6699 38.09 60.2719 38.02 59.9039 37.88C59.5359 37.736 59.2159 37.526 58.9439 37.25C58.6719 36.97 58.4579 36.626 58.3019 36.218C58.1459 35.806 58.0679 35.33 58.0679 34.79C58.0679 34.37 58.1359 33.976 58.2719 33.608C58.4079 33.236 58.6019 32.914 58.8539 32.642C59.1099 32.366 59.4199 32.148 59.7839 31.988C60.1519 31.828 60.5659 31.748 61.0259 31.748C61.4139 31.748 61.7719 31.81 62.0999 31.934C62.4279 32.058 62.7099 32.24 62.9459 32.48C63.1819 32.716 63.3659 33.008 63.4979 33.356C63.6339 33.7 63.7019 34.094 63.7019 34.538C63.7019 34.762 63.6779 34.914 63.6299 34.994C63.5819 35.07 63.4899 35.108 63.3539 35.108H59.5439Z" fill="#FF8F00"/>
</svg>
