<svg width="95" height="42" viewBox="0 0 95 42" fill="none" xmlns="http://www.w3.org/2000/svg">
<path d="M54.625 2H41.625C40.419 2 38.625 2.799 38.625 5V19C38.625 21.201 40.419 22 41.625 22H56.625V20H41.637C41.175 19.988 40.625 19.806 40.625 19C40.625 18.899 40.634 18.809 40.649 18.727C40.761 18.151 41.233 18.01 41.637 18H56.625V4C56.625 3.46957 56.4143 2.96086 56.0392 2.58579C55.6641 2.21071 55.1554 2 54.625 2ZM54.625 11L52.625 10L50.625 11V4H54.625V11Z" fill="#FF8F00"/>
<path d="M28.3135 34.946V38H26.6995V29.324H29.5255C30.1055 29.324 30.6075 29.392 31.0315 29.528C31.4555 29.664 31.8055 29.854 32.0815 30.098C32.3575 30.342 32.5615 30.634 32.6935 30.974C32.8255 31.314 32.8915 31.686 32.8915 32.09C32.8915 32.51 32.8215 32.896 32.6815 33.248C32.5415 33.596 32.3315 33.896 32.0515 34.148C31.7715 34.4 31.4215 34.596 31.0015 34.736C30.5815 34.876 30.0895 34.946 29.5255 34.946H28.3135ZM28.3135 33.686H29.5255C29.8215 33.686 30.0795 33.65 30.2995 33.578C30.5195 33.502 30.7015 33.396 30.8455 33.26C30.9895 33.12 31.0975 32.952 31.1695 32.756C31.2415 32.556 31.2775 32.334 31.2775 32.09C31.2775 31.858 31.2415 31.648 31.1695 31.46C31.0975 31.272 30.9895 31.112 30.8455 30.98C30.7015 30.848 30.5195 30.748 30.2995 30.68C30.0795 30.608 29.8215 30.572 29.5255 30.572H28.3135V33.686ZM36.2455 39.692C36.2015 39.796 36.1435 39.874 36.0715 39.926C36.0035 39.982 35.8975 40.01 35.7535 40.01H34.6495L35.8015 37.544L33.3115 31.844H34.6075C34.7275 31.844 34.8195 31.872 34.8835 31.928C34.9475 31.984 34.9955 32.048 35.0275 32.12L36.3415 35.312C36.3855 35.416 36.4235 35.524 36.4555 35.636C36.4875 35.748 36.5155 35.86 36.5395 35.972C36.5715 35.856 36.6055 35.744 36.6415 35.636C36.6815 35.528 36.7235 35.418 36.7675 35.306L38.0035 32.12C38.0355 32.04 38.0875 31.974 38.1595 31.922C38.2355 31.87 38.3195 31.844 38.4115 31.844H39.5995L36.2455 39.692ZM40.46 38V31.844H41.33C41.482 31.844 41.588 31.872 41.648 31.928C41.708 31.984 41.748 32.08 41.768 32.216L41.858 32.96C42.078 32.58 42.336 32.28 42.632 32.06C42.928 31.84 43.26 31.73 43.628 31.73C43.932 31.73 44.184 31.8 44.384 31.94L44.192 33.05C44.18 33.122 44.154 33.174 44.114 33.206C44.074 33.234 44.02 33.248 43.952 33.248C43.892 33.248 43.81 33.234 43.706 33.206C43.602 33.178 43.464 33.164 43.292 33.164C42.984 33.164 42.72 33.25 42.5 33.422C42.28 33.59 42.094 33.838 41.942 34.166V38H40.46ZM46.9364 31.844V38H45.4544V31.844H46.9364ZM47.1584 30.05C47.1584 30.178 47.1324 30.298 47.0804 30.41C47.0284 30.522 46.9584 30.62 46.8704 30.704C46.7864 30.788 46.6864 30.856 46.5704 30.908C46.4544 30.956 46.3304 30.98 46.1984 30.98C46.0704 30.98 45.9484 30.956 45.8324 30.908C45.7204 30.856 45.6224 30.788 45.5384 30.704C45.4544 30.62 45.3864 30.522 45.3344 30.41C45.2864 30.298 45.2624 30.178 45.2624 30.05C45.2624 29.918 45.2864 29.794 45.3344 29.678C45.3864 29.562 45.4544 29.462 45.5384 29.378C45.6224 29.294 45.7204 29.228 45.8324 29.18C45.9484 29.128 46.0704 29.102 46.1984 29.102C46.3304 29.102 46.4544 29.128 46.5704 29.18C46.6864 29.228 46.7864 29.294 46.8704 29.378C46.9584 29.462 47.0284 29.562 47.0804 29.678C47.1324 29.794 47.1584 29.918 47.1584 30.05ZM52.6345 36.668H56.1085V38H51.0205V29.324H52.6345V36.668ZM58.7138 31.844V38H57.2318V31.844H58.7138ZM58.9358 30.05C58.9358 30.178 58.9098 30.298 58.8578 30.41C58.8058 30.522 58.7358 30.62 58.6478 30.704C58.5638 30.788 58.4638 30.856 58.3478 30.908C58.2318 30.956 58.1078 30.98 57.9758 30.98C57.8478 30.98 57.7258 30.956 57.6098 30.908C57.4978 30.856 57.3998 30.788 57.3158 30.704C57.2318 30.62 57.1638 30.522 57.1118 30.41C57.0638 30.298 57.0398 30.178 57.0398 30.05C57.0398 29.918 57.0638 29.794 57.1118 29.678C57.1638 29.562 57.2318 29.462 57.3158 29.378C57.3998 29.294 57.4978 29.228 57.6098 29.18C57.7258 29.128 57.8478 29.102 57.9758 29.102C58.1078 29.102 58.2318 29.128 58.3478 29.18C58.4638 29.228 58.5638 29.294 58.6478 29.378C58.7358 29.462 58.8058 29.562 58.8578 29.678C58.9098 29.794 58.9358 29.918 58.9358 30.05ZM64.0476 33.044C64.0076 33.108 63.9656 33.154 63.9216 33.182C63.8776 33.206 63.8216 33.218 63.7536 33.218C63.6816 33.218 63.6036 33.198 63.5196 33.158C63.4396 33.118 63.3456 33.074 63.2376 33.026C63.1296 32.974 63.0056 32.928 62.8656 32.888C62.7296 32.848 62.5676 32.828 62.3796 32.828C62.0876 32.828 61.8576 32.89 61.6896 33.014C61.5216 33.138 61.4376 33.3 61.4376 33.5C61.4376 33.632 61.4796 33.744 61.5636 33.836C61.6516 33.924 61.7656 34.002 61.9056 34.07C62.0496 34.138 62.2116 34.2 62.3916 34.256C62.5716 34.308 62.7556 34.366 62.9436 34.43C63.1316 34.494 63.3156 34.568 63.4956 34.652C63.6756 34.732 63.8356 34.836 63.9756 34.964C64.1196 35.088 64.2336 35.238 64.3176 35.414C64.4056 35.59 64.4496 35.802 64.4496 36.05C64.4496 36.346 64.3956 36.62 64.2876 36.872C64.1796 37.12 64.0216 37.336 63.8136 37.52C63.6056 37.7 63.3476 37.842 63.0396 37.946C62.7356 38.046 62.3856 38.096 61.9896 38.096C61.7776 38.096 61.5696 38.076 61.3656 38.036C61.1656 38 60.9716 37.948 60.7836 37.88C60.5996 37.812 60.4276 37.732 60.2676 37.64C60.1116 37.548 59.9736 37.448 59.8536 37.34L60.1956 36.776C60.2396 36.708 60.2916 36.656 60.3516 36.62C60.4116 36.584 60.4876 36.566 60.5796 36.566C60.6716 36.566 60.7576 36.592 60.8376 36.644C60.9216 36.696 61.0176 36.752 61.1256 36.812C61.2336 36.872 61.3596 36.928 61.5036 36.98C61.6516 37.032 61.8376 37.058 62.0616 37.058C62.2376 37.058 62.3876 37.038 62.5116 36.998C62.6396 36.954 62.7436 36.898 62.8236 36.83C62.9076 36.762 62.9676 36.684 63.0036 36.596C63.0436 36.504 63.0636 36.41 63.0636 36.314C63.0636 36.17 63.0196 36.052 62.9316 35.96C62.8476 35.868 62.7336 35.788 62.5896 35.72C62.4496 35.652 62.2876 35.592 62.1036 35.54C61.9236 35.484 61.7376 35.424 61.5456 35.36C61.3576 35.296 61.1716 35.222 60.9876 35.138C60.8076 35.05 60.6456 34.94 60.5016 34.808C60.3616 34.676 60.2476 34.514 60.1596 34.322C60.0756 34.13 60.0336 33.898 60.0336 33.626C60.0336 33.374 60.0836 33.134 60.1836 32.906C60.2836 32.678 60.4296 32.48 60.6216 32.312C60.8176 32.14 61.0596 32.004 61.3476 31.904C61.6396 31.8 61.9756 31.748 62.3556 31.748C62.7796 31.748 63.1656 31.818 63.5136 31.958C63.8616 32.098 64.1516 32.282 64.3836 32.51L64.0476 33.044ZM67.6538 38.096C67.1218 38.096 66.7118 37.946 66.4238 37.646C66.1358 37.342 65.9918 36.924 65.9918 36.392V32.954H65.3678C65.2878 32.954 65.2178 32.928 65.1578 32.876C65.1018 32.824 65.0738 32.746 65.0738 32.642V32.054L66.0638 31.892L66.3758 30.212C66.3918 30.132 66.4278 30.07 66.4838 30.026C66.5438 29.982 66.6178 29.96 66.7058 29.96H67.4738V31.898H69.0938V32.954H67.4738V36.29C67.4738 36.482 67.5218 36.632 67.6178 36.74C67.7138 36.848 67.8418 36.902 68.0018 36.902C68.0938 36.902 68.1698 36.892 68.2298 36.872C68.2938 36.848 68.3478 36.824 68.3918 36.8C68.4398 36.776 68.4818 36.754 68.5178 36.734C68.5538 36.71 68.5898 36.698 68.6258 36.698C68.6698 36.698 68.7058 36.71 68.7338 36.734C68.7618 36.754 68.7918 36.786 68.8238 36.83L69.2678 37.55C69.0518 37.73 68.8038 37.866 68.5238 37.958C68.2438 38.05 67.9538 38.096 67.6538 38.096Z" fill="#FF8F00"/>
</svg>
