<svg width="96" height="42" viewBox="0 0 96 42" fill="none" xmlns="http://www.w3.org/2000/svg">
<path d="M43.625 6.5C43.625 8.981 45.644 11 48.125 11C50.606 11 52.625 8.981 52.625 6.5C52.625 4.019 50.606 2 48.125 2C45.644 2 43.625 4.019 43.625 6.5ZM56.125 21H57.125V20C57.125 16.141 53.984 13 50.125 13H46.125C42.265 13 39.125 16.141 39.125 20V21H56.125Z" fill="#FF8F00"/>
<path d="M32.6221 34.946V38H31.0081V29.324H33.8341C34.4141 29.324 34.9161 29.392 35.3401 29.528C35.7641 29.664 36.1141 29.854 36.3901 30.098C36.6661 30.342 36.8701 30.634 37.0021 30.974C37.1341 31.314 37.2001 31.686 37.2001 32.09C37.2001 32.51 37.1301 32.896 36.9901 33.248C36.8501 33.596 36.6401 33.896 36.3601 34.148C36.0801 34.4 35.7301 34.596 35.3101 34.736C34.8901 34.876 34.3981 34.946 33.8341 34.946H32.6221ZM32.6221 33.686H33.8341C34.1301 33.686 34.3881 33.65 34.6081 33.578C34.8281 33.502 35.0101 33.396 35.1541 33.26C35.2981 33.12 35.4061 32.952 35.4781 32.756C35.5501 32.556 35.5861 32.334 35.5861 32.09C35.5861 31.858 35.5501 31.648 35.4781 31.46C35.4061 31.272 35.2981 31.112 35.1541 30.98C35.0101 30.848 34.8281 30.748 34.6081 30.68C34.3881 30.608 34.1301 30.572 33.8341 30.572H32.6221V33.686ZM38.3701 38V31.844H39.2401C39.3921 31.844 39.4981 31.872 39.5581 31.928C39.6181 31.984 39.6581 32.08 39.6781 32.216L39.7681 32.96C39.9881 32.58 40.2461 32.28 40.5421 32.06C40.8381 31.84 41.1701 31.73 41.5381 31.73C41.8421 31.73 42.0941 31.8 42.2941 31.94L42.1021 33.05C42.0901 33.122 42.0641 33.174 42.0241 33.206C41.9841 33.234 41.9301 33.248 41.8621 33.248C41.8021 33.248 41.7201 33.234 41.6161 33.206C41.5121 33.178 41.3741 33.164 41.2021 33.164C40.8941 33.164 40.6301 33.25 40.4101 33.422C40.1901 33.59 40.0041 33.838 39.8521 34.166V38H38.3701ZM45.8966 31.748C46.3566 31.748 46.7726 31.822 47.1446 31.97C47.5206 32.118 47.8406 32.328 48.1046 32.6C48.3686 32.872 48.5726 33.204 48.7166 33.596C48.8606 33.988 48.9326 34.426 48.9326 34.91C48.9326 35.398 48.8606 35.838 48.7166 36.23C48.5726 36.622 48.3686 36.956 48.1046 37.232C47.8406 37.508 47.5206 37.72 47.1446 37.868C46.7726 38.016 46.3566 38.09 45.8966 38.09C45.4366 38.09 45.0186 38.016 44.6426 37.868C44.2666 37.72 43.9446 37.508 43.6766 37.232C43.4126 36.956 43.2066 36.622 43.0586 36.23C42.9146 35.838 42.8426 35.398 42.8426 34.91C42.8426 34.426 42.9146 33.988 43.0586 33.596C43.2066 33.204 43.4126 32.872 43.6766 32.6C43.9446 32.328 44.2666 32.118 44.6426 31.97C45.0186 31.822 45.4366 31.748 45.8966 31.748ZM45.8966 36.95C46.4086 36.95 46.7866 36.778 47.0306 36.434C47.2786 36.09 47.4026 35.586 47.4026 34.922C47.4026 34.258 47.2786 33.752 47.0306 33.404C46.7866 33.056 46.4086 32.882 45.8966 32.882C45.3766 32.882 44.9926 33.058 44.7446 33.41C44.4966 33.758 44.3726 34.262 44.3726 34.922C44.3726 35.582 44.4966 36.086 44.7446 36.434C44.9926 36.778 45.3766 36.95 45.8966 36.95ZM50.3529 38V32.96L49.8189 32.876C49.7029 32.856 49.6089 32.816 49.5369 32.756C49.4689 32.696 49.4349 32.612 49.4349 32.504V31.898H50.3529V31.7C50.3529 31.324 50.4149 30.976 50.5389 30.656C50.6629 30.332 50.8509 30.052 51.1029 29.816C51.3549 29.58 51.6729 29.396 52.0569 29.264C52.4409 29.128 52.8949 29.06 53.4189 29.06C53.5869 29.06 53.7589 29.07 53.9349 29.09C54.1109 29.106 54.2629 29.134 54.3909 29.174L54.3429 29.942C54.3349 30.034 54.2849 30.09 54.1929 30.11C54.1009 30.126 53.9869 30.134 53.8509 30.134C53.4629 30.134 53.1369 30.168 52.8729 30.236C52.6129 30.304 52.4009 30.406 52.2369 30.542C52.0769 30.674 51.9609 30.842 51.8889 31.046C51.8209 31.246 51.7869 31.48 51.7869 31.748V31.898H55.6029V38H54.1209V32.954H51.8349V38H50.3529ZM58.8739 29.084V38H57.3919V29.084H58.8739ZM63.0977 31.748C63.4857 31.748 63.8417 31.81 64.1657 31.934C64.4937 32.058 64.7757 32.24 65.0117 32.48C65.2477 32.716 65.4317 33.008 65.5637 33.356C65.6957 33.7 65.7617 34.094 65.7617 34.538C65.7617 34.65 65.7557 34.744 65.7437 34.82C65.7357 34.892 65.7177 34.95 65.6897 34.994C65.6657 35.034 65.6317 35.064 65.5877 35.084C65.5437 35.1 65.4877 35.108 65.4197 35.108H61.6157C61.6597 35.74 61.8297 36.204 62.1257 36.5C62.4217 36.796 62.8137 36.944 63.3017 36.944C63.5417 36.944 63.7477 36.916 63.9197 36.86C64.0957 36.804 64.2477 36.742 64.3757 36.674C64.5077 36.606 64.6217 36.544 64.7177 36.488C64.8177 36.432 64.9137 36.404 65.0057 36.404C65.0657 36.404 65.1177 36.416 65.1617 36.44C65.2057 36.464 65.2437 36.498 65.2757 36.542L65.7077 37.082C65.5437 37.274 65.3597 37.436 65.1557 37.568C64.9517 37.696 64.7377 37.8 64.5137 37.88C64.2937 37.956 64.0677 38.01 63.8357 38.042C63.6077 38.074 63.3857 38.09 63.1697 38.09C62.7417 38.09 62.3437 38.02 61.9757 37.88C61.6077 37.736 61.2877 37.526 61.0157 37.25C60.7437 36.97 60.5297 36.626 60.3737 36.218C60.2177 35.806 60.1397 35.33 60.1397 34.79C60.1397 34.37 60.2077 33.976 60.3437 33.608C60.4797 33.236 60.6737 32.914 60.9257 32.642C61.1817 32.366 61.4917 32.148 61.8557 31.988C62.2237 31.828 62.6377 31.748 63.0977 31.748ZM63.1277 32.81C62.6957 32.81 62.3577 32.932 62.1137 33.176C61.8697 33.42 61.7137 33.766 61.6457 34.214H64.4297C64.4297 34.022 64.4037 33.842 64.3517 33.674C64.2997 33.502 64.2197 33.352 64.1117 33.224C64.0037 33.096 63.8677 32.996 63.7037 32.924C63.5397 32.848 63.3477 32.81 63.1277 32.81Z" fill="#FF8F00"/>
</svg>
