<svg width="96" height="60" viewBox="0 0 96 60" fill="none" xmlns="http://www.w3.org/2000/svg">
<path d="M48.489 11.21C48.3135 11.0734 48.0974 10.9993 47.875 10.9993C47.6526 10.9993 47.4365 11.0734 47.261 11.21L39.033 17.61C38.6722 17.8907 38.3802 18.2501 38.1795 18.6609C37.9789 19.0716 37.8747 19.5228 37.875 19.98V29C37.875 29.5304 38.0857 30.0391 38.4608 30.4142C38.8359 30.7892 39.3446 31 39.875 31H43.875C44.4054 31 44.9141 30.7892 45.2892 30.4142C45.6643 30.0391 45.875 29.5304 45.875 29V23H49.875V29C49.875 29.5304 50.0857 30.0391 50.4608 30.4142C50.8359 30.7892 51.3446 31 51.875 31H55.875C56.4054 31 56.9141 30.7892 57.2892 30.4142C57.6643 30.0391 57.875 29.5304 57.875 29V19.98C57.8751 19.5226 57.7706 19.0713 57.5696 18.6606C57.3685 18.2498 57.0762 17.8905 56.715 17.61L48.489 11.21Z" fill="#FF8F00"/>
<path d="M39.948 38.324V47H38.328V43.208H34.254V47H32.634V38.324H34.254V42.056H38.328V38.324H39.948ZM44.1826 40.748C44.6386 40.748 45.0526 40.822 45.4246 40.97C45.8006 41.118 46.1206 41.328 46.3846 41.6C46.6526 41.872 46.8586 42.204 47.0026 42.596C47.1466 42.988 47.2186 43.426 47.2186 43.91C47.2186 44.398 47.1466 44.838 47.0026 45.23C46.8586 45.622 46.6526 45.956 46.3846 46.232C46.1206 46.508 45.8006 46.72 45.4246 46.868C45.0526 47.016 44.6386 47.09 44.1826 47.09C43.7226 47.09 43.3046 47.016 42.9286 46.868C42.5526 46.72 42.2306 46.508 41.9626 46.232C41.6986 45.956 41.4926 45.622 41.3446 45.23C41.2006 44.838 41.1286 44.398 41.1286 43.91C41.1286 43.426 41.2006 42.988 41.3446 42.596C41.4926 42.204 41.6986 41.872 41.9626 41.6C42.2306 41.328 42.5526 41.118 42.9286 40.97C43.3046 40.822 43.7226 40.748 44.1826 40.748ZM44.1826 45.95C44.6946 45.95 45.0726 45.778 45.3166 45.434C45.5646 45.09 45.6886 44.586 45.6886 43.922C45.6886 43.258 45.5646 42.752 45.3166 42.404C45.0726 42.056 44.6946 41.882 44.1826 41.882C43.6626 41.882 43.2766 42.058 43.0246 42.41C42.7766 42.758 42.6526 43.262 42.6526 43.922C42.6526 44.582 42.7766 45.086 43.0246 45.434C43.2766 45.778 43.6626 45.95 44.1826 45.95ZM48.3492 47V40.844H49.2552C49.4472 40.844 49.5732 40.934 49.6332 41.114L49.7292 41.57C49.8372 41.45 49.9492 41.34 50.0652 41.24C50.1852 41.14 50.3112 41.054 50.4432 40.982C50.5792 40.91 50.7232 40.854 50.8752 40.814C51.0312 40.77 51.2012 40.748 51.3852 40.748C51.7732 40.748 52.0912 40.854 52.3392 41.066C52.5912 41.274 52.7792 41.552 52.9032 41.9C52.9992 41.696 53.1192 41.522 53.2632 41.378C53.4072 41.23 53.5652 41.11 53.7372 41.018C53.9092 40.926 54.0912 40.858 54.2832 40.814C54.4792 40.77 54.6752 40.748 54.8712 40.748C55.2112 40.748 55.5132 40.8 55.7772 40.904C56.0412 41.008 56.2632 41.16 56.4432 41.36C56.6232 41.56 56.7592 41.804 56.8512 42.092C56.9472 42.38 56.9952 42.71 56.9952 43.082V47H55.5132V43.082C55.5132 42.69 55.4272 42.396 55.2552 42.2C55.0832 42 54.8312 41.9 54.4992 41.9C54.3472 41.9 54.2052 41.926 54.0732 41.978C53.9452 42.03 53.8312 42.106 53.7312 42.206C53.6352 42.302 53.5592 42.424 53.5032 42.572C53.4472 42.72 53.4192 42.89 53.4192 43.082V47H51.9312V43.082C51.9312 42.67 51.8472 42.37 51.6792 42.182C51.5152 41.994 51.2732 41.9 50.9532 41.9C50.7372 41.9 50.5352 41.954 50.3472 42.062C50.1632 42.166 49.9912 42.31 49.8312 42.494V47H48.3492ZM62.3699 43.214C62.3699 43.022 62.3419 42.842 62.2859 42.674C62.2339 42.502 62.1539 42.352 62.0459 42.224C61.9379 42.096 61.7999 41.996 61.6319 41.924C61.4679 41.848 61.2759 41.81 61.0559 41.81C60.6279 41.81 60.2899 41.932 60.0419 42.176C59.7979 42.42 59.6419 42.766 59.5739 43.214H62.3699ZM59.5439 44.108C59.5679 44.424 59.6239 44.698 59.7119 44.93C59.7999 45.158 59.9159 45.348 60.0599 45.5C60.2039 45.648 60.3739 45.76 60.5699 45.836C60.7699 45.908 60.9899 45.944 61.2299 45.944C61.4699 45.944 61.6759 45.916 61.8479 45.86C62.0239 45.804 62.1759 45.742 62.3039 45.674C62.4359 45.606 62.5499 45.544 62.6459 45.488C62.7459 45.432 62.8419 45.404 62.9339 45.404C63.0579 45.404 63.1499 45.45 63.2099 45.542L63.6359 46.082C63.4719 46.274 63.2879 46.436 63.0839 46.568C62.8799 46.696 62.6659 46.8 62.4419 46.88C62.2219 46.956 61.9959 47.01 61.7639 47.042C61.5359 47.074 61.3139 47.09 61.0979 47.09C60.6699 47.09 60.2719 47.02 59.9039 46.88C59.5359 46.736 59.2159 46.526 58.9439 46.25C58.6719 45.97 58.4579 45.626 58.3019 45.218C58.1459 44.806 58.0679 44.33 58.0679 43.79C58.0679 43.37 58.1359 42.976 58.2719 42.608C58.4079 42.236 58.6019 41.914 58.8539 41.642C59.1099 41.366 59.4199 41.148 59.7839 40.988C60.1519 40.828 60.5659 40.748 61.0259 40.748C61.4139 40.748 61.7719 40.81 62.0999 40.934C62.4279 41.058 62.7099 41.24 62.9459 41.48C63.1819 41.716 63.3659 42.008 63.4979 42.356C63.6339 42.7 63.7019 43.094 63.7019 43.538C63.7019 43.762 63.6779 43.914 63.6299 43.994C63.5819 44.07 63.4899 44.108 63.3539 44.108H59.5439Z" fill="#FF8F00"/>
</svg>
