<svg width="95" height="60" viewBox="0 0 95 60" fill="none" xmlns="http://www.w3.org/2000/svg">
<path d="M39.375 20H45.375C45.6402 20 45.8946 19.8946 46.0821 19.7071C46.2696 19.5196 46.375 19.2652 46.375 19V13C46.375 12.7348 46.2696 12.4804 46.0821 12.2929C45.8946 12.1054 45.6402 12 45.375 12H39.375C39.1098 12 38.8554 12.1054 38.6679 12.2929C38.4804 12.4804 38.375 12.7348 38.375 13V19C38.375 19.2652 38.4804 19.5196 38.6679 19.7071C38.8554 19.8946 39.1098 20 39.375 20ZM49.375 20H55.375C55.6402 20 55.8946 19.8946 56.0821 19.7071C56.2696 19.5196 56.375 19.2652 56.375 19V13C56.375 12.7348 56.2696 12.4804 56.0821 12.2929C55.8946 12.1054 55.6402 12 55.375 12H49.375C49.1098 12 48.8554 12.1054 48.6679 12.2929C48.4804 12.4804 48.375 12.7348 48.375 13V19C48.375 19.2652 48.4804 19.5196 48.6679 19.7071C48.8554 19.8946 49.1098 20 49.375 20ZM39.375 30H45.375C45.6402 30 45.8946 29.8946 46.0821 29.7071C46.2696 29.5196 46.375 29.2652 46.375 29V23C46.375 22.7348 46.2696 22.4804 46.0821 22.2929C45.8946 22.1054 45.6402 22 45.375 22H39.375C39.1098 22 38.8554 22.1054 38.6679 22.2929C38.4804 22.4804 38.375 22.7348 38.375 23V29C38.375 29.2652 38.4804 29.5196 38.6679 29.7071C38.8554 29.8946 39.1098 30 39.375 30ZM52.375 30C54.581 30 56.375 28.206 56.375 26C56.375 23.794 54.581 22 52.375 22C50.169 22 48.375 23.794 48.375 26C48.375 28.206 50.169 30 52.375 30Z" fill="#3F3F46"/>
<path d="M29.6758 39.608V42.014H32.7118V43.256H29.6758V45.71H33.5278V47H28.0558V38.324H33.5278V39.608H29.6758ZM40.2202 47H38.7922C38.6842 47 38.5962 46.972 38.5282 46.916C38.4642 46.86 38.4102 46.796 38.3662 46.724L37.0642 44.582C37.0442 44.65 37.0202 44.714 36.9922 44.774C36.9682 44.834 36.9402 44.89 36.9082 44.942L35.7562 46.724C35.7122 46.792 35.6582 46.856 35.5942 46.916C35.5302 46.972 35.4502 47 35.3542 47H34.0282L36.1402 43.826L34.1122 40.844H35.5402C35.6482 40.844 35.7282 40.86 35.7802 40.892C35.8322 40.92 35.8782 40.968 35.9182 41.036L37.2082 43.088C37.2522 42.952 37.3142 42.818 37.3942 42.686L38.4322 41.066C38.5202 40.918 38.6342 40.844 38.7742 40.844H40.1362L38.1142 43.76L40.2202 47ZM42.4757 45.404C42.6437 45.608 42.8257 45.752 43.0217 45.836C43.2217 45.92 43.4377 45.962 43.6697 45.962C43.8937 45.962 44.0957 45.92 44.2757 45.836C44.4557 45.752 44.6077 45.624 44.7317 45.452C44.8597 45.28 44.9577 45.064 45.0257 44.804C45.0937 44.54 45.1277 44.23 45.1277 43.874C45.1277 43.514 45.0977 43.21 45.0377 42.962C44.9817 42.71 44.8997 42.506 44.7917 42.35C44.6837 42.194 44.5517 42.08 44.3957 42.008C44.2437 41.936 44.0697 41.9 43.8737 41.9C43.5657 41.9 43.3037 41.966 43.0877 42.098C42.8717 42.226 42.6677 42.408 42.4757 42.644V45.404ZM42.3977 41.684C42.6497 41.4 42.9357 41.17 43.2557 40.994C43.5757 40.818 43.9517 40.73 44.3837 40.73C44.7197 40.73 45.0257 40.8 45.3017 40.94C45.5817 41.08 45.8217 41.284 46.0217 41.552C46.2257 41.816 46.3817 42.144 46.4897 42.536C46.6017 42.924 46.6577 43.37 46.6577 43.874C46.6577 44.334 46.5957 44.76 46.4717 45.152C46.3477 45.544 46.1697 45.884 45.9377 46.172C45.7097 46.46 45.4317 46.686 45.1037 46.85C44.7797 47.01 44.4157 47.09 44.0117 47.09C43.6677 47.09 43.3737 47.038 43.1297 46.934C42.8857 46.826 42.6677 46.678 42.4757 46.49V49.01H40.9937V40.844H41.8997C42.0917 40.844 42.2177 40.934 42.2777 41.114L42.3977 41.684ZM49.314 38.084V47H47.832V38.084H49.314ZM53.5146 40.748C53.9706 40.748 54.3846 40.822 54.7566 40.97C55.1326 41.118 55.4526 41.328 55.7166 41.6C55.9846 41.872 56.1906 42.204 56.3346 42.596C56.4786 42.988 56.5506 43.426 56.5506 43.91C56.5506 44.398 56.4786 44.838 56.3346 45.23C56.1906 45.622 55.9846 45.956 55.7166 46.232C55.4526 46.508 55.1326 46.72 54.7566 46.868C54.3846 47.016 53.9706 47.09 53.5146 47.09C53.0546 47.09 52.6366 47.016 52.2606 46.868C51.8846 46.72 51.5626 46.508 51.2946 46.232C51.0306 45.956 50.8246 45.622 50.6766 45.23C50.5326 44.838 50.4606 44.398 50.4606 43.91C50.4606 43.426 50.5326 42.988 50.6766 42.596C50.8246 42.204 51.0306 41.872 51.2946 41.6C51.5626 41.328 51.8846 41.118 52.2606 40.97C52.6366 40.822 53.0546 40.748 53.5146 40.748ZM53.5146 45.95C54.0266 45.95 54.4046 45.778 54.6486 45.434C54.8966 45.09 55.0206 44.586 55.0206 43.922C55.0206 43.258 54.8966 42.752 54.6486 42.404C54.4046 42.056 54.0266 41.882 53.5146 41.882C52.9946 41.882 52.6086 42.058 52.3566 42.41C52.1086 42.758 51.9846 43.262 51.9846 43.922C51.9846 44.582 52.1086 45.086 52.3566 45.434C52.6086 45.778 52.9946 45.95 53.5146 45.95ZM59.0792 41.912C59.2712 41.544 59.4992 41.256 59.7632 41.048C60.0272 40.836 60.3392 40.73 60.6992 40.73C60.9832 40.73 61.2112 40.792 61.3832 40.916L61.2872 42.026C61.2672 42.098 61.2372 42.15 61.1972 42.182C61.1612 42.21 61.1112 42.224 61.0472 42.224C60.9872 42.224 60.8972 42.214 60.7772 42.194C60.6612 42.174 60.5472 42.164 60.4352 42.164C60.2712 42.164 60.1252 42.188 59.9972 42.236C59.8692 42.284 59.7532 42.354 59.6492 42.446C59.5492 42.534 59.4592 42.642 59.3792 42.77C59.3032 42.898 59.2312 43.044 59.1632 43.208V47H57.6812V40.844H58.5512C58.7032 40.844 58.8092 40.872 58.8692 40.928C58.9292 40.98 58.9692 41.076 58.9892 41.216L59.0792 41.912ZM65.948 43.214C65.948 43.022 65.92 42.842 65.864 42.674C65.812 42.502 65.732 42.352 65.624 42.224C65.516 42.096 65.378 41.996 65.21 41.924C65.046 41.848 64.854 41.81 64.634 41.81C64.206 41.81 63.868 41.932 63.62 42.176C63.376 42.42 63.22 42.766 63.152 43.214H65.948ZM63.122 44.108C63.146 44.424 63.202 44.698 63.29 44.93C63.378 45.158 63.494 45.348 63.638 45.5C63.782 45.648 63.952 45.76 64.148 45.836C64.348 45.908 64.568 45.944 64.808 45.944C65.048 45.944 65.254 45.916 65.426 45.86C65.602 45.804 65.754 45.742 65.882 45.674C66.014 45.606 66.128 45.544 66.224 45.488C66.324 45.432 66.42 45.404 66.512 45.404C66.636 45.404 66.728 45.45 66.788 45.542L67.214 46.082C67.05 46.274 66.866 46.436 66.662 46.568C66.458 46.696 66.244 46.8 66.02 46.88C65.8 46.956 65.574 47.01 65.342 47.042C65.114 47.074 64.892 47.09 64.676 47.09C64.248 47.09 63.85 47.02 63.482 46.88C63.114 46.736 62.794 46.526 62.522 46.25C62.25 45.97 62.036 45.626 61.88 45.218C61.724 44.806 61.646 44.33 61.646 43.79C61.646 43.37 61.714 42.976 61.85 42.608C61.986 42.236 62.18 41.914 62.432 41.642C62.688 41.366 62.998 41.148 63.362 40.988C63.73 40.828 64.144 40.748 64.604 40.748C64.992 40.748 65.35 40.81 65.678 40.934C66.006 41.058 66.288 41.24 66.524 41.48C66.76 41.716 66.944 42.008 67.076 42.356C67.212 42.7 67.28 43.094 67.28 43.538C67.28 43.762 67.256 43.914 67.208 43.994C67.16 44.07 67.068 44.108 66.932 44.108H63.122Z" fill="#3F3F46"/>
</svg>
