<svg width="96" height="60" viewBox="0 0 96 60" fill="none" xmlns="http://www.w3.org/2000/svg">
<path d="M43.625 15.5C43.625 17.981 45.644 20 48.125 20C50.606 20 52.625 17.981 52.625 15.5C52.625 13.019 50.606 11 48.125 11C45.644 11 43.625 13.019 43.625 15.5ZM56.125 30H57.125V29C57.125 25.141 53.984 22 50.125 22H46.125C42.265 22 39.125 25.141 39.125 29V30H56.125Z" fill="#3F3F46"/>
<path d="M34.4266 42.686C34.7226 42.686 34.9806 42.65 35.2006 42.578C35.4206 42.502 35.6026 42.396 35.7466 42.26C35.8946 42.12 36.0046 41.952 36.0766 41.756C36.1486 41.556 36.1846 41.334 36.1846 41.09C36.1846 40.858 36.1486 40.648 36.0766 40.46C36.0046 40.272 35.8966 40.112 35.7526 39.98C35.6086 39.848 35.4266 39.748 35.2066 39.68C34.9866 39.608 34.7266 39.572 34.4266 39.572H33.2206V42.686H34.4266ZM34.4266 38.324C35.0066 38.324 35.5086 38.392 35.9326 38.528C36.3566 38.664 36.7066 38.854 36.9826 39.098C37.2586 39.342 37.4626 39.634 37.5946 39.974C37.7306 40.314 37.7986 40.686 37.7986 41.09C37.7986 41.51 37.7286 41.896 37.5886 42.248C37.4486 42.596 37.2386 42.896 36.9586 43.148C36.6786 43.4 36.3266 43.596 35.9026 43.736C35.4826 43.876 34.9906 43.946 34.4266 43.946H33.2206V47H31.6066V38.324H34.4266ZM40.1066 41.912C40.2986 41.544 40.5266 41.256 40.7906 41.048C41.0546 40.836 41.3666 40.73 41.7266 40.73C42.0106 40.73 42.2386 40.792 42.4106 40.916L42.3146 42.026C42.2946 42.098 42.2646 42.15 42.2246 42.182C42.1886 42.21 42.1386 42.224 42.0746 42.224C42.0146 42.224 41.9246 42.214 41.8046 42.194C41.6886 42.174 41.5746 42.164 41.4626 42.164C41.2986 42.164 41.1526 42.188 41.0246 42.236C40.8966 42.284 40.7806 42.354 40.6766 42.446C40.5766 42.534 40.4866 42.642 40.4066 42.77C40.3306 42.898 40.2586 43.044 40.1906 43.208V47H38.7086V40.844H39.5786C39.7306 40.844 39.8366 40.872 39.8966 40.928C39.9566 40.98 39.9966 41.076 40.0166 41.216L40.1066 41.912ZM45.7333 40.748C46.1893 40.748 46.6033 40.822 46.9753 40.97C47.3513 41.118 47.6713 41.328 47.9353 41.6C48.2033 41.872 48.4093 42.204 48.5533 42.596C48.6973 42.988 48.7693 43.426 48.7693 43.91C48.7693 44.398 48.6973 44.838 48.5533 45.23C48.4093 45.622 48.2033 45.956 47.9353 46.232C47.6713 46.508 47.3513 46.72 46.9753 46.868C46.6033 47.016 46.1893 47.09 45.7333 47.09C45.2733 47.09 44.8553 47.016 44.4793 46.868C44.1033 46.72 43.7813 46.508 43.5133 46.232C43.2493 45.956 43.0433 45.622 42.8953 45.23C42.7513 44.838 42.6793 44.398 42.6793 43.91C42.6793 43.426 42.7513 42.988 42.8953 42.596C43.0433 42.204 43.2493 41.872 43.5133 41.6C43.7813 41.328 44.1033 41.118 44.4793 40.97C44.8553 40.822 45.2733 40.748 45.7333 40.748ZM45.7333 45.95C46.2453 45.95 46.6233 45.778 46.8673 45.434C47.1153 45.09 47.2393 44.586 47.2393 43.922C47.2393 43.258 47.1153 42.752 46.8673 42.404C46.6233 42.056 46.2453 41.882 45.7333 41.882C45.2133 41.882 44.8273 42.058 44.5753 42.41C44.3273 42.758 44.2033 43.262 44.2033 43.922C44.2033 44.582 44.3273 45.086 44.5753 45.434C44.8273 45.778 45.2133 45.95 45.7333 45.95ZM50.1856 47V41.96L49.6516 41.876C49.5356 41.852 49.4416 41.812 49.3696 41.756C49.3016 41.696 49.2676 41.612 49.2676 41.504V40.898H50.1856V40.7C50.1856 40.324 50.2476 39.976 50.3716 39.656C50.4956 39.332 50.6836 39.052 50.9356 38.816C51.1876 38.58 51.5056 38.396 51.8896 38.264C52.2776 38.128 52.7336 38.06 53.2576 38.06C53.4256 38.06 53.5956 38.07 53.7676 38.09C53.9436 38.106 54.0956 38.134 54.2236 38.174L54.1756 38.942C54.1676 39.034 54.1176 39.09 54.0256 39.11C53.9336 39.126 53.8196 39.134 53.6836 39.134C53.2956 39.134 52.9696 39.168 52.7056 39.236C52.4456 39.304 52.2336 39.406 52.0696 39.542C51.9096 39.674 51.7936 39.842 51.7216 40.046C51.6536 40.246 51.6196 40.48 51.6196 40.748V40.898H55.4356V47H53.9536V41.954H51.6676V47H50.1856ZM58.4547 38.084V47H56.9727V38.084H58.4547ZM63.8972 43.214C63.8972 43.022 63.8692 42.842 63.8132 42.674C63.7612 42.502 63.6812 42.352 63.5732 42.224C63.4652 42.096 63.3272 41.996 63.1592 41.924C62.9952 41.848 62.8032 41.81 62.5832 41.81C62.1552 41.81 61.8172 41.932 61.5692 42.176C61.3252 42.42 61.1692 42.766 61.1012 43.214H63.8972ZM61.0712 44.108C61.0952 44.424 61.1512 44.698 61.2392 44.93C61.3272 45.158 61.4432 45.348 61.5872 45.5C61.7312 45.648 61.9012 45.76 62.0972 45.836C62.2972 45.908 62.5172 45.944 62.7572 45.944C62.9972 45.944 63.2032 45.916 63.3752 45.86C63.5512 45.804 63.7032 45.742 63.8312 45.674C63.9632 45.606 64.0772 45.544 64.1732 45.488C64.2732 45.432 64.3692 45.404 64.4612 45.404C64.5852 45.404 64.6772 45.45 64.7372 45.542L65.1632 46.082C64.9992 46.274 64.8152 46.436 64.6112 46.568C64.4072 46.696 64.1932 46.8 63.9692 46.88C63.7492 46.956 63.5232 47.01 63.2912 47.042C63.0632 47.074 62.8412 47.09 62.6252 47.09C62.1972 47.09 61.7992 47.02 61.4312 46.88C61.0632 46.736 60.7432 46.526 60.4712 46.25C60.1992 45.97 59.9852 45.626 59.8292 45.218C59.6732 44.806 59.5952 44.33 59.5952 43.79C59.5952 43.37 59.6632 42.976 59.7992 42.608C59.9352 42.236 60.1292 41.914 60.3812 41.642C60.6372 41.366 60.9472 41.148 61.3112 40.988C61.6792 40.828 62.0932 40.748 62.5532 40.748C62.9412 40.748 63.2992 40.81 63.6272 40.934C63.9552 41.058 64.2372 41.24 64.4732 41.48C64.7092 41.716 64.8932 42.008 65.0252 42.356C65.1612 42.7 65.2292 43.094 65.2292 43.538C65.2292 43.762 65.2052 43.914 65.1572 43.994C65.1092 44.07 65.0172 44.108 64.8812 44.108H61.0712Z" fill="#3F3F46"/>
</svg>
