<svg width="95" height="42" viewBox="0 0 95 42" fill="none" xmlns="http://www.w3.org/2000/svg">
<path d="M39.375 11H45.375C45.6402 11 45.8946 10.8946 46.0821 10.7071C46.2696 10.5196 46.375 10.2652 46.375 10V4C46.375 3.73478 46.2696 3.48043 46.0821 3.29289C45.8946 3.10536 45.6402 3 45.375 3H39.375C39.1098 3 38.8554 3.10536 38.6679 3.29289C38.4804 3.48043 38.375 3.73478 38.375 4V10C38.375 10.2652 38.4804 10.5196 38.6679 10.7071C38.8554 10.8946 39.1098 11 39.375 11ZM49.375 11H55.375C55.6402 11 55.8946 10.8946 56.0821 10.7071C56.2696 10.5196 56.375 10.2652 56.375 10V4C56.375 3.73478 56.2696 3.48043 56.0821 3.29289C55.8946 3.10536 55.6402 3 55.375 3H49.375C49.1098 3 48.8554 3.10536 48.6679 3.29289C48.4804 3.48043 48.375 3.73478 48.375 4V10C48.375 10.2652 48.4804 10.5196 48.6679 10.7071C48.8554 10.8946 49.1098 11 49.375 11ZM39.375 21H45.375C45.6402 21 45.8946 20.8946 46.0821 20.7071C46.2696 20.5196 46.375 20.2652 46.375 20V14C46.375 13.7348 46.2696 13.4804 46.0821 13.2929C45.8946 13.1054 45.6402 13 45.375 13H39.375C39.1098 13 38.8554 13.1054 38.6679 13.2929C38.4804 13.4804 38.375 13.7348 38.375 14V20C38.375 20.2652 38.4804 20.5196 38.6679 20.7071C38.8554 20.8946 39.1098 21 39.375 21ZM52.375 21C54.581 21 56.375 19.206 56.375 17C56.375 14.794 54.581 13 52.375 13C50.169 13 48.375 14.794 48.375 17C48.375 19.206 50.169 21 52.375 21Z" fill="#3F3F46"/>
<path d="M32.9632 29.324V30.608H29.1172V33.014H32.1472V34.256H29.1172V36.71H32.9632V38H27.4912V29.324H32.9632ZM35.7324 34.826L33.7104 31.844H35.1384C35.2464 31.844 35.3264 31.86 35.3784 31.892C35.4304 31.92 35.4764 31.968 35.5164 32.036L36.8064 34.094C36.8264 34.026 36.8504 33.958 36.8784 33.89C36.9104 33.822 36.9484 33.754 36.9924 33.686L38.0304 32.066C38.0784 31.99 38.1284 31.934 38.1804 31.898C38.2324 31.862 38.2964 31.844 38.3724 31.844H39.7344L37.7064 34.76L39.8184 38H38.3904C38.2824 38 38.1944 37.972 38.1264 37.916C38.0624 37.86 38.0084 37.796 37.9644 37.724L36.6564 35.582C36.6204 35.726 36.5704 35.846 36.5064 35.942L35.3544 37.724C35.3104 37.792 35.2564 37.856 35.1924 37.916C35.1284 37.972 35.0484 38 34.9524 38H33.6264L35.7324 34.826ZM40.7549 40.01V31.844H41.6609C41.7569 31.844 41.8389 31.866 41.9069 31.91C41.9749 31.954 42.0189 32.022 42.0389 32.114L42.1589 32.684C42.4069 32.4 42.6909 32.17 43.0109 31.994C43.3349 31.818 43.7129 31.73 44.1449 31.73C44.4809 31.73 44.7869 31.8 45.0629 31.94C45.3429 32.08 45.5829 32.284 45.7829 32.552C45.9869 32.816 46.1429 33.144 46.2509 33.536C46.3629 33.924 46.4189 34.37 46.4189 34.874C46.4189 35.334 46.3569 35.76 46.2329 36.152C46.1089 36.544 45.9309 36.884 45.6989 37.172C45.4709 37.46 45.1929 37.686 44.8649 37.85C44.5409 38.01 44.1769 38.09 43.7729 38.09C43.4249 38.09 43.1289 38.038 42.8849 37.934C42.6449 37.826 42.4289 37.678 42.2369 37.49V40.01H40.7549ZM43.6349 32.9C43.3269 32.9 43.0629 32.966 42.8429 33.098C42.6269 33.226 42.4249 33.408 42.2369 33.644V36.404C42.4049 36.612 42.5869 36.758 42.7829 36.842C42.9829 36.922 43.1969 36.962 43.4249 36.962C43.6489 36.962 43.8509 36.92 44.0309 36.836C44.2149 36.752 44.3689 36.624 44.4929 36.452C44.6209 36.28 44.7189 36.064 44.7869 35.804C44.8549 35.54 44.8889 35.23 44.8889 34.874C44.8889 34.514 44.8589 34.21 44.7989 33.962C44.7429 33.71 44.6609 33.506 44.5529 33.35C44.4449 33.194 44.3129 33.08 44.1569 33.008C44.0049 32.936 43.8309 32.9 43.6349 32.9ZM49.118 29.084V38H47.636V29.084H49.118ZM53.4259 31.748C53.8859 31.748 54.3019 31.822 54.6739 31.97C55.0499 32.118 55.3699 32.328 55.6339 32.6C55.8979 32.872 56.1019 33.204 56.2459 33.596C56.3899 33.988 56.4619 34.426 56.4619 34.91C56.4619 35.398 56.3899 35.838 56.2459 36.23C56.1019 36.622 55.8979 36.956 55.6339 37.232C55.3699 37.508 55.0499 37.72 54.6739 37.868C54.3019 38.016 53.8859 38.09 53.4259 38.09C52.9659 38.09 52.5479 38.016 52.1719 37.868C51.7959 37.72 51.4739 37.508 51.2059 37.232C50.9419 36.956 50.7359 36.622 50.5879 36.23C50.4439 35.838 50.3719 35.398 50.3719 34.91C50.3719 34.426 50.4439 33.988 50.5879 33.596C50.7359 33.204 50.9419 32.872 51.2059 32.6C51.4739 32.328 51.7959 32.118 52.1719 31.97C52.5479 31.822 52.9659 31.748 53.4259 31.748ZM53.4259 36.95C53.9379 36.95 54.3159 36.778 54.5599 36.434C54.8079 36.09 54.9319 35.586 54.9319 34.922C54.9319 34.258 54.8079 33.752 54.5599 33.404C54.3159 33.056 53.9379 32.882 53.4259 32.882C52.9059 32.882 52.5219 33.058 52.2739 33.41C52.0259 33.758 51.9019 34.262 51.9019 34.922C51.9019 35.582 52.0259 36.086 52.2739 36.434C52.5219 36.778 52.9059 36.95 53.4259 36.95ZM57.6182 38V31.844H58.4882C58.6402 31.844 58.7462 31.872 58.8062 31.928C58.8662 31.984 58.9062 32.08 58.9262 32.216L59.0162 32.96C59.2362 32.58 59.4942 32.28 59.7902 32.06C60.0862 31.84 60.4182 31.73 60.7862 31.73C61.0902 31.73 61.3422 31.8 61.5422 31.94L61.3502 33.05C61.3382 33.122 61.3122 33.174 61.2722 33.206C61.2322 33.234 61.1782 33.248 61.1102 33.248C61.0502 33.248 60.9682 33.234 60.8642 33.206C60.7602 33.178 60.6222 33.164 60.4502 33.164C60.1422 33.164 59.8782 33.25 59.6582 33.422C59.4382 33.59 59.2522 33.838 59.1002 34.166V38H57.6182ZM65.0606 31.748C65.4486 31.748 65.8046 31.81 66.1286 31.934C66.4566 32.058 66.7386 32.24 66.9746 32.48C67.2106 32.716 67.3946 33.008 67.5266 33.356C67.6586 33.7 67.7246 34.094 67.7246 34.538C67.7246 34.65 67.7186 34.744 67.7066 34.82C67.6986 34.892 67.6806 34.95 67.6526 34.994C67.6286 35.034 67.5946 35.064 67.5506 35.084C67.5066 35.1 67.4506 35.108 67.3826 35.108H63.5786C63.6226 35.74 63.7926 36.204 64.0886 36.5C64.3846 36.796 64.7766 36.944 65.2646 36.944C65.5046 36.944 65.7106 36.916 65.8826 36.86C66.0586 36.804 66.2106 36.742 66.3386 36.674C66.4706 36.606 66.5846 36.544 66.6806 36.488C66.7806 36.432 66.8766 36.404 66.9686 36.404C67.0286 36.404 67.0806 36.416 67.1246 36.44C67.1686 36.464 67.2066 36.498 67.2386 36.542L67.6706 37.082C67.5066 37.274 67.3226 37.436 67.1186 37.568C66.9146 37.696 66.7006 37.8 66.4766 37.88C66.2566 37.956 66.0306 38.01 65.7986 38.042C65.5706 38.074 65.3486 38.09 65.1326 38.09C64.7046 38.09 64.3066 38.02 63.9386 37.88C63.5706 37.736 63.2506 37.526 62.9786 37.25C62.7066 36.97 62.4926 36.626 62.3366 36.218C62.1806 35.806 62.1026 35.33 62.1026 34.79C62.1026 34.37 62.1706 33.976 62.3066 33.608C62.4426 33.236 62.6366 32.914 62.8886 32.642C63.1446 32.366 63.4546 32.148 63.8186 31.988C64.1866 31.828 64.6006 31.748 65.0606 31.748ZM65.0906 32.81C64.6586 32.81 64.3206 32.932 64.0766 33.176C63.8326 33.42 63.6766 33.766 63.6086 34.214H66.3926C66.3926 34.022 66.3666 33.842 66.3146 33.674C66.2626 33.502 66.1826 33.352 66.0746 33.224C65.9666 33.096 65.8306 32.996 65.6666 32.924C65.5026 32.848 65.3106 32.81 65.0906 32.81Z" fill="#3F3F46"/>
</svg>
