<svg width="14" height="13" viewBox="0 0 14 13" fill="none" xmlns="http://www.w3.org/2000/svg">
<path d="M12.98 11.36H1.02C0.732375 11.36 0.5 11.5745 0.5 11.84V12.38C0.5 12.446 0.5585 12.5 0.63 12.5H13.37C13.4415 12.5 13.5 12.446 13.5 12.38V11.84C13.5 11.5745 13.2676 11.36 12.98 11.36ZM2.86762 10.1C2.90013 10.1 2.93263 10.097 2.96513 10.0925L5.69837 9.65C5.73087 9.644 5.76175 9.6305 5.7845 9.608L12.6729 3.2495C12.6879 3.23562 12.6999 3.21914 12.708 3.20099C12.7162 3.18285 12.7204 3.1634 12.7204 3.14375C12.7204 3.1241 12.7162 3.10465 12.708 3.08651C12.6999 3.06836 12.6879 3.05188 12.6729 3.038L9.97213 0.5435C9.94125 0.515 9.90062 0.5 9.85675 0.5C9.81287 0.5 9.77225 0.515 9.74137 0.5435L2.853 6.902C2.82862 6.9245 2.814 6.9515 2.8075 6.9815L2.32812 9.5045C2.31232 9.58486 2.31797 9.66756 2.34458 9.74545C2.3712 9.82333 2.41798 9.89406 2.48087 9.9515C2.58812 10.0475 2.723 10.1 2.86762 10.1Z" fill="#3B82F6"/>
</svg>
