<svg width="76" height="76" viewBox="0 0 76 76" fill="none" xmlns="http://www.w3.org/2000/svg">
<rect width="76" height="76" rx="38" fill="white"/>
<path d="M24.6211 41.0801H28.6641V42H23.4902V33.4688H24.6211V41.0801ZM36.123 38.0098C36.123 38.8457 35.9824 39.5762 35.7012 40.2012C35.4199 40.8223 35.0215 41.2969 34.5059 41.625C33.9902 41.9531 33.3887 42.1172 32.7012 42.1172C32.0293 42.1172 31.4336 41.9531 30.9141 41.625C30.3945 41.293 29.9902 40.8223 29.7012 40.2129C29.416 39.5996 29.2695 38.8906 29.2617 38.0859V37.4707C29.2617 36.6504 29.4043 35.9258 29.6895 35.2969C29.9746 34.668 30.377 34.1875 30.8965 33.8555C31.4199 33.5195 32.0176 33.3516 32.6895 33.3516C33.373 33.3516 33.9746 33.5176 34.4941 33.8496C35.0176 34.1777 35.4199 34.6562 35.7012 35.2852C35.9824 35.9102 36.123 36.6387 36.123 37.4707V38.0098ZM35.0039 37.459C35.0039 36.4473 34.8008 35.6719 34.3945 35.1328C33.9883 34.5898 33.4199 34.3184 32.6895 34.3184C31.9785 34.3184 31.418 34.5898 31.0078 35.1328C30.6016 35.6719 30.3926 36.4219 30.3809 37.3828V38.0098C30.3809 38.9902 30.5859 39.7617 30.9961 40.3242C31.4102 40.8828 31.9785 41.1621 32.7012 41.1621C33.4277 41.1621 33.9902 40.8984 34.3887 40.3711C34.7871 39.8398 34.9922 39.0801 35.0039 38.0918V37.459ZM44.1094 40.8809C43.8203 41.2949 43.416 41.6055 42.8965 41.8125C42.3809 42.0156 41.7793 42.1172 41.0918 42.1172C40.3965 42.1172 39.7793 41.9551 39.2402 41.6309C38.7012 41.3027 38.2832 40.8379 37.9863 40.2363C37.6934 39.6348 37.543 38.9375 37.5352 38.1445V37.4004C37.5352 36.1152 37.834 35.1191 38.4316 34.4121C39.0332 33.7051 39.877 33.3516 40.9629 33.3516C41.8535 33.3516 42.5703 33.5801 43.1133 34.0371C43.6562 34.4902 43.9883 35.1348 44.1094 35.9707H42.9844C42.7734 34.8418 42.1016 34.2773 40.9688 34.2773C40.2148 34.2773 39.6426 34.543 39.252 35.0742C38.8652 35.6016 38.6699 36.3672 38.666 37.3711V38.0684C38.666 39.0254 38.8848 39.7871 39.3223 40.3535C39.7598 40.916 40.3516 41.1973 41.0977 41.1973C41.5195 41.1973 41.8887 41.1504 42.2051 41.0566C42.5215 40.9629 42.7832 40.8047 42.9902 40.582V38.666H41.0156V37.752H44.1094V40.8809ZM52.5527 38.0098C52.5527 38.8457 52.4121 39.5762 52.1309 40.2012C51.8496 40.8223 51.4512 41.2969 50.9355 41.625C50.4199 41.9531 49.8184 42.1172 49.1309 42.1172C48.459 42.1172 47.8633 41.9531 47.3438 41.625C46.8242 41.293 46.4199 40.8223 46.1309 40.2129C45.8457 39.5996 45.6992 38.8906 45.6914 38.0859V37.4707C45.6914 36.6504 45.834 35.9258 46.1191 35.2969C46.4043 34.668 46.8066 34.1875 47.3262 33.8555C47.8496 33.5195 48.4473 33.3516 49.1191 33.3516C49.8027 33.3516 50.4043 33.5176 50.9238 33.8496C51.4473 34.1777 51.8496 34.6562 52.1309 35.2852C52.4121 35.9102 52.5527 36.6387 52.5527 37.4707V38.0098ZM51.4336 37.459C51.4336 36.4473 51.2305 35.6719 50.8242 35.1328C50.418 34.5898 49.8496 34.3184 49.1191 34.3184C48.4082 34.3184 47.8477 34.5898 47.4375 35.1328C47.0312 35.6719 46.8223 36.4219 46.8105 37.3828V38.0098C46.8105 38.9902 47.0156 39.7617 47.4258 40.3242C47.8398 40.8828 48.4082 41.1621 49.1309 41.1621C49.8574 41.1621 50.4199 40.8984 50.8184 40.3711C51.2168 39.8398 51.4219 39.0801 51.4336 38.0918V37.459Z" fill="black"/>
</svg>
