<svg width="17" height="17" viewBox="0 0 17 17" fill="none" xmlns="http://www.w3.org/2000/svg">
<g clip-path="url(#clip0_991:7629)">
<path d="M8.875 10.5C9.97957 10.5 10.875 9.60457 10.875 8.5C10.875 7.39543 9.97957 6.5 8.875 6.5C7.77043 6.5 6.875 7.39543 6.875 8.5C6.875 9.60457 7.77043 10.5 8.875 10.5Z" fill="#FF8F00"/>
<path d="M16.3448 8.33C15.7567 6.80882 14.7358 5.49331 13.4082 4.54604C12.0806 3.59878 10.5045 3.06129 8.87479 3C7.24505 3.06129 5.66898 3.59878 4.34139 4.54604C3.0138 5.49331 1.99287 6.80882 1.40479 8.33C1.36507 8.43985 1.36507 8.56015 1.40479 8.67C1.99287 10.1912 3.0138 11.5067 4.34139 12.454C5.66898 13.4012 7.24505 13.9387 8.87479 14C10.5045 13.9387 12.0806 13.4012 13.4082 12.454C14.7358 11.5067 15.7567 10.1912 16.3448 8.67C16.3845 8.56015 16.3845 8.43985 16.3448 8.33ZM8.87479 11.75C8.232 11.75 7.60364 11.5594 7.06918 11.2023C6.53473 10.8452 6.11816 10.3376 5.87218 9.74372C5.62619 9.14986 5.56183 8.49639 5.68724 7.86596C5.81264 7.23552 6.12217 6.65642 6.57669 6.2019C7.03121 5.74738 7.61031 5.43785 8.24074 5.31245C8.87118 5.18705 9.52465 5.25141 10.1185 5.49739C10.7124 5.74338 11.2199 6.15994 11.5771 6.6944C11.9342 7.22886 12.1248 7.85721 12.1248 8.5C12.1235 9.36155 11.7806 10.1874 11.1714 10.7966C10.5622 11.4058 9.73634 11.7487 8.87479 11.75Z" fill="#FF8F00"/>
</g>
<defs>
<clipPath id="clip0_991:7629">
<rect width="16" height="16" fill="white" transform="translate(0.875 0.5)"/>
</clipPath>
</defs>
</svg>
