<svg width="20" height="21" viewBox="0 0 20 21" fill="none" xmlns="http://www.w3.org/2000/svg">
<g clip-path="url(#clip0_991_7298)">
<path d="M7 20.61C6.73478 20.61 6.48043 20.5046 6.29289 20.3171C6.10536 20.1296 6 19.8752 6 19.61V16.61H2C1.46957 16.61 0.960859 16.3993 0.585786 16.0242C0.210714 15.6491 0 15.1404 0 14.61V2.60999C0 2.07956 0.210714 1.57084 0.585786 1.19577C0.960859 0.820699 1.46957 0.609985 2 0.609985H18C18.5304 0.609985 19.0391 0.820699 19.4142 1.19577C19.7893 1.57084 20 2.07956 20 2.60999V14.61C20 15.1404 19.7893 15.6491 19.4142 16.0242C19.0391 16.3993 18.5304 16.61 18 16.61H11.9L8.2 20.32C8 20.51 7.75 20.61 7.5 20.61H7ZM15 9.60999V7.60999H13V9.60999H15ZM11 9.60999V7.60999H9V9.60999H11ZM7 9.60999V7.60999H5V9.60999H7Z" fill="black"/>
</g>
<defs>
<clipPath id="clip0_991_7298">
<rect width="20" height="20" fill="white" transform="translate(0 0.609985)"/>
</clipPath>
</defs>
</svg>
