<svg width="42" height="36" viewBox="0 0 42 36" fill="none" xmlns="http://www.w3.org/2000/svg">
<g clip-path="url(#clip0)">
<path d="M8.05769 5.81253C7.60127 5.81253 7.15511 5.94787 6.77561 6.20145C6.39611 6.45502 6.10033 6.81543 5.92566 7.23711C5.751 7.65878 5.7053 8.12278 5.79434 8.57043C5.88339 9.01808 6.10317 9.42927 6.42591 9.75201C6.74864 10.0747 7.15984 10.2945 7.60748 10.3836C8.05513 10.4726 8.51913 10.4269 8.94081 10.2523C9.36248 10.0776 9.7229 9.78181 9.97647 9.40231C10.23 9.02281 10.3654 8.57664 10.3654 8.12022C10.3654 7.50818 10.1223 6.92121 9.68948 6.48844C9.2567 6.05566 8.66973 5.81253 8.05769 5.81253ZM8.05769 13.5048C7.60127 13.5048 7.15511 13.6402 6.77561 13.8938C6.39611 14.1473 6.10033 14.5077 5.92566 14.9294C5.751 15.3511 5.7053 15.8151 5.79434 16.2627C5.88339 16.7104 6.10317 17.1216 6.42591 17.4443C6.74864 17.7671 7.15984 17.9868 7.60748 18.0759C8.05513 18.1649 8.51913 18.1192 8.94081 17.9446C9.36248 17.7699 9.7229 17.4741 9.97647 17.0946C10.23 16.7151 10.3654 16.2689 10.3654 15.8125C10.3654 15.2005 10.1223 14.6135 9.68948 14.1807C9.2567 13.748 8.66973 13.5048 8.05769 13.5048ZM8.05769 21.1971C7.60127 21.1971 7.15511 21.3325 6.77561 21.5861C6.39611 21.8396 6.10033 22.2 5.92566 22.6217C5.751 23.0434 5.7053 23.5074 5.79434 23.955C5.88339 24.4027 6.10317 24.8139 6.42591 25.1366C6.74864 25.4594 7.15984 25.6791 7.60748 25.7682C8.05513 25.8572 8.51913 25.8115 8.94081 25.6369C9.36248 25.4622 9.7229 25.1664 9.97647 24.7869C10.23 24.4074 10.3654 23.9613 10.3654 23.5048C10.3654 22.8928 10.1223 22.3058 9.68948 21.8731C9.2567 21.4403 8.66973 21.1971 8.05769 21.1971ZM29.5961 21.9664H14.2115C14.0075 21.9664 13.8119 22.0474 13.6676 22.1917C13.5234 22.3359 13.4423 22.5316 13.4423 22.7356V24.2741C13.4423 24.4781 13.5234 24.6737 13.6676 24.818C13.8119 24.9623 14.0075 25.0433 14.2115 25.0433H29.5961C29.8002 25.0433 29.9958 24.9623 30.1401 24.818C30.2843 24.6737 30.3654 24.4781 30.3654 24.2741V22.7356C30.3654 22.5316 30.2843 22.3359 30.1401 22.1917C29.9958 22.0474 29.8002 21.9664 29.5961 21.9664ZM29.5961 6.58176H14.2115C14.0075 6.58176 13.8119 6.66281 13.6676 6.80706C13.5234 6.95132 13.4423 7.14698 13.4423 7.35099V8.88945C13.4423 9.09347 13.5234 9.28912 13.6676 9.43338C13.8119 9.57764 14.0075 9.65868 14.2115 9.65868H29.5961C29.8002 9.65868 29.9958 9.57764 30.1401 9.43338C30.2843 9.28912 30.3654 9.09347 30.3654 8.88945V7.35099C30.3654 7.14698 30.2843 6.95132 30.1401 6.80706C29.9958 6.66281 29.8002 6.58176 29.5961 6.58176ZM29.5961 14.2741H14.2115C14.0075 14.2741 13.8119 14.3551 13.6676 14.4994C13.5234 14.6436 13.4423 14.8393 13.4423 15.0433V16.5818C13.4423 16.7858 13.5234 16.9814 13.6676 17.1257C13.8119 17.2699 14.0075 17.351 14.2115 17.351H29.5961C29.8002 17.351 29.9958 17.2699 30.1401 17.1257C30.2843 16.9814 30.3654 16.7858 30.3654 16.5818V15.0433C30.3654 14.8393 30.2843 14.6436 30.1401 14.4994C29.9958 14.3551 29.8002 14.2741 29.5961 14.2741Z" fill="black"/>
</g>
<defs>
<clipPath id="clip0">
<rect width="30" height="30" fill="white" transform="translate(5.75 3)"/>
</clipPath>
</defs>
</svg>
